<svg xmlns="http://www.w3.org/2000/svg" width="74.408" height="74.408" viewBox="0 0 74.408 74.408">
  <g id="assets" transform="translate(-2 -2)">
    <path id="Path_5967" data-name="Path 5967" d="M4.48,76.4h7.441a2.483,2.483,0,0,0,2.48-2.48v-2.48H42.436A33.208,33.208,0,0,0,75.141,44l.538-3.048a4.656,4.656,0,0,0-6.712-4.962V30.511h1.24a1.24,1.24,0,0,0,.877-2.117l-9.921-9.921a1.239,1.239,0,0,0-1.754,0l-2.844,2.844V4.468a1.24,1.24,0,0,0-1.24-1.24h-12.4a1.24,1.24,0,0,0-1.24,1.24V18.11H36.659a20.2,20.2,0,0,0-2.2-3.994l3.134-7.659a2.149,2.149,0,0,0-2.945-2.748L32.3,4.88,30.823,2.911a2.151,2.151,0,0,0-3.242-.232L25.7,4.564,24.456,2.911a2.151,2.151,0,0,0-3.242-.232l-2.38,2.38L15.258,4.037A2.149,2.149,0,0,0,12.779,7.13l3.75,6.924c-2.633,2.379-5.848,9.062-5.848,15.135v3.8a7.448,7.448,0,0,0,7.441,7.441h47.6L63.1,45.672l-6.82,2.923a6.193,6.193,0,0,0-5.917-4.442H32.511A34.31,34.31,0,0,0,14.4,49.294V46.633a2.483,2.483,0,0,0-2.48-2.48H4.48A2.483,2.483,0,0,0,2,46.633V73.916A2.483,2.483,0,0,0,4.48,76.4ZM18.341,7.5a2.147,2.147,0,0,0,2.111-.547L22.7,4.7l1.24,1.656a2.15,2.15,0,0,0,3.24.229L29.067,4.7l1.415,1.885a2.144,2.144,0,0,0,2.681.635l1.8-.9-2.8,6.829H28.809l1.582-3.166-2.219-1.11-2.137,4.276H23.862l-1.729-3.6L19.9,10.628l1.212,2.521H18.86L15.334,6.639ZM30.523,19.35v18.6h-12.4a4.966,4.966,0,0,1-4.961-4.961v-3.8c0-6.638,4.109-12.829,5.284-13.558H32.492a13.362,13.362,0,0,1,1.426,2.48H31.763a1.24,1.24,0,0,0-1.24,1.24ZM33,20.59h8.681V37.952H33Zm27.283.513,6.927,6.927H53.359ZM44.165,5.709h9.921V23.8l-4.6,4.6a1.24,1.24,0,0,0,.877,2.117h1.24v7.441H44.165Zm9.921,24.8h12.4v7.441h-2.48V32.992a1.24,1.24,0,0,0-1.24-1.24H57.806a1.24,1.24,0,0,0-1.24,1.24v4.961h-2.48Zm7.441,7.441h-2.48v-3.72h2.48ZM32.511,46.633H50.365a3.72,3.72,0,0,1,0,7.441H30.523v2.48H50.365a6.19,6.19,0,0,0,6.114-5.346l8.015-3.435a1.232,1.232,0,0,0,.621-.585l4.013-8.027a2.187,2.187,0,0,1,4.11,1.358L72.7,43.566A30.732,30.732,0,0,1,42.436,68.956H14.4V52.261a31.855,31.855,0,0,1,18.11-5.628Zm-28.031,0h7.441V73.916H4.48Z" transform="translate(0 0.012)" fill="#42e2c3"/>
    <path id="Path_5968" data-name="Path 5968" d="M6,41H8.48v3.72H6Z" transform="translate(0.961 9.365)" fill="#42e2c3"/>
    <path id="Path_5969" data-name="Path 5969" d="M38,7h1.24V9.48H38Z" transform="translate(8.645 1.201)" fill="#42e2c3"/>
    <path id="Path_5970" data-name="Path 5970" d="M41,7h1.24V9.48H41Z" transform="translate(9.365 1.201)" fill="#42e2c3"/>
    <path id="Path_5971" data-name="Path 5971" d="M38,11h1.24v2.48H38Z" transform="translate(8.645 2.161)" fill="#42e2c3"/>
    <path id="Path_5972" data-name="Path 5972" d="M41,11h1.24v2.48H41Z" transform="translate(9.365 2.161)" fill="#42e2c3"/>
    <path id="Path_5973" data-name="Path 5973" d="M38,15h1.24v2.48H38Z" transform="translate(8.645 3.122)" fill="#42e2c3"/>
    <path id="Path_5974" data-name="Path 5974" d="M41,15h1.24v2.48H41Z" transform="translate(9.365 3.122)" fill="#42e2c3"/>
    <path id="Path_5975" data-name="Path 5975" d="M29,19h1.24v2.48H29Z" transform="translate(6.484 4.082)" fill="#42e2c3"/>
    <path id="Path_5976" data-name="Path 5976" d="M32,19h1.24v2.48H32Z" transform="translate(7.204 4.082)" fill="#42e2c3"/>
    <path id="Path_5977" data-name="Path 5977" d="M29,23h1.24v2.48H29Z" transform="translate(6.484 5.043)" fill="#42e2c3"/>
    <path id="Path_5978" data-name="Path 5978" d="M32,23h1.24v2.48H32Z" transform="translate(7.204 5.043)" fill="#42e2c3"/>
    <path id="Path_5979" data-name="Path 5979" d="M29,27h1.24v2.48H29Z" transform="translate(6.484 6.003)" fill="#42e2c3"/>
    <path id="Path_5980" data-name="Path 5980" d="M32,27h1.24v2.48H32Z" transform="translate(7.204 6.003)" fill="#42e2c3"/>
    <path id="Path_5981" data-name="Path 5981" d="M38,19h1.24v2.48H38Z" transform="translate(8.645 4.082)" fill="#42e2c3"/>
    <path id="Path_5982" data-name="Path 5982" d="M41,19h1.24v2.48H41Z" transform="translate(9.365 4.082)" fill="#42e2c3"/>
    <path id="Path_5983" data-name="Path 5983" d="M23.2,18.24h-1.24V17H19.48v1.24H18.24A1.24,1.24,0,0,0,17,19.48V23.2a1.24,1.24,0,0,0,1.24,1.24h3.72v1.24H17v1.24a1.24,1.24,0,0,0,1.24,1.24h1.24V29.4h2.48v-1.24H23.2a1.24,1.24,0,0,0,1.24-1.24V23.2a1.24,1.24,0,0,0-1.24-1.24H19.48V20.72h4.961V19.48A1.24,1.24,0,0,0,23.2,18.24Z" transform="translate(3.602 3.602)" fill="#42e2c3"/>
    <path id="Path_5984" data-name="Path 5984" d="M53,4h2.48V6.48H53Z" transform="translate(12.247 0.48)" fill="#42e2c3"/>
    <path id="Path_5985" data-name="Path 5985" d="M55,2h2.48V4.48H55Z" transform="translate(12.727 0)" fill="#42e2c3"/>
    <path id="Path_5986" data-name="Path 5986" d="M57,4h2.48V6.48H57Z" transform="translate(13.208 0.48)" fill="#42e2c3"/>
    <path id="Path_5987" data-name="Path 5987" d="M55,6h2.48V8.48H55Z" transform="translate(12.727 0.961)" fill="#42e2c3"/>
    <path id="Path_5988" data-name="Path 5988" d="M60,9h2.48v2.48H60Z" transform="translate(13.928 1.681)" fill="#42e2c3"/>
    <path id="Path_5989" data-name="Path 5989" d="M53,12h2.48v2.48H53Z" transform="translate(12.247 2.401)" fill="#42e2c3"/>
    <path id="Path_5990" data-name="Path 5990" d="M2,11H4.48v2.48H2Z" transform="translate(0 2.161)" fill="#42e2c3"/>
    <path id="Path_5991" data-name="Path 5991" d="M4,9H6.48v2.48H4Z" transform="translate(0.48 1.681)" fill="#42e2c3"/>
    <path id="Path_5992" data-name="Path 5992" d="M6,11H8.48v2.48H6Z" transform="translate(0.961 2.161)" fill="#42e2c3"/>
    <path id="Path_5993" data-name="Path 5993" d="M4,13H6.48v2.48H4Z" transform="translate(0.48 2.642)" fill="#42e2c3"/>
    <path id="Path_5994" data-name="Path 5994" d="M2,19H4.48v2.48H2Z" transform="translate(0 4.082)" fill="#42e2c3"/>
    <path id="Path_5995" data-name="Path 5995" d="M6,2H8.48V4.48H6Z" transform="translate(0.961 0)" fill="#42e2c3"/>
  </g>
</svg>
