<?xml version="1.0" encoding="utf-8"?>
<!-- Generator: Adobe Illustrator 27.0.0, SVG Export Plug-In . SVG Version: 6.00 Build 0)  -->
<svg version="1.1" id="Layer_1" width="110" height="36" xmlns="http://www.w3.org/2000/svg" xmlns:xlink="http://www.w3.org/1999/xlink" x="0px" y="0px"
	 viewBox="0 0 831 272" style="enable-background:new 0 0 831 272;" xml:space="preserve">
<style type="text/css">
	.st0{fill:#BC2026;}
	.st1{fill:#FFFFFF;}
</style>
<g>
	<g>
		<path class="st0" d="M39.9,136c0-54.9,44.5-99.4,99.4-99.4c55,0,99.4,44.5,99.4,99.4c0,55-44.5,99.4-99.4,99.4
			C84.4,235.4,39.9,190.9,39.9,136z"/>
		<path class="st1" d="M112.7,109.8h39.5c0.6,0,1.1-0.4,1.1-1c0-3.4,0-6.7-0.4-10.1c0-0.6-0.6-1-1.1-1l-46.6-0.2
			c-1,0-1.7,0.8-1.7,1.7c0,0.4,0.2,0.8,0.6,1.1l7.4,8.7C111.8,109.6,112.1,109.8,112.7,109.8z"/>
		<path class="st1" d="M195.8,97.8h-20.9c0.4,4,0.4,8,0.2,12h20.7c1,0,1.7-0.8,1.7-1.7v-8.7C197.3,98.5,196.6,97.8,195.8,97.8z"/>
		<path class="st1" d="M195.8,78.4H89.3c-0.6,0-1.1,0.4-1.3,1c-0.2,0.6-0.2,1.3,0.4,1.9l7,8.7c0.4,0.2,0.8,0.4,1.1,0.4h57
			c1.7,0,3,1.1,3.4,2.7c2.1,6.7,2.5,17.7,0,22.8c-1,2.3-3.2,3.8-5.9,3.6h-28c-0.6,0-1.1,0.4-1.5,1c-0.2,0.6-0.2,1.3,0.4,1.7l6.8,8.2
			c0.4,0.4,0.8,0.4,1.1,0.4h14.1c1.1,0.4,2.3,1,3,1.7c12,9.5,22.6,19,22.6,31.9c0,9.3-5.3,16.4-12.5,20.5c-1,0.6-2.1,1.1-3.2,1.7
			c-0.8,0.4-1.3,0.6-2.1,0.8h-0.2c-1.1,0.4-2.3,0.8-3.4,1.1h-0.2c-0.8,0.2-1.5,0.4-2.3,0.6c-0.2,0-0.2,0-0.4,0
			c-0.8,0.2-1.3,0.2-2.1,0.4c-2.1,0.2-4,0.4-5.9,0.4c-17.5,0-30.4-8.7-43.4-29.1c-0.2-0.4-0.6-0.6-1-0.8l-10.8-2.5
			c-0.2,0-0.6,0-0.8,0c-0.4,0-0.8,0.4-1,0.6c-0.4,0.6-0.6,1.3-0.2,1.9c16.7,28.9,33.7,41.1,57,41.1c2.5,0,4.8-0.2,7.2-0.4
			c1.3-0.2,2.7-0.4,4-0.6h0.4l0.8-0.2l1.3-0.4c0.2,0,0.2,0,0.4,0c3.8-1,7.4-2.3,10.6-4.2l0.8-0.4c0.2-0.2,0.6-0.4,1-0.6l0.8-0.4
			l0.8-0.6c0.4-0.2,0.6-0.4,0.8-0.6l0.6-0.4c8.9-6.7,14.3-16.9,14.6-28.1c0-15-8-24.7-18.6-33.8l-1-0.8l-1.3-1.1
			c3-1.7,5.5-4.4,7-7.6c4-7.6,3.6-20.9,0.8-30.4H196c1,0,1.7-0.8,1.7-1.7v-8.6C197.5,79.1,196.8,78.4,195.8,78.4z"/>
	</g>
	<g>
		<path d="M377.4,108.1v97.6h-18c-3.3,0.3-6.4-1.9-7.2-5l-1.7-5.5c-1.9,1.7-3.9,3.3-5.8,5c-1.9,1.4-4.2,2.8-6.4,3.9
			c-2.5,1.1-5,1.9-7.5,2.5c-2.8,0.6-5.8,0.8-8.6,0.8c-5,0-9.7-0.8-14.1-2.8c-3.9-1.7-7.5-4.4-10.5-7.8c-2.8-3.6-5-7.5-6.4-11.6
			c-1.4-4.7-2.2-9.7-2.2-15v-62.1h29.1v62.1c-0.3,3.9,0.8,7.8,3.3,11.1c2.5,2.8,6.1,4.2,9.7,4.2c3,0,6.1-0.6,8.9-1.9
			c3-1.4,5.8-3.3,8-5.5v-69.6h29.4V108.1z"/>
		<path d="M600.8,121.4c5.8-5,12.5-9.1,19.7-11.6c7.5-2.5,15.2-3.9,23.3-3.9c5.5,0,10.8,0.8,16.1,2.8c4.4,1.7,8.6,4.4,11.9,8
			c3.3,3.6,5.8,7.8,7.5,12.2c1.9,5,2.8,10.3,2.5,15.5v61h-13.3c-2.2,0-4.4-0.3-6.4-1.1c-1.7-1.1-3-2.8-3.6-4.7l-1.9-5.3
			c-2.5,2.2-4.7,3.9-7.2,5.5c-2.2,1.7-4.4,2.8-6.9,3.9c-2.5,1.1-5,1.9-7.8,2.5c-3,0.6-6.1,0.8-9.1,0.8c-4.2,0-8.3-0.6-12.2-1.7
			c-3.3-1.1-6.7-2.8-9.1-5.3c-2.5-2.2-4.7-5-5.8-8.3c-1.4-3.6-2.2-7.8-2.2-11.6c0-3.6,1.1-7.5,2.8-10.8c2.2-4.2,5.3-7.5,9.1-10
			c5.3-3.3,11.4-6.1,17.5-7.5c9.1-2.2,18.3-3.3,27.7-3.3v-4.2c0-5.8-1.1-10-3.6-12.5c-2.8-2.8-6.4-4.2-10-3.9
			c-2.8,0-5.8,0.3-8.6,1.1c-1.9,0.6-3.9,1.4-5.8,2.5c-1.7,0.8-3.3,1.7-5,2.5c-1.9,0.8-3.9,1.1-5.8,1.1c-1.9,0-3.6-0.6-5-1.4
			c-1.4-0.8-2.5-2.2-3.3-3.6L600.8,121.4z M653.5,165.8c-4.7,0.3-9.7,0.6-14.4,1.4c-3,0.6-6.1,1.4-8.9,2.8c-1.9,0.8-3.3,2.2-4.4,3.9
			c-0.8,1.4-1.4,3-1.4,4.7c-0.3,2.8,0.8,5.3,2.8,6.9c2.5,1.4,5.3,2.2,8,1.9c3.3,0,6.7-0.6,10-1.9c3.3-1.7,6.1-3.9,8.6-6.4
			L653.5,165.8z"/>
		<path d="M503.2,121.4c5.8-5,12.5-9.1,19.7-11.6c7.5-2.5,15.2-3.9,23-3.9c5.5,0,10.8,0.8,16.1,2.8c4.4,1.7,8.6,4.4,12.2,8
			c3.3,3.6,5.8,7.8,7.5,12.2c1.9,5,2.8,10.3,2.8,15.5v61h-13.3c-2.2,0-4.2-0.3-6.4-1.1c-1.7-1.1-3-2.8-3.6-4.7l-2.2-5.3
			c-2.5,2.2-4.7,3.9-7.2,5.5c-2.2,1.7-4.4,2.8-6.9,3.9c-2.5,1.1-5,1.9-7.8,2.5c-3,0.6-6.1,0.8-9.1,0.8c-4.2,0-8.3-0.6-12.2-1.7
			c-3.3-1.1-6.7-2.8-9.4-5.3c-2.5-2.2-4.7-5.3-5.8-8.6c-1.4-3.6-2.2-7.8-2.2-11.6c0-3.6,0.8-7.5,2.5-10.8c2.2-4.2,5.3-7.5,9.1-10
			c5.3-3.3,11.4-6.1,17.5-7.5c9.1-2.2,18.3-3.3,27.7-3.3v-4.2c0-5.8-1.1-10-3.6-12.5c-2.8-2.8-6.4-4.2-10-3.9
			c-2.8,0-5.8,0.3-8.6,1.1c-1.9,0.6-3.9,1.7-5.8,2.5c-1.7,0.8-3.3,1.7-5,2.5c-1.9,0.8-3.9,1.1-5.8,1.1s-3.6-0.6-5-1.4
			c-1.4-0.8-2.5-2.2-3.3-3.6L503.2,121.4z M555.9,165.8c-4.7,0-9.7,0.6-14.4,1.4c-3,0.6-6.1,1.4-8.9,2.8c-1.9,0.8-3.3,2.2-4.4,3.9
			c-0.8,1.4-1.4,3-1.4,4.7c-0.3,2.8,0.8,5.3,2.8,6.9c2.5,1.4,5.3,2.2,8,1.9c3.3,0,6.9-0.6,10-1.9c3.3-1.7,6.1-3.9,8.6-6.4
			L555.9,165.8z"/>
		<path d="M485.8,64.6v141.1h-18c-3.3,0.3-6.4-1.9-7.2-5l-2.2-7.5c-1.9,1.9-3.9,3.9-6.1,5.5c-2.2,1.7-4.4,3.3-6.9,4.4
			c-2.5,1.1-5.3,2.2-8,2.8c-3,0.6-6.1,1.1-9.1,1.1c-5,0-9.7-1.1-14.1-3.3c-4.4-2.5-8.3-5.8-11.1-9.7c-3.3-4.7-5.8-10-7.5-15.8
			c-1.9-6.9-2.8-14.1-2.8-21.1c0-6.7,1.1-13.6,3-20c1.9-5.8,4.7-11.4,8.6-16.4c3.6-4.4,8-8,13.3-10.8c5.3-2.5,11.1-3.9,16.9-3.9
			c4.4,0,8.9,0.6,12.7,2.2c3.3,1.4,6.7,3.3,9.4,5.8V64.6H485.8z M456.4,134.2c-1.9-2.2-4.4-3.9-7.2-5.3c-2.5-0.8-5.3-1.4-8-1.4
			c-2.5,0-5,0.6-7.5,1.7c-2.5,1.1-4.4,3-5.8,5.3c-1.9,2.8-3,5.8-3.9,9.1c-1.1,4.4-1.4,9.1-1.4,13.6c0,4.4,0.3,8.6,1.1,13
			c0.6,3,1.7,5.8,3,8.6c1.1,1.9,2.8,3.6,5,4.7c1.9,0.8,4.2,1.4,6.4,1.4c1.9,0,3.9-0.3,5.8-0.6c1.7-0.3,3.3-1.1,4.7-1.7
			c1.4-0.8,2.8-1.7,4.2-2.8c1.4-1.1,2.5-2.5,3.9-3.9L456.4,134.2z"/>
		<path d="M727.5,118.7c1.9-1.7,3.9-3.3,5.8-5c1.9-1.4,4.2-2.8,6.4-3.9c2.5-1.1,5-1.9,7.5-2.5c2.8-0.6,5.8-0.8,8.6-0.8
			c5,0,9.7,0.8,14.1,2.8c3.9,1.7,7.5,4.4,10.5,7.8c2.8,3.3,5,7.5,6.4,11.6c1.4,4.7,2.2,9.7,2.2,15v62.1h-29.1v-62.1
			c0.3-3.9-0.8-7.8-3.3-11.1c-2.5-2.8-6.1-4.2-9.7-3.9c-3,0-6.1,0.8-8.9,1.9c-3,1.4-5.8,3.3-8,5.5v69.6h-29.1v-97.6h18
			c3.3-0.3,6.4,1.7,7.2,5L727.5,118.7z"/>
	</g>
</g>
</svg>
