<?xml version="1.0" encoding="utf-8"?>
<!-- Generator: Adobe Illustrator 27.0.0, SVG Export Plug-In . SVG Version: 6.00 Build 0)  -->
<svg version="1.1" id="Layer_1" xmlns="http://www.w3.org/2000/svg" xmlns:xlink="http://www.w3.org/1999/xlink" x="0px" y="0px"
	 viewBox="0 0 544 590" style="enable-background:new 0 0 544 590;" xml:space="preserve">
<style type="text/css">
	.st0{fill:none;stroke:#FFFFFF;}
</style>
<g id="Group_2019" transform="translate(18 15)">
	<g id="Group_1965">
		<path id="Path_36" class="st0" d="M80.8,0.2h78.1l-40.1,64.4l-8-39.1L80.8,0.2z"/>
		<path id="Path_37" class="st0" d="M259.7,0.2h78.1l-40.1,64.4l-8-39.1L259.7,0.2z"/>
		<path id="Path_47" class="st0" d="M215,71.2H293l-40.1,64.4l-8-39.1L215,71.2z"/>
		<path id="Path_48" class="st0" d="M304.5,71.2h78.1l-40.1,64.4l-8-39.1L304.5,71.2z"/>
		<path id="Path_55" class="st0" d="M-8.8,142.2h78.1l-40.1,64.4l-8-39L-8.8,142.2z"/>
		<path id="Path_56" class="st0" d="M170.2,142.2h78.1l-40.1,64.4l-8-39.1L170.2,142.2z"/>
		<path id="Path_57" class="st0" d="M259.7,142.2h78.1l-40.1,64.4l-8-39.1L259.7,142.2z"/>
		<path id="Path_66" class="st0" d="M36,213.2H114l-40.1,64.4l-8-39L36,213.2z"/>
		<path id="Path_67" class="st0" d="M125.5,213.2h78.1l-40.1,64.4l-8-39.1L125.5,213.2z"/>
		<path id="Path_68" class="st0" d="M304.5,213.2h78.1l-40.1,64.4l-8-39L304.5,213.2z"/>
		<path id="Path_77" class="st0" d="M-8.8,283.1h78.1l-40.1,64.4l-8-39L-8.8,283.1z"/>
		<path id="Path_78" class="st0" d="M170.2,283.1h78.1l-40.1,64.4l-8-39.1L170.2,283.1z"/>
		<path id="Path_79" class="st0" d="M259.7,283.1h78.1l-40.1,64.4l-8-39.1L259.7,283.1z"/>
		<path id="Path_80" class="st0" d="M349.3,283.1h78.1l-40.1,64.5l-8-39.1L349.3,283.1z"/>
		<path id="Path_89" class="st0" d="M36,354.1H114l-40.1,64.4l-8-39.1L36,354.1z"/>
		<path id="Path_90" class="st0" d="M125.5,354.1h78.1l-40.2,64.4l-8-39.1L125.5,354.1z"/>
		<path id="Path_91" class="st0" d="M304.5,354.1h78.1l-40.1,64.4l-8-39.1L304.5,354.1z"/>
		<path id="Path_100" class="st0" d="M-8.8,424.3h78.1l-40.1,64.4l-8-39L-8.8,424.3z"/>
		<path id="Path_101" class="st0" d="M170.2,424.3h78.1l-40.1,64.4l-8-39.1L170.2,424.3z"/>
		<path id="Path_102" class="st0" d="M259.7,424.3h78.1l-40.1,64.4l-8-39.1L259.7,424.3z"/>
		<path id="Path_103" class="st0" d="M349.3,424.3h78.1l-40.1,64.4l-8-39.1L349.3,424.3z"/>
		<path id="Path_38" class="st0" d="M438.7,0.2h78.1l-40.1,64.4l-8-39.1L438.7,0.2z"/>
		<path id="Path_49" class="st0" d="M394.1,71.2h78.1L432,135.7l-8-39.1L394.1,71.2z"/>
		<path id="Path_58" class="st0" d="M438.7,142.2h78.1l-40.1,64.4l-8-39.1L438.7,142.2z"/>
		<path id="Path_69" class="st0" d="M394.1,213.2h78.1L432,277.6l-8-39.1L394.1,213.2z"/>
		<path id="Path_81" class="st0" d="M438.7,283.1h78.1l-40.1,64.4l-8-39.1L438.7,283.1z"/>
		<path id="Path_92" class="st0" d="M394.1,354.1h78.1l-40.2,64.4l-8-39.1L394.1,354.1z"/>
		<path id="Path_111" class="st0" d="M36,495.4H114l-40.1,64.4l-8-39.1L36,495.4z"/>
		<path id="Path_112" class="st0" d="M125.5,495.4h78.1l-40.1,64.4l-8-39.1L125.5,495.4z"/>
		<path id="Path_113" class="st0" d="M215,495.4H293l-40.1,64.4l-8-39.1L215,495.4z"/>
		<path id="Path_114" class="st0" d="M394.1,495.4h78.1L432,559.8l-8-39.1L394.1,495.4z"/>
	</g>
</g>
</svg>
