<svg xmlns="http://www.w3.org/2000/svg" width="48" height="41.871" viewBox="0 0 48 41.871">
  <g id="Layer_10" data-name="Layer 10" transform="translate(-0.5 -4.42)">
    <path id="Path_5069" data-name="Path 5069" d="M45.65,41.357A3.654,3.654,0,0,0,47.6,35.394a2.9,2.9,0,1,0-5.468,0,3.654,3.654,0,0,0,1.952,5.964v3.388h-3.33V12.4L21.41,4.42v7.338L3.52,4.42V44.73H.5v1.561H47.741V44.73H45.65ZM42.8,37.782a2.082,2.082,0,0,1,.774-1.561l.542-.437-.372-.593A1.366,1.366,0,0,1,44,33.436a1.34,1.34,0,0,1,1.76,0,1.366,1.366,0,0,1,.258,1.755l-.372.593.527.437a2.1,2.1,0,0,1,.555,2.563,2.073,2.073,0,0,1-3.931-1ZM22.959,6.746l16.294,6.7V41.7H22.959ZM21.41,15.8H18.932v1.561H21.41v3.872H18.932V22.8H21.41v3.872H18.932v1.561H21.41v4.527H18.932v1.561H21.41V38.61H14.053V37.439h2.308V35.878H14.053V31.741h2.308V30.179H14.053V26.042h2.308V24.481H14.053V20.36h2.308V18.8H14.053V14.693h2.308V13.131H14.053V10.446l7.357,3.013ZM10.878,40.155V44.73H9.158V40.171Zm1.549,0h1.626V44.73H12.38Zm3.222,0h1.673V44.73H15.6ZM12.55,9.79V38.61H5.069V6.746ZM5.069,40.171h2.54v4.574H5.069Zm13.754,4.574V40.171H21.41v4.574Zm4.089,0V43.278H39.207v1.468Z" fill="#42e2c3"/>
    <path id="Path_5070" data-name="Path 5070" d="M4.47,12.9H7.249v1.561H4.47Z" transform="translate(2.228 4.759)" fill="#42e2c3"/>
    <path id="Path_5071" data-name="Path 5071" d="M4.47,15.19H7.249v1.561H4.47Z" transform="translate(2.228 6.044)" fill="#42e2c3"/>
    <path id="Path_5072" data-name="Path 5072" d="M4.47,17.48H7.249v1.561H4.47Z" transform="translate(2.228 7.329)" fill="#42e2c3"/>
    <path id="Path_5073" data-name="Path 5073" d="M4.47,19.77H7.249v1.561H4.47Z" transform="translate(2.228 8.614)" fill="#42e2c3"/>
    <path id="Path_5074" data-name="Path 5074" d="M4.47,22.06H7.249v1.561H4.47Z" transform="translate(2.228 9.899)" fill="#42e2c3"/>
    <path id="Path_5075" data-name="Path 5075" d="M21.88,12.9h2.779v1.561H21.88Z" transform="translate(11.719 4.759)" fill="#42e2c3"/>
    <path id="Path_5076" data-name="Path 5076" d="M21.88,15.19h2.779v1.561H21.88Z" transform="translate(11.719 6.044)" fill="#42e2c3"/>
    <path id="Path_5077" data-name="Path 5077" d="M21.88,17.48h2.779v1.561H21.88Z" transform="translate(11.719 7.329)" fill="#42e2c3"/>
    <path id="Path_5078" data-name="Path 5078" d="M21.88,19.77h2.779v1.561H21.88Z" transform="translate(11.719 8.614)" fill="#42e2c3"/>
    <path id="Path_5079" data-name="Path 5079" d="M21.88,22.06h2.779v1.561H21.88Z" transform="translate(11.719 9.899)" fill="#42e2c3"/>
    <path id="Path_5080" data-name="Path 5080" d="M21.88,24.35h2.779v1.561H21.88Z" transform="translate(11.719 11.184)" fill="#42e2c3"/>
    <path id="Path_5081" data-name="Path 5081" d="M16.8,12.9h2.779v1.561H16.8Z" transform="translate(8.935 4.759)" fill="#42e2c3"/>
    <path id="Path_5082" data-name="Path 5082" d="M16.8,15.19h2.779v1.561H16.8Z" transform="translate(8.935 6.044)" fill="#42e2c3"/>
    <path id="Path_5083" data-name="Path 5083" d="M16.8,17.48h2.779v1.561H16.8Z" transform="translate(8.935 7.329)" fill="#42e2c3"/>
    <path id="Path_5084" data-name="Path 5084" d="M16.8,19.77h2.779v1.561H16.8Z" transform="translate(8.935 8.614)" fill="#42e2c3"/>
    <path id="Path_5085" data-name="Path 5085" d="M16.8,22.06h2.779v1.561H16.8Z" transform="translate(8.935 9.899)" fill="#42e2c3"/>
    <path id="Path_5086" data-name="Path 5086" d="M16.8,24.35h2.779v1.561H16.8Z" transform="translate(8.935 11.184)" fill="#42e2c3"/>
    <path id="Path_5087" data-name="Path 5087" d="M4.47,24.35H7.249v1.561H4.47Z" transform="translate(2.228 11.184)" fill="#42e2c3"/>
  </g>
</svg>
