<svg xmlns="http://www.w3.org/2000/svg" width="86" height="75.785" viewBox="0 0 86 75.785">
  <g id="CAP_Table" data-name="CAP Table" transform="translate(-16.939 -62.114)">
    <g id="freepik--Floor--inject-3" transform="translate(17.224 89.6)">
      <ellipse id="freepik--floor--inject-3-2" data-name="freepik--floor--inject-3" cx="42.63" cy="24.15" rx="42.63" ry="24.15" transform="translate(0 0)" fill="#f5f5f5"/>
    </g>
    <g id="freepik--Shadows--inject-3" transform="translate(19.837 101.011)">
      <ellipse id="freepik--Shadow--inject-3" cx="8.789" cy="5.074" rx="8.789" ry="5.074" transform="translate(0 6.046)" fill="#e0e0e0"/>
      <ellipse id="freepik--shadow--inject-3-2" data-name="freepik--shadow--inject-3" cx="8.789" cy="5.074" rx="8.789" ry="5.074" transform="translate(62.649 6.046)" fill="#e0e0e0"/>
      <ellipse id="freepik--shadow--inject-3-3" data-name="freepik--shadow--inject-3" cx="26.464" cy="15.474" rx="26.464" ry="15.474" transform="translate(13.614 0)" fill="#e0e0e0"/>
    </g>
    <g id="freepik--Plants--inject-3" transform="translate(16.939 97.226)">
      <g id="freepik--plants--inject-3-2" data-name="freepik--plants--inject-3" transform="translate(0)">
        <path id="Path_5281" data-name="Path 5281" d="M24.589,262.675a11.87,11.87,0,0,0-1.65-6.159c-1.18-1.913-3.218-3.459-4.84-3.116-1.512.319-1.587,2.242.019,3.712s4.059,3.381,4.567,5.655l1.3,2.873Z" transform="translate(-16.939 -253.351)" fill="#ff735d"/>
        <g id="Group_3578" data-name="Group 3578" opacity="0.15">
          <path id="Path_5282" data-name="Path 5282" d="M24.589,262.675a11.87,11.87,0,0,0-1.65-6.159c-1.18-1.913-3.218-3.459-4.84-3.116-1.512.319-1.587,2.242.019,3.712s4.059,3.381,4.567,5.655l1.3,2.873Z" transform="translate(-16.939 -253.351)"/>
        </g>
        <path id="Path_5283" data-name="Path 5283" d="M31.817,268.587a.1.1,0,0,1-.078-.089c-.341-4.7-3.6-8.878-5.716-9.971a.1.1,0,1,1,.091-.176c2.16,1.113,5.477,5.365,5.822,10.133a.1.1,0,0,1-.091.106Z" transform="translate(-24.293 -257.413)" fill="#fff"/>
        <path id="Path_5284" data-name="Path 5284" d="M24.325,293.232a6.8,6.8,0,0,0-2.26-3.352c-1.512-1.34-3.537-2.119-3.91-3.064-.449-1.136.572-2.032,2.242-1.615s4.369,3.094,4.421,6.635Z" transform="translate(-17.843 -279.206)" fill="#ff735d"/>
        <path id="Path_5285" data-name="Path 5285" d="M31.01,296.5a.1.1,0,0,1-.078-.074c-.928-4.1-3.756-5.846-5.122-6.195a.1.1,0,0,1-.072-.121.1.1,0,0,1,.121-.072c1.511.388,4.32,2.158,5.267,6.343a.1.1,0,0,1-.074.119A.076.076,0,0,1,31.01,296.5Z" transform="translate(-24.102 -283.225)" fill="#fff"/>
      </g>
      <g id="freepik--plants--inject-3-3" data-name="freepik--plants--inject-3" transform="translate(78.263 1.06)">
        <path id="Path_5286" data-name="Path 5286" d="M442.309,267.548a11.564,11.564,0,0,1,.694-4.5,6.3,6.3,0,0,1,3.775-3.908c1.5-.4,2.98.785,1.526,2.041s-4.168,2.754-4.853,6.592Z" transform="translate(-442.298 -259.062)" fill="#ff735d"/>
        <g id="Group_3579" data-name="Group 3579" opacity="0.15">
          <path id="Path_5287" data-name="Path 5287" d="M442.309,267.548a11.564,11.564,0,0,1,.694-4.5,6.3,6.3,0,0,1,3.775-3.908c1.5-.4,2.98.785,1.526,2.041s-4.168,2.754-4.853,6.592Z" transform="translate(-442.298 -259.062)"/>
        </g>
        <path id="Path_5288" data-name="Path 5288" d="M443.8,269.731h-.017a.084.084,0,0,1-.063-.1,9.884,9.884,0,0,1,4.985-7.015.084.084,0,1,1,.065.152,9.721,9.721,0,0,0-4.888,6.9A.085.085,0,0,1,443.8,269.731Z" transform="translate(-443.457 -261.948)" fill="#fff"/>
        <path id="Path_5289" data-name="Path 5289" d="M451.793,284.264a1.316,1.316,0,0,1-.638.707,1.553,1.553,0,0,0-.679.672c-.217.62.464,1.3.221,1.915a1.017,1.017,0,0,1-.607.525,6.672,6.672,0,0,1-.659.186,2.8,2.8,0,0,1-.325.037,1.463,1.463,0,0,0-.9.275c-.4.334-.427.928-.612,1.4a2.147,2.147,0,0,1-1.316,1.223c-.492.161-1.268.186-1.44,0-.13-.152.067-.718.035-.915a8.114,8.114,0,0,1-.095-1.529,2.921,2.921,0,0,0-.033-.7c-.052-.256-.1-.514-.148-.772a2.114,2.114,0,0,1-.111-.783,2.886,2.886,0,0,1,.3-.813c.126-.256.252-.51.382-.765a4.024,4.024,0,0,1,.534-.85,2.14,2.14,0,0,1,1.54-.718,6.95,6.95,0,0,0,1.468.05,12.012,12.012,0,0,1,1.386-.382,1.7,1.7,0,0,1,1.427.429A.906.906,0,0,1,451.793,284.264Z" transform="translate(-444.067 -278.567)" fill="#ff735d"/>
        <path id="Path_5290" data-name="Path 5290" d="M447.086,292.292h0a.072.072,0,0,1-.067-.078c.33-4.6,4.825-6.108,5.911-6.236a.076.076,0,0,1,.082.065.072.072,0,0,1-.065.08c-1.069.126-5.458,1.605-5.781,6.1A.076.076,0,0,1,447.086,292.292Z" transform="translate(-446.143 -280.983)" fill="#fff"/>
        <path id="Path_5291" data-name="Path 5291" d="M457.572,299.8a.081.081,0,0,1-.041-.013,3.9,3.9,0,0,0-3.305-.286.072.072,0,0,1-.093-.045.074.074,0,0,1,.045-.093,4.038,4.038,0,0,1,3.435.3.072.072,0,0,1-.041.134Z" transform="translate(-451.934 -291.683)" fill="#fff"/>
      </g>
    </g>
    <g id="freepik--pie-chart--inject-3" transform="translate(32.996 87.412)">
      <g id="freepik--pie-chart--inject-3-2" data-name="freepik--pie-chart--inject-3" transform="translate(2.938)">
        <path id="Path_5292" data-name="Path 5292" d="M177.036,215.611,160.38,206c7.052-4.02,18.122-5.222,27.253-2.526,11.28,3.34,16.738,11.853,11.3,18.491Z" transform="translate(-153.083 -202.023)" fill="#ff735d"/>
        <path id="Path_5293" data-name="Path 5293" d="M250.13,275.24v13.267l21.895,6.349V281.591Z" transform="translate(-226.177 -261.652)" fill="#ff735d"/>
        <path id="Path_5294" data-name="Path 5294" d="M250.13,275.24v13.267l21.895,6.349V281.591Z" transform="translate(-226.177 -261.652)" opacity="0.15"/>
        <path id="Path_5295" data-name="Path 5295" d="M160.38,223.43V236.7l16.656,9.617V233.045Z" transform="translate(-153.083 -219.457)" fill="#ff735d"/>
        <path id="Path_5296" data-name="Path 5296" d="M160.38,223.43V236.7l16.656,9.617V233.045Z" transform="translate(-153.083 -219.457)" opacity="0.2"/>
        <path id="Path_5297" data-name="Path 5297" d="M368.11,298.293a8.7,8.7,0,0,0,2.123-5.567V279.46a8.7,8.7,0,0,1-2.123,5.567Z" transform="translate(-322.262 -265.089)" fill="#ff735d"/>
        <path id="Path_5298" data-name="Path 5298" d="M368.11,298.293a8.7,8.7,0,0,0,2.123-5.567V279.46a8.7,8.7,0,0,1-2.123,5.567Z" transform="translate(-322.262 -265.089)" opacity="0.3"/>
        <path id="Path_5299" data-name="Path 5299" d="M276.176,305.046a32.968,32.968,0,0,1-5.519,2.509L261.11,296.73l18.734,5.506A16.977,16.977,0,0,1,276.176,305.046Z" transform="translate(-235.119 -279.154)" fill="#455a64"/>
        <path id="Path_5300" data-name="Path 5300" d="M261.11,296.73v11.439l9.546,10.823V307.555Z" transform="translate(-235.119 -279.154)" fill="#263238"/>
        <path id="Path_5301" data-name="Path 5301" d="M312.55,343.156a32.823,32.823,0,0,0,5.519-2.509,16.977,16.977,0,0,0,3.669-2.815V326.4a16.977,16.977,0,0,1-3.669,2.81,32.969,32.969,0,0,1-5.519,2.509Z" transform="translate(-277.013 -303.318)" fill="#37474f"/>
        <path id="Path_5302" data-name="Path 5302" d="M132.373,282.124a26.152,26.152,0,0,1-4.825-2.335c-7.839-4.454-9.094-13.583-.861-18.85l16.134,9.27Z" transform="translate(-121.064 -250.006)" fill="#ff735d"/>
        <path id="Path_5303" data-name="Path 5303" d="M132.373,282.124a26.152,26.152,0,0,1-4.825-2.335c-7.839-4.454-9.094-13.583-.861-18.85l16.134,9.27Z" transform="translate(-121.064 -250.006)" opacity="0.3"/>
        <path id="Path_5304" data-name="Path 5304" d="M192.474,310.89,182.02,322.8v7.355l10.454-11.914Z" transform="translate(-170.707 -290.686)" fill="#ff735d"/>
        <path id="Path_5305" data-name="Path 5305" d="M192.474,310.89,182.02,322.8v7.355l10.454-11.914Z" transform="translate(-170.707 -290.686)" opacity="0.5"/>
        <path id="Path_5306" data-name="Path 5306" d="M132.369,328.994a26.152,26.152,0,0,1-4.825-2.335c-4.176-2.372-6.484-6.07-6.484-9.8v-7.4c0,3.734,2.309,7.433,6.484,9.8a25.808,25.808,0,0,0,4.825,2.335Z" transform="translate(-121.06 -289.522)" fill="#ff735d"/>
        <path id="Path_5307" data-name="Path 5307" d="M132.369,328.994a26.152,26.152,0,0,1-4.825-2.335c-4.176-2.372-6.484-6.07-6.484-9.8v-7.4c0,3.734,2.309,7.433,6.484,9.8a25.808,25.808,0,0,0,4.825,2.335Z" transform="translate(-121.06 -289.522)" opacity="0.4"/>
        <path id="Path_5308" data-name="Path 5308" d="M213.032,342.226A39.5,39.5,0,0,1,193,341.907l9.888-11.187Z" transform="translate(-179.649 -306.836)" fill="#ff735d"/>
        <path id="Path_5309" data-name="Path 5309" d="M213.032,342.226A39.5,39.5,0,0,1,193,341.907l9.888-11.187Z" transform="translate(-179.649 -306.836)" fill="#fff" opacity="0.7"/>
        <path id="Path_5310" data-name="Path 5310" d="M193,396.072a39.539,39.539,0,0,0,20.043.317v-5.07A39.54,39.54,0,0,1,193,391Z" transform="translate(-179.649 -355.929)" fill="#ff735d"/>
        <path id="Path_5311" data-name="Path 5311" d="M193,396.072a39.539,39.539,0,0,0,20.043.317v-5.07A39.54,39.54,0,0,1,193,391Z" transform="translate(-179.649 -355.929)" fill="#fff" opacity="0.5"/>
      </g>
      <g id="freepik--Line--inject-3" transform="translate(0 15.176)">
        <circle id="Ellipse_162" data-name="Ellipse 162" cx="0.898" cy="0.898" r="0.898" transform="translate(11.66 5.428)" fill="#263238"/>
        <path id="Path_5312" data-name="Path 5312" d="M117.788,290.238a.116.116,0,0,1-.059-.017l-9.789-6.2h-2.6a.111.111,0,0,1,0-.223h2.63a.108.108,0,0,1,.059.019l9.817,6.221a.11.11,0,0,1,.033.152A.108.108,0,0,1,117.788,290.238Z" transform="translate(-105.23 -283.8)" fill="#263238"/>
      </g>
      <g id="freepik--line--inject-3-2" data-name="freepik--line--inject-3" transform="translate(37.012 16.088)">
        <path id="Path_5313" data-name="Path 5313" d="M304.67,318.888a.9.9,0,1,0,.9-.9A.9.9,0,0,0,304.67,318.888Z" transform="translate(-304.67 -312.556)" fill="#263238"/>
        <path id="Path_5314" data-name="Path 5314" d="M309.021,295.153a.111.111,0,0,1-.1-.056.109.109,0,0,1,.041-.15l10.777-6.223a.112.112,0,0,1,.054-.015h4.216a.111.111,0,0,1,.111.111.109.109,0,0,1-.111.109h-4.187l-10.751,6.208A.112.112,0,0,1,309.021,295.153Z" transform="translate(-308.123 -288.71)" fill="#263238"/>
      </g>
    </g>
    <g id="freepik--character-2--inject-3" transform="translate(76.098 72.555)">
      <g id="freepik--Character--inject-3" transform="translate(0 0)">
        <path id="Path_5315" data-name="Path 5315" d="M340.525,149.64c.087.091.186.186.269.267.122.117.371.3.5.421.037.035.186.13.2.171a2.655,2.655,0,0,1-.145-.625.386.386,0,0,1,.3-.429c.084-.009.089.2.264.492.223.371.51.557.644,1.017a.824.824,0,0,0,.431.457l3.463,1.72s2.531-.939,3.843-1.453c1.524-.6,3.268-1.165,3.561-.854l-2.912,2.632s-2.216,1.2-3.942,1.887a1.249,1.249,0,0,1-1.373-.167,31.925,31.925,0,0,1-2.951-1.95,19.5,19.5,0,0,0-1.884-1.217,2.9,2.9,0,0,1-1.325-1.214,1.166,1.166,0,0,1-.011-.958,1.207,1.207,0,0,0,.167-.371,1.77,1.77,0,0,0-.011-.241.249.249,0,0,1,.085-.215.219.219,0,0,1,.228,0,.67.67,0,0,1,.174.165C340.234,149.33,340.377,149.488,340.525,149.64Z" transform="translate(-339.355 -143.298)" fill="#ffbda7"/>
        <path id="Path_5316" data-name="Path 5316" d="M370.561,157.962a4.622,4.622,0,0,0-2.858.581c-1.065.44-4.495,1.77-4.495,1.77L361,159.271a5.737,5.737,0,0,1-1.056,1.616s1.988,1.409,2.541,1.752.585.325,1.453.041,4.794-1.286,4.794-1.286Z" transform="translate(-356.12 -150.577)" fill="#37474f"/>
        <path id="Path_5317" data-name="Path 5317" d="M356.435,162.85l-1.167-.54a7.069,7.069,0,0,1-.928,1.412l1.039.742a2.806,2.806,0,0,0,.653-.779A3.451,3.451,0,0,0,356.435,162.85Z" transform="translate(-351.559 -154.156)" fill="#263238"/>
        <g id="freepik--Botom--inject-3" transform="translate(9.74 16.811)">
          <path id="Path_5318" data-name="Path 5318" d="M440.294,316.555a1.7,1.7,0,0,1-1.513.044l-.371-2.969,1.8.186Z" transform="translate(-429.768 -294.205)" fill="#ffbda7"/>
          <path id="Path_5319" data-name="Path 5319" d="M410.474,307.847c-.371.848-1.069.637-1.874.124l.05-2.993,1.9-.058Z" transform="translate(-405.49 -287.112)" fill="#ffbda7"/>
          <path id="Path_5320" data-name="Path 5320" d="M430.9,333.981a.707.707,0,0,0,.033.46,1.462,1.462,0,0,0,1.036.4,2.5,2.5,0,0,0,1.462-.3,1.021,1.021,0,0,0,.525-.818,2.133,2.133,0,0,1,.128-.928c.152-.265.371-.523.419-.653a1.334,1.334,0,0,0-.017-.689Z" transform="translate(-423.629 -308.718)" fill="#263238"/>
          <path id="Path_5321" data-name="Path 5321" d="M432.416,325.933a1.67,1.67,0,0,1-.061.371,3.953,3.953,0,0,1-.577,1.113c-.174.217-.392.4-.575.611a1.212,1.212,0,0,0-.343.742c-.011.466.5.609.887.666a2.866,2.866,0,0,0,1.26-.1,1.158,1.158,0,0,0,.824-.952c.017-.13,0-.262.017-.392a1.821,1.821,0,0,1,.338-.824,2.489,2.489,0,0,0,.264-.451,1.437,1.437,0,0,0-.08-.9c-.074-.245-.16-.523-.245-.5a.343.343,0,0,1-.017.15.626.626,0,0,0-.063.148,1.18,1.18,0,0,1-.065.186.514.514,0,0,1-.2.234l-.033-.525a.236.236,0,0,0-.045-.154.241.241,0,0,0-.15-.059,3.278,3.278,0,0,0-1-.054.186.186,0,0,0-.132.063.2.2,0,0,0-.019.119A4.987,4.987,0,0,1,432.416,325.933Z" transform="translate(-423.618 -303.655)" fill="#455a64"/>
          <path id="Path_5322" data-name="Path 5322" d="M436.722,333.879a1.351,1.351,0,0,1,.77-.132,1.3,1.3,0,0,1,.609.195.135.135,0,0,0,.176-.02h0a.128.128,0,0,0-.019-.2,1.314,1.314,0,0,0-.685-.23,1.345,1.345,0,0,0-.674.072S436.667,333.727,436.722,333.879Z" transform="translate(-428.386 -310.381)" fill="#f5f5f5"/>
          <path id="Path_5323" data-name="Path 5323" d="M434.69,336.56a1.687,1.687,0,0,1,.854-.111,1.225,1.225,0,0,1,.594.2.135.135,0,0,0,.176-.019h0a.128.128,0,0,0-.019-.2,1.354,1.354,0,0,0-.7-.251c-.523-.022-.655.089-.655.089a.432.432,0,0,0-.249.284Z" transform="translate(-426.738 -312.574)" fill="#f5f5f5"/>
          <path id="Path_5324" data-name="Path 5324" d="M439.023,330.722a1.3,1.3,0,0,0-.653.074c-.091.056-.147.2-.087.238a1.2,1.2,0,0,1,.579-.1,1.766,1.766,0,0,1,.57.139c.045.019.1.045.147.069a.122.122,0,0,0,.169-.058h0a.115.115,0,0,0-.05-.148,1.681,1.681,0,0,0-.674-.215Z" transform="translate(-429.643 -308.114)" fill="#f5f5f5"/>
          <path id="Path_5325" data-name="Path 5325" d="M392.013,326.537a.557.557,0,0,0,.035.414,2.067,2.067,0,0,0,1.555.371,3.567,3.567,0,0,0,1.746-.668,2.024,2.024,0,0,1,1.076-.312,1.575,1.575,0,0,0,1.056-.464.928.928,0,0,0-.03-.538Z" transform="translate(-391.961 -303.742)" fill="#263238"/>
          <path id="Path_5326" data-name="Path 5326" d="M395.243,316.279l-.225-.074a.185.185,0,0,0-.126-.011c-.054.022-.074.087-.087.145a2.087,2.087,0,0,1-.082.371.928.928,0,0,1-.232.258,3.847,3.847,0,0,1-.668.46c-.275.158-.544.282-.828.419a7.038,7.038,0,0,0-.9.4.614.614,0,0,0,.033,1.015,2.978,2.978,0,0,0,2.106.083c.49-.156,1.024-.7,1.67-.77a2.573,2.573,0,0,0,1.446-.5c.095-.141-.05-.579-.169-.956-.13-.412-.195-1.06-.33-1.019,0,.139-.122.223-.186.34a2.4,2.4,0,0,0-.139.334.6.6,0,0,1-.206.291.278.278,0,0,1-.336-.009c-.124-.122-.059-.345-.152-.494a.536.536,0,0,0-.3-.186Z" transform="translate(-391.841 -296.209)" fill="#455a64"/>
          <path id="Path_5327" data-name="Path 5327" d="M404.56,321.062a.382.382,0,0,1,.3-.213,1.1,1.1,0,0,1,.733.252.152.152,0,0,1-.015.254h0a.15.15,0,0,1-.186-.015A1.178,1.178,0,0,0,404.56,321.062Z" transform="translate(-402.2 -300.083)" fill="#f5f5f5"/>
          <path id="Path_5328" data-name="Path 5328" d="M401.47,323.027a.445.445,0,0,1,.356-.2,1.362,1.362,0,0,1,.8.273.15.15,0,0,1-.013.247h0a.145.145,0,0,1-.169-.015A1.184,1.184,0,0,0,401.47,323.027Z" transform="translate(-399.683 -301.698)" fill="#f5f5f5"/>
          <path id="Path_5329" data-name="Path 5329" d="M398.06,324.756a.494.494,0,0,1,.371-.186,1.327,1.327,0,0,1,.77.276.15.15,0,0,1-.013.247h0a.148.148,0,0,1-.171-.015A1.132,1.132,0,0,0,398.06,324.756Z" transform="translate(-396.906 -303.115)" fill="#f5f5f5"/>
          <path id="Path_5330" data-name="Path 5330" d="M412.93,209.606c.2,3.251.534,10.424.534,10.424.046.4.2,1.375.269,2.834.108,2.114-.059,6.779-.059,6.779a2.287,2.287,0,0,1-1.806.143s-1.2-6.655-1.587-8.722c-.338-1.824-1-5.259-1-5.259l-.308,4.445a14.523,14.523,0,0,1-.072,2.685c-.121.963-.7,5.15-.7,5.15a3.819,3.819,0,0,1-2.041.015s-.186-6.831-.23-7.718c-.05-1.013-.262-11.421-.262-11.421Z" transform="translate(-403.104 -208.96)" fill="#37474f"/>
          <path id="Path_5331" data-name="Path 5331" d="M413.5,230.652,412.947,228a3.807,3.807,0,0,1-2.1-.8s.152.726,1.843,1.113L413.25,231l.056,2.5Z" transform="translate(-407.322 -223.815)" fill="#263238"/>
        </g>
        <path id="Path_5332" data-name="Path 5332" d="M412.008,158.555c.638.113.681.431.82,1.063a5.235,5.235,0,0,1,.163,1.559l-.477,3.747.163,4.317c-1.028,1.113-5.141,1.485-7.388-.161,0,0,.026-7.091.128-8.229.186-1.989,1.084-2.695,2.413-2.691l2.262.186Z" transform="translate(-393.054 -150.776)" fill="#ff735d"/>
        <path id="Path_5333" data-name="Path 5333" d="M410.96,124.365a2.01,2.01,0,1,1-2-2.015A2.01,2.01,0,0,1,410.96,124.365Z" transform="translate(-394.398 -121.612)" fill="#263238"/>
        <path id="Path_5334" data-name="Path 5334" d="M431.853,130.249l.429-1.152a.742.742,0,0,1,.624.223c.267.275.113,1.13-.223,1.969a17.242,17.242,0,0,1-.462,1.78.694.694,0,0,1-.4.321Z" transform="translate(-414.66 -127.103)" fill="#263238"/>
        <path id="Path_5335" data-name="Path 5335" d="M412.935,127.157c.124.074.3-.161.451-.319a.536.536,0,0,1,.895.148,1.122,1.122,0,0,1-.612,1.349c-.672.21-.772-.221-.772-.221l-.059,2.413a2.158,2.158,0,0,1-1.635,1.23c-1.191.158-.943-.822-.557-1.3v-.742a4.16,4.16,0,0,1-.906.043,1.227,1.227,0,0,1-.95-1,7.187,7.187,0,0,1-.117-3.24c.23-1.856,2.383-1.856,3.543-1.126S412.935,127.157,412.935,127.157Z" transform="translate(-395.712 -122.903)" fill="#ffbda7"/>
        <path id="Path_5336" data-name="Path 5336" d="M411.228,122.792c.186-.056.336-.371.462-.483.213-.186-.054-1.941-.054-1.941a.824.824,0,0,0-.2-.883c-.29-.321-.774-.358-1.6-.492-.408-.065-.891-.1-1.3-.173a4.1,4.1,0,0,1-1.2-.386.371.371,0,0,0-.23-.059.215.215,0,0,0-.145.121.4.4,0,0,0-.033.186.741.741,0,0,0,.033.2c.013.039.093.156.076.186-.043.084-.36-.058-.425-.078a.08.08,0,0,0-.046,0,.082.082,0,0,0-.026.03.778.778,0,0,0,.037.672,2.268,2.268,0,0,0,1.141.971,3.155,3.155,0,0,0,1.555.217,3.039,3.039,0,0,0,.663-.154,1.614,1.614,0,0,0,.145.226,1.035,1.035,0,0,0,.215.186.885.885,0,0,0,.258.121c.095.026.186.013.238.115a.49.49,0,0,1,.039.213c0,.215.013.429.019.642a1.1,1.1,0,0,0,.043.323.353.353,0,0,0,.217.226A.219.219,0,0,0,411.228,122.792Z" transform="translate(-394.016 -118.375)" fill="#263238"/>
        <path id="Path_5337" data-name="Path 5337" d="M419.856,151a8.4,8.4,0,0,0,1.485-.421,1.3,1.3,0,0,0,.535-.525,1.739,1.739,0,0,1-.306.62c-.282.36-1.718.62-1.718.62Z" transform="translate(-404.912 -144.172)" fill="#f0997a"/>
        <path id="Path_5338" data-name="Path 5338" d="M420.76,138.5a.221.221,0,1,0,.221-.228A.225.225,0,0,0,420.76,138.5Z" transform="translate(-405.653 -134.578)" fill="#263238"/>
        <path id="Path_5339" data-name="Path 5339" d="M422.18,135.219l.49.317a.306.306,0,0,0-.091-.414.284.284,0,0,0-.4.1Z" transform="translate(-406.809 -131.978)" fill="#263238"/>
        <path id="Path_5340" data-name="Path 5340" d="M419.328,146.74l-.778.332a.431.431,0,0,0,.572.226.408.408,0,0,0,.206-.559Z" transform="translate(-403.853 -141.476)" fill="#f0997a"/>
        <path id="Path_5341" data-name="Path 5341" d="M409.682,135.282l.466-.282a.262.262,0,0,0-.371-.1A.288.288,0,0,0,409.682,135.282Z" transform="translate(-396.601 -131.801)" fill="#263238"/>
        <path id="Path_5342" data-name="Path 5342" d="M410.829,138.161a.223.223,0,0,0,.219.23.228.228,0,0,0,.223-.23.221.221,0,0,0-.442,0Z" transform="translate(-397.565 -134.309)" fill="#263238"/>
        <path id="Path_5343" data-name="Path 5343" d="M413.478,138.49l-.189,1.41-.718-.31Z" transform="translate(-398.983 -134.757)" fill="#f0997a"/>
        <path id="Path_5344" data-name="Path 5344" d="M426,215.422l.032.625a.228.228,0,0,0,.2.215,4.7,4.7,0,0,0,2.162-.277c1.3-.484,1.323-.9,1.323-.9v-.846Z" transform="translate(-409.92 -196.449)" fill="#263238"/>
        <path id="Path_5345" data-name="Path 5345" d="M405.035,214.392v.482a.15.15,0,0,1-.195.143,2.8,2.8,0,0,1-.534-.219,1.21,1.21,0,0,1-.392-.317l-.024-.731Z" transform="translate(-391.913 -196.05)" fill="#263238"/>
        <path id="Path_5346" data-name="Path 5346" d="M403.209,168.509c.271.438,1.145.642,1.145.642s-.02-.315,0-2.041a36.065,36.065,0,0,1,.462-6.377,7.669,7.669,0,0,1,1.006-2.227.5.5,0,0,1,.371-.221V158.2c-1.3-.02-1.6.111-2.155.805a6.617,6.617,0,0,0-.727,3.482C403.248,163.916,402.834,167.427,403.209,168.509Zm4.118-3.778a41.75,41.75,0,0,0-.011,5.052s2.784.269,3.712-1.182c.316-.655-.043-2.169-.119-3.587l.429-4.847a1.572,1.572,0,0,0-.906-1.563l-2.052-.267a8.149,8.149,0,0,0-.742,1.709A27.782,27.782,0,0,0,407.327,164.73Z" transform="translate(-391.232 -150.809)" fill="#455a64"/>
        <path id="Path_5347" data-name="Path 5347" d="M374.71,191.03l5.512.379,1.041,6.334-5.226-.5Z" transform="translate(-368.149 -177.546)" fill="#ff735d"/>
        <path id="Path_5348" data-name="Path 5348" d="M374.71,191.03l5.512.379,1.041,6.334-5.226-.5Z" transform="translate(-368.149 -177.546)" opacity="0.1"/>
        <path id="Path_5349" data-name="Path 5349" d="M397.719,213.12c-.033.126.05.306.3.52.2.173.334.473.679.557a2.314,2.314,0,0,0,1.056.072l-.141-.867Z" transform="translate(-386.882 -195.537)" opacity="0.15"/>
        <path id="Path_5350" data-name="Path 5350" d="M383.006,193.054s-.013-.087-.028-.195.317-.174.742-.147l.813.054c.425.026.781.137.8.245l.026.195Z" transform="translate(-374.882 -178.911)" opacity="0.15"/>
        <path id="Path_5351" data-name="Path 5351" d="M381.408,188.74c-.009-.067.126-.111.3-.1l.321.026s-.058-.423.659-.4.83.494.83.494l.341.03c.186.017.356.085.371.15l.03.119-2.839-.186S381.417,188.807,381.408,188.74Z" transform="translate(-373.603 -175.296)" fill="#263238"/>
        <path id="Path_5352" data-name="Path 5352" d="M383.085,191.309c.26.013.371.026.392.186s.032.332.032.332l1.256.087s-.039-.239-.05-.334.039-.161.239-.147l.024-.082L383,191.24Z" transform="translate(-374.9 -177.717)" fill="#263238"/>
        <path id="Path_5353" data-name="Path 5353" d="M382.806,193.194s-.013-.087-.028-.195.317-.174.742-.147l.813.052c.425.028.781.137.8.247l.028.186Z" transform="translate(-374.719 -179.025)" fill="#37474f"/>
        <path id="Path_5354" data-name="Path 5354" d="M398.116,168.98c.392.02.993.156,1.329.21a1.65,1.65,0,0,0,.531.028,2.484,2.484,0,0,0,.421-.082c.483-.221,4.328-1.795,4.328-1.795l-.653-3.784s-.154-2.431.908-2.687c.817.371,1.076,1.091,1.451,2.691a15.509,15.509,0,0,1,.59,4.549,1.371,1.371,0,0,1-1.03,1.171c-.943.371-2,.612-5.1,1.5a15.833,15.833,0,0,1-1.783.51c-1.585.247-2.216-.041-2.531-.653-.091-.186-.106-.371-.186-.557a1.242,1.242,0,0,1-.13-.3.234.234,0,0,1,.132-.271.319.319,0,0,1,.15,0c.252.048.5.1.753.132a4.884,4.884,0,0,0,.87.03.1.1,0,0,0,.045,0c.043-.019.032-.035,0-.05" transform="translate(-385.693 -152.984)" fill="#ffbda7"/>
        <path id="Path_5355" data-name="Path 5355" d="M428.635,160.37a1.693,1.693,0,0,1,1.377,1.438c.243,1.141.358,1.8.64,3.246a8.89,8.89,0,0,1,.186,3.224c-.171.41-1,.681-1.531.837-.787.234-3.129.817-3.129.817a2.5,2.5,0,0,0-.778-1.819l2.962-1.316-.757-3.355S427.274,161,428.635,160.37Z" transform="translate(-409.432 -152.576)" fill="#37474f"/>
        <path id="Path_5356" data-name="Path 5356" d="M420.285,202.09a1.376,1.376,0,0,1,.664.841c.264.69.113.978.113.978l-1.416.4a2.376,2.376,0,0,0-.536-1.687Z" transform="translate(-404.309 -186.554)" fill="#263238"/>
      </g>
    </g>
    <g id="freepik--character-1--inject-3" transform="translate(21.476 72.08)">
      <g id="freepik--character--inject-3-2" data-name="freepik--character--inject-3">
        <path id="Path_5357" data-name="Path 5357" d="M52.771,215.318a56.186,56.186,0,0,1-.085-7.369c.238-1.73.516-2.446.566-2.839,0,0,.427-4.062.462-7.514a10.238,10.238,0,0,1,1.08-4.825l5.723,1.3c.119.878.653,6.815.742,12,.084,4.543-.045,8.52-.045,8.52v.238a2.175,2.175,0,0,0,.23.878,5.131,5.131,0,0,0,.906,1.5c.121.132.956.861,1.067,1.017.358.419-.386.655-.928.581a3.145,3.145,0,0,1-1.743-.653c-.171-.236-.3-1.063-.475-1.3-.592-.809-.835-1.156-.841-1.414a2.894,2.894,0,0,1,.21-.913c-.046-.557-1.234-5.076-1.255-6.681-.011-.763.041-1.815.041-1.815l-.928-5.287c-.354,1.319-1,3.782-1.212,5.04-.256,1.538-1.13,6.015-1.68,8.051a10.623,10.623,0,0,0-.371,1.605l-.017.186c-.013.228-.111,2.658-.2,3.172-.186,1.071-1.139.928-1.3.069a25.858,25.858,0,0,1,.037-3.3Z" transform="translate(-50.5 -178.488)" fill="#ffa8a7"/>
        <path id="Path_5358" data-name="Path 5358" d="M51.12,314.27c-.269,0-.093,1.043-.161,1.713-.074.716-.31,1.24-.371,1.826a2.387,2.387,0,0,0,.225,1.505c.186.429,1.128,1.017,1.485.4a3.441,3.441,0,0,0,.393-1.982c-.043-.692-.084-1.2-.1-1.722-.011-.464.345-1.551,0-1.618l-.017.186c-.124.251-1.316.423-1.457-.058Z" transform="translate(-48.849 -277.44)" fill="#37474f"/>
        <path id="Path_5359" data-name="Path 5359" d="M88.991,318a6.163,6.163,0,0,0,0,1.253,1.223,1.223,0,0,0,.661.529l.239-1.282Z" transform="translate(-80.126 -280.478)" fill="#263238"/>
        <path id="Path_5360" data-name="Path 5360" d="M92.73,321.494l1.139-.375.275-1.01-1.281.648Z" transform="translate(-83.201 -282.196)"/>
        <path id="Path_5361" data-name="Path 5361" d="M90.718,310.309v-.238c.154.074.494,1.321.954,2.175.421.781,1.255,1.216,1.525,1.555.362.455-.341,1.039-1.472.8a3.057,3.057,0,0,1-1.639-.856c-.23-.377-.306-1.073-.5-1.351s-.635-.6-.729-.915a1.715,1.715,0,0,1,0-.872c.089-.288.165-.637.264-.6v.219c.076.154.349.332.919.371C90.327,310.6,90.594,310.556,90.718,310.309Z" transform="translate(-80.005 -273.962)" fill="#37474f"/>
        <path id="Path_5362" data-name="Path 5362" d="M60.2,192.107s.7,5.039.824,8.845.015,8.713.015,8.713a2.494,2.494,0,0,1-1.258.319,1.62,1.62,0,0,1-1.164-.251,16.381,16.381,0,0,1-.611-2.936,12.28,12.28,0,0,1,0-1.975l-.776-5.085s-1.015,4.749-1.126,5.36-1.177,5.05-1.177,5.05a2.041,2.041,0,0,1-1.409.332,1.905,1.905,0,0,1-1.169-.507,23.406,23.406,0,0,1-.011-3.507c.16-1.223.488-2.162.546-2.969s-.058-5.133,0-6.867a10.313,10.313,0,0,1,1.551-5.41Z" transform="translate(-50.252 -177.226)" fill="#455a64"/>
        <path id="Path_5363" data-name="Path 5363" d="M79,218.893l.644-3.177a3.531,3.531,0,0,0,1.642-.976s-.145.757-1.3,1.243l-.681,3.166.232,3.274Z" transform="translate(-72.019 -196.381)" fill="#37474f"/>
        <path id="Path_5364" data-name="Path 5364" d="M90.257,151.3a24.062,24.062,0,0,0,3.613,1.737,21.841,21.841,0,0,0,4.224-1.29.67.67,0,0,0,.306-.356,3.982,3.982,0,0,1,.583-.928c.186-.256.239-.525.315-.514a.392.392,0,0,1,.256.438,3.229,3.229,0,0,1-.186.7,4.178,4.178,0,0,0,.969-.813c.516-.633,1.041-.546,1.113.462.026.362.013,1.132-1.3,1.923-.371.228-1.217.642-1.73.87-1.366.609-2.9,1.16-3.884,1.507a2.58,2.58,0,0,1-1.182.028,27.154,27.154,0,0,1-5.486-2.017l.045-2.275A4.253,4.253,0,0,1,90.257,151.3Z" transform="translate(-79.243 -143.555)" fill="#ffa8a7"/>
        <path id="Path_5365" data-name="Path 5365" d="M87.92,154.588a4.089,4.089,0,0,1,2.34.436c1.462.731,3.5,1.789,3.543,1.8s1.232-.236,1.232-.236a3.426,3.426,0,0,0,.768,1.828s-1.017.445-1.42.557a1.788,1.788,0,0,1-1.114-.02c-.54-.126-3.712-1.186-3.712-1.186Z" transform="translate(-79.284 -147.364)" fill="#455a64"/>
        <path id="Path_5366" data-name="Path 5366" d="M61.736,154.61l-1.639.234a5.751,5.751,0,0,1-.538,3.318l.521,2.685c-.022.319-.585.928-1.1,2.14.967,1.3,5.4,1.926,6.948.791-.15-1.485-.221-2.218-.269-2.682v-1.67c1.939-1.592-.4-4.014-1.262-4.784h-.809Z" transform="translate(-55.714 -147.41)" fill="#ff735d"/>
        <path id="Path_5367" data-name="Path 5367" d="M41.609,162.559c.349-1.36,1.522-3.712,1.941-4.8a2.3,2.3,0,0,1,2.2-1.7,4.085,4.085,0,0,1-.547,3.769c-.431.908-1.414,2.808-1.414,2.808a27.634,27.634,0,0,0,1.08,3.595.67.67,0,0,0,.34.327,6.6,6.6,0,0,1,1.184.856c.249.186.44.223.423.3a.36.36,0,0,1-.431.228,5.8,5.8,0,0,1-.789-.319,9.9,9.9,0,0,0,.789,1.08c.536.62.518,1.149-.525,1.165-.791.011-1.206-.432-1.908-1.785-.2-.39-.492-.908-.733-1.409-.609-1.268-.727-1.381-1.062-2.19C41.633,163.2,41.473,163.084,41.609,162.559Z" transform="translate(-41.53 -148.591)" fill="#ffa8a7"/>
        <path id="Path_5368" data-name="Path 5368" d="M46.035,155.67c-1.069.089-1.752.121-2.322.958A42.47,42.47,0,0,0,41.5,161.8c-.186.57-.223.87.5,2.37a4.289,4.289,0,0,0,1.963-.69l-.2-1.145,1.416-2.7A6.085,6.085,0,0,0,46.035,155.67Z" transform="translate(-41.384 -148.273)" fill="#455a64"/>
        <path id="Path_5369" data-name="Path 5369" d="M65.416,122.442c0-.286-.95-.967-1.425-1.689-.442-.668-1.06-2.507.4-3.094a1.3,1.3,0,0,1,0-.6,1.147,1.147,0,0,1,.393-.59,2.518,2.518,0,0,1,1.113-.5,6.1,6.1,0,0,1,1.826-.143,3.37,3.37,0,0,1,1.162.26,1.776,1.776,0,0,1,.867.792,1.245,1.245,0,0,1,.074.954c-.067.186-.074.167.037.321a.557.557,0,0,1,.109.406c-.043.314-.341.392-.371.557a.152.152,0,0,0,.262.135.314.314,0,0,1-.371.251c-.338-.019-.638-.477-.638-.477Z" transform="translate(-59.376 -115.813)" fill="#263238"/>
        <path id="Path_5370" data-name="Path 5370" d="M47.474,122.656a1.692,1.692,0,0,0-2.1.186c-.9.874-.622,3-1.113,3.773-.451.715-.978.453-1.4,1.023a.791.791,0,0,0,.225,1.082,2.015,2.015,0,0,0,2.184-.124c1.368-.943,1.075-2.275.854-3.237s0-2.615,1.349-2.06C47.474,123.3,48.007,122.962,47.474,122.656Z" transform="translate(-42.487 -121.159)" fill="#263238"/>
        <path id="Path_5371" data-name="Path 5371" d="M71.949,125.26c.432.186.843.848.837,2.7,0,1.57-.486,1.967-.729,2.082a2.513,2.513,0,0,1-1.178-.013v.9s1.114,1.221.371,1.737a2.854,2.854,0,0,1-2.359-1.787l-.033-1.967s-.265.278-.742-.13a.918.918,0,0,1-.234-1.234.619.619,0,0,1,1,.011,2.658,2.658,0,0,0,1.628-.484A2.745,2.745,0,0,0,71.949,125.26Z" transform="translate(-62.838 -123.507)" fill="#ffa8a7"/>
        <path id="Path_5372" data-name="Path 5372" d="M90.7,136.018a.21.21,0,1,0,.064-.149A.208.208,0,0,0,90.7,136.018Z" transform="translate(-81.548 -132.099)" fill="#263238"/>
        <path id="Path_5373" data-name="Path 5373" d="M81.743,136.4a.225.225,0,1,0,.114-.206A.225.225,0,0,0,81.743,136.4Z" transform="translate(-74.252 -132.388)" fill="#263238"/>
        <path id="Path_5374" data-name="Path 5374" d="M83.46,144.51l.633.2a.321.321,0,0,1-.4.241A.371.371,0,0,1,83.46,144.51Z" transform="translate(-75.642 -139.184)" fill="#f28f8f"/>
        <path id="Path_5375" data-name="Path 5375" d="M91.316,133.09l-.536-.213a.277.277,0,0,1,.371-.165.3.3,0,0,1,.165.379Z" transform="translate(-81.613 -129.557)" fill="#263238"/>
        <path id="Path_5376" data-name="Path 5376" d="M74,136.28v.876a.41.41,0,0,0,.419-.421A.451.451,0,0,0,74,136.28Z" transform="translate(-67.947 -132.482)" fill="#263238"/>
        <path id="Path_5377" data-name="Path 5377" d="M86.92,136.29l.169,1.275.568-.277Z" transform="translate(-78.469 -132.49)" fill="#f28f8f"/>
        <path id="Path_5378" data-name="Path 5378" d="M77.47,147.742c-.486-.056-1.485-.336-1.65-.742a1.062,1.062,0,0,0,.358.516,5.018,5.018,0,0,0,1.3.531Z" transform="translate(-69.429 -141.212)" fill="#f28f8f"/>
      </g>
    </g>
    <g id="freepik--percentage-signs--inject-3" transform="translate(35.082 62.114)">
      <g id="freepik--percentage-box--inject-3" transform="translate(38.23 0)">
        <path id="Path_5379" data-name="Path 5379" d="M333.019,66.517l-7.438-4.294a.557.557,0,0,0-.572-.054l-2.255,1.3a.557.557,0,0,0-.239.521v7.718a1.774,1.774,0,0,0,.805,1.392l7.447,4.3a.557.557,0,0,0,.568.056c.145-.084,2.114-1.225,2.259-1.3a.557.557,0,0,0,.238-.521V67.909A1.778,1.778,0,0,0,333.019,66.517Z" transform="translate(-322.512 -62.114)" fill="#37474f"/>
        <path id="Path_5380" data-name="Path 5380" d="M372.5,89.911v7.72a.557.557,0,0,1-.238.521l-2.244,1.3a.579.579,0,0,0,.217-.51v-7.72a1.627,1.627,0,0,0-.236-.792l2.264-1.3A1.64,1.64,0,0,1,372.5,89.911Z" transform="translate(-361.187 -84.116)" fill="#263238"/>
        <path id="Path_5381" data-name="Path 5381" d="M323.335,78.843l7.447,4.3c.444.256.8.048.8-.464v-7.72a1.778,1.778,0,0,0-.8-1.392l-7.449-4.294c-.444-.256-.8-.048-.8.464v7.718A1.774,1.774,0,0,0,323.335,78.843Z" transform="translate(-322.527 -67.852)" fill="#455a64"/>
        <path id="Path_5382" data-name="Path 5382" d="M339.827,93.88a.222.222,0,0,1,.087-.078.149.149,0,0,1,.126.028l.414.234a.287.287,0,0,1,.1.111.317.317,0,0,1,.039.154.232.232,0,0,1,0,.043.219.219,0,0,1-.017.045l-2.941,4.244a.236.236,0,0,1-.085.078.152.152,0,0,1-.128-.028l-.41-.236a.254.254,0,0,1-.1-.109.322.322,0,0,1-.039-.154.185.185,0,0,1,0-.043.119.119,0,0,1,.019-.045Z" transform="translate(-334.208 -87.918)" fill="#fafafa"/>
        <path id="Path_5383" data-name="Path 5383" d="M351.724,112.743a2.413,2.413,0,0,0-.273-1.037,1.77,1.77,0,0,0-.688-.722.638.638,0,0,0-.689-.074.9.9,0,0,0-.273.724q-.011.251-.011.445c0,.132,0,.278.011.442a2.425,2.425,0,0,0,.288,1.037,1.787,1.787,0,0,0,.674.713c.276.16.5.186.674.065a.871.871,0,0,0,.288-.705c0-.154.011-.3.011-.427S351.731,112.919,351.724,112.743Zm-.705.6a.743.743,0,0,1-.067.3c-.037.067-.1.074-.186.024a.423.423,0,0,1-.186-.243,1.405,1.405,0,0,1-.067-.371,11.126,11.126,0,0,1,0-1.113.718.718,0,0,1,.067-.3c.037-.069.1-.076.186-.026a.429.429,0,0,1,.186.243,1.421,1.421,0,0,1,.067.371A10.236,10.236,0,0,1,351.019,113.342Z" transform="translate(-344.728 -101.796)" fill="#fafafa"/>
        <path id="Path_5384" data-name="Path 5384" d="M335.481,86.117a2.413,2.413,0,0,0-.273-1.039,1.771,1.771,0,0,0-.7-.713c-.293-.169-.521-.186-.689-.072a.906.906,0,0,0-.273.724q-.011.247-.011.445c0,.13,0,.278.011.44a2.435,2.435,0,0,0,.288,1.039,1.787,1.787,0,0,0,.674.713c.277.16.5.186.674.065a.872.872,0,0,0,.288-.707c0-.154.011-.3.011-.427S335.481,86.292,335.481,86.117Zm-.705.6a.718.718,0,0,1-.067.3c-.037.069-.1.076-.186.026a.444.444,0,0,1-.186-.243,1.363,1.363,0,0,1-.065-.371,10.205,10.205,0,0,1,0-1.113.709.709,0,0,1,.065-.3c.039-.067.1-.076.186-.024a.416.416,0,0,1,.186.243,1.409,1.409,0,0,1,.067.371,10.244,10.244,0,0,1-.007,1.113Z" transform="translate(-331.493 -80.118)" fill="#fafafa"/>
      </g>
      <g id="freepik--percentage-box--inject-3-2" data-name="freepik--percentage-box--inject-3" transform="translate(0 0)">
        <path id="Path_5385" data-name="Path 5385" d="M117.369,66.517l7.447-4.294a.557.557,0,0,1,.572-.054l2.255,1.3a.557.557,0,0,1,.239.521v7.718a1.774,1.774,0,0,1-.805,1.392l-7.438,4.3a.557.557,0,0,1-.568.056c-.145-.084-2.114-1.225-2.259-1.3a.557.557,0,0,1-.238-.521V67.909A1.778,1.778,0,0,1,117.369,66.517Z" transform="translate(-116.56 -62.114)" fill="#37474f"/>
        <path id="Path_5386" data-name="Path 5386" d="M116.514,89.911v7.72a.557.557,0,0,0,.238.521l2.244,1.3a.579.579,0,0,1-.217-.51v-7.72a1.628,1.628,0,0,1,.236-.792l-2.264-1.3A1.641,1.641,0,0,0,116.514,89.911Z" transform="translate(-116.511 -84.116)" fill="#263238"/>
        <path id="Path_5387" data-name="Path 5387" d="M136.962,78.843l-7.438,4.3c-.444.256-.8.048-.8-.464v-7.72a1.778,1.778,0,0,1,.8-1.392l7.44-4.294c.444-.256.8-.048.8.464v7.718A1.774,1.774,0,0,1,136.962,78.843Z" transform="translate(-126.454 -67.852)" fill="#455a64"/>
        <path id="Path_5388" data-name="Path 5388" d="M146.054,84.952a1.147,1.147,0,0,1,.085-.186.345.345,0,0,1,.128-.119l.412-.243c.045-.024.078-.028.1,0a.128.128,0,0,1,.039.109.288.288,0,0,1,0,.05.5.5,0,0,1-.019.065l-2.93,7.627a1.146,1.146,0,0,1-.085.186.36.36,0,0,1-.128.119l-.412.241c-.045.026-.078.03-.1.011a.13.13,0,0,1-.039-.111.3.3,0,0,1,0-.048.5.5,0,0,1,.019-.065Z" transform="translate(-138.168 -80.252)" fill="#fafafa"/>
        <path id="Path_5389" data-name="Path 5389" d="M158.664,101.776a.912.912,0,0,0-.273-.724q-.247-.18-.689.074a1.765,1.765,0,0,0-.689.72,2.368,2.368,0,0,0-.273,1.039c0,.174-.011.328-.011.458s0,.275.011.427a.867.867,0,0,0,.288.707.615.615,0,0,0,.674-.065,1.787,1.787,0,0,0,.674-.713,2.435,2.435,0,0,0,.288-1.039q.011-.241.011-.44T158.664,101.776Zm-.707,1.414a1.352,1.352,0,0,1-.065.371.438.438,0,0,1-.186.243c-.089.05-.152.043-.186-.026a.718.718,0,0,1-.067-.3,10.229,10.229,0,0,1,0-1.114,1.407,1.407,0,0,1,.067-.371.423.423,0,0,1,.186-.243c.087-.052.15-.043.186.024a.709.709,0,0,1,.065.3A10.221,10.221,0,0,1,157.957,103.19Z" transform="translate(-149.266 -93.765)" fill="#fafafa"/>
        <path id="Path_5390" data-name="Path 5390" d="M140.654,94.761a.9.9,0,0,0-.273-.724q-.251-.182-.689.072a1.778,1.778,0,0,0-.687.722,2.368,2.368,0,0,0-.273,1.039c0,.174-.013.327-.013.458s0,.273.013.427a.857.857,0,0,0,.288.705.611.611,0,0,0,.672-.063,1.793,1.793,0,0,0,.674-.714,2.392,2.392,0,0,0,.288-1.037c0-.163.013-.31.013-.44S140.661,94.926,140.654,94.761Zm-.705,1.412a1.406,1.406,0,0,1-.067.371.416.416,0,0,1-.186.243c-.087.052-.15.043-.186-.024a.666.666,0,0,1-.067-.3,10.229,10.229,0,0,1,0-1.114,1.274,1.274,0,0,1,.067-.371.421.421,0,0,1,.186-.243c.089-.052.152-.043.186.024a.726.726,0,0,1,.067.3A10.216,10.216,0,0,1,139.949,96.173Z" transform="translate(-134.598 -88.051)" fill="#fafafa"/>
      </g>
    </g>
  </g>
</svg>
