<svg xmlns="http://www.w3.org/2000/svg" width="30" height="22" viewBox="0 0 30 22">
  <g id="Group_2698" data-name="Group 2698" transform="translate(-1 -5)">
    <path id="Path_3656" data-name="Path 3656" d="M27.2,5H4.8A3.8,3.8,0,0,0,1,8.8V23.2A3.8,3.8,0,0,0,4.8,27H27.2A3.8,3.8,0,0,0,31,23.2V8.8A3.8,3.8,0,0,0,27.2,5ZM29,23.2A1.805,1.805,0,0,1,27.2,25H4.8A1.805,1.805,0,0,1,3,23.2V8.8A1.805,1.805,0,0,1,4.8,7H27.2A1.805,1.805,0,0,1,29,8.8Z" fill="#005893"/>
    <path id="Path_3657" data-name="Path 3657" d="M10,21H6a1,1,0,0,0,0,2h4a1,1,0,0,0,0-2Z" fill="#005893"/>
    <path id="Path_3658" data-name="Path 3658" d="M26,10H6a1,1,0,0,0,0,2H26a1,1,0,0,0,0-2Z" fill="#005893"/>
  </g>
</svg>
