<svg id="Charts-pana" xmlns="http://www.w3.org/2000/svg" width="86" height="86" viewBox="0 0 86 86">
  <g id="freepik--background-complete--inject-2">
    <path id="Path_2246" data-name="Path 2246" d="M300.4,279.49a.653.653,0,0,1,.047.047l.133.138.515.546,1.944,2.082,6.888,7.427h-.08l7.813-8.949.054-.061.044.068.569.857,5.912,8.9-.082-.014,5.682-4.539.033-.026.028.03,4.338,4.919,1.171,1.342.3.351c.068.08.1.122.1.122s-.04-.037-.11-.112l-.309-.361-1.195-1.326-4.366-4.883h.061l-5.668,4.57-.047.037-.035-.052-5.919-8.886-.572-.859h.1c-2.843,3.256-5.518,6.312-7.823,8.949l-.04.044-.04-.044c-2.829-3.078-5.2-5.649-6.858-7.457l-1.921-2.108-.5-.557c-.054-.063-.1-.11-.129-.145S300.4,279.492,300.4,279.49Z" transform="translate(-250.808 -233.939)" fill="#e6e6e6"/>
    <path id="Path_2247" data-name="Path 2247" d="M337.63,320.813a.82.82,0,1,0,.813-.813A.82.82,0,0,0,337.63,320.813Z" transform="translate(-278.207 -264.961)" fill="#e0e0e0"/>
    <path id="Path_2248" data-name="Path 2248" d="M398.9,324.944a.82.82,0,1,0,.813-.824.82.82,0,0,0-.813.824Z" transform="translate(-326.238 -268.116)" fill="#e0e0e0"/>
    <path id="Path_2249" data-name="Path 2249" d="M422.73,305.674a.817.817,0,1,0,.81-.824A.817.817,0,0,0,422.73,305.674Z" transform="translate(-344.487 -251.724)" fill="#e0e0e0"/>
    <path id="Path_2250" data-name="Path 2250" d="M370.8,282.774a.82.82,0,1,0,.813-.824A.82.82,0,0,0,370.8,282.774Z" transform="translate(-303.94 -233.55)" fill="#e0e0e0"/>
    <path id="Path_2251" data-name="Path 2251" d="M448.85,333.424a.82.82,0,1,0,.813-.824A.82.82,0,0,0,448.85,333.424Z" transform="translate(-364.489 -274.61)" fill="#e0e0e0"/>
    <rect id="Rectangle_676" data-name="Rectangle 676" width="5.263" height="20.932" transform="translate(11.062 5.598)" fill="#e6e6e6"/>
    <rect id="Rectangle_677" data-name="Rectangle 677" width="5.263" height="16.365" transform="translate(17.966 10.064)" fill="#e6e6e6"/>
    <rect id="Rectangle_678" data-name="Rectangle 678" width="5.263" height="12.627" transform="translate(25.476 11.959)" fill="#e6e6e6"/>
    <rect id="Rectangle_679" data-name="Rectangle 679" width="5.263" height="7.5" transform="translate(32.43 16.572)" fill="#e6e6e6"/>
    <path id="Path_2252" data-name="Path 2252" d="M107.6,49s-.049.063-.145.176l-.438.5-1.665,1.9-6.005,6.792-.033.035-.037-.028-3.918-3h.08L89.956,62.32l-.066.084-.04.052-.049-.044-7.38-6.518H82.5c-2.9,3.8-5.352,7.052-7.108,9.35L73.35,67.915l-.546.7-.143.18a.669.669,0,0,1-.052.061.573.573,0,0,1,.044-.066l.136-.187.532-.719L75.339,65.2l7.073-9.383.037-.049.044.04,7.389,6.5h-.089l.066-.084,5.488-6.942.035-.045.044.035,3.911,3h-.07l6.036-6.738c.728-.808,1.3-1.443,1.691-1.874l.447-.492C107.546,49.049,107.6,49,107.6,49Z" transform="translate(-72.61 -48.625)" fill="#e6e6e6"/>
    <path id="Path_2253" data-name="Path 2253" d="M203.977,52.63a.326.326,0,0,1,.012-.105l.059-.3c.061-.279.143-.649.234-1.1.208-.937.5-2.216.843-3.649l.075.07-.265.082c-1.469.452-2.8.853-3.764,1.138l-1.145.33-.314.084a.335.335,0,0,1-.112.021.583.583,0,0,1,.105-.044l.307-.105,1.134-.368c.958-.307,2.286-.721,3.747-1.171l.265-.08.1-.033-.026.105c-.326,1.44-.623,2.715-.857,3.64-.115.447-.208.815-.276,1.091-.033.115-.061.213-.082.293A.372.372,0,0,1,203.977,52.63Z" transform="translate(-171.187 -47.4)" fill="#e6e6e6"/>
    <path id="Path_2254" data-name="Path 2254" d="M378.54,200.108a5.289,5.289,0,1,1-5.2,5.375A5.289,5.289,0,0,1,378.54,200.108Zm.126,7.818a2.53,2.53,0,1,0-2.576-2.487A2.53,2.53,0,0,0,378.666,207.926Z" transform="translate(-306.663 -169.179)" fill="#e0e0e0"/>
    <path id="Path_2255" data-name="Path 2255" d="M376.371,197.3a5.958,5.958,0,0,1,6.043,5.855l-3.607.094a2.211,2.211,0,0,0-2.342-2.284,2.244,2.244,0,0,0-2.377,2.284l-3.569.1A5.954,5.954,0,0,1,376.371,197.3Z" transform="translate(-304.503 -166.63)" fill="#f0f0f0"/>
    <path id="Path_2256" data-name="Path 2256" d="M203.957,289.4a10.071,10.071,0,0,1,14.1-.468,9.811,9.811,0,0,1,.485,13.95,10.071,10.071,0,0,1-14.1.468,9.811,9.811,0,0,1-.485-13.95Zm10.774,9.963a4.684,4.684,0,0,0-.234-6.673,4.813,4.813,0,0,0-6.743.234,4.684,4.684,0,0,0,.234,6.673,4.811,4.811,0,0,0,6.748-.234Z" transform="translate(-172.766 -239.135)" fill="#f5f5f5"/>
    <path id="Path_2257" data-name="Path 2257" d="M203.938,289.4a10.071,10.071,0,0,1,14.1-.468l-3.555,3.766a4.813,4.813,0,0,0-6.743.234,4.684,4.684,0,0,0,.234,6.673l-3.56,3.752a9.811,9.811,0,0,1-.48-13.957Z" transform="translate(-172.677 -239.135)" fill="#e0e0e0"/>
    <path id="Path_2258" data-name="Path 2258" d="M257.842,290.7c4.919,4.551,5.516,11.945.913,16.826l-5-4.307c2.2-2.33,2.677-5.443.323-7.619Z" transform="translate(-213.287 -242.523)" fill="#ebebeb"/>
    <path id="Path_2259" data-name="Path 2259" d="M251.54,343.624l2.967,5.869a8.432,8.432,0,0,0,3.23-2.129l-5.331-4.3Z" transform="translate(-211.518 -282.62)" fill="#e0e0e0"/>
    <path id="Path_2260" data-name="Path 2260" d="M299.334,69.946a13.3,13.3,0,1,1,13.5,13.081A13.3,13.3,0,0,1,299.334,69.946Zm19.658-.316a6.359,6.359,0,1,0-6.256,6.462A6.359,6.359,0,0,0,318.992,69.63Z" transform="translate(-249.991 -54.312)" fill="#fafafa"/>
    <path id="Path_2261" data-name="Path 2261" d="M299.335,69.972A13.313,13.313,0,0,1,312.42,56.46l.112,6.94a6.36,6.36,0,0,0,.2,12.718l.1,6.935A13.313,13.313,0,0,1,299.335,69.972Z" transform="translate(-248.85 -54.338)" fill="#e0e0e0"/>
    <path id="Path_2262" data-name="Path 2262" d="M350.11,51.893a15.164,15.164,0,0,1,15.561,15.069l-8.12.131c-.066-4.1-3.2-6.687-7.3-6.619Z" transform="translate(-288.876 -50.839)" fill="#f0f0f0"/>
  </g>
  <g id="freepik--Floor--inject-2" transform="translate(2.433 85.876)">
    <path id="Path_2263" data-name="Path 2263" d="M157.467,451.723c0,.033-16.67.061-37.234.061S83,451.756,83,451.723s16.666-.063,37.234-.063S157.467,451.688,157.467,451.723Z" transform="translate(-83 -451.66)" fill="#263238"/>
  </g>
  <g id="freepik--Charts--inject-2" transform="translate(23.198 13.194)">
    <path id="Path_2264" data-name="Path 2264" d="M185.47,312.252l43.4-.312v.609l-43.4.389Z" transform="translate(-184.35 -266.294)" fill="#263238"/>
    <path id="Path_2265" data-name="Path 2265" d="M181.43,122.437l.988,44.487,43.358-.337v-44.9Z" transform="translate(-181.257 -120.603)" fill="#fff"/>
    <path id="Path_2266" data-name="Path 2266" d="M181.407,122.269l44.346-.8h.054v45.012h-.061l-43.358.33h-.052v-.052c-.56-26.663-.925-44.033-.937-44.489,0,.45.417,17.826,1.04,44.485l-.052-.052,43.358-.344-.061.061v-44.9l.054.054Z" transform="translate(-181.234 -120.435)" fill="#263238"/>
    <path id="Path_2267" data-name="Path 2267" d="M180.69,119.181l44.709-.255.056-1.876-44.766.279Z" transform="translate(-180.69 -117.05)" fill="#263238"/>
    <path id="Path_2268" data-name="Path 2268" d="M271.479,314.831c-.075,0-.155-.349-.176-.785s.026-.792.1-.8.155.347.176.782S271.556,314.831,271.479,314.831Z" transform="translate(-250.077 -267.297)" fill="#263238"/>
    <path id="Path_2269" data-name="Path 2269" d="M269.28,318.48c0-.016.075-.021.192.026a.827.827,0,0,1,.2.117.815.815,0,0,1,.2.234.8.8,0,0,1-.019.81.765.765,0,0,1-.169.192.7.7,0,0,1-.234.124.815.815,0,0,1-.546-.04.8.8,0,0,1-.234-.159.7.7,0,0,1-.157-.234.836.836,0,0,1-.04-.5.777.777,0,0,1,1.089-.539c.112.056.155.115.145.129s-.073,0-.18-.028a.825.825,0,0,0-.438.037.594.594,0,0,0-.33.794.484.484,0,0,0,.255.246.546.546,0,0,0,.358.031.455.455,0,0,0,.267-.192.618.618,0,0,0,.105-.3.513.513,0,0,0,0-.148.561.561,0,0,0-.04-.133.88.88,0,0,0-.274-.349C269.341,318.531,269.28,318.5,269.28,318.48Z" transform="translate(-247.893 -271.267)" fill="#263238"/>
    <path id="Path_2270" data-name="Path 2270" d="M221.649,170.881h-.108l-.309.014-1.192.052-4.385.164c-3.7.136-8.821.316-14.47.511l-1.944.066H199.2v-.045c-.393-5.169-.749-9.8-1-13.132-.122-1.663-.218-3-.286-3.921-.03-.468-.056-.817-.073-1.059,0-.122-.014-.213-.016-.276a.533.533,0,0,1,0-.07v-.023a.082.082,0,0,1,0,.023v.07c0,.03.014.155.026.274.019.234.049.6.089,1.059.073.92.18,2.258.314,3.916.262,3.321.623,7.942,1.021,13.132l-.047-.042,1.944-.068c5.649-.192,10.774-.363,14.47-.48l4.387-.136,1.192-.033h.417Z" transform="translate(-193.812 -144.702)" fill="#455a64"/>
    <path id="Path_2271" data-name="Path 2271" d="M232.51,146.359v.6l6.179-.3v-.5Z" transform="translate(-220.373 -139.342)" fill="#263238"/>
    <path id="Path_2272" data-name="Path 2272" d="M211.575,207.58h2.148l-.337-5.83H211.28Z" transform="translate(-204.115 -181.912)" fill="#ff735d"/>
    <path id="Path_2273" data-name="Path 2273" d="M228.2,200.008h2.145l-.335-8.148H227.9Z" transform="translate(-216.843 -174.338)" fill="#ff735d"/>
    <path id="Path_2274" data-name="Path 2274" d="M243.763,190.658h2.148l-.337-10.669h-2.1Z" transform="translate(-228.766 -165.248)" fill="#ff735d"/>
    <path id="Path_2275" data-name="Path 2275" d="M279.455,176.23H281.6l-.335-14.54H279.16Z" transform="translate(-256.097 -151.235)" fill="#ff735d"/>
    <path id="Path_2276" data-name="Path 2276" d="M262.085,183.072h2.145l-.337-12.512h-2.1Z" transform="translate(-242.795 -158.027)" fill="#ff735d"/>
    <path id="Path_2277" data-name="Path 2277" d="M206.778,159c-.056-.087,3.78-2.644,8.565-5.713s8.715-5.485,8.771-5.387-3.78,2.644-8.568,5.713S206.83,159.087,206.778,159Z" transform="translate(-200.667 -140.673)" fill="#ff735d"/>
    <path id="Path_2278" data-name="Path 2278" d="M271.729,145.06a13.7,13.7,0,0,1,3.108-.778l.44-.082-.251.372-.014.021a14.85,14.85,0,0,1-1.956,2.576,14.764,14.764,0,0,1,1.639-2.778l.014-.021.192.29A14.222,14.222,0,0,1,271.729,145.06Z" transform="translate(-250.406 -137.841)" fill="#ff735d"/>
    <path id="Path_2279" data-name="Path 2279" d="M211.28,235.05h2.244l.07.4H211.28Z" transform="translate(-204.115 -207.413)" fill="#263238"/>
    <path id="Path_2280" data-name="Path 2280" d="M228.24,234.35h2.244l.07.4H228.24Z" transform="translate(-217.103 -206.877)" fill="#263238"/>
    <path id="Path_2281" data-name="Path 2281" d="M245.7,233.85h2.244l.07.4H245.7Z" transform="translate(-230.474 -206.494)" fill="#263238"/>
    <path id="Path_2282" data-name="Path 2282" d="M262.06,233.44H264.3l.07.4H262.06Z" transform="translate(-243.002 -206.18)" fill="#263238"/>
    <path id="Path_2283" data-name="Path 2283" d="M282.33,232.84h2.244l.07.4H282.33Z" transform="translate(-258.524 -205.72)" fill="#263238"/>
    <circle id="Ellipse_121" data-name="Ellipse 121" cx="7.162" cy="7.162" r="7.162" transform="translate(26.708 28.67)" fill="#ff735d"/>
    <circle id="Ellipse_122" data-name="Ellipse 122" cx="7.162" cy="7.162" r="7.162" transform="translate(26.708 28.67)" opacity="0.3"/>
    <path id="Path_2284" data-name="Path 2284" d="M301.846,246.582l-6.987,1.572h0a7.138,7.138,0,0,1,6.987-8.734h0" transform="translate(-267.976 -210.759)" fill="#ff735d"/>
    <path id="Path_2285" data-name="Path 2285" d="M325.187,246.582l-.047-7.162h0a7.139,7.139,0,0,1,7.045,8.687h0Z" transform="translate(-291.308 -210.759)" fill="#ff735d"/>
    <path id="Path_2286" data-name="Path 2286" d="M325.187,246.582l-.047-7.162h0a7.139,7.139,0,0,1,7.045,8.687h0Z" transform="translate(-291.308 -210.759)" fill="#ff735d"/>
    <path id="Path_2287" data-name="Path 2287" d="M325.187,246.582l-.047-7.162h0a7.139,7.139,0,0,1,7.045,8.687h0Z" transform="translate(-291.308 -210.759)" opacity="0.1"/>
    <path id="Path_2288" data-name="Path 2288" d="M321.513,196.341a2.44,2.44,0,0,0-.443-.234,2.068,2.068,0,0,0-1.321.037,4.181,4.181,0,0,0-1.618,1.152,6.666,6.666,0,0,1-1.916,1.593,2.227,2.227,0,0,1-1.286.213,4.385,4.385,0,0,1-1.141-.408,3.774,3.774,0,0,0-1-.354,1.64,1.64,0,0,0-.9.112,1.92,1.92,0,0,0-.963.9,3.206,3.206,0,0,0-.162.468,1.291,1.291,0,0,1,.119-.49,1.932,1.932,0,0,1,.97-.958,1.729,1.729,0,0,1,.937-.134,3.868,3.868,0,0,1,1.04.351,4.282,4.282,0,0,0,1.11.393,2.143,2.143,0,0,0,1.216-.206,7,7,0,0,0,1.888-1.562,4.329,4.329,0,0,1,1.67-1.155,2.073,2.073,0,0,1,1.365,0,1.38,1.38,0,0,1,.33.183.589.589,0,0,1,.108.1Z" transform="translate(-280.296 -177.467)" fill="#263238"/>
    <path id="Path_2289" data-name="Path 2289" d="M322.119,217.191c0,.035-2.544.061-5.68.061s-5.68-.026-5.68-.061,2.544-.061,5.68-.061S322.119,217.158,322.119,217.191Z" transform="translate(-280.296 -193.69)" fill="#263238"/>
    <path id="Path_2290" data-name="Path 2290" d="M356.361,196.247c-.033,0-.061-1.447-.061-3.235s.028-3.232.061-3.232.061,1.447.061,3.232S356.4,196.247,356.361,196.247Z" transform="translate(-315.169 -172.745)" fill="#263238"/>
    <path id="Path_2291" data-name="Path 2291" d="M315.535,205.05a.072.072,0,0,1,0-.066.216.216,0,0,1,.129-.129.267.267,0,0,1,.274.035.274.274,0,0,1-.309.436.265.265,0,0,1-.129-.234.234.234,0,0,1,.068-.169c.035-.028.061-.028.063-.023a.258.258,0,0,0-.047.187.2.2,0,0,0,.1.15.169.169,0,0,0,.183-.255.187.187,0,0,0-.171-.035C315.572,204.965,315.551,205.054,315.535,205.05Z" transform="translate(-283.925 -184.273)" fill="#263238"/>
    <path id="Path_2292" data-name="Path 2292" d="M347.981,195.48s0-.028.042-.052a.234.234,0,0,1,.176-.014.262.262,0,0,1,.187.2.263.263,0,1,1-.452-.117.235.235,0,0,1,.157-.082c.042,0,.063.014.061.021a.246.246,0,0,0-.148.112.192.192,0,0,0-.019.171.164.164,0,0,0,.29-.089.19.19,0,0,0-.108-.134C348.065,195.443,347.992,195.5,347.981,195.48Z" transform="translate(-308.712 -177.052)" fill="#263238"/>
    <path id="Path_2293" data-name="Path 2293" d="M319.723,162.8c0,.033-2.464.061-5.5.061s-5.5-.028-5.5-.061,2.462-.061,5.5-.061S319.723,162.773,319.723,162.8Z" transform="translate(-278.733 -152.039)" fill="#263238"/>
    <path id="Path_2294" data-name="Path 2294" d="M319.723,169.351c0,.035-2.464.061-5.5.061s-5.5-.026-5.5-.061,2.462-.061,5.5-.061S319.723,169.318,319.723,169.351Z" transform="translate(-278.733 -157.055)" fill="#263238"/>
    <path id="Path_2295" data-name="Path 2295" d="M319.723,175.881c0,.033-2.464.061-5.5.061s-5.5-.028-5.5-.061,2.462-.061,5.5-.061S319.723,175.846,319.723,175.881Z" transform="translate(-278.733 -162.055)" fill="#263238"/>
    <path id="Path_2296" data-name="Path 2296" d="M319.723,182.4c0,.035-2.464.061-5.5.061s-5.5-.026-5.5-.061,2.462-.061,5.5-.061S319.723,182.368,319.723,182.4Z" transform="translate(-278.733 -167.048)" fill="#263238"/>
    <rect id="Rectangle_680" data-name="Rectangle 680" width="5.855" height="0.494" transform="translate(29.987 7.973)" fill="#263238"/>
    <rect id="Rectangle_681" data-name="Rectangle 681" width="5.855" height="0.494" transform="translate(5.816 32.509)" fill="#263238"/>
    <path id="Path_2297" data-name="Path 2297" d="M222.033,267.881c0,.035-3.553.061-7.935.061s-7.938-.026-7.938-.061,3.553-.061,7.938-.061S222.033,267.848,222.033,267.881Z" transform="translate(-200.194 -232.507)" fill="#263238"/>
    <path id="Path_2298" data-name="Path 2298" d="M221.521,273.8c0,.033-3.616.061-8.076.061s-8.076-.028-8.076-.061,3.614-.061,8.076-.061S221.521,273.773,221.521,273.8Z" transform="translate(-199.59 -237.041)" fill="#263238"/>
    <path id="Path_2299" data-name="Path 2299" d="M222.005,279.381c0,.033-3.637.061-8.123.061s-8.123-.028-8.123-.061,3.637-.061,8.123-.061S222.005,279.346,222.005,279.381Z" transform="translate(-199.888 -241.314)" fill="#263238"/>
    <path id="Path_2300" data-name="Path 2300" d="M214.514,285.321c0,.033-1.874.061-4.178.061s-4.176-.028-4.176-.061,1.874-.061,4.176-.061S214.514,285.288,214.514,285.321Z" transform="translate(-200.195 -245.863)" fill="#263238"/>
  </g>
  <g id="freepik--Character--inject-2" transform="translate(4.514 10.835)">
    <path id="Path_2301" data-name="Path 2301" d="M119.858,440.393v-2.108l-3.965-.035-.033,3.1.234.016a47.112,47.112,0,0,0,6.3.052C123.221,441.173,119.858,440.393,119.858,440.393Z" transform="translate(-110.245 -366.35)" fill="#ff735d"/>
    <path id="Path_2302" data-name="Path 2302" d="M122.536,450.718c0,.037-1.483.068-3.312.068s-3.314-.03-3.314-.068,1.485-.068,3.314-.068S122.536,450.68,122.536,450.718Z" transform="translate(-110.283 -375.846)" fill="#263238"/>
    <path id="Path_2303" data-name="Path 2303" d="M133.189,448.006c-.033-.019,0-.133.08-.234s.19-.166.213-.141-.028.122-.105.234S133.222,448.025,133.189,448.006Z" transform="translate(-123.505 -373.53)" fill="#263238"/>
    <path id="Path_2304" data-name="Path 2304" d="M134.254,448.326c-.035-.014-.016-.141.061-.272s.18-.211.208-.187-.019.134-.091.255S134.289,448.34,134.254,448.326Z" transform="translate(-124.318 -373.712)" fill="#263238"/>
    <path id="Path_2305" data-name="Path 2305" d="M117.254,448.444c-.016.012-.077-.044-.164-.138a2.563,2.563,0,0,0-.349-.335.956.956,0,0,0-.429-.176c-.119-.016-.2,0-.2-.019s.068-.068.206-.077a.8.8,0,0,1,.506.162,1.406,1.406,0,0,1,.347.386C117.24,448.357,117.273,448.432,117.254,448.444Z" transform="translate(-110.435 -373.586)" fill="#263238"/>
    <path id="Path_2306" data-name="Path 2306" d="M132.031,447.492c.019.03-.052.105-.164.145s-.213.026-.218-.012.073-.08.173-.115S132.01,447.459,132.031,447.492Z" transform="translate(-122.336 -373.414)" fill="#263238"/>
    <path id="Path_2307" data-name="Path 2307" d="M131.468,446.463c0,.037-.1.07-.234.073s-.234-.028-.234-.066.108-.068.234-.07S131.468,446.425,131.468,446.463Z" transform="translate(-121.839 -372.591)" fill="#ff735d"/>
    <path id="Path_2308" data-name="Path 2308" d="M122.536,450.718c0,.037-1.483.068-3.312.068s-3.314-.03-3.314-.068,1.485-.068,3.314-.068S122.536,450.68,122.536,450.718Z" transform="translate(-110.283 -375.846)" fill="#263238"/>
    <path id="Path_2309" data-name="Path 2309" d="M133.189,448.006c-.033-.019,0-.133.08-.234s.19-.166.213-.141-.028.122-.105.234S133.222,448.025,133.189,448.006Z" transform="translate(-123.505 -373.53)" fill="#263238"/>
    <path id="Path_2310" data-name="Path 2310" d="M134.254,448.326c-.035-.014-.016-.141.061-.272s.18-.211.208-.187-.019.134-.091.255S134.289,448.34,134.254,448.326Z" transform="translate(-124.318 -373.712)" fill="#263238"/>
    <path id="Path_2311" data-name="Path 2311" d="M117.254,448.444c-.016.012-.077-.044-.164-.138a2.563,2.563,0,0,0-.349-.335.956.956,0,0,0-.429-.176c-.119-.016-.2,0-.2-.019s.068-.068.206-.077a.8.8,0,0,1,.506.162,1.406,1.406,0,0,1,.347.386C117.24,448.357,117.273,448.432,117.254,448.444Z" transform="translate(-110.435 -373.586)" fill="#263238"/>
    <path id="Path_2312" data-name="Path 2312" d="M132.031,447.492c.019.03-.052.105-.164.145s-.213.026-.218-.012.073-.08.173-.115S132.01,447.459,132.031,447.492Z" transform="translate(-122.336 -373.414)" fill="#263238"/>
    <path id="Path_2313" data-name="Path 2313" d="M131.468,446.463c0,.037-.1.07-.234.073s-.234-.028-.234-.066.108-.068.234-.07S131.468,446.425,131.468,446.463Z" transform="translate(-121.839 -372.591)" fill="#263238"/>
    <path id="Path_2314" data-name="Path 2314" d="M137.412,433.67l.625-2.021-3.78-1.2-.937,2.949.234.089a47.151,47.151,0,0,0,6,1.914C140.393,435.411,137.412,433.67,137.412,433.67Z" transform="translate(-123.615 -360.377)" fill="#ff735d"/>
    <path id="Path_2315" data-name="Path 2315" d="M139.818,444.493c0,.038-1.438-.372-3.185-.916s-3.155-1.009-3.143-1.045,1.436.375,3.185.916S139.83,444.458,139.818,444.493Z" transform="translate(-123.745 -369.629)" fill="#263238"/>
    <path id="Path_2316" data-name="Path 2316" d="M150.511,445.09c-.026-.028.035-.126.148-.208s.234-.1.246-.07-.063.108-.166.183S150.537,445.116,150.511,445.09Z" transform="translate(-136.775 -371.364)" fill="#263238"/>
    <path id="Path_2317" data-name="Path 2317" d="M151.356,445.763c-.028-.023.026-.14.141-.234s.234-.148.255-.117-.059.122-.164.218S151.386,445.778,151.356,445.763Z" transform="translate(-137.421 -371.829)" fill="#263238"/>
    <path id="Path_2318" data-name="Path 2318" d="M135.462,440.719c-.019,0-.059-.063-.112-.18a2.507,2.507,0,0,0-.234-.422.965.965,0,0,0-.356-.3c-.11-.049-.19-.059-.19-.077s.084-.047.22-.014a.8.8,0,0,1,.433.3,1.438,1.438,0,0,1,.218.468C135.472,440.63,135.479,440.719,135.462,440.719Z" transform="translate(-124.572 -367.473)" fill="#455a64"/>
    <path id="Path_2319" data-name="Path 2319" d="M149.754,444.291c0,.035-.08.087-.2.091s-.213-.04-.206-.077.1-.054.2-.059S149.735,444.254,149.754,444.291Z" transform="translate(-135.89 -370.942)" fill="#263238"/>
    <path id="Path_2320" data-name="Path 2320" d="M149.591,443.01c0,.035-.117.035-.246,0s-.22-.1-.208-.134.124-.033.246,0S149.6,442.973,149.591,443.01Z" transform="translate(-135.727 -369.874)" fill="#263238"/>
    <path id="Path_2321" data-name="Path 2321" d="M119.488,265.23l-5.2-.4h0l-7.884-.639.881,42.348,6.846-.089s0-.468-.016-1.3l4.014,1.1s3.911-13.214,5.244-18.636C124.481,283.1,119.488,265.23,119.488,265.23Zm-5.453,33.345c-.1-9.776-.222-26.4-.08-28.434,0,0,3.813,14.636,3.848,15.791C117.827,286.63,115.7,293.385,114.035,298.575Z" transform="translate(-103 -233.058)" fill="#455a64"/>
    <path id="Path_2322" data-name="Path 2322" d="M117.181,437.548c0,.038-1.532.068-3.42.068s-3.422-.03-3.422-.068,1.532-.068,3.422-.068S117.181,437.51,117.181,437.548Z" transform="translate(-106.018 -365.761)" fill="#455a64"/>
    <path id="Path_2323" data-name="Path 2323" d="M139.29,431.27a4.246,4.246,0,0,1,.628.2l1.567.546,1.567.548a3.558,3.558,0,0,1,.642.253,3.55,3.55,0,0,1-.672-.162c-.408-.119-.967-.3-1.581-.511s-1.171-.424-1.555-.585A2.394,2.394,0,0,1,139.29,431.27Z" transform="translate(-128.187 -361.005)" fill="#455a64"/>
    <path id="Path_2324" data-name="Path 2324" d="M157.6,356.389a12.644,12.644,0,0,1-2.59.194,12.218,12.218,0,0,1,2.59-.194Z" transform="translate(-140.225 -303.5)" fill="#455a64"/>
    <path id="Path_2325" data-name="Path 2325" d="M157.827,357.91a7.646,7.646,0,0,1-1.937-.56,7.336,7.336,0,0,1,1.937.56Z" transform="translate(-140.899 -304.255)" fill="#455a64"/>
    <path id="Path_2326" data-name="Path 2326" d="M138.976,267.15a5.482,5.482,0,0,1,.035.806V269.9c0,.377,0,.738-.014,1.07a2.091,2.091,0,0,1-.164.874,1.131,1.131,0,0,1-.384.468.441.441,0,0,1-.2.094,1.847,1.847,0,0,0,.171-.131,1.2,1.2,0,0,0,.335-.468,2.171,2.171,0,0,0,.129-.839V269.9c0-.761.019-1.45.033-1.946A5.34,5.34,0,0,1,138.976,267.15Z" transform="translate(-127.391 -235.056)" fill="#455a64"/>
    <path id="Path_2327" data-name="Path 2327" d="M122.839,266.13a.7.7,0,0,1,0,.1v.3c0,.272-.021.665-.037,1.171-.033,1.019-.08,2.483-.138,4.289-.11,3.621-.222,8.626-.251,14.151s.035,10.54.108,14.158c.04,1.806.07,3.279.094,4.288,0,.5.019.895.026,1.171v.3a.706.706,0,0,1,0,.1.7.7,0,0,1,0-.1,2.247,2.247,0,0,0-.016-.3c0-.274-.026-.665-.047-1.171-.04-1.012-.087-2.478-.134-4.289-.1-3.623-.171-8.628-.143-14.161s.155-10.54.286-14.154c.066-1.81.126-3.279.178-4.288.026-.5.047-.892.061-1.171,0-.129.014-.234.019-.3A.707.707,0,0,1,122.839,266.13Z" transform="translate(-115.172 -234.544)" fill="#455a64"/>
    <path id="Path_2328" data-name="Path 2328" d="M152.251,270.68a.644.644,0,0,1,.035.1c.021.07.052.164.089.286.075.251.194.621.326,1.1.269.963.632,2.361,1.038,4.1s.855,3.815,1.323,6.129.963,4.862,1.405,7.551c.056.337.108.672.152,1.007,0,.089.016.18.016.267l-.042.248c-.03.166-.054.333-.091.494-.134.651-.283,1.288-.445,1.911-.319,1.246-.656,2.438-.988,3.572-.66,2.267-1.3,4.3-1.839,6s-.993,3.073-1.312,4.019l-.37,1.089-.1.283a.424.424,0,0,1-.037.094.676.676,0,0,1,.026-.1c.023-.07.052-.164.089-.286l.349-1.1,1.274-4.031c.529-1.705,1.157-3.736,1.813-6,.328-1.134.663-2.328.981-3.572.159-.621.309-1.255.443-1.9.037-.162.059-.326.087-.489l.042-.246c0-.08-.012-.157-.016-.234-.044-.33-.094-.665-.15-1-.445-2.687-.937-5.235-1.405-7.549s-.892-4.406-1.286-6.136-.747-3.143-1-4.108c-.122-.482-.234-.855-.3-1.108l-.077-.288A.469.469,0,0,1,152.251,270.68Z" transform="translate(-137.468 -238.028)" fill="#455a64"/>
    <path id="Path_2329" data-name="Path 2329" d="M138.73,407.33a1.542,1.542,0,0,1,.021.33c0,.234,0,.541.012.9,0,.785.028,1.827.044,2.977s.061,2.192.082,2.977c0,.363.019.668.026.9a1.723,1.723,0,0,1,0,.33,1.532,1.532,0,0,1-.042-.328c-.019-.213-.04-.52-.063-.9-.047-.761-.091-1.815-.117-2.979s-.021-2.218,0-2.979c0-.382.016-.7.026-.9A2.109,2.109,0,0,1,138.73,407.33Z" transform="translate(-127.716 -342.672)" fill="#455a64"/>
    <path id="Path_2330" data-name="Path 2330" d="M119.488,265.23l-5.2-.4h0l-7.884-.639.881,42.348,6.846-.089s0-.468-.016-1.3l4.014,1.1s3.911-13.214,5.244-18.636C124.481,283.1,119.488,265.23,119.488,265.23Zm-5.453,33.345c-.1-9.776-.222-26.4-.08-28.434,0,0,3.813,14.636,3.848,15.791C117.827,286.63,115.7,293.385,114.035,298.575Z" transform="translate(-103 -233.058)" fill="#263238"/>
    <path id="Path_2331" data-name="Path 2331" d="M117.181,437.548c0,.038-1.532.068-3.42.068s-3.422-.03-3.422-.068,1.532-.068,3.422-.068S117.181,437.51,117.181,437.548Z" transform="translate(-106.018 -365.761)" fill="#455a64"/>
    <path id="Path_2332" data-name="Path 2332" d="M139.29,431.27a4.246,4.246,0,0,1,.628.2l1.567.546,1.567.548a3.558,3.558,0,0,1,.642.253,3.55,3.55,0,0,1-.672-.162c-.408-.119-.967-.3-1.581-.511s-1.171-.424-1.555-.585A2.394,2.394,0,0,1,139.29,431.27Z" transform="translate(-128.187 -361.005)" fill="#455a64"/>
    <path id="Path_2333" data-name="Path 2333" d="M157.6,356.389a12.644,12.644,0,0,1-2.59.194,12.218,12.218,0,0,1,2.59-.194Z" transform="translate(-140.225 -303.5)" fill="#455a64"/>
    <path id="Path_2334" data-name="Path 2334" d="M157.827,357.91a7.646,7.646,0,0,1-1.937-.56,7.336,7.336,0,0,1,1.937.56Z" transform="translate(-140.899 -304.255)" fill="#455a64"/>
    <path id="Path_2335" data-name="Path 2335" d="M138.976,267.15a5.482,5.482,0,0,1,.035.806V269.9c0,.377,0,.738-.014,1.07a2.091,2.091,0,0,1-.164.874,1.131,1.131,0,0,1-.384.468.441.441,0,0,1-.2.094,1.847,1.847,0,0,0,.171-.131,1.2,1.2,0,0,0,.335-.468,2.171,2.171,0,0,0,.129-.839V269.9c0-.761.019-1.45.033-1.946A5.34,5.34,0,0,1,138.976,267.15Z" transform="translate(-127.391 -235.056)" fill="#455a64"/>
    <path id="Path_2336" data-name="Path 2336" d="M122.839,266.13a.7.7,0,0,1,0,.1v.3c0,.272-.021.665-.037,1.171-.033,1.019-.08,2.483-.138,4.289-.11,3.621-.222,8.626-.251,14.151s.035,10.54.108,14.158c.04,1.806.07,3.279.094,4.288,0,.5.019.895.026,1.171v.3a.706.706,0,0,1,0,.1.7.7,0,0,1,0-.1,2.247,2.247,0,0,0-.016-.3c0-.274-.026-.665-.047-1.171-.04-1.012-.087-2.478-.134-4.289-.1-3.623-.171-8.628-.143-14.161s.155-10.54.286-14.154c.066-1.81.126-3.279.178-4.288.026-.5.047-.892.061-1.171,0-.129.014-.234.019-.3A.707.707,0,0,1,122.839,266.13Z" transform="translate(-115.172 -234.544)" fill="#455a64"/>
    <path id="Path_2337" data-name="Path 2337" d="M152.251,270.68a.644.644,0,0,1,.035.1c.021.07.052.164.089.286.075.251.194.621.326,1.1.269.963.632,2.361,1.038,4.1s.855,3.815,1.323,6.129.963,4.862,1.405,7.551c.056.337.108.672.152,1.007,0,.089.016.18.016.267l-.042.248c-.03.166-.054.333-.091.494-.134.651-.283,1.288-.445,1.911-.319,1.246-.656,2.438-.988,3.572-.66,2.267-1.3,4.3-1.839,6s-.993,3.073-1.312,4.019l-.37,1.089-.1.283a.424.424,0,0,1-.037.094.676.676,0,0,1,.026-.1c.023-.07.052-.164.089-.286l.349-1.1,1.274-4.031c.529-1.705,1.157-3.736,1.813-6,.328-1.134.663-2.328.981-3.572.159-.621.309-1.255.443-1.9.037-.162.059-.326.087-.489l.042-.246c0-.08-.012-.157-.016-.234-.044-.33-.094-.665-.15-1-.445-2.687-.937-5.235-1.405-7.549s-.892-4.406-1.286-6.136-.747-3.143-1-4.108c-.122-.482-.234-.855-.3-1.108l-.077-.288A.469.469,0,0,1,152.251,270.68Z" transform="translate(-137.468 -238.028)" fill="#455a64"/>
    <path id="Path_2338" data-name="Path 2338" d="M138.73,407.33a1.542,1.542,0,0,1,.021.33c0,.234,0,.541.012.9,0,.785.028,1.827.044,2.977s.061,2.192.082,2.977c0,.363.019.668.026.9a1.723,1.723,0,0,1,0,.33,1.532,1.532,0,0,1-.042-.328c-.019-.213-.04-.52-.063-.9-.047-.761-.091-1.815-.117-2.979s-.021-2.218,0-2.979c0-.382.016-.7.026-.9A2.109,2.109,0,0,1,138.73,407.33Z" transform="translate(-127.716 -342.672)" fill="#455a64"/>
    <path id="Path_2339" data-name="Path 2339" d="M123.74,149.781l3.982.3c.054-.468.131-2.251.131-2.251a1.975,1.975,0,0,0,1.782-1.8c.122-1.644.07-5.441.07-5.441h0a5.724,5.724,0,0,0-5.79.368l-.255.173Z" transform="translate(-116.218 -137.438)" fill="#e5baab"/>
    <path id="Path_2340" data-name="Path 2340" d="M146.839,153.277a.234.234,0,1,1,.17.073A.234.234,0,0,1,146.839,153.277Z" transform="translate(-133.919 -147.323)" fill="#263238"/>
    <path id="Path_2341" data-name="Path 2341" d="M146.117,152.22c-.028.028-.18-.105-.408-.122s-.4.091-.422.061.016-.063.094-.112a.527.527,0,0,1,.337-.084.536.536,0,0,1,.323.134C146.11,152.155,146.131,152.2,146.117,152.22Z" transform="translate(-132.775 -146.618)" fill="#263238"/>
    <path id="Path_2342" data-name="Path 2342" d="M136.432,153.083a.234.234,0,1,1-.179-.042A.234.234,0,0,1,136.432,153.083Z" transform="translate(-125.714 -147.443)" fill="#263238"/>
    <path id="Path_2343" data-name="Path 2343" d="M135.557,152.426c-.028.026-.18-.108-.408-.124s-.4.094-.422.063.016-.066.091-.115a.569.569,0,0,1,.34-.084.557.557,0,0,1,.323.134C135.55,152.36,135.571,152.414,135.557,152.426Z" transform="translate(-124.688 -146.774)" fill="#263238"/>
    <path id="Path_2344" data-name="Path 2344" d="M141.642,155.037a1.209,1.209,0,0,1,.37-.054c.061,0,.11-.012.117-.045a.321.321,0,0,0-.033-.176l-.15-.468a6.725,6.725,0,0,1-.316-1.234,6.81,6.81,0,0,1,.433,1.2l.141.468a.375.375,0,0,1,.019.246.152.152,0,0,1-.108.087.392.392,0,0,1-.1,0A1.171,1.171,0,0,1,141.642,155.037Z" transform="translate(-129.979 -147.46)" fill="#263238"/>
    <path id="Path_2345" data-name="Path 2345" d="M138.341,162.279a4.2,4.2,0,0,0,1.091.393.625.625,0,0,1-.754.2C138.2,162.661,138.341,162.279,138.341,162.279Z" transform="translate(-127.43 -154.499)" fill="#fff"/>
    <path id="Path_2346" data-name="Path 2346" d="M134.628,170.98a3.837,3.837,0,0,1-2.108-.74,2.033,2.033,0,0,0,2.085,1.171Z" transform="translate(-123.003 -160.617)" fill="#d78776"/>
    <path id="Path_2347" data-name="Path 2347" d="M121.346,151.1c-.037-.014-1.223-.169-1.11,1.232s1.49.822,1.487.782S121.346,151.1,121.346,151.1Z" transform="translate(-113.59 -145.952)" fill="#e5baab"/>
    <path id="Path_2348" data-name="Path 2348" d="M122.345,154.239a.424.424,0,0,1-.061.042.253.253,0,0,1-.183.019.611.611,0,0,1-.323-.52.794.794,0,0,1,.042-.354.286.286,0,0,1,.166-.2.129.129,0,0,1,.15.056c.021.037.016.066.023.068s.028-.026,0-.082a.152.152,0,0,0-.061-.084.194.194,0,0,0-.138-.023.34.34,0,0,0-.234.234.815.815,0,0,0-.054.4.632.632,0,0,0,.4.576.262.262,0,0,0,.22-.054C122.345,154.274,122.352,154.242,122.345,154.239Z" transform="translate(-114.692 -147.532)" fill="#d78776"/>
    <path id="Path_2349" data-name="Path 2349" d="M128.313,131.709a.618.618,0,1,0-.34-1.145,1.82,1.82,0,0,0,.468-.593.623.623,0,0,0-.117-.7.7.7,0,0,0-.7-.042c-.349.15-.625.445-.984.569a4.023,4.023,0,0,1-1.143.08,2.035,2.035,0,0,0-1.192.412,1.405,1.405,0,0,0-.527.937,1.5,1.5,0,0,0-.152-.178,1.356,1.356,0,0,0-.7-.443c-.016.03.3.208.611.527a2.665,2.665,0,0,1,.234.255,2.062,2.062,0,0,0-1.543.262,1.551,1.551,0,0,0-.518,1.218,4.632,4.632,0,0,0,.321,1.323h0a1,1,0,0,0,.164.342l.2,1.171.733-.014-.047-2.457s-.075-1.035.815-.937,2.108,1.094,3.836.841a1.874,1.874,0,0,0,.808-.234.8.8,0,0,0,.37-.719A.541.541,0,0,0,128.313,131.709Z" transform="translate(-114.721 -129.152)" fill="#263238"/>
    <path id="Path_2350" data-name="Path 2350" d="M213.318,176.828l.108-.745a6.327,6.327,0,0,0,.206-1.246,1.806,1.806,0,0,0-.056-.623,2.739,2.739,0,0,0-.272-.731c-.136-.2.042-.468.234-.386a2.071,2.071,0,0,1,.721,1.375c.129.764.731-.3.956-.677a7.185,7.185,0,0,1,1.155-1.555c.253-.035.337.234.1.607s-.86,1.555-.651,1.663a1.134,1.134,0,0,1,.468.023.124.124,0,0,1,.089.112,1.558,1.558,0,0,0,.037.351s.307-.07.37.063a1.3,1.3,0,0,1,.059.424s.234-.08.347,0c.234.19-.066.515-.066.515a25.552,25.552,0,0,1-2.218,2.33l-1.614-1.555" transform="translate(-184.829 -162.146)" fill="#e5baab"/>
    <path id="Path_2351" data-name="Path 2351" d="M221.949,182.923a1.436,1.436,0,0,1-.274.391c-.094.112-.211.234-.349.382a1.885,1.885,0,0,1-.234.211.344.344,0,0,1-.37.037.234.234,0,0,1-.115-.18.339.339,0,0,1,.042-.19,2.792,2.792,0,0,1,.187-.251c.119-.15.218-.29.3-.412a2.827,2.827,0,0,1,.269-.391,1.344,1.344,0,0,1-.2.436,4.43,4.43,0,0,1-.281.436,2.559,2.559,0,0,0-.173.234c-.042.077-.04.173.028.208a.234.234,0,0,0,.234-.03,2.1,2.1,0,0,0,.22-.192c.141-.131.262-.255.363-.361A2.354,2.354,0,0,1,221.949,182.923Z" transform="translate(-190.458 -170.02)" fill="#d78776"/>
    <path id="Path_2352" data-name="Path 2352" d="M223.97,184.879a1.332,1.332,0,0,1-.262.335,2.755,2.755,0,0,1-.344.312,1.774,1.774,0,0,1-.234.15.519.519,0,0,1-.155.049.234.234,0,0,1-.185-.049.283.283,0,0,1-.04-.342,1.427,1.427,0,0,1,.166-.234c.1-.119.2-.234.3-.349.171-.2.283-.312.3-.3a1.6,1.6,0,0,1-.234.356l-.262.372a1.675,1.675,0,0,0-.15.211.169.169,0,0,0,.014.194c.042.04.131.023.208-.014a2.073,2.073,0,0,0,.223-.134,3.846,3.846,0,0,0,.349-.281A1.714,1.714,0,0,1,223.97,184.879Z" transform="translate(-192.069 -171.497)" fill="#d78776"/>
    <path id="Path_2353" data-name="Path 2353" d="M226.356,187.139c.012,0,0,.105-.11.234a.389.389,0,0,1-.269.138.3.3,0,0,1-.185-.063.255.255,0,0,1-.091-.2.719.719,0,0,1,.141-.328A2.319,2.319,0,0,1,226,186.7c.1-.122.173-.185.187-.173s-.037.091-.117.234c-.047.082-.094.157-.136.234a.737.737,0,0,0-.115.274.155.155,0,0,0,.155.148.318.318,0,0,0,.208-.087C226.29,187.216,226.339,187.13,226.356,187.139Z" transform="translate(-194.358 -173.087)" fill="#d78776"/>
    <path id="Path_2354" data-name="Path 2354" d="M123.793,179.715s-6.143,6.045-7.005,6.09c-.984.047-4.01-4.244-4.01-4.244h0a7.234,7.234,0,0,0-5.424-3.546v-.37l-4.579-.375v.738h-2.021s-3.63-.166-4.174,4.71l2.609,2.063,1.07,3.982c.372,1.387-.958,3.6-1.593,7.172a2.773,2.773,0,0,0,.283,1.743l13.221,1.52-.7-10.109-.213-2.342c1.089,1.487,3.045,3.591,5.441,3.544,4.087-.077,9.764-8.666,9.764-8.666Z" transform="translate(-95.48 -166)" fill="#e0e0e0"/>
    <path id="Path_2355" data-name="Path 2355" d="M125.892,178.59a2.877,2.877,0,0,1,0,.625,11.2,11.2,0,0,1-.211,1.548l-.016.077-.07-.037c-.159-.084-.326-.173-.494-.272-.656-.386-1.216-.785-1.639-1.061a6.89,6.89,0,0,1-.661-.457.8.8,0,0,1,.2.089c.122.068.3.166.508.3.426.258.993.646,1.64,1.028.164.1.328.187.487.272l-.087.04c.136-.6.2-1.145.251-1.529A5.149,5.149,0,0,1,125.892,178.59Z" transform="translate(-115.559 -167.011)" fill="#fafafa"/>
    <path id="Path_2356" data-name="Path 2356" d="M137.54,179.051a4.245,4.245,0,0,1-.131.595c-.044.185-.091.405-.171.644a3.2,3.2,0,0,1-.148.37.22.22,0,0,1-.084.105.138.138,0,0,1-.171-.021.915.915,0,0,1-.105-.208c-.234-.532-.419-1.014-.555-1.368a2.833,2.833,0,0,1-.194-.579,3.044,3.044,0,0,1,.274.546c.157.344.365.822.588,1.354a1.1,1.1,0,0,0,.08.171h.021a.134.134,0,0,0,.04-.054,3.7,3.7,0,0,0,.15-.354c.082-.234.138-.45.192-.63A2.342,2.342,0,0,1,137.54,179.051Z" transform="translate(-125.652 -167.011)" fill="#fafafa"/>
    <path id="Path_2357" data-name="Path 2357" d="M137.109,196.718a.935.935,0,0,1-.019-.166q0-.183-.028-.468c-.019-.431-.047-1.028-.08-1.761-.056-1.5-.136-3.548-.22-5.811s-.138-4.312-.185-5.811c-.016-.735-.03-1.333-.042-1.764v-.468a.785.785,0,0,1,0-.169.869.869,0,0,1,.016.166c0,.122.019.281.03.468.019.429.047,1.026.08,1.759.056,1.5.134,3.548.22,5.811s.136,4.312.185,5.813c.016.733.03,1.33.042,1.761v.48A.767.767,0,0,1,137.109,196.718Z" transform="translate(-126.074 -168.421)" fill="#f5f5f5"/>
    <path id="Path_2358" data-name="Path 2358" d="M135.44,180.936l.384,1.059.33-1.136-.513-1.138Z" transform="translate(-125.239 -167.876)" fill="#ff735d"/>
    <path id="Path_2359" data-name="Path 2359" d="M136.553,188.08,136.3,200l1.8,3.762.71-4.232Z" transform="translate(-125.897 -174.392)" fill="#ff735d"/>
    <path id="Path_2360" data-name="Path 2360" d="M182.408,215.153v.094l-.014.089-.04-.089a2.378,2.378,0,0,1-.155-.74,1.679,1.679,0,0,1,.1-.836,7.781,7.781,0,0,1,.023.829c.019.323.07.6.087.733h-.054C182.375,215.169,182.4,215.153,182.408,215.153Z" transform="translate(-161.034 -194.007)" fill="#fafafa"/>
    <path id="Path_2361" data-name="Path 2361" d="M183.56,215.365a1.64,1.64,0,0,1-.379-.646A1.686,1.686,0,0,1,183,214a29.208,29.208,0,0,1,.56,1.365Z" transform="translate(-161.659 -194.26)" fill="#fafafa"/>
    <path id="Path_2362" data-name="Path 2362" d="M213.223,192.018a23.99,23.99,0,0,1-2.843-1.918,12.291,12.291,0,0,1,1.457.913A12.04,12.04,0,0,1,213.223,192.018Z" transform="translate(-182.627 -175.921)" fill="#fafafa"/>
    <path id="Path_2363" data-name="Path 2363" d="M97.069,202.945s-.974,6.792-.513,7.172a21.1,21.1,0,0,0,7.354,3.621c.185-.045.4-.1.649-.183a1.986,1.986,0,0,0,.6-.309,3.044,3.044,0,0,0,.614-.571.26.26,0,0,1,.482.089,2.131,2.131,0,0,1-1.068,1.276,15.457,15.457,0,0,0,2.141,2.848c.518.237,2,.9,1.747,1.028a8.459,8.459,0,0,1-2.052-.4l-3.654-.977s-12.086-1.895-11.282-7.439c.494-3.4,1.033-6.46,1.227-7.235Z" transform="translate(-92.008 -184.98)" fill="#e5baab"/>
    <path id="Path_2364" data-name="Path 2364" d="M92.985,200.52l-1.073,7.4c-.251,2.279,1.276,4.089,3.331,5.108a44.9,44.9,0,0,0,7.729,2.647c-.04-.007.314-3.3.314-3.3s-6.509-2.811-6.713-4.029.827-6.277.827-6.277Z" transform="translate(-91.885 -183.942)" fill="#e0e0e0"/>
    <path id="Path_2365" data-name="Path 2365" d="M117.83,204.62a.234.234,0,0,1,0-.059.949.949,0,0,1,.012-.171c.012-.162.028-.379.052-.658.049-.581.122-1.405.208-2.419l.026.042-3.279-1.586-.937-.468c-.316-.169-.635-.354-.951-.557a9.586,9.586,0,0,1-.923-.677c-.148-.124-.3-.255-.436-.393a.757.757,0,0,1-.187-.251.557.557,0,0,1-.054-.148.86.86,0,0,1-.033-.15,7.585,7.585,0,0,1,.234-2.3c.124-.728.248-1.438.365-2.108.234-1.344.447-2.553.625-3.574a7.647,7.647,0,0,0,.164-1.375,2.375,2.375,0,0,0-.211-1.009,1.672,1.672,0,0,0-.384-.529c-.112-.1-.18-.141-.178-.148a.984.984,0,0,1,.194.129,1.609,1.609,0,0,1,.41.527,2.4,2.4,0,0,1,.234,1.031,7.389,7.389,0,0,1-.148,1.389c-.171,1.023-.375,2.234-.6,3.581-.115.672-.234,1.38-.358,2.108-.03.183-.063.368-.1.555s-.068.37-.094.557a4.267,4.267,0,0,0-.03,1.145,1.2,1.2,0,0,0,.03.138.469.469,0,0,0,.047.129.637.637,0,0,0,.164.215c.138.136.281.265.426.386a9.369,9.369,0,0,0,.911.67c.312.2.625.386.937.555l.937.468,3.253,1.621.026.014v.028c-.105,1.014-.19,1.836-.248,2.417-.033.276-.056.5-.075.656q-.014.1-.021.169A.275.275,0,0,1,117.83,204.62Z" transform="translate(-106.753 -172.862)" fill="#fafafa"/>
    <path id="Path_2366" data-name="Path 2366" d="M134.448,249.2a2.131,2.131,0,0,1-.04.506c-.04.309-.105.735-.192,1.2s-.185.89-.265,1.192a1.894,1.894,0,0,1-.162.48,2.423,2.423,0,0,1,.077-.5q.1-.529.234-1.195A14.466,14.466,0,0,1,134.448,249.2Z" transform="translate(-123.975 -221.276)" fill="#fafafa"/>
    <path id="Path_2367" data-name="Path 2367" d="M105.784,250.254a.373.373,0,0,1-.115-.019l-.321-.077-1.171-.309c-.991-.267-2.368-.618-3.843-1.159a16.159,16.159,0,0,1-2.024-.9,10.975,10.975,0,0,1-1.522-.979,8.449,8.449,0,0,1-.913-.81c-.1-.1-.173-.185-.234-.234a.4.4,0,0,1-.07-.094s.117.11.328.3a10.445,10.445,0,0,0,.937.775,12.446,12.446,0,0,0,1.522.937,16.91,16.91,0,0,0,2.014.885c1.466.539,2.841.9,3.825,1.192l1.171.344.316.1A.43.43,0,0,1,105.784,250.254Z" transform="translate(-94.707 -218.57)" fill="#fafafa"/>
    <path id="Path_2368" data-name="Path 2368" d="M138.142,251.914a.211.211,0,1,1-.213-.2A.211.211,0,0,1,138.142,251.914Z" transform="translate(-126.985 -223.194)" fill="#fafafa"/>
  </g>
</svg>
