<svg id="confirmation_pop_up_icon" data-name="confirmation pop up icon" xmlns="http://www.w3.org/2000/svg" width="45.466" height="45.466" viewBox="0 0 45.466 45.466">
  <g id="Group_3312" data-name="Group 3312" transform="translate(15.156 16.103)">
    <g id="Group_3311" data-name="Group 3311">
      <path id="Path_5096" data-name="Path 5096" d="M145.444,136.557a1.894,1.894,0,0,0-2.679,0l-8.133,8.132-3.4-3.4a1.894,1.894,0,0,0-2.679,2.679l4.736,4.736a1.893,1.893,0,0,0,2.679,0l9.472-9.472A1.894,1.894,0,0,0,145.444,136.557Z" transform="translate(-128.002 -136.002)" fill="#00fc3b"/>
    </g>
  </g>
  <g id="Group_3314" data-name="Group 3314" transform="translate(0 0)">
    <g id="Group_3313" data-name="Group 3313" transform="translate(0 0)">
      <path id="Path_5097" data-name="Path 5097" d="M43.571,20.838a1.9,1.9,0,0,0-1.894,1.894,18.943,18.943,0,1,1-5.5-13.348,1.894,1.894,0,0,0,2.688-2.669,22.733,22.733,0,1,0,6.6,16.017A1.9,1.9,0,0,0,43.571,20.838Z" transform="translate(0 0)" fill="#00fc3b"/>
    </g>
  </g>
</svg>
