<svg xmlns="http://www.w3.org/2000/svg" width="16" height="13.919" viewBox="0 0 16 13.919">
  <path id="Crown_-_Premium" data-name="Crown - Premium" d="M1744.866-7969.082a.9.9,0,0,1-.9-.9.9.9,0,0,1,.9-.9h10.267a.9.9,0,0,1,.9.9.9.9,0,0,1-.9.9Zm5.135-3.01h-5.472l-1.421-5.143h-.042A1.066,1.066,0,0,1,1742-7978.3a1.067,1.067,0,0,1,1.067-1.066,1.066,1.066,0,0,1,1.066,1.066,1.084,1.084,0,0,1-.052.327l2.57,1.5,2.762-4.579a1.062,1.062,0,0,1-.478-.888A1.066,1.066,0,0,1,1750-7983a1.066,1.066,0,0,1,1.066,1.065,1.067,1.067,0,0,1-.478.888l2.762,4.579,2.57-1.5a1.036,1.036,0,0,1-.052-.327,1.066,1.066,0,0,1,1.066-1.066A1.066,1.066,0,0,1,1758-7978.3a1.066,1.066,0,0,1-1.066,1.065h-.042l-1.421,5.143Z" transform="translate(-1742 7983)" fill="#ff735d"/>
</svg>
