<svg xmlns="http://www.w3.org/2000/svg" width="86" height="81.84" viewBox="0 0 86 81.84">
  <g id="Data-pana" transform="translate(-42.339 -42.39)">
    <g id="freepik--background-complete--inject-2" transform="translate(47.626 48.377)">
      <circle id="Ellipse_153" data-name="Ellipse 153" cx="4.507" cy="4.507" r="4.507" transform="translate(0 0)" fill="#f0f0f0"/>
      <path id="Path_4244" data-name="Path 4244" d="M93.857,85.466a3.5,3.5,0,0,1-.592.034c-.371,0-.888.016-1.474.018H91.74v-.343c0-.653,0-1.243.016-1.671a4.88,4.88,0,0,1,.036-.693,4.663,4.663,0,0,1,.037.693c0,.428.014,1.018.014,1.671v.292l-.051-.053c.592,0,1.1,0,1.474.018A3.5,3.5,0,0,1,93.857,85.466Z" transform="translate(-87.278 -80.821)" fill="#e0e0e0"/>
      <path id="Path_4245" data-name="Path 4245" d="M91.791,76.48c.03,0,.051.17.051.379s-.022.379-.051.379-.051-.17-.051-.379A.87.87,0,0,1,91.791,76.48Z" transform="translate(-87.278 -75.74)" fill="#e0e0e0"/>
      <path id="Path_4246" data-name="Path 4246" d="M100.287,79.55c.02.02-.083.154-.227.3s-.28.249-.3.229.083-.156.229-.3S100.267,79.53,100.287,79.55Z" transform="translate(-93.712 -78.202)" fill="#e0e0e0"/>
      <path id="Path_4247" data-name="Path 4247" d="M105.931,86.185c.014.026-.124.12-.3.225s-.322.185-.339.162.107-.14.286-.249S105.919,86.159,105.931,86.185Z" transform="translate(-98.156 -83.525)" fill="#e0e0e0"/>
      <path id="Path_4248" data-name="Path 4248" d="M107.9,95.837a2.621,2.621,0,0,1-1.032,0,2.621,2.621,0,0,1,1.032,0Z" transform="translate(-99.423 -91.232)" fill="#e0e0e0"/>
      <path id="Path_4249" data-name="Path 4249" d="M71.855,95.487a1.172,1.172,0,0,1-.487.051,1.184,1.184,0,0,1-.487-.051,2.341,2.341,0,0,1,.975,0Z" transform="translate(-70.535 -90.951)" fill="#e0e0e0"/>
      <path id="Path_4250" data-name="Path 4250" d="M75.234,103.07c.018.022-.14.178-.355.351s-.395.294-.418.27.142-.18.355-.351A1.2,1.2,0,0,1,75.234,103.07Z" transform="translate(-73.407 -97.083)" fill="#e0e0e0"/>
      <path id="Path_4251" data-name="Path 4251" d="M82.617,108.745a1.589,1.589,0,0,1-.233.444c-.142.235-.258.426-.284.412a1.04,1.04,0,0,1,.2-.466C82.441,108.9,82.593,108.727,82.617,108.745Z" transform="translate(-79.541 -101.637)" fill="#e0e0e0"/>
      <path id="Path_4252" data-name="Path 4252" d="M91.767,111.872a2.621,2.621,0,0,1,0-1.032,2.62,2.62,0,0,1,0,1.032Z" transform="translate(-87.254 -103.32)" fill="#e0e0e0"/>
      <path id="Path_4253" data-name="Path 4253" d="M100.174,109.852a1.022,1.022,0,0,1-.44-.274,1.068,1.068,0,0,1-.333-.395c.024-.02.2.138.395.322S100.189,109.828,100.174,109.852Z" transform="translate(-93.427 -101.989)" fill="#e0e0e0"/>
      <path id="Path_4254" data-name="Path 4254" d="M105.992,104.265c-.02.02-.18-.109-.357-.286s-.306-.337-.284-.357.18.107.357.284S106.011,104.243,105.992,104.265Z" transform="translate(-98.201 -97.524)" fill="#e0e0e0"/>
      <path id="Path_4255" data-name="Path 4255" d="M75.853,86.393c-.02.02-.162-.091-.318-.245s-.264-.3-.245-.318.162.089.318.245S75.873,86.373,75.853,86.393Z" transform="translate(-74.073 -83.244)" fill="#e0e0e0"/>
      <path id="Path_4256" data-name="Path 4256" d="M82.423,79.54c-.02.02-.16-.087-.312-.239s-.26-.29-.241-.316.16.087.314.239S82.443,79.52,82.423,79.54Z" transform="translate(-79.355 -77.748)" fill="#e0e0e0"/>
      <path id="Path_4257" data-name="Path 4257" d="M101.387,370.833c2.707-1.579,3.562-4.852,3.706-7.846a3.258,3.258,0,0,0-.081-1.478,1.012,1.012,0,0,0-1.184-.628c-.395.144-.592.56-.819.9a2.915,2.915,0,0,1-1.259,1.02,1.092,1.092,0,0,1-1.032,0c-.41-.272-.412-.87-.367-1.365l.245-2.763a4.617,4.617,0,0,0-.03-1.484,1.541,1.541,0,0,0-.88-1.119.936.936,0,0,0-1.206.531,4.547,4.547,0,0,0-.065.616.525.525,0,0,1-.345.466.6.6,0,0,1-.525-.272,6.609,6.609,0,0,1-1.038-1.882,9.127,9.127,0,0,0-.951-1.934,2.664,2.664,0,0,0-1.733-1.168,1.613,1.613,0,0,0-1.736.959,2.413,2.413,0,0,0,.511,2.029,11.069,11.069,0,0,0,2.123,2.386.922.922,0,0,1,.351.446c.079.339-.26.641-.592.722a5.75,5.75,0,0,1-1.166.035,1.124,1.124,0,0,0-1,.5c-.245.491.136,1.056.525,1.438a9.488,9.488,0,0,0,2.66,1.843,3.212,3.212,0,0,1,1,.592c.272.28-.258,1.15-.464,1.484s0,0-.377-.1a6.608,6.608,0,0,1-1.054-.505,1.737,1.737,0,0,0-2.027.213,1.579,1.579,0,0,0-.282,1.381,3.607,3.607,0,0,0,.651,1.287,9.549,9.549,0,0,0,3.834,3.195,6.569,6.569,0,0,0,4.606.5" transform="translate(-87.495 -297.316)" fill="#f0f0f0"/>
      <path id="Path_4258" data-name="Path 4258" d="M104.7,374.493a21.825,21.825,0,0,0-.474-4.144,44.48,44.48,0,0,0-1.369-4.933l-.426-1.273c-.14-.418-.28-.833-.442-1.229a22.366,22.366,0,0,0-1.058-2.224c-.371-.693-.748-1.334-1.105-1.934s-.7-1.148-1.038-1.636a17.647,17.647,0,0,0-1.744-2.186c-.227-.241-.408-.422-.533-.545l-.144-.136-.049-.043a.374.374,0,0,0,.043.049l.136.144c.12.126.3.31.521.555a18.89,18.89,0,0,1,1.725,2.2c.332.491.671,1.042,1.026,1.642s.728,1.241,1.1,1.932a22.492,22.492,0,0,1,1.048,2.22c.16.395.3.805.438,1.223l.426,1.273a45.962,45.962,0,0,1,1.381,4.913,22.154,22.154,0,0,1,.493,4.144" transform="translate(-90.955 -298.76)" fill="#e0e0e0"/>
      <path id="Path_4259" data-name="Path 4259" d="M124.93,376.355a1.015,1.015,0,0,0,.065-.209c.038-.134.085-.332.14-.574.111-.487.241-1.166.381-1.916s.28-1.425.395-1.908c.059-.243.109-.44.144-.574a1.11,1.11,0,0,0,.045-.213,1.109,1.109,0,0,0-.081.2c-.045.132-.1.326-.17.566-.134.483-.284,1.158-.424,1.908s-.26,1.409-.355,1.92c-.043.231-.081.424-.111.58A1.067,1.067,0,0,0,124.93,376.355Z" transform="translate(-113.919 -312.189)" fill="#e0e0e0"/>
      <path id="Path_4260" data-name="Path 4260" d="M93.13,389.608a1.509,1.509,0,0,0,.253.051c.162.028.395.067.687.124.578.11,1.381.292,2.238.531s1.642.489,2.2.687c.278.1.5.182.657.239a1.347,1.347,0,0,0,.243.083,1.33,1.33,0,0,0-.231-.116c-.15-.067-.371-.162-.647-.266-.551-.213-1.326-.474-2.194-.714a22.556,22.556,0,0,0-2.253-.505c-.29-.051-.529-.081-.693-.1A1.455,1.455,0,0,0,93.13,389.608Z" transform="translate(-88.394 -327.172)" fill="#e0e0e0"/>
      <path id="Path_4261" data-name="Path 4261" d="M136.05,403.3a.429.429,0,0,0,.051-.075l.126-.221c.111-.2.262-.478.446-.829.367-.7.845-1.7,1.356-2.794s.987-2.092,1.332-2.8l.428-.845.114-.229a.531.531,0,0,0,.034-.083.793.793,0,0,0-.051.073c-.032.049-.077.134-.126.221-.111.2-.262.478-.446.829-.369.706-.845,1.7-1.358,2.794s-.977,2.092-1.33,2.8l-.418.841-.114.231A.392.392,0,0,0,136.05,403.3Z" transform="translate(-122.863 -331.838)" fill="#e0e0e0"/>
      <path id="Path_4262" data-name="Path 4262" d="M94.27,418a.317.317,0,0,0,.083.041l.239.1.882.369c.746.312,1.776.752,2.9,1.241s2.171.924,2.913,1.219c.377.148.683.264.894.341l.247.085a.389.389,0,0,0,.087.026.678.678,0,0,0-.081-.041l-.239-.1-.874-.373c-.746-.312-1.776-.754-2.9-1.243s-2.171-.922-2.913-1.218c-.375-.148-.681-.264-.894-.341l-.245-.087A.451.451,0,0,0,94.27,418Z" transform="translate(-89.309 -349.962)" fill="#e0e0e0"/>
      <rect id="Rectangle_955" data-name="Rectangle 955" width="1.208" height="8.572" transform="translate(70.636 67.083)" fill="#e0e0e0"/>
      <rect id="Rectangle_956" data-name="Rectangle 956" width="1.208" height="8.572" transform="translate(66.314 67.083)" fill="#e0e0e0"/>
      <rect id="Rectangle_957" data-name="Rectangle 957" width="1.208" height="8.572" transform="translate(55.491 67.083)" fill="#e0e0e0"/>
      <rect id="Rectangle_958" data-name="Rectangle 958" width="1.208" height="8.572" transform="translate(51.781 67.083)" fill="#e0e0e0"/>
      <path id="Path_4263" data-name="Path 4263" d="M329.957,337.2s-3.3-.953-4.284.422-1.093,14.626-1.093,14.626,6.386.116,6.512,0S329.957,337.2,329.957,337.2Z" transform="translate(-274.245 -284.849)" fill="#ebebeb"/>
      <path id="Path_4264" data-name="Path 4264" d="M370.118,286.976l-.292-25.149a3.772,3.772,0,0,0-2.731-3.66c-1.354-.768-14.263-1.255-15.324,1.721s0,26.391,0,26.391Z" transform="translate(-295.717 -221.2)" fill="#ebebeb"/>
      <path id="Path_4265" data-name="Path 4265" d="M352.934,382.571s-3.252-4.8-7.072-4.953-12.057,0-12.057,0-3.651.138-3.905,4.659v2.662h23.034Z" transform="translate(-278.541 -317.493)" fill="#ebebeb"/>
      <path id="Path_4266" data-name="Path 4266" d="M415.125,336.512s-5.472-1.417-6.46.446-1.164,14.691-1.164,14.691,7.893.29,7.919-.041S415.125,336.512,415.125,336.512Z" transform="translate(-340.828 -284.14)" fill="#f0f0f0"/>
      <path id="Path_4267" data-name="Path 4267" d="M423.847,337.051s-3.613-.93-4.6.446S418,352.312,418,352.312s5.766.17,5.884.055S423.847,337.051,423.847,337.051Z" transform="translate(-349.256 -284.74)" fill="#e0e0e0"/>
      <path id="Path_4268" data-name="Path 4268" d="M384.044,274.4a.321.321,0,0,1,0-.063c0-.047-.01-.111-.018-.187-.012-.172-.03-.412-.053-.72-.041-.632-.1-1.535-.176-2.65s-.156-2.453-.249-3.929c-.045-.74-.095-1.517-.144-2.323a10.87,10.87,0,0,0-.3-2.461,2.923,2.923,0,0,0-.592-1.089,4.255,4.255,0,0,0-.917-.789,5.973,5.973,0,0,0-2.131-.845,7.128,7.128,0,0,0-1.071-.1l-1.02-.039c-.657-.022-1.271-.034-1.831-.038-1.121,0-2.026.014-2.652.049-.314.018-.556.036-.72.051l-.187.016h-.063a.247.247,0,0,1,.063-.012l.185-.026c.164-.024.406-.047.718-.071.626-.047,1.533-.083,2.656-.083.56,0,1.184,0,1.835.026l1.02.034a7.394,7.394,0,0,1,1.085.1,6.048,6.048,0,0,1,2.171.852,4.34,4.34,0,0,1,.939.811,2.977,2.977,0,0,1,.606,1.125,11.487,11.487,0,0,1,.3,2.484c.059.8.093,1.579.138,2.323.085,1.478.162,2.81.227,3.931s.109,2.019.144,2.652c.014.308.026.549.033.72v.2A.2.2,0,0,1,384.044,274.4Z" transform="translate(-312.269 -222.373)" fill="#e0e0e0"/>
      <path id="Path_4269" data-name="Path 4269" d="M430.638,281.509a1.434,1.434,0,0,1-.44.107,1.45,1.45,0,0,1-.448.063A1.31,1.31,0,0,1,430.638,281.509Z" transform="translate(-358.688 -240.348)" fill="#e0e0e0"/>
      <path id="Path_4270" data-name="Path 4270" d="M431.46,284.034a2.75,2.75,0,0,1-.651-.03,3.052,3.052,0,0,1-.649-.079A2.763,2.763,0,0,1,431.46,284.034Z" transform="translate(-359.017 -242.275)" fill="#e0e0e0"/>
      <path id="Path_4271" data-name="Path 4271" d="M432.106,307.066c0,.03-.174.042-.381.03s-.377-.045-.375-.073.172-.042.381-.03S432.106,307.038,432.106,307.066Z" transform="translate(-359.972 -260.82)" fill="#e0e0e0"/>
      <path id="Path_4272" data-name="Path 4272" d="M404.713,298.649a.6.6,0,0,0-.3.264.475.475,0,0,0-.026.395.446.446,0,0,0,.789-.012.474.474,0,0,0-.039-.395.612.612,0,0,0-.3-.247.214.214,0,0,1,.114.012.5.5,0,0,1,.245.2.54.54,0,0,1,.065.466.533.533,0,0,1-.965.016.543.543,0,0,1,.051-.468.483.483,0,0,1,.239-.2C404.671,298.639,404.713,298.645,404.713,298.649Z" transform="translate(-338.238 -254.122)" fill="#e0e0e0"/>
      <path id="Path_4273" data-name="Path 4273" d="M400.435,295.056a.735.735,0,0,1-.337.085,1.959,1.959,0,0,1-.846-.1,1.935,1.935,0,0,1-.714-.448.771.771,0,0,1-.207-.278c.014-.012.1.091.256.225a2.3,2.3,0,0,0,.7.4,2.254,2.254,0,0,0,.789.13A2.924,2.924,0,0,1,400.435,295.056Z" transform="translate(-333.468 -250.645)" fill="#e0e0e0"/>
      <path id="Path_4274" data-name="Path 4274" d="M402.031,305.852a1.38,1.38,0,0,1-.114-.379,2.25,2.25,0,0,1-.024-.963,1.184,1.184,0,0,1,.57-.771.55.55,0,0,1,.395-.071,1.577,1.577,0,0,0-.359.134,1.194,1.194,0,0,0-.507.732,2.589,2.589,0,0,0,0,.926A1.7,1.7,0,0,1,402.031,305.852Z" transform="translate(-336.295 -258.147)" fill="#e0e0e0"/>
      <path id="Path_4275" data-name="Path 4275" d="M410.1,303.246a.544.544,0,0,1-.278-.077,1.4,1.4,0,0,1-.525-.458,1.381,1.381,0,0,1-.239-.653.567.567,0,0,1,.026-.288,1.649,1.649,0,0,1,.045.278,1.6,1.6,0,0,0,.253.6,1.578,1.578,0,0,0,.476.452C410,303.2,410.1,303.228,410.1,303.246Z" transform="translate(-342.072 -256.631)" fill="#e0e0e0"/>
      <path id="Path_4276" data-name="Path 4276" d="M373.873,298.633a.592.592,0,0,0-.288.257.476.476,0,0,0-.028.395.446.446,0,0,0,.789-.012.482.482,0,0,0-.039-.395.6.6,0,0,0-.3-.247.173.173,0,0,1,.114.012.488.488,0,0,1,.245.2.513.513,0,1,1-.847.014.48.48,0,0,1,.237-.2A.18.18,0,0,1,373.873,298.633Z" transform="translate(-313.489 -254.106)" fill="#e0e0e0"/>
      <path id="Path_4277" data-name="Path 4277" d="M369.594,295.024a.737.737,0,0,1-.337.085,1.959,1.959,0,0,1-.835-.107,1.918,1.918,0,0,1-.714-.448.772.772,0,0,1-.207-.278c.014-.012.1.091.256.225a2.3,2.3,0,0,0,.7.4,2.254,2.254,0,0,0,.789.13A2.888,2.888,0,0,1,369.594,295.024Z" transform="translate(-308.703 -250.613)" fill="#e0e0e0"/>
      <path id="Path_4278" data-name="Path 4278" d="M371.166,305.851a1.306,1.306,0,0,1-.114-.379,2.245,2.245,0,0,1-.026-.963,1.184,1.184,0,0,1,.572-.771.547.547,0,0,1,.395-.071,1.59,1.59,0,0,0-.357.134,1.184,1.184,0,0,0-.507.732,2.591,2.591,0,0,0,0,.926A1.79,1.79,0,0,1,371.166,305.851Z" transform="translate(-311.501 -258.146)" fill="#e0e0e0"/>
      <path id="Path_4279" data-name="Path 4279" d="M379.227,303.246a.541.541,0,0,1-.276-.077,1.407,1.407,0,0,1-.766-1.111.531.531,0,0,1,.028-.288,1.625,1.625,0,0,1,.045.278,1.593,1.593,0,0,0,.251.6,1.613,1.613,0,0,0,.476.452C379.128,303.2,379.233,303.228,379.227,303.246Z" transform="translate(-317.291 -256.631)" fill="#e0e0e0"/>
      <path id="Path_4280" data-name="Path 4280" d="M351.739,336.39a2.309,2.309,0,0,1,0,.324c0,.225-.01.519-.018.876-.016.74-.039,1.762-.053,2.893s-.018,2.145-.018,2.893v.876a1.844,1.844,0,0,1-.014.324,1.854,1.854,0,0,1-.026-.322c-.01-.207-.02-.507-.028-.878-.018-.74-.026-1.764-.012-2.895s.049-2.153.083-2.893c.018-.371.036-.671.051-.876A1.724,1.724,0,0,1,351.739,336.39Z" transform="translate(-295.906 -284.434)" fill="#e0e0e0"/>
      <path id="Path_4281" data-name="Path 4281" d="M344.246,377.5h-3.1l-3.355-.016-1.973-.014c-.687,0-1.4,0-2.119.057a8.574,8.574,0,0,0-2.07.395,5.549,5.549,0,0,0-1.719.925,4.123,4.123,0,0,0-.643.643,3.357,3.357,0,0,0-.255.355c-.079.12-.15.243-.215.365a5.422,5.422,0,0,0-.517,1.454,8.017,8.017,0,0,0-.112,2.242c.022.264.045.472.063.61l.018.16v.053a.167.167,0,0,0-.014-.053,1.161,1.161,0,0,1-.03-.156c-.024-.138-.053-.345-.081-.61a7.782,7.782,0,0,1,.081-2.259,5.384,5.384,0,0,1,.513-1.48,3.977,3.977,0,0,1,.217-.373,3.725,3.725,0,0,1,.257-.365,4.3,4.3,0,0,1,.653-.661,5.668,5.668,0,0,1,1.748-.945,8.6,8.6,0,0,1,2.092-.41c.73-.061,1.442-.059,2.129-.055l1.973.02,3.355.037,2.259.034.614.014h.16Z" transform="translate(-277.081 -317.343)" fill="#e0e0e0"/>
    </g>
    <g id="freepik--Floor--inject-2" transform="translate(48.746 123.98)">
      <path id="Path_4282" data-name="Path 4282" d="M147.149,456.391c0,.03-16.194.051-36.168.051s-36.17-.022-36.17-.051,16.19-.051,36.17-.051S147.149,456.364,147.149,456.391Z" transform="translate(-74.81 -456.34)" fill="#263238"/>
    </g>
    <g id="freepik--Charts--inject-2" transform="translate(42.339 42.39)">
      <path id="Path_4283" data-name="Path 4283" d="M163.89,266.911c0,.03-1.287.051-2.875.051s-2.875-.022-2.875-.051,1.287-.051,2.875-.051S163.89,266.888,163.89,266.911Z" transform="translate(-135.317 -222.566)" fill="#263238"/>
      <path id="Path_4284" data-name="Path 4284" d="M163.786,270.663c0,.028-1.263.051-2.824.051s-2.822-.024-2.822-.051,1.263-.053,2.822-.053S163.786,270.634,163.786,270.663Z" transform="translate(-135.317 -225.576)" fill="#263238"/>
      <path id="Path_4285" data-name="Path 4285" d="M163.786,274.421c0,.028-1.263.051-2.824.051s-2.822-.024-2.822-.051,1.263-.051,2.822-.051S163.786,274.392,163.786,274.421Z" transform="translate(-135.317 -228.594)" fill="#263238"/>
      <path id="Path_4286" data-name="Path 4286" d="M163.786,278.171c0,.028-1.263.051-2.824.051s-2.822-.024-2.822-.051,1.263-.051,2.822-.051S163.786,278.142,163.786,278.171Z" transform="translate(-135.317 -231.604)" fill="#263238"/>
      <path id="Path_4287" data-name="Path 4287" d="M163.786,281.921c0,.028-1.263.051-2.824.051s-2.822-.024-2.822-.051,1.263-.051,2.822-.051S163.786,281.9,163.786,281.921Z" transform="translate(-135.317 -234.614)" fill="#263238"/>
      <path id="Path_4288" data-name="Path 4288" d="M160.853,285.643a18.633,18.633,0,0,1-2.763,0,18.611,18.611,0,0,1,2.763,0Z" transform="translate(-135.276 -237.596)" fill="#263238"/>
      <path id="Path_4289" data-name="Path 4289" d="M162.431,262.791c0,.03-.987.051-2.19.051s-2.19-.022-2.19-.051.987-.051,2.19-.051S162.431,262.768,162.431,262.791Z" transform="translate(-135.244 -219.259)" fill="#ff735d"/>
      <path id="Path_4290" data-name="Path 4290" d="M157.9,261.084v-.606c0-.395,0-.965-.012-1.691,0-1.454-.012-3.526-.022-6.018l.043.043h-9.089l.049-.049h0v8.321l-.045-.045,6.569.024,1.857.012h.02l-1.847.012-6.6.024h-.045v-8.367h0l.053-.053h9.134v.043c0,2.5-.016,4.586-.022,6.046,0,.722,0,1.288-.012,1.681v.44A.516.516,0,0,1,157.9,261.084Z" transform="translate(-127.803 -211.192)" fill="#263238"/>
      <path id="Path_4291" data-name="Path 4291" d="M157.5,117.117l4.369-.028a5.565,5.565,0,0,0-1.4-3.605,5.172,5.172,0,0,0-4.525-1.738c-.209.024-.42.057-.635.1h-.016l1.184,5.265Z" transform="translate(-133.029 -98.03)" fill="#ff735d"/>
      <path id="Path_4292" data-name="Path 4292" d="M158.888,146.858a5.184,5.184,0,0,0,2.974-4.248c0-.055.012-.111.016-.168a.937.937,0,0,0,0-.107c0-.1,0-.209.01-.316V142h0l-4.371.03H156.49l-1.15,5.267h0a5.309,5.309,0,0,0,1.135.116A5.665,5.665,0,0,0,158.888,146.858Z" transform="translate(-133.069 -122.344)" fill="#455a64"/>
      <path id="Path_4293" data-name="Path 4293" d="M136.572,119.135l-1.184-5.265a5.4,5.4,0,0,0,.035,10.539l1.148-5.267" transform="translate(-113.666 -99.765)" fill="#263238"/>
      <rect id="Rectangle_959" data-name="Rectangle 959" width="1.182" height="8.925" transform="translate(9.898 42.609)" fill="#ff735d"/>
      <rect id="Rectangle_960" data-name="Rectangle 960" width="1.182" height="5.17" transform="translate(8.077 46.364)" fill="#455a64"/>
      <rect id="Rectangle_961" data-name="Rectangle 961" width="1.182" height="5.975" transform="translate(6.255 45.559)" fill="#ff735d"/>
      <rect id="Rectangle_962" data-name="Rectangle 962" width="1.182" height="2.409" transform="translate(4.432 49.125)" fill="#455a64"/>
      <rect id="Rectangle_963" data-name="Rectangle 963" width="1.182" height="10.875" transform="translate(13.543 40.659)" fill="#ff735d"/>
      <rect id="Rectangle_964" data-name="Rectangle 964" width="1.182" height="9.882" transform="translate(11.721 41.652)" fill="#455a64"/>
      <rect id="Rectangle_965" data-name="Rectangle 965" width="1.182" height="11.952" transform="translate(17.168 39.582)" fill="#ff735d"/>
      <rect id="Rectangle_966" data-name="Rectangle 966" width="1.182" height="14.312" transform="translate(15.364 37.222)" fill="#455a64"/>
      <path id="Path_4294" data-name="Path 4294" d="M66.386,309.012a2.692,2.692,0,0,1-1.046,0,3.033,3.033,0,0,1,1.046,0Z" transform="translate(-60.801 -256.357)" fill="#263238"/>
      <path id="Path_4295" data-name="Path 4295" d="M75.486,308.994a1.382,1.382,0,0,1-.523.051,1.4,1.4,0,0,1-.523-.051,2.689,2.689,0,0,1,1.046,0Z" transform="translate(-68.106 -256.34)" fill="#263238"/>
      <path id="Path_4296" data-name="Path 4296" d="M84.6,309.012a1.4,1.4,0,0,1-.523.051,1.383,1.383,0,0,1-.523-.051,3.033,3.033,0,0,1,1.046,0Z" transform="translate(-75.418 -256.357)" fill="#263238"/>
      <path id="Path_4297" data-name="Path 4297" d="M93.746,309.009a1.4,1.4,0,0,1-.523.051,1.38,1.38,0,0,1-.523-.051,3.036,3.036,0,0,1,1.046,0Z" transform="translate(-82.762 -256.355)" fill="#263238"/>
      <path id="Path_4298" data-name="Path 4298" d="M102.8,308.995a2.692,2.692,0,0,1-1.046,0,2.689,2.689,0,0,1,1.046,0Z" transform="translate(-90.027 -256.34)" fill="#263238"/>
      <path id="Path_4299" data-name="Path 4299" d="M111.9,308.995a2.692,2.692,0,0,1-1.046,0,2.689,2.689,0,0,1,1.046,0Z" transform="translate(-97.331 -256.34)" fill="#263238"/>
      <path id="Path_4300" data-name="Path 4300" d="M121,308.994a1.382,1.382,0,0,1-.523.051,1.4,1.4,0,0,1-.523-.051,2.689,2.689,0,0,1,1.046,0Z" transform="translate(-104.635 -256.34)" fill="#263238"/>
      <path id="Path_4301" data-name="Path 4301" d="M130.1,308.994a2.68,2.68,0,0,1-1.044,0,2.679,2.679,0,0,1,1.044,0Z" transform="translate(-111.967 -256.34)" fill="#263238"/>
      <path id="Path_4302" data-name="Path 4302" d="M114.206,314.351c0,.028-1.283.051-2.867.051s-2.869-.024-2.869-.051,1.285-.051,2.869-.051S114.206,314.322,114.206,314.351Z" transform="translate(-95.436 -260.645)" fill="#263238"/>
      <path id="Path_4303" data-name="Path 4303" d="M112.013,317.384a9.9,9.9,0,0,1-2.013,0,9.891,9.891,0,0,1,2.013,0Z" transform="translate(-96.649 -263.073)" fill="#263238"/>
      <path id="Path_4304" data-name="Path 4304" d="M117.671,227.72a.289.289,0,0,1,.164.032.647.647,0,0,1,.367.645.56.56,0,0,1-.162.337.7.7,0,0,1-.8.142.728.728,0,0,1-.351-.738.653.653,0,0,1,.156-.339.721.721,0,0,1,.264-.185.738.738,0,0,1,.452-.039c.107.028.156.063.152.069s-.057-.016-.158-.03a.744.744,0,0,0-.416.067.6.6,0,0,0-.357.47.645.645,0,0,0,.306.635.614.614,0,0,0,.689-.116.513.513,0,0,0,.111-.564.616.616,0,0,0-.266-.318C117.728,227.738,117.669,227.73,117.671,227.72Z" transform="translate(-102.169 -191.017)" fill="#263238"/>
      <path id="Path_4305" data-name="Path 4305" d="M121.247,145.847a.319.319,0,0,1-.069,0h-.2l-.789.012.026-.024c.016,1.4.026,4.185.026,7.388,0,2.33,0,4.438-.014,5.975,0,.758-.014,1.381-.018,1.809v.493a.891.891,0,0,1,0,.172,1.163,1.163,0,0,1-.01-.172v-.493c0-.436,0-1.052-.016-1.809,0-1.537,0-3.645-.016-5.975,0-3.2.012-5.989.028-7.388v-.026h.024l.789.012h.2Z" transform="translate(-104.812 -125.402)" fill="#263238"/>
      <path id="Path_4306" data-name="Path 4306" d="M58.522,193.711c0,.028-1.289.051-2.877.051s-2.875-.024-2.875-.051,1.287-.051,2.875-.051S58.522,193.684,58.522,193.711Z" transform="translate(-50.712 -163.81)" fill="#263238"/>
      <path id="Path_4307" data-name="Path 4307" d="M58.417,197.461c0,.03-1.265.051-2.824.051s-2.824-.022-2.824-.051,1.263-.051,2.824-.051S58.417,197.434,58.417,197.461Z" transform="translate(-50.712 -166.82)" fill="#263238"/>
      <path id="Path_4308" data-name="Path 4308" d="M58.417,201.211c0,.03-1.265.051-2.824.051s-2.824-.022-2.824-.051,1.263-.051,2.824-.051S58.417,201.184,58.417,201.211Z" transform="translate(-50.712 -169.83)" fill="#263238"/>
      <path id="Path_4309" data-name="Path 4309" d="M58.417,204.961c0,.03-1.265.051-2.824.051s-2.824-.022-2.824-.051,1.263-.051,2.824-.051S58.417,204.928,58.417,204.961Z" transform="translate(-50.712 -172.84)" fill="#263238"/>
      <path id="Path_4310" data-name="Path 4310" d="M58.417,208.711c0,.03-1.265.051-2.824.051s-2.824-.022-2.824-.051,1.263-.051,2.824-.051S58.417,208.684,58.417,208.711Z" transform="translate(-50.712 -175.85)" fill="#263238"/>
      <path id="Path_4311" data-name="Path 4311" d="M55.493,212.436a9.088,9.088,0,0,1-1.381.051,9.072,9.072,0,0,1-1.381-.051,9.394,9.394,0,0,1,1.381-.051A9.411,9.411,0,0,1,55.493,212.436Z" transform="translate(-50.68 -178.835)" fill="#263238"/>
      <path id="Path_4312" data-name="Path 4312" d="M57.061,189.611c0,.028-.987.051-2.19.051s-2.19-.024-2.19-.051.987-.051,2.19-.051S57.061,189.584,57.061,189.611Z" transform="translate(-50.639 -160.519)" fill="#ff735d"/>
      <path id="Path_4313" data-name="Path 4313" d="M51.487,187.393v-.606c0-.395,0-.965-.012-1.691,0-1.454-.014-3.526-.022-6.018l.043.043H42.406c-.012.012.1-.1.051-.049h0v8.321l-.045-.045,6.569.022,1.857.012h.018l-1.845.012-6.6.024h-.061V179.05h0c-.047.045.061-.065.051-.053h9.134v.043c0,2.5-.018,4.584-.022,6.046,0,.722,0,1.289-.012,1.681v.44A1.075,1.075,0,0,1,51.487,187.393Z" transform="translate(-42.339 -152.04)" fill="#263238"/>
      <path id="Path_4314" data-name="Path 4314" d="M74.666,225.707a26.673,26.673,0,0,1,0-3.307,26.669,26.669,0,0,1,0,3.307Z" transform="translate(-68.241 -186.879)" fill="#263238"/>
      <path id="Path_4315" data-name="Path 4315" d="M74.338,235.34a3.224,3.224,0,0,0-.2.817v.17l-.085-.12a1.579,1.579,0,0,1-.326-.789c.028-.01.144.347.41.722l-.095.028v-.024A1.213,1.213,0,0,1,74.338,235.34Z" transform="translate(-67.536 -197.266)" fill="#263238"/>
      <path id="Path_4316" data-name="Path 4316" d="M361.121,118.522c-.028,0-.051-.132-.051-.3s.024-.3.051-.3.051.132.051.3S361.149,118.522,361.121,118.522Z" transform="translate(-298.247 -103.024)" fill="#263238"/>
      <path id="Path_4317" data-name="Path 4317" d="M361.121,124.524c-.028,0-.051-.132-.051-.3s.024-.3.051-.3.051.134.051.3S361.149,124.524,361.121,124.524Z" transform="translate(-298.247 -107.84)" fill="#263238"/>
      <path id="Path_4318" data-name="Path 4318" d="M361.121,130.532c-.028,0-.051-.132-.051-.3s.024-.3.051-.3.051.132.051.3S361.149,130.532,361.121,130.532Z" transform="translate(-298.247 -112.664)" fill="#263238"/>
      <path id="Path_4319" data-name="Path 4319" d="M361.121,136.53c-.028,0-.051-.132-.051-.294s.024-.3.051-.3.051.132.051.3S361.149,136.53,361.121,136.53Z" transform="translate(-298.247 -117.48)" fill="#263238"/>
      <path id="Path_4320" data-name="Path 4320" d="M361.121,142.522c-.028,0-.051-.132-.051-.3s.024-.3.051-.3.051.132.051.3S361.149,142.522,361.121,142.522Z" transform="translate(-298.247 -122.288)" fill="#263238"/>
      <path id="Path_4321" data-name="Path 4321" d="M361.121,148.512c-.028,0-.051-.132-.051-.3s.024-.3.051-.3.051.132.051.3S361.149,148.512,361.121,148.512Z" transform="translate(-298.247 -127.096)" fill="#263238"/>
      <path id="Path_4322" data-name="Path 4322" d="M361.121,154.512c-.028,0-.051-.134-.051-.3s.024-.3.051-.3.051.132.051.3S361.149,154.512,361.121,154.512Z" transform="translate(-298.247 -131.912)" fill="#263238"/>
      <path id="Path_4323" data-name="Path 4323" d="M361.121,160.5c-.028,0-.051-.132-.051-.3s.024-.3.051-.3.051.132.051.3S361.149,160.5,361.121,160.5Z" transform="translate(-298.247 -136.72)" fill="#263238"/>
      <rect id="Rectangle_967" data-name="Rectangle 967" width="31.679" height="13.466" rx="3.96" transform="translate(38.638 0)" fill="#455a64"/>
      <path id="Path_4324" data-name="Path 4324" d="M272.606,59.545a3.433,3.433,0,0,0-2.79-2l-.111-.012h-.3l-.016,2.893V61.1l3.475.787h0a3.386,3.386,0,0,0,.087-.748A3.773,3.773,0,0,0,272.606,59.545Z" transform="translate(-224.64 -54.542)" fill="#fafafa"/>
      <path id="Path_4325" data-name="Path 4325" d="M252.1,63.1v-.639l.016-2.893a3.69,3.69,0,0,0-2.4.9,3.42,3.42,0,0,0-1.184,2.982c.012.124.032.251.055.379h-.026a3.679,3.679,0,0,0,3.451,2.83,3.722,3.722,0,0,0,3.526-2.763Z" transform="translate(-207.881 -56.18)" fill="#e0e0e0"/>
      <path id="Path_4326" data-name="Path 4326" d="M304.644,64.971c0,.028-1.4.051-3.116.051s-3.118-.024-3.118-.051,1.4-.051,3.118-.051S304.644,64.936,304.644,64.971Z" transform="translate(-247.942 -60.474)" fill="#263238"/>
      <path id="Path_4327" data-name="Path 4327" d="M304.644,71.041c0,.028-1.4.051-3.116.051s-3.118-.024-3.118-.051,1.4-.051,3.118-.051S304.644,71.012,304.644,71.041Z" transform="translate(-247.942 -65.346)" fill="#263238"/>
      <path id="Path_4328" data-name="Path 4328" d="M304.644,77.111c0,.028-1.4.051-3.116.051s-3.118-.024-3.118-.051,1.4-.051,3.118-.051S304.644,77.084,304.644,77.111Z" transform="translate(-247.942 -70.219)" fill="#263238"/>
      <path id="Path_4329" data-name="Path 4329" d="M304.644,83.181c0,.028-1.4.051-3.116.051s-3.118-.024-3.118-.051,1.4-.051,3.118-.051S304.644,83.154,304.644,83.181Z" transform="translate(-247.942 -75.091)" fill="#263238"/>
      <path id="Path_4330" data-name="Path 4330" d="M302.033,89.791a2.913,2.913,0,0,1-.535.036c-.329,0-.789.016-1.29.016s-.963,0-1.293-.016a2.913,2.913,0,0,1-.535-.036,2.786,2.786,0,0,1,.535-.037c.33,0,.789-.014,1.293-.014s.961,0,1.29.014A2.785,2.785,0,0,1,302.033,89.791Z" transform="translate(-247.916 -80.397)" fill="#263238"/>
      <path id="Path_4331" data-name="Path 4331" d="M349.671,58.989a.4.4,0,0,1,.134-.071,1.144,1.144,0,0,1,.414-.077,1.2,1.2,0,0,1,.142,0l.075.012h.01a.515.515,0,0,1,.03.047h0v.057c-.024.1-.045.211-.071.324-.051.233-.109.485-.168.752v.039H348.98v-.037a1.23,1.23,0,0,1,.128-.531,1.088,1.088,0,0,1,.26-.333,1.023,1.023,0,0,1,.229-.15c.057-.026.089-.036.091-.032a1.763,1.763,0,0,0-.282.223,1.141,1.141,0,0,0-.333.823l-.045-.047h1.141l-.049.039.178-.748c.028-.112.055-.221.081-.324V58.9h0s.055.089.028.047h-.01l-.069-.014a1.044,1.044,0,0,0-.132-.016A1.916,1.916,0,0,0,349.671,58.989Z" transform="translate(-288.541 -55.593)" fill="#e0e0e0"/>
      <path id="Path_4332" data-name="Path 4332" d="M350.964,61.227H349.81a1.222,1.222,0,0,0,.3.789,1.121,1.121,0,0,0,.975.395l.122-.018h0a1.2,1.2,0,0,0,.925-1.127,1.218,1.218,0,0,0-.9-1.166Z" transform="translate(-289.209 -56.605)" fill="#fafafa"/>
      <path id="Path_4333" data-name="Path 4333" d="M349.823,80.616a1.121,1.121,0,0,0-.653.912v.126h1.15l.262-1.137h0a1.12,1.12,0,0,0-.245-.028A1.213,1.213,0,0,0,349.823,80.616Z" transform="translate(-288.694 -72.972)" fill="#fafafa"/>
      <path id="Path_4334" data-name="Path 4334" d="M350.868,82.578a2.766,2.766,0,0,1,.055-.316c.043-.211.1-.485.17-.817V81.41h.037a1.272,1.272,0,0,1,.912,1.5,1.239,1.239,0,0,1-.436.624,1.468,1.468,0,0,1-.474.251l-.051.014-.012-.053h0l.059.039a1.263,1.263,0,0,1-.6-.03,1.184,1.184,0,0,1-.479-.294,1.245,1.245,0,0,1-.357-.88v-.045h.038l.845.02a2.416,2.416,0,0,1,.308.024,1.7,1.7,0,0,1-.31.018l-.845.012.037-.036a1.184,1.184,0,0,0,.349.813,1.091,1.091,0,0,0,1,.288h.049l.01.049h0l-.063-.039a1.35,1.35,0,0,0,.454-.229,1.138,1.138,0,0,0,.395-.57,1.1,1.1,0,0,0-.042-.649,1.131,1.131,0,0,0-.789-.746l.043-.028c-.087.353-.16.637-.211.829A1.835,1.835,0,0,1,350.868,82.578Z" transform="translate(-289.112 -73.71)" fill="#e0e0e0"/>
      <path id="Path_4335" data-name="Path 4335" d="M371.477,83.966a37.965,37.965,0,0,1-3.947,0,36.575,36.575,0,0,1,3.947,0Z" transform="translate(-303.438 -75.714)" fill="#263238"/>
      <path id="Path_4336" data-name="Path 4336" d="M369.5,86.672a9.532,9.532,0,0,1-1.973,0A9.532,9.532,0,0,1,369.5,86.672Z" transform="translate(-303.436 -77.893)" fill="#263238"/>
      <path id="Path_4337" data-name="Path 4337" d="M371.477,62.456a36.57,36.57,0,0,1-3.947,0,37.977,37.977,0,0,1,3.947,0Z" transform="translate(-303.438 -58.451)" fill="#263238"/>
      <path id="Path_4338" data-name="Path 4338" d="M369.5,65.162a9.53,9.53,0,0,1-1.973,0A9.531,9.531,0,0,1,369.5,65.162Z" transform="translate(-303.436 -60.627)" fill="#263238"/>
      <path id="Path_4339" data-name="Path 4339" d="M339.661,58.112c-.03,0-.051-2.368-.051-5.306s.022-5.306.051-5.306.051,2.368.051,5.306S339.687,58.112,339.661,58.112Z" transform="translate(-281.017 -46.492)" fill="#263238"/>
      <rect id="Rectangle_968" data-name="Rectangle 968" width="1.223" height="11.038" transform="translate(56.97 24.812)" fill="#ff735d"/>
      <rect id="Rectangle_969" data-name="Rectangle 969" width="1.223" height="7.289" transform="translate(59.327 28.561)" fill="#ff735d"/>
      <rect id="Rectangle_970" data-name="Rectangle 970" width="1.223" height="9.722" transform="translate(61.684 26.185)" fill="#ff735d"/>
      <rect id="Rectangle_971" data-name="Rectangle 971" width="1.223" height="10.612" transform="translate(64.044 25.238)" fill="#ff735d"/>
      <rect id="Rectangle_972" data-name="Rectangle 972" width="1.223" height="7.064" transform="translate(66.401 28.786)" fill="#ff735d"/>
      <rect id="Rectangle_973" data-name="Rectangle 973" width="1.223" height="5.679" transform="translate(68.758 30.171)" fill="#ff735d"/>
      <rect id="Rectangle_974" data-name="Rectangle 974" width="1.223" height="9.906" transform="translate(71.1 25.945)" fill="#ff735d"/>
      <rect id="Rectangle_975" data-name="Rectangle 975" width="1.223" height="8.12" transform="translate(73.46 27.73)" fill="#ff735d"/>
      <rect id="Rectangle_976" data-name="Rectangle 976" width="1.223" height="9.547" transform="translate(75.822 26.304)" fill="#ff735d"/>
      <rect id="Rectangle_977" data-name="Rectangle 977" width="1.223" height="6.504" transform="translate(78.182 29.346)" fill="#ff735d"/>
      <rect id="Rectangle_978" data-name="Rectangle 978" width="1.223" height="7.741" transform="translate(80.542 28.109)" fill="#ff735d"/>
      <path id="Path_4340" data-name="Path 4340" d="M358.186,180.094h-.075l-.213-.034a3.407,3.407,0,0,0-.349-.045l-.223-.024-.255-.01a6.6,6.6,0,0,0-1.31.071,7.245,7.245,0,0,0-1.671.454,6.908,6.908,0,0,0-1.806,1.068,9.509,9.509,0,0,0-1.614,1.79,11.5,11.5,0,0,1-1.762,2.031,4.469,4.469,0,0,1-1.225.738,2.924,2.924,0,0,1-1.458.18,3.415,3.415,0,0,1-1.381-.521,5.878,5.878,0,0,1-1.091-.922,18.686,18.686,0,0,1-1.61-2.155,7.925,7.925,0,0,0-1.608-1.79,4.235,4.235,0,0,0-.943-.537,4.439,4.439,0,0,0-.971-.26,4.667,4.667,0,0,0-2.938.547,4.538,4.538,0,0,0-.675.483l-.16.144c-.036.034-.055.049-.057.047a.337.337,0,0,1,.049-.055l.154-.152a4.268,4.268,0,0,1,.667-.5,4.661,4.661,0,0,1,2.96-.592,4.472,4.472,0,0,1,.987.26,4.174,4.174,0,0,1,.967.543,7.931,7.931,0,0,1,1.634,1.8,19.168,19.168,0,0,0,1.606,2.141,5.8,5.8,0,0,0,1.081.9,3.355,3.355,0,0,0,1.334.507,2.853,2.853,0,0,0,1.411-.174,4.3,4.3,0,0,0,1.2-.722,11.476,11.476,0,0,0,1.752-2.009c.256-.341.513-.673.789-.987.134-.15.27-.3.416-.434l.213-.2c.073-.065.15-.124.223-.186a6.922,6.922,0,0,1,1.831-1.068,7.179,7.179,0,0,1,1.691-.444,6.708,6.708,0,0,1,1.32-.055l.256.016.223.03a3.109,3.109,0,0,1,.349.055l.213.043Z" transform="translate(-277.179 -152.778)" fill="#263238"/>
      <path id="Path_4341" data-name="Path 4341" d="M324.351,170.81c-.028,0-.051-3.147-.051-7.029s.024-7.031.051-7.031.051,3.147.051,7.031S324.379,170.81,324.351,170.81Z" transform="translate(-268.725 -134.184)" fill="#263238"/>
      <path id="Path_4342" data-name="Path 4342" d="M354.353,227.791c0,.028-5.8.051-12.951.051s-12.953-.024-12.953-.051,5.8-.051,12.953-.051S354.353,227.758,354.353,227.791Z" transform="translate(-272.091 -191.165)" fill="#263238"/>
      <path id="Path_4343" data-name="Path 4343" d="M332.835,232.161a8.054,8.054,0,0,1-1.815,0A8.057,8.057,0,0,1,332.835,232.161Z" transform="translate(-274.122 -194.673)" fill="#263238"/>
      <path id="Path_4344" data-name="Path 4344" d="M346.641,232.391a11.487,11.487,0,0,1-2.171,0A11.482,11.482,0,0,1,346.641,232.391Z" transform="translate(-284.921 -194.857)" fill="#263238"/>
      <path id="Path_4345" data-name="Path 4345" d="M359.651,232.391a11.487,11.487,0,0,1-2.171,0A11.482,11.482,0,0,1,359.651,232.391Z" transform="translate(-295.367 -194.857)" fill="#263238"/>
      <path id="Path_4346" data-name="Path 4346" d="M372.661,232.391a11.486,11.486,0,0,1-2.171,0A11.481,11.481,0,0,1,372.661,232.391Z" transform="translate(-305.812 -194.857)" fill="#263238"/>
      <path id="Path_4347" data-name="Path 4347" d="M385.671,232.391a11.486,11.486,0,0,1-2.171,0A11.481,11.481,0,0,1,385.671,232.391Z" transform="translate(-316.258 -194.857)" fill="#263238"/>
      <path id="Path_4348" data-name="Path 4348" d="M398.681,232.391a11.488,11.488,0,0,1-2.171,0A11.483,11.483,0,0,1,398.681,232.391Z" transform="translate(-326.72 -194.857)" fill="#263238"/>
      <path id="Path_4349" data-name="Path 4349" d="M411.691,232.391a11.487,11.487,0,0,1-2.171,0A11.482,11.482,0,0,1,411.691,232.391Z" transform="translate(-337.163 -194.857)" fill="#263238"/>
      <path id="Path_4350" data-name="Path 4350" d="M424.7,232.391a11.508,11.508,0,0,1-2.171,0A11.5,11.5,0,0,1,424.7,232.391Z" transform="translate(-347.606 -194.858)" fill="#263238"/>
      <path id="Path_4351" data-name="Path 4351" d="M437.7,232.391a11.486,11.486,0,0,1-2.171,0A11.481,11.481,0,0,1,437.7,232.391Z" transform="translate(-358.041 -194.857)" fill="#263238"/>
      <path id="Path_4352" data-name="Path 4352" d="M450.711,232.391a11.487,11.487,0,0,1-2.171,0,11.483,11.483,0,0,1,2.171,0Z" transform="translate(-368.483 -194.857)" fill="#263238"/>
      <path id="Path_4353" data-name="Path 4353" d="M372.293,194.535c0-.012.1,0,.146.144a.261.261,0,0,1-.047.237.256.256,0,1,1-.306-.395c.132-.061.215,0,.2.016s-.079-.014-.168.047a.2.2,0,0,0-.087.14.164.164,0,0,0,.1.152.16.16,0,0,0,.182-.024.2.2,0,0,0,.047-.158C372.356,194.595,372.283,194.549,372.293,194.535Z" transform="translate(-306.975 -164.481)" fill="#263238"/>
      <path id="Path_4354" data-name="Path 4354" d="M432.307,181.129a.092.092,0,0,1,.069,0,.274.274,0,0,1,.162.1.282.282,0,0,1,.043.286.327.327,0,0,1-.3.2.306.306,0,0,1-.28-.221.292.292,0,0,1,.059-.284c.12-.122.235-.1.231-.093a.5.5,0,0,0-.176.138.225.225,0,0,0-.024.209.215.215,0,0,0,.2.148.243.243,0,0,0,.211-.13.209.209,0,0,0-.018-.2C432.406,181.151,432.3,181.145,432.307,181.129Z" transform="translate(-355.197 -153.738)" fill="#263238"/>
      <ellipse id="Ellipse_154" data-name="Ellipse 154" cx="0.051" cy="0.148" rx="0.051" ry="0.148" transform="translate(77.251 21.941)" fill="#263238"/>
      <path id="Path_4355" data-name="Path 4355" d="M434.371,158.981c-.028,0-.051-.144-.051-.322s.024-.32.051-.32.051.144.051.32S434.4,158.981,434.371,158.981Z" transform="translate(-357.069 -135.46)" fill="#263238"/>
      <path id="Path_4356" data-name="Path 4356" d="M434.371,165.491c-.028,0-.051-.144-.051-.322s.024-.32.051-.32.051.142.051.32S434.4,165.491,434.371,165.491Z" transform="translate(-357.069 -140.685)" fill="#263238"/>
      <path id="Path_4357" data-name="Path 4357" d="M434.371,171.993c-.028,0-.051-.144-.051-.322s.024-.322.051-.322.051.144.051.322S434.4,171.993,434.371,171.993Z" transform="translate(-357.069 -145.903)" fill="#263238"/>
      <path id="Path_4358" data-name="Path 4358" d="M434.371,178.156c-.028,0-.051-.065-.051-.148s.024-.148.051-.148.051.067.051.148S434.4,178.156,434.371,178.156Z" transform="translate(-357.069 -151.128)" fill="#263238"/>
      <path id="Path_4359" data-name="Path 4359" d="M442.219,144.551c0,.028-2,.051-4.479.051s-4.479-.024-4.479-.051,2.007-.051,4.479-.051S442.219,144.524,442.219,144.551Z" transform="translate(-356.219 -124.351)" fill="#263238"/>
      <path id="Path_4360" data-name="Path 4360" d="M439.714,139.411c0,.028-1.29.051-2.883.051s-2.881-.024-2.881-.051,1.291-.051,2.881-.051S439.714,139.384,439.714,139.411Z" transform="translate(-356.772 -120.225)" fill="#263238"/>
      <path id="Path_4361" data-name="Path 4361" d="M165.381,109.13c.028,0,.051.067.051.148s-.024.148-.051.148-.051-.067-.051-.148S165.352,109.13,165.381,109.13Z" transform="translate(-141.088 -95.96)" fill="#263238"/>
      <path id="Path_4362" data-name="Path 4362" d="M165.381,103.34c.028,0,.051.128.051.286s-.024.284-.051.284-.051-.126-.051-.284S165.352,103.34,165.381,103.34Z" transform="translate(-141.088 -91.313)" fill="#263238"/>
      <path id="Path_4363" data-name="Path 4363" d="M165.381,97.55c.028,0,.051.126.051.284s-.024.286-.051.286-.051-.128-.051-.286S165.352,97.55,165.381,97.55Z" transform="translate(-141.088 -86.665)" fill="#263238"/>
      <path id="Path_4364" data-name="Path 4364" d="M165.381,91.76c.028,0,.051.128.051.286s-.024.284-.051.284-.051-.126-.051-.284S165.352,91.76,165.381,91.76Z" transform="translate(-141.088 -82.018)" fill="#263238"/>
      <ellipse id="Ellipse_155" data-name="Ellipse 155" cx="0.051" cy="0.286" rx="0.051" ry="0.286" transform="translate(24.242 8.6)" fill="#263238"/>
      <path id="Path_4365" data-name="Path 4365" d="M165.381,80.19c.028,0,.051.128.051.286s-.024.284-.051.284-.051-.128-.051-.284S165.352,80.19,165.381,80.19Z" transform="translate(-141.088 -72.731)" fill="#263238"/>
      <path id="Path_4366" data-name="Path 4366" d="M165.381,75.79c.028,0,.051.065.051.148s-.024.148-.051.148-.051-.067-.051-.148S165.352,75.79,165.381,75.79Z" transform="translate(-141.088 -69.199)" fill="#263238"/>
      <path id="Path_4367" data-name="Path 4367" d="M165.886,74.171c0,.028-.067.051-.148.051s-.148-.024-.148-.051.065-.051.148-.051S165.886,74.144,165.886,74.171Z" transform="translate(-141.297 -67.859)" fill="#263238"/>
      <path id="Path_4368" data-name="Path 4368" d="M170.778,74.171c0,.028-.136.051-.3.051s-.3-.024-.3-.051.136-.051.3-.051S170.778,74.144,170.778,74.171Z" transform="translate(-144.974 -67.859)" fill="#263238"/>
      <path id="Path_4369" data-name="Path 4369" d="M176.938,74.171c0,.028-.136.051-.3.051s-.3-.024-.3-.051.136-.051.3-.051S176.938,74.144,176.938,74.171Z" transform="translate(-149.92 -67.859)" fill="#263238"/>
      <path id="Path_4370" data-name="Path 4370" d="M183.1,74.171c0,.028-.136.051-.3.051s-.3-.024-.3-.051.136-.051.3-.051S183.1,74.144,183.1,74.171Z" transform="translate(-154.866 -67.859)" fill="#263238"/>
      <path id="Path_4371" data-name="Path 4371" d="M189.256,74.171c0,.028-.136.051-.3.051s-.3-.024-.3-.051.134-.051.3-.051S189.256,74.144,189.256,74.171Z" transform="translate(-159.812 -67.859)" fill="#263238"/>
      <path id="Path_4372" data-name="Path 4372" d="M195.406,74.171c0,.028-.136.051-.3.051s-.3-.024-.3-.051.134-.051.3-.051S195.406,74.144,195.406,74.171Z" transform="translate(-164.75 -67.859)" fill="#263238"/>
      <path id="Path_4373" data-name="Path 4373" d="M201.536,74.171c0,.028-.136.051-.3.051s-.3-.024-.3-.051.136-.051.3-.051S201.536,74.144,201.536,74.171Z" transform="translate(-169.672 -67.859)" fill="#263238"/>
      <path id="Path_4374" data-name="Path 4374" d="M207.708,74.171c0,.028-.136.051-.3.051s-.3-.024-.3-.051.136-.051.3-.051S207.708,74.144,207.708,74.171Z" transform="translate(-174.625 -67.859)" fill="#263238"/>
      <path id="Path_4375" data-name="Path 4375" d="M213.858,74.171c0,.028-.136.051-.3.051s-.3-.024-.3-.051.136-.051.3-.051S213.858,74.144,213.858,74.171Z" transform="translate(-179.563 -67.859)" fill="#263238"/>
      <path id="Path_4376" data-name="Path 4376" d="M220.016,74.171c0,.028-.134.051-.3.051s-.3-.024-.3-.051.136-.051.3-.051S220.016,74.144,220.016,74.171Z" transform="translate(-184.509 -67.859)" fill="#263238"/>
      <path id="Path_4377" data-name="Path 4377" d="M226.168,74.171c0,.028-.136.051-.3.051s-.3-.024-.3-.051.136-.051.3-.051S226.168,74.144,226.168,74.171Z" transform="translate(-189.447 -67.859)" fill="#263238"/>
      <path id="Path_4378" data-name="Path 4378" d="M232.046,74.171c0,.028-.065.051-.148.051s-.148-.024-.148-.051.067-.051.148-.051S232.046,74.144,232.046,74.171Z" transform="translate(-194.417 -67.859)" fill="#263238"/>
    </g>
    <g id="freepik--speech-bubble--inject-2" transform="translate(86.183 59.719)">
      <path id="Path_4379" data-name="Path 4379" d="M273.169,130.32h-7.593a.764.764,0,0,0-.766.766v4.454a.766.766,0,0,0,.766.766h1.216v1.825l1.636-1.825h4.736a.766.766,0,0,0,.766-.766v-4.454A.764.764,0,0,0,273.169,130.32Z" transform="translate(-264.81 -130.32)" fill="#263238"/>
      <path id="Path_4380" data-name="Path 4380" d="M280.735,144.708a.316.316,0,1,1-.092-.224A.318.318,0,0,1,280.735,144.708Z" transform="translate(-277.083 -141.614)" fill="#fafafa"/>
      <path id="Path_4381" data-name="Path 4381" d="M287.045,144.708a.318.318,0,1,1-.316-.318A.318.318,0,0,1,287.045,144.708Z" transform="translate(-282.148 -141.614)" fill="#fafafa"/>
      <path id="Path_4382" data-name="Path 4382" d="M293.165,144.708a.318.318,0,1,1-.318-.318A.318.318,0,0,1,293.165,144.708Z" transform="translate(-287.06 -141.614)" fill="#fafafa"/>
    </g>
    <g id="freepik--Character--inject-2" transform="translate(67.414 60.22)">
      <path id="Path_4383" data-name="Path 4383" d="M220.545,146.794c-.373-.093-.312-1.119-.351-1.433a1.027,1.027,0,0,1,.037-.568.775.775,0,0,1,.61-.379c.247-.038.5-.014.746-.049.5-.071.941-.379,1.44-.424a1.417,1.417,0,0,1,1.117.409,2.778,2.778,0,0,0,.515.517,2.845,2.845,0,0,0,.62.185,1.415,1.415,0,0,1,.987,1.162,3.946,3.946,0,0,1-.069.949,1.45,1.45,0,0,0,.134.927c.172.282.5.446.657.736a.789.789,0,0,1-.805,1.166c-.093-.014-.2-.039-.272.02a.379.379,0,0,0-.085.221.6.6,0,0,1-1.184-.215" transform="translate(-210.198 -141.821)" fill="#263238"/>
      <path id="Path_4384" data-name="Path 4384" d="M225.083,156.895l-3.268-.26c-.02-.381,0-1.857,0-1.857a1.641,1.641,0,0,1-1.381-1.579c-.022-1.367.219-4.481.219-4.481h0a4.736,4.736,0,0,1,4.748.592l.2.154Z" transform="translate(-210.409 -145.351)" fill="#ffbe9d"/>
      <path id="Path_4385" data-name="Path 4385" d="M221.83,160.121a.2.2,0,1,0-.278-.014A.2.2,0,0,0,221.83,160.121Z" transform="translate(-211.266 -154.537)" fill="#263238"/>
      <path id="Path_4386" data-name="Path 4386" d="M221.49,159.8c.022.024.154-.079.341-.081s.324.1.343.073-.01-.053-.069-.1a.45.45,0,0,0-.274-.087.466.466,0,0,0-.274.093C221.5,159.75,221.48,159.793,221.49,159.8Z" transform="translate(-211.256 -154.402)" fill="#263238"/>
      <path id="Path_4387" data-name="Path 4387" d="M231.887,160.811a.2.2,0,1,0,.27.063A.2.2,0,0,0,231.887,160.811Z" transform="translate(-219.528 -155.343)" fill="#263238"/>
      <path id="Path_4388" data-name="Path 4388" d="M231.79,160.641c.022.024.156-.079.343-.079s.322.095.343.071-.012-.053-.071-.1a.458.458,0,0,0-.274-.085.438.438,0,0,0-.272.093C231.8,160.588,231.78,160.631,231.79,160.641Z" transform="translate(-219.523 -155.076)" fill="#263238"/>
      <path id="Path_4389" data-name="Path 4389" d="M226.036,162.628a.931.931,0,0,0-.3-.063c-.049,0-.089-.018-.093-.043a.288.288,0,0,1,.036-.14c.049-.124.1-.249.148-.381a5.179,5.179,0,0,0,.322-1,5.1,5.1,0,0,0-.42.963c-.049.132-.095.259-.14.383a.312.312,0,0,0-.028.2.128.128,0,0,0,.085.079.346.346,0,0,0,.083.012A.958.958,0,0,0,226.036,162.628Z" transform="translate(-214.518 -155.518)" fill="#263238"/>
      <path id="Path_4390" data-name="Path 4390" d="M227.348,170.214a3.642,3.642,0,0,1-.918.266.517.517,0,0,0,.61.2C227.446,170.537,227.348,170.214,227.348,170.214Z" transform="translate(-215.223 -162.896)" fill="#fafafa"/>
      <path id="Path_4391" data-name="Path 4391" d="M227.44,178.843a3.171,3.171,0,0,0,1.776-.5,1.675,1.675,0,0,1-1.776.854Z" transform="translate(-216.033 -169.436)" fill="#eb996e"/>
      <path id="Path_4392" data-name="Path 4392" d="M245.583,161.016c.028-.016.965-.32,1.085.833s-1.081.892-1.087.858S245.583,161.016,245.583,161.016Z" transform="translate(-230.593 -155.493)" fill="#ffbe9d"/>
      <path id="Path_4393" data-name="Path 4393" d="M247.166,163.745a.306.306,0,0,0,.055.024.2.2,0,0,0,.152-.014.5.5,0,0,0,.182-.468.667.667,0,0,0-.085-.282.233.233,0,0,0-.168-.138.1.1,0,0,0-.112.067.086.086,0,0,0,0,.059s-.028-.018-.024-.065a.146.146,0,0,1,.038-.077.154.154,0,0,1,.108-.041.292.292,0,0,1,.229.156.7.7,0,0,1,.1.314.523.523,0,0,1-.241.529.213.213,0,0,1-.185-.012C247.17,163.773,247.162,163.747,247.166,163.745Z" transform="translate(-231.867 -156.971)" fill="#eb996e"/>
      <path id="Path_4394" data-name="Path 4394" d="M220.729,146.993a1.624,1.624,0,0,0,1.381.748,5.3,5.3,0,0,0,1.608-.284c.286-.079.635-.14.845.069a.789.789,0,0,1,.18.478,5.2,5.2,0,0,1,.016,1.148,1.276,1.276,0,0,0,0,.458.383.383,0,0,0,.308.3c.241.02.395-.251.468-.478a4.559,4.559,0,0,0,.266-.963,1.5,1.5,0,0,0-.176-.965,1.991,1.991,0,0,0-.88-.683,5.21,5.21,0,0,0-2.171-.57,2.877,2.877,0,0,0-2.064.789" transform="translate(-210.471 -143.682)" fill="#263238"/>
      <path id="Path_4395" data-name="Path 4395" d="M210.3,445.167l-.01-1.815,3.4-.041.043,2.654-.211.016a40.07,40.07,0,0,1-5.4.075C207.415,445.852,210.3,445.167,210.3,445.167Z" transform="translate(-200.436 -382.121)" fill="#ff735d"/>
      <path id="Path_4396" data-name="Path 4396" d="M230.75,452.679a1.184,1.184,0,0,1,.426-.73,1.143,1.143,0,0,1,.789-.256l.012.951Z" transform="translate(-218.69 -388.847)" fill="#ff735d"/>
      <path id="Path_4397" data-name="Path 4397" d="M208.854,454.67s-1.008.3-.88.47a32.541,32.541,0,0,0,5.722-.057v-.075l-4.527.1S209.052,454.676,208.854,454.67Z" transform="translate(-200.4 -391.239)" fill="#ff735d"/>
      <path id="Path_4398" data-name="Path 4398" d="M213.778,456.36h-.059l-.168.012-.618.036c-.521.026-1.241.051-2.038.061s-1.517,0-2.04,0l-.618-.018h2.658c.8,0,1.515-.032,2.038-.049l.618-.022h.168Z" transform="translate(-200.437 -392.596)" fill="#263238"/>
      <path id="Path_4399" data-name="Path 4399" d="M212.643,454.987a1.363,1.363,0,0,0-.118-.292,1.392,1.392,0,0,0-.215-.235.446.446,0,0,1,.249.213A.452.452,0,0,1,212.643,454.987Z" transform="translate(-203.889 -391.071)" fill="#263238"/>
      <path id="Path_4400" data-name="Path 4400" d="M218.337,453.349a.417.417,0,0,1-.109-.128c-.049-.077-.085-.146-.075-.152s.059.051.109.128S218.347,453.343,218.337,453.349Z" transform="translate(-208.578 -389.953)" fill="#263238"/>
      <path id="Path_4401" data-name="Path 4401" d="M219.6,452.963a.554.554,0,0,1-.12-.079c-.059-.051-.1-.1-.093-.11s.061.028.12.079S219.607,452.953,219.6,452.963Z" transform="translate(-209.568 -389.716)" fill="#263238"/>
      <path id="Path_4402" data-name="Path 4402" d="M219.9,452.019a.407.407,0,0,1-.178.024.368.368,0,0,1-.178-.016.806.806,0,0,1,.355-.008Z" transform="translate(-209.692 -389.096)" fill="#263238"/>
      <path id="Path_4403" data-name="Path 4403" d="M220.015,451a.345.345,0,0,1-.2.059.339.339,0,0,1-.2-.024,1.2,1.2,0,0,1,.2-.018A1.08,1.08,0,0,1,220.015,451Z" transform="translate(-209.756 -388.293)" fill="#263238"/>
      <path id="Path_4404" data-name="Path 4404" d="M215.873,451.775a.644.644,0,0,1-.219,0,1.188,1.188,0,0,1-.233-.047.679.679,0,0,1-.134-.053.12.12,0,0,1-.055-.067.089.089,0,0,1,.032-.089.4.4,0,0,1,.5.112.378.378,0,0,1,.073.144c.01.038.01.059,0,.059a.612.612,0,0,0-.1-.185.4.4,0,0,0-.2-.118.337.337,0,0,0-.258.02c-.036.028-.022.067.018.091a.624.624,0,0,0,.124.049,1.641,1.641,0,0,0,.225.057A1.349,1.349,0,0,0,215.873,451.775Z" transform="translate(-206.232 -388.674)" fill="#263238"/>
      <path id="Path_4405" data-name="Path 4405" d="M218.083,451.324a.243.243,0,0,1-.028-.15.381.381,0,0,1,.057-.162.221.221,0,0,1,.182-.112.089.089,0,0,1,.069.1.236.236,0,0,1-.038.1.64.64,0,0,1-.1.134c-.067.067-.122.095-.124.089s.043-.039.1-.109a.85.85,0,0,0,.091-.132c.03-.047.047-.13,0-.138s-.11.049-.144.093a.367.367,0,0,0-.059.144.844.844,0,0,0-.008.146Z" transform="translate(-208.5 -388.213)" fill="#263238"/>
      <path id="Path_4406" data-name="Path 4406" d="M231.96,451.567s-.1,0-.253.012a1.081,1.081,0,0,0-.545.233,1.094,1.094,0,0,0-.335.487c-.049.146-.053.245-.061.243s0-.024,0-.067a.975.975,0,0,1,.036-.184,1.034,1.034,0,0,1,.906-.742.952.952,0,0,1,.2,0C231.936,451.557,231.96,451.563,231.96,451.567Z" transform="translate(-218.7 -388.73)" fill="#263238"/>
      <path id="Path_4407" data-name="Path 4407" d="M234.951,444.51a12.38,12.38,0,0,1,.035,1.4,5.692,5.692,0,0,1-.039-.7A6.16,6.16,0,0,1,234.951,444.51Z" transform="translate(-222.053 -383.084)" fill="#263238"/>
      <path id="Path_4408" data-name="Path 4408" d="M224.523,455.042a1.873,1.873,0,0,1-.5.055,1.806,1.806,0,0,1-.5-.034c0-.012.223,0,.5,0S224.523,455.032,224.523,455.042Z" transform="translate(-212.895 -391.536)" fill="#263238"/>
      <path id="Path_4409" data-name="Path 4409" d="M231.549,455a.707.707,0,0,1-.039.1c-.022.051-.034.1-.045.1s-.018-.053,0-.112A.128.128,0,0,1,231.549,455Z" transform="translate(-219.255 -391.504)" fill="#263238"/>
      <path id="Path_4410" data-name="Path 4410" d="M232.667,453.393a.229.229,0,0,1-.047.081c-.034.036-.069.059-.079.051s.014-.043.049-.081S232.659,453.385,232.667,453.393Z" transform="translate(-220.126 -390.213)" fill="#263238"/>
      <path id="Path_4411" data-name="Path 4411" d="M234.214,452.58c0,.012-.047.012-.1.03s-.085.045-.095.037.02-.055.081-.077S234.214,452.568,234.214,452.58Z" transform="translate(-221.315 -389.546)" fill="#263238"/>
      <path id="Path_4412" data-name="Path 4412" d="M235.879,452.27c0,.01-.014.028-.041.039s-.055.012-.059,0,.016-.03.043-.039S235.875,452.26,235.879,452.27Z" transform="translate(-222.726 -389.307)" fill="#263238"/>
      <path id="Path_4413" data-name="Path 4413" d="M292.187,440.977l-.554-1.727-3.242,1.014.789,2.538.2-.051a39.908,39.908,0,0,0,5.156-1.6C295.137,440.726,292.187,440.977,292.187,440.977Z" transform="translate(-264.956 -378.862)" fill="#ff735d"/>
      <path id="Path_4414" data-name="Path 4414" d="M292.322,452.606a1.184,1.184,0,0,0-.629-.562,1.154,1.154,0,0,0-.833,0l.284.908Z" transform="translate(-266.939 -389.069)" fill="#ff735d"/>
      <path id="Path_4415" data-name="Path 4415" d="M296.755,447.606s1.052-.026.987.172a32.223,32.223,0,0,1-5.454,1.723l-.018-.075,4.341-1.312S296.57,447.683,296.755,447.606Z" transform="translate(-268.071 -385.568)" fill="#ff735d"/>
      <path id="Path_4416" data-name="Path 4416" d="M292,449.965a.249.249,0,0,0,.057,0l.164-.041.592-.158c.5-.138,1.2-.337,1.958-.574s1.444-.468,1.938-.641l.582-.207.156-.061.055-.022a.285.285,0,0,0-.057.014l-.16.053-.592.2c-.5.166-1.184.395-1.94.629s-1.452.44-1.954.592l-.592.172-.162.047Z" transform="translate(-267.854 -386.094)" fill="#263238"/>
      <path id="Path_4417" data-name="Path 4417" d="M314.15,447.974a1.407,1.407,0,0,1,.022-.316,1.358,1.358,0,0,1,.132-.288A.547.547,0,0,0,314.15,447.974Z" transform="translate(-285.605 -385.38)" fill="#263238"/>
      <path id="Path_4418" data-name="Path 4418" d="M308.665,448.173a.363.363,0,0,0,.063-.156c.024-.089.036-.166.024-.168s-.039.067-.063.156A.4.4,0,0,0,308.665,448.173Z" transform="translate(-281.23 -385.765)" fill="#263238"/>
      <path id="Path_4419" data-name="Path 4419" d="M307.111,448.2a.3.3,0,0,0,.091-.112c.039-.069.065-.126.055-.132s-.051.043-.091.112S307.1,448.2,307.111,448.2Z" transform="translate(-279.982 -385.851)" fill="#263238"/>
      <path id="Path_4420" data-name="Path 4420" d="M305.79,447.492a.371.371,0,0,0,.178-.032.393.393,0,0,0,.164-.071.428.428,0,0,0-.176.032A.459.459,0,0,0,305.79,447.492Z" transform="translate(-278.923 -385.395)" fill="#263238"/>
      <path id="Path_4421" data-name="Path 4421" d="M305.16,446.557a.363.363,0,0,0,.2,0,.347.347,0,0,0,.186-.087.985.985,0,0,0-.2.045A1.108,1.108,0,0,0,305.16,446.557Z" transform="translate(-278.417 -384.657)" fill="#263238"/>
      <path id="Path_4422" data-name="Path 4422" d="M308.78,446.106a.613.613,0,0,0,.209-.067,1.134,1.134,0,0,0,.2-.118.573.573,0,0,0,.111-.091.113.113,0,0,0,.032-.081.081.081,0,0,0-.057-.073.395.395,0,0,0-.462.418.123.123,0,0,0,.012.059.593.593,0,0,1,.039-.207.4.4,0,0,1,.142-.172.331.331,0,0,1,.253-.061c.042.014.042.057,0,.091a.606.606,0,0,1-.1.087,1.456,1.456,0,0,1-.2.122C308.857,446.074,308.778,446.1,308.78,446.106Z" transform="translate(-281.323 -384.015)" fill="#263238"/>
      <path id="Path_4423" data-name="Path 4423" d="M307.569,446.447a.211.211,0,0,0-.022-.152.342.342,0,0,0-.1-.136.221.221,0,0,0-.2-.051.087.087,0,0,0-.035.116.252.252,0,0,0,.065.083.665.665,0,0,0,.138.095.323.323,0,0,0,.146.047s-.053-.026-.132-.073a.652.652,0,0,1-.126-.1c-.041-.034-.087-.107-.038-.132a.2.2,0,0,1,.166.045.341.341,0,0,1,.1.116A.751.751,0,0,1,307.569,446.447Z" transform="translate(-280.055 -384.362)" fill="#263238"/>
      <path id="Path_4424" data-name="Path 4424" d="M290.93,451.8a1.392,1.392,0,0,1,.243-.067,1.071,1.071,0,0,1,1.062.412c.093.124.126.215.134.213a.2.2,0,0,0-.022-.067,1.023,1.023,0,0,0-.089-.164,1.067,1.067,0,0,0-.48-.381,1.05,1.05,0,0,0-.612-.041.974.974,0,0,0-.178.059A.243.243,0,0,0,290.93,451.8Z" transform="translate(-266.995 -388.84)" fill="#263238"/>
      <path id="Path_4425" data-name="Path 4425" d="M290.5,444.93a5.763,5.763,0,0,0,.18.675,6.284,6.284,0,0,0,.219.663,5.551,5.551,0,0,0-.18-.675,6.1,6.1,0,0,0-.219-.663Z" transform="translate(-266.65 -383.421)" fill="#263238"/>
      <path id="Path_4426" data-name="Path 4426" d="M299.84,451.831a1.815,1.815,0,0,0,.487-.1,1.947,1.947,0,0,0,.464-.185c0-.012-.213.067-.476.146A3.811,3.811,0,0,0,299.84,451.831Z" transform="translate(-274.147 -388.73)" fill="#263238"/>
      <path id="Path_4427" data-name="Path 4427" d="M296.62,453.976s.03.039.067.081.063.081.073.077,0-.057-.041-.1S296.624,453.958,296.62,453.976Z" transform="translate(-271.562 -390.677)" fill="#263238"/>
      <path id="Path_4428" data-name="Path 4428" d="M294.93,452.816c0,.01.026.037.071.061s.083.036.089.026-.026-.037-.071-.061S294.944,452.806,294.93,452.816Z" transform="translate(-270.206 -389.748)" fill="#263238"/>
      <path id="Path_4429" data-name="Path 4429" d="M292.993,452.5c0,.01.047,0,.1,0s.095.016.1,0-.034-.045-.1-.047S292.981,452.487,292.993,452.5Z" transform="translate(-268.649 -389.457)" fill="#263238"/>
      <path id="Path_4430" data-name="Path 4430" d="M291.64,452.677c0,.01.022.022.053.024s.055,0,.055-.018-.024-.022-.053-.024S291.64,452.665,291.64,452.677Z" transform="translate(-267.565 -389.624)" fill="#263238"/>
      <path id="Path_4431" data-name="Path 4431" d="M207.89,270.1l1.586,35.252,5.292.112-.88-29.514,9.592,29.865,4.325-1.184L218.155,270.1" transform="translate(-200.341 -243.09)" fill="#263238"/>
      <path id="Path_4432" data-name="Path 4432" d="M285.75,443.45l.247.476,4.584-1.336-.278-.77Z" transform="translate(-262.837 -380.925)" fill="#455a64"/>
      <path id="Path_4433" data-name="Path 4433" d="M306.058,440.925c.028-.01.067.047.091.126s.022.148,0,.156-.069-.047-.093-.126S306.03,440.939,306.058,440.925Z" transform="translate(-279.121 -380.206)" fill="#455a64"/>
      <path id="Path_4434" data-name="Path 4434" d="M304.343,435.12c.028,0,.087.114.134.272s.065.292.037.3-.087-.114-.136-.272S304.315,435.13,304.343,435.12Z" transform="translate(-277.75 -375.547)" fill="#455a64"/>
      <path id="Path_4435" data-name="Path 4435" d="M302.607,429.32c.028,0,.087.114.134.272s.065.292.037.3-.087-.112-.134-.27S302.579,429.33,302.607,429.32Z" transform="translate(-276.357 -370.891)" fill="#455a64"/>
      <path id="Path_4436" data-name="Path 4436" d="M300.867,423.52c.028,0,.087.114.134.272s.065.292.038.3-.087-.112-.134-.27S300.839,423.528,300.867,423.52Z" transform="translate(-274.961 -366.236)" fill="#455a64"/>
      <path id="Path_4437" data-name="Path 4437" d="M299.112,417.72c.028,0,.087.114.134.272s.065.292.037.3-.087-.112-.134-.27S299.077,417.728,299.112,417.72Z" transform="translate(-273.55 -361.58)" fill="#455a64"/>
      <path id="Path_4438" data-name="Path 4438" d="M297.387,411.92c.028,0,.089.114.136.272s.063.292.036.3-.087-.112-.134-.27S297.359,411.936,297.387,411.92Z" transform="translate(-272.167 -356.925)" fill="#455a64"/>
      <path id="Path_4439" data-name="Path 4439" d="M295.647,406.12c.028,0,.089.114.136.272s.063.292.035.3-.087-.112-.134-.27S295.619,406.128,295.647,406.12Z" transform="translate(-270.771 -352.269)" fill="#455a64"/>
      <path id="Path_4440" data-name="Path 4440" d="M293.932,400.32c.028,0,.089.112.136.27s.063.294.036.3-.087-.112-.134-.272S293.9,400.328,293.932,400.32Z" transform="translate(-269.392 -347.614)" fill="#455a64"/>
      <path id="Path_4441" data-name="Path 4441" d="M292.167,394.52c.028,0,.089.113.136.27s.063.294.036.3-.087-.114-.134-.272S292.139,394.528,292.167,394.52Z" transform="translate(-267.977 -342.958)" fill="#455a64"/>
      <path id="Path_4442" data-name="Path 4442" d="M290.427,388.72c.028,0,.089.113.136.27s.063.294.036.3-.087-.114-.134-.272S290.4,388.728,290.427,388.72Z" transform="translate(-266.581 -338.303)" fill="#455a64"/>
      <path id="Path_4443" data-name="Path 4443" d="M288.69,382.92c.028,0,.089.112.136.27s.063.294.035.3-.087-.115-.134-.272S288.665,382.936,288.69,382.92Z" transform="translate(-265.188 -333.647)" fill="#455a64"/>
      <path id="Path_4444" data-name="Path 4444" d="M286.95,377.118c.028-.01.089.112.136.27s.063.294.036.3-.087-.115-.134-.272S286.925,377.126,286.95,377.118Z" transform="translate(-263.791 -328.989)" fill="#455a64"/>
      <path id="Path_4445" data-name="Path 4445" d="M285.21,371.318c.028-.01.089.112.136.27s.063.292.036.3-.087-.114-.134-.272S285.185,371.326,285.21,371.318Z" transform="translate(-262.394 -324.334)" fill="#455a64"/>
      <path id="Path_4446" data-name="Path 4446" d="M283.47,365.51c.028,0,.089.114.136.272s.063.292.036.3-.087-.112-.134-.27S283.445,365.52,283.47,365.51Z" transform="translate(-260.998 -319.673)" fill="#455a64"/>
      <path id="Path_4447" data-name="Path 4447" d="M281.73,359.71c.028,0,.089.114.136.272s.063.292.036.3-.087-.112-.134-.27S281.7,359.718,281.73,359.71Z" transform="translate(-259.601 -315.017)" fill="#455a64"/>
      <path id="Path_4448" data-name="Path 4448" d="M279.995,353.91c.026,0,.087.114.134.272s.063.292.036.3-.087-.112-.134-.27S279.967,353.928,279.995,353.91Z" transform="translate(-258.207 -310.362)" fill="#455a64"/>
      <path id="Path_4449" data-name="Path 4449" d="M278.255,348.11c.026,0,.087.115.134.272s.063.292.038.3-.089-.112-.136-.27S278.227,348.118,278.255,348.11Z" transform="translate(-256.81 -305.706)" fill="#455a64"/>
      <path id="Path_4450" data-name="Path 4450" d="M276.515,342.31c.026,0,.087.114.134.272s.063.292.038.3-.089-.112-.136-.27S276.487,342.318,276.515,342.31Z" transform="translate(-255.413 -301.051)" fill="#455a64"/>
      <path id="Path_4451" data-name="Path 4451" d="M274.775,336.51c.026,0,.087.112.134.272s.063.292.037.3-.089-.112-.136-.272S274.747,336.518,274.775,336.51Z" transform="translate(-254.017 -296.395)" fill="#455a64"/>
      <path id="Path_4452" data-name="Path 4452" d="M273.053,330.71c.026,0,.087.112.134.27s.063.294.038.3-.089-.114-.136-.272A.561.561,0,0,1,273.053,330.71Z" transform="translate(-252.638 -291.74)" fill="#455a64"/>
      <path id="Path_4453" data-name="Path 4453" d="M271.295,324.91c.026,0,.087.112.134.27s.063.294.037.3-.089-.114-.136-.272S271.267,324.928,271.295,324.91Z" transform="translate(-251.223 -287.084)" fill="#455a64"/>
      <path id="Path_4454" data-name="Path 4454" d="M269.555,319.11c.028,0,.087.112.134.27s.065.294.038.3-.089-.114-.136-.272S269.527,319.118,269.555,319.11Z" transform="translate(-249.827 -282.429)" fill="#455a64"/>
      <path id="Path_4455" data-name="Path 4455" d="M267.815,313.308c.028-.01.087.112.134.27s.065.294.038.3-.089-.114-.136-.272S267.787,313.316,267.815,313.308Z" transform="translate(-248.43 -277.771)" fill="#455a64"/>
      <path id="Path_4456" data-name="Path 4456" d="M266.078,307.508c.028-.01.087.112.134.27s.065.292.038.3-.089-.114-.136-.272S266.053,307.516,266.078,307.508Z" transform="translate(-247.037 -273.115)" fill="#455a64"/>
      <path id="Path_4457" data-name="Path 4457" d="M264.335,301.7c.028,0,.087.115.134.272s.065.292.038.3-.089-.112-.136-.27S264.307,301.71,264.335,301.7Z" transform="translate(-245.637 -268.454)" fill="#455a64"/>
      <path id="Path_4458" data-name="Path 4458" d="M262.595,295.9c.028,0,.087.114.134.272s.065.292.037.3-.089-.112-.136-.27S262.567,295.908,262.595,295.9Z" transform="translate(-244.24 -263.799)" fill="#455a64"/>
      <path id="Path_4459" data-name="Path 4459" d="M260.857,290.1c.028,0,.087.114.134.272s.065.292.037.3-.087-.112-.134-.27S260.829,290.108,260.857,290.1Z" transform="translate(-242.846 -259.143)" fill="#455a64"/>
      <path id="Path_4460" data-name="Path 4460" d="M259.106,284.3c.028,0,.087.114.134.272s.065.292.037.3-.087-.112-.134-.27S259.073,284.308,259.106,284.3Z" transform="translate(-241.438 -254.488)" fill="#455a64"/>
      <path id="Path_4461" data-name="Path 4461" d="M257.377,278.5c.028,0,.087.114.134.272s.065.292.038.3-.087-.112-.134-.27S257.349,278.508,257.377,278.5Z" transform="translate(-240.052 -249.832)" fill="#455a64"/>
      <path id="Path_4462" data-name="Path 4462" d="M256.058,274.16c.028,0,.069.049.091.128s.022.148,0,.156-.069-.049-.091-.126S256.032,274.168,256.058,274.16Z" transform="translate(-238.99 -246.349)" fill="#455a64"/>
      <path id="Path_4463" data-name="Path 4463" d="M237.94,447.86c.03,0,.055.063.059.144s-.014.148-.043.15-.053-.063-.059-.144S237.916,447.86,237.94,447.86Z" transform="translate(-224.426 -385.773)" fill="#455a64"/>
      <path id="Path_4464" data-name="Path 4464" d="M237.7,441.9c.028,0,.055.13.061.292s-.012.294-.039.3-.055-.13-.063-.292S237.675,441.9,237.7,441.9Z" transform="translate(-224.238 -380.989)" fill="#455a64"/>
      <path id="Path_4465" data-name="Path 4465" d="M237.519,436c.03,0,.055.13.061.292s-.016.294-.043.3-.055-.13-.059-.292S237.492,436,237.519,436Z" transform="translate(-224.09 -376.253)" fill="#455a64"/>
      <path id="Path_4466" data-name="Path 4466" d="M237.361,430c.03,0,.055.13.059.292s-.016.294-.043.294-.055-.13-.059-.292S237.334,430,237.361,430Z" transform="translate(-223.962 -371.437)" fill="#455a64"/>
      <path id="Path_4467" data-name="Path 4467" d="M237.221,424c.03,0,.055.13.059.292s-.016.294-.045.3-.053-.13-.057-.294S237.194,424,237.221,424Z" transform="translate(-223.849 -366.621)" fill="#455a64"/>
      <path id="Path_4468" data-name="Path 4468" d="M237.071,418.08c.028,0,.055.13.059.292s-.016.3-.043.3-.055-.13-.059-.292S237.042,418.08,237.071,418.08Z" transform="translate(-223.729 -361.869)" fill="#455a64"/>
      <path id="Path_4469" data-name="Path 4469" d="M236.877,412.12c.028,0,.055.13.061.292s-.012.3-.039.3-.057-.13-.063-.292S236.85,412.122,236.877,412.12Z" transform="translate(-223.574 -357.085)" fill="#455a64"/>
      <path id="Path_4470" data-name="Path 4470" d="M236.632,406.17c.028,0,.057.13.063.292s-.01.294-.039.3-.055-.13-.063-.292S236.6,406.172,236.632,406.17Z" transform="translate(-223.379 -352.309)" fill="#455a64"/>
      <path id="Path_4471" data-name="Path 4471" d="M236.394,400.22c.028,0,.055.13.061.292s-.012.294-.039.3-.055-.13-.063-.292S236.365,400.22,236.394,400.22Z" transform="translate(-223.186 -347.533)" fill="#455a64"/>
      <path id="Path_4472" data-name="Path 4472" d="M236.187,394.27c.028,0,.055.128.061.292s-.014.294-.041.294-.055-.128-.061-.292S236.16,394.27,236.187,394.27Z" transform="translate(-223.02 -342.758)" fill="#455a64"/>
      <path id="Path_4473" data-name="Path 4473" d="M236,388.31c.028,0,.055.13.059.292s-.014.294-.041.294-.055-.128-.061-.292S235.962,388.31,236,388.31Z" transform="translate(-222.867 -337.974)" fill="#455a64"/>
      <path id="Path_4474" data-name="Path 4474" d="M235.822,382.35c.03,0,.055.13.059.292s-.016.3-.043.3-.055-.13-.059-.292S235.8,382.352,235.822,382.35Z" transform="translate(-222.726 -333.19)" fill="#455a64"/>
      <path id="Path_4475" data-name="Path 4475" d="M235.7,376.4c.03,0,.055.13.057.292s-.016.294-.045.3-.053-.132-.057-.294S235.676,376.4,235.7,376.4Z" transform="translate(-222.629 -328.414)" fill="#455a64"/>
      <path id="Path_4476" data-name="Path 4476" d="M235.6,370.44c.03,0,.053.13.057.294s-.02.294-.047.294-.053-.13-.055-.294S235.577,370.44,235.6,370.44Z" transform="translate(-222.551 -323.63)" fill="#455a64"/>
      <path id="Path_4477" data-name="Path 4477" d="M235.527,364.49c.03,0,.053.13.055.292s-.02.294-.049.294-.051-.13-.053-.292S235.5,364.49,235.527,364.49Z" transform="translate(-222.486 -318.854)" fill="#455a64"/>
      <path id="Path_4478" data-name="Path 4478" d="M235.479,358.53c.028,0,.051.13.053.294s-.022.294-.049.294-.053-.132-.053-.294S235.452,358.53,235.479,358.53Z" transform="translate(-222.447 -314.07)" fill="#455a64"/>
      <path id="Path_4479" data-name="Path 4479" d="M235.461,352.57c.028,0,.051.132.051.294s-.024.294-.051.294-.051-.132-.051-.294S235.432,352.57,235.461,352.57Z" transform="translate(-222.431 -309.286)" fill="#455a64"/>
      <path id="Path_4480" data-name="Path 4480" d="M235.471,346.62c.03,0,.051.13.051.294s-.026.292-.053.292-.051-.13-.049-.294S235.443,346.62,235.471,346.62Z" transform="translate(-222.438 -304.51)" fill="#455a64"/>
      <path id="Path_4481" data-name="Path 4481" d="M235.513,340.66c.028,0,.049.132.049.294s-.026.294-.055.294-.049-.132-.047-.294S235.485,340.66,235.513,340.66Z" transform="translate(-222.47 -299.726)" fill="#455a64"/>
      <path id="Path_4482" data-name="Path 4482" d="M235.583,334.7c.028,0,.049.132.047.3s-.028.292-.055.292-.051-.132-.047-.294S235.554,334.7,235.583,334.7Z" transform="translate(-222.525 -294.942)" fill="#455a64"/>
      <path id="Path_4483" data-name="Path 4483" d="M235.677,328.75c.03,0,.049.132.047.294s-.03.294-.057.294-.049-.132-.047-.3S235.649,328.75,235.677,328.75Z" transform="translate(-222.599 -290.166)" fill="#455a64"/>
      <path id="Path_4484" data-name="Path 4484" d="M235.807,322.79c.028,0,.047.132.043.3s-.03.292-.057.292-.049-.132-.045-.3S235.778,322.79,235.807,322.79Z" transform="translate(-222.702 -285.383)" fill="#455a64"/>
      <path id="Path_4485" data-name="Path 4485" d="M236,316.83c.028,0,.045.134.039.3s-.035.292-.063.292-.045-.134-.039-.3S235.969,316.828,236,316.83Z" transform="translate(-222.851 -280.598)" fill="#455a64"/>
      <path id="Path_4486" data-name="Path 4486" d="M236.3,310.88c.03,0,.043.134.034.3s-.043.292-.071.29-.043-.134-.032-.3S236.275,310.878,236.3,310.88Z" transform="translate(-223.089 -275.823)" fill="#455a64"/>
      <path id="Path_4487" data-name="Path 4487" d="M236.79,305c.028,0,.037.136.022.3s-.053.288-.081.286-.038-.136-.022-.3S236.761,304.982,236.79,305Z" transform="translate(-223.468 -271.099)" fill="#455a64"/>
      <path id="Path_4488" data-name="Path 4488" d="M237.415,300.519c.028,0,.041.073.03.154s-.043.144-.073.14-.041-.073-.03-.154S237.385,300.515,237.415,300.519Z" transform="translate(-223.977 -267.506)" fill="#455a64"/>
      <path id="Path_4489" data-name="Path 4489" d="M215.23,446.2l5.6.091-.043-.931-5.553.03Z" transform="translate(-206.233 -383.766)" fill="#455a64"/>
      <path id="Path_4490" data-name="Path 4490" d="M233.765,272.37a1.027,1.027,0,0,1,.034.215c.014.138.032.341.051.592.041.5.089,1.184.136,1.95.022.379.043.74.063,1.073a3.219,3.219,0,0,0,.1.856.714.714,0,0,0,.357.424.891.891,0,0,0,.2.059.253.253,0,0,0-.057.01.455.455,0,0,1-.162-.032.746.746,0,0,1-.41-.436,3.106,3.106,0,0,1-.128-.876c-.022-.333-.045-.695-.071-1.073-.047-.762-.083-1.452-.1-1.952-.012-.249-.018-.452-.022-.592A.81.81,0,0,1,233.765,272.37Z" transform="translate(-221.098 -244.912)" fill="#455a64"/>
      <path id="Path_4491" data-name="Path 4491" d="M236.06,274.561a.3.3,0,0,0-.049.132.163.163,0,0,0,.041.12.126.126,0,0,0,.138.018.12.12,0,0,0,.085-.109.158.158,0,0,0-.053-.116c-.061-.055-.124-.043-.128-.059s.067-.059.17,0a.2.2,0,0,1-.036.377.209.209,0,0,1-.245-.049.219.219,0,0,1-.043-.2C235.971,274.563,236.06,274.547,236.06,274.561Z" transform="translate(-222.85 -246.635)" fill="#455a64"/>
      <path id="Path_4492" data-name="Path 4492" d="M251.321,274.3a1.033,1.033,0,0,1-.44.168,1.867,1.867,0,0,1-1.973-.882,1.022,1.022,0,0,1-.168-.44c.018,0,.071.166.229.395a2.007,2.007,0,0,0,.827.7,1.972,1.972,0,0,0,1.073.148C251.159,274.358,251.315,274.283,251.321,274.3Z" transform="translate(-233.13 -245.538)" fill="#455a64"/>
      <path id="Path_4493" data-name="Path 4493" d="M210.213,272.37a.76.76,0,0,1-.02.381,1.5,1.5,0,0,1-1.322,1.158.729.729,0,0,1-.381-.031c0-.016.146,0,.371-.039a1.579,1.579,0,0,0,1.261-1.105C210.191,272.514,210.195,272.37,210.213,272.37Z" transform="translate(-200.823 -244.912)" fill="#455a64"/>
      <path id="Path_4494" data-name="Path 4494" d="M265.9,211.218a3.305,3.305,0,0,0-.016-4.353L260.6,200.88l-1.411,3.947c.095.067,4.106,4.365,4.106,4.365l-3.447,4.3a2.473,2.473,0,0,0-.409,2.352l.922,2.255,2.522-1.131-.2-.294h-1.894l-.113-.456h0Z" transform="translate(-241.518 -187.529)" fill="#ffbe9d"/>
      <path id="Path_4495" data-name="Path 4495" d="M182.5,137.646a1,1,0,0,0,1.681-.185c.673-.91.817-2.036.276-2.512l.178-.118a1.579,1.579,0,0,1,.493,1.857c-.407,1.265-1.283,1.93-1.9,1.829a1.055,1.055,0,0,1-.789-.75l.061-.184" transform="translate(-179.905 -134.512)" fill="#455a64"/>
      <path id="Path_4496" data-name="Path 4496" d="M177.639,178.884s-5.294,2.186-5.17,2.042l-.134-6.5h-2.076s-1.474,8.568.107,9.576c2.161,1.381,7.392-1.49,7.392-1.49Z" transform="translate(-169.634 -166.298)" fill="#ffbe9d"/>
      <path id="Path_4497" data-name="Path 4497" d="M174.452,161.06l-.01.067-.4,2.832-1.245-.26.16-1.628" transform="translate(-172.175 -155.566)" fill="#ffbe9d"/>
      <path id="Path_4498" data-name="Path 4498" d="M179.632,156.39l-.862,3.066.768.152s.109-.225.359-.89a2.007,2.007,0,0,0-.045-1.48s.695-1.579.426-1.642S179.632,156.39,179.632,156.39Z" transform="translate(-176.967 -151.178)" fill="#ffbe9d"/>
      <path id="Path_4499" data-name="Path 4499" d="M177,151.526c-.045.132-1.882,4.692-1.882,4.692l-.462-.26,1.855-4.848Z" transform="translate(-173.668 -147.58)" fill="#263238"/>
      <path id="Path_4500" data-name="Path 4500" d="M172.708,158.548a4.179,4.179,0,0,1,.022-1.758,14.288,14.288,0,0,1,1.45-1.845c.091.055.643,1.608.351,1.66a.4.4,0,0,1-.409-.257s.381.953.112.969-.5-.574-.5-.574.564,1.125.211,1.184-.839-.866-.839-.866Z" transform="translate(-172.026 -150.657)" fill="#ffbe9d"/>
      <path id="Path_4501" data-name="Path 4501" d="M179,158.11a2.436,2.436,0,0,1,.282.625,1.9,1.9,0,0,0,.095.237.357.357,0,0,0,.132.138c.1.055.178.047.18.063s-.081.049-.211,0a.379.379,0,0,1-.182-.154,1.186,1.186,0,0,1-.111-.251A2.244,2.244,0,0,1,179,158.11Z" transform="translate(-177.152 -153.198)" fill="#eb996e"/>
      <path id="Path_4502" data-name="Path 4502" d="M177,160.32c.03,0,.213.513.519,1.121.037.077.075.144.128.164s.095,0,.112-.063a.626.626,0,0,0,0-.2,1.559,1.559,0,0,0-.016-.178c-.03-.219-.075-.351-.061-.357a.778.778,0,0,1,.132.343,1.587,1.587,0,0,1,.03.185.622.622,0,0,1,0,.225.2.2,0,0,1-.081.122.184.184,0,0,1-.16.01.4.4,0,0,1-.182-.213A4.019,4.019,0,0,1,177,160.32Z" transform="translate(-175.547 -154.972)" fill="#eb996e"/>
      <path id="Path_4503" data-name="Path 4503" d="M175.3,163.62a1.618,1.618,0,0,1,.213.335l.2.379q.059.111.118.225a1.506,1.506,0,0,0,.13.223.134.134,0,0,0,.176.039.2.2,0,0,0,.065-.182,3.287,3.287,0,0,0-.126-.395,1.53,1.53,0,0,1-.109-.395,1.687,1.687,0,0,1,.176.357l.077.185a.915.915,0,0,1,.075.229.288.288,0,0,1-.1.274.2.2,0,0,1-.168.036.284.284,0,0,1-.142-.087,1.169,1.169,0,0,1-.144-.247l-.114-.227-.185-.395A1.64,1.64,0,0,1,175.3,163.62Z" transform="translate(-174.182 -157.621)" fill="#eb996e"/>
      <path id="Path_4504" data-name="Path 4504" d="M182.162,137.367a1.089,1.089,0,0,1-.446-.093,1.328,1.328,0,0,1-.732-1.048,2.891,2.891,0,0,1,1.212-2.739,1.233,1.233,0,0,1,2,.884,2.729,2.729,0,0,1-.223,1.539A2.218,2.218,0,0,1,182.162,137.367Zm.847-3.749a1.149,1.149,0,0,0-.6.2,2.5,2.5,0,0,0-1.034,2.338.953.953,0,0,0,.5.772c.552.243,1.348-.29,1.734-1.164a2.318,2.318,0,0,0,.2-1.31.953.953,0,0,0-.5-.756.716.716,0,0,0-.3-.071Z" transform="translate(-178.725 -133.219)" fill="#263238"/>
      <path id="Path_4505" data-name="Path 4505" d="M206.116,192.881l-3.333-3.355h0a5.92,5.92,0,0,0-2.3-1.49,4.737,4.737,0,0,0-1.443-.276h0a5.785,5.785,0,0,1-3.485,0,8.388,8.388,0,0,0-2.747.789h0l-4.979,2.021,1.594,4.4,2.668-.9.158,4.144-.527,6.168,10.33.107-.134-5.614v-4.063l1.49,1.452Z" transform="translate(-184.24 -176.998)" fill="#ff735d"/>
      <path id="Path_4506" data-name="Path 4506" d="M216.059,197.221a1.756,1.756,0,0,1-.146.225,3.12,3.12,0,0,1-.533.558,3.3,3.3,0,0,1-1.068.592,3.157,3.157,0,0,1-1.608.1,3.293,3.293,0,0,1-1.727-.908,1.649,1.649,0,0,1-.308-.452.948.948,0,0,1-.091-.564.626.626,0,0,1,.367-.462.823.823,0,0,1,.606,0,.908.908,0,0,1,.476.395,1.184,1.184,0,0,1,.128.618,2.171,2.171,0,0,1-.483,1.184,3.238,3.238,0,0,1-2.33,1.214A3.013,3.013,0,0,1,208,199.5a2.091,2.091,0,0,1-1.018-.845,1.332,1.332,0,0,1-.055-1.261.987.987,0,0,1,1.083-.5.789.789,0,0,1,.481.367,1.036,1.036,0,0,1,.134.572,1.184,1.184,0,0,1-.592.918,1.9,1.9,0,0,1-.987.264,4.174,4.174,0,0,1-.937-.122,4.5,4.5,0,0,1-1.51-.574,1.987,1.987,0,0,1-.777-.931,1.43,1.43,0,0,1-.095-.764.9.9,0,0,1,.075-.257,1.4,1.4,0,0,0-.055.26,1.477,1.477,0,0,0,.111.744,1.951,1.951,0,0,0,.773.9,4.465,4.465,0,0,0,1.494.552,4.089,4.089,0,0,0,.922.114,1.813,1.813,0,0,0,.947-.258,1.081,1.081,0,0,0,.541-.849.947.947,0,0,0-.122-.521.683.683,0,0,0-.426-.322.9.9,0,0,0-.973.448,1.227,1.227,0,0,0,.057,1.166,1.991,1.991,0,0,0,.969.8,2.92,2.92,0,0,0,1.3.213,3.139,3.139,0,0,0,2.255-1.172,2.06,2.06,0,0,0,.466-1.125,1.072,1.072,0,0,0-.114-.568.811.811,0,0,0-.424-.357.732.732,0,0,0-.537-.01.535.535,0,0,0-.314.395.884.884,0,0,0,.081.511,1.65,1.65,0,0,0,.29.43,3.25,3.25,0,0,0,1.679.894,3.145,3.145,0,0,0,1.579-.087,3.373,3.373,0,0,0,1.062-.566,3.5,3.5,0,0,0,.541-.543C216,197.3,216.055,197.217,216.059,197.221Z" transform="translate(-196.986 -183.818)" fill="#263238"/>
      <path id="Path_4507" data-name="Path 4507" d="M220.229,234.792a.9.9,0,0,1-.2.1,1.525,1.525,0,0,1-.645.083,2.19,2.19,0,0,1-.977-.322,5.267,5.267,0,0,1-1.05-.876,1.5,1.5,0,0,1-.418-.685.85.85,0,0,1,.022-.438.608.608,0,0,1,.288-.355.592.592,0,0,1,.472-.024.969.969,0,0,1,.395.278,1.382,1.382,0,0,1,.3.939,1.7,1.7,0,0,1-.351.975,1.918,1.918,0,0,1-.89.616,2.391,2.391,0,0,1-1.115.1,3.156,3.156,0,0,1-1.089-.377,4.143,4.143,0,0,1-.92-.695,1.519,1.519,0,0,1-.483-1.01.987.987,0,0,1,.138-.545.845.845,0,0,1,.426-.347,1.056,1.056,0,0,1,1.016.158,1.2,1.2,0,0,1,.414.892,1.4,1.4,0,0,1-.278.888,2.119,2.119,0,0,1-1.433.789,3.521,3.521,0,0,1-2.321-.446,1.394,1.394,0,0,1-.442-.478,1.009,1.009,0,0,1-.067-.156.2.2,0,0,1-.018-.055,1.2,1.2,0,0,0,.1.2,1.4,1.4,0,0,0,.444.454,3.517,3.517,0,0,0,2.289.406,2.04,2.04,0,0,0,1.381-.772,1.314,1.314,0,0,0,.258-.835,1.121,1.121,0,0,0-.395-.823.965.965,0,0,0-.922-.14.771.771,0,0,0-.377.308.9.9,0,0,0-.122.489,1.425,1.425,0,0,0,.448.943,4.044,4.044,0,0,0,.9.675,3.08,3.08,0,0,0,1.054.367,2.316,2.316,0,0,0,1.068-.1,1.845,1.845,0,0,0,.847-.58,1.594,1.594,0,0,0,.333-.92,1.285,1.285,0,0,0-.278-.876.884.884,0,0,0-.357-.255.5.5,0,0,0-.395.016.645.645,0,0,0-.272.7,1.456,1.456,0,0,0,.395.653,5.5,5.5,0,0,0,1.028.876,2.187,2.187,0,0,0,.951.332,1.626,1.626,0,0,0,.635-.063C220.158,234.827,220.227,234.786,220.229,234.792Z" transform="translate(-202.845 -212.626)" fill="#263238"/>
    </g>
  </g>
</svg>
