<svg xmlns="http://www.w3.org/2000/svg" width="86" height="64.248" viewBox="0 0 86 64.248">
  <g id="Financial_Information" data-name="Financial Information" transform="translate(0 -55)">
    <g id="freepik--background-complete--inject-2" transform="translate(0 55)">
      <rect id="Rectangle_992" data-name="Rectangle 992" width="86" height="0.043" transform="translate(0 56.46)" fill="#ebebeb"/>
      <rect id="Rectangle_993" data-name="Rectangle 993" width="5.712" height="0.043" transform="translate(71.649 59.235)" fill="#ebebeb"/>
      <rect id="Rectangle_994" data-name="Rectangle 994" width="1.499" height="0.043" transform="translate(55.473 59.704)" fill="#ebebeb"/>
      <rect id="Rectangle_995" data-name="Rectangle 995" width="3.309" height="0.043" transform="translate(68.206 57.634)" fill="#ebebeb"/>
      <rect id="Rectangle_996" data-name="Rectangle 996" width="7.448" height="0.043" transform="translate(9.047 57.924)" fill="#ebebeb"/>
      <rect id="Rectangle_997" data-name="Rectangle 997" width="1.092" height="0.043" transform="translate(17.984 57.924)" fill="#ebebeb"/>
      <rect id="Rectangle_998" data-name="Rectangle 998" width="16.155" height="0.043" transform="translate(22.599 58.652)" fill="#ebebeb"/>
      <path id="Path_4541" data-name="Path 4541" d="M72.491,103.769h-33.3a.985.985,0,0,1-.983-.985V55.976A.985.985,0,0,1,39.193,55h33.3a.985.985,0,0,1,.985.985v46.8A.985.985,0,0,1,72.491,103.769Zm-33.3-48.734a.942.942,0,0,0-.94.942v46.808a.942.942,0,0,0,.94.942h33.3a.943.943,0,0,0,.942-.942V55.976a.943.943,0,0,0-.942-.942Z" transform="translate(-31.621 -55)" fill="#ebebeb"/>
      <path id="Path_4542" data-name="Path 4542" d="M288.785,103.769h-33.3a.986.986,0,0,1-.985-.985V55.976a.986.986,0,0,1,.985-.976h33.3a.985.985,0,0,1,.981.976v46.808A.985.985,0,0,1,288.785,103.769Zm-33.3-48.734a.943.943,0,0,0-.942.942v46.808a.943.943,0,0,0,.942.942h33.3a.943.943,0,0,0,.942-.942V55.976a.943.943,0,0,0-.942-.942Z" transform="translate(-210.836 -55)" fill="#ebebeb"/>
      <rect id="Rectangle_999" data-name="Rectangle 999" width="16.414" height="36.975" transform="translate(47.709 41.79) rotate(180)" fill="#ebebeb"/>
      <rect id="Rectangle_1000" data-name="Rectangle 1000" width="35.588" height="15.176" transform="translate(47.09 5.508) rotate(90)" fill="#fafafa"/>
      <rect id="Rectangle_1001" data-name="Rectangle 1001" width="0.348" height="36.113" transform="translate(39.674 41.443) rotate(180)" fill="#f5f5f5"/>
      <rect id="Rectangle_1002" data-name="Rectangle 1002" width="17.171" height="1.74" transform="translate(48.088 6.074) rotate(180)" fill="#e0e0e0"/>
      <rect id="Rectangle_1003" data-name="Rectangle 1003" width="17.171" height="0.207" transform="translate(48.088 6.472) rotate(180)" fill="#f5f5f5"/>
      <rect id="Rectangle_1004" data-name="Rectangle 1004" width="17.171" height="0.207" transform="translate(48.088 6.941) rotate(180)" fill="#f5f5f5"/>
      <rect id="Rectangle_1005" data-name="Rectangle 1005" width="17.171" height="0.207" transform="translate(48.088 7.408) rotate(180)" fill="#f5f5f5"/>
      <rect id="Rectangle_1006" data-name="Rectangle 1006" width="17.171" height="0.207" transform="translate(48.088 7.877) rotate(180)" fill="#f5f5f5"/>
      <rect id="Rectangle_1007" data-name="Rectangle 1007" width="17.171" height="0.207" transform="translate(48.088 8.345) rotate(180)" fill="#f5f5f5"/>
      <rect id="Rectangle_1008" data-name="Rectangle 1008" width="17.171" height="0.207" transform="translate(48.088 8.814) rotate(180)" fill="#f5f5f5"/>
      <rect id="Rectangle_1009" data-name="Rectangle 1009" width="17.171" height="0.207" transform="translate(48.088 9.281) rotate(180)" fill="#f5f5f5"/>
      <rect id="Rectangle_1010" data-name="Rectangle 1010" width="17.171" height="0.207" transform="translate(48.088 9.75) rotate(180)" fill="#f5f5f5"/>
      <rect id="Rectangle_1011" data-name="Rectangle 1011" width="17.171" height="0.207" transform="translate(48.088 10.218) rotate(180)" fill="#f5f5f5"/>
      <rect id="Rectangle_1012" data-name="Rectangle 1012" width="17.171" height="0.207" transform="translate(48.088 10.685) rotate(180)" fill="#f5f5f5"/>
      <rect id="Rectangle_1013" data-name="Rectangle 1013" width="17.171" height="0.207" transform="translate(48.088 11.154) rotate(180)" fill="#f5f5f5"/>
      <rect id="Rectangle_1014" data-name="Rectangle 1014" width="17.171" height="0.207" transform="translate(48.088 11.621) rotate(180)" fill="#f5f5f5"/>
      <rect id="Rectangle_1015" data-name="Rectangle 1015" width="17.171" height="0.207" transform="translate(48.088 12.09) rotate(180)" fill="#f5f5f5"/>
      <rect id="Rectangle_1016" data-name="Rectangle 1016" width="17.171" height="0.207" transform="translate(48.088 12.558) rotate(180)" fill="#f5f5f5"/>
      <rect id="Rectangle_1017" data-name="Rectangle 1017" width="17.171" height="0.207" transform="translate(48.088 13.027) rotate(180)" fill="#f5f5f5"/>
      <rect id="Rectangle_1018" data-name="Rectangle 1018" width="17.171" height="0.207" transform="translate(48.088 13.494) rotate(180)" fill="#f5f5f5"/>
      <rect id="Rectangle_1019" data-name="Rectangle 1019" width="17.171" height="0.207" transform="translate(48.088 13.963) rotate(180)" fill="#f5f5f5"/>
      <rect id="Rectangle_1020" data-name="Rectangle 1020" width="17.171" height="0.207" transform="translate(48.088 14.431) rotate(180)" fill="#f5f5f5"/>
      <rect id="Rectangle_1021" data-name="Rectangle 1021" width="16.414" height="36.975" transform="translate(28.38 41.79) rotate(180)" fill="#ebebeb"/>
      <rect id="Rectangle_1022" data-name="Rectangle 1022" width="35.588" height="15.176" transform="translate(27.759 5.508) rotate(90)" fill="#fafafa"/>
      <rect id="Rectangle_1023" data-name="Rectangle 1023" width="0.348" height="36.113" transform="translate(20.295 41.443) rotate(180)" fill="#f5f5f5"/>
      <rect id="Rectangle_1024" data-name="Rectangle 1024" width="17.171" height="1.74" transform="translate(28.758 6.074) rotate(180)" fill="#e0e0e0"/>
      <rect id="Rectangle_1025" data-name="Rectangle 1025" width="17.171" height="0.207" transform="translate(28.758 6.472) rotate(180)" fill="#f5f5f5"/>
      <rect id="Rectangle_1026" data-name="Rectangle 1026" width="17.171" height="0.207" transform="translate(28.758 6.941) rotate(180)" fill="#f5f5f5"/>
      <rect id="Rectangle_1027" data-name="Rectangle 1027" width="17.171" height="0.207" transform="translate(28.758 7.408) rotate(180)" fill="#f5f5f5"/>
      <rect id="Rectangle_1028" data-name="Rectangle 1028" width="17.171" height="0.207" transform="translate(28.758 7.877) rotate(180)" fill="#f5f5f5"/>
      <rect id="Rectangle_1029" data-name="Rectangle 1029" width="17.171" height="0.207" transform="translate(28.758 8.345) rotate(180)" fill="#f5f5f5"/>
      <rect id="Rectangle_1030" data-name="Rectangle 1030" width="17.171" height="0.207" transform="translate(28.758 8.814) rotate(180)" fill="#f5f5f5"/>
      <rect id="Rectangle_1031" data-name="Rectangle 1031" width="17.171" height="0.207" transform="translate(28.758 9.281) rotate(180)" fill="#f5f5f5"/>
      <rect id="Rectangle_1032" data-name="Rectangle 1032" width="17.171" height="0.207" transform="translate(28.758 9.75) rotate(180)" fill="#f5f5f5"/>
      <rect id="Rectangle_1033" data-name="Rectangle 1033" width="17.171" height="0.207" transform="translate(28.758 10.218) rotate(180)" fill="#f5f5f5"/>
      <rect id="Rectangle_1034" data-name="Rectangle 1034" width="17.171" height="0.207" transform="translate(28.758 10.685) rotate(180)" fill="#f5f5f5"/>
      <rect id="Rectangle_1035" data-name="Rectangle 1035" width="17.171" height="0.207" transform="translate(28.758 11.154) rotate(180)" fill="#f5f5f5"/>
      <rect id="Rectangle_1036" data-name="Rectangle 1036" width="17.171" height="0.207" transform="translate(28.758 11.621) rotate(180)" fill="#f5f5f5"/>
      <rect id="Rectangle_1037" data-name="Rectangle 1037" width="17.171" height="0.207" transform="translate(28.758 12.09) rotate(180)" fill="#f5f5f5"/>
      <rect id="Rectangle_1038" data-name="Rectangle 1038" width="17.171" height="0.207" transform="translate(28.758 12.558) rotate(180)" fill="#f5f5f5"/>
      <rect id="Rectangle_1039" data-name="Rectangle 1039" width="17.171" height="0.207" transform="translate(28.758 13.027) rotate(180)" fill="#f5f5f5"/>
      <rect id="Rectangle_1040" data-name="Rectangle 1040" width="17.171" height="0.207" transform="translate(28.758 13.494) rotate(180)" fill="#f5f5f5"/>
      <rect id="Rectangle_1041" data-name="Rectangle 1041" width="17.171" height="0.207" transform="translate(28.758 13.963) rotate(180)" fill="#f5f5f5"/>
      <rect id="Rectangle_1042" data-name="Rectangle 1042" width="17.171" height="0.207" transform="translate(28.758 14.431) rotate(180)" fill="#f5f5f5"/>
      <rect id="Rectangle_1043" data-name="Rectangle 1043" width="16.05" height="20.653" transform="translate(74.413 4.465) rotate(90)" fill="#e0e0e0"/>
      <rect id="Rectangle_1044" data-name="Rectangle 1044" width="20.08" height="15.477" transform="translate(54.047 4.751)" fill="#ebebeb"/>
      <rect id="Rectangle_1045" data-name="Rectangle 1045" width="0.179" height="2.159" transform="translate(64.391 7.546)" fill="#e0e0e0"/>
      <path id="Path_4543" data-name="Path 4543" d="M359.288,117.8h-.179v-6.858h-8.929v3.9H350V110.76h9.288Z" transform="translate(-289.819 -101.144)" fill="#e0e0e0"/>
      <path id="Path_4544" data-name="Path 4544" d="M334.808,136.155h-.178V133.87h5.186v2.211h-.178v-2.033h-4.83Z" transform="translate(-277.083 -120.269)" fill="#e0e0e0"/>
      <rect id="Rectangle_1046" data-name="Rectangle 1046" width="4.606" height="1.587" transform="translate(66.78 8.34) rotate(180)" fill="#f5f5f5"/>
      <rect id="Rectangle_1047" data-name="Rectangle 1047" width="4.391" height="1.723" transform="translate(62.415 12.28) rotate(180)" fill="#f5f5f5"/>
      <rect id="Rectangle_1048" data-name="Rectangle 1048" width="3.016" height="1.778" transform="translate(64.146 16.7) rotate(180)" fill="#f5f5f5"/>
      <rect id="Rectangle_1049" data-name="Rectangle 1049" width="3.23" height="1.35" transform="translate(59.258 16.56) rotate(180)" fill="#f5f5f5"/>
      <rect id="Rectangle_1050" data-name="Rectangle 1050" width="4.989" height="2.302" transform="translate(71.492 13.225) rotate(180)" fill="#f5f5f5"/>
      <rect id="Rectangle_1051" data-name="Rectangle 1051" width="3.185" height="1.681" transform="translate(70.965 17.493) rotate(180)" fill="#f5f5f5"/>
      <rect id="Rectangle_1052" data-name="Rectangle 1052" width="0.973" height="0.973" transform="translate(65.167 9.76) rotate(135)" fill="#f5f5f5"/>
      <rect id="Rectangle_1053" data-name="Rectangle 1053" width="0.973" height="0.973" transform="translate(60.977 13.692) rotate(135)" fill="#f5f5f5"/>
      <path id="Path_4545" data-name="Path 4545" d="M375.969,289.818c0-.071.24-7.082,1.38-8.191a1.83,1.83,0,0,1,2.435,0l.114-.136a2.038,2.038,0,0,0-2.675,0c-1.192,1.159-1.424,8.022-1.433,8.314Z" transform="translate(-311.163 -241.994)" fill="#e0e0e0"/>
      <path id="Path_4546" data-name="Path 4546" d="M364.749,283.151c.009-.085.779-8.419-2.263-11.911l-.136.117c2.994,3.435,2.23,11.692,2.221,11.777Z" transform="translate(-300.031 -233.95)" fill="#e0e0e0"/>
      <path id="Path_4547" data-name="Path 4547" d="M376.522,279.19l.172-.01c0-.095-.595-9.474,1.637-11.528l-.121-.131C375.92,269.631,376.5,278.8,376.522,279.19Z" transform="translate(-311.695 -230.871)" fill="#e0e0e0"/>
      <path id="Path_4548" data-name="Path 4548" d="M354.458,299.063h.172c0-.259-.074-6.336-1.8-7.326a1.219,1.219,0,0,0-1.117-.109c-1.043.431-1.561,2.288-1.583,2.368l.172.047c0-.017.517-1.852,1.48-2.25a1.054,1.054,0,0,1,.959.1C354.386,292.828,354.458,299,354.458,299.063Z" transform="translate(-289.916 -250.75)" fill="#e0e0e0"/>
      <path id="Path_4549" data-name="Path 4549" d="M379,300.429l.172-.01c0-.048-.26-4.8,1.023-6.477a1.184,1.184,0,0,1,1.005-.574c.842.059,1.552,1.288,1.552,1.3l.155-.088c-.031-.053-.759-1.326-1.7-1.392a1.356,1.356,0,0,0-1.159.645C378.737,295.567,378.989,300.223,379,300.429Z" transform="translate(-313.799 -252.11)" fill="#e0e0e0"/>
      <path id="Path_4550" data-name="Path 4550" d="M374.049,275.45c.035-.46.838-11.318-.576-13.23l-.143.105c1.38,1.861.548,13,.541,13.106Z" transform="translate(-309.119 -226.485)" fill="#e0e0e0"/>
      <path id="Path_4551" data-name="Path 4551" d="M343.379,295.133s.848.312.6,1.05-2.932,1.956-2.932,1.956a2.081,2.081,0,0,1-.093-2.706C341.982,293.762,343.358,294.6,343.379,295.133Z" transform="translate(-281.953 -253.154)" fill="#ebebeb"/>
      <path id="Path_4552" data-name="Path 4552" d="M373.921,288.644s-.9-.038-.955.74,1.959,2.932,1.959,2.932a2.076,2.076,0,0,0,1.124-2.461C375.74,287.911,374.145,288.165,373.921,288.644Z" transform="translate(-308.821 -248.07)" fill="#ebebeb"/>
      <path id="Path_4553" data-name="Path 4553" d="M380.329,263.585s-.6-.066-.554-.431,2.342-1.312,3.694.216c0,0-.862,1.488-2.118,1.507S380.329,263.585,380.329,263.585Z" transform="translate(-314.46 -226.739)" fill="#ebebeb"/>
      <path id="Path_4554" data-name="Path 4554" d="M364.19,254.142s.545.264.7-.072-1.292-2.352-3.251-1.771a3.047,3.047,0,0,0,1,2.4C363.694,255.375,364.19,254.142,364.19,254.142Z" transform="translate(-299.442 -218.188)" fill="#ebebeb"/>
      <path id="Path_4555" data-name="Path 4555" d="M391.645,294.034s-.416-.336.033-.5a2.128,2.128,0,0,1,2.673,2.069s-2.564.426-2.882-.405S391.645,294.034,391.645,294.034Z" transform="translate(-324.055 -252.351)" fill="#ebebeb"/>
      <path id="Path_4556" data-name="Path 4556" d="M349.667,265.672s.416-.335-.033-.5a2.13,2.13,0,0,0-2.675,2.069s2.564.426,2.882-.4S349.667,265.672,349.667,265.672Z" transform="translate(-287.288 -228.882)" fill="#ebebeb"/>
      <path id="Path_4557" data-name="Path 4557" d="M365.2,277.159s.036-.409-.293-.248a1.631,1.631,0,0,0-.288,2.573s1.6-1.186,1.312-1.8S365.2,277.159,365.2,277.159Z" transform="translate(-301.471 -238.612)" fill="#ebebeb"/>
      <path id="Path_4558" data-name="Path 4558" d="M393.456,280.134s-.248-.326.116-.366a1.631,1.631,0,0,1,1.616,2.023s-1.987-.148-2.069-.826S393.456,280.134,393.456,280.134Z" transform="translate(-325.497 -241.005)" fill="#ebebeb"/>
      <path id="Path_4559" data-name="Path 4559" d="M352.675,334.4h6.819l.736-7.465h-8.29Z" transform="translate(-291.423 -280.036)" fill="#f0f0f0"/>
      <rect id="Rectangle_1054" data-name="Rectangle 1054" width="9.017" height="1.647" transform="translate(69.17 47.717) rotate(180)" fill="#e6e6e6"/>
    </g>
    <g id="freepik--Shadow--inject-2" transform="translate(9.676 115.343)">
      <ellipse id="freepik--path--inject-2" cx="33.324" cy="1.952" rx="33.324" ry="1.952" transform="translate(0 0)" fill="#f5f5f5"/>
    </g>
    <g id="freepik--icon-2--inject-2" transform="translate(54.563 62.985)">
      <circle id="Ellipse_156" data-name="Ellipse 156" cx="5.086" cy="5.086" r="5.086" transform="translate(0 7.192) rotate(-45)" fill="#ff735d"/>
      <circle id="Ellipse_157" data-name="Ellipse 157" cx="5.086" cy="5.086" r="5.086" transform="translate(0 7.192) rotate(-45)" fill="#fff" opacity="0.5"/>
      <path id="Path_4560" data-name="Path 4560" d="M349.036,122.06v6.155l-1.071,1.071H343.74V122.06Z" transform="translate(-339.197 -118.48)" fill="#263238"/>
      <path id="Path_4561" data-name="Path 4561" d="M349.036,122.06v6.155l-1.071,1.071H343.74V122.06Z" transform="translate(-339.197 -118.48)" fill="#fff" opacity="0.9"/>
      <path id="Path_4562" data-name="Path 4562" d="M369.311,157.75l-1.071,1.071V157.75Z" transform="translate(-359.472 -148.016)" opacity="0.2"/>
      <g id="Group_3021" data-name="Group 3021" transform="translate(5.181 4.413)" opacity="0.2">
        <rect id="Rectangle_1055" data-name="Rectangle 1055" width="3.413" height="0.203" transform="translate(0.609)"/>
        <rect id="Rectangle_1056" data-name="Rectangle 1056" width="4.022" height="0.203" transform="translate(0 0.509)"/>
        <rect id="Rectangle_1057" data-name="Rectangle 1057" width="4.022" height="0.203" transform="translate(0 1.017)"/>
        <rect id="Rectangle_1058" data-name="Rectangle 1058" width="1.383" height="0.203" transform="translate(0 1.526)"/>
        <rect id="Rectangle_1059" data-name="Rectangle 1059" width="3.413" height="0.203" transform="translate(0.609 2.035)"/>
        <rect id="Rectangle_1060" data-name="Rectangle 1060" width="4.022" height="0.203" transform="translate(0 2.544)"/>
        <rect id="Rectangle_1061" data-name="Rectangle 1061" width="4.022" height="0.203" transform="translate(0 3.052)"/>
        <rect id="Rectangle_1062" data-name="Rectangle 1062" width="4.022" height="0.203" transform="translate(0 3.561)"/>
        <rect id="Rectangle_1063" data-name="Rectangle 1063" width="4.022" height="0.203" transform="translate(0 4.07)"/>
        <rect id="Rectangle_1064" data-name="Rectangle 1064" width="2.601" height="0.203" transform="translate(0 4.579)"/>
      </g>
      <path id="Path_4563" data-name="Path 4563" d="M331.809,121.564a5.641,5.641,0,0,1-1.625-.239l.051-.173a5.491,5.491,0,0,0,2.163.2l.019.172A5.916,5.916,0,0,1,331.809,121.564Zm.98-.084-.031-.172a5.563,5.563,0,0,0,.881-.229l.059.172a5.861,5.861,0,0,1-.909.231Zm-3.48-.5c-.112-.055-.224-.116-.331-.172l.09-.155c.105.06.212.119.321.172Zm6.319-.883-.121-.133c.09-.081.172-.172.262-.254l.129.126c-.088.091-.179.174-.271.262Zm-8.336-.776a5.651,5.651,0,0,1-.505-.792l.159-.085a5.463,5.463,0,0,0,.49.767Zm9.2-.214-.147-.1a3.834,3.834,0,0,0,.241-.381,5.479,5.479,0,0,0,.619-1.612l.172.038a5.716,5.716,0,0,1-.64,1.664,3.889,3.889,0,0,1-.247.4Zm-9.868-.911a5.7,5.7,0,0,1-.495-2.187h.172a5.5,5.5,0,0,0,.478,2.118Zm10.828-1.514-.172-.026a5.6,5.6,0,0,0,.055-.778v-.129h.172v.134a5.707,5.707,0,0,1-.06.8Zm-11.09-1.587-.172-.024c.017-.124.04-.248.066-.371l.172.036a2.926,2.926,0,0,0-.071.359Zm10.49-1.466c-.048-.11-.1-.221-.159-.328l.159-.084c.059.11.114.224.172.345Zm-9.569-.886-.147-.1a5.718,5.718,0,0,1,.595-.726l.129.124a5.535,5.535,0,0,0-.583.705Zm8.923-.209a5.472,5.472,0,0,0-1.631-1.435l.031-.085.045-.078-.045.078.059-.071a5.667,5.667,0,0,1,1.685,1.481Zm-8.084-.75-.121-.133a5.672,5.672,0,0,1,1.928-1.147l.06.172a5.5,5.5,0,0,0-1.873,1.107Zm6.118-.862a5.412,5.412,0,0,0-.848-.333l.052-.172a5.5,5.5,0,0,1,.874.345Zm-3.371-.478-.031-.172c.124-.022.248-.04.372-.053l.019.172c-.121.016-.247.033-.366.053Z" transform="translate(-324.624 -108.682)" fill="#ff735d"/>
      <path id="Path_4564" data-name="Path 4564" d="M333.078,181.173l-.128-.128,4.3-4.3V175.48h.179v1.335Z" transform="translate(-330.267 -162.688)" fill="#ff735d"/>
      <path id="Path_4565" data-name="Path 4565" d="M329.709,207.883a.447.447,0,1,1,.432-.331A.447.447,0,0,1,329.709,207.883Zm0-.712a.112.112,0,1,0,0-.007Z" transform="translate(-327.216 -188.764)" fill="#ff735d"/>
    </g>
    <g id="freepik--icon-1--inject-2" transform="translate(20.946 55.184)">
      <circle id="Ellipse_158" data-name="Ellipse 158" cx="5.086" cy="5.086" r="5.086" transform="translate(0 7.192) rotate(-45)" fill="#ff735d"/>
      <circle id="Ellipse_159" data-name="Ellipse 159" cx="5.086" cy="5.086" r="5.086" transform="translate(0 7.192) rotate(-45)" fill="#fff" opacity="0.5"/>
      <path id="Path_4566" data-name="Path 4566" d="M136.236,76.352a5.645,5.645,0,0,1-1.628-.238l.052-.172a5.491,5.491,0,0,0,2.163.2l.019.172A5.9,5.9,0,0,1,136.236,76.352Zm.978-.085-.031-.172a5.562,5.562,0,0,0,.881-.229l.059.172a5.674,5.674,0,0,1-.909.229Zm-3.482-.5c-.112-.055-.222-.116-.331-.172l.09-.155q.157.09.321.172Zm6.319-.883-.121-.133c.09-.081.172-.172.262-.254l.129.126c-.086.09-.178.178-.269.26Zm-8.336-.773a5.651,5.651,0,0,1-.505-.792l.159-.084a5.566,5.566,0,0,0,.49.767Zm9.2-.216-.148-.1a3.83,3.83,0,0,0,.241-.381,5.479,5.479,0,0,0,.619-1.612l.172.038a5.716,5.716,0,0,1-.64,1.664,4.382,4.382,0,0,1-.243.393Zm-9.874-.914a5.672,5.672,0,0,1-.493-2.188h.172a5.476,5.476,0,0,0,.479,2.118Zm10.828-1.514-.172-.026a5.344,5.344,0,0,0,.055-.779v-.129h.172v.133a5.709,5.709,0,0,1-.053.8Zm-11.09-1.587-.172-.024c.017-.124.04-.248.066-.371l.172.036c-.026.119-.047.24-.064.359Zm10.49-1.466c-.048-.112-.1-.222-.159-.328l.159-.085c.059.11.114.224.172.345Zm-9.567-.888-.148-.1a5.719,5.719,0,0,1,.595-.726l.129.124a5.366,5.366,0,0,0-.574.7Zm8.926-.207A5.472,5.472,0,0,0,139,65.889l.076-.172h.014a5.667,5.667,0,0,1,1.685,1.481Zm-8.088-.75-.119-.133a5.648,5.648,0,0,1,1.926-1.147l.06.172A5.475,5.475,0,0,0,132.542,66.574Zm6.119-.862a5.578,5.578,0,0,0-.848-.331l.052-.172a5.679,5.679,0,0,1,.874.345Zm-3.377-.478-.031-.172c.124-.021.248-.04.372-.052l.019.172C135.53,65.2,135.408,65.213,135.284,65.234Z" transform="translate(-129.049 -63.468)" fill="#ff735d"/>
      <path id="Path_4567" data-name="Path 4567" d="M161.4,142.815a.452.452,0,0,1-.317-.131.447.447,0,1,1,.633,0A.452.452,0,0,1,161.4,142.815Zm0-.714a.109.109,0,1,1,0,.007Z" transform="translate(-154.21 -127.117)" fill="#ff735d"/>
      <rect id="Rectangle_1065" data-name="Rectangle 1065" width="0.179" height="2.107" transform="translate(7.101 12.787)" fill="#ff735d"/>
      <path id="Path_4568" data-name="Path 4568" d="M159.19,105.7a1.219,1.219,0,0,1-2.425.186,1.1,1.1,0,0,1-.016-.186,1.219,1.219,0,0,1,1.207-1.221h.012a1.219,1.219,0,0,1,1.221,1.221Z" transform="translate(-150.73 -96.131)" fill="#fff" opacity="0.9"/>
      <path id="Path_4569" data-name="Path 4569" d="M159.706,106.363a1.083,1.083,0,1,1-1.081-1.083,1.083,1.083,0,0,1,1.081,1.083Z" transform="translate(-151.384 -96.793)" opacity="0.1"/>
      <text id="_" data-name="$" transform="translate(6.851 9.559)" fill="#fff" font-size="1" font-family="SegoeUI-Semibold, Segoe UI" font-weight="600"><tspan x="0" y="0">$</tspan></text>
      <path id="Path_4570" data-name="Path 4570" d="M157.959,104.48a1.553,1.553,0,0,1-.062.3,1.669,1.669,0,0,1-1.131,1.109,1.1,1.1,0,0,1-.016-.186A1.219,1.219,0,0,1,157.959,104.48Z" transform="translate(-150.73 -96.131)" opacity="0.1"/>
      <path id="Path_4571" data-name="Path 4571" d="M147.825,92.946a1.662,1.662,0,1,1-.487-1.179A1.668,1.668,0,0,1,147.825,92.946Z" transform="translate(-140.585 -85.208)" fill="#fff" opacity="0.9"/>
      <path id="Path_4572" data-name="Path 4572" d="M148.546,93.848a1.478,1.478,0,1,1-1.478-1.478A1.478,1.478,0,0,1,148.546,93.848Z" transform="translate(-141.495 -86.11)" opacity="0.1"/>
      <text id="_2" data-name="$" transform="translate(5.042 7.345)" fill="#fff" font-size="1" font-family="SegoeUI-Semibold, Segoe UI" font-weight="600"><tspan x="0" y="0">$</tspan></text>
      <path id="Path_4573" data-name="Path 4573" d="M158.633,93.475a1.654,1.654,0,0,1-.074.491,2.1,2.1,0,0,1-.993-2.047A1.671,1.671,0,0,1,158.633,93.475Z" transform="translate(-151.392 -85.737)" opacity="0.1"/>
      <path id="Path_4574" data-name="Path 4574" d="M162.334,81.145a2.1,2.1,0,1,1-2.1-2.1A2.1,2.1,0,0,1,162.334,81.145Z" transform="translate(-151.881 -75.087)" fill="#fff" opacity="0.9"/>
      <path id="Path_4575" data-name="Path 4575" d="M163.231,82.279a1.861,1.861,0,1,1-1.861-1.859,1.861,1.861,0,0,1,1.861,1.859Z" transform="translate(-153.014 -76.221)" opacity="0.1"/>
      <text id="_3" data-name="$" transform="translate(7.687 5.45)" fill="#fff" font-size="1" font-family="SegoeUI-Semibold, Segoe UI" font-weight="600"><tspan x="0" y="0">$</tspan></text>
    </g>
    <g id="freepik--Cabinet--inject-2" transform="translate(55.432 83.02)">
      <rect id="Rectangle_1066" data-name="Rectangle 1066" width="14.779" height="34.216" transform="translate(3.778)" fill="#ff735d"/>
      <rect id="Rectangle_1067" data-name="Rectangle 1067" width="14.779" height="34.216" transform="translate(3.778)" fill="#fff" opacity="0.5"/>
      <path id="Path_4576" data-name="Path 4576" d="M344.65,217.48V251.7h8.431V217.48Zm7.864,33.009h-7.319v-6.027h7.319Zm0-6.589h-7.319v-6.027h7.319Zm0-6.591h-7.319v-6.027h7.319Zm0-6.589h-7.319v-6.027h7.319Zm0-6.591h-7.319V218.1h7.319Z" transform="translate(-340.872 -217.48)" fill="#fff" opacity="0.2"/>
      <rect id="Rectangle_1068" data-name="Rectangle 1068" width="7.319" height="3.392" transform="translate(4.323 7.212)" opacity="0.2"/>
      <path id="Path_4577" data-name="Path 4577" d="M352.174,290.26l-7.864,5.755-.071-5.494Z" transform="translate(-340.532 -277.709)" opacity="0.2"/>
      <path id="Path_4578" data-name="Path 4578" d="M360.732,236.53a.172.172,0,0,0-.172.164v.623h.172v-.124a.172.172,0,0,1,.164-.172h1.776a.172.172,0,0,1,.164.172v.124h.172v-.623a.172.172,0,0,0-.172-.164Z" transform="translate(-354.038 -233.245)" fill="#ff735d"/>
      <rect id="Rectangle_1069" data-name="Rectangle 1069" width="2.123" height="0.933" transform="translate(6.696 1.961)" fill="#fff" opacity="0.2"/>
      <path id="Path_4579" data-name="Path 4579" d="M360.732,313a.172.172,0,0,0-.172.172v.624h.172v-.126a.172.172,0,0,1,.164-.172h1.776a.172.172,0,0,1,.164.172v.126h.172v-.624a.172.172,0,0,0-.172-.172Z" transform="translate(-354.038 -296.528)" fill="#ff735d"/>
      <rect id="Rectangle_1070" data-name="Rectangle 1070" width="2.123" height="0.933" transform="translate(6.696 15.155)" fill="#fff" opacity="0.2"/>
      <path id="Path_4580" data-name="Path 4580" d="M360.732,351a.172.172,0,0,0-.172.164v.623h.172v-.124a.172.172,0,0,1,.164-.172h1.776a.172.172,0,0,1,.164.172v.124h.172v-.614a.172.172,0,0,0-.172-.164Z" transform="translate(-354.038 -327.975)" fill="#ff735d"/>
      <rect id="Rectangle_1071" data-name="Rectangle 1071" width="2.123" height="0.933" transform="translate(6.696 21.708)" fill="#fff" opacity="0.2"/>
      <path id="Path_4581" data-name="Path 4581" d="M360.732,388.4a.172.172,0,0,0-.172.172v.617h.172v-.126a.173.173,0,0,1,.164-.164h1.776a.173.173,0,0,1,.164.164v.126h.172v-.622a.172.172,0,0,0-.172-.172Z" transform="translate(-354.038 -358.917)" fill="#ff735d"/>
      <rect id="Rectangle_1072" data-name="Rectangle 1072" width="2.123" height="0.933" transform="translate(6.696 28.156)" fill="#fff" opacity="0.2"/>
      <path id="Path_4582" data-name="Path 4582" d="M363.09,261.389v4.051h-5.66v-3.78a.267.267,0,0,1,.271-.271h2.932a.271.271,0,0,0,.252-.172l.083-.216v-.01a.11.11,0,0,1,.105-.071h1.759a.11.11,0,0,1,.105.071Z" transform="translate(-351.448 -253.429)" fill="#ff735d"/>
      <path id="Path_4583" data-name="Path 4583" d="M362.616,261.857v3.966H357.43v-3.775a.271.271,0,0,1,.078-.191h2.647a.266.266,0,0,0,.191-.079h.286a.271.271,0,0,0,.252-.172l.083-.216h1.39a.112.112,0,0,1,.107.072Z" transform="translate(-351.448 -253.818)" opacity="0.2"/>
      <path id="Path_4584" data-name="Path 4584" d="M358.348,263.079v4.053H352.69v-3.78a.267.267,0,0,1,.076-.191.276.276,0,0,1,.195-.081h2.932a.267.267,0,0,0,.25-.172l.083-.216h0a.116.116,0,0,1,.107-.071h1.757a.116.116,0,0,1,.107.071Z" transform="translate(-347.525 -254.836)" fill="#ff735d"/>
      <path id="Path_4585" data-name="Path 4585" d="M357.874,263.5v3.966H352.69V263.69a.267.267,0,0,1,.076-.191h2.649a.264.264,0,0,0,.191-.081h.285a.267.267,0,0,0,.25-.172l.083-.216h1.392a.117.117,0,0,1,.109.074Z" transform="translate(-347.525 -255.175)" opacity="0.2"/>
      <path id="Path_4586" data-name="Path 4586" d="M353.6,264.679v4.053h-5.66V264.95a.267.267,0,0,1,.078-.19.271.271,0,0,1,.193-.081h2.932a.269.269,0,0,0,.252-.172l.083-.216v-.009a.112.112,0,0,1,.105-.072h1.759a.112.112,0,0,1,.105.072Z" transform="translate(-343.594 -256.151)" fill="#ff735d"/>
      <path id="Path_4587" data-name="Path 4587" d="M353.124,265.149v3.966H347.94v-3.777a.267.267,0,0,1,.078-.19h2.647a.274.274,0,0,0,.193-.081h.283a.269.269,0,0,0,.252-.172l.083-.216h1.392a.114.114,0,0,1,.107.074Z" transform="translate(-343.594 -256.54)" opacity="0.2"/>
      <path id="Path_4588" data-name="Path 4588" d="M348.856,266.329v4.053H343.2V266.6a.261.261,0,0,1,.078-.19.268.268,0,0,1,.193-.081H346.4a.269.269,0,0,0,.25-.172l.083-.216v-.009a.117.117,0,0,1,.107-.072H348.6a.112.112,0,0,1,.107.072Z" transform="translate(-339.672 -257.517)" fill="#ff735d"/>
      <path id="Path_4589" data-name="Path 4589" d="M348.384,266.8v3.966H343.2v-3.777a.261.261,0,0,1,.078-.19h2.647a.271.271,0,0,0,.191-.081h.285a.269.269,0,0,0,.25-.172l.083-.216h1.393a.114.114,0,0,1,.107.074Z" transform="translate(-339.672 -257.906)" opacity="0.2"/>
      <path id="Path_4590" data-name="Path 4590" d="M344.11,268v4.051h-5.66v-3.78a.264.264,0,0,1,.078-.19.272.272,0,0,1,.195-.081h2.932a.271.271,0,0,0,.252-.172l.088-.212V267.6a.112.112,0,0,1,.105-.072h1.759a.112.112,0,0,1,.105.072Z" transform="translate(-335.741 -258.899)" fill="#ff735d"/>
      <path id="Path_4591" data-name="Path 4591" d="M343.635,268.466v3.966H338.45v-3.777a.264.264,0,0,1,.078-.19h2.647a.271.271,0,0,0,.193-.081h.281a.271.271,0,0,0,.252-.172l.093-.212h1.38a.117.117,0,0,1,.109.074Z" transform="translate(-335.741 -259.288)" opacity="0.2"/>
      <path id="Path_4592" data-name="Path 4592" d="M361.27,272.806l5-1.776v3.137l-4.477,1.814Z" transform="translate(-354.626 -261.795)" fill="#ff735d"/>
      <path id="Path_4593" data-name="Path 4593" d="M361.27,272.806l5-1.776v3.137l-4.477,1.814Z" transform="translate(-354.626 -261.795)" fill="#fff" opacity="0.5"/>
      <path id="Path_4594" data-name="Path 4594" d="M322.74,265.2l.783-.183h6.8l.309,6.132-.309.071Z" transform="translate(-322.74 -256.822)" fill="#ff735d"/>
      <path id="Path_4595" data-name="Path 4595" d="M330.319,272.1H323l-.26-6.02h7.319Z" transform="translate(-322.74 -257.699)" fill="#ff735d"/>
      <path id="Path_4596" data-name="Path 4596" d="M330.319,272.1H323l-.26-6.02h7.319Z" transform="translate(-322.74 -257.699)" fill="#fff" opacity="0.5"/>
      <path id="Path_4597" data-name="Path 4597" d="M330.319,265.02l-.26.183H322.74l.783-.183Z" transform="translate(-322.74 -256.822)" fill="#fff" opacity="0.7"/>
      <path id="Path_4598" data-name="Path 4598" d="M365.44,265.02l.309,6.132-.309.071-.26-6.02Z" transform="translate(-357.861 -256.822)" fill="#fff" opacity="0.4"/>
      <path id="Path_4599" data-name="Path 4599" d="M336.763,282.19a.157.157,0,0,0-.157.172l.033.631h.172v-.128a.155.155,0,0,1,.155-.172h1.776a.172.172,0,0,1,.172.172v.128h.172l-.031-.631a.172.172,0,0,0-.172-.172Z" transform="translate(-334.214 -271.031)" fill="#ff735d"/>
      <path id="Path_4600" data-name="Path 4600" d="M339.3,275.355h-2.123l-.048-.945h2.123Z" transform="translate(-334.648 -264.592)" fill="#fff" opacity="0.2"/>
    </g>
    <g id="freepik--Calculator--inject-2" transform="translate(11.037 72.692)">
      <rect id="Rectangle_1073" data-name="Rectangle 1073" width="19.149" height="29.53" rx="7.53" fill="#263238"/>
      <g id="Group_3022" data-name="Group 3022" transform="translate(0 7.888)" opacity="0.2">
        <path id="Path_4601" data-name="Path 4601" d="M64,203.33v20.292a1.352,1.352,0,0,0,1.354,1.352H81.8a1.354,1.354,0,0,0,1.347-1.352V203.33Z" transform="translate(-64 -203.33)" fill="#fff"/>
      </g>
      <rect id="Rectangle_1074" data-name="Rectangle 1074" width="3.127" height="2.002" rx="1.001" transform="translate(1.833 13.774)" fill="#263238"/>
      <rect id="Rectangle_1075" data-name="Rectangle 1075" width="3.127" height="2.002" rx="1.001" transform="translate(5.953 13.774)" fill="#263238"/>
      <rect id="Rectangle_1076" data-name="Rectangle 1076" width="3.127" height="2.002" rx="1.001" transform="translate(10.074 13.774)" fill="#263238"/>
      <rect id="Rectangle_1077" data-name="Rectangle 1077" width="3.127" height="2.002" rx="1.001" transform="translate(14.194 13.774)" fill="#263238"/>
      <rect id="Rectangle_1078" data-name="Rectangle 1078" width="3.127" height="2.002" rx="1.001" transform="translate(14.194 8.904)" fill="#263238"/>
      <rect id="Rectangle_1079" data-name="Rectangle 1079" width="3.127" height="2.002" rx="1.001" transform="translate(10.002 8.904)" fill="#263238"/>
      <g id="Group_3023" data-name="Group 3023" transform="translate(1.828 11.778)" opacity="0.3">
        <rect id="Rectangle_1080" data-name="Rectangle 1080" width="1.869" height="1.104" rx="0.552" fill="#fff"/>
      </g>
      <g id="Group_3024" data-name="Group 3024" transform="translate(4.553 11.778)" opacity="0.3">
        <rect id="Rectangle_1081" data-name="Rectangle 1081" width="1.869" height="1.104" rx="0.552" fill="#fff"/>
      </g>
      <g id="Group_3025" data-name="Group 3025" transform="translate(7.277 11.778)" opacity="0.3">
        <rect id="Rectangle_1082" data-name="Rectangle 1082" width="1.869" height="1.104" rx="0.552" fill="#fff"/>
      </g>
      <g id="Group_3026" data-name="Group 3026" transform="translate(10.002 11.778)" opacity="0.3">
        <rect id="Rectangle_1083" data-name="Rectangle 1083" width="1.869" height="1.104" rx="0.552" fill="#fff"/>
      </g>
      <g id="Group_3027" data-name="Group 3027" transform="translate(12.727 11.778)" opacity="0.3">
        <rect id="Rectangle_1084" data-name="Rectangle 1084" width="1.869" height="1.104" rx="0.552" fill="#fff"/>
      </g>
      <g id="Group_3028" data-name="Group 3028" transform="translate(15.451 11.778)" opacity="0.3">
        <rect id="Rectangle_1085" data-name="Rectangle 1085" width="1.869" height="1.104" rx="0.552" fill="#fff"/>
      </g>
      <g id="Group_3029" data-name="Group 3029" transform="translate(1.828 8.904)" opacity="0.2">
        <rect id="Rectangle_1086" data-name="Rectangle 1086" width="0.935" height="2.002"/>
      </g>
      <g id="Group_3030" data-name="Group 3030" transform="translate(2.928 8.904)" opacity="0.2">
        <rect id="Rectangle_1087" data-name="Rectangle 1087" width="0.935" height="2.002"/>
      </g>
      <g id="Group_3031" data-name="Group 3031" transform="translate(4.03 8.904)" opacity="0.2">
        <rect id="Rectangle_1088" data-name="Rectangle 1088" width="0.935" height="2.002"/>
      </g>
      <g id="Group_3032" data-name="Group 3032" transform="translate(5.13 8.904)" opacity="0.2">
        <rect id="Rectangle_1089" data-name="Rectangle 1089" width="0.935" height="2.002"/>
      </g>
      <g id="Group_3033" data-name="Group 3033" transform="translate(6.232 8.904)" opacity="0.2">
        <rect id="Rectangle_1090" data-name="Rectangle 1090" width="0.935" height="2.002"/>
      </g>
      <g id="Group_3034" data-name="Group 3034" transform="translate(7.334 8.904)" opacity="0.2">
        <rect id="Rectangle_1091" data-name="Rectangle 1091" width="0.935" height="2.002"/>
      </g>
      <rect id="Rectangle_1092" data-name="Rectangle 1092" width="3.127" height="2.002" rx="1.001" transform="translate(1.833 16.559)" fill="#263238"/>
      <rect id="Rectangle_1093" data-name="Rectangle 1093" width="3.127" height="2.002" rx="1.001" transform="translate(5.953 16.559)" fill="#263238"/>
      <rect id="Rectangle_1094" data-name="Rectangle 1094" width="3.127" height="2.002" rx="1.001" transform="translate(10.074 16.559)" fill="#263238"/>
      <rect id="Rectangle_1095" data-name="Rectangle 1095" width="3.127" height="2.002" rx="1.001" transform="translate(14.194 16.559)" fill="#263238"/>
      <rect id="Rectangle_1096" data-name="Rectangle 1096" width="3.127" height="2.002" rx="1.001" transform="translate(1.833 19.342)" fill="#263238"/>
      <rect id="Rectangle_1097" data-name="Rectangle 1097" width="3.127" height="2.002" rx="1.001" transform="translate(5.953 19.342)" fill="#263238"/>
      <rect id="Rectangle_1098" data-name="Rectangle 1098" width="3.127" height="2.002" rx="1.001" transform="translate(10.074 19.342)" fill="#263238"/>
      <rect id="Rectangle_1099" data-name="Rectangle 1099" width="3.127" height="2.002" rx="1.001" transform="translate(14.194 19.342)" fill="#263238"/>
      <rect id="Rectangle_1100" data-name="Rectangle 1100" width="3.127" height="2.002" rx="1.001" transform="translate(1.833 22.127)" fill="#263238"/>
      <rect id="Rectangle_1101" data-name="Rectangle 1101" width="3.127" height="2.002" rx="1.001" transform="translate(5.953 22.127)" fill="#263238"/>
      <rect id="Rectangle_1102" data-name="Rectangle 1102" width="3.127" height="2.002" rx="1.001" transform="translate(10.074 22.127)" fill="#263238"/>
      <rect id="Rectangle_1103" data-name="Rectangle 1103" width="3.127" height="2.002" rx="1.001" transform="translate(1.833 24.91)" fill="#263238"/>
      <rect id="Rectangle_1104" data-name="Rectangle 1104" width="3.127" height="2.002" rx="1.001" transform="translate(5.953 24.91)" fill="#263238"/>
      <rect id="Rectangle_1105" data-name="Rectangle 1105" width="3.127" height="2.002" rx="1.001" transform="translate(10.074 24.91)" fill="#263238"/>
      <path id="Path_4602" data-name="Path 4602" d="M149.218,285.9h-2.688a.217.217,0,0,0-.219.217v4.349a.219.219,0,0,0,.219.219h2.688a.219.219,0,0,0,.219-.219v-4.349a.217.217,0,0,0-.219-.217Z" transform="translate(-132.116 -263.773)" fill="#263238"/>
      <g id="Group_3035" data-name="Group 3035" transform="translate(1.828 2.559)" opacity="0.4">
        <rect id="Rectangle_1106" data-name="Rectangle 1106" width="15.493" height="3.806" fill="#fff"/>
      </g>
      <path id="Path_4603" data-name="Path 4603" d="M91.657,183.675v.245h-.14v-.245a.862.862,0,0,1-.517-.186l.079-.172a.747.747,0,0,0,.445.172v-.5c-.238-.057-.488-.133-.488-.426,0-.214.153-.4.488-.426v-.247h.136v.245a.852.852,0,0,1,.438.131l-.071.172a.761.761,0,0,0-.367-.121v.5c.241.06.5.131.5.426C92.157,183.461,92,183.647,91.657,183.675Zm-.14-.886v-.466c-.193.024-.276.121-.276.235S91.366,182.747,91.517,182.788Zm.426.474c0-.138-.129-.193-.29-.236v.464c.209-.019.293-.112.293-.228Z" transform="translate(-86.344 -177.699)" fill="#263238"/>
      <path id="Path_4604" data-name="Path 4604" d="M98.737,183.41v1.509h-.212V183.6H98.18v-.188Z" transform="translate(-92.286 -178.957)" fill="#263238"/>
      <path id="Path_4605" data-name="Path 4605" d="M103.914,184.457c0,.255-.188.462-.571.462a.848.848,0,0,1-.554-.185l.1-.172a.674.674,0,0,0,.454.16c.226,0,.355-.1.355-.266s-.114-.264-.372-.264h-.121v-.15l.379-.466h-.726v-.188h1v.147l-.393.488C103.761,184.056,103.914,184.225,103.914,184.457Z" transform="translate(-96.101 -178.941)" fill="#263238"/>
      <path id="Path_4606" data-name="Path 4606" d="M110.45,190.667a.145.145,0,0,1,.147-.147.141.141,0,0,1,.141.147.143.143,0,0,1-.141.148.147.147,0,0,1-.147-.148Z" transform="translate(-102.44 -184.841)" fill="#263238"/>
      <path id="Path_4607" data-name="Path 4607" d="M114.024,184.457c0,.255-.188.462-.571.462a.848.848,0,0,1-.554-.185l.1-.172a.674.674,0,0,0,.454.16c.226,0,.355-.1.355-.266s-.114-.264-.372-.264h-.121v-.15l.379-.466h-.726v-.188h1v.147l-.393.488C113.871,184.056,114.024,184.225,114.024,184.457Z" transform="translate(-104.467 -178.941)" fill="#263238"/>
      <path id="Path_4608" data-name="Path 4608" d="M121.487,184.026a.694.694,0,0,1-.712.792.724.724,0,0,1-.374-.09l.081-.172a.531.531,0,0,0,.291.071c.305,0,.5-.191.5-.567V184a.5.5,0,0,1-.435.2.464.464,0,0,1-.517-.457.485.485,0,0,1,.531-.476C121.26,183.274,121.487,183.547,121.487,184.026Zm-.264-.288c0-.155-.126-.291-.36-.291a.3.3,0,0,0-.331.293c0,.172.131.291.345.291a.316.316,0,0,0,.347-.293Z" transform="translate(-110.608 -178.839)" fill="#263238"/>
      <path id="Path_4609" data-name="Path 4609" d="M128.973,184.685v.188h-1.085v-.147l.614-.593c.16-.155.19-.25.19-.345,0-.155-.11-.25-.321-.25a.474.474,0,0,0-.386.172l-.145-.126a.69.69,0,0,1,.55-.229c.316,0,.517.162.517.421a.61.61,0,0,1-.248.474l-.46.443Z" transform="translate(-116.831 -178.912)" fill="#263238"/>
      <path id="Path_4610" data-name="Path 4610" d="M135.53,190.667a.145.145,0,0,1,.147-.147.147.147,0,0,1,0,.295.147.147,0,0,1-.147-.148Z" transform="translate(-123.195 -184.841)" fill="#263238"/>
      <path id="Path_4611" data-name="Path 4611" d="M138.25,184.081c0-.49.262-.771.616-.771s.614.281.614.771-.264.773-.614.773S138.25,184.572,138.25,184.081Zm1.014,0c0-.385-.164-.579-.4-.579s-.4.195-.4.579.164.579.4.579S139.264,184.464,139.264,184.081Z" transform="translate(-125.446 -178.875)" fill="#263238"/>
      <path id="Path_4612" data-name="Path 4612" d="M146.58,184.081c0-.49.264-.771.616-.771s.614.281.614.771-.262.773-.614.773S146.58,184.572,146.58,184.081Zm1.014,0c0-.385-.162-.579-.4-.579s-.4.195-.4.579.164.579.4.579S147.594,184.464,147.594,184.081Z" transform="translate(-132.339 -178.875)" fill="#263238"/>
      <path id="Path_4613" data-name="Path 4613" d="M154.92,184.081c0-.49.262-.771.616-.771s.614.281.614.771-.262.773-.614.773S154.92,184.572,154.92,184.081Zm1.014,0c0-.385-.172-.579-.4-.579s-.4.195-.4.579.172.579.4.579S155.934,184.464,155.934,184.081Z" transform="translate(-139.241 -178.875)" fill="#263238"/>
    </g>
    <g id="freepik--character-1--inject-2" transform="translate(22.454 82.61)">
      <rect id="Rectangle_1107" data-name="Rectangle 1107" width="10.159" height="4.746" transform="translate(13.215 19.548)" fill="#ff735d"/>
      <rect id="Rectangle_1108" data-name="Rectangle 1108" width="10.159" height="4.746" transform="translate(13.215 19.548)" fill="#fff" opacity="0.6"/>
      <path id="Path_4614" data-name="Path 4614" d="M231.349,332.58H224.08l7.269.212Z" transform="translate(-207.975 -312.322)" opacity="0.2"/>
      <path id="Path_4615" data-name="Path 4615" d="M216.12,336.271l6.726-.081-6.726.293Z" transform="translate(-201.388 -315.309)" opacity="0.2"/>
      <path id="Path_4616" data-name="Path 4616" d="M232.375,342c-.172.01-7.055.154-7.055.154l7.055.269Z" transform="translate(-209.001 -320.117)" opacity="0.2"/>
      <path id="Path_4617" data-name="Path 4617" d="M216.12,347.84l5.353.116-5.353.117Z" transform="translate(-201.388 -324.95)" opacity="0.2"/>
      <path id="Path_4618" data-name="Path 4618" d="M241.354,351.04l-5.184.19h5.184Z" transform="translate(-217.98 -327.598)" opacity="0.2"/>
      <path id="Path_4619" data-name="Path 4619" d="M145.422,327.853v4.32h9.093v.383H130.69V327.47h23.826v.383Z" transform="translate(-130.69 -308.093)" fill="#ff735d"/>
      <path id="Path_4620" data-name="Path 4620" d="M145.422,327.853v4.32h9.093v.383H130.69V327.47h23.826v.383Z" transform="translate(-130.69 -308.093)" fill="#fff" opacity="0.2"/>
      <path id="Path_4621" data-name="Path 4621" d="M212.909,327.853v4.32H222v.383H212.24V327.47H222v.383Z" transform="translate(-198.177 -308.093)" opacity="0.2"/>
      <rect id="Rectangle_1109" data-name="Rectangle 1109" width="7.615" height="1.726" transform="translate(4.737 21.057)" fill="#fff" opacity="0.6"/>
      <circle id="Ellipse_160" data-name="Ellipse 160" cx="1.033" cy="1.033" r="1.033" transform="translate(1.611 20.886)" fill="#fff" opacity="0.6"/>
      <path id="Path_4622" data-name="Path 4622" d="M143.093,338.772a.76.76,0,1,1-.056-.581.762.762,0,0,1,.056.581Z" transform="translate(-139.72 -316.631)" opacity="0.2"/>
      <rect id="Rectangle_1110" data-name="Rectangle 1110" width="10.159" height="4.746" transform="translate(15.189 24.632)" fill="#ff735d"/>
      <rect id="Rectangle_1111" data-name="Rectangle 1111" width="10.159" height="4.746" transform="translate(15.189 24.632)" fill="#fff" opacity="0.6"/>
      <path id="Path_4623" data-name="Path 4623" d="M242.807,362.06H235.54l7.267.214Z" transform="translate(-217.459 -336.718)" opacity="0.2"/>
      <path id="Path_4624" data-name="Path 4624" d="M227.57,365.751l6.727-.081-6.727.295Z" transform="translate(-210.863 -339.705)" opacity="0.2"/>
      <path id="Path_4625" data-name="Path 4625" d="M243.825,371.48c-.162.01-7.055.152-7.055.152l7.055.271Z" transform="translate(-218.477 -344.513)" opacity="0.2"/>
      <path id="Path_4626" data-name="Path 4626" d="M227.57,377.33l5.353.114-5.353.119Z" transform="translate(-210.863 -349.355)" opacity="0.2"/>
      <path id="Path_4627" data-name="Path 4627" d="M252.8,380.52l-5.184.19H252.8Z" transform="translate(-227.455 -351.994)" opacity="0.2"/>
      <path id="Path_4628" data-name="Path 4628" d="M156.881,357.343v4.318h9.093v.383H142.15V356.96h23.824v.383Z" transform="translate(-140.174 -332.497)" fill="#263238"/>
      <path id="Path_4629" data-name="Path 4629" d="M224.359,357.343v4.318h9.093v.383H223.69V356.96h9.762v.383Z" transform="translate(-207.652 -332.497)" opacity="0.2"/>
      <rect id="Rectangle_1112" data-name="Rectangle 1112" width="7.615" height="1.726" transform="translate(6.713 26.141)" fill="#fff" opacity="0.6"/>
      <path id="Path_4630" data-name="Path 4630" d="M153.529,366.735a1.035,1.035,0,1,1-1.035-1.035,1.035,1.035,0,0,1,1.035,1.035Z" transform="translate(-147.878 -339.73)" fill="#fff" opacity="0.6"/>
      <path id="Path_4631" data-name="Path 4631" d="M154.543,368.272a.762.762,0,1,1-.507-.952A.762.762,0,0,1,154.543,368.272Z" transform="translate(-149.195 -341.044)" opacity="0.2"/>
      <rect id="Rectangle_1113" data-name="Rectangle 1113" width="10.159" height="4.746" transform="translate(13.775 29.71)" fill="#ff735d"/>
      <rect id="Rectangle_1114" data-name="Rectangle 1114" width="10.159" height="4.746" transform="translate(13.775 29.71)" fill="#fff" opacity="0.6"/>
      <path id="Path_4632" data-name="Path 4632" d="M234.607,391.51H227.34l7.267.214Z" transform="translate(-210.673 -361.089)" opacity="0.2"/>
      <path id="Path_4633" data-name="Path 4633" d="M219.37,395.2l6.726-.083-6.726.295Z" transform="translate(-204.077 -364.077)" opacity="0.2"/>
      <path id="Path_4634" data-name="Path 4634" d="M235.625,400.93c-.162.01-7.055.152-7.055.152l7.055.271Z" transform="translate(-211.691 -368.885)" opacity="0.2"/>
      <path id="Path_4635" data-name="Path 4635" d="M219.37,406.78l5.353.114-5.353.119Z" transform="translate(-204.077 -373.726)" opacity="0.2"/>
      <path id="Path_4636" data-name="Path 4636" d="M244.6,409.97l-5.184.19H244.6Z" transform="translate(-220.67 -376.366)" opacity="0.2"/>
      <path id="Path_4637" data-name="Path 4637" d="M148.672,386.793v4.318h9.093v.383H133.94V386.41h23.826v.383Z" transform="translate(-133.38 -356.869)" fill="#ff735d"/>
      <path id="Path_4638" data-name="Path 4638" d="M216.159,386.793v4.318h9.093v.383H215.49V386.41h9.762v.383Z" transform="translate(-200.866 -356.869)" opacity="0.2"/>
      <rect id="Rectangle_1115" data-name="Rectangle 1115" width="7.615" height="1.726" transform="translate(5.298 31.219)" fill="#fff" opacity="0.6"/>
      <path id="Path_4639" data-name="Path 4639" d="M145.329,396.185a1.035,1.035,0,1,1-1.035-1.035A1.035,1.035,0,0,1,145.329,396.185Z" transform="translate(-141.092 -364.102)" fill="#fff" opacity="0.6"/>
      <path id="Path_4640" data-name="Path 4640" d="M146.343,397.712a.762.762,0,1,1-.507-.952.762.762,0,0,1,.507.952Z" transform="translate(-142.41 -365.407)" opacity="0.2"/>
      <g id="freepik--group--inject-2" transform="translate(0.893 0)">
        <path id="Path_4641" data-name="Path 4641" d="M168.082,253.169c-.043.824-.114,1.635-.217,2.454-.05.409-.11.819-.183,1.235-.038.209-.076.417-.128.635-.022.105-.057.224-.086.336-.014.055-.04.128-.06.19l-.034.1-.01.028-.022.055c-.017.038-.035.072-.05.1a1.381,1.381,0,0,1-.2.264,1.924,1.924,0,0,1-.172.172,3.042,3.042,0,0,1-.322.233,6.358,6.358,0,0,1-.6.329c-.395.191-.785.345-1.178.49a20.567,20.567,0,0,1-2.38.692.438.438,0,0,1-.295-.817h.009c.714-.357,1.437-.719,2.133-1.086.345-.185.69-.376,1.005-.573a4.88,4.88,0,0,0,.435-.3,1.383,1.383,0,0,0,.159-.14.494.494,0,0,0,.04-.045c0-.01,0-.012-.019.019l-.017.031-.009.021h0l.01-.048a.8.8,0,0,1,.022-.1c.014-.086.031-.162.043-.257.026-.172.05-.371.072-.562.04-.386.074-.779.11-1.174l.19-2.382h0a.878.878,0,1,1,1.752.116Z" transform="translate(-157.417 -245.839)" fill="#ff8b7b"/>
        <path id="Path_4642" data-name="Path 4642" d="M158.751,294.27l-1.171.066.469,1.326s1.052-.186,1.035-.762Z" transform="translate(-153.836 -280.618)" fill="#ff8b7b"/>
        <path id="Path_4643" data-name="Path 4643" d="M152.585,295.552l.241.436a.407.407,0,0,0,.493.186l.554-.2-.469-1.326-.654.345a.407.407,0,0,0-.166.557Z" transform="translate(-149.66 -280.933)" fill="#ff8b7b"/>
        <path id="Path_4644" data-name="Path 4644" d="M183.212,252.91c1.68.141,2.721-.036,2.551,1.788a14.233,14.233,0,0,1-.364,2.447h-2.111s-.288-3.339-.288-3.654A1.073,1.073,0,0,1,183.212,252.91Z" transform="translate(-174.873 -246.391)" fill="#ff735d"/>
        <path id="Path_4645" data-name="Path 4645" d="M185.792,254.675c-.012.141-.024.276-.038.4-.076.705-.15,1.2-.212,1.521a5.068,5.068,0,0,1-.114.517h-2.107s-.01-.138-.029-.359c-.074-.862-.252-3.044-.252-3.3a1.081,1.081,0,0,1,.205-.583C184.93,253.028,185.965,252.849,185.792,254.675Z" transform="translate(-174.906 -246.366)" fill="#fff" opacity="0.7"/>
        <path id="Path_4646" data-name="Path 4646" d="M184.11,274.493l2.718-.193-.486.993H184.11Z" transform="translate(-175.791 -264.092)" fill="#ff735d"/>
        <path id="Path_4647" data-name="Path 4647" d="M186.82,274.29l-.486,1H184.1v-.8l.069-.005,1.148-.081,1.105-.081Z" transform="translate(-175.783 -264.084)" fill="#ff735d"/>
        <path id="Path_4648" data-name="Path 4648" d="M186.82,274.29l-.486,1H184.1v-.8l.069-.005,1.148-.081,1.105-.081Z" transform="translate(-175.783 -264.084)" fill="#fff" opacity="0.6"/>
        <path id="Path_4649" data-name="Path 4649" d="M191.607,262.324l-.486.995h-.4a1.331,1.331,0,0,1-.417-.447,2.123,2.123,0,0,1-.2-.44,6.784,6.784,0,0,1-.16-2.6,2.816,2.816,0,0,1,1.478,1c-.076.705-.15,1.2-.212,1.521Z" transform="translate(-180.57 -252.117)" opacity="0.2"/>
        <path id="Path_4650" data-name="Path 4650" d="M178.778,388.534l-1.3.083L176.45,386.2l1.3-.083Z" transform="translate(-169.452 -356.629)" fill="#e4897b"/>
        <path id="Path_4651" data-name="Path 4651" d="M177.752,386.12l-1.3.083.531,1.245,1.3-.083Z" transform="translate(-169.452 -356.629)" opacity="0.2"/>
        <path id="Path_4652" data-name="Path 4652" d="M172,395.35l1.29-.612a.107.107,0,0,1,.126.031l.657.847a.172.172,0,0,1-.033.243.2.2,0,0,1-.033.019c-.421.191-.736.31-1.261.559-.324.153-1.281.648-1.725.862s-.712-.2-.55-.329a4.553,4.553,0,0,0,1.38-1.466A.286.286,0,0,1,172,395.35Z" transform="translate(-164.465 -363.753)" fill="#263238"/>
        <path id="Path_4653" data-name="Path 4653" d="M176.3,399.254a.353.353,0,0,1-.229.043.172.172,0,0,1-.116-.109.085.085,0,0,1,.009-.091c.09-.117.533-.069.581-.062a.026.026,0,0,1,.024.019.031.031,0,0,1-.009.031,1.476,1.476,0,0,1-.26.169Zm-.262-.145a.071.071,0,0,0-.029.021.041.041,0,0,0,0,.038.112.112,0,0,0,.076.074.564.564,0,0,0,.388-.16,1.111,1.111,0,0,0-.429.028Z" transform="translate(-169.034 -367.303)" fill="#ff735d"/>
        <path id="Path_4654" data-name="Path 4654" d="M186.32,249.592c0-1.23-.2-4.984-2.09-6.726a5.587,5.587,0,0,1,1.178-.971,7.119,7.119,0,0,1,3.133-1.078,4.354,4.354,0,0,1,1.83.155s2.147,2.564,2.3,8.622Z" transform="translate(-175.89 -236.352)" fill="#ff735d"/>
        <path id="Path_4655" data-name="Path 4655" d="M192.67,249.592h-6.35c0-.186,0-.429-.022-.714a16.163,16.163,0,0,0-.195-1.819,7.385,7.385,0,0,0-1.873-4.185,5.571,5.571,0,0,1,1.176-.973,7.156,7.156,0,0,1,3.135-1.083,4.354,4.354,0,0,1,1.83.155,6.192,6.192,0,0,1,.619,1,11.522,11.522,0,0,1,.616,1.431c.086.235.172.488.252.764a17.739,17.739,0,0,1,.559,2.511,23.536,23.536,0,0,1,.253,2.913Z" transform="translate(-175.89 -236.352)" fill="#fff" opacity="0.7"/>
        <path id="Path_4656" data-name="Path 4656" d="M177.072,397.529h-.014c-.136-.009-.46-.141-.491-.264a.091.091,0,0,1,.05-.105.153.153,0,0,1,.122-.017c.172.041.345.335.345.345a.026.026,0,0,1,0,.029A.019.019,0,0,1,177.072,397.529Zm-.419-.329h-.012c-.033.016-.026.036-.024.043.019.076.238.188.386.219a.654.654,0,0,0-.283-.272A.091.091,0,0,0,176.653,397.2Z" transform="translate(-169.546 -365.746)" fill="#ff735d"/>
        <path id="Path_4657" data-name="Path 4657" d="M160.615,289.338,160.4,286.8l-6.341.447-.281,2.131s-7.415-.291-8.324,1.687c-1.4,3.042,5.161,13.639,5.161,13.639l1.668-.2s-3.682-10.454-3.216-10.888c.321-.3,7.143-.231,7.143-.231S161.048,293.4,160.615,289.338Z" transform="translate(-143.639 -274.436)" fill="#263238"/>
        <path id="Path_4658" data-name="Path 4658" d="M156.229,293.379s-1.862-.019-3.687,0a16.528,16.528,0,0,0-3.449.224c-.047.043-.052.172-.026.393h0c.236,1.985,3.237,10.5,3.237,10.5l-1.668.2s-6.553-10.6-5.16-13.639c.907-1.978,8.324-1.685,8.324-1.685l.281-2.133,6.341-.448.216,2.54C161.066,293.4,156.229,293.379,156.229,293.379Z" transform="translate(-143.66 -274.428)" fill="#fff" opacity="0.4"/>
        <path id="Path_4659" data-name="Path 4659" d="M173.666,388.489l2.106-.336-.2-.573-2.29.478Z" transform="translate(-166.829 -357.837)" fill="#ff735d"/>
        <path id="Path_4660" data-name="Path 4660" d="M173.666,388.489l2.106-.336-.2-.573-2.29.478Z" transform="translate(-166.829 -357.837)" fill="#fff" opacity="0.5"/>
        <path id="Path_4661" data-name="Path 4661" d="M200.391,288.58l.034.811-4.115-.019-.01-.6Z" transform="translate(-185.879 -275.909)" fill="#263238"/>
        <path id="Path_4662" data-name="Path 4662" d="M221.4,288.047l2.042-.1.043.928-2.085-.009Z" transform="translate(-206.651 -275.388)" fill="#263238"/>
        <path id="Path_4663" data-name="Path 4663" d="M203.056,289.611l.8.04a.129.129,0,0,0,.145-.121v-.571a.131.131,0,0,0-.145-.122l-.8.04a.122.122,0,0,0-.116.119v.5a.119.119,0,0,0,.116.117Z" transform="translate(-191.374 -276.121)" fill="#fff"/>
        <path id="Path_4664" data-name="Path 4664" d="M195.312,388.468l-1.3-.064-.748-2.514,1.3.064Z" transform="translate(-183.363 -356.438)" fill="#e4897b"/>
        <path id="Path_4665" data-name="Path 4665" d="M194.562,385.954l-1.3-.064.386,1.3,1.3.064Z" transform="translate(-183.363 -356.438)" opacity="0.2"/>
        <path id="Path_4666" data-name="Path 4666" d="M189.267,396.176l1.264-.662a.1.1,0,0,1,.128.026l.69.819a.172.172,0,0,1-.024.245.121.121,0,0,1-.031.021c-.414.207-.724.345-1.238.607-.317.172-1.255.7-1.693.926s-.719-.172-.562-.307a4.643,4.643,0,0,0,1.326-1.518A.281.281,0,0,1,189.267,396.176Z" transform="translate(-178.808 -364.393)" fill="#263238"/>
        <path id="Path_4667" data-name="Path 4667" d="M193.334,400.374a.345.345,0,0,1-.228.052.173.173,0,0,1-.121-.105.085.085,0,0,1,0-.091c.083-.121.528-.09.578-.085a.026.026,0,0,1,.024.017.029.029,0,0,1,0,.031A1.379,1.379,0,0,1,193.334,400.374Zm-.267-.134a.064.064,0,0,0-.029.022s0,.017,0,.038a.112.112,0,0,0,.079.071.569.569,0,0,0,.381-.172A1.14,1.14,0,0,0,193.067,400.24Z" transform="translate(-183.125 -368.229)" fill="#ff735d"/>
        <path id="Path_4668" data-name="Path 4668" d="M194.017,398.682H194c-.136,0-.466-.122-.5-.243a.091.091,0,0,1,.047-.107.15.15,0,0,1,.121-.022c.172.034.345.321.362.335a.029.029,0,0,1,0,.029A.022.022,0,0,1,194.017,398.682Zm-.431-.314h-.012c-.033.016-.024.036-.022.043.022.074.245.172.395.2a.67.67,0,0,0-.293-.26A.09.09,0,0,0,193.585,398.368Z" transform="translate(-183.561 -366.713)" fill="#ff735d"/>
        <path id="Path_4669" data-name="Path 4669" d="M190.939,388.706l2.123.195-.053-.605-2.338-.105Z" transform="translate(-181.22 -358.342)" fill="#ff735d"/>
        <path id="Path_4670" data-name="Path 4670" d="M190.939,388.706l2.123.195-.053-.605-2.338-.105Z" transform="translate(-181.22 -358.342)" fill="#fff" opacity="0.5"/>
        <path id="Path_4671" data-name="Path 4671" d="M169.987,309.757a16.532,16.532,0,0,0-3.449.224c-.047.043-.052.172-.026.393-1.14-3.794,4.61-3.794,4.61-3.794C171.632,307.439,170.97,308.767,169.987,309.757Z" transform="translate(-161.104 -290.805)" opacity="0.2"/>
        <path id="Path_4672" data-name="Path 4672" d="M181.9,296.73s.936,3.208-.578,4.623-6.351.769-6.351.769L176.7,312.79h-1.849s-4.5-10.185-3.483-12.67,8.081-1.964,8.081-1.964Z" transform="translate(-165.121 -282.654)" fill="#263238"/>
        <path id="Path_4673" data-name="Path 4673" d="M181.9,296.73s.936,3.208-.578,4.623-6.351.769-6.351.769L176.7,312.79h-1.849s-4.5-10.185-3.483-12.67,8.081-1.964,8.081-1.964Z" transform="translate(-165.121 -282.654)" fill="#fff" opacity="0.4"/>
        <path id="Path_4674" data-name="Path 4674" d="M194.973,240.65a4.739,4.739,0,0,1,2.088,0l-1.18,2.233-.862-.436-.309.585s-.933-.907-.807-1.357C194.02,241.276,194.973,240.65,194.973,240.65Z" transform="translate(-183.886 -236.142)" fill="#ff735d"/>
        <path id="Path_4675" data-name="Path 4675" d="M192.257,236.935a1.483,1.483,0,0,1-.195.159,1.362,1.362,0,0,0,1.4.612c.967-.153,1.247-1.6,1.247-1.6a3.187,3.187,0,0,1-.912-.122c-.281-.122-.862-1-.862-1l-.172.152-1.1.947s.783.447.764.614A.435.435,0,0,1,192.257,236.935Z" transform="translate(-182.039 -231.561)" fill="#e4897b"/>
        <path id="Path_4676" data-name="Path 4676" d="M215.5,262.734c-.981,2.183-3.67,2.52-3.356,2.045a24.182,24.182,0,0,0,.723-4.223,4.567,4.567,0,0,1,2.069-.333A17.734,17.734,0,0,1,215.5,262.734Z" transform="translate(-198.973 -252.416)" opacity="0.2"/>
        <path id="Path_4677" data-name="Path 4677" d="M192.334,237.455a.434.434,0,0,1-.157.233c.821-.172.579-1.788.579-1.788h-.09l-1.1.947S192.358,237.3,192.334,237.455Z" transform="translate(-181.965 -232.314)" opacity="0.2"/>
        <path id="Path_4678" data-name="Path 4678" d="M177.11,222.5a2.219,2.219,0,0,0,.917,1.85c.936.5.529-2.487.529-2.487Z" transform="translate(-169.998 -220.695)" fill="#263238"/>
        <path id="Path_4679" data-name="Path 4679" d="M179.133,223.331a3.855,3.855,0,0,0,.205.405c.024.038.047.074.072.109l.026.033a1.624,1.624,0,0,0,1.035.629,1.49,1.49,0,0,0,.2.022,1.456,1.456,0,0,0,1.38-.762.291.291,0,0,0,.029-.05c.385-.745.164-1.4-.117-2.526a1.6,1.6,0,0,0-2.575-.862C178.545,221,178.712,222.382,179.133,223.331Z" transform="translate(-171.385 -219.124)" fill="#e4897b"/>
        <path id="Path_4680" data-name="Path 4680" d="M186.8,231.345a.147.147,0,0,1-.055.2c-.06.019-.131-.041-.159-.131a.158.158,0,0,1,.055-.2C186.7,231.19,186.773,231.248,186.8,231.345Z" transform="translate(-177.833 -228.432)" fill="#263238"/>
        <path id="Path_4681" data-name="Path 4681" d="M180.922,233.178a.147.147,0,0,1-.055.2c-.059.019-.131-.041-.159-.131a.158.158,0,0,1,.055-.2C180.818,233.022,180.886,233.091,180.922,233.178Z" transform="translate(-172.967 -229.949)" fill="#263238"/>
        <path id="Path_4682" data-name="Path 4682" d="M183.01,233.49a3.427,3.427,0,0,1-.19.911.555.555,0,0,0,.46-.055Z" transform="translate(-174.724 -230.32)" fill="#de5753"/>
        <path id="Path_4683" data-name="Path 4683" d="M185.888,227.42a.06.06,0,0,1-.059,0,.452.452,0,0,0-.4,0,.055.055,0,1,1-.057-.095h0a.554.554,0,0,1,.507,0,.057.057,0,0,1,.028.074h0A.066.066,0,0,1,185.888,227.42Z" transform="translate(-176.813 -225.167)" fill="#263238"/>
        <path id="Path_4684" data-name="Path 4684" d="M186.794,236.937h0a.862.862,0,0,0,.345-.71.029.029,0,0,0-.033-.028.028.028,0,0,0-.026.031h0a.817.817,0,0,1-.321.659.028.028,0,0,0,0,.04h0a.028.028,0,0,0,.04,0Z" transform="translate(-177.977 -232.561)" fill="#263238"/>
        <path id="Path_4685" data-name="Path 4685" d="M178.385,230.628a.047.047,0,0,1-.04-.083h0a.554.554,0,0,1,.467-.2.053.053,0,0,1,.047.062h0a.057.057,0,0,1-.062.048h0a.447.447,0,0,0-.367.172A.052.052,0,0,1,178.385,230.628Z" transform="translate(-171.005 -227.715)" fill="#263238"/>
        <path id="Path_4686" data-name="Path 4686" d="M190.578,222.984h0a.241.241,0,0,1-.39-.157c-.04-.367-.147-.679-.241-.681-.172,0-.126.172-.126.172a1.4,1.4,0,0,1-.743-1.221.412.412,0,0,0-.617-.381s1.13-.816,1.452-.569a2.957,2.957,0,0,1,.762,2.128A2.241,2.241,0,0,1,190.578,222.984Z" transform="translate(-179.391 -219.239)" fill="#263238"/>
        <path id="Path_4687" data-name="Path 4687" d="M196.421,228.6a1.112,1.112,0,0,1-.44.724c-.314.228-.605-.021-.631-.388-.021-.328.112-.85.485-.93a.495.495,0,0,1,.586.593Z" transform="translate(-185.091 -225.773)" fill="#e4897b"/>
        <path id="Path_4688" data-name="Path 4688" d="M176.4,216.4s-1.764,1.323-2.735.8,0-1.616,0-1.616.024.488.345.39a.467.467,0,0,1,.253-.655s-.093.345.252.345.8-.583,1.747-.559,1.635.888,1.362,1.48S176.4,216.4,176.4,216.4Z" transform="translate(-166.794 -215.106)" fill="#263238"/>
        <path id="Path_4689" data-name="Path 4689" d="M196.2,240.26l-1.135,1.842-1-.921s-.517.721.659,1.842l.345-.716.959.505,1.069-2.382Z" transform="translate(-183.937 -235.922)" fill="#ff735d"/>
        <path id="Path_4690" data-name="Path 4690" d="M196.2,240.26l-1.135,1.842-1-.921s-.517.721.659,1.842l.345-.716.959.505,1.069-2.382Z" transform="translate(-183.937 -235.922)" fill="#fff" opacity="0.6"/>
        <path id="Path_4691" data-name="Path 4691" d="M199.994,254.268c-.01.783-.052,1.552-.138,2.326-.04.39-.093.778-.172,1.183-.017.1-.041.207-.064.309s-.055.217-.085.326l-.062.185-.034.1c-.016.034-.029.069-.047.1l-.047.085a1.679,1.679,0,0,1-.345.393,3.8,3.8,0,0,1-.588.39c-.188.1-.372.193-.557.278-.369.164-.735.309-1.1.438a20.261,20.261,0,0,1-2.242.652.438.438,0,0,1-.295-.819h0c.671-.333,1.347-.674,2-1.016.326-.172.652-.345.955-.533.153-.091.3-.183.438-.278a2.386,2.386,0,0,0,.345-.272c.035-.033.055-.072.024-.033l-.012.022a.139.139,0,0,0-.017.036.147.147,0,0,1,0-.038l.019-.086.036-.231.029-.254c.041-.345.059-.714.083-1.08l.107-2.223v-.01a.878.878,0,0,1,1.756.052Z" transform="translate(-183.951 -246.769)" fill="#ff8b7b"/>
        <path id="Path_4692" data-name="Path 4692" d="M190.911,292.05l-1.171.066.469,1.326s1.054-.188,1.035-.762Z" transform="translate(-180.45 -278.781)" fill="#ff8b7b"/>
        <path id="Path_4693" data-name="Path 4693" d="M184.755,293.332l.243.436a.405.405,0,0,0,.491.186l.554-.2-.469-1.326-.654.345a.407.407,0,0,0-.166.557Z" transform="translate(-176.283 -279.095)" fill="#ff8b7b"/>
        <path id="Path_4694" data-name="Path 4694" d="M216.725,241.7c1.68.141,2.1,1.512,1.933,3.339s-.172,2.447-.172,2.447h-2.119s-.1-3.339-.1-3.654S216.725,241.7,216.725,241.7Z" transform="translate(-202.405 -237.114)" fill="#ff735d"/>
        <path id="Path_4695" data-name="Path 4695" d="M216.725,241.7c1.68.141,2.1,1.512,1.933,3.339s-.172,2.447-.172,2.447h-2.119s-.1-3.339-.1-3.654S216.725,241.7,216.725,241.7Z" transform="translate(-202.405 -237.114)" fill="#fff" opacity="0.7"/>
        <path id="Path_4696" data-name="Path 4696" d="M216.27,272.265l2.718-.195-.485,1H216.27Z" transform="translate(-202.405 -262.247)" fill="#ff735d"/>
        <path id="Path_4697" data-name="Path 4697" d="M216.27,272.265l2.718-.195-.485,1H216.27Z" transform="translate(-202.405 -262.247)" fill="#ff735d"/>
        <path id="Path_4698" data-name="Path 4698" d="M216.27,272.265l2.718-.195-.485,1H216.27Z" transform="translate(-202.405 -262.247)" fill="#fff" opacity="0.6"/>
        <path id="Path_4699" data-name="Path 4699" d="M144.84,300.71v.46c0,.117.138.172.255.172h9.2c.119,0,.26-.048.26-.172v-.46Z" transform="translate(-143.293 -285.948)" fill="#ff735d"/>
        <path id="Path_4700" data-name="Path 4700" d="M144.84,300.71v.46c0,.117.138.172.255.172h9.2c.119,0,.26-.048.26-.172v-.46Z" transform="translate(-143.293 -285.948)" fill="#fff" opacity="0.4"/>
        <path id="Path_4701" data-name="Path 4701" d="M144.84,300.71v.46c0,.117.138.172.255.172h6.065c.119,0,.259-.048.259-.172v-.46Z" transform="translate(-143.293 -285.948)" opacity="0.2"/>
        <path id="Path_4702" data-name="Path 4702" d="M135.877,271.869l1.1,4.967a.371.371,0,0,0,.355.281h5.981a.241.241,0,0,0,.226-.312l-1.088-4.927a.345.345,0,0,0-.357-.243H136.1C135.943,271.635,135.843,271.707,135.877,271.869Z" transform="translate(-135.871 -261.886)" fill="#ff735d"/>
        <path id="Path_4703" data-name="Path 4703" d="M135.877,271.87l1.1,4.967a.371.371,0,0,0,.355.281H143.1a.243.243,0,0,0,.228-.312l-1.1-4.927a.345.345,0,0,0-.355-.243H136.1C135.943,271.635,135.843,271.708,135.877,271.87Z" transform="translate(-135.871 -261.886)" fill="#fff" opacity="0.4"/>
        <path id="Path_4704" data-name="Path 4704" d="M153,283.949h0a.855.855,0,0,0,.79.771c.333,0,.533-.345.438-.771a.931.931,0,0,0-.755-.769c.095.426-.109.769-.441.769Z" transform="translate(-150.046 -271.441)" opacity="0.2"/>
      </g>
    </g>
    <g id="freepik--character-2--inject-2" transform="translate(44.971 74.339)">
      <path id="Path_4705" data-name="Path 4705" d="M301.83,222.11l.428,1.357c.141.454.281.905.428,1.352.072.222.147.443.226.655.038.107.076.212.116.309l.059.135.024.05a.2.2,0,0,1,.01.022c-.014,0,.026.069.083.122a1.855,1.855,0,0,0,.214.172c.164.121.366.248.548.371l-.154.666a2.808,2.808,0,0,1-.812-.088,2.068,2.068,0,0,1-.421-.157,1.379,1.379,0,0,1-.455-.345,1.09,1.09,0,0,1-.09-.128l-.064-.107c-.036-.064-.069-.128-.1-.188-.06-.122-.114-.238-.172-.355-.1-.231-.191-.46-.279-.69-.172-.457-.345-.914-.49-1.38s-.3-.917-.429-1.38Z" transform="translate(-293.787 -212.631)" fill="#b97864"/>
      <path id="Path_4706" data-name="Path 4706" d="M296.344,216.385c-.222.576,1.305,2.89,1.305,2.89l1.724-.95s-.724-2.061-1.436-2.414A1.051,1.051,0,0,0,296.344,216.385Z" transform="translate(-290.329 -207.354)" fill="#ff735d"/>
      <path id="Path_4707" data-name="Path 4707" d="M296.344,216.385c-.222.576,1.305,2.89,1.305,2.89l1.724-.95s-.724-2.061-1.436-2.414A1.051,1.051,0,0,0,296.344,216.385Z" transform="translate(-290.329 -207.354)" fill="#fff" opacity="0.6"/>
      <path id="Path_4708" data-name="Path 4708" d="M270.87,295.28l.71.417a13.38,13.38,0,0,1,1.078-1.278h0c.205-.217.421-.459.645-.717.45-.517.936-1.1,1.445-1.737l.455-.569a33.769,33.769,0,0,0,4.413-6.636,2.881,2.881,0,0,0,.285-1.371,30.276,30.276,0,0,0-1.035-4.2c-.717-2.356-1.523-4.591-1.523-4.591l-1.968,3.346s.607,1.45,1.161,2.994c.545,1.516,1.035,3.123.862,3.542-.017.041-.04.09-.066.14-.328.69-1.238,2.226-2.273,3.93q-.155.259-.316.517c-.555.911-1.131,1.845-1.666,2.7-.209.345-.412.664-.6.973C271.551,294.218,270.87,295.28,270.87,295.28Z" transform="translate(-269.266 -256.069)" fill="#b97964"/>
      <path id="Path_4709" data-name="Path 4709" d="M282.926,358.4c-.938,1.178-1.838,2.242-2.507,3.025-.095-.479-.193-1.045-.269-1.664.774-1.242,1.724-2.775,2.587-4.2A16.223,16.223,0,0,0,282.926,358.4Z" transform="translate(-276.946 -323.068)" opacity="0.2"/>
      <path id="Path_4710" data-name="Path 4710" d="M274.357,287.177c.245,1.673.593,3.189.821,4.092.138.541.229.862.229.862a45.433,45.433,0,0,0,.3,5.144c.074.673.155,1.319.238,1.919.309,2.225.635,3.82.635,3.82l.843-.11-.033-5.446-.017-2.887-.022-3.928-.01-.69-.04-2.987-.06-4.406-2.932-1.321A16.9,16.9,0,0,0,274.357,287.177Z" transform="translate(-271.912 -261.564)" fill="#b97964"/>
      <path id="Path_4711" data-name="Path 4711" d="M301.194,281.66a7.773,7.773,0,0,1-2.457,1c-.159-.547-.367-1.162-.583-1.762-.554-1.543-1.154-3-1.154-3l1.98-3.356s.807,2.233,1.524,4.591C300.759,279.995,301,280.871,301.194,281.66Z" transform="translate(-290.89 -256.02)" opacity="0.2"/>
      <path id="Path_4712" data-name="Path 4712" d="M277.349,288.846c-1.1-.029-2-.1-2.73-.2-.085-.46-.172-.947-.243-1.447a17.13,17.13,0,0,1-.048-5.932l2.932,1.321.06,4.406Z" transform="translate(-271.929 -261.589)" opacity="0.2"/>
      <path id="Path_4713" data-name="Path 4713" d="M278.913,266.572c-1.837,1.08-7.243,1.536-7.243,1.536l-.886-2.485.1,2.459h-.262s-1.975-6.682.648-11.061l4.7-.362.517,2.414S277.81,262.549,278.913,266.572Z" transform="translate(-268.468 -241.223)" fill="#263238"/>
      <path id="Path_4714" data-name="Path 4714" d="M289.92,404.385a1.356,1.356,0,0,0-.45-.172h0a3.491,3.491,0,0,1-.931-1.714l-.617-.071a.517.517,0,0,0-.517.29.277.277,0,0,0-.028.083,3.56,3.56,0,0,0,0,.45,12.69,12.69,0,0,0,.2,1.493l.109-.016-.091-.943c-.029-.319.267.019.386.345a.819.819,0,0,0,1.017.593C289.821,404.635,290.154,404.554,289.92,404.385Z" transform="translate(-282.92 -361.851)" fill="#2e353a"/>
      <path id="Path_4715" data-name="Path 4715" d="M288.584,400.14s.221.6.517,1.262a2.881,2.881,0,0,0,.588.923s-.517.172-.785-.153-.747-1.474-1.274-1.342a1.208,1.208,0,0,1,.117-.269A3.5,3.5,0,0,1,288.584,400.14Z" transform="translate(-283.136 -359.96)" fill="#b97964"/>
      <path id="Path_4716" data-name="Path 4716" d="M263.4,396.319a1.316,1.316,0,0,0-.172-.448h0a3.465,3.465,0,0,1,.667-1.833l-.357-.517a.517.517,0,0,0-.555-.191.26.26,0,0,0-.081.036,3.68,3.68,0,0,0-.345.3,12.632,12.632,0,0,0-.983,1.142l.083.071.647-.69c.221-.234.172.212,0,.517a.813.813,0,0,0,.229,1.155C263.143,396.41,263.424,396.607,263.4,396.319Z" transform="translate(-261.57 -354.308)" fill="#2e353a"/>
      <path id="Path_4717" data-name="Path 4717" d="M270.1,393.311s-.305.562-.605,1.221a2.863,2.863,0,0,0-.3,1.052s-.462-.272-.405-.69.61-1.537.16-1.844a1.254,1.254,0,0,1,.279-.09A3.4,3.4,0,0,1,270.1,393.311Z" transform="translate(-267.538 -354.017)" fill="#b97964"/>
      <path id="Path_4718" data-name="Path 4718" d="M277.458,254.447l-.028.709,4.856-.188.033-.838Z" transform="translate(-274.695 -239.129)" fill="#263238"/>
      <path id="Path_4719" data-name="Path 4719" d="M277.458,254.447l-.028.709,4.856-.188.033-.838Z" transform="translate(-274.695 -239.129)" fill="#fff" opacity="0.2"/>
      <rect id="Rectangle_1116" data-name="Rectangle 1116" width="0.241" height="1.226" transform="matrix(1, -0.013, 0.013, 1, 4.154, 15.088)" fill="#263238"/>
      <rect id="Rectangle_1117" data-name="Rectangle 1117" width="0.241" height="1.226" transform="matrix(1, -0.013, 0.013, 1, 7.126, 14.875)" fill="#263238"/>
      <path id="Path_4720" data-name="Path 4720" d="M293.784,254.5a.283.283,0,0,0-.217-.076l-.574.045a.285.285,0,0,0-.262.283v.366a.285.285,0,0,0,.09.21.29.29,0,0,0,.193.076h.024l.574-.047a.285.285,0,0,0,.262-.283v-.364A.284.284,0,0,0,293.784,254.5Zm-.186.712-.574.047a.142.142,0,0,1-.105-.036.145.145,0,0,1-.043-.1v-.366a.138.138,0,0,1,.128-.136l.574-.045h.012a.134.134,0,0,1,.093.036.138.138,0,0,1,.043.1v.055H293.7l-.16.01a.1.1,0,1,0,.012.195l.162-.012h0v.121A.134.134,0,0,1,293.6,255.213Z" transform="translate(-287.356 -239.373)" fill="#fff"/>
      <path id="Path_4721" data-name="Path 4721" d="M269.94,216.34c.1.266.06.367.147.605s.183.495.262.721c.188.535.335,1,.454,1.407a20.028,20.028,0,0,1,.424,3.7l4.885-.345a18.307,18.307,0,0,0-.438-6.767s-.122-.012-.319-.026c-.372-.026-1.012-.064-1.6-.059a16.073,16.073,0,0,0-2.056.195A4.254,4.254,0,0,0,269.94,216.34Z" transform="translate(-268.497 -207.225)" fill="#ff735d"/>
      <g id="Group_3036" data-name="Group 3036" transform="translate(1.443 8.352)" opacity="0.6">
        <path id="Path_4722" data-name="Path 4722" d="M269.94,216.34c.1.266.06.367.147.605s.183.495.262.721c.188.535.335,1,.454,1.407a20.028,20.028,0,0,1,.424,3.7l4.885-.345a18.307,18.307,0,0,0-.438-6.767s-.122-.012-.319-.026c-.372-.026-1.012-.064-1.6-.059a16.073,16.073,0,0,0-2.056.195A4.254,4.254,0,0,0,269.94,216.34Z" transform="translate(-269.94 -215.577)" fill="#fff"/>
      </g>
      <path id="Path_4723" data-name="Path 4723" d="M284.456,208.189c-1.074-.452-1.276-1.019-1.276-1.019.892-.471.624-1.79.624-1.79l1.271.623a3.978,3.978,0,0,0-.209.55c-.236.811.129.921.129.921C285.11,207.979,284.456,208.189,284.456,208.189Z" transform="translate(-279.453 -198.786)" fill="#b97964"/>
      <path id="Path_4724" data-name="Path 4724" d="M288.071,206.013a3.986,3.986,0,0,0-.209.55,3.372,3.372,0,0,1-1.062-1.173Z" transform="translate(-282.449 -198.795)" opacity="0.2"/>
      <path id="Path_4725" data-name="Path 4725" d="M281.94,213.788l.757,1.654.816-.7.864.357-.1-1.455-.521-.407-.243,1.4-1.152-1.336Z" transform="translate(-278.427 -205.291)" fill="#ff735d"/>
      <path id="Path_4726" data-name="Path 4726" d="M281.94,213.788l.757,1.654.816-.7.864.357-.1-1.455-.521-.407-.243,1.4-1.152-1.336Z" transform="translate(-278.427 -205.291)" fill="#fff" opacity="0.4"/>
      <path id="Path_4727" data-name="Path 4727" d="M287.289,183.04a.717.717,0,0,1,.657.681c.1.671-.336.742-.336.742s.222.736-.517.69-3.463-.105-3.463-.105-.469-.279-.479-.69a.862.862,0,0,1,.293-.648.694.694,0,0,1,.162-1.083C284.3,182.091,287.289,183.04,287.289,183.04Z" transform="translate(-279.429 -179.821)" fill="#263238"/>
      <path id="Path_4728" data-name="Path 4728" d="M279.4,169.168a.677.677,0,0,0-.041-.974.746.746,0,0,0-.483-.93.957.957,0,0,0-1.035.252s-.607-.654-1.119-.228a.882.882,0,0,0-.185,1.059s-.819.033-.56.707.745.6.745.6a.392.392,0,0,0,0,.6c.317.352,1.255,0,1.255,0Z" transform="translate(-273.451 -167.144)" fill="#263238"/>
      <path id="Path_4729" data-name="Path 4729" d="M300.46,189.76a8.5,8.5,0,0,1,.024,1.921c.329.562,1.221-.792,1.45-1.807A3.9,3.9,0,0,1,300.46,189.76Z" transform="translate(-293.753 -185.86)" fill="#263238"/>
      <path id="Path_4730" data-name="Path 4730" d="M285.976,185.315c-.309,1.178-.466,1.669-.078,2.454a1.554,1.554,0,0,0,2.751.241c.59-.954,1-2.72.021-3.551a1.662,1.662,0,0,0-2.694.855Z" transform="translate(-281.513 -181.142)" fill="#b97964"/>
      <path id="Path_4731" data-name="Path 4731" d="M285.12,186.2a6.691,6.691,0,0,1-.09,1.528c.231.466,1.016-.56,1.255-1.355C286.463,185.659,285.12,186.2,285.12,186.2Z" transform="translate(-280.984 -182.753)" fill="#263238"/>
      <path id="Path_4732" data-name="Path 4732" d="M285.561,176.767a.632.632,0,1,0,1.009-.029A.729.729,0,0,0,285.561,176.767Z" transform="translate(-281.13 -174.927)" fill="#ff735d"/>
      <path id="Path_4733" data-name="Path 4733" d="M288.718,179.528c-.067-.593-1.08-1.393-2.4-1.3-1.188.081-1.875,1.435-1.147,1.752a3.059,3.059,0,0,0,1.864-.107Z" transform="translate(-280.858 -176.309)" fill="#263238"/>
      <path id="Path_4734" data-name="Path 4734" d="M283.938,194.448a.888.888,0,0,0,.241.635c.217.224.483.069.555-.217.064-.259.029-.69-.25-.8a.4.4,0,0,0-.547.386Z" transform="translate(-280.081 -189.396)" fill="#b97964"/>
      <path id="Path_4735" data-name="Path 4735" d="M297.581,196.156c-.031.095,0,.186.055.207s.136-.04.172-.133a.159.159,0,0,0-.055-.207C297.7,196,297.612,196.063,297.581,196.156Z" transform="translate(-291.361 -191.04)" fill="#263238"/>
      <path id="Path_4736" data-name="Path 4736" d="M303.741,198.183c-.031.095,0,.186.055.207s.136-.04.172-.133a.16.16,0,0,0-.055-.207C303.858,198.03,303.775,198.09,303.741,198.183Z" transform="translate(-296.458 -192.717)" fill="#263238"/>
      <path id="Path_4737" data-name="Path 4737" d="M304.6,198.05h.248S304.669,198.2,304.6,198.05Z" transform="translate(-297.18 -192.72)" fill="#263238"/>
      <path id="Path_4738" data-name="Path 4738" d="M300.159,199a2.665,2.665,0,0,0,.136.71.426.426,0,0,1-.355-.048Z" transform="translate(-293.323 -193.506)" fill="#a24e3f"/>
      <path id="Path_4739" data-name="Path 4739" d="M294.534,201.571a.8.8,0,0,1-.379-.455.022.022,0,0,1,.017-.029.024.024,0,0,1,.029.017.792.792,0,0,0,.517.493.025.025,0,1,1-.016.047A.919.919,0,0,1,294.534,201.571Z" transform="translate(-288.534 -195.232)" fill="#263238"/>
      <path id="Path_4740" data-name="Path 4740" d="M295.263,192.217a.042.042,0,0,1-.017-.017.047.047,0,0,1,.017-.066.564.564,0,0,1,.517-.033.049.049,0,0,1-.045.086.462.462,0,0,0-.428.029A.048.048,0,0,1,295.263,192.217Z" transform="translate(-289.433 -187.758)" fill="#263238"/>
      <path id="Path_4741" data-name="Path 4741" d="M304.872,195.258a.041.041,0,0,1-.017-.017.472.472,0,0,0-.359-.235.047.047,0,0,1-.047-.048.048.048,0,0,1,.05-.048.567.567,0,0,1,.438.281.05.05,0,0,1-.016.067A.052.052,0,0,1,304.872,195.258Z" transform="translate(-297.055 -190.122)" fill="#263238"/>
      <path id="Path_4742" data-name="Path 4742" d="M298.45,196l.247.01S298.522,196.15,298.45,196Z" transform="translate(-292.09 -191.024)" fill="#263238"/>
      <path id="Path_4743" data-name="Path 4743" d="M290.33,179.874s.862-.128,1.093.517-.954,1.247-1.369.988c0,0-.919.786-1.5.062a.766.766,0,0,1-.948-.155C287.225,180.818,289.436,179,290.33,179.874Z" transform="translate(-283.082 -177.485)" fill="#263238"/>
      <rect id="Rectangle_1118" data-name="Rectangle 1118" width="0.359" height="2.523" transform="translate(6.909 9.108) rotate(38)" fill="#263238"/>
      <path id="Path_4744" data-name="Path 4744" d="M302.3,207.681l-.15-.119c-.4-.312-1.1-.09-1.552.5s-.505,1.316-.105,1.628l.15.117c.4.312,1.1.09,1.552-.5S302.705,207.993,302.3,207.681Zm-1.4.612a1.14,1.14,0,0,1,1.207-.517,1.121,1.121,0,0,1-.207,1.292.748.748,0,1,1-1-.774Zm1.217.8c-.022.033-.045.066-.071.1s-.05.062-.076.091c.026-.029.052-.06.076-.091S302.1,209.126,302.119,209.093Zm-1.29-1.009-.078.091-.069.1c.021-.033.045-.064.069-.1A.985.985,0,0,1,300.829,208.085Z" transform="translate(-293.56 -200.475)" fill="#263238"/>
      <path id="Path_4745" data-name="Path 4745" d="M303.025,208.247c-.4-.314-1.1-.091-1.552.495s-.505,1.316-.105,1.628,1.1.09,1.552-.5S303.425,208.559,303.025,208.247Zm-1.542,1.973c-.31-.243-.248-.862.138-1.361s.976-.705,1.286-.462.247.862-.14,1.359S301.794,210.463,301.483,210.219Z" transform="translate(-294.28 -201.041)" fill="#fff" opacity="0.2"/>
      <path id="Path_4746" data-name="Path 4746" d="M275.273,232.26s.476,1.573-.659,2S275.273,232.26,275.273,232.26Z" transform="translate(-272.053 -221.031)" opacity="0.2"/>
      <path id="Path_4747" data-name="Path 4747" d="M272.195,226.88l-.086,1.78a8.081,8.081,0,0,0,0,.843,2.252,2.252,0,0,0,.024.252.744.744,0,0,0-.067-.059.255.255,0,0,0-.172-.043c-.045.016.055,0,.143-.052a2.78,2.78,0,0,0,.312-.2,7.7,7.7,0,0,0,.636-.557c.417-.407.831-.85,1.226-1.293l.552.385a12.214,12.214,0,0,1-1.035,1.569,6.77,6.77,0,0,1-.655.733,3.04,3.04,0,0,1-.424.345,1.945,1.945,0,0,1-.283.159,1.207,1.207,0,0,1-.419.107.935.935,0,0,1-.6-.164,1.076,1.076,0,0,1-.345-.416,2.318,2.318,0,0,1-.172-.636,8.652,8.652,0,0,1-.072-.983,16.928,16.928,0,0,1,.06-1.873Z" transform="translate(-269.17 -216.496)" fill="#b97864"/>
      <path id="Path_4748" data-name="Path 4748" d="M290.69,226.649l.654-.88.592,1.136a1.86,1.86,0,0,1-1.1.224Z" transform="translate(-285.668 -215.66)" fill="#b97964"/>
      <path id="Path_4749" data-name="Path 4749" d="M295.292,224.57l.281.926-.5.419-.592-1.138Z" transform="translate(-288.805 -214.667)" fill="#b97964"/>
      <path id="Path_4750" data-name="Path 4750" d="M268.16,218.582c-.5.36-.5,3.133-.5,3.133l1.961.152s.529-2.119.128-2.806A1.053,1.053,0,0,0,268.16,218.582Z" transform="translate(-266.61 -209.539)" fill="#ff735d"/>
      <path id="Path_4751" data-name="Path 4751" d="M268.16,218.582c-.5.36-.5,3.133-.5,3.133l1.961.152s.529-2.119.128-2.806A1.053,1.053,0,0,0,268.16,218.582Z" transform="translate(-266.61 -209.539)" fill="#fff" opacity="0.6"/>
      <path id="Path_4752" data-name="Path 4752" d="M315.71,232.052a2.157,2.157,0,0,1,1.878-1.962l-.207.345.395-.235-1.811,2.271Z" transform="translate(-306.374 -219.235)" fill="#ff735d"/>
      <path id="Path_4753" data-name="Path 4753" d="M315.71,232.052a2.157,2.157,0,0,1,1.878-1.962l-.207.345.395-.235-1.811,2.271Z" transform="translate(-306.374 -219.235)" fill="#fff" opacity="0.8"/>
      <path id="Path_4754" data-name="Path 4754" d="M289.68,230.569l.622-.019,2.98,1.011-2.716,4.149-2.673-.667a.286.286,0,0,1-.172-.417l1.08-1.952a.128.128,0,0,0,0-.124l-.147-.26a.173.173,0,0,1,0-.172l.724-1.357A.369.369,0,0,1,289.68,230.569Z" transform="translate(-283.18 -219.616)" fill="#ff735d"/>
      <path id="Path_4755" data-name="Path 4755" d="M307.116,231.18l1.7-1.09-2.79,4.146-1.623,1.093Z" transform="translate(-297.014 -219.235)" fill="#ff735d"/>
      <path id="Path_4756" data-name="Path 4756" d="M307.116,231.18l1.7-1.09-2.79,4.146-1.623,1.093Z" transform="translate(-297.014 -219.235)" opacity="0.2"/>
      <path id="Path_4757" data-name="Path 4757" d="M316.358,244.179l-.716-.309-.423.862.247.431a.335.335,0,0,0,.46.214,1.174,1.174,0,0,0,.45-.609A2.354,2.354,0,0,0,316.358,244.179Z" transform="translate(-305.968 -230.639)" fill="#b97964"/>
    </g>
  </g>
</svg>
