<svg xmlns="http://www.w3.org/2000/svg" width="86" height="79.379" viewBox="0 0 86 79.379">
  <g id="Group_2817" data-name="Group 2817" transform="translate(-6829 -4486.195)">
    <g id="freepik--background-complete--inject-2" transform="translate(6829 4488.255)">
      <path id="Path_3958" data-name="Path 3958" d="M102.935,398.068a4.024,4.024,0,0,1,2.484-.3,2.105,2.105,0,0,1,1.227.542.886.886,0,0,1,.013,1.225,1.171,1.171,0,0,1-.773.2,3.1,3.1,0,0,0-1.91.273c-.3.226-.5.6-.856.71a.847.847,0,0,1-.932-.414,1.446,1.446,0,0,1-.1-1.066A1.626,1.626,0,0,1,102.935,398.068Z" transform="translate(-89.356 -334.967)" fill="#ebebeb"/>
      <path id="Path_3959" data-name="Path 3959" d="M95.5,350.189a1.19,1.19,0,0,0,1.776.038,3.334,3.334,0,0,0,.752-1.543,8.271,8.271,0,0,0,.464-3.9,2.179,2.179,0,0,0-.5-1.061,1.133,1.133,0,0,0-1.073-.361,1.653,1.653,0,0,0-.938.985,9.32,9.32,0,0,0-.92,3.991,3.242,3.242,0,0,0,.437,1.848" transform="translate(-83.65 -290.428)" fill="#ebebeb"/>
      <path id="Path_3960" data-name="Path 3960" d="M66.31,360.761a2.4,2.4,0,0,0,.374-2.21,4.263,4.263,0,0,0-1.308-1.9,7.083,7.083,0,0,0-2.349-1.384,2.488,2.488,0,0,0-1.053-.181,1.11,1.11,0,0,0-.885.542,1.688,1.688,0,0,0,.246,1.507,18.018,18.018,0,0,0,1.539,2.349,4.123,4.123,0,0,0,1.695,1.445,1.543,1.543,0,0,0,1.807-.251" transform="translate(-55.733 -300.054)" fill="#ebebeb"/>
      <path id="Path_3961" data-name="Path 3961" d="M97.243,408.836a1.348,1.348,0,0,0,.042-.3c.022-.219.049-.493.079-.818a11.444,11.444,0,0,1,.181-1.2,9.377,9.377,0,0,1,.437-1.417,5.24,5.24,0,0,1,.723-1.281,2.71,2.71,0,0,1,.916-.761,2.531,2.531,0,0,1,.77-.24,1.4,1.4,0,0,0,.3-.043,1.454,1.454,0,0,0-.3,0,2.386,2.386,0,0,0-.8.21,2.71,2.71,0,0,0-.965.768,5.112,5.112,0,0,0-.75,1.308,8.525,8.525,0,0,0-.432,1.445,9.871,9.871,0,0,0-.161,1.214c-.025.349-.036.629-.04.824A1.481,1.481,0,0,0,97.243,408.836Z" transform="translate(-85.428 -339.12)" fill="#e0e0e0"/>
      <path id="Path_3962" data-name="Path 3962" d="M97.364,371.528a.515.515,0,0,0,0-.139v-.4c0-.345,0-.846.018-1.462.031-1.234.137-2.564.342-4.436.2-1.762.455-3.811.723-5.142.06-.3.117-.576.181-.815s.1-.446.145-.613.067-.286.092-.387a.494.494,0,0,0,.023-.137.6.6,0,0,0-.047.13c-.031.1-.069.226-.116.381s-.1.37-.164.609-.128.51-.193.813a45.653,45.653,0,0,0-.752,4.772c-.2,1.876-.3,3.585-.305,4.823,0,.618,0,1.118.022,1.465,0,.161.018.293.023.4A.691.691,0,0,0,97.364,371.528Z" transform="translate(-85.493 -302.442)" fill="#e0e0e0"/>
      <path id="Path_3963" data-name="Path 3963" d="M77.718,372.763a2.528,2.528,0,0,0,0-.416,11.024,11.024,0,0,0-.126-1.126,14.784,14.784,0,0,0-.361-1.641,13.432,13.432,0,0,0-.685-1.942,10.311,10.311,0,0,0-2.018-3.137,4.887,4.887,0,0,0-.473-.441c-.072-.061-.137-.123-.2-.181l-.181-.126a2.447,2.447,0,0,0-.351-.224,12.343,12.343,0,0,1,1.147,1.023,10.924,10.924,0,0,1,1.966,3.126,15.72,15.72,0,0,1,.69,1.924,16.463,16.463,0,0,1,.388,1.626c.09.468.136.851.166,1.115A2.726,2.726,0,0,0,77.718,372.763Z" transform="translate(-65.838 -306.973)" fill="#e0e0e0"/>
      <path id="Path_3964" data-name="Path 3964" d="M80.03,446.81l.331,4.524h5.813l.329-4.524Z" transform="translate(-71.335 -375.206)" fill="#e0e0e0"/>
      <rect id="Rectangle_910" data-name="Rectangle 910" width="7.728" height="1.783" transform="translate(8.133 69.821)" fill="#e0e0e0"/>
      <path id="Path_3965" data-name="Path 3965" d="M76.92,470.89v.5h7.6v-.5Z" transform="translate(-68.787 -394.935)" fill="#ebebeb"/>
      <path id="Path_3966" data-name="Path 3966" d="M79.286,474.5l-.356-.869h6.96l-.414.869Z" transform="translate(-70.434 -397.18)" fill="#e0e0e0"/>
      <path id="Path_3967" data-name="Path 3967" d="M86.805,452.141l-.027.042-.087.116-.34.434-.014.018-.014-.02-.829-1.153h.049l-.819,1.16-.027.036-.027-.034-.983-1.155h.056l-.054.069-.867,1.084-.029.036-.027-.038-.82-1.158h.049c-.4.461-.746.851-1.01,1.149l-.018.022-.013-.023c-.134-.224-.24-.4-.316-.531l-.081-.141A.341.341,0,0,1,80.53,452a.3.3,0,0,1,.034.045l.09.136.331.522h-.031l.992-1.164.025-.029.023.031.826,1.155h-.038l.866-1.084c.018-.023.036-.047.054-.067l.027-.036.029.034.968,1.158h-.054l.82-1.158.025-.034.023.034c.327.468.605.866.815,1.162h-.031l.361-.423.094-.108A.18.18,0,0,1,86.805,452.141Z" transform="translate(-71.745 -379.056)" fill="#f5f5f5"/>
      <path id="Path_3968" data-name="Path 3968" d="M86.8,446.476c0,.02-1.456.036-3.252.036s-3.252-.016-3.252-.036,1.456-.036,3.252-.036S86.8,446.456,86.8,446.476Z" transform="translate(-71.557 -374.902)" fill="#f5f5f5"/>
      <path id="Path_3969" data-name="Path 3969" d="M85.87,473.726c0,.022-1.583.036-3.536.036s-3.534-.014-3.534-.036,1.583-.036,3.534-.036S85.87,473.706,85.87,473.726Z" transform="translate(-70.328 -397.229)" fill="#f5f5f5"/>
      <rect id="Rectangle_911" data-name="Rectangle 911" width="38.51" height="14.594" transform="translate(0 8.798)" fill="#fafafa"/>
      <path id="Path_3970" data-name="Path 3970" d="M94.512,118.1c0,.027-6.544.047-14.616.047s-14.616-.02-14.616-.047,6.543-.047,14.616-.047S94.512,118.072,94.512,118.1Z" transform="translate(-59.25 -105.848)" fill="#ebebeb"/>
      <path id="Path_3971" data-name="Path 3971" d="M94.512,127.657c0,.027-6.544.047-14.616.047s-14.616-.02-14.616-.047,6.543-.047,14.616-.047S94.512,127.632,94.512,127.657Z" transform="translate(-59.25 -113.681)" fill="#ebebeb"/>
      <path id="Path_3972" data-name="Path 3972" d="M94.512,137.217c0,.025-6.544.047-14.616.047s-14.616-.022-14.616-.047,6.543-.047,14.616-.047S94.512,137.19,94.512,137.217Z" transform="translate(-59.25 -121.513)" fill="#ebebeb"/>
      <path id="Path_3973" data-name="Path 3973" d="M94.512,146.779c0,.025-6.544.047-14.616.047s-14.616-.022-14.616-.047,6.543-.049,14.616-.049S94.512,146.75,94.512,146.779Z" transform="translate(-59.25 -129.346)" fill="#ebebeb"/>
      <path id="Path_3974" data-name="Path 3974" d="M94.512,156.327c0,.027-6.544.047-14.616.047s-14.616-.02-14.616-.047,6.543-.047,14.616-.047S94.512,156.3,94.512,156.327Z" transform="translate(-59.25 -137.171)" fill="#ebebeb"/>
      <path id="Path_3975" data-name="Path 3975" d="M90.914,130.075s-.022.027-.065.076a.755.755,0,0,1-.246.157,1.16,1.16,0,0,1-1.066-.2,1.97,1.97,0,0,1-.5-.632c-.141-.262-.251-.566-.383-.882a2.786,2.786,0,0,0-.571-.918,1.265,1.265,0,0,0-.5-.3,1.315,1.315,0,0,0-.613-.033,2.334,2.334,0,0,0-1.165.618c-.349.314-.654.7-1.03,1.052a2.349,2.349,0,0,1-1.411.694,1.294,1.294,0,0,1-.808-.215,1.93,1.93,0,0,1-.564-.649,10.489,10.489,0,0,0-.815-1.543,1.33,1.33,0,0,0-.708-.49.981.981,0,0,0-.831.2,1.913,1.913,0,0,0-.542.723,4.659,4.659,0,0,0-.258.9,5.531,5.531,0,0,1-.257.943,2.264,2.264,0,0,1-.235.443,2.142,2.142,0,0,1-.345.361,2.168,2.168,0,0,1-.893.444,2.1,2.1,0,0,1-.983.014,2.215,2.215,0,0,1-.869-.428c-.257-.192-.49-.4-.734-.593a2.141,2.141,0,0,0-.79-.43,1.147,1.147,0,0,0-.846.108,1.988,1.988,0,0,0-.631.587,5.782,5.782,0,0,0-.426.748,5.646,5.646,0,0,1-.423.741,1.988,1.988,0,0,1-.605.576,1.243,1.243,0,0,1-.791.181,1.135,1.135,0,0,1-.688-.383,1.919,1.919,0,0,1-.378-.66,4.627,4.627,0,0,1-.181-.706,3.29,3.29,0,0,0-.407-1.265,1.445,1.445,0,0,0-.94-.7,1.055,1.055,0,0,0-.542.067,1.464,1.464,0,0,0-.434.287c-.493.472-.723,1.043-1.1,1.373a1.6,1.6,0,0,1-.981.493.837.837,0,0,1-.287-.051l-.089-.04a1.01,1.01,0,0,0,.376.072,1.492,1.492,0,0,0,.956-.5c.34-.341.585-.9,1.084-1.386a1.445,1.445,0,0,1,.45-.3,1.1,1.1,0,0,1,.571-.076,1.492,1.492,0,0,1,.987.723,2.244,2.244,0,0,1,.273.614c.063.22.1.45.148.681a4.752,4.752,0,0,0,.181.694,1.885,1.885,0,0,0,.361.632,1.068,1.068,0,0,0,.641.361,1.149,1.149,0,0,0,.737-.181,1.879,1.879,0,0,0,.58-.553,5.612,5.612,0,0,0,.414-.723,5.7,5.7,0,0,1,.432-.761,2.085,2.085,0,0,1,.66-.614,1.229,1.229,0,0,1,.9-.119,2.264,2.264,0,0,1,.826.444c.248.193.479.4.723.593a2.145,2.145,0,0,0,.833.412,2.022,2.022,0,0,0,.941-.014,2.1,2.1,0,0,0,.853-.426,1.83,1.83,0,0,0,.329-.351,2.052,2.052,0,0,0,.226-.421,5.469,5.469,0,0,0,.253-.929,4.517,4.517,0,0,1,.266-.927,1.95,1.95,0,0,1,.575-.762,1.07,1.07,0,0,1,.9-.215,1.409,1.409,0,0,1,.757.522,10.009,10.009,0,0,1,.822,1.556,1.841,1.841,0,0,0,.542.622,1.218,1.218,0,0,0,.755.2,2.277,2.277,0,0,0,1.364-.67c.37-.343.678-.723,1.034-1.048a2.4,2.4,0,0,1,1.2-.631,1.391,1.391,0,0,1,.641.04,1.335,1.335,0,0,1,.52.32,2.815,2.815,0,0,1,.578.941c.13.32.239.62.374.88a1.93,1.93,0,0,0,.484.625,1.151,1.151,0,0,0,1.039.208A.817.817,0,0,0,90.914,130.075Z" transform="translate(-58.194 -112.93)" fill="#e0e0e0"/>
      <path id="Path_3976" data-name="Path 3976" d="M91.669,123.633h-.1c-.034,0-.076-.011-.125-.016a1.227,1.227,0,0,1-.163-.06,2.752,2.752,0,0,1-.871-.734q-.123-.141-.249-.3a3.288,3.288,0,0,0-.269-.332,1.424,1.424,0,0,0-.86-.392,1.2,1.2,0,0,0-.526.065,1.375,1.375,0,0,0-.468.316,10.883,10.883,0,0,0-.77,1,2.3,2.3,0,0,1-.493.479,1.534,1.534,0,0,1-.674.253,3.03,3.03,0,0,1-1.483-.278c-.484-.2-.949-.479-1.471-.658a2.734,2.734,0,0,0-.811-.163,1.778,1.778,0,0,0-.819.181,8.96,8.96,0,0,0-1.422,1.084,2.922,2.922,0,0,1-.824.452,3.071,3.071,0,0,1-.943.163,3.457,3.457,0,0,1-1.874-.519,4.541,4.541,0,0,1-1.422-1.415,12.875,12.875,0,0,1-.864-1.807,3.661,3.661,0,0,0-.5-.824,2.2,2.2,0,0,0-.741-.573,1.33,1.33,0,0,0-.893-.094,1.491,1.491,0,0,0-.741.488,2.51,2.51,0,0,0-.437.768,5.927,5.927,0,0,0-.229.851c-.061.287-.116.571-.193.849a3.82,3.82,0,0,1-.318.79,3.589,3.589,0,0,1-1.073,1.211,3.142,3.142,0,0,1-1.4.566,2.942,2.942,0,0,1-1.384-.159,2.719,2.719,0,0,1-1.668-1.637c-.116-.336-.181-.66-.257-.949a2.179,2.179,0,0,0-.343-.739,1.182,1.182,0,0,0-.965-.5.781.781,0,0,0-.361.132.638.638,0,0,1,.361-.152,1.2,1.2,0,0,1,1,.491,2.179,2.179,0,0,1,.347.75c.087.291.148.614.264.943a2.672,2.672,0,0,0,1.642,1.592,2.878,2.878,0,0,0,1.352.152,3.088,3.088,0,0,0,1.364-.558,3.5,3.5,0,0,0,1.044-1.187,5.452,5.452,0,0,0,.5-1.617,6.116,6.116,0,0,1,.231-.864,2.6,2.6,0,0,1,.459-.8,1.588,1.588,0,0,1,.786-.517,1.416,1.416,0,0,1,.954.1,2.26,2.26,0,0,1,.773.6,3.769,3.769,0,0,1,.519.844,13.4,13.4,0,0,0,.858,1.807A4.447,4.447,0,0,0,76.5,124.1a3.377,3.377,0,0,0,1.821.506,3,3,0,0,0,.916-.157,2.835,2.835,0,0,0,.8-.435,9.231,9.231,0,0,1,1.446-1.084,1.85,1.85,0,0,1,.858-.181,2.8,2.8,0,0,1,.837.17c.531.181,1,.464,1.474.663a2.967,2.967,0,0,0,1.446.278,1.482,1.482,0,0,0,.645-.239,2.239,2.239,0,0,0,.479-.463,10.8,10.8,0,0,1,.781-1,1.426,1.426,0,0,1,.49-.325,1.265,1.265,0,0,1,.542-.065,1.469,1.469,0,0,1,.887.412,3.378,3.378,0,0,1,.271.34c.083.108.164.211.246.305a2.817,2.817,0,0,0,.849.741A.752.752,0,0,0,91.669,123.633Z" transform="translate(-57.104 -106.891)" fill="#e0e0e0"/>
      <path id="Path_3977" data-name="Path 3977" d="M50.663,118.553a1.615,1.615,0,0,1-.773,0,1.615,1.615,0,0,1,.773,0Z" transform="translate(-46.641 -106.218)" fill="#e0e0e0"/>
      <path id="Path_3978" data-name="Path 3978" d="M50.663,127.633a1.615,1.615,0,0,1-.773,0,1.615,1.615,0,0,1,.773,0Z" transform="translate(-46.641 -113.657)" fill="#e0e0e0"/>
      <path id="Path_3979" data-name="Path 3979" d="M50.663,136.763a1.614,1.614,0,0,1-.773,0,1.615,1.615,0,0,1,.773,0Z" transform="translate(-46.641 -121.138)" fill="#e0e0e0"/>
      <path id="Path_3980" data-name="Path 3980" d="M50.663,145.761a1.615,1.615,0,0,1-.773,0,1.615,1.615,0,0,1,.773,0Z" transform="translate(-46.641 -128.509)" fill="#e0e0e0"/>
      <path id="Path_3981" data-name="Path 3981" d="M50.663,154.881a1.615,1.615,0,0,1-.773,0,1.615,1.615,0,0,1,.773,0Z" transform="translate(-46.641 -135.981)" fill="#e0e0e0"/>
      <path id="Path_3982" data-name="Path 3982" d="M66.825,166.552a6.373,6.373,0,0,1-1.545,0,6.371,6.371,0,0,1,1.545,0Z" transform="translate(-59.25 -145.543)" fill="#e0e0e0"/>
      <path id="Path_3983" data-name="Path 3983" d="M104.547,166.552a6.389,6.389,0,0,1-1.547,0,6.389,6.389,0,0,1,1.547,0Z" transform="translate(-90.155 -145.543)" fill="#e0e0e0"/>
      <path id="Path_3984" data-name="Path 3984" d="M142.267,166.552a6.389,6.389,0,0,1-1.547,0,6.389,6.389,0,0,1,1.547,0Z" transform="translate(-121.069 -145.543)" fill="#e0e0e0"/>
      <path id="Path_3985" data-name="Path 3985" d="M179.995,166.552a6.374,6.374,0,0,1-1.545,0,6.376,6.376,0,0,1,1.545,0Z" transform="translate(-158.371 -145.543)" fill="#e0e0e0"/>
      <path id="Path_3986" data-name="Path 3986" d="M217.717,166.577a6.389,6.389,0,0,1-1.547,0,6.389,6.389,0,0,1,1.547,0Z" transform="translate(-190.923 -145.569)" fill="#e0e0e0"/>
      <rect id="Rectangle_912" data-name="Rectangle 912" width="31.349" height="19.404" transform="translate(37.604 46.399)" fill="#fafafa"/>
      <path id="Path_3987" data-name="Path 3987" d="M381.41,347.228c-2.168-.824-4.674,1.455-6.8.526-1.241-.542-1.807-1.944-2.41-3.153s-1.655-2.483-3-2.349-2.454,1.713-3.766,1.335a2.532,2.532,0,0,1-1.445-1.988,4.571,4.571,0,0,0-.981-2.349c-.631-.593-1.942-.43-2.042.425v10.287h24.517A41.6,41.6,0,0,0,381.41,347.228Z" transform="translate(-319.608 -286.792)" fill="#ebebeb"/>
      <path id="Path_3988" data-name="Path 3988" d="M379.913,399.95c0,.022-5.943.04-13.271.04s-13.271-.018-13.271-.04,5.941-.04,13.271-.04S379.913,399.926,379.913,399.95Z" transform="translate(-313.386 -336.78)" fill="#e0e0e0"/>
      <path id="Path_3989" data-name="Path 3989" d="M379.913,375.082c0,.022-5.943.04-13.271.04s-13.271-.018-13.271-.04,5.941-.042,13.271-.042S379.913,375.058,379.913,375.082Z" transform="translate(-313.386 -316.403)" fill="#e0e0e0"/>
      <path id="Path_3990" data-name="Path 3990" d="M379.913,350.22c0,.022-5.943.04-13.271.04s-13.271-.018-13.271-.04,5.941-.04,13.271-.04S379.913,350.2,379.913,350.22Z" transform="translate(-313.386 -296.035)" fill="#e0e0e0"/>
      <path id="Path_3991" data-name="Path 3991" d="M379.913,326.59c0,.022-5.943.04-13.271.04s-13.271-.018-13.271-.04,5.941-.04,13.271-.04S379.913,326.568,379.913,326.59Z" transform="translate(-313.386 -276.675)" fill="#e0e0e0"/>
      <path id="Path_3992" data-name="Path 3992" d="M550.415,71.485V69.978c0-.979,0-2.412-.014-4.237,0-3.648-.014-8.854-.027-15.133l.054.052-23.334.009h0l.063-.061V71.485l-.056-.056,16.878.029,4.759.014h.027l-4.749.014-16.912.027h-.054V50.52h.063l23.334.009h.052v.078c-.011,6.286-.022,11.51-.027,15.165,0,1.82-.011,3.252-.014,4.226v1.108A1.29,1.29,0,0,1,550.415,71.485Z" transform="translate(-464.499 -50.52)" fill="#e0e0e0"/>
      <path id="Path_3993" data-name="Path 3993" d="M551.856,71.253c0,.034-1.229.061-2.743.061s-2.743-.027-2.743-.061,1.227-.063,2.743-.063S551.856,71.217,551.856,71.253Z" transform="translate(-480.321 -67.455)" fill="#e0e0e0"/>
      <path id="Path_3994" data-name="Path 3994" d="M563.078,79.931c0,.034-3.373.063-7.536.063S548,79.966,548,79.931s3.373-.061,7.535-.061S563.078,79.893,563.078,79.931Z" transform="translate(-481.664 -74.567)" fill="#e0e0e0"/>
      <rect id="Rectangle_914" data-name="Rectangle 914" width="0.983" height="0.983" transform="translate(66.09 8.021)" fill="#e0e0e0"/>
      <rect id="Rectangle_915" data-name="Rectangle 915" width="0.983" height="0.983" transform="translate(68.508 8.021)" fill="#e0e0e0"/>
      <rect id="Rectangle_916" data-name="Rectangle 916" width="0.983" height="0.983" transform="translate(70.965 7.976)" fill="#e0e0e0"/>
      <rect id="Rectangle_917" data-name="Rectangle 917" width="0.983" height="0.983" transform="translate(73.341 8.021)" fill="#e0e0e0"/>
      <rect id="Rectangle_918" data-name="Rectangle 918" width="0.983" height="0.983" transform="translate(75.76 8.021)" fill="#e0e0e0"/>
      <rect id="Rectangle_919" data-name="Rectangle 919" width="0.983" height="0.983" transform="translate(78.18 8.021)" fill="#e0e0e0"/>
      <rect id="Rectangle_920" data-name="Rectangle 920" width="0.983" height="0.983" transform="translate(80.601 8.021)" fill="#ebebeb"/>
      <rect id="Rectangle_921" data-name="Rectangle 921" width="0.983" height="0.983" transform="translate(66.09 10.109)" fill="#ebebeb"/>
      <rect id="Rectangle_922" data-name="Rectangle 922" width="0.983" height="0.983" transform="translate(68.508 10.109)" fill="#e0e0e0"/>
      <rect id="Rectangle_923" data-name="Rectangle 923" width="0.983" height="0.983" transform="translate(70.92 10.109)" fill="#ebebeb"/>
      <rect id="Rectangle_924" data-name="Rectangle 924" width="0.983" height="0.983" transform="translate(73.341 10.109)" fill="#e0e0e0"/>
      <rect id="Rectangle_925" data-name="Rectangle 925" width="0.983" height="0.983" transform="translate(75.76 10.109)" fill="#e0e0e0"/>
      <rect id="Rectangle_926" data-name="Rectangle 926" width="0.983" height="0.983" transform="translate(78.225 10.066)" fill="#e0e0e0"/>
      <rect id="Rectangle_927" data-name="Rectangle 927" width="0.983" height="0.983" transform="translate(80.601 10.109)" fill="#e0e0e0"/>
      <rect id="Rectangle_928" data-name="Rectangle 928" width="0.983" height="0.983" transform="translate(66.09 12.2)" fill="#e0e0e0"/>
      <rect id="Rectangle_929" data-name="Rectangle 929" width="0.983" height="0.983" transform="translate(68.553 12.155)" fill="#e0e0e0"/>
      <rect id="Rectangle_930" data-name="Rectangle 930" width="0.983" height="0.983" transform="translate(70.92 12.2)" fill="#e0e0e0"/>
      <rect id="Rectangle_931" data-name="Rectangle 931" width="0.983" height="0.983" transform="translate(73.341 12.2)" fill="#ebebeb"/>
      <rect id="Rectangle_932" data-name="Rectangle 932" width="0.983" height="0.983" transform="translate(75.76 12.2)" fill="#e0e0e0"/>
      <rect id="Rectangle_933" data-name="Rectangle 933" width="0.983" height="0.983" transform="translate(78.18 12.2)" fill="#e0e0e0"/>
      <rect id="Rectangle_934" data-name="Rectangle 934" width="0.983" height="0.983" transform="translate(80.601 12.2)" fill="#e0e0e0"/>
      <rect id="Rectangle_935" data-name="Rectangle 935" width="0.983" height="0.983" transform="translate(66.09 14.291)" fill="#e0e0e0"/>
      <rect id="Rectangle_936" data-name="Rectangle 936" width="0.983" height="0.983" transform="translate(68.508 14.291)" fill="#e0e0e0"/>
      <rect id="Rectangle_937" data-name="Rectangle 937" width="0.983" height="0.983" transform="translate(70.92 14.291)" fill="#e0e0e0"/>
      <path id="Path_4243" data-name="Path 4243" d="M.983,0V.983H0Z" transform="translate(73.384 14.245)" fill="#e0e0e0"/>
      <rect id="Rectangle_939" data-name="Rectangle 939" width="0.983" height="0.983" transform="translate(75.76 14.291)" fill="#e0e0e0"/>
      <rect id="Rectangle_940" data-name="Rectangle 940" width="0.983" height="0.983" transform="translate(78.18 14.291)" fill="#ebebeb"/>
      <rect id="Rectangle_941" data-name="Rectangle 941" width="0.983" height="0.983" transform="translate(80.601 14.291)" fill="#e0e0e0"/>
      <rect id="Rectangle_942" data-name="Rectangle 942" width="0.983" height="0.983" transform="translate(66.09 16.379)" fill="#e0e0e0"/>
      <rect id="Rectangle_943" data-name="Rectangle 943" width="0.983" height="0.983" transform="translate(68.508 16.379)" fill="#ebebeb"/>
      <rect id="Rectangle_944" data-name="Rectangle 944" width="0.983" height="0.983" transform="translate(70.92 16.379)" fill="#e0e0e0"/>
      <rect id="Rectangle_945" data-name="Rectangle 945" width="0.983" height="0.983" transform="translate(73.341 16.379)" fill="#e0e0e0"/>
      <rect id="Rectangle_946" data-name="Rectangle 946" width="0.983" height="0.983" transform="translate(75.76 16.379)" fill="#e0e0e0"/>
      <rect id="Rectangle_947" data-name="Rectangle 947" width="0.983" height="0.983" transform="translate(78.225 16.336)" fill="#e0e0e0"/>
      <rect id="Rectangle_948" data-name="Rectangle 948" width="0.983" height="0.983" transform="translate(80.601 16.379)" fill="#e0e0e0"/>
    </g>
    <path id="Path_3996" data-name="Path 3996" d="M458.448,61.46s2.763.038,1.581,5.509-1.03,6.5-1.03,8.673a3.775,3.775,0,0,0,2.044,3.442H457.3L454.54,66.311V61.46Z" transform="translate(6450.784 4428.771)" fill="#e0e0e0"/>
    <path id="Path_3997" data-name="Path 3997" d="M309.114,123.507H271.28l.338-37.014,35.635-1.863Z" transform="translate(6600.93 4409.789)" fill="#e0e0e0"/>
    <path id="Path_3998" data-name="Path 3998" d="M301.924,123.411H264.09l.338-37.014,36.736-.717Z" transform="translate(6606.822 4408.928)" fill="#ebebeb"/>
    <path id="Path_3999" data-name="Path 3999" d="M297.936,120.552H260.18V83.539l37.78-.089Z" transform="translate(6610.025 4410.755)" fill="#fafafa"/>
    <path id="Path_4000" data-name="Path 4000" d="M297.789,120.372c0-.345,0-14.847-.018-37.1l.042.042-37.72.094h-.06l.047-.047v37.014l-.04-.04,37.764.04-37.764.042H260v-37.1h.1l37.722-.081h.04v.04C297.814,105.525,297.789,120.027,297.789,120.372Z" transform="translate(6610.172 4410.936)" fill="#263238"/>
    <path id="Path_4001" data-name="Path 4001" d="M297.4,64.728a2.316,2.316,0,0,1,1.084-3.988l-35.957-.02a3.028,3.028,0,0,0-2.987,3.545,4.3,4.3,0,0,0,.146.562" transform="translate(6610.587 4429.378)" fill="#f5f5f5"/>
    <path id="Path_4002" data-name="Path 4002" d="M466.647,78.932h.759l2.13-.013v.056a2.307,2.307,0,0,1-.869-.5,2.835,2.835,0,0,1-.647-.925,6.167,6.167,0,0,1-.388-1.182c-.049-.211-.092-.426-.132-.647a3.376,3.376,0,0,1-.052-.338,2.748,2.748,0,0,1-.025-.347,12.516,12.516,0,0,1,.047-1.445c.036-.491.092-1,.152-1.511.123-1.028.276-2.1.459-3.2.076-.468.17-.932.248-1.386s.135-.9.193-1.352.1-.882.157-1.31c.024-.213.052-.425.058-.632a3.873,3.873,0,0,0-.034-.616,3.732,3.732,0,0,0-.345-1.147,2.255,2.255,0,0,0-.7-.856,1.359,1.359,0,0,0-.983-.219,1.783,1.783,0,0,0-.875.361,2.168,2.168,0,0,0-.542.676,2.892,2.892,0,0,0-.264.735,1.922,1.922,0,0,0,.143,1.225,4.236,4.236,0,0,0,.4.692l.123.168c.027.038.04.06.04.06a.612.612,0,0,1-.049-.052l-.128-.164a3.749,3.749,0,0,1-.416-.688,1.955,1.955,0,0,1-.163-1.25,2.944,2.944,0,0,1,.264-.752,2.217,2.217,0,0,1,.558-.7,1.876,1.876,0,0,1,.9-.383,1.435,1.435,0,0,1,1.037.228,2.32,2.32,0,0,1,.723.887,3.765,3.765,0,0,1,.347,1.165,4.05,4.05,0,0,1,.038.631,5.912,5.912,0,0,1-.058.641c-.047.428-.1.865-.155,1.312s-.117.9-.192,1.355-.172.916-.246,1.386c-.181,1.1-.338,2.168-.463,3.193-.06.513-.116,1.015-.154,1.507a12.824,12.824,0,0,0-.052,1.427,2.968,2.968,0,0,0,.023.34c.009.112.032.224.051.334.04.219.081.434.13.643a6.065,6.065,0,0,0,.376,1.169,2.791,2.791,0,0,0,.627.9,2.235,2.235,0,0,0,.842.49l.181.058h-.181l-2.13-.013h-.708Z" transform="translate(6442.29 4428.923)" fill="#263238"/>
    <path id="Path_4003" data-name="Path 4003" d="M343.558,67.089c.014.011-.094.154-.2.417a2.428,2.428,0,0,0-.136.475,2.739,2.739,0,0,0-.029.605,2.623,2.623,0,0,0,.121.593,2.358,2.358,0,0,0,.206.452c.146.242.275.361.262.381s-.04-.025-.1-.081a1.5,1.5,0,0,1-.22-.266,2.11,2.11,0,0,1-.231-.457,2.3,2.3,0,0,1-.1-1.241,2.176,2.176,0,0,1,.159-.488,1.508,1.508,0,0,1,.181-.3C343.522,67.12,343.553,67.085,343.558,67.089Z" transform="translate(6542.107 4424.161)" fill="#263238"/>
    <path id="Path_4004" data-name="Path 4004" d="M336.36,60a3.776,3.776,0,0,0-.477.584,2.389,2.389,0,0,0,.6,3.227,3.863,3.863,0,0,0,.652.374.846.846,0,0,1-.2-.054,2.184,2.184,0,0,1-.5-.264,2.383,2.383,0,0,1-.614-3.325,2.131,2.131,0,0,1,.361-.425A.753.753,0,0,1,336.36,60Z" transform="translate(6548.408 4429.968)" fill="#263238"/>
    <path id="Path_4005" data-name="Path 4005" d="M317.424,147.747h-.464l-1.335.009-4.915.023-16.191.014H287.49v-.045c0-4.626.013-8.6.018-11.43,0-1.409.009-2.53.013-3.3v0c0,.773,0,1.894.013,3.3,0,2.826.011,6.8.018,11.43l-.045-.045h6.984l16.191.014,4.907.014,1.335.009h.347Z" transform="translate(6587.649 4371.117)" fill="#263238"/>
    <rect id="Rectangle_949" data-name="Rectangle 949" width="3.019" height="3.019" transform="translate(6877.637 4514.93)" fill="#ff735d"/>
    <rect id="Rectangle_950" data-name="Rectangle 950" width="3.019" height="5.177" transform="translate(6882.06 4512.772)" fill="#ff735d"/>
    <rect id="Rectangle_951" data-name="Rectangle 951" width="3.019" height="7.629" transform="translate(6886.5 4510.32)" fill="#ff735d"/>
    <rect id="Rectangle_952" data-name="Rectangle 952" width="3.019" height="10.357" transform="translate(6890.806 4507.592)" fill="#ff735d"/>
    <rect id="Rectangle_953" data-name="Rectangle 953" width="3.019" height="13.85" transform="translate(6895.211 4504.1)" fill="#ff735d"/>
    <rect id="Rectangle_954" data-name="Rectangle 954" width="3.019" height="16.372" transform="translate(6899.578 4501.435)" fill="#ff735d"/>
    <path id="Path_4006" data-name="Path 4006" d="M301.22,119.543a.194.194,0,0,1,.038-.031l.117-.081.461-.307,1.729-1.14,5.99-3.915.07-.045v1.435l-.072-.038,2.36-1.583,8.33-5.565,2.53-1.679.69-.452.181-.116.063-.036a.4.4,0,0,1-.058.043l-.181.125-.681.466-2.5,1.717-8.312,5.589-2.362,1.581-.072.049v-1.446l.07.038-6.01,3.887-1.744,1.118-.468.295-.121.076Z" transform="translate(6576.41 4392.288)" fill="#263238"/>
    <path id="Path_4007" data-name="Path 4007" d="M418.816,107.093a1.549,1.549,0,0,1-.032-.372c0-.231-.013-.553-.014-.9l.047.047H418.7c-.387,0-.737,0-.99-.014a1.894,1.894,0,0,1-.41-.033,1.805,1.805,0,0,1,.41-.034c.253,0,.6-.013.99-.013h.163v.042c0,.361,0,.681-.014.9A1.548,1.548,0,0,1,418.816,107.093Z" transform="translate(6481.295 4392.468)" fill="#263238"/>
    <path id="Path_4008" data-name="Path 4008" d="M318.517,233.177c0,.027-.932.047-2.083.047s-2.083-.02-2.083-.047.932-.047,2.083-.047S318.517,233.152,318.517,233.177Z" transform="translate(6565.658 4288.121)" fill="#263238"/>
    <path id="Path_4009" data-name="Path 4009" d="M325.357,236.866a2.556,2.556,0,0,1,0-.976A2.556,2.556,0,0,1,325.357,236.866Z" transform="translate(6556.679 4285.859)" fill="#263238"/>
    <path id="Path_4010" data-name="Path 4010" d="M303.033,243.787c0,.025-2.506.047-5.6.047s-5.6-.022-5.6-.047,2.5-.047,5.6-.047S303.033,243.76,303.033,243.787Z" transform="translate(6584.108 4279.427)" fill="#263238"/>
    <path id="Path_4011" data-name="Path 4011" d="M292.107,245.552a4.876,4.876,0,0,1,0-1.352A4.88,4.88,0,0,1,292.107,245.552Z" transform="translate(6583.924 4279.051)" fill="#263238"/>
    <path id="Path_4012" data-name="Path 4012" d="M314.137,245.574a3.625,3.625,0,0,1,0-1.164A3.627,3.627,0,0,1,314.137,245.574Z" transform="translate(6565.873 4278.879)" fill="#263238"/>
    <path id="Path_4013" data-name="Path 4013" d="M336.787,245.476a4.35,4.35,0,0,1,0-1.276A4.355,4.355,0,0,1,336.787,245.476Z" transform="translate(6547.313 4279.051)" fill="#263238"/>
    <path id="Path_4014" data-name="Path 4014" d="M354.027,245.3a4.616,4.616,0,0,1,0-1.314A4.616,4.616,0,0,1,354.027,245.3Z" transform="translate(6533.187 4279.223)" fill="#263238"/>
    <path id="Path_4015" data-name="Path 4015" d="M287.743,253.519a19.463,19.463,0,0,1-2.7,0,19.463,19.463,0,0,1,2.7,0Z" transform="translate(6589.675 4271.459)" fill="#263238"/>
    <path id="Path_4016" data-name="Path 4016" d="M309.765,253.547a11.373,11.373,0,0,1-2.065,0,11.376,11.376,0,0,1,2.065,0Z" transform="translate(6571.107 4271.431)" fill="#263238"/>
    <path id="Path_4017" data-name="Path 4017" d="M333.4,254.167a13.078,13.078,0,0,1-2.215,0A13.078,13.078,0,0,1,333.4,254.167Z" transform="translate(6551.868 4270.923)" fill="#263238"/>
    <path id="Path_4018" data-name="Path 4018" d="M352.455,253.127a14.912,14.912,0,0,1-2.365,0A14.912,14.912,0,0,1,352.455,253.127Z" transform="translate(6536.373 4271.775)" fill="#263238"/>
    <path id="Path_4019" data-name="Path 4019" d="M292.317,257.428a1.674,1.674,0,0,1,0-.788A1.675,1.675,0,0,1,292.317,257.428Z" transform="translate(6583.752 4268.858)" fill="#263238"/>
    <path id="Path_4020" data-name="Path 4020" d="M284.62,260.787c0,.025-1.093.047-2.439.047s-2.441-.022-2.441-.047,1.093-.047,2.441-.047S284.62,260.765,284.62,260.787Z" transform="translate(6594.017 4265.499)" fill="#263238"/>
    <path id="Path_4021" data-name="Path 4021" d="M306.537,262.156a3.4,3.4,0,0,1,0-1.126A3.393,3.393,0,0,1,306.537,262.156Z" transform="translate(6572.1 4265.261)" fill="#263238"/>
    <path id="Path_4022" data-name="Path 4022" d="M279.527,262.232a3.864,3.864,0,0,1,0-1.2A3.864,3.864,0,0,1,279.527,262.232Z" transform="translate(6594.232 4265.261)" fill="#263238"/>
    <path id="Path_4023" data-name="Path 4023" d="M337.337,257.428a1.675,1.675,0,0,1,0-.788A1.675,1.675,0,0,1,337.337,257.428Z" transform="translate(6546.862 4268.858)" fill="#263238"/>
    <path id="Path_4024" data-name="Path 4024" d="M333,260.787c0,.025-1.847.047-4.123.047s-4.121-.022-4.121-.047,1.845-.047,4.121-.047S333,260.765,333,260.787Z" transform="translate(6557.127 4265.499)" fill="#263238"/>
    <path id="Path_4025" data-name="Path 4025" d="M351.557,262.156a3.4,3.4,0,0,1,0-1.126A3.4,3.4,0,0,1,351.557,262.156Z" transform="translate(6535.21 4265.261)" fill="#263238"/>
    <path id="Path_4026" data-name="Path 4026" d="M371.107,262.156a3.393,3.393,0,0,1,0-1.126A3.4,3.4,0,0,1,371.107,262.156Z" transform="translate(6519.191 4265.261)" fill="#263238"/>
    <path id="Path_4027" data-name="Path 4027" d="M324.547,262.232a3.864,3.864,0,0,1,0-1.2A3.866,3.866,0,0,1,324.547,262.232Z" transform="translate(6557.342 4265.261)" fill="#263238"/>
    <path id="Path_4028" data-name="Path 4028" d="M276.343,271.3a9.861,9.861,0,0,1-1.923,0A9.861,9.861,0,0,1,276.343,271.3Z" transform="translate(6598.377 4256.888)" fill="#263238"/>
    <path id="Path_4029" data-name="Path 4029" d="M302.09,270.537a11.529,11.529,0,0,1-2.08,0A11.54,11.54,0,0,1,302.09,270.537Z" transform="translate(6577.409 4257.511)" fill="#263238"/>
    <path id="Path_4030" data-name="Path 4030" d="M322.33,270.537a8.94,8.94,0,0,1-1.83,0A8.935,8.935,0,0,1,322.33,270.537Z" transform="translate(6560.62 4257.511)" fill="#263238"/>
    <path id="Path_4031" data-name="Path 4031" d="M347.388,270.537a10.517,10.517,0,0,1-1.988,0A10.512,10.512,0,0,1,347.388,270.537Z" transform="translate(6540.216 4257.512)" fill="#263238"/>
    <path id="Path_4032" data-name="Path 4032" d="M367.857,269.847a10.83,10.83,0,0,1-2.016,0A10.84,10.84,0,0,1,367.857,269.847Z" transform="translate(6523.468 4258.076)" fill="#263238"/>
    <path id="Path_4033" data-name="Path 4033" d="M395.214,238.322H382.47V230.43h12.744Zm-12.737-.009h12.737v-7.874H382.479Z" transform="translate(6509.831 4290.333)" fill="#263238"/>
    <path id="Path_4034" data-name="Path 4034" d="M398.32,246.667c-.884-.334-1.9.591-2.766.213-.5-.219-.732-.79-.979-1.279s-.672-1.01-1.218-.952-1,.7-1.53.542a1.029,1.029,0,0,1-.587-.809,1.836,1.836,0,0,0-.4-.952c-.257-.238-.788-.181-.829.181v4.179h9.961A18,18,0,0,0,398.32,246.667Z" transform="translate(6503.653 4279.8)" fill="#ff735d"/>
    <path id="Path_4035" data-name="Path 4035" d="M397.683,268.1c0,.009-2.414.016-5.392.016s-5.392,0-5.392-.016,2.414-.016,5.392-.016S397.683,268.087,397.683,268.1Z" transform="translate(6506.202 4259.485)" fill="#e0e0e0"/>
    <path id="Path_4036" data-name="Path 4036" d="M397.683,258c0,.009-2.414.016-5.392.016s-5.392,0-5.392-.016,2.414-.016,5.392-.016S397.683,257.984,397.683,258Z" transform="translate(6506.202 4267.76)" fill="#263238"/>
    <path id="Path_4037" data-name="Path 4037" d="M397.683,247.926s-2.414.014-5.392.014-5.392,0-5.392-.014,2.414-.016,5.392-.016S397.683,247.912,397.683,247.926Z" transform="translate(6506.202 4276.011)" fill="#263238"/>
    <path id="Path_4038" data-name="Path 4038" d="M397.683,238.286s-2.414.016-5.392.016-5.392,0-5.392-.016,2.414-.016,5.392-.016S397.683,238.277,397.683,238.286Z" transform="translate(6506.202 4283.909)" fill="#263238"/>
    <path id="Path_4039" data-name="Path 4039" d="M282.759,98.282h.069a1.044,1.044,0,0,1,.2.018,1.021,1.021,0,0,1,.3.1.972.972,0,0,1,.32.275,1.135,1.135,0,0,1,.211.47,1.12,1.12,0,0,1-.074.587,1.738,1.738,0,0,1-.146.289,3.057,3.057,0,0,0-.164.293,2.477,2.477,0,0,0-.22.67V101h-.016l-.472-.011-.5-.013h-.014v-.018a1.416,1.416,0,0,0-.2-.661c-.052-.1-.112-.2-.168-.291a2.834,2.834,0,0,1-.155-.28.92.92,0,0,1-.052-.585,1.228,1.228,0,0,1,.2-.468.9.9,0,0,1,.316-.266,1.116,1.116,0,0,1,.3-.1,1.16,1.16,0,0,1,.2-.025h0a1.235,1.235,0,0,0-.193.031,1.18,1.18,0,0,0-.293.1.918.918,0,0,0-.313.266,1.212,1.212,0,0,0-.193.461.883.883,0,0,0,.052.566,2.86,2.86,0,0,0,.155.276c.056.094.116.19.17.291a1.429,1.429,0,0,1,.208.679l-.016-.02.5.013.472.013-.018.014a2.566,2.566,0,0,1,.224-.679,3.052,3.052,0,0,1,.168-.295,1.681,1.681,0,0,0,.145-.284,1.069,1.069,0,0,0,.076-.573,1.13,1.13,0,0,0-.2-.459,1,1,0,0,0-.311-.278,1.062,1.062,0,0,0-.293-.107,1.329,1.329,0,0,0-.2-.023h-.052Z" transform="translate(6592.454 4398.604)" fill="#263238"/>
    <path id="Path_4040" data-name="Path 4040" d="M285.12,104.915a.12.12,0,0,0,0-.016v-.043c0-.04-.011-.1-.02-.181-.014-.15-.038-.361-.049-.634V103.6a.632.632,0,0,1,.063-.237.374.374,0,0,1,.19-.181.244.244,0,0,1,.258.061.181.181,0,0,1,.051.132.237.237,0,0,1-.054.136.343.343,0,0,1-.119.089.648.648,0,0,1-.143.042,1.9,1.9,0,0,1-.607,0,.481.481,0,0,1-.141-.047.361.361,0,0,1-.117-.09.278.278,0,0,1-.065-.13.222.222,0,0,1,.023-.141.2.2,0,0,1,.1-.094.17.17,0,0,1,.135.013.248.248,0,0,1,.1.09.341.341,0,0,1,.045.121,1.418,1.418,0,0,1,.014.244v1.306a.082.082,0,0,0,0-.014v-.226c0-.15,0-.361-.011-.634V103.6a1.385,1.385,0,0,0-.014-.242.333.333,0,0,0-.043-.116.237.237,0,0,0-.094-.085.15.15,0,0,0-.125-.011.181.181,0,0,0-.1.087.2.2,0,0,0-.022.13.278.278,0,0,0,.061.125.432.432,0,0,0,.251.132,1.652,1.652,0,0,0,.3.027,1.5,1.5,0,0,0,.3-.023.527.527,0,0,0,.141-.04.325.325,0,0,0,.114-.083.222.222,0,0,0,.051-.126.163.163,0,0,0-.047-.123.23.23,0,0,0-.242-.058.351.351,0,0,0-.181.17.592.592,0,0,0-.063.231,1.889,1.889,0,0,1-.009.228,1.622,1.622,0,0,0,0,.21c.009.267.031.484.043.632a1.375,1.375,0,0,0,.018.181v.069Z" transform="translate(6590.229 4394.629)" fill="#263238"/>
    <path id="Path_4041" data-name="Path 4041" d="M285.013,113v.573h0l.307.383h.341l.193-.219.1-.108v.014c0-.219,0-.425.011-.613l.02.02-.7-.022h-.275a.242.242,0,0,1,.065,0H286v.632h0l-.1.11-.193.217h-.383l-.323-.4h0c0-.164.009-.305.013-.425A.98.98,0,0,1,285.013,113Z" transform="translate(6589.708 4386.544)" fill="#263238"/>
    <path id="Path_4042" data-name="Path 4042" d="M286.041,115.589l-.036-.016a.72.72,0,0,0-.094-.042.921.921,0,0,0-.334-.065.934.934,0,0,0-.334.058.822.822,0,0,0-.1.04l-.036.016a.133.133,0,0,1,.033-.022l.1-.045a.937.937,0,0,1,.338-.063.916.916,0,0,1,.338.07.89.89,0,0,1,.094.047.133.133,0,0,1,.033.022Z" transform="translate(6589.618 4384.537)" fill="#263238"/>
    <path id="Path_4043" data-name="Path 4043" d="M286.079,114.769l-.034-.018-.1-.042a1,1,0,0,0-.334-.065.972.972,0,0,0-.334.06.822.822,0,0,0-.1.04l-.034.014.033-.02a.581.581,0,0,1,.094-.045.9.9,0,0,1,.34-.063.914.914,0,0,1,.336.07.642.642,0,0,1,.094.047A.134.134,0,0,1,286.079,114.769Z" transform="translate(6589.585 4385.209)" fill="#263238"/>
    <path id="Path_4044" data-name="Path 4044" d="M286.059,114.02a.168.168,0,0,1-.034-.016.779.779,0,0,0-.1-.042.94.94,0,0,0-.669,0c-.04.014-.072.029-.1.04l-.034.016.033-.022c.022-.011.054-.027.094-.043a.882.882,0,0,1,.34-.063.891.891,0,0,1,.338.069c.04.018.072.034.094.047Z" transform="translate(6589.602 4385.815)" fill="#263238"/>
    <path id="Path_4045" data-name="Path 4045" d="M308.763,136.14a19.36,19.36,0,0,0,.1,5.159l4.454-.2s-.954-3.287-.361-4.743Z" transform="translate(6570.346 4367.586)" fill="#ebebeb"/>
    <path id="Path_4046" data-name="Path 4046" d="M309.47,135.55s.031,3.6.213,4.7l4.517-.213a32.058,32.058,0,0,1-.244-4.483Z" transform="translate(6569.657 4368.069)" fill="#ff735d"/>
    <path id="Path_4047" data-name="Path 4047" d="M316.778,143.895c0,.016-.676.07-1.512.121s-1.514.078-1.516.06.676-.07,1.512-.121S316.778,143.876,316.778,143.895Z" transform="translate(6566.15 4361.236)" fill="#fff"/>
    <path id="Path_4048" data-name="Path 4048" d="M316.788,148.1c0,.018-.676.072-1.512.121s-1.516.078-1.516.061.676-.07,1.512-.121S316.786,148.072,316.788,148.1Z" transform="translate(6566.142 4357.796)" fill="#fff"/>
    <path id="Path_4049" data-name="Path 4049" d="M318.446,152.239a1.11,1.11,0,0,1-.251.036c-.155.014-.37.031-.609.045s-.455.023-.611.027a.969.969,0,0,1-.255,0,1.019,1.019,0,0,1,.251-.036c.157-.014.372-.031.611-.045s.454-.025.611-.029A.992.992,0,0,1,318.446,152.239Z" transform="translate(6563.717 4354.402)" fill="#fff"/>
    <path id="Path_4050" data-name="Path 4050" d="M312.952,103c0,.027-2.64.047-5.9.047s-5.9-.02-5.9-.047,2.64-.047,5.9-.047S312.952,102.972,312.952,103Z" transform="translate(6576.464 4394.779)" fill="#263238"/>
    <path id="Path_4051" data-name="Path 4051" d="M305.073,108.947c0,.027-.99.047-2.212.047s-2.212-.02-2.212-.047.99-.047,2.212-.047S305.073,108.918,305.073,108.947Z" transform="translate(6576.884 4389.903)" fill="#263238"/>
    <path id="Path_4052" data-name="Path 4052" d="M330.4,108.947a7.771,7.771,0,0,1-1.706,0A7.769,7.769,0,0,1,330.4,108.947Z" transform="translate(6553.908 4389.903)" fill="#263238"/>
    <path id="Path_4053" data-name="Path 4053" d="M470.246,99.432a.158.158,0,0,1,0-.042.522.522,0,0,0-.011-.121c-.009-.114-.022-.269-.038-.464-.027-.414-.067-1-.116-1.711-.09-1.455-.215-3.448-.352-5.65s-.239-4.2-.323-5.652c-.036-.723-.065-1.3-.087-1.713,0-.2-.014-.351-.018-.466v-.121a.108.108,0,0,1,0-.042q0,.021,0,.042l.011.121c.009.114.022.269.036.464.029.414.069,1,.117,1.711.09,1.445.215,3.448.351,5.65s.24,4.2.323,5.65c.038.723.067,1.3.089,1.715,0,.2.014.351.018.466v.121A.108.108,0,0,1,470.246,99.432Z" transform="translate(6438.691 4410.755)" fill="#263238"/>
    <path id="Path_4054" data-name="Path 4054" d="M297.615,60.371h-5.941l-14.345,0-14.843-.047h0A3.574,3.574,0,0,0,260.6,61.5a3.478,3.478,0,0,0-.734,1.514,3.676,3.676,0,0,0-.07,1.064c.011.121.022.213.033.275a.885.885,0,0,1,.013.094,2.381,2.381,0,0,1-.063-.361,3.554,3.554,0,0,1,.054-1.073,3.493,3.493,0,0,1,.723-1.538,3.614,3.614,0,0,1,1.912-1.207h0l14.845.018,14.338.045,4.347.025,1.182.011h.307Z" transform="translate(6610.37 4429.747)" fill="#263238"/>
    <g id="freepik--character-1--inject-2" transform="translate(6850.051 4500.245)">
      <path id="Path_4146" data-name="Path 4146" d="M158.252,410.73l-.522,9.669,3.5.846.7-9.445Z" transform="translate(-156.061 -357.635)" fill="#aa6550"/>
      <path id="Path_4147" data-name="Path 4147" d="M154.456,463.79l-.6,2.624h4.029l.173-1.709Z" transform="translate(-152.89 -401.108)" fill="#ff735d"/>
      <path id="Path_4148" data-name="Path 4148" d="M158.464,475.586a2.945,2.945,0,0,1-.587.033c-.361,0-.864,0-1.417-.025l-1.415-.06a3.59,3.59,0,0,1-.585-.047,2.782,2.782,0,0,1,.587-.033c.361,0,.864,0,1.417.027l1.415.06A3.26,3.26,0,0,1,158.464,475.586Z" transform="translate(-153.382 -410.661)" fill="#263238"/>
      <path id="Path_4149" data-name="Path 4149" d="M166.558,466.62a3.357,3.357,0,0,1,0,.849,3.152,3.152,0,0,1-.112.842,6.426,6.426,0,0,1,.112-1.691Z" transform="translate(-163.183 -403.426)" fill="#263238"/>
      <g id="Group_2820" data-name="Group 2820" transform="translate(0.97 64.825)" opacity="0.6">
        <path id="Path_4150" data-name="Path 4150" d="M153.86,476.131h4.029l.04-.381-4-.1-.072.435" transform="translate(-153.86 -475.65)" fill="#fff"/>
      </g>
      <path id="Path_4151" data-name="Path 4151" d="M234.22,436.75l.851,6.405,3.1-.215-.65-5.874Z" transform="translate(-218.73 -378.953)" fill="#aa6550"/>
      <path id="Path_4152" data-name="Path 4152" d="M241.848,467.16h0s3.484,1.176,3.541,1.807l-6.66.2-.06-1.74.246.049A4.949,4.949,0,0,0,241.848,467.16Z" transform="translate(-222.376 -403.869)" fill="#ff735d"/>
      <g id="Group_2821" data-name="Group 2821" transform="translate(16.889 63.854)" opacity="0.6">
        <path id="Path_4153" data-name="Path 4153" d="M242.152,470.282a.271.271,0,0,0-.181.316.26.26,0,0,0,.311.181.286.286,0,0,0,.181-.334.271.271,0,0,0-.345-.152" transform="translate(-241.964 -470.276)" fill="#fff"/>
      </g>
      <g id="Group_2822" data-name="Group 2822" transform="translate(16.354 64.755)" opacity="0.6">
        <path id="Path_4154" data-name="Path 4154" d="M239,475.8v-.542l6.385.016s.3.121.273.331Z" transform="translate(-239 -475.26)" fill="#fff"/>
      </g>
      <path id="Path_4155" data-name="Path 4155" d="M254.147,466.864c0,.033-.161.051-.318.161s-.239.248-.269.237.013-.2.206-.331S254.154,466.826,254.147,466.864Z" transform="translate(-234.568 -403.602)" fill="#263238"/>
      <path id="Path_4156" data-name="Path 4156" d="M258.818,468.377c0,.031-.132.09-.239.231s-.134.287-.166.287-.058-.181.078-.361S258.816,468.346,258.818,468.377Z" transform="translate(-238.531 -404.854)" fill="#263238"/>
      <path id="Path_4157" data-name="Path 4157" d="M262.907,470.419c-.029,0-.08-.154,0-.334s.229-.257.244-.229-.078.125-.139.273S262.939,470.419,262.907,470.419Z" transform="translate(-242.198 -406.073)" fill="#263238"/>
      <path id="Path_4158" data-name="Path 4158" d="M251.808,464.539a.609.609,0,0,1-.334.009,1.478,1.478,0,0,1-.35-.1,1.394,1.394,0,0,1-.2-.1.439.439,0,0,1-.1-.076.139.139,0,0,1-.02-.172.181.181,0,0,1,.141-.08.376.376,0,0,1,.125.014,1.086,1.086,0,0,1,.21.065,1.2,1.2,0,0,1,.313.192c.159.139.215.26.2.266s-.092-.089-.253-.2a1.38,1.38,0,0,0-.3-.159,1.216,1.216,0,0,0-.193-.052c-.07-.016-.132-.016-.148.016s0,.016,0,.038a.289.289,0,0,0,.074.054,1.962,1.962,0,0,0,.181.1,1.809,1.809,0,0,0,.325.114A2.807,2.807,0,0,1,251.808,464.539Z" transform="translate(-232.302 -401.302)" fill="#263238"/>
      <path id="Path_4159" data-name="Path 4159" d="M255.772,462.3a.542.542,0,0,1-.1-.32,1.084,1.084,0,0,1,.034-.361.951.951,0,0,1,.079-.2.273.273,0,0,1,.208-.181.155.155,0,0,1,.141.089.459.459,0,0,1,.038.121.733.733,0,0,1,0,.226.782.782,0,0,1-.132.349c-.126.181-.26.219-.264.208a1.419,1.419,0,0,0,.2-.251.759.759,0,0,0,.1-.316.7.7,0,0,0-.011-.193c-.013-.07-.042-.126-.067-.117a.245.245,0,0,0-.114.112,1.2,1.2,0,0,0-.078.181,1.22,1.22,0,0,0-.054.336C255.753,462.17,255.791,462.291,255.772,462.3Z" transform="translate(-236.307 -399.01)" fill="#263238"/>
      <path id="Path_4160" data-name="Path 4160" d="M161.072,257.26s-2.466,4.109-2.466,6.564L158,293.746l3.885.927,2.963-29.242s7.177,29.318,7.408,29.318,3.764-.634,3.764-.634l-5.359-36.721Z" transform="translate(-156.282 -231.895)" fill="#263238"/>
      <path id="Path_4161" data-name="Path 4161" d="M169.919,298a.341.341,0,0,1,0,.076c0,.054-.018.128-.031.22-.033.2-.078.482-.136.844-.119.732-.285,1.791-.484,3.1-.394,2.616-.887,6.248-1.3,10.279s-.665,7.683-.808,10.332c-.072,1.324-.125,2.4-.155,3.137-.016.361-.031.652-.04.853,0,.094-.011.166-.013.222a.379.379,0,0,1-.009.076.5.5,0,0,1,0-.076v-.222c0-.2.011-.488.02-.855.018-.741.058-1.807.121-3.139.125-2.651.361-6.31.777-10.339s.918-7.659,1.333-10.279c.208-1.31.385-2.369.519-3.1.065-.361.117-.643.154-.84.018-.092.031-.164.042-.219a.532.532,0,0,1,.011-.074Z" transform="translate(-163.608 -265.274)" fill="#455a64"/>
      <path id="Path_4162" data-name="Path 4162" d="M217.448,300.77c.029,0,1.214,6.563,2.647,14.666s2.571,14.681,2.542,14.686-1.214-6.561-2.647-14.668S217.419,300.775,217.448,300.77Z" transform="translate(-204.988 -267.543)" fill="#455a64"/>
      <path id="Path_4163" data-name="Path 4163" d="M191.821,265.65a.43.43,0,0,1-.042-.074c-.023-.051-.058-.125-.1-.222a7.722,7.722,0,0,1-.287-.844,8.567,8.567,0,0,1-.278-2.92c.02-.289.06-.567.1-.835s.117-.522.181-.763c.135-.479.278-.9.4-1.265s.228-.641.3-.837l.09-.226a.47.47,0,0,1,.036-.076.254.254,0,0,1-.02.083l-.072.231c-.07.213-.163.5-.275.844s-.249.784-.381,1.265c-.065.238-.132.491-.181.753a7.366,7.366,0,0,0-.1.826,9.089,9.089,0,0,0,.248,2.891c.092.361.192.649.258.847A2.792,2.792,0,0,1,191.821,265.65Z" transform="translate(-183.393 -232.165)" fill="#455a64"/>
      <path id="Path_4164" data-name="Path 4164" d="M201.2,274.243v.056a1.063,1.063,0,0,0,.009.159c0,.146.014.345.025.591.018.513.043,1.227.072,2.082l-.025-.036,1.5.609h-.042l1.214-.739.079-.049-.023.036c.092-.987.181-1.915.253-2.71l.04.045-2.237-.023-.638-.011h-.231a1.525,1.525,0,0,1,.215-.011l.627-.011,2.262-.02h.045v.045c-.07.8-.152,1.729-.24,2.71v.024l-.02.013-.079.047-1.218.737-.02.013-.02-.009-1.492-.62-.023-.009v-.027c-.013-.865-.023-1.588-.031-2.109v-.582A1.31,1.31,0,0,1,201.2,274.243Z" transform="translate(-191.668 -245.782)" fill="#455a64"/>
      <path id="Path_4165" data-name="Path 4165" d="M167.816,270a1.09,1.09,0,0,1-.027.2c-.027.128-.049.32-.083.542-.078.475-.181,1.135-.311,1.924l-.016-.04,1.129.837h-.04l1.373-.381.07-.02-.033.033c.262-.9.51-1.736.723-2.463l.031.052L168.6,270.2l-.578-.143c-.134-.034-.208-.054-.21-.058a1.7,1.7,0,0,1,.2.036l.573.119,2.065.448.042.011-.011.042-.717,2.465v.025h-.025l-.07.02-1.373.379h-.022l-.018-.013-1.126-.824-.02-.016v-.023c.146-.8.267-1.464.361-1.942.043-.222.078-.4.1-.542A1.243,1.243,0,0,1,167.816,270Z" transform="translate(-163.91 -242.333)" fill="#455a64"/>
      <path id="Path_4166" data-name="Path 4166" d="M198.455,299a15.306,15.306,0,0,1-1.651.407,15.614,15.614,0,0,1-1.673.314,15.278,15.278,0,0,1,1.653-.407A15.519,15.519,0,0,1,198.455,299Z" transform="translate(-186.703 -266.093)" fill="#455a64"/>
      <path id="Path_4167" data-name="Path 4167" d="M174.133,296.818a1.6,1.6,0,0,1-.423,0,6.944,6.944,0,0,1-1.012-.157,6.774,6.774,0,0,1-.978-.3,1.474,1.474,0,0,1-.381-.181,2.587,2.587,0,0,1,.4.123c.248.079.591.181.978.269s.739.148,1,.181a2.374,2.374,0,0,1,.416.065Z" transform="translate(-167.212 -263.783)" fill="#455a64"/>
      <path id="Path_4168" data-name="Path 4168" d="M162.438,127.19c.134.387-.325.723-.723.808s-.882.148-1.064.515c-.159.318,0,.723-.143,1.046-.275.616-1.384.488-1.6,1.127-.159.444.26.891.2,1.348-.045.4-.408.667-.723.9s-.654.571-.605.968c.058.457.618.773.566,1.232s-.658.661-.746,1.108c-.1.528.558.867.772,1.362.163.378.061.866.336,1.173s.781.251,1.193.164l4.114-.873a2.163,2.163,0,0,1,.379-2c.4-.585.923-1.084,1.265-1.7a1.826,1.826,0,0,0,0-2" transform="translate(-155.946 -125.327)" fill="#263238"/>
      <path id="Path_4169" data-name="Path 4169" d="M220.6,140.648a4.345,4.345,0,0,0-.136-.65.638.638,0,0,0-.164-.266c-.081-.078-.181-.029-.253.081a1.988,1.988,0,0,0,0,1.668c.067.112.181.161.253.083a.655.655,0,0,0,.164-.267,4.357,4.357,0,0,0,.136-.649.514.514,0,0,1,.014.181,1.808,1.808,0,0,1-.078.493.723.723,0,0,1-.181.311.219.219,0,0,1-.219.051.361.361,0,0,1-.181-.146,2.022,2.022,0,0,1,0-1.778.362.362,0,0,1,.181-.146.219.219,0,0,1,.219.051.723.723,0,0,1,.181.311,1.807,1.807,0,0,1,.078.491A.528.528,0,0,1,220.6,140.648Z" transform="translate(-206.875 -135.496)" fill="#263238"/>
      <path id="Path_4170" data-name="Path 4170" d="M181.678,128.959a11.8,11.8,0,0,1-1.146-4.38c-.089-.683-.244-1.653.235-2.08.515-.457.564-1.162,1.155-1.514a1.815,1.815,0,0,1,1.948.022" transform="translate(-174.665 -120.02)" fill="#263238"/>
      <path id="Path_4171" data-name="Path 4171" d="M191.125,136.535h0a2.015,2.015,0,0,0,2.168-1.928c.047-1.1.087-2.208.087-2.208a1.986,1.986,0,0,0,1.791-1.807c.126-1.655.081-5.45.081-5.45h0a5.74,5.74,0,0,0-5.8.361l.085,5.8-.009,3.119A1.946,1.946,0,0,0,191.125,136.535Z" transform="translate(-182.049 -123.142)" fill="#aa6550"/>
      <path id="Path_4172" data-name="Path 4172" d="M189.653,122.322a.843.843,0,0,0-1.124-.248.958.958,0,0,0-.323,1.2,1.265,1.265,0,0,0,.808.613.634.634,0,0,1,.493.683c-.049.412-.737.566-1.05.9a3.941,3.941,0,0,1-2.257.835c-.714.081-.618.089-1.024-.49a2.215,2.215,0,0,1-.4-1.337q-.031-1.823-.063-3.644a5.1,5.1,0,0,1,.087-1.306,1.745,1.745,0,0,1,.692-1.084,5.262,5.262,0,0,1,1.366-.43,11.008,11.008,0,0,0,1.59-.831,1.955,1.955,0,0,1,1.726-.163c.383.2.64.578,1.014.793.531.3,1.265.237,1.512,1.021a1.332,1.332,0,0,1-.011.838,1.936,1.936,0,0,1-2.634,1.026,2.594,2.594,0,0,1-.034,1.153c-.061.181-.083.459-.361.463" transform="translate(-178.162 -116.879)" fill="#263238"/>
      <path id="Path_4173" data-name="Path 4173" d="M207.592,149.064a.162.162,0,0,1-.022.07.246.246,0,0,1-.181.092.452.452,0,0,1-.425-.455.473.473,0,0,1,.121-.349.491.491,0,0,1,.258-.148c.17-.034.267.029.26.038a1.628,1.628,0,0,0-.237.042.412.412,0,0,0-.289.4.385.385,0,0,0,.307.378C207.525,149.152,207.581,149.053,207.592,149.064Z" transform="translate(-196.399 -142.593)" fill="#995037"/>
      <path id="Path_4174" data-name="Path 4174" d="M214.343,145a6,6,0,0,1-1.108.237,6.228,6.228,0,0,1-1.126.13,5.97,5.97,0,0,1,1.108-.237A6.061,6.061,0,0,1,214.343,145Z" transform="translate(-200.615 -139.919)" fill="#263238"/>
      <path id="Path_4175" data-name="Path 4175" d="M186.157,158.741a.479.479,0,0,0,.573.229,1.378,1.378,0,0,0,.553-.376,1.456,1.456,0,0,1,.542-.383c.439-.134.978.159,1.346-.114.336-.248.293-.809.623-1.066.181-.135.419-.154.6-.285a.777.777,0,0,0,0-1.1,2.243,2.243,0,0,0-1.1-.542l-3.54,1.509Z" transform="translate(-179.018 -148.194)" fill="#263238"/>
      <path id="Path_4176" data-name="Path 4176" d="M173.7,139.85a.184.184,0,0,1-.029.022.727.727,0,0,1-.094.052,1.905,1.905,0,0,1-.387.139,4.409,4.409,0,0,1-.643.1,6.52,6.52,0,0,0-.846.116,1.592,1.592,0,0,0-.873.479,4.788,4.788,0,0,0-.513,1.061,1.368,1.368,0,0,1-.412.519,2.168,2.168,0,0,1-.616.3,3.586,3.586,0,0,0-1.276.542.9.9,0,0,0-.327.578,3.977,3.977,0,0,0,0,.688,1.265,1.265,0,0,1-.132.678,1.245,1.245,0,0,1-.479.461c-.361.219-.757.334-1.066.531a1.236,1.236,0,0,0-.381.352.925.925,0,0,0-.145.45,3.1,3.1,0,0,0,.114.837,2.169,2.169,0,0,1,.06.65.9.9,0,0,1-.117.4.5.5,0,0,1-.09.114.981.981,0,0,0,.166-.511,2.194,2.194,0,0,0-.076-.634,3.1,3.1,0,0,1-.132-.855,1,1,0,0,1,.15-.491,1.313,1.313,0,0,1,.4-.381c.322-.21.712-.329,1.064-.542a1.034,1.034,0,0,0,.557-1.053,4.011,4.011,0,0,1,0-.706,1.015,1.015,0,0,1,.361-.643,3.71,3.71,0,0,1,1.312-.558,2.1,2.1,0,0,0,.589-.285,1.279,1.279,0,0,0,.385-.482,4.875,4.875,0,0,1,.533-1.073,1.648,1.648,0,0,1,.925-.493,6.084,6.084,0,0,1,.856-.1,4.931,4.931,0,0,0,.64-.083A2.765,2.765,0,0,0,173.7,139.85Z" transform="translate(-162.353 -135.699)" fill="#455a64"/>
      <path id="Path_4177" data-name="Path 4177" d="M184.648,143.1c0,.011-.128,0-.345.049a1.563,1.563,0,0,0-.793.473,1.445,1.445,0,0,0-.316.555,2.416,2.416,0,0,0-.065.739,1.928,1.928,0,0,1-.123.846.853.853,0,0,1-.309.347,3.87,3.87,0,0,1-.4.222,1.072,1.072,0,0,0-.351.249.634.634,0,0,0-.139.379,2.122,2.122,0,0,1-.094.844,1.388,1.388,0,0,1-.551.542c-.208.123-.41.215-.58.318a1.39,1.39,0,0,0-.408.338.914.914,0,0,0-.181.361.808.808,0,0,0,0,.341.2.2,0,0,1-.036-.085.626.626,0,0,1-.011-.264.935.935,0,0,1,.168-.385,1.471,1.471,0,0,1,.417-.361c.181-.11.374-.206.573-.329a1.3,1.3,0,0,0,.508-.513,2.055,2.055,0,0,0,.079-.808.739.739,0,0,1,.161-.441,1.163,1.163,0,0,1,.387-.276,1.249,1.249,0,0,0,.67-.517,1.858,1.858,0,0,0,.117-.8,2.53,2.53,0,0,1,.079-.766,1.471,1.471,0,0,1,.345-.578,1.559,1.559,0,0,1,.84-.464,1.136,1.136,0,0,1,.262-.018A.3.3,0,0,1,184.648,143.1Z" transform="translate(-174.257 -138.363)" fill="#455a64"/>
      <path id="Path_4178" data-name="Path 4178" d="M192.012,171.991l-.428-.88-3.72-.141-.584,1.144h4.673" transform="translate(-180.271 -161.196)" fill="#ff735d"/>
      <path id="Path_4179" data-name="Path 4179" d="M229.52,188.061c-.027-.134.983-5.388,1.265-6.83a.305.305,0,0,0-.3-.361h-7.452a.3.3,0,0,0-.3.235l-1.525,6.431-3.76.28.132.248Z" transform="translate(-204.99 -169.308)" fill="#455a64"/>
      <path id="Path_4180" data-name="Path 4180" d="M247.406,189.209l1.205-6.369-7.323.043-1.608,6.335Z" transform="translate(-223.203 -170.922)" fill="#ebebeb"/>
      <path id="Path_4181" data-name="Path 4181" d="M239.65,189.222h0l1.608-6.337h0l7.329-.045h0l-1.207,6.373h0Zm1.617-6.324-1.606,6.324,7.717-.009,1.2-6.36Z" transform="translate(-223.179 -170.922)" fill="#263238"/>
      <path id="Path_4182" data-name="Path 4182" d="M239,218.117c0,.025-2.143.047-4.785.047s-4.786-.022-4.786-.047,2.141-.047,4.786-.047S239,218.092,239,218.117Z" transform="translate(-214.806 -199.786)" fill="#263238"/>
      <path id="Path_4183" data-name="Path 4183" d="M253.136,193.347a.3.3,0,0,1-.094,0l-.275.009-1.01.014c-.853,0-2.029.014-3.33.014H247.3l.014-.056c.26-1,.486-1.879.652-2.53.081-.3.148-.542.2-.737a1.837,1.837,0,0,1,.083-.262,1.7,1.7,0,0,1-.052.271c-.043.181-.1.435-.181.743-.157.643-.372,1.521-.62,2.53l-.043-.056h1.068c1.3,0,2.477,0,3.33.014l1.01.014h.275A.3.3,0,0,1,253.136,193.347Z" transform="translate(-229.447 -176.624)" fill="#455a64"/>
      <path id="Path_4184" data-name="Path 4184" d="M250.25,205.3l.135-.614h.943l-.121.614Z" transform="translate(-231.864 -188.824)" fill="#ff735d"/>
      <path id="Path_4185" data-name="Path 4185" d="M257.34,202.609l.284-1.209h.943l-.267,1.209Z" transform="translate(-237.673 -186.128)" fill="#ff735d"/>
      <path id="Path_4186" data-name="Path 4186" d="M264.43,205.3l.137-.614h.943l-.121.614Z" transform="translate(-243.481 -188.824)" fill="#ff735d"/>
      <path id="Path_4187" data-name="Path 4187" d="M271.52,197.439l.54-2.349H273l-.524,2.349Z" transform="translate(-249.29 -180.958)" fill="#ff735d"/>
      <path id="Path_4188" data-name="Path 4188" d="M250.891,211.644a.805.805,0,0,1-.381.043c-.21,0-.379-.023-.379-.051a1.564,1.564,0,0,1,.761,0Z" transform="translate(-231.765 -194.477)" fill="#455a64"/>
      <path id="Path_4189" data-name="Path 4189" d="M257.761,211.623a.822.822,0,0,1-.379.043.834.834,0,0,1-.381-.051.821.821,0,0,1,.381-.043A.8.8,0,0,1,257.761,211.623Z" transform="translate(-237.394 -194.457)" fill="#455a64"/>
      <path id="Path_4190" data-name="Path 4190" d="M264.641,211.612a.833.833,0,0,1-.381.043.824.824,0,0,1-.379-.051.815.815,0,0,1,.381-.043A.8.8,0,0,1,264.641,211.612Z" transform="translate(-243.031 -194.448)" fill="#455a64"/>
      <path id="Path_4191" data-name="Path 4191" d="M271.543,211.647a1.57,1.57,0,0,1-.763,0A1.57,1.57,0,0,1,271.543,211.647Z" transform="translate(-248.684 -194.485)" fill="#455a64"/>
      <path id="Path_4192" data-name="Path 4192" d="M255.289,188.122a11.857,11.857,0,0,1-2.109,0,11.857,11.857,0,0,1,2.109,0Z" transform="translate(-234.264 -175.206)" fill="#455a64"/>
      <path id="Path_4193" data-name="Path 4193" d="M254.476,186.7a2.268,2.268,0,0,1-.936,0A2.35,2.35,0,0,1,254.476,186.7Z" transform="translate(-234.559 -174.043)" fill="#455a64"/>
      <path id="Path_4194" data-name="Path 4194" d="M240.609,222.936l4.311-3.12-.161-.26a2.08,2.08,0,0,0-1.008-.846l-.674.121-4,.609Z" transform="translate(-222.712 -200.31)" fill="#ff735d"/>
      <path id="Path_4195" data-name="Path 4195" d="M162.1,218.229l3.583-1.424-.8-2.965-2.918.992Z" transform="translate(-159.526 -196.32)" fill="#ff735d"/>
      <path id="Path_4196" data-name="Path 4196" d="M166.239,188.149a1.748,1.748,0,0,0,.687-2.4l-3.706-7.932a1.446,1.446,0,0,0-.374-.511,4.19,4.19,0,0,0-3.072-1.052l-3.87-.1s-3.041,0-4.181,2.4c-.083.181-1.85,3.681-3.016,5.99a2,2,0,0,0,1.095,2.775h0a1.988,1.988,0,0,0,2.512-1.057l1.265-2.822.788,4.042-1.147,3.332,9.6.132-.737-4.458-.233-3.176,1.953,4.022a1.807,1.807,0,0,0,2.441.833Z" transform="translate(-148.492 -165.441)" fill="#ff735d"/>
      <g id="Group_2823" data-name="Group 2823" transform="translate(6.154 19.044)" opacity="0.2">
        <path id="Path_4197" data-name="Path 4197" d="M182.6,225.189a3.6,3.6,0,0,0,2.692.215,3.89,3.89,0,0,0,2.349-1.265,1.583,1.583,0,0,0,.435-1.108.8.8,0,0,0-.8-.75c-.463.056-.687.576-.9.987a3.594,3.594,0,0,1-3.746,1.758S182.472,225.093,182.6,225.189Z" transform="translate(-182.549 -222.277)"/>
      </g>
      <g id="Group_2824" data-name="Group 2824" transform="translate(12.131 15.711)" opacity="0.2">
        <path id="Path_4198" data-name="Path 4198" d="M215.63,203.83a26.323,26.323,0,0,0,.506,3.487,5.078,5.078,0,0,0,1.025,2.475l-.3-3.811Z" transform="translate(-215.63 -203.83)"/>
      </g>
      <path id="Path_4199" data-name="Path 4199" d="M173.445,248.174l-.275-.8.716-.477,8.8-.726.62,1.167-.267.968Z" transform="translate(-168.711 -222.809)" fill="#ff735d"/>
      <path id="Path_4200" data-name="Path 4200" d="M179.341,169.049a1.312,1.312,0,0,0-.611,1.959.658.658,0,0,1,.168.361c-.018.325-.542.334-.708.614a.5.5,0,0,0,.141.587,3.8,3.8,0,0,0,.542.361.665.665,0,0,1,.332.529c.181,0,.293-.228.266-.408a1.829,1.829,0,0,0-.226-.5.522.522,0,0,1-.023-.522c.119-.172.361-.181.56-.255a.781.781,0,0,0,.414-1c-.119-.264-.394-.531-.26-.788.074-.143.246-.2.387-.276a1.006,1.006,0,0,0,.132-1.677" transform="translate(-172.789 -158.788)" fill="#263238"/>
      <path id="Path_4201" data-name="Path 4201" d="M168.782,218.59a2.351,2.351,0,0,1-.2.45c-.134.273-.329.643-.564,1.043s-.468.746-.643,1a2.4,2.4,0,0,1-.3.387,2.676,2.676,0,0,1,.246-.425c.159-.257.381-.611.616-1.006s.437-.761.585-1.024A2.641,2.641,0,0,1,168.782,218.59Z" transform="translate(-163.721 -200.212)" fill="#263238"/>
      <path id="Path_4202" data-name="Path 4202" d="M170.017,227a1.543,1.543,0,0,1-.4,1.24c-.023-.016.139-.264.246-.605S169.988,227,170.017,227Z" transform="translate(-165.8 -207.103)" fill="#263238"/>
      <path id="Path_4203" data-name="Path 4203" d="M234.816,195.677c-.023.011-.775-1.561-1.677-3.509s-1.615-3.538-1.592-3.549.775,1.559,1.677,3.509S234.84,195.667,234.816,195.677Z" transform="translate(-216.54 -175.657)" fill="#263238"/>
      <path id="Path_4204" data-name="Path 4204" d="M216.878,182.84c0,.014-.163.074-.4.222a2.5,2.5,0,0,0-1.164,1.773c-.042.278-.029.455-.045.457a1.167,1.167,0,0,1-.022-.466,2.333,2.333,0,0,1,1.2-1.821A1.151,1.151,0,0,1,216.878,182.84Z" transform="translate(-203.174 -170.922)" fill="#263238"/>
      <path id="Path_4205" data-name="Path 4205" d="M172.66,201.664c-.025,0-.457-1.832-.965-4.107s-.9-4.121-.873-4.127.457,1.832.965,4.107S172.682,201.664,172.66,201.664Z" transform="translate(-166.786 -179.598)" fill="#263238"/>
      <path id="Path_4206" data-name="Path 4206" d="M268.762,221.413l1.749-.753H268.18l.51.661" transform="translate(-246.554 -201.908)" fill="#aa6550"/>
      <path id="Path_4207" data-name="Path 4207" d="M247.707,222.231a3.024,3.024,0,0,1-.425-.4,3.233,3.233,0,0,1-.412-.412,1.292,1.292,0,0,1,.477.345A1.341,1.341,0,0,1,247.707,222.231Z" transform="translate(-229.094 -202.531)" fill="#263238"/>
      <path id="Path_4208" data-name="Path 4208" d="M218.73,209.619a1.511,1.511,0,0,1-.148-.244c-.09-.159-.215-.392-.361-.681-.3-.58-.708-1.388-1.149-2.28s-.847-1.7-1.149-2.28c-.143-.278-.264-.51-.361-.687a1.794,1.794,0,0,1-.121-.257,1.629,1.629,0,0,1,.154.238c.094.157.226.387.383.674.316.573.732,1.375,1.173,2.269s.831,1.689,1.126,2.291l.34.7A1.7,1.7,0,0,1,218.73,209.619Z" transform="translate(-203.343 -187.595)" fill="#263238"/>
      <path id="Path_4209" data-name="Path 4209" d="M192.223,225.18v.063a1.622,1.622,0,0,1-.031.181,2.385,2.385,0,0,1-.24.627,3.521,3.521,0,0,1-1.626,1.446,7.047,7.047,0,0,1-2.116.528c-.276.031-.5.049-.658.06a1.033,1.033,0,0,1-.242,0,1.465,1.465,0,0,1,.238-.042l.652-.09a7.625,7.625,0,0,0,2.085-.542,3.614,3.614,0,0,0,1.6-1.384A3.413,3.413,0,0,0,192.223,225.18Z" transform="translate(-180.296 -205.611)" fill="#263238"/>
      <path id="Path_4210" data-name="Path 4210" d="M179.675,250.957c0,.025-1.189.13-2.66.233s-2.663.166-2.665.139,1.189-.13,2.66-.233S179.673,250.921,179.675,250.957Z" transform="translate(-169.678 -226.723)" fill="#263238"/>
      <path id="Path_4211" data-name="Path 4211" d="M212.286,247a4.32,4.32,0,0,1,.192,1.821c-.027,0-.038-.41-.092-.9A9.158,9.158,0,0,1,212.286,247Z" transform="translate(-200.755 -223.489)" fill="#263238"/>
      <path id="Path_4212" data-name="Path 4212" d="M214.92,243.82a1.232,1.232,0,0,1,.08.361,4.591,4.591,0,0,1-.125,1.783,1.161,1.161,0,0,1-.13.349c-.029,0,.141-.542.181-1.241S214.891,243.824,214.92,243.82Z" transform="translate(-202.771 -220.883)" fill="#263238"/>
      <path id="Path_4213" data-name="Path 4213" d="M196.136,175.981a18.948,18.948,0,0,1-1.921-.06c-1.059-.06-1.915-.13-1.915-.155s.862,0,1.921.061A18.926,18.926,0,0,1,196.136,175.981Z" transform="translate(-184.384 -165.118)" fill="#263238"/>
    </g>
    <g id="freepik--Chart--inject-2" transform="translate(6871.322 4534.993)">
      <path id="Path_4220" data-name="Path 4220" d="M274.239,316.358a.871.871,0,0,1-.154.011l-.441.009-1.617.016-5.338.014h-.43v-.051c0-1.988.011-3.78.016-5.083,0-.638.011-1.156.014-1.527,0-.172,0-.311.009-.414a.765.765,0,0,1,.011-.145.921.921,0,0,1,0,.145c0,.1,0,.242.009.414,0,.37.009.889.016,1.527,0,1.3,0,3.09.016,5.083l-.051-.051h.379l5.337.016,1.617.014.441.011A1.038,1.038,0,0,1,274.239,316.358Z" transform="translate(-266.26 -309.19)" fill="#263238"/>
      <path id="Path_4221" data-name="Path 4221" d="M276.93,318.82a2.12,2.12,0,0,1-.237.226l-.669.587c-.569.493-1.357,1.169-2.233,1.91l-.134.112-.033.029-.033-.031-.994-.923h.061l-1.458,1.2-.423.338a.949.949,0,0,1-.159.114.918.918,0,0,1,.139-.137l.406-.361,1.435-1.23.031-.027.031.027,1,.918h-.065l.132-.112c.876-.741,1.671-1.408,2.251-1.886l.69-.564A2.172,2.172,0,0,1,276.93,318.82Z" transform="translate(-269.832 -317.08)" fill="#263238"/>
      <path id="Path_4222" data-name="Path 4222" d="M297.044,320.061a2.6,2.6,0,0,1-.034-.5c-.009-.305-.014-.723-.016-1.205l.051.051h-.085c-.493,0-.94,0-1.265-.014a2.628,2.628,0,0,1-.524-.036,2.933,2.933,0,0,1,.524-.034c.323-.011.77-.016,1.265-.016h.136v.051c0,.473,0,.9-.016,1.205A2.606,2.606,0,0,1,297.044,320.061Z" transform="translate(-289.946 -316.662)" fill="#263238"/>
    </g>
    <g id="freepik--Gears--inject-2" transform="translate(6840.484 4513.638)">
      <path id="Path_4223" data-name="Path 4223" d="M103.373,191.836a2.863,2.863,0,0,1,.723.193l.542-.45.922.7-.289.638a2.789,2.789,0,0,1,.379.652l.7.061.155,1.149-.656.244a2.821,2.821,0,0,1-.192.723l.45.542-.7.922-.634-.282a2.911,2.911,0,0,1-.654.381l-.061.7-1.147.155-.246-.656a2.861,2.861,0,0,1-.723-.193l-.542.45-.922-.7.289-.638a2.787,2.787,0,0,1-.379-.652l-.7-.061-.155-1.149.656-.244a2.853,2.853,0,0,1,.192-.732l-.45-.542.7-.922.636.291a2.907,2.907,0,0,1,.654-.381l.061-.7,1.147-.155.246.656Zm-.472,1.594a1.243,1.243,0,1,0,1.4,1.066A1.243,1.243,0,0,0,102.9,193.43Z" transform="translate(-98.796 -191.147)" fill="#ff735d"/>
      <path id="Path_4224" data-name="Path 4224" d="M113.16,203.526a.224.224,0,0,1,.078-.016.992.992,0,0,1,.229,0,1.245,1.245,0,0,1,.762.351,1.282,1.282,0,1,1-2.007.275,1.248,1.248,0,0,1,.641-.542.971.971,0,0,1,.224-.056.223.223,0,0,1,.079,0c0,.011-.108.022-.289.1a1.249,1.249,0,0,0-.593.542,1.2,1.2,0,0,0,1.877,1.445,1.187,1.187,0,0,0,.34-.605,1.209,1.209,0,0,0-.316-1.106,1.236,1.236,0,0,0-.723-.361C113.27,203.519,113.16,203.537,113.16,203.526Z" transform="translate(-109.055 -201.244)" fill="#ff735d"/>
      <path id="Path_4225" data-name="Path 4225" d="M103.275,191.688a.086.086,0,0,0-.018-.04l-.051-.121c-.045-.117-.11-.28-.192-.49l.016.011-1.146.164.022-.022c-.018.211-.038.446-.058.7v.014h-.016a2.859,2.859,0,0,0-.643.379l-.016.013-.018-.009-.638-.287.042-.011-.7.925v-.051l.452.542.016.018v.023a2.851,2.851,0,0,0-.19.723v.025l-.025.009-.656.248.029-.049c.051.361.1.75.157,1.147l-.042-.04.7.061h.029l.011.027a2.808,2.808,0,0,0,.376.64l.018.023-.013.027c-.09.2-.181.417-.291.638l-.014-.06.923.7h-.063l.542-.45.023-.02.029.013a2.813,2.813,0,0,0,.723.181h0c.018.014-.042-.031.04.033h0v.031l.014.042.031.081.061.164c.042.11.081.219.123.327l-.054-.033,1.149-.155-.043.045c.022-.235.042-.466.061-.7V197.1l.027-.013a2.793,2.793,0,0,0,.641-.372l.023-.018.027.013.636.291-.058.014.7-.922v.058l-.448-.542-.018-.02.011-.025a2.79,2.79,0,0,0,.192-.723v-.025h.025l.656-.244-.027.045c-.052-.4-.1-.786-.152-1.149l.034.033-.7-.063h-.023v-.02a2.736,2.736,0,0,0-.374-.647l-.013-.016v-.018l.293-.636.009.036-.916-.706h.027l-.542.446h0a2.95,2.95,0,0,0-.542-.17l-.137-.027c-.033,0-.047-.009-.045-.011h.047a1,1,0,0,1,.139.02,2.744,2.744,0,0,1,.542.155H104l.542-.455.014-.011.014.011.925.7.02.014-.011.022-.287.638v-.033a2.872,2.872,0,0,1,.388.658l-.031-.022.7.06h.031v.031q.076.542.159,1.147v.034l-.033.011-.654.248.027-.036a2.891,2.891,0,0,1-.193.743v-.047c.146.181.3.361.45.542l.023.029-.022.029-.7.923-.022.031-.036-.016-.638-.289h.051a2.89,2.89,0,0,1-.663.388l.031-.042c-.022.229-.042.463-.061.7v.04h-.04l-1.147.155h-.04l-.014-.036c-.042-.108-.081-.219-.123-.327l-.061-.164-.031-.083-.014-.042-.009-.02v-.011h0c.081.063.023.016.042.031h0a2.951,2.951,0,0,1-.743-.2l.052-.009-.542.45-.031.025-.033-.023-.922-.7-.031-.023.016-.036c.1-.219.2-.437.291-.636v.049a2.933,2.933,0,0,1-.387-.663l.04.029-.7-.061h-.038v-.038c-.052-.4-.1-.788-.154-1.147v-.036l.034-.013.656-.244-.027.036a2.8,2.8,0,0,1,.2-.741v.042c-.157-.181-.311-.37-.448-.542l-.022-.023.02-.025.7-.92.018-.023.025.013.636.293h-.034a2.982,2.982,0,0,1,.661-.381l-.018.025c.023-.251.047-.486.067-.7v-.02h.02l1.149-.146h.013v.013q.114.314.181.488c.018.052.033.1.045.128A.422.422,0,0,1,103.275,191.688Z" transform="translate(-98.698 -191)" fill="#ff735d"/>
      <path id="Path_4226" data-name="Path 4226" d="M98.038,235.814a1.8,1.8,0,0,1,.459.121l.336-.282.58.441-.181.4a1.815,1.815,0,0,1,.239.41l.439.038.1.723-.412.155a1.806,1.806,0,0,1-.121.459l.282.336-.441.58-.4-.181a1.816,1.816,0,0,1-.41.239l-.04.437-.723.1-.154-.41a1.805,1.805,0,0,1-.459-.123l-.336.284-.58-.441.181-.4a1.764,1.764,0,0,1-.239-.408l-.437-.04-.1-.723.412-.154a1.79,1.79,0,0,1,.121-.459l-.284-.34.441-.578.4.181a1.817,1.817,0,0,1,.41-.238l.04-.439.723-.1.154.412Zm-.3,1a.781.781,0,1,0,.878.669A.781.781,0,0,0,97.741,236.815Z" transform="translate(-95.593 -227.377)" fill="none"/>
      <path id="Path_4227" data-name="Path 4227" d="M104.184,243.161l.049-.011a.606.606,0,0,1,.145,0,.782.782,0,0,1,.479.219.806.806,0,0,1-.954,1.279.786.786,0,0,1-.329-.336.8.8,0,0,1,.018-.772.777.777,0,0,1,.4-.34.72.72,0,0,1,.139-.034h.051a1.115,1.115,0,0,0-.181.061.784.784,0,0,0-.374.34.757.757,0,0,0,0,.723.734.734,0,0,0,.307.309.746.746,0,0,0,.878-.119.723.723,0,0,0,.213-.379.759.759,0,0,0-.2-.694.786.786,0,0,0-.45-.228C104.254,243.156,104.184,243.168,104.184,243.161Z" transform="translate(-102.035 -233.724)" fill="#263238"/>
      <path id="Path_4228" data-name="Path 4228" d="M97.915,235.74l-.011-.023-.033-.078c-.029-.072-.069-.181-.119-.307h.009l-.723.1.013-.014c-.011.134-.022.28-.034.439v.011h-.011a1.806,1.806,0,0,0-.4.238H96.59l-.4-.181h.027l-.446.591v-.031l.282.336.011.011v.016a1.727,1.727,0,0,0-.119.452v.016h-.014l-.412.155.018-.031c.031.226.065.472.1.723l-.027-.025.437.038h.018v.016a1.715,1.715,0,0,0,.237.4l.011.014v.016l-.181.4v-.038l.578.441H96.65c.1-.09.22-.181.336-.284l.014-.013h.018a1.716,1.716,0,0,0,.45.119h0l.025.02h0v.023l.009.025.02.052.038.1c.025.069.052.137.078.2l-.034-.02.723-.1-.027.029c.013-.148.027-.295.04-.439v-.018h.016a1.658,1.658,0,0,0,.4-.235l.014-.011h.018l.4.181-.036.011c.15-.2.3-.39.441-.58v.036l-.282-.336-.011-.014v-.014a1.781,1.781,0,0,0,.121-.452v-.016h.014l.414-.154-.018.027c-.033-.253-.065-.493-.1-.723l.022.022-.437-.04h-.014v-.013a1.807,1.807,0,0,0-.235-.407V236.4c.069-.145.128-.275.181-.4v.023l-.576-.444h.016l-.34.278h0a1.913,1.913,0,0,0-.34-.107l-.087-.016h0l.089.013a1.628,1.628,0,0,1,.345.1H98.35l.334-.285h.009l.582.435h.013v.014c-.056.125-.114.255-.181.4v-.022a1.806,1.806,0,0,1,.244.414l-.02-.013.439.036h.018v.02c.031.228.065.466.1.723v.02h-.02l-.412.155.018-.022a1.836,1.836,0,0,1-.123.466v-.029l.282.336.016.018-.014.018-.441.58-.014.018h-.022l-.4-.181h.031a1.844,1.844,0,0,1-.417.244l.02-.027q-.018.217-.038.439v.025H98.33l-.723.1h-.025l-.009-.023L97.5,239.5l-.04-.1-.02-.052V239.3h0l.025.02h0a1.9,1.9,0,0,1-.466-.123h.031l-.336.282-.02.016-.02-.014-.578-.428-.02-.016.011-.022.181-.4v.033a1.824,1.824,0,0,1-.242-.417l.023.018-.437-.04h-.023v-.023c-.033-.249-.065-.493-.1-.723v-.022h.022l.412-.154-.018.022a1.807,1.807,0,0,1,.125-.464v.025l-.278-.345-.014-.014.013-.016.443-.578.011-.013H96.2l.4.181h-.022a1.883,1.883,0,0,1,.416-.24l-.011.016.042-.437V235.4h.013l.723-.092h0l.108.307.027.079A.158.158,0,0,1,97.915,235.74Z" transform="translate(-95.47 -227.304)" fill="#263238"/>
    </g>
    <g id="freepik--Clock--inject-2" transform="translate(6858.117 4486.195)">
      <circle id="Ellipse_152" data-name="Ellipse 152" cx="3.928" cy="3.928" r="3.928" transform="translate(0 2.242) rotate(-16.58)" fill="#f5f5f5"/>
      <path id="Path_4229" data-name="Path 4229" d="M198.383,47.93a.429.429,0,0,1,0,.063v.318a.668.668,0,0,0,.014.164,3.041,3.041,0,0,0,.058.41,3.713,3.713,0,0,0,.381,1.081,3.928,3.928,0,0,0,.9,1.156,3.876,3.876,0,0,0,1.588.831,3.916,3.916,0,0,0,2.049-.038,3.835,3.835,0,0,0,.52-.19,3.9,3.9,0,0,0,.5-.273,4.983,4.983,0,0,0,.464-.345,4.778,4.778,0,0,0,.416-.419,3.757,3.757,0,0,0,.625-1.032,3.862,3.862,0,0,0-.318-3.556,4.515,4.515,0,0,0-.356-.472,4.368,4.368,0,0,0-.416-.4,4.279,4.279,0,0,0-.454-.338,4.378,4.378,0,0,0-.491-.255,3.89,3.89,0,0,0-4.774,1.348,3.7,3.7,0,0,0-.5,1.006,2.878,2.878,0,0,0-.11.4c-.013.058-.027.112-.036.163s-.013.094-.018.136q-.016.116-.027.181a.306.306,0,0,1-.011.063.24.24,0,0,1,0-.063c0-.047.011-.108.018-.181,0-.042.009-.089.013-.137s.022-.1.033-.164a3.08,3.08,0,0,1,.1-.4,3.7,3.7,0,0,1,.5-1.026,3.956,3.956,0,0,1,4.851-1.4,4.14,4.14,0,0,1,.5.26,4.016,4.016,0,0,1,.466.343,3.615,3.615,0,0,1,.784.9,3.848,3.848,0,0,1,.5,1.129,3.924,3.924,0,0,1-.8,3.55,4.759,4.759,0,0,1-.419.434,4.7,4.7,0,0,1-.477.361,4.058,4.058,0,0,1-.506.278,3.988,3.988,0,0,1-5.159-1.825,3.735,3.735,0,0,1-.361-1.084,2.96,2.96,0,0,1-.049-.414.812.812,0,0,0-.011-.166v-.318A.29.29,0,0,1,198.383,47.93Z" transform="translate(-197.418 -43.303)" fill="#263238"/>
      <path id="Path_4230" data-name="Path 4230" d="M221.728,56.325a.734.734,0,0,1-.139.011H219.9V54.173a1.173,1.173,0,0,1,.009-.163.976.976,0,0,1,.011.163v2.152l-.025-.023h1.668A1.275,1.275,0,0,1,221.728,56.325Z" transform="translate(-215.057 -51.32)" fill="#263238"/>
      <path id="Path_4231" data-name="Path 4231" d="M220,48a2.176,2.176,0,1,1-.025.331A1.082,1.082,0,0,1,220,48Z" transform="translate(-215.125 -46.396)" fill="#263238"/>
      <path id="Path_4232" data-name="Path 4232" d="M227.911,50.92a1.084,1.084,0,0,1-.213.248,1.012,1.012,0,0,1-.248.211,1.084,1.084,0,0,1,.213-.248A1.012,1.012,0,0,1,227.911,50.92Z" transform="translate(-221.251 -48.788)" fill="#263238"/>
      <path id="Path_4233" data-name="Path 4233" d="M233.306,57.25a1.367,1.367,0,0,1-.271.181,1.4,1.4,0,0,1-.286.157.859.859,0,0,1,.26-.2A.84.84,0,0,1,233.306,57.25Z" transform="translate(-225.594 -53.974)" fill="#263238"/>
      <path id="Path_4234" data-name="Path 4234" d="M235.133,66.525a4.029,4.029,0,0,1-.9,0A4.03,4.03,0,0,1,235.133,66.525Z" transform="translate(-226.806 -61.553)" fill="#263238"/>
      <path id="Path_4235" data-name="Path 4235" d="M200.847,66.173a1.771,1.771,0,0,1-.425.025,1.792,1.792,0,0,1-.423-.025,1.913,1.913,0,0,1,.426-.025,1.89,1.89,0,0,1,.421.025Z" transform="translate(-198.761 -61.262)" fill="#263238"/>
      <path id="Path_4236" data-name="Path 4236" d="M204.074,73.3a1.886,1.886,0,0,1-.322.291,1.848,1.848,0,0,1-.352.251,1.885,1.885,0,0,1,.322-.291A1.845,1.845,0,0,1,204.074,73.3Z" transform="translate(-201.547 -67.124)" fill="#263238"/>
      <path id="Path_4237" data-name="Path 4237" d="M211.153,78.7a3.048,3.048,0,0,1-.21.379,2.624,2.624,0,0,1-.233.361,1.5,1.5,0,0,1,.19-.4A1.454,1.454,0,0,1,211.153,78.7Z" transform="translate(-207.536 -71.549)" fill="#263238"/>
      <path id="Path_4238" data-name="Path 4238" d="M220,81.592a2.007,2.007,0,0,1-.025-.452,1.985,1.985,0,0,1,.025-.45,4.032,4.032,0,0,1,0,.9Z" transform="translate(-215.124 -73.179)" fill="#263238"/>
      <path id="Path_4239" data-name="Path 4239" d="M227.814,79.738a1.333,1.333,0,0,1-.372-.246,1.312,1.312,0,0,1-.3-.332,4.082,4.082,0,0,1,.336.285A4.154,4.154,0,0,1,227.814,79.738Z" transform="translate(-220.997 -71.925)" fill="#263238"/>
      <path id="Path_4240" data-name="Path 4240" d="M233.36,74.39a1.509,1.509,0,0,1-.3-.262,1.615,1.615,0,0,1-.264-.3,1.58,1.58,0,0,1,.3.262A1.545,1.545,0,0,1,233.36,74.39Z" transform="translate(-225.635 -67.559)" fill="#263238"/>
      <path id="Path_4241" data-name="Path 4241" d="M204.68,57.381a1.284,1.284,0,0,1-.262-.228,1.214,1.214,0,0,1-.228-.264,1.214,1.214,0,0,1,.264.228A1.175,1.175,0,0,1,204.68,57.381Z" transform="translate(-202.194 -53.679)" fill="#263238"/>
      <path id="Path_4242" data-name="Path 4242" d="M210.941,50.889a1.265,1.265,0,0,1-.258-.222,1.111,1.111,0,0,1-.222-.257,1.159,1.159,0,0,1,.258.22A1.112,1.112,0,0,1,210.941,50.889Z" transform="translate(-207.331 -48.37)" fill="#263238"/>
    </g>
  </g>
</svg>
