<svg xmlns="http://www.w3.org/2000/svg" width="80" height="73.242" viewBox="0 0 80 73.242">
  <g id="Growing-pana" transform="translate(-20.55 -52.48)">
    <g id="freepik--background-complete--inject-2" transform="translate(24.427 52.48)">
      <path id="Path_2501" data-name="Path 2501" d="M383.84,162.992h13.981s-1.232-2.249-4.836-1.922c-3.436.313-3.612-1.107-5.359-1.281S384.423,160.954,383.84,162.992Z" transform="translate(-323.779 -140.89)" fill="#f5f5f5"/>
      <path id="Path_2502" data-name="Path 2502" d="M42.58,119.732H56.558s-1.232-2.253-4.831-1.922c-3.441.313-3.617-1.107-5.361-1.281S43.163,117.694,42.58,119.732Z" transform="translate(-42.58 -105.244)" fill="#f5f5f5"/>
      <path id="Path_2503" data-name="Path 2503" d="M185.94,56.544h17.646s-1.561-2.841-6.1-2.427c-4.338.4-4.558-1.4-6.765-1.617S186.676,53.979,185.94,56.544Z" transform="translate(-160.709 -52.48)" fill="#e0e0e0"/>
    </g>
    <g id="freepik--Plants--inject-2" transform="translate(20.55 105.867)">
      <path id="Path_2504" data-name="Path 2504" d="M408.751,372.278c-2.4-1.531-3.062-4.535-3.087-7.26a2.994,2.994,0,0,1,.125-1.339.922.922,0,0,1,1.105-.528c.352.144.509.528.7.846a2.64,2.64,0,0,0,1.109.973,1.017,1.017,0,0,0,.936.044c.382-.234.4-.776.382-1.232q-.062-1.262-.123-2.524a4.169,4.169,0,0,1,.079-1.348,1.408,1.408,0,0,1,.839-.986.852.852,0,0,1,1.077.528,4.269,4.269,0,0,1,.037.563.473.473,0,0,0,.3.435c.176.046.352-.091.487-.229a6,6,0,0,0,1.008-1.674,8.146,8.146,0,0,1,.935-1.723,2.459,2.459,0,0,1,1.616-1,1.462,1.462,0,0,1,1.542.935,2.214,2.214,0,0,1-.528,1.823,10.084,10.084,0,0,1-2.013,2.091.819.819,0,0,0-.334.392c-.086.306.213.593.514.679a5.283,5.283,0,0,0,1.056.074,1.016,1.016,0,0,1,.889.493c.206.452-.16.954-.528,1.286a8.664,8.664,0,0,1-2.494,1.584,2.915,2.915,0,0,0-.929.5.836.836,0,0,0-.227.97.85.85,0,0,0,.942.315,6.169,6.169,0,0,0,.975-.421,1.583,1.583,0,0,1,1.834.268,1.429,1.429,0,0,1,.206,1.257,3.285,3.285,0,0,1-.637,1.146,8.673,8.673,0,0,1-3.6,2.765,5.973,5.973,0,0,1-4.2.292" transform="translate(-337.873 -355.818)" fill="#ff725e"/>
      <path id="Path_2505" data-name="Path 2505" d="M423.56,375.93a19.821,19.821,0,0,1,.579-3.754,40.482,40.482,0,0,1,1.419-4.426l.433-1.142c.143-.373.283-.744.444-1.1a20.513,20.513,0,0,1,1.04-1.984c.363-.614.727-1.184,1.074-1.716s.679-1.019,1-1.45a16.078,16.078,0,0,1,1.669-1.924c.215-.211.387-.37.5-.475.058-.049.1-.09.135-.12q.023-.021.048-.039a.341.341,0,0,1-.042.046l-.128.125c-.114.109-.282.271-.493.486a17.073,17.073,0,0,0-1.646,1.936c-.317.433-.646.922-.991,1.454s-.7,1.1-1.056,1.718a20.594,20.594,0,0,0-1.033,1.978c-.158.352-.3.72-.442,1.095s-.285.757-.431,1.142a41.931,41.931,0,0,0-1.422,4.414,20.12,20.12,0,0,0-.595,3.74" transform="translate(-352.631 -357.451)" fill="#263238"/>
      <path id="Path_2506" data-name="Path 2506" d="M435.913,378.4a.879.879,0,0,1-.053-.19c-.03-.125-.065-.3-.107-.528-.083-.447-.176-1.068-.276-1.76s-.2-1.3-.294-1.748c-.044-.222-.081-.4-.109-.528a.951.951,0,0,1-.033-.2.932.932,0,0,1,.065.188c.037.121.085.3.135.528.1.442.216,1.056.317,1.748s.187,1.288.253,1.76c.032.211.06.389.081.528A.892.892,0,0,1,435.913,378.4Z" transform="translate(-362.09 -370.347)" fill="#263238"/>
      <path id="Path_2507" data-name="Path 2507" d="M445.79,393.986a1.221,1.221,0,0,1-.231.037c-.148.019-.363.047-.628.09-.528.079-1.257.216-2.052.4s-1.508.387-2.02.547c-.257.077-.463.146-.605.194a1.227,1.227,0,0,1-.224.065,1.385,1.385,0,0,1,.213-.1c.139-.056.343-.134.6-.218.509-.176,1.221-.385,2.019-.572a20.927,20.927,0,0,1,2.065-.38c.266-.033.482-.053.632-.062A1.315,1.315,0,0,1,445.79,393.986Z" transform="translate(-366.202 -387.266)" fill="#263238"/>
      <path id="Path_2508" data-name="Path 2508" d="M412.05,404.712a.419.419,0,0,1-.042-.069l-.107-.206c-.093-.176-.222-.442-.377-.769-.308-.653-.7-1.568-1.132-2.585s-.815-1.936-1.109-2.594c-.144-.32-.264-.583-.352-.78q-.055-.127-.1-.211a.271.271,0,0,1-.026-.077.419.419,0,0,1,.042.069c.03.056.065.125.109.206.092.176.22.442.375.769.308.653.7,1.57,1.132,2.585s.815,1.936,1.109,2.594c.146.32.264.584.352.78.039.084.069.155.095.213A.3.3,0,0,1,412.05,404.712Z" transform="translate(-340.477 -390.098)" fill="#263238"/>
      <path id="Path_2509" data-name="Path 2509" d="M434.832,422.84a.287.287,0,0,1-.076.035l-.222.084-.815.3c-.686.257-1.633.621-2.679,1.026s-2,.76-2.689,1c-.352.122-.628.216-.824.278l-.227.07a.266.266,0,0,1-.081.018.556.556,0,0,1,.076-.035l.222-.085.815-.3c.688-.255,1.633-.621,2.679-1.026s2-.76,2.689-1c.352-.121.628-.216.825-.278l.224-.062A.32.32,0,0,1,434.832,422.84Z" transform="translate(-355.646 -411.044)" fill="#263238"/>
      <path id="Path_2510" data-name="Path 2510" d="M20.805,429.605a1.584,1.584,0,0,1,1.214.216,2.788,2.788,0,0,1,.864.913,4.9,4.9,0,0,1,.6,2.441,3.318,3.318,0,0,1-2.047-1.149c-.583-.614-1.264-2.078-.628-2.422" transform="translate(-20.55 -416.586)" fill="#ff725e"/>
      <path id="Path_2511" data-name="Path 2511" d="M43.2,441.14a1.345,1.345,0,0,1-.454-1.274,1.776,1.776,0,0,1,.774-1.141.748.748,0,0,1,.614-.157.57.57,0,0,1,.368.451,1.171,1.171,0,0,1-.072.6,2.314,2.314,0,0,1-1.232,1.517" transform="translate(-38.818 -423.994)" fill="#ff725e"/>
      <path id="Path_2512" data-name="Path 2512" d="M46.1,448.724a1.151,1.151,0,0,1-.092-.146c-.053-.1-.125-.238-.211-.415a5.735,5.735,0,0,1-.5-1.461,2.888,2.888,0,0,1,.123-1.536,1.845,1.845,0,0,1,.222-.415.528.528,0,0,1,.113-.13,3.916,3.916,0,0,0-.275.567,3.039,3.039,0,0,0-.092,1.5,6.591,6.591,0,0,0,.472,1.448A5.566,5.566,0,0,1,46.1,448.724Z" transform="translate(-40.898 -428.991)" fill="#263238"/>
      <path id="Path_2513" data-name="Path 2513" d="M25.45,435.87a1.579,1.579,0,0,1,.2.2c.121.135.3.333.507.581.424.495,1,1.188,1.614,1.969s1.155,1.5,1.536,2.031c.192.264.343.48.447.63a1.757,1.757,0,0,1,.151.239,1.739,1.739,0,0,1-.176-.218l-.468-.612c-.4-.517-.942-1.232-1.558-2.013s-1.181-1.478-1.584-1.984l-.486-.6A1.572,1.572,0,0,1,25.45,435.87Z" transform="translate(-24.588 -421.781)" fill="#263238"/>
      <path id="Path_2514" data-name="Path 2514" d="M26.295,455.856a3.142,3.142,0,0,0-2.816-.547c-.243.072-.512.222-.537.473s.213.451.44.563a2.689,2.689,0,0,0,2.95-.429" transform="translate(-22.519 -437.696)" fill="#ff725e"/>
      <path id="Path_2515" data-name="Path 2515" d="M29.35,457.95a.592.592,0,0,1,.158-.046,1.093,1.093,0,0,1,.19-.035,2.022,2.022,0,0,1,.255-.026,3.3,3.3,0,0,1,.667.028,3.951,3.951,0,0,1,.79.211,3.906,3.906,0,0,1,.72.387,3.286,3.286,0,0,1,.5.435,2.129,2.129,0,0,1,.176.194,1.42,1.42,0,0,1,.114.155.526.526,0,0,1,.083.143c-.014.01-.144-.185-.41-.445a3.737,3.737,0,0,0-1.985-.994,3.728,3.728,0,0,0-.651-.048C29.582,457.915,29.354,457.968,29.35,457.95Z" transform="translate(-27.801 -439.882)" fill="#263238"/>
    </g>
    <g id="freepik--Arrow--inject-2" transform="translate(31.101 56.577)">
      <path id="Path_2516" data-name="Path 2516" d="M80.5,106.155,128.345,81.5l-3.069-4.333L140.9,75.76l-7.049,12.654-3.277-4.1L82.1,110.942Z" transform="translate(-80.5 -75.76)" fill="#ff725e"/>
    </g>
    <g id="freepik--Chart--inject-2" transform="translate(25.376 80.589)">
      <rect id="Rectangle_695" data-name="Rectangle 695" width="11.021" height="21.229" transform="translate(3.004 23.904)" fill="#263238"/>
      <rect id="Rectangle_696" data-name="Rectangle 696" width="11.021" height="21.229" transform="translate(0 23.904)" fill="#455a64"/>
      <rect id="Rectangle_697" data-name="Rectangle 697" width="11.021" height="28.309" transform="translate(20.201 16.824)" fill="#263238"/>
      <rect id="Rectangle_698" data-name="Rectangle 698" width="11.021" height="28.309" transform="translate(16.871 16.824)" fill="#455a64"/>
      <rect id="Rectangle_699" data-name="Rectangle 699" width="11.021" height="37.278" transform="translate(37.891 7.855)" fill="#263238"/>
      <rect id="Rectangle_700" data-name="Rectangle 700" width="11.021" height="37.278" transform="translate(34.58 7.855)" fill="#455a64"/>
      <rect id="Rectangle_701" data-name="Rectangle 701" width="11.021" height="45.133" transform="translate(55.654 0)" fill="#263238"/>
      <rect id="Rectangle_702" data-name="Rectangle 702" width="11.021" height="45.133" transform="translate(51.265 0)" fill="#455a64"/>
    </g>
    <g id="freepik--Character--inject-2" transform="translate(26.181 60.158)">
      <path id="Path_2517" data-name="Path 2517" d="M72.529,315.881l1.026-.845-1.57-1.936-1.515,1.214.09.127a29.394,29.394,0,0,0,2.489,3.076C73.492,317.824,72.529,315.881,72.529,315.881Z" transform="translate(-67.315 -274.909)" fill="#ff725e"/>
      <g id="Group_2374" data-name="Group 2374" transform="translate(3.185 38.955)" opacity="0.5">
        <path id="Path_2518" data-name="Path 2518" d="M71.194,318.595a.88.88,0,0,0,.213-.59.836.836,0,0,0-.227-.565l-.54.438Z" transform="translate(-70.64 -317.44)" fill="#fff"/>
      </g>
      <g id="Group_2375" data-name="Group 2375" transform="translate(3.164 39.381)" opacity="0.4">
        <path id="Path_2519" data-name="Path 2519" d="M73.012,322.424s.3.7.148.715a23.548,23.548,0,0,1-2.64-3.247l.046-.032,2.057,2.594S72.915,322.315,73.012,322.424Z" transform="translate(-70.52 -319.86)" fill="#fff"/>
      </g>
      <path id="Path_2520" data-name="Path 2520" d="M70.6,319.68s0,.014.023.037l.072.1.269.364c.231.3.554.723.92,1.177s.7.857.961,1.146l.3.34.083.092.032.03-.026-.035-.079-.093-.292-.352c-.246-.292-.586-.7-.952-1.151s-.693-.869-.928-1.172l-.278-.352-.076-.1A.367.367,0,0,0,70.6,319.68Z" transform="translate(-67.422 -280.331)" fill="#263238"/>
      <path id="Path_2521" data-name="Path 2521" d="M82.3,334.241a.982.982,0,0,1,.222-.07,1.023,1.023,0,0,1,.231.011.332.332,0,0,0-.234-.04A.34.34,0,0,0,82.3,334.241Z" transform="translate(-77.063 -292.242)" fill="#263238"/>
      <path id="Path_2522" data-name="Path 2522" d="M81.32,329.989h.123c.067,0,.121-.021.12-.03s-.056-.009-.123,0S81.318,329.98,81.32,329.989Z" transform="translate(-76.255 -288.796)" fill="#263238"/>
      <path id="Path_2523" data-name="Path 2523" d="M81.07,328.859c0,.009.044.023.1.032a.213.213,0,0,0,.106,0c0-.009-.044-.023-.1-.032S81.07,328.85,81.07,328.859Z" transform="translate(-76.049 -287.889)" fill="#263238"/>
      <path id="Path_2524" data-name="Path 2524" d="M81.65,327.488a.608.608,0,0,0,.069.111c.044.056.086.1.093.091a.338.338,0,0,0-.069-.111C81.7,327.523,81.657,327.483,81.65,327.488Z" transform="translate(-76.527 -286.764)" fill="#263238"/>
      <path id="Path_2525" data-name="Path 2525" d="M82.22,326.7a.257.257,0,0,0,.06.139c.048.07.1.109.109.1a.8.8,0,0,0-.084-.121C82.259,326.752,82.229,326.7,82.22,326.7Z" transform="translate(-76.997 -286.115)" fill="#263238"/>
      <path id="Path_2526" data-name="Path 2526" d="M82.481,329.718a.431.431,0,0,0,.1.123.93.93,0,0,0,.136.109.425.425,0,0,0,.093.049.079.079,0,0,0,.063,0,.062.062,0,0,0,.032-.063.3.3,0,0,0-.41-.2.11.11,0,0,0-.037.025.441.441,0,0,1,.153-.03.294.294,0,0,1,.155.051.252.252,0,0,1,.109.157c0,.03-.028.042-.058.03a.405.405,0,0,1-.086-.046,1.074,1.074,0,0,1-.137-.1C82.523,329.76,82.485,329.715,82.481,329.718Z" transform="translate(-77.194 -288.595)" fill="#263238"/>
      <path id="Path_2527" data-name="Path 2527" d="M82.593,328.422a.176.176,0,0,0,.1-.056.264.264,0,0,0,.063-.107.162.162,0,0,0-.021-.155.062.062,0,0,0-.088,0,.194.194,0,0,0-.039.065.528.528,0,0,0-.028.12.239.239,0,0,0,0,.113.668.668,0,0,1,.012-.109.566.566,0,0,1,.033-.113c.012-.039.049-.088.081-.062a.146.146,0,0,1,.014.125.283.283,0,0,1-.053.1A.5.5,0,0,1,82.593,328.422Z" transform="translate(-77.287 -287.257)" fill="#263238"/>
      <path id="Path_2528" data-name="Path 2528" d="M73.79,317.469a1.052,1.052,0,0,1,.111.146.787.787,0,0,1,0,.834c-.06.1-.113.146-.109.15s.016-.009.039-.032a.69.69,0,0,0,.088-.106.781.781,0,0,0,.13-.429.769.769,0,0,0-.137-.428.679.679,0,0,0-.09-.106C73.806,317.478,73.792,317.467,73.79,317.469Z" transform="translate(-70.05 -278.509)" fill="#263238"/>
      <path id="Path_2529" data-name="Path 2529" d="M75.566,314.9a4.249,4.249,0,0,0-.4.3,4.805,4.805,0,0,0-.392.329,3.913,3.913,0,0,0,.412-.3A4.418,4.418,0,0,0,75.566,314.9Z" transform="translate(-70.858 -276.392)" fill="#263238"/>
      <path id="Path_2530" data-name="Path 2530" d="M76,324.469a1.344,1.344,0,0,0,.2.3,1.384,1.384,0,0,0,.252.266s-.1-.127-.229-.283S76,324.464,76,324.469Z" transform="translate(-71.871 -284.277)" fill="#263238"/>
      <path id="Path_2531" data-name="Path 2531" d="M73.912,322.31l-.037.069c-.019.035-.039.065-.032.07s.039-.014.06-.056S73.921,322.312,73.912,322.31Z" transform="translate(-70.093 -282.498)" fill="#263238"/>
      <path id="Path_2532" data-name="Path 2532" d="M74.484,320.68a.165.165,0,0,0-.021.065.354.354,0,0,0,0,.067.187.187,0,0,0,.023-.063C74.491,320.713,74.493,320.682,74.484,320.68Z" transform="translate(-70.603 -281.155)" fill="#263238"/>
      <path id="Path_2533" data-name="Path 2533" d="M74.11,319.144s.016.032.03.069.014.069.023.07.021-.037,0-.081S74.115,319.137,74.11,319.144Z" transform="translate(-70.314 -279.888)" fill="#263238"/>
      <path id="Path_2534" data-name="Path 2534" d="M73.66,318.139v.044c0,.021.019.035.026.033s0-.023,0-.044S73.669,318.138,73.66,318.139Z" transform="translate(-69.943 -279.061)" fill="#263238"/>
      <path id="Path_2535" data-name="Path 2535" d="M181.509,297.216l.042-1.329-2.489-.1-.083,1.936.153.016a29.671,29.671,0,0,0,3.955.158C183.605,297.774,181.509,297.216,181.509,297.216Z" transform="translate(-156.727 -260.646)" fill="#ff725e"/>
      <g id="Group_2376" data-name="Group 2376" transform="translate(22.256 36.357)" opacity="0.5">
        <path id="Path_2536" data-name="Path 2536" d="M179.9,303.425a.863.863,0,0,0-.3-.542.843.843,0,0,0-.574-.2l-.028.7Z" transform="translate(-179 -302.678)" fill="#fff"/>
      </g>
      <g id="Group_2377" data-name="Group 2377" transform="translate(22.253 36.88)" opacity="0.4">
        <path id="Path_2537" data-name="Path 2537" d="M182.532,305.65s.732.243.635.361a24.661,24.661,0,0,1-4.187-.151V305.8l3.314.158S182.387,305.65,182.532,305.65Z" transform="translate(-178.98 -305.65)" fill="#fff"/>
      </g>
      <path id="Path_2538" data-name="Path 2538" d="M178.79,306.5h.042l.123.012.452.037c.38.028.908.062,1.492.084s1.111.033,1.494.035h.576a.221.221,0,0,0,.044,0h-.167l-.452-.009c-.382,0-.91-.021-1.494-.044s-1.111-.053-1.492-.076l-.452-.028h-.121Z" transform="translate(-156.571 -269.471)" fill="#263238"/>
      <path id="Path_2539" data-name="Path 2539" d="M197.823,305.86a.993.993,0,0,1,.092-.213,1.17,1.17,0,0,1,.162-.167.335.335,0,0,0-.187.151.322.322,0,0,0-.067.229Z" transform="translate(-172.253 -268.63)" fill="#263238"/>
      <path id="Path_2540" data-name="Path 2540" d="M193.734,304.41a.555.555,0,0,0,.081-.093c.039-.056.065-.1.058-.109s-.044.037-.083.093S193.727,304.405,193.734,304.41Z" transform="translate(-168.884 -267.582)" fill="#263238"/>
      <path id="Path_2541" data-name="Path 2541" d="M192.617,304.078a.429.429,0,0,0,.09-.055c.044-.035.076-.072.07-.079s-.046.018-.09.055S192.612,304.071,192.617,304.078Z" transform="translate(-167.964 -267.364)" fill="#263238"/>
      <path id="Path_2542" data-name="Path 2542" d="M191.94,303.291a.327.327,0,0,0,.13.021.279.279,0,0,0,.13-.009.29.29,0,0,0-.128-.021A.294.294,0,0,0,191.94,303.291Z" transform="translate(-167.406 -266.816)" fill="#263238"/>
      <path id="Path_2543" data-name="Path 2543" d="M191.73,302.39a.253.253,0,0,0,.144.049.269.269,0,0,0,.15-.014.708.708,0,0,0-.146-.016A1.116,1.116,0,0,0,191.73,302.39Z" transform="translate(-167.233 -266.084)" fill="#263238"/>
      <path id="Path_2544" data-name="Path 2544" d="M194.26,303.134a.439.439,0,0,0,.16,0,.869.869,0,0,0,.176-.03.482.482,0,0,0,.1-.037.081.081,0,0,0,.042-.047.065.065,0,0,0-.023-.065.29.29,0,0,0-.364.072.3.3,0,0,0-.058.1.093.093,0,0,0,0,.044.443.443,0,0,1,.079-.134.288.288,0,0,1,.139-.084.246.246,0,0,1,.19.021c.025.019.014.049-.014.065a.572.572,0,0,1-.092.035,1.06,1.06,0,0,1-.176.035C194.322,303.132,194.262,303.131,194.26,303.134Z" transform="translate(-169.318 -266.52)" fill="#263238"/>
      <path id="Path_2545" data-name="Path 2545" d="M193.566,302.725a.176.176,0,0,0,.023-.111.282.282,0,0,0-.039-.118.158.158,0,0,0-.13-.086.062.062,0,0,0-.053.07.192.192,0,0,0,.025.074.46.46,0,0,0,.072.1c.048.051.086.072.088.069s-.03-.03-.072-.083a.5.5,0,0,1-.063-.1c-.021-.033-.033-.1,0-.1s.079.039.1.07a.267.267,0,0,1,.042.107A.675.675,0,0,1,193.566,302.725Z" transform="translate(-168.581 -266.101)" fill="#263238"/>
      <path id="Path_2546" data-name="Path 2546" d="M179.23,302.569a1.654,1.654,0,0,1,.176.012.821.821,0,0,1,.4.176.794.794,0,0,1,.236.364c.033.109.035.176.04.176a.135.135,0,0,0,0-.049.593.593,0,0,0-.021-.136.772.772,0,0,0-.238-.382.784.784,0,0,0-.412-.176.727.727,0,0,0-.137,0C179.248,302.562,179.23,302.565,179.23,302.569Z" transform="translate(-156.933 -266.217)" fill="#263238"/>
      <path id="Path_2547" data-name="Path 2547" d="M180.667,296.82a4,4,0,0,0-.042.51,4.249,4.249,0,0,0-.011.512,4.76,4.76,0,0,0,.04-.51A4.064,4.064,0,0,0,180.667,296.82Z" transform="translate(-158.071 -261.495)" fill="#263238"/>
      <path id="Path_2548" data-name="Path 2548" d="M185.94,305.6a1.31,1.31,0,0,0,.363.051,1.445,1.445,0,0,0,.364-.014c0-.009-.162,0-.363-.016A2.772,2.772,0,0,0,185.94,305.6Z" transform="translate(-162.462 -268.725)" fill="#263238"/>
      <path id="Path_2549" data-name="Path 2549" d="M183.17,305.5s.012.035.028.074.023.07.03.07.016-.039,0-.083S183.175,305.491,183.17,305.5Z" transform="translate(-160.18 -268.643)" fill="#263238"/>
      <path id="Path_2550" data-name="Path 2550" d="M182.18,304.155a.085.085,0,0,0,.033.06c.033.028.049.044.056.039s-.009-.032-.033-.06S182.185,304.15,182.18,304.155Z" transform="translate(-159.364 -267.538)" fill="#263238"/>
      <path id="Path_2551" data-name="Path 2551" d="M180.709,303.446c0,.009.033.009.07.023s.062.035.069.03-.014-.041-.058-.058S180.706,303.437,180.709,303.446Z" transform="translate(-158.152 -266.943)" fill="#263238"/>
      <path id="Path_2552" data-name="Path 2552" d="M179.65,303.155a.07.07,0,0,0,.032.028c.021.009.039.011.042,0s-.011-.021-.03-.03S179.654,303.146,179.65,303.155Z" transform="translate(-157.279 -266.708)" fill="#263238"/>
      <path id="Path_2553" data-name="Path 2553" d="M152.272,109.618c-.222-.063-.6,1.137-.667.832s.632-1.408.4-1.471c-.306-.074-.678,1.19-.716,1.294s-.192.051-.151-.04c.058-.134.635-1.545.334-1.621-.167-.042-.215.264-.215.264s-.442,1.36-.583,1.32.09-.848.188-1.116.011-.415-.143-.363a4.638,4.638,0,0,0-.514,1.114c-.092.266-.326,1-.5.544a1.261,1.261,0,0,0-.625-.759.153.153,0,0,0-.1.271,1.736,1.736,0,0,1,.264.417,1.161,1.161,0,0,1,.116.38,4.092,4.092,0,0,1,.033.8l-2.4,5-4.414-1.373-.445,2.5s5.808,2.16,6.16,1.936c.774-.482,2.869-7.674,2.869-7.674h0a17.183,17.183,0,0,0,.95-1.554C152.414,109.671,152.356,109.643,152.272,109.618Z" transform="translate(-126.354 -106.407)" fill="#b78876"/>
      <path id="Path_2554" data-name="Path 2554" d="M55.861,154.181a1.709,1.709,0,0,1-.319-.378,1.174,1.174,0,0,1-.176-.352,5.465,5.465,0,0,1-.121-.583s1.519-4.532,1.92-5.232,5.94-2.695,5.94-2.695l-.7-2.761s-5.049,2.029-6.98,3.557c-1.232.972-2.112,7-2.112,7a14.506,14.506,0,0,0-.614,1.433c-.222.7-.16.716-.076.729.231.032.438-1.207.547-.915s-.429,1.487-.188,1.51c.313.032.507-1.271.528-1.38s.176-.077.155.019c-.039.141-.417,1.619-.109,1.653.176.018.176-.292.176-.292s.252-1.408.4-1.387.028.852-.032,1.13.046.415.19.34a4.5,4.5,0,0,0,.352-1.172c.049-.275.176-1.037.424-.609a1.322,1.322,0,0,0,.732.671.153.153,0,0,0,.07-.287Z" transform="translate(-52.542 -134.071)" fill="#b78876"/>
      <path id="Path_2555" data-name="Path 2555" d="M72.79,229.629l2.5,2.8,7.894-7.964a5.632,5.632,0,0,0,1.619-3.65l.336-6.23-5.125-3.131.408,8.721a3.439,3.439,0,0,1-.964,2.555Z" transform="translate(-69.226 -191.15)" fill="#263238"/>
      <path id="Path_2556" data-name="Path 2556" d="M107.914,211.955c-.048.063-.224,4.03,2.95,4.527.19.03,1.338.146,1.338.146,3.6-.028,8.46-.176,8.46-.176l-.808,11.074,3.824.012,1.163-11.822c.255-3.274-2.508-3.839-4.03-3.872l-7.323-.074Z" transform="translate(-98.153 -191.413)" fill="#263238"/>
      <path id="Path_2557" data-name="Path 2557" d="M120.063,212.82a.7.7,0,0,1-.1.352,1.408,1.408,0,0,1-1.5.788.739.739,0,0,1-.352-.123c0-.014.137.039.352.058a1.456,1.456,0,0,0,1.429-.753C120.019,212.955,120.049,212.816,120.063,212.82Z" transform="translate(-106.578 -192.278)" fill="#455a64"/>
      <path id="Path_2558" data-name="Path 2558" d="M181.6,234.24a1.994,1.994,0,0,1-.456.389,2.044,2.044,0,0,1-.51.313,1.9,1.9,0,0,1,.456-.389A2.012,2.012,0,0,1,181.6,234.24Z" transform="translate(-158.087 -209.929)" fill="#455a64"/>
      <path id="Path_2559" data-name="Path 2559" d="M181.562,237.928a3.726,3.726,0,0,1-1.162.127,1.919,1.919,0,0,1,.576-.109A1.851,1.851,0,0,1,181.562,237.928Z" transform="translate(-157.897 -212.955)" fill="#455a64"/>
      <path id="Path_2560" data-name="Path 2560" d="M109.714,109.931h0a1.336,1.336,0,0,0,1.343-1.38c-.025-.729-.053-1.464-.053-1.464a1.306,1.306,0,0,0,1.095-1.274c0-1.1-.213-3.6-.213-3.6h0a3.8,3.8,0,0,0-3.816.528l-.16.127.479,5.85A1.336,1.336,0,0,0,109.714,109.931Z" transform="translate(-98.165 -100.894)" fill="#b78876"/>
      <path id="Path_2561" data-name="Path 2561" d="M128.08,113.36a.159.159,0,1,1,.224-.013A.159.159,0,0,1,128.08,113.36Z" transform="translate(-114.742 -110.094)" fill="#263238"/>
      <path id="Path_2562" data-name="Path 2562" d="M128.052,112.733c-.018.018-.125-.063-.276-.062s-.259.079-.276.06,0-.042.056-.079a.368.368,0,0,1,.22-.072.352.352,0,0,1,.22.072C128.043,112.689,128.061,112.724,128.052,112.733Z" transform="translate(-114.302 -109.68)" fill="#263238"/>
      <path id="Path_2563" data-name="Path 2563" d="M119.044,113.969a.158.158,0,1,1-.218.055A.162.162,0,0,1,119.044,113.969Z" transform="translate(-107.142 -110.807)" fill="#263238"/>
      <path id="Path_2564" data-name="Path 2564" d="M118.772,113.593c-.018.019-.127-.063-.276-.062s-.259.079-.276.06,0-.042.056-.079a.371.371,0,0,1,.44,0C118.763,113.549,118.779,113.584,118.772,113.593Z" transform="translate(-106.655 -110.389)" fill="#263238"/>
      <path id="Path_2565" data-name="Path 2565" d="M124.412,114.579a.7.7,0,0,1,.243-.055c.039,0,.07-.014.072-.035a.224.224,0,0,0-.028-.113l-.123-.3a4.114,4.114,0,0,1-.266-.8,4.353,4.353,0,0,1,.352.771c.04.107.079.208.116.308a.248.248,0,0,1,.025.164.106.106,0,0,1-.069.063.19.19,0,0,1-.067,0A.721.721,0,0,1,124.412,114.579Z" transform="translate(-111.679 -110.249)" fill="#263238"/>
      <path id="Path_2566" data-name="Path 2566" d="M122.083,121.68a1.8,1.8,0,0,0,.741.208.417.417,0,0,1-.489.176C122.005,121.942,122.083,121.68,122.083,121.68Z" transform="translate(-109.837 -117.179)" fill="#fff"/>
      <path id="Path_2567" data-name="Path 2567" d="M118.809,129.379a2.529,2.529,0,0,1-1.429-.389,1.356,1.356,0,0,0,1.434.674Z" transform="translate(-105.969 -123.202)" fill="#a36957"/>
      <path id="Path_2568" data-name="Path 2568" d="M106.507,99.053a1.158,1.158,0,0,0-.032-.646,2.112,2.112,0,0,1-.116-.641.568.568,0,0,1,.334-.528c.148-.049.313-.011.463-.053a1.021,1.021,0,0,0,.385-.276,3.147,3.147,0,0,1,1.57-.778.88.88,0,0,1,.512.028.364.364,0,0,1,.216.421,2.019,2.019,0,0,1,.7-.289.683.683,0,0,1,.671.257.418.418,0,0,1-.2.618.54.54,0,0,1,.4.656.792.792,0,0,1-.62.544,1.54,1.54,0,0,1-.85-.107c-.269-.1-.528-.243-.794-.352a.88.88,0,0,1-.794.352A2.548,2.548,0,0,1,107.5,98a1.936,1.936,0,0,1-.077.931,2.45,2.45,0,0,0-.164.352,2.813,2.813,0,0,0-.03.519.4.4,0,0,1-.282.392.352.352,0,0,1-.352-.253,1.232,1.232,0,0,1-.03-.468c0-.157-.132-.278-.055-.419" transform="translate(-96.888 -96.106)" fill="#263238"/>
      <path id="Path_2569" data-name="Path 2569" d="M105.5,114.141a.165.165,0,0,0-.176-.153c-.2.009-.528.114-.528.678a.526.526,0,0,0,.771.528C105.573,115.173,105.529,114.453,105.5,114.141Z" transform="translate(-95.603 -110.841)" fill="#b78876"/>
      <path id="Path_2570" data-name="Path 2570" d="M106.422,116.122a.223.223,0,0,1-.037.021.141.141,0,0,1-.106,0,.352.352,0,0,1-.165-.308.459.459,0,0,1,.035-.2.176.176,0,0,1,.1-.111.074.074,0,0,1,.084.039c.011.021,0,.037.011.039s.016-.014.009-.048a.088.088,0,0,0-.032-.049.1.1,0,0,0-.077-.019.194.194,0,0,0-.144.127.475.475,0,0,0-.046.225.366.366,0,0,0,.211.352.148.148,0,0,0,.127-.025C106.42,116.141,106.423,116.123,106.422,116.122Z" transform="translate(-96.638 -112.073)" fill="#a36957"/>
      <path id="Path_2571" data-name="Path 2571" d="M117.763,110.748a3.414,3.414,0,0,1-.373.063c-.2.046-.352.132-.363.111s.12-.148.341-.2A.5.5,0,0,1,117.763,110.748Z" transform="translate(-105.677 -108.127)" fill="#263238"/>
      <path id="Path_2572" data-name="Path 2572" d="M123.547,126.151c-.025,0-.042-.111-.039-.246s.028-.246.055-.245.042.111.037.246S123.571,126.153,123.547,126.151Z" transform="translate(-111.018 -120.458)" fill="#263238"/>
      <path id="Path_2573" data-name="Path 2573" d="M124.786,126.055c-.025,0-.046-.093-.046-.208s.021-.208.046-.208.046.093.046.208S124.805,126.055,124.786,126.055Z" transform="translate(-112.033 -120.442)" fill="#263238"/>
      <path id="Path_2574" data-name="Path 2574" d="M126.035,125.964c-.025,0-.051-.079-.06-.176s0-.187.03-.188.053.079.062.176S126.061,125.962,126.035,125.964Z" transform="translate(-113.048 -120.409)" fill="#263238"/>
      <path id="Path_2575" data-name="Path 2575" d="M90.861,139.786c-1.232-.528-2.112-.829-2.784-1.2-2.112-1.153-2.628-.827-3.108-.852a4.629,4.629,0,0,1-2.786.2h0c-1.232.141-1.936.718-3.312,1.269l-2.74,1.47,1.976,2.751,2.536-.847c.209,1.056.26,1.9.4,3.182l.269,5.178,7.679-.118-.778-4.928-.466-3.883,2.258.933.855-3.168" transform="translate(-71.979 -130.389)" fill="#ff725e"/>
      <g id="Group_2378" data-name="Group 2378" transform="translate(7.54 8.238)" opacity="0.4">
        <path id="Path_2576" data-name="Path 2576" d="M104.045,142.91l.021.018a.32.32,0,0,1,.048.069.364.364,0,0,1-.023.315.7.7,0,0,1-.375.334,2.391,2.391,0,0,1-.656.093,1.841,1.841,0,0,0-.37.062,1.37,1.37,0,0,0-.352.176c-.229.165-.429.4-.674.612a1.535,1.535,0,0,1-.428.275.968.968,0,0,1-.528.055,4.411,4.411,0,0,1-1-.436,1.916,1.916,0,0,0-1.04-.141,8,8,0,0,0-.986.2,4.525,4.525,0,0,1-.913.128,1.716,1.716,0,0,1-.792-.16,1.142,1.142,0,0,1-.475-.465.9.9,0,0,1-.114-.489.641.641,0,0,1,.106-.3.438.438,0,0,1,.074-.083.732.732,0,0,0-.143.384.85.85,0,0,0,.123.461,1.077,1.077,0,0,0,.459.433,1.683,1.683,0,0,0,.76.143,4.447,4.447,0,0,0,.9-.136,8.367,8.367,0,0,1,1-.2,2,2,0,0,1,1.086.148,4.648,4.648,0,0,0,.98.429.88.88,0,0,0,.484-.046,1.455,1.455,0,0,0,.4-.257c.241-.208.447-.442.686-.611a1.379,1.379,0,0,1,.382-.188,1.79,1.79,0,0,1,.385-.056,2.531,2.531,0,0,0,.642-.079.684.684,0,0,0,.361-.3A.352.352,0,0,0,104.1,143C104.07,142.938,104.04,142.914,104.045,142.91Z" transform="translate(-95.383 -142.91)"/>
      </g>
      <g id="Group_2379" data-name="Group 2379" transform="translate(4.958 9.952)" opacity="0.4">
        <path id="Path_2577" data-name="Path 2577" d="M91.369,154.544a.65.65,0,0,1-.072.1,1.392,1.392,0,0,1-.266.246,1.483,1.483,0,0,1-.528.236,1.433,1.433,0,0,1-.762-.023c-.273-.083-.539-.252-.852-.324a1.45,1.45,0,0,0-.982.2,4.358,4.358,0,0,1-1.07.47,2.423,2.423,0,0,1-1.255-.06,2.38,2.38,0,0,1-.579-.28c-.176-.118-.334-.252-.493-.371a2.491,2.491,0,0,0-.495-.306,2,2,0,0,0-.537-.143,10.264,10.264,0,0,0-1.045-.046,2.932,2.932,0,0,1-.91-.151,1.257,1.257,0,0,1-.614-.451,1.067,1.067,0,0,1-.2-.54.72.72,0,0,1,.065-.352.4.4,0,0,1,.067-.107.97.97,0,0,0-.049.114.7.7,0,0,0-.046.352,1.015,1.015,0,0,0,.2.514,1.216,1.216,0,0,0,.593.421,2.966,2.966,0,0,0,.891.136,10.03,10.03,0,0,1,1.056.037,2.112,2.112,0,0,1,.56.146,2.584,2.584,0,0,1,.514.315c.162.121.319.253.489.366a2.33,2.33,0,0,0,.556.271,2.355,2.355,0,0,0,1.207.058,4.247,4.247,0,0,0,1.056-.458,2.278,2.278,0,0,1,.512-.2,1.167,1.167,0,0,1,.528,0c.333.081.593.253.855.336a1.4,1.4,0,0,0,.73.035,1.476,1.476,0,0,0,.516-.216A1.922,1.922,0,0,0,91.369,154.544Z" transform="translate(-80.71 -152.65)"/>
      </g>
      <g id="Group_2380" data-name="Group 2380" transform="translate(16.098 10.685)" opacity="0.4">
        <path id="Path_2578" data-name="Path 2578" d="M146.335,156.818a3.767,3.767,0,0,0-.352.155,4.789,4.789,0,0,0-.739.57,1.869,1.869,0,0,1-.84.449.616.616,0,0,1-.394-.032,1.963,1.963,0,0,0,.38-.032,2.075,2.075,0,0,0,.8-.456,3.639,3.639,0,0,1,.767-.558.7.7,0,0,1,.382-.1Z" transform="translate(-144.01 -156.818)"/>
      </g>
      <g id="Group_2381" data-name="Group 2381" transform="translate(9.037 14.669)" opacity="0.4">
        <path id="Path_2579" data-name="Path 2579" d="M110.726,179.76a.157.157,0,0,1-.026.072.477.477,0,0,1-.148.164.908.908,0,0,1-.787.092,4.93,4.93,0,0,0-1.118-.338,3.872,3.872,0,0,0-1.408.211,9.192,9.192,0,0,1-1.408.371,2.189,2.189,0,0,1-1.179-.128,1.443,1.443,0,0,1-.632-.489.881.881,0,0,1-.106-.192.31.31,0,0,1-.025-.072,1.54,1.54,0,0,0,.158.241,1.475,1.475,0,0,0,.628.452,2.155,2.155,0,0,0,1.142.1,9.52,9.52,0,0,0,1.389-.375,3.818,3.818,0,0,1,1.44-.206,2.051,2.051,0,0,1,.621.157,5.213,5.213,0,0,0,.509.2.88.88,0,0,0,.748-.058A.639.639,0,0,0,110.726,179.76Z" transform="translate(-103.89 -179.45)"/>
      </g>
      <g id="Group_2382" data-name="Group 2382" transform="translate(9.197 18.025)" opacity="0.4">
        <path id="Path_2580" data-name="Path 2580" d="M112.236,198.6a.269.269,0,0,1,0,.083.493.493,0,0,1-.1.218.913.913,0,0,1-.808.29,2.616,2.616,0,0,1-.584-.158,2.932,2.932,0,0,0-.655-.176,3.366,3.366,0,0,0-1.514.29c-.264.093-.528.185-.783.25a3.089,3.089,0,0,1-2.027-.187,2.929,2.929,0,0,1-.737-.466,1.6,1.6,0,0,1-.176-.164c-.037-.04-.056-.062-.053-.065a3.845,3.845,0,0,0,.986.637,3.245,3.245,0,0,0,1.232.252,3.07,3.07,0,0,0,.743-.1c.253-.065.51-.155.773-.248a3.484,3.484,0,0,1,1.556-.287,2.73,2.73,0,0,1,.669.192,2.773,2.773,0,0,0,.568.165.891.891,0,0,0,.771-.25.63.63,0,0,0,.141-.282Z" transform="translate(-104.798 -198.52)"/>
      </g>
      <g id="Group_2383" data-name="Group 2383" transform="translate(9.949 10.916)" opacity="0.4">
        <path id="Path_2581" data-name="Path 2581" d="M109.716,158.926a2.276,2.276,0,0,1-.334-.387,2.044,2.044,0,0,1-.312-.408A1.771,1.771,0,0,1,109.716,158.926Z" transform="translate(-109.07 -158.13)"/>
      </g>
      <g id="Group_2384" data-name="Group 2384" transform="translate(14.298 10.566)" opacity="0.4">
        <path id="Path_2582" data-name="Path 2582" d="M134.512,156.14a1.634,1.634,0,0,1-.333.417,1.558,1.558,0,0,1-.4.352,1.584,1.584,0,0,1,.333-.417A1.557,1.557,0,0,1,134.512,156.14Z" transform="translate(-133.78 -156.14)"/>
      </g>
      <g id="Group_2385" data-name="Group 2385" transform="translate(16.81 9.802)" opacity="0.4">
        <path id="Path_2583" data-name="Path 2583" d="M148.749,152.321c-.016.021-.176-.079-.375-.224s-.333-.276-.319-.3a1.1,1.1,0,0,1,.375.224C148.618,152.168,148.761,152.3,148.749,152.321Z" transform="translate(-148.054 -151.8)"/>
      </g>
      <g id="Group_2386" data-name="Group 2386" transform="translate(6.197 9.776)" opacity="0.4">
        <path id="Path_2584" data-name="Path 2584" d="M88.025,151.65a.607.607,0,0,1-.055.414.747.747,0,0,1-.22.352,125.823,125.823,0,0,1,.275-.766Z" transform="translate(-87.75 -151.65)"/>
      </g>
      <g id="Group_2387" data-name="Group 2387" transform="translate(10.128 16.971)" opacity="0.4">
        <path id="Path_2585" data-name="Path 2585" d="M110.692,193.292c-.021.016-.176-.141-.336-.352a1.322,1.322,0,0,1-.266-.4c.021-.016.176.139.336.352A1.318,1.318,0,0,1,110.692,193.292Z" transform="translate(-110.09 -192.534)"/>
      </g>
      <g id="Group_2388" data-name="Group 2388" transform="translate(12.154 16.726)" opacity="0.4">
        <path id="Path_2586" data-name="Path 2586" d="M122.374,191.14a1.644,1.644,0,0,1-.352.408,1.57,1.57,0,0,1-.422.341,1.69,1.69,0,0,1,.352-.408A1.66,1.66,0,0,1,122.374,191.14Z" transform="translate(-121.6 -191.14)"/>
      </g>
      <g id="Group_2389" data-name="Group 2389" transform="translate(14.851 16.87)" opacity="0.4">
        <path id="Path_2587" data-name="Path 2587" d="M137.728,192.546a1.37,1.37,0,0,1-.428-.255c-.224-.162-.391-.31-.375-.331a1.441,1.441,0,0,1,.428.257A1.371,1.371,0,0,1,137.728,192.546Z" transform="translate(-136.924 -191.96)"/>
      </g>
      <g id="Group_2390" data-name="Group 2390" transform="translate(10.313 13.658)" opacity="0.4">
        <path id="Path_2588" data-name="Path 2588" d="M112.157,173.71a1.936,1.936,0,0,1-.489.334,1.994,1.994,0,0,1-.528.257,1.949,1.949,0,0,1,.491-.336A1.9,1.9,0,0,1,112.157,173.71Z" transform="translate(-111.14 -173.71)"/>
      </g>
      <g id="Group_2391" data-name="Group 2391" transform="translate(13.069 13.304)" opacity="0.4">
        <path id="Path_2589" data-name="Path 2589" d="M127.465,172.255a.611.611,0,0,1-.417-.176.6.6,0,0,1-.248-.382c.023-.012.125.158.308.312S127.472,172.229,127.465,172.255Z" transform="translate(-126.8 -171.696)"/>
      </g>
      <g id="Group_2392" data-name="Group 2392" transform="translate(9.683 8.429)" opacity="0.4">
        <path id="Path_2590" data-name="Path 2590" d="M108.307,144c.011.023-.15.12-.352.213a.986.986,0,0,1-.4.13c-.011-.023.151-.118.352-.213A.974.974,0,0,1,108.307,144Z" transform="translate(-107.557 -144)"/>
      </g>
      <g id="Group_2393" data-name="Group 2393" transform="translate(12.082 8.406)" opacity="0.4">
        <path id="Path_2591" data-name="Path 2591" d="M122.017,144.3a1.233,1.233,0,0,1-.435-.176,1.2,1.2,0,0,1-.392-.259,1.3,1.3,0,0,1,.435.176A1.2,1.2,0,0,1,122.017,144.3Z" transform="translate(-121.19 -143.87)"/>
      </g>
      <g id="Group_2394" data-name="Group 2394" transform="translate(14.171 8.116)" opacity="0.4">
        <path id="Path_2592" data-name="Path 2592" d="M133.889,142.245a1.011,1.011,0,0,1-.41.086.988.988,0,0,1-.419,0,1.01,1.01,0,0,1,.41-.086A.987.987,0,0,1,133.889,142.245Z" transform="translate(-133.06 -142.222)"/>
      </g>
      <g id="Group_2395" data-name="Group 2395" transform="translate(10.226 19.535)" opacity="0.4">
        <path id="Path_2593" data-name="Path 2593" d="M111.316,207.61c-.016.021-.176-.077-.364-.218s-.324-.273-.308-.292a1.026,1.026,0,0,1,.364.218C111.193,207.459,111.332,207.589,111.316,207.61Z" transform="translate(-110.643 -207.1)"/>
      </g>
      <g id="Group_2396" data-name="Group 2396" transform="translate(13.421 19.496)" opacity="0.4">
        <path id="Path_2594" data-name="Path 2594" d="M129.548,206.88c.018.016-.111.185-.324.331a.812.812,0,0,1-.426.176c-.011-.025.176-.116.373-.257A2.323,2.323,0,0,1,129.548,206.88Z" transform="translate(-128.798 -206.88)"/>
      </g>
      <g id="Group_2397" data-name="Group 2397" transform="translate(15.514 19.767)" opacity="0.4">
        <path id="Path_2595" data-name="Path 2595" d="M141.482,208.811a1.157,1.157,0,0,1-.415-.155,1.119,1.119,0,0,1-.377-.236,1.089,1.089,0,0,1,.417.153A1.119,1.119,0,0,1,141.482,208.811Z" transform="translate(-140.69 -208.42)"/>
      </g>
      <path id="Path_2596" data-name="Path 2596" d="M130.307,223.373a.711.711,0,0,1-.136.018c-.09,0-.222.018-.391.028-.34.019-.832.04-1.441.062-1.218.04-2.9.081-4.752.092-.929,0-1.815,0-2.621-.035a3.927,3.927,0,0,1-2.026-.667,3.035,3.035,0,0,1-.957-1.075,2.386,2.386,0,0,1-.194-.495c.012,0,.063.176.224.477a3.112,3.112,0,0,0,.964,1.04,3.913,3.913,0,0,0,1.992.635c.8.033,1.69.03,2.617.028,1.859-.011,3.539-.04,4.752-.063l1.441-.035.392-.011A.728.728,0,0,1,130.307,223.373Z" transform="translate(-106.306 -199.266)" fill="#455a64"/>
    </g>
  </g>
</svg>
