<svg xmlns="http://www.w3.org/2000/svg" width="80" height="80" viewBox="0 0 80 80">
  <g id="Group_2735" data-name="Group 2735" transform="translate(-3028 -5658)">
    <g id="Light_bulb-pana" data-name="Light bulb-pana" transform="translate(2999.069 5644.33)">
      <g id="freepik--background-complete--inject-17" transform="translate(31.96 13.67)">
        <path id="Path_2376" data-name="Path 2376" d="M139.659,168.715l-13.533-.181-4.1-.034h-1.5a.412.412,0,0,0,.1,0l.289.009,1.115.019,4.1.036,13.533.06c5.283.019,10.066.043,13.528.083,1.732.019,3.133.04,4.1.062.484.012.861.022,1.114.033a2.307,2.307,0,0,1,.389.031,1.847,1.847,0,0,1-.389.024c-.255,0-.632.012-1.115.014-.969,0-2.37,0-4.1-.01C149.724,168.849,144.94,168.789,139.659,168.715Z" transform="translate(-105.276 -141.849)" fill="#ebebeb"/>
        <path id="Path_2377" data-name="Path 2377" d="M140.3,161.389l-13.34-2.282-4.047-.673-1.1-.172-.287-.041-.1-.01a.691.691,0,0,0,.1.022l.284.053,1.1.191,4.045.675,13.361,2.16c5.214.838,9.935,1.606,13.351,2.183,1.708.287,3.088.527,4.042.7.475.086.845.157,1.095.207a2.262,2.262,0,0,1,.38.091,1.986,1.986,0,0,1-.389-.036c-.253-.033-.625-.086-1.1-.16-.957-.145-2.341-.365-4.05-.646C150.224,163.086,145.508,162.284,140.3,161.389Z" transform="translate(-106.029 -133.33)" fill="#ebebeb"/>
        <path id="Path_2378" data-name="Path 2378" d="M142.126,154.022l-12.813-4.357-3.89-1.3-1.06-.344-.275-.086a.718.718,0,0,0-.1-.026l.091.038.274.1,1.055.363,3.888,1.3,12.853,4.24c5.018,1.651,9.56,3.152,12.841,4.259,1.64.553,2.968,1.007,3.882,1.327.456.16.811.287,1.05.377a2.247,2.247,0,0,1,.36.15,2.055,2.055,0,0,1-.379-.1c-.244-.072-.6-.184-1.065-.332-.923-.293-2.253-.73-3.9-1.275C151.657,157.262,147.126,155.727,142.126,154.022Z" transform="translate(-108.149 -124.803)" fill="#ebebeb"/>
        <path id="Path_2379" data-name="Path 2379" d="M145.088,147.007l-11.97-6.317-3.635-1.893-.993-.516-.26-.129a.67.67,0,0,0-.09-.041.353.353,0,0,0,.084.052l.255.139.985.516,3.635,1.893,12.025,6.209c4.7,2.418,8.951,4.617,12.011,6.226,1.534.8,2.771,1.46,3.623,1.921.427.229.756.411.978.537a2.066,2.066,0,0,1,.332.2,1.991,1.991,0,0,1-.358-.155c-.229-.11-.566-.277-1-.5-.861-.436-2.112-1.076-3.649-1.873C153.991,151.7,149.758,149.476,145.088,147.007Z" transform="translate(-111.584 -116.69)" fill="#ebebeb"/>
        <path id="Path_2380" data-name="Path 2380" d="M149.051,140.675l-10.834-8.111-3.3-2.441-.9-.658-.238-.172a.466.466,0,0,0-.083-.053.841.841,0,0,0,.076.064l.231.172.89.671,3.295,2.443L149.1,140.6c4.26,3.124,8.113,5.959,10.889,8.027,1.389,1.033,2.51,1.876,3.279,2.465.386.294.689.525.881.689a2.148,2.148,0,0,1,.3.253,1.94,1.94,0,0,1-.329-.208c-.21-.145-.516-.363-.911-.645-.785-.566-1.916-1.393-3.31-2.422C157.11,146.706,153.277,143.842,149.051,140.675Z" transform="translate(-116.187 -109.347)" fill="#ebebeb"/>
        <path id="Path_2381" data-name="Path 2381" d="M153.948,135.089l-9.441-9.7c-1.2-1.232-2.195-2.238-2.875-2.926l-.788-.783-.2-.207-.074-.067a.531.531,0,0,0,.065.076l.2.21.776.8,2.873,2.926,9.529,9.61c3.723,3.747,7.088,7.147,9.51,9.622,1.2,1.238,2.186,2.238,2.854,2.945.336.344.594.623.766.811a2.007,2.007,0,0,1,.253.3,1.988,1.988,0,0,1-.293-.258c-.186-.172-.454-.439-.8-.78-.689-.689-1.678-1.673-2.894-2.906C160.971,142.3,157.63,138.878,153.948,135.089Z" transform="translate(-121.875 -102.865)" fill="#ebebeb"/>
        <path id="Path_2382" data-name="Path 2382" d="M159.644,130.323l-7.818-11.046-2.386-3.336-.656-.9-.172-.232a.533.533,0,0,0-.062-.076.846.846,0,0,0,.053.083l.164.239.642.912c.565.792,1.377,1.931,2.382,3.338,2.029,2.811,4.82,6.691,7.918,10.975s5.889,8.164,7.9,10.985c1,1.411,1.811,2.556,2.363,3.353.275.4.487.707.628.921a2.206,2.206,0,0,1,.2.332,1.933,1.933,0,0,1-.25-.3c-.155-.2-.38-.5-.668-.893-.573-.78-1.4-1.914-2.41-3.32C165.45,138.541,162.684,134.639,159.644,130.323Z" transform="translate(-128.481 -97.334)" fill="#ebebeb"/>
        <path id="Path_2383" data-name="Path 2383" d="M166.021,126.449l-6-12.134c-.773-1.549-1.4-2.8-1.835-3.668l-.506-.995c-.059-.11-.1-.195-.134-.256a.8.8,0,0,0-.05-.086.6.6,0,0,0,.04.091l.124.263.491,1c.434.871,1.06,2.122,1.831,3.67,1.565,3.1,3.721,7.362,6.106,12.078s4.543,8.984,6.083,12.084c.771,1.549,1.389,2.809,1.809,3.68.21.437.372.776.479,1.009a2.137,2.137,0,0,1,.148.36,1.866,1.866,0,0,1-.2-.334c-.122-.225-.3-.558-.516-.988-.446-.861-1.081-2.109-1.859-3.656C170.475,135.472,168.353,131.186,166.021,126.449Z" transform="translate(-135.891 -92.847)" fill="#ebebeb"/>
        <path id="Path_2384" data-name="Path 2384" d="M173.028,123.6l-4.012-12.925-1.234-3.913c-.148-.458-.263-.814-.344-1.06-.04-.119-.071-.208-.093-.274a.659.659,0,0,0-.034-.093.535.535,0,0,0,.024.1l.081.277.327,1.067c.293.926.713,2.262,1.232,3.911,1.057,3.3,2.517,7.856,4.131,12.889s3.069,9.586,4.1,12.891c.516,1.652.93,2.992,1.2,3.919.138.463.244.825.312,1.071a2.05,2.05,0,0,1,.091.379,1.942,1.942,0,0,1-.145-.363c-.084-.239-.2-.6-.358-1.055-.3-.919-.735-2.253-1.258-3.9C176.01,133.218,174.589,128.652,173.028,123.6Z" transform="translate(-144.012 -89.561)" fill="#ebebeb"/>
        <path id="Path_2385" data-name="Path 2385" d="M180.412,121.926c-.754-5.231-1.434-9.965-1.928-13.4l-.6-4.057c-.076-.475-.133-.845-.172-1.1-.021-.122-.038-.217-.048-.286a.758.758,0,0,0-.021-.1.384.384,0,0,0,.009.1l.036.287c.036.256.088.628.155,1.105.143.961.344,2.346.6,4.057.527,3.425,1.25,8.154,2.05,13.378s1.525,9.949,2.026,13.375c.251,1.721.448,3.1.577,4.061.064.48.112.861.141,1.107a2.258,2.258,0,0,1,.029.389,1.825,1.825,0,0,1-.084-.38c-.046-.251-.11-.621-.188-1.1-.157-.955-.372-2.341-.63-4.052C181.844,131.884,181.159,127.15,180.412,121.926Z" transform="translate(-152.562 -87.615)" fill="#ebebeb"/>
        <path id="Path_2386" data-name="Path 2386" d="M186.164,121.378c.067-5.284.127-10.066.172-13.533.014-1.73.024-3.129.033-4.1v-1.4a.7.7,0,0,0,0-.1.538.538,0,0,0,0,.1v.289c0,.26-.01.633-.017,1.115-.009.973-.021,2.372-.034,4.1-.014,3.467-.031,8.249-.052,13.533s-.038,10.066-.074,13.53c-.017,1.73-.038,3.131-.06,4.1-.01.484-.022.861-.033,1.115a1.893,1.893,0,0,1-.031.387,2.186,2.186,0,0,1-.024-.389c0-.255-.01-.63-.014-1.115v-4.1C186.035,131.442,186.092,126.659,186.164,121.378Z" transform="translate(-159.51 -86.994)" fill="#ebebeb"/>
        <path id="Path_2387" data-name="Path 2387" d="M165.035,122.006c.888-5.21,1.692-9.925,2.274-13.342l.673-4.047c.076-.475.134-.845.172-1.1.019-.124.033-.219.041-.287a.685.685,0,0,0,.01-.1.927.927,0,0,0-.022.1c-.012.069-.029.172-.052.286-.045.255-.108.625-.191,1.1-.16.959-.389,2.341-.673,4.047l-2.152,13.361c-.837,5.216-1.6,9.937-2.174,13.352-.287,1.708-.525,3.09-.7,4.042-.086.477-.155.847-.207,1.1a2.127,2.127,0,0,1-.09.379,1.817,1.817,0,0,1,.036-.387c.033-.253.086-.625.158-1.1.145-.959.365-2.343.644-4.052C163.345,131.928,164.144,127.206,165.035,122.006Z" transform="translate(-139.574 -87.731)" fill="#ebebeb"/>
        <path id="Path_2388" data-name="Path 2388" d="M144.165,123.823c1.7-5.006,3.234-9.534,4.348-12.817l1.3-3.894c.148-.458.265-.814.344-1.06.038-.119.065-.21.086-.275a.713.713,0,0,0,.026-.1.823.823,0,0,0-.036.091q-.036.1-.1.274c-.084.244-.2.6-.361,1.055-.308.921-.752,2.25-1.3,3.888-1.083,3.293-2.582,7.837-4.229,12.857s-3.145,9.562-4.248,12.844c-.553,1.64-1.005,2.968-1.325,3.882-.16.456-.287.811-.377,1.05a1.778,1.778,0,0,1-.15.36,2.1,2.1,0,0,1,.1-.379c.074-.244.184-.6.332-1.064.293-.924.728-2.257,1.272-3.9C140.932,133.354,142.464,128.823,144.165,123.823Z" transform="translate(-119.863 -89.842)" fill="#ebebeb"/>
        <path id="Path_2389" data-name="Path 2389" d="M124.5,126.785c2.463-4.677,4.692-8.908,6.309-11.973l1.893-3.639.516-.993q.083-.172.129-.258a.706.706,0,0,0,.04-.091.59.59,0,0,0-.052.084c-.033.06-.079.145-.138.255l-.516.985c-.449.861-1.1,2.1-1.893,3.637l-6.2,12.03c-2.41,4.7-4.611,8.951-6.219,12.015-.8,1.534-1.458,2.771-1.918,3.625-.231.425-.411.756-.537.978a2.078,2.078,0,0,1-.2.332,2.109,2.109,0,0,1,.157-.358c.11-.231.275-.568.494-1,.435-.861,1.074-2.112,1.871-3.649C119.805,135.689,122.031,131.455,124.5,126.785Z" transform="translate(-101.294 -93.278)" fill="#ebebeb"/>
        <path id="Path_2390" data-name="Path 2390" d="M106.3,130.723l8.1-10.844,2.441-3.3.656-.9.172-.238a.651.651,0,0,0,.053-.083.6.6,0,0,0-.064.076c-.041.055-.1.131-.172.229-.155.208-.38.516-.67.892l-2.443,3.3-8,10.913c-3.121,4.262-5.952,8.116-8.02,10.894-1.033,1.389-1.875,2.51-2.461,3.281-.294.384-.525.689-.689.881a2.152,2.152,0,0,1-.253.3,1.942,1.942,0,0,1,.208-.329c.145-.21.363-.516.645-.911.565-.787,1.391-1.918,2.41-3.312C100.274,138.785,103.135,134.952,106.3,130.723Z" transform="translate(-84.107 -97.856)" fill="#ebebeb"/>
        <path id="Path_2391" data-name="Path 2391" d="M90.21,135.6l9.7-9.443,2.926-2.878.79-.788.2-.207a.558.558,0,0,0,.067-.074.479.479,0,0,0-.074.065c-.052.046-.12.114-.212.2l-.8.775-2.926,2.876-9.612,9.536c-3.746,3.723-7.142,7.092-9.617,9.514-1.236,1.2-2.238,2.188-2.942,2.857-.344.336-.623.594-.811.766a2.125,2.125,0,0,1-.3.253,1.988,1.988,0,0,1,.258-.293c.172-.186.439-.454.778-.8.689-.689,1.673-1.678,2.906-2.9C83,142.632,86.425,139.289,90.21,135.6Z" transform="translate(-68.916 -103.527)" fill="#ebebeb"/>
        <path id="Path_2392" data-name="Path 2392" d="M76.53,141.283l11.042-7.825,3.336-2.387.9-.656.234-.172a.534.534,0,0,0,.076-.062.515.515,0,0,0-.084.053l-.238.172-.912.642-3.336,2.372-10.972,7.918c-4.279,3.1-8.159,5.9-10.979,7.9-1.411,1-2.556,1.813-3.351,2.365-.4.275-.707.487-.921.628a2.21,2.21,0,0,1-.325.215,1.961,1.961,0,0,1,.3-.25c.2-.155.5-.38.893-.668.78-.575,1.914-1.4,3.32-2.41C68.317,147.1,72.218,144.334,76.53,141.283Z" transform="translate(-56.001 -110.125)" fill="#ebebeb"/>
        <path id="Path_2393" data-name="Path 2393" d="M65.463,147.683l12.13-6,3.666-1.838.993-.506.256-.136a.456.456,0,0,0,.086-.05.6.6,0,0,0-.091.04l-.262.124-1,.5-3.672,1.828-12.075,6.112c-4.706,2.387-8.977,4.548-12.077,6.09-1.549.773-2.806,1.391-3.678,1.813-.435.21-.776.372-1.009.477a1.954,1.954,0,0,1-.36.15,2.1,2.1,0,0,1,.344-.2c.224-.12.556-.3.986-.516.861-.446,2.109-1.081,3.656-1.859C56.441,152.146,60.726,150.022,65.463,147.683Z" transform="translate(-45.545 -117.551)" fill="#ebebeb"/>
        <path id="Path_2394" data-name="Path 2394" d="M57.4,154.709l12.924-4.018,3.911-1.238,1.06-.344.274-.093a.785.785,0,0,0,.093-.036.532.532,0,0,0-.1.024l-.277.081-1.067.329-3.911,1.234-12.886,4.131c-5.028,1.618-9.584,3.078-12.888,4.114-1.652.516-2.992.931-3.919,1.2-.463.139-.825.244-1.071.313a1.94,1.94,0,0,1-.379.09,2.035,2.035,0,0,1,.363-.143c.239-.086.6-.207,1.055-.36.919-.3,2.253-.737,3.9-1.262C47.79,157.7,52.357,156.273,57.4,154.709Z" transform="translate(-37.929 -125.689)" fill="#ebebeb"/>
        <path id="Path_2395" data-name="Path 2395" d="M52.577,162.092l13.4-1.935,4.055-.608,1.1-.172.286-.048a.754.754,0,0,0,.1-.021.4.4,0,0,0-.1.009l-.287.036-1.1.157-4.057.606-13.376,2.057c-5.221.807-9.949,1.532-13.375,2.035-1.721.253-3.1.449-4.061.578-.48.065-.861.114-1.107.141a2.177,2.177,0,0,1-.387.031,1.881,1.881,0,0,1,.38-.086c.25-.046.621-.108,1.1-.188.957-.157,2.341-.372,4.054-.632C42.616,163.533,47.35,162.844,52.577,162.092Z" transform="translate(-33.367 -134.239)" fill="#ebebeb"/>
        <path id="Path_2396" data-name="Path 2396" d="M51.092,167.846l13.533.164,4.1.031h1.5a.565.565,0,0,0-.1,0l-.289-.009-1.115-.015-4.1-.033-13.526-.06c-5.283-.012-10.066-.031-13.528-.065-1.732-.017-3.133-.036-4.1-.057-.484-.012-.861-.022-1.115-.033a1.893,1.893,0,0,1-.387-.031,2.207,2.207,0,0,1,.389-.024c.255,0,.63-.012,1.115-.014h4.1C41.028,167.724,45.811,167.777,51.092,167.846Z" transform="translate(-31.96 -141.187)" fill="#ebebeb"/>
        <path id="Path_2397" data-name="Path 2397" d="M52.915,146.858l13.344,2.265,4.047.668,1.1.172.286.041a.691.691,0,0,0,.1.01.928.928,0,0,0-.1-.022l-.286-.052-1.1-.191-4.047-.67L52.9,146.937c-5.217-.833-9.939-1.594-13.354-2.165-1.709-.286-3.1-.516-4.043-.689-.477-.084-.845-.155-1.1-.2a2.184,2.184,0,0,1-.379-.09,1.876,1.876,0,0,1,.389.034c.253.033.625.086,1.1.158.957.145,2.343.363,4.05.642C42.991,145.173,47.708,145.97,52.915,146.858Z" transform="translate(-33.674 -121.391)" fill="#ebebeb"/>
        <path id="Path_2398" data-name="Path 2398" d="M58.085,125.963,70.9,130.3,74.8,131.6l1.06.344.277.088a.676.676,0,0,0,.1.024l-.093-.036-.272-.1-1.055-.36-3.892-1.3-12.858-4.221C53.04,124.4,48.5,122.9,45.213,121.8c-1.642-.551-2.968-1-3.883-1.322-.456-.16-.811-.286-1.05-.375a2.066,2.066,0,0,1-.36-.15,2.094,2.094,0,0,1,.379.1c.244.072.6.184,1.065.33.923.293,2.255.726,3.9,1.27C48.551,122.735,53.083,124.262,58.085,125.963Z" transform="translate(-38.55 -101.656)" fill="#ebebeb"/>
        <path id="Path_2399" data-name="Path 2399" d="M66.471,106.2l11.979,6.3,3.639,1.893.993.506.26.129a.049.049,0,1,0,.005-.01l-.255-.139-.985-.516-3.639-1.893-12.034-6.2c-4.7-2.41-8.951-4.606-12.018-6.211-1.535-.8-2.773-1.458-3.627-1.918-.425-.229-.756-.41-.978-.535a1.974,1.974,0,0,1-.332-.2,2.246,2.246,0,0,1,.358.155c.229.11.566.277,1,.494.861.435,2.112,1.074,3.649,1.869C57.563,101.517,61.791,103.741,66.471,106.2Z" transform="translate(-46.464 -82.996)" fill="#ebebeb"/>
        <path id="Path_2400" data-name="Path 2400" d="M77.8,88.03l10.844,8.09,3.3,2.437.9.656c.1.072.181.127.236.172a.727.727,0,0,0,.084.053.8.8,0,0,0-.076-.064l-.231-.172-.892-.67-3.3-2.439-10.917-8c-4.264-3.119-8.121-5.949-10.9-8.014-1.389-1.033-2.51-1.873-3.281-2.46-.386-.293-.689-.516-.883-.689a2.15,2.15,0,0,1-.3-.253,1.862,1.862,0,0,1,.329.208c.21.145.516.361.911.644.788.565,1.919,1.391,3.314,2.41C69.733,82.009,73.568,84.868,77.8,88.03Z" transform="translate(-57.152 -65.834)" fill="#ebebeb"/>
        <path id="Path_2401" data-name="Path 2401" d="M91.767,71.974l9.453,9.684,2.88,2.926.788.788.207.2a.049.049,0,1,0,.009-.009l-.2-.21c-.172-.186-.441-.456-.776-.8l-2.876-2.926-9.541-9.6c-3.728-3.74-7.1-7.14-9.522-9.612-1.2-1.236-2.19-2.238-2.859-2.94-.334-.344-.592-.623-.766-.811a2.009,2.009,0,0,1-.253-.3,1.991,1.991,0,0,1,.293.258c.186.172.454.437.8.778.689.689,1.68,1.671,2.9,2.9C84.736,64.77,88.08,68.19,91.767,71.974Z" transform="translate(-70.332 -50.676)" fill="#ebebeb"/>
        <path id="Path_2402" data-name="Path 2402" d="M108.067,58.26,115.9,69.3l2.389,3.334.656.9.172.232a.441.441,0,0,0,.064.077.727.727,0,0,0-.053-.084l-.172-.239-.642-.911-2.387-3.334-7.932-10.966c-3.1-4.277-5.9-8.156-7.918-10.975-.99-1.417-1.79-2.561-2.351-3.358-.277-.4-.489-.709-.63-.921a2.207,2.207,0,0,1-.2-.332,1.959,1.959,0,0,1,.25.3c.155.2.38.5.67.893.575.78,1.4,1.912,2.41,3.319C102.245,50.042,105.013,53.941,108.067,58.26Z" transform="translate(-85.713 -37.72)" fill="#ebebeb"/>
        <path id="Path_2403" data-name="Path 2403" d="M126.413,47.216c2.346,4.735,4.475,9.02,6.011,12.127l1.838,3.665.516.993.136.256a.62.62,0,0,0,.048.086.434.434,0,0,0-.038-.091l-.126-.262-.5-1.005c-.435-.869-1.064-2.121-1.838-3.668-1.566-3.1-3.73-7.357-6.121-12.07s-4.551-8.972-6.088-12.072c-.773-1.549-1.393-2.806-1.814-3.678-.21-.435-.372-.775-.479-1.007a2.081,2.081,0,0,1-.15-.36,1.922,1.922,0,0,1,.2.334c.122.225.3.558.516.986.446.861,1.083,2.109,1.862,3.654C121.943,38.2,124.07,42.482,126.413,47.216Z" transform="translate(-103.032 -27.297)" fill="#ebebeb"/>
        <path id="Path_2404" data-name="Path 2404" d="M146.25,39.139c1.573,5.045,3,9.612,4.028,12.92.516,1.649.945,2.983,1.239,3.911.15.458.265.814.344,1.06l.093.274a.666.666,0,0,0,.034.093.392.392,0,0,0-.024-.1l-.081-.277c-.076-.248-.188-.606-.329-1.067-.293-.926-.716-2.26-1.238-3.909-1.062-3.3-2.527-7.853-4.145-12.884s-3.085-9.581-4.131-12.886c-.516-1.651-.933-2.99-1.2-3.918-.139-.463-.246-.825-.315-1.069a2.086,2.086,0,0,1-.091-.38,1.861,1.861,0,0,1,.145.363c.086.239.207.6.36,1.055.306.919.738,2.253,1.263,3.9C143.255,29.532,144.682,34.1,146.25,39.139Z" transform="translate(-121.759 -19.664)" fill="#ebebeb"/>
        <path id="Path_2405" data-name="Path 2405" d="M167.171,34.3c.759,5.229,1.446,9.963,1.945,13.394.256,1.709.465,3.1.608,4.055.076.475.134.845.172,1.1.022.124.038.219.05.286a.462.462,0,0,0,.021.1.855.855,0,0,0-.009-.1c-.009-.069-.022-.164-.038-.287-.036-.256-.09-.627-.157-1.1-.143-.962-.344-2.346-.606-4.057-.53-3.425-1.26-8.152-2.066-13.375s-1.537-9.947-2.043-13.375c-.253-1.713-.451-3.1-.58-4.059-.065-.48-.114-.861-.143-1.107a1.879,1.879,0,0,1-.029-.389,2.219,2.219,0,0,1,.084.38c.046.251.11.621.189,1.1.157.955.374,2.339.633,4.052C165.728,24.336,166.419,29.07,167.171,34.3Z" transform="translate(-141.516 -15.086)" fill="#ebebeb"/>
        <path id="Path_2406" data-name="Path 2406" d="M187.106,32.8c-.06,5.284-.115,10.068-.155,13.533-.012,1.73-.021,3.129-.028,4.1v1.4a.371.371,0,0,0,0,.1.757.757,0,0,0,0-.1c0-.069,0-.172.009-.289,0-.258.009-.633.015-1.115,0-.973.017-2.372.029-4.1.009-3.467.021-8.25.034-13.535s.026-10.066.057-13.528c.015-1.732.034-3.133.055-4.1.01-.484.021-.861.031-1.114a1.916,1.916,0,0,1,.031-.389,2.212,2.212,0,0,1,.024.389c0,.255.012.63.016,1.115v4.1C187.215,22.738,187.163,27.521,187.106,32.8Z" transform="translate(-160.247 -13.67)" fill="#ebebeb"/>
        <path id="Path_2407" data-name="Path 2407" d="M179.755,34.616c-.881,5.21-1.678,9.927-2.257,13.344-.281,1.708-.506,3.088-.664,4.049-.074.475-.133.845-.172,1.1-.017.122-.031.219-.041.286a.689.689,0,0,0-.01.1.572.572,0,0,0,.022-.1c.012-.069.029-.164.053-.286.043-.255.107-.625.189-1.1.157-.959.386-2.339.666-4.047.547-3.422,1.3-8.145,2.134-13.364s1.589-9.939,2.165-13.356c.286-1.708.516-3.088.689-4.042.086-.477.155-.847.2-1.1a1.892,1.892,0,0,1,.091-.379,2.16,2.16,0,0,1-.036.387c-.033.253-.086.625-.157,1.105-.145.957-.361,2.341-.64,4.05C181.433,24.691,180.636,29.408,179.755,34.616Z" transform="translate(-151.711 -15.375)" fill="#ebebeb"/>
        <path id="Path_2408" data-name="Path 2408" d="M172.38,39.768c-1.69,5.007-3.221,9.538-4.331,12.822-.544,1.642-.986,2.969-1.293,3.892l-.344,1.062c-.038.119-.065.21-.086.277a.662.662,0,0,0-.026.095.644.644,0,0,0,.038-.091c.022-.065.055-.157.1-.274.083-.244.2-.6.36-1.055.308-.923.751-2.25,1.3-3.892,1.079-3.295,2.568-7.839,4.212-12.862s3.133-9.565,4.233-12.848c.551-1.642,1-2.969,1.32-3.883.16-.458.286-.812.375-1.052a1.779,1.779,0,0,1,.15-.36,2.057,2.057,0,0,1-.1.379c-.072.244-.184.6-.329,1.065-.293.923-.726,2.255-1.27,3.9C175.6,30.232,174.075,34.765,172.38,39.768Z" transform="translate(-143.176 -20.235)" fill="#ebebeb"/>
        <path id="Path_2409" data-name="Path 2409" d="M165.39,48.138,159.1,60.12c-.8,1.534-1.442,2.776-1.893,3.641l-.506.993c-.057.112-.1.2-.129.26a.049.049,0,1,0,.01.005l.139-.255.516-.986,1.893-3.639L165.314,48.1c2.41-4.7,4.6-8.951,6.2-12.023.8-1.534,1.456-2.773,1.916-3.627.229-.427.41-.756.534-.979a2.074,2.074,0,0,1,.2-.332,1.933,1.933,0,0,1-.155.358c-.11.231-.275.568-.494,1-.434.861-1.071,2.112-1.866,3.651C170.072,39.227,167.851,43.463,165.39,48.138Z" transform="translate(-135.088 -28.133)" fill="#ebebeb"/>
        <path id="Path_2410" data-name="Path 2410" d="M159.027,59.423l-8.09,10.844c-1.033,1.393-1.857,2.518-2.436,3.3l-.656.9-.172.236a.561.561,0,0,0-.053.083.6.6,0,0,0,.064-.076l.172-.229c.157-.207.38-.508.67-.892l2.437-3.3,7.99-10.923c3.124-4.26,5.945-8.118,8.011-10.894,1.033-1.391,1.873-2.513,2.458-3.283.294-.386.516-.689.689-.883a2.116,2.116,0,0,1,.25-.31,1.829,1.829,0,0,1-.208.344c-.145.21-.361.516-.644.911-.563.787-1.389,1.921-2.41,3.315C165.043,51.353,162.188,55.189,159.027,59.423Z" transform="translate(-127.711 -38.779)" fill="#ebebeb"/>
        <path id="Path_2411" data-name="Path 2411" d="M153.41,73.457l-9.677,9.467-2.926,2.88-.788.79-.2.208a.541.541,0,0,0-.065.072.669.669,0,0,0,.074-.064l.212-.2.8-.778,2.926-2.878,9.593-9.548c3.74-3.73,7.133-7.1,9.6-9.527,1.234-1.2,2.238-2.191,2.938-2.861.344-.336.623-.594.811-.766a1.927,1.927,0,0,1,.3-.253,2.238,2.238,0,0,1-.258.293c-.172.184-.437.454-.776.8-.68.689-1.671,1.682-2.9,2.9C160.609,66.421,157.19,69.767,153.41,73.457Z" transform="translate(-121.196 -52.025)" fill="#ebebeb"/>
        <path id="Path_2412" data-name="Path 2412" d="M148.663,89.715l-11.032,7.841-3.331,2.4-.9.658-.232.172a.535.535,0,0,0-.076.062.616.616,0,0,0,.083-.052l.239-.172.911-.642,3.334-2.391,10.96-7.939c4.276-3.1,8.152-5.906,10.97-7.918,1.41-1.007,2.553-1.816,3.348-2.369.4-.277.707-.491.919-.632a2.008,2.008,0,0,1,.332-.2,1.924,1.924,0,0,1-.3.253c-.2.157-.5.382-.892.67-.78.577-1.912,1.4-3.317,2.41C156.868,83.885,152.971,86.66,148.663,89.715Z" transform="translate(-115.682 -67.366)" fill="#ebebeb"/>
        <path id="Path_2413" data-name="Path 2413" d="M144.782,108.087l-12.123,6.025-3.665,1.842-.991.516-.256.136a.391.391,0,0,0-.086.05.708.708,0,0,0,.091-.04l.262-.126,1-.492,3.666-1.838,12.066-6.13c4.708-2.4,8.975-4.558,12.072-6.106,1.549-.773,2.806-1.394,3.678-1.816.435-.212.775-.374,1.007-.479a1.957,1.957,0,0,1,.36-.15,2.2,2.2,0,0,1-.336.2c-.224.122-.556.3-.985.516-.861.446-2.109,1.083-3.654,1.864C153.8,103.611,149.514,105.74,144.782,108.087Z" transform="translate(-111.187 -84.709)" fill="#ebebeb"/>
        <path id="Path_2414" data-name="Path 2414" d="M141.956,127.882l-12.918,4.035-3.9,1.243-1.06.344-.275.093a.563.563,0,0,0-.091.036.781.781,0,0,0,.095-.024l.279-.083,1.066-.329,3.909-1.239,12.881-4.155c5.026-1.625,9.579-3.09,12.882-4.131,1.652-.516,2.99-.936,3.918-1.215.463-.139.825-.246,1.071-.315a2.053,2.053,0,0,1,.379-.091,2.1,2.1,0,0,1-.363.145c-.239.086-.6.207-1.055.36-.919.306-2.251.74-3.9,1.267C151.564,124.88,147,126.31,141.956,127.882Z" transform="translate(-107.917 -103.394)" fill="#ebebeb"/>
        <path id="Path_2415" data-name="Path 2415" d="M140.193,148.8,126.8,150.752l-4.055.611-1.1.172-.286.048a.75.75,0,0,0-.1.021.533.533,0,0,0,.1-.009l.287-.038,1.1-.157,4.055-.609,13.375-2.076c5.219-.814,9.946-1.549,13.373-2.05,1.711-.255,3.1-.454,4.059-.585.48-.064.852-.112,1.107-.141a1.978,1.978,0,0,1,.387-.031,1.878,1.878,0,0,1-.38.086c-.25.046-.621.11-1.1.189-.955.157-2.341.375-4.052.637C150.152,147.347,145.42,148.041,140.193,148.8Z" transform="translate(-105.889 -123.146)" fill="#ebebeb"/>
        <path id="Path_2416" data-name="Path 2416" d="M98.626,368a5.2,5.2,0,0,1,3.25-.4,2.7,2.7,0,0,1,1.606.718,1.156,1.156,0,0,1,.017,1.6,1.548,1.548,0,0,1-1.012.257,3.99,3.99,0,0,0-2.5.355c-.391.3-.652.787-1.121.931a1.1,1.1,0,0,1-1.217-.542,1.893,1.893,0,0,1-.138-1.4A2.127,2.127,0,0,1,98.626,368Z" transform="translate(-86.167 -306.605)" fill="#ebebeb"/>
        <path id="Path_2417" data-name="Path 2417" d="M88.433,301.914a1.559,1.559,0,0,0,2.324.05,4.386,4.386,0,0,0,.985-2.019,10.753,10.753,0,0,0,.606-5.1,2.842,2.842,0,0,0-.652-1.389,1.484,1.484,0,0,0-1.4-.466,2.163,2.163,0,0,0-1.226,1.289,12.16,12.16,0,0,0-1.2,5.221,4.246,4.246,0,0,0,.571,2.418" transform="translate(-78.238 -244.882)" fill="#ebebeb"/>
        <path id="Path_2418" data-name="Path 2418" d="M48.07,316.449a3.135,3.135,0,0,0,.489-2.89,5.586,5.586,0,0,0-1.711-2.484,9.2,9.2,0,0,0-3.067-1.809,3.252,3.252,0,0,0-1.377-.234,1.446,1.446,0,0,0-1.157.7,2.165,2.165,0,0,0,.322,1.971,23.289,23.289,0,0,0,2.014,3.066,5.382,5.382,0,0,0,2.214,1.893,2.018,2.018,0,0,0,2.363-.327" transform="translate(-39.536 -258.188)" fill="#ebebeb"/>
        <path id="Path_2419" data-name="Path 2419" d="M90.948,382.42a1.971,1.971,0,0,0,.055-.391c.028-.286.062-.645.1-1.071a15.316,15.316,0,0,1,.241-1.572,12.123,12.123,0,0,1,.571-1.852,6.848,6.848,0,0,1,.947-1.678,3.522,3.522,0,0,1,1.2-.995,3.342,3.342,0,0,1,1.007-.313,1.821,1.821,0,0,0,.391-.057,1.967,1.967,0,0,0-.4,0,3.034,3.034,0,0,0-1.05.274,3.532,3.532,0,0,0-1.263,1,6.766,6.766,0,0,0-.981,1.711,11.342,11.342,0,0,0-.566,1.885,13.381,13.381,0,0,0-.208,1.59c-.034.454-.046.823-.053,1.076A1.772,1.772,0,0,0,90.948,382.42Z" transform="translate(-80.785 -312.375)" fill="#e0e0e0"/>
        <path id="Path_2420" data-name="Path 2420" d="M90.964,330.757a.842.842,0,0,0,.01-.182v-.516c0-.453,0-1.107.024-1.912.04-1.615.172-3.353.446-5.8.255-2.3.6-4.992.957-6.727.077-.4.155-.754.227-1.065s.129-.584.188-.8.09-.374.122-.506a.759.759,0,0,0,.031-.172.742.742,0,0,0-.064.172c-.04.131-.09.3-.15.5s-.136.484-.215.8-.172.668-.251,1.064a58.835,58.835,0,0,0-1.007,6.236c-.269,2.455-.391,4.691-.4,6.309-.01.809,0,1.465.028,1.918.014.21.024.382.033.516A.659.659,0,0,0,90.964,330.757Z" transform="translate(-80.736 -261.534)" fill="#e0e0e0"/>
        <path id="Path_2421" data-name="Path 2421" d="M63.7,332.72a3.458,3.458,0,0,0,0-.544,14.062,14.062,0,0,0-.172-1.472,19.494,19.494,0,0,0-.479-2.147,17.5,17.5,0,0,0-.9-2.541,13.5,13.5,0,0,0-2.634-4.1,6.544,6.544,0,0,0-.62-.577c-.1-.081-.172-.16-.265-.224l-.241-.172a3.447,3.447,0,0,0-.458-.293,16.259,16.259,0,0,1,1.5,1.339,14.231,14.231,0,0,1,2.57,4.09,20.024,20.024,0,0,1,.9,2.515c.236.79.392,1.515.516,2.126s.172,1.112.215,1.458A3.594,3.594,0,0,0,63.7,332.72Z" transform="translate(-53.465 -267.809)" fill="#e0e0e0"/>
        <path id="Path_2422" data-name="Path 2422" d="M67.23,434.95l.432,5.92h7.6l.432-5.92Z" transform="translate(-61.159 -362.434)" fill="#e0e0e0"/>
        <rect id="Rectangle_686" data-name="Rectangle 686" width="10.108" height="2.332" transform="translate(5.338 70.183)" fill="#e0e0e0"/>
        <path id="Path_2423" data-name="Path 2423" d="M62.97,468.02v.647h9.941v-.647Z" transform="translate(-57.632 -389.812)" fill="#ebebeb"/>
        <path id="Path_2424" data-name="Path 2424" d="M66.195,472.918l-.465-1.138h9.1l-.544,1.138Z" transform="translate(-59.917 -392.925)" fill="#e0e0e0"/>
        <path id="Path_2425" data-name="Path 2425" d="M76.21,442.249a.219.219,0,0,1-.036.055l-.112.15-.444.566-.019.026-.019-.026-1.088-1.506h.065c-.324.46-.689.969-1.071,1.518l-.034.047-.038-.045-1.267-1.506h.074l-.071.088-1.136,1.424-.038.048-.034-.05-1.072-1.517h.062l-1.32,1.5-.022.028-.019-.031c-.172-.291-.312-.525-.413-.689l-.105-.184a.278.278,0,0,1-.033-.067.393.393,0,0,1,.045.059l.117.172.434.689h-.041l1.3-1.523.033-.038.031.041,1.081,1.51h-.074l1.133-1.427.071-.088.036-.045.036.045,1.267,1.515h-.071l1.083-1.508.031-.045.031.045L75.625,443h-.04l.461-.553.124-.143C76.193,442.263,76.208,442.248,76.21,442.249Z" transform="translate(-61.813 -367.799)" fill="#f5f5f5"/>
        <path id="Path_2426" data-name="Path 2426" d="M76.07,434.5c0,.026-1.906.046-4.255.046s-4.255-.021-4.255-.046,1.905-.048,4.255-.048S76.07,434.472,76.07,434.5Z" transform="translate(-61.432 -362.02)" fill="#f5f5f5"/>
        <path id="Path_2427" data-name="Path 2427" d="M74.789,471.918c0,.026-2.066.046-4.623.046s-4.625-.021-4.625-.046,2.066-.048,4.625-.048S74.789,471.892,74.789,471.918Z" transform="translate(-59.76 -392.999)" fill="#f5f5f5"/>
        <rect id="Rectangle_687" data-name="Rectangle 687" width="18.504" height="26.82" transform="translate(55.438 7.985)" fill="#e0e0e0"/>
        <rect id="Rectangle_688" data-name="Rectangle 688" width="18.504" height="26.82" transform="translate(54.512 7.985)" fill="#f5f5f5"/>
        <rect id="Rectangle_689" data-name="Rectangle 689" width="13.907" height="21.01" transform="translate(56.81 10.891)" fill="#fff"/>
        <path id="Path_2428" data-name="Path 2428" d="M375.733,97.7V96.148c0-1.007,0-2.474-.012-4.327,0-3.7-.014-8.951-.022-15.129l.046.045h-13.9l.05-.05c0,7.918,0,15.234-.009,21.01l-.041-.041,10.121.022,2.8.01h.016l-2.787.01-10.147.021h-.04V97.7c0-5.777,0-13.082-.01-21.01V76.64h14v.046c-.01,6.2-.017,11.447-.024,15.16,0,1.849-.009,3.312-.012,4.317V97.6A.2.2,0,0,1,375.733,97.7Z" transform="translate(-305.016 -65.801)" fill="#e0e0e0"/>
        <path id="Path_2429" data-name="Path 2429" d="M444.363,60.06a3.281,3.281,0,0,1-.331.479c-.215.287-.516.689-.861,1.1s-.675.8-.916,1.064a3.038,3.038,0,0,1-.406.415,3.474,3.474,0,0,1,.353-.461l.878-1.081.892-1.081a3.442,3.442,0,0,1,.391-.435Z" transform="translate(-371.295 -52.075)" fill="#e0e0e0"/>
        <path id="Path_2430" data-name="Path 2430" d="M443.2,198.6a17.24,17.24,0,0,0,2.425,3.035" transform="translate(-372.413 -166.768)" fill="#fff"/>
        <path id="Path_2431" data-name="Path 2431" d="M445.625,201.626a2.882,2.882,0,0,1-.423-.386,13.628,13.628,0,0,1-.914-1.033,13.142,13.142,0,0,1-.806-1.121,2.861,2.861,0,0,1-.282-.5,4.006,4.006,0,0,1,.344.458c.2.286.491.678.826,1.1s.652.785.886,1.047A3.678,3.678,0,0,1,445.625,201.626Z" transform="translate(-372.413 -166.759)" fill="#e0e0e0"/>
        <path id="Path_2432" data-name="Path 2432" d="M348.63,201.37l2.424-2.99" transform="translate(-294.121 -166.586)" fill="#fff"/>
        <path id="Path_2433" data-name="Path 2433" d="M351.054,198.38a36.462,36.462,0,0,1-2.424,2.99,19.15,19.15,0,0,1,1.172-1.527A18.616,18.616,0,0,1,351.054,198.38Z" transform="translate(-294.121 -166.586)" fill="#e0e0e0"/>
        <path id="Path_2434" data-name="Path 2434" d="M348.65,60.06a17.271,17.271,0,0,1,1.176,1.406,17.008,17.008,0,0,1,1.1,1.468,16.333,16.333,0,0,1-1.181-1.406A16.756,16.756,0,0,1,348.65,60.06Z" transform="translate(-294.138 -52.075)" fill="#e0e0e0"/>
        <rect id="Rectangle_690" data-name="Rectangle 690" width="4.656" height="13.22" transform="translate(61.728 15.156)" fill="#e0e0e0"/>
      </g>
      <g id="freepik--Character--inject-17" transform="translate(59.863 54.038)">
        <path id="Path_2435" data-name="Path 2435" d="M252.2,254.522c-1.177-1.136-3.876-.776-4.467.06a2.066,2.066,0,0,0-2.647,1.078l-2.842.824a3.014,3.014,0,0,0-1.348.649,1.037,1.037,0,0,0-.155,1.363,1.57,1.57,0,0,0-.5,2.549,1.095,1.095,0,0,0,.265,1.57,10.943,10.943,0,0,0-1.646,3.336,2.228,2.228,0,0,0-.045,1.529.89.89,0,0,0,1.277.437,1.286,1.286,0,0,0,.031,1.386c-.487.043-.582.807-.224,1.14a1.786,1.786,0,0,0,1.393.291,2.347,2.347,0,0,1,1.432.15.441.441,0,0,1-.138.318,2,2,0,0,0-.269,2.754l.172.213a4.4,4.4,0,0,0,1.484.9,7.715,7.715,0,0,0,3.033.448c-.284.818,1.832,2.444,4.007.565a44.2,44.2,0,0,0,12.7.88c.675-.043,1.48-.188,1.74-.812a1.673,1.673,0,0,0,1.508-.606,4.945,4.945,0,0,0,.811-1.485,2.942,2.942,0,0,0,1.942-2.787,3.642,3.642,0,0,0,1.2-2.673,2.138,2.138,0,0,0,1.033-2.959,12.888,12.888,0,0,0-1.665-3.888,1.408,1.408,0,0,0,.62-1.985,4.07,4.07,0,0,0-1.8-1.5c.587.117,1.043-.644.861-1.217a2.266,2.266,0,0,0-1.258-1.2,10.879,10.879,0,0,0-2.468-.912,5.218,5.218,0,0,0-2.7-2.461c-3.959-1.568-6.691-1.85-11.361,2.066" transform="translate(-231.015 -250.836)" fill="#263238"/>
        <path id="Path_2436" data-name="Path 2436" d="M381.612,349.507a1.4,1.4,0,0,1,.516-.413h-.043a.687.687,0,0,1,.117-.029.551.551,0,0,1,.437.014h0a1.033,1.033,0,0,1,.6.437,1.215,1.215,0,0,1-.031,1.26.93.93,0,0,1-1.721-.172A1.148,1.148,0,0,1,381.612,349.507Z" transform="translate(-349.157 -331.668)" fill="#455a64"/>
        <path id="Path_2437" data-name="Path 2437" d="M312.706,283.317c-.48-2.628-2.62-5.668-5.224-5.076l-7.989,3.057a1.563,1.563,0,0,0-1.2,1.739l2.369,17.613a4.873,4.873,0,0,0,4.5,4.212h0a4.875,4.875,0,0,0,5.19-5.226c-.091-1.215-.157-2.129-.157-2.122s3.315-.962,3.494-5.458A47.126,47.126,0,0,0,312.706,283.317Z" transform="translate(-280.335 -273.005)" fill="#876760"/>
        <path id="Path_2438" data-name="Path 2438" d="M369.03,327.509a.57.57,0,0,1-.479.635.544.544,0,0,1-.644-.441.57.57,0,0,1,.477-.635.546.546,0,0,1,.646.441Z" transform="translate(-337.979 -313.481)" fill="#263238"/>
        <path id="Path_2439" data-name="Path 2439" d="M368.091,317.163c-.062.081-.528-.186-1.136-.112s-1.019.432-1.095.365c-.036-.029.021-.172.2-.344a1.559,1.559,0,0,1,.861-.382,1.5,1.5,0,0,1,.916.172C368.043,317,368.122,317.125,368.091,317.163Z" transform="translate(-336.279 -304.888)" fill="#263238"/>
        <path id="Path_2440" data-name="Path 2440" d="M337.17,330.689a.57.57,0,0,1-.479.635.544.544,0,0,1-.644-.441.57.57,0,0,1,.477-.635.546.546,0,0,1,.645.441Z" transform="translate(-311.603 -316.114)" fill="#263238"/>
        <path id="Path_2441" data-name="Path 2441" d="M333.4,321.984c-.062.083-.528-.184-1.136-.11s-1.019.432-1.095.365c-.036-.029.019-.172.2-.336a1.573,1.573,0,0,1,.861-.384,1.518,1.518,0,0,1,.916.181C333.35,321.822,333.431,321.948,333.4,321.984Z" transform="translate(-307.56 -308.888)" fill="#263238"/>
        <path id="Path_2442" data-name="Path 2442" d="M355.868,324.757a4.233,4.233,0,0,1,.969-.3c.153-.034.3-.083.31-.193a.8.8,0,0,0-.158-.448l-.6-1.129a20.987,20.987,0,0,1-1.4-2.974,20.669,20.669,0,0,1,1.637,2.854c.2.4.4.776.58,1.139a.9.9,0,0,1,.153.6.389.389,0,0,1-.229.257,1.019,1.019,0,0,1-.258.069A4.19,4.19,0,0,1,355.868,324.757Z" transform="translate(-327.284 -307.404)" fill="#263238"/>
        <path id="Path_2443" data-name="Path 2443" d="M338.205,386.346a11.311,11.311,0,0,1-6.1-.876s1.794,2.861,6.161,1.924Z" transform="translate(-308.347 -361.839)" fill="#664d49"/>
        <path id="Path_2444" data-name="Path 2444" d="M350.3,354.969a1.506,1.506,0,0,0-1.312-.508.983.983,0,0,0-.75.53.952.952,0,0,0,.133.983.938.938,0,0,0,1.033.238,2.239,2.239,0,0,0,.831-.661.688.688,0,0,0,.172-.25.315.315,0,0,0-.06-.306" transform="translate(-321.629 -336.159)" fill="#664d49"/>
        <path id="Path_2445" data-name="Path 2445" d="M349.679,352.668c.1-.017.172.642.8,1.045s1.315.246,1.331.344c.015.041-.141.148-.437.191a1.656,1.656,0,0,1-1.109-.244,1.451,1.451,0,0,1-.627-.881C349.579,352.842,349.635,352.67,349.679,352.668Z" transform="translate(-322.837 -334.684)" fill="#263238"/>
        <path id="Path_2446" data-name="Path 2446" d="M330.757,307.967c-.041.172-.658.172-1.362.344s-1.26.434-1.377.3c-.052-.067.031-.234.244-.422a2.443,2.443,0,0,1,2.083-.484C330.629,307.771,330.776,307.885,330.757,307.967Z" transform="translate(-304.947 -297.408)" fill="#263238"/>
        <path id="Path_2447" data-name="Path 2447" d="M366.154,304.991c-.09.152-.527.057-1.033.11s-.921.2-1.033.071c-.052-.065,0-.212.172-.365a1.508,1.508,0,0,1,1.666-.146C366.123,304.783,366.193,304.911,366.154,304.991Z" transform="translate(-334.805 -294.787)" fill="#263238"/>
        <path id="Path_2448" data-name="Path 2448" d="M333.74,278.2a3.049,3.049,0,0,0-.874-1.854,11.221,11.221,0,0,1-.878-.732,6.409,6.409,0,0,1-.812-2.312,3.358,3.358,0,0,0-2.238-2.1,18.03,18.03,0,0,1-2.6-.482c-.6-.263-1.076-.763-1.689-.99-1.195-.444-2.491.248-3.534.978a2.9,2.9,0,0,0,1.033,2.274,3.11,3.11,0,0,0,2.37,1.074c.689-.01,1.491-.226,2.014.232s.418,1.411.881,1.974c.664.807,2.007.384,2.945.843a4.133,4.133,0,0,1,1.48,1.862c.4.7,1.062,1.41,1.863,1.313A9.086,9.086,0,0,0,333.74,278.2Z" transform="translate(-299.224 -265.912)" fill="#263238"/>
        <path id="Path_2449" data-name="Path 2449" d="M296.059,284.52a15.744,15.744,0,0,0-5.852,1.5,2.88,2.88,0,0,0-1.387,1.115,2.824,2.824,0,0,0-.2,1.56,15.632,15.632,0,0,0,1.7,5.124l2.162,1.088c1.566-.5.632-3.195.454-4.57a3.27,3.27,0,0,0,1.692-3.017A3.615,3.615,0,0,0,296.059,284.52Z" transform="translate(-272.326 -278.266)" fill="#263238"/>
        <path id="Path_2450" data-name="Path 2450" d="M297.72,337.453c-.133-.943-1.312-1.043-2.09-.494a1.789,1.789,0,0,0-.594,1.859,2.025,2.025,0,0,0,2.957,1.692C297.991,340.464,297.875,338.558,297.72,337.453Z" transform="translate(-277.629 -321.401)" fill="#876760"/>
        <path id="Path_2451" data-name="Path 2451" d="M300.429,344.04c-.012,0-.041.04-.115.086a.472.472,0,0,1-.344.052,1.16,1.16,0,0,1-.67-.964,1.574,1.574,0,0,1,.043-.688.542.542,0,0,1,.3-.4.241.241,0,0,1,.293.093c.045.069.034.126.05.127s.052-.052.015-.16a.3.3,0,0,0-.127-.153.356.356,0,0,0-.267-.034.664.664,0,0,0-.432.479,1.61,1.61,0,0,0-.064.766,1.219,1.219,0,0,0,.831,1.066.5.5,0,0,0,.417-.126C300.432,344.1,300.439,344.05,300.429,344.04Z" transform="translate(-281.014 -325.836)" fill="#664d49"/>
        <path id="Path_2452" data-name="Path 2452" d="M297.384,355.752a1.4,1.4,0,0,1,.516-.413h-.041a.942.942,0,0,1,.115-.031.551.551,0,0,1,.437.016h0a1.033,1.033,0,0,1,.6.435,1.215,1.215,0,0,1-.031,1.26.928.928,0,0,1-1.721-.172A1.155,1.155,0,0,1,297.384,355.752Z" transform="translate(-279.427 -336.837)" fill="#455a64"/>
        <path id="Path_2453" data-name="Path 2453" d="M280.593,297.066v.036a.343.343,0,0,1-.029.1.618.618,0,0,1-.289.3,1.655,1.655,0,0,1-.654.188,2.138,2.138,0,0,1-.434,0,1.614,1.614,0,0,1-.48-.107l.031-.019a1.341,1.341,0,0,1-2.066,1.005l.047-.012a.563.563,0,0,1-.336.262.771.771,0,0,1-.437,0,.711.711,0,0,1-.372-.258.945.945,0,0,1-.172-.432,1.377,1.377,0,0,1,.227-.917,3.994,3.994,0,0,1,.658-.742l.009.062a.948.948,0,0,1-.473-.6,1.389,1.389,0,0,1,.019-.8,2.145,2.145,0,0,1,.42-.7,6.613,6.613,0,0,1,.6-.585v.062a1.007,1.007,0,0,1-.322-.761,1.446,1.446,0,0,1,.244-.819,3.589,3.589,0,0,1,1.243-1.01l-.019.048a1.788,1.788,0,0,1,1.775-2.344l-.038.048a1.549,1.549,0,0,1,.267-1.332,1.525,1.525,0,0,1,1.093-.642l-.031.036a1.522,1.522,0,0,1,.516-1.215,1.48,1.48,0,0,1,1.1-.392l-.028.029a1.454,1.454,0,0,1,.172-.706,1.916,1.916,0,0,1,.37-.516,1.549,1.549,0,0,1,.89-.463l.1-.014h.1a1.1,1.1,0,0,1,.172,0,1.647,1.647,0,0,1,.262.053l.155.053a.247.247,0,0,1,.052.021l-.053-.014-.157-.046a1.791,1.791,0,0,0-.269-.045,1.339,1.339,0,0,0-.172,0h-.095l-.1.016a1.531,1.531,0,0,0-.861.465,1.863,1.863,0,0,0-.358.516,1.42,1.42,0,0,0-.158.68v.031h-.029a1.43,1.43,0,0,0-1.055.384,1.454,1.454,0,0,0-.5,1.165v.034h-.034a1.456,1.456,0,0,0-1.033.616,1.477,1.477,0,0,0-.253,1.27l.015.05h-.053a1.711,1.711,0,0,0-1.694,2.238l.01.031-.029.017a3.549,3.549,0,0,0-1.215.985,1.377,1.377,0,0,0-.231.775.926.926,0,0,0,.294.7l.034.031-.034.029a3.156,3.156,0,0,0-.995,1.255,1.3,1.3,0,0,0-.019.751.86.86,0,0,0,.432.558l.048.026-.04.036a4.057,4.057,0,0,0-.647.726,1.305,1.305,0,0,0-.219.861.723.723,0,0,0,.489.635.592.592,0,0,0,.7-.222l.017-.031.028.019a1.306,1.306,0,0,0,1.363.029,1.324,1.324,0,0,0,.623-.985v-.031l.028.012a1.564,1.564,0,0,0,.466.108,2.363,2.363,0,0,0,.427,0,1.628,1.628,0,0,0,.646-.172.63.63,0,0,0,.291-.286A.847.847,0,0,0,280.593,297.066Z" transform="translate(-261.394 -277.711)" fill="#455a64"/>
        <path id="Path_2454" data-name="Path 2454" d="M243.455,288.557a.951.951,0,0,1-.114-.153,1.408,1.408,0,0,1-.181-.516,1.36,1.36,0,0,1,.158-.861,1.436,1.436,0,0,1,.928-.689l-.021.034a1.845,1.845,0,0,1,.146-1.344,1.818,1.818,0,0,1,.484-.6,4.327,4.327,0,0,1,.709-.4,1.479,1.479,0,0,0,.344-.234.924.924,0,0,0,.22-.344c.1-.265.117-.573.248-.861a1.637,1.637,0,0,1,1.577-.931l-.043.048a2.157,2.157,0,0,1,2.205-2.613l-.041.048a1.893,1.893,0,0,1,2.8-2h-.043a2.593,2.593,0,0,1,.9-.64,3.867,3.867,0,0,1,.948-.293,4.528,4.528,0,0,1,1.6-.009,3.194,3.194,0,0,1,.976.324,1.81,1.81,0,0,1,.229.143c.052.034.076.053.076.053a3.544,3.544,0,0,0-.315-.172,3.268,3.268,0,0,0-.973-.3,4.475,4.475,0,0,0-1.584.024,3.827,3.827,0,0,0-.931.294,2.517,2.517,0,0,0-.861.628l-.019.022-.024-.016a1.88,1.88,0,0,0-1.869.038,1.857,1.857,0,0,0-.826,1.869l.009.05h-.052a2.079,2.079,0,0,0-2.122,2.515l.012.053h-.053a1.549,1.549,0,0,0-1.5.883c-.126.269-.143.575-.248.861a.978.978,0,0,1-.241.373,1.53,1.53,0,0,1-.353.246,4.251,4.251,0,0,0-.7.389,1.721,1.721,0,0,0-.47.573,1.792,1.792,0,0,0-.152,1.3l.009.028h-.029a1.386,1.386,0,0,0-.9.658,1.336,1.336,0,0,0-.172.835,1.448,1.448,0,0,0,.172.516C243.416,288.51,243.465,288.555,243.455,288.557Z" transform="translate(-234.697 -271.329)" fill="#455a64"/>
        <path id="Path_2455" data-name="Path 2455" d="M342.114,286.4a.275.275,0,0,1-.026-.22.529.529,0,0,1,.141-.234.943.943,0,0,1,.32-.191,1.584,1.584,0,0,0,.406-.2.842.842,0,0,0,.27-.453,1.613,1.613,0,0,0,.022-.62c-.026-.222-.077-.454-.095-.706a7.2,7.2,0,0,1,.225-1.611,2.269,2.269,0,0,0-.028-.886,1.083,1.083,0,0,0-.542-.719,4.159,4.159,0,0,0-.966-.251,1.59,1.59,0,0,1-.5-.188,1.075,1.075,0,0,1-.37-.4,5.238,5.238,0,0,1-.36-1.033,1.769,1.769,0,0,0-.224-.5.821.821,0,0,0-.425-.329,3,3,0,0,0-.75-.047,1.224,1.224,0,0,1-.382-.067.737.737,0,0,1-.315-.229,2.649,2.649,0,0,1-.332-.666,1.665,1.665,0,0,0-.38-.582,1.625,1.625,0,0,0-1.2-.473,1.668,1.668,0,0,0-1.11.5l-.034.034-.022-.041a2.565,2.565,0,0,0-1.7-1.262,2.356,2.356,0,0,0-.9-.012,2.152,2.152,0,0,0-.723.26,1.894,1.894,0,0,0-.732.778,2.061,2.061,0,0,0-.115.262l-.026.069a.023.023,0,0,1-.012.022.211.211,0,0,1,0-.024l.021-.071a1.685,1.685,0,0,1,.107-.269,1.894,1.894,0,0,1,.73-.8,2.162,2.162,0,0,1,.735-.272,2.421,2.421,0,0,1,.924,0,2.627,2.627,0,0,1,1.747,1.294h-.057a1.738,1.738,0,0,1,1.157-.516,1.7,1.7,0,0,1,1.27.494,1.737,1.737,0,0,1,.4.606,2.6,2.6,0,0,0,.32.645.785.785,0,0,0,.639.265,2.95,2.95,0,0,1,.771.052.9.9,0,0,1,.465.344,1.9,1.9,0,0,1,.234.516,5.31,5.31,0,0,0,.344,1.021,1.012,1.012,0,0,0,.344.374,1.562,1.562,0,0,0,.472.172,4,4,0,0,1,.983.26,1.019,1.019,0,0,1,.377.327,1.33,1.33,0,0,1,.2.442,2.305,2.305,0,0,1,.026.912,7.345,7.345,0,0,0-.236,1.6c.017.246.065.479.089.7a1.661,1.661,0,0,1-.029.637.873.873,0,0,1-.291.473,1.613,1.613,0,0,1-.418.2.886.886,0,0,0-.315.172.516.516,0,0,0-.143.22A.355.355,0,0,0,342.114,286.4Z" transform="translate(-307.617 -270.311)" fill="#455a64"/>
        <path id="Path_2456" data-name="Path 2456" d="M344.055,272.318a.47.47,0,0,1-.031-.048l-.086-.145c-.074-.133-.182-.322-.318-.561s-.3-.549-.516-.88a2.383,2.383,0,0,0-.969-.9c-.225-.1-.482-.162-.744-.255a1.681,1.681,0,0,1-.382-.189.911.911,0,0,1-.3-.331c-.148-.269-.172-.585-.3-.861a.769.769,0,0,0-.284-.344,1.471,1.471,0,0,0-.448-.172,2.8,2.8,0,0,1-.487-.146.861.861,0,0,1-.4-.355,3.964,3.964,0,0,1-.3-1.033,1.293,1.293,0,0,0-.215-.48.677.677,0,0,0-.446-.25c-.358-.046-.73.1-1.128.071a.966.966,0,0,1-.537-.236,2.449,2.449,0,0,1-.374-.435,5.413,5.413,0,0,0-.329-.441,1.05,1.05,0,0,0-.42-.31,1.585,1.585,0,0,0-1.014.083,2.4,2.4,0,0,1-1.014.172,2.755,2.755,0,0,1-.917-.344,4.5,4.5,0,0,0-.821-.382,2.786,2.786,0,0,0-1.6.065,2.954,2.954,0,0,0-1.136.689,3.307,3.307,0,0,0-.6.819,3.913,3.913,0,0,0-.238.6l-.05.16a.3.3,0,0,1-.021.055.192.192,0,0,1,.012-.057c.01-.041.024-.095.043-.164a3.517,3.517,0,0,1,.224-.606,3.271,3.271,0,0,1,.592-.838,3.005,3.005,0,0,1,1.15-.716,2.835,2.835,0,0,1,1.635-.076,4.614,4.614,0,0,1,.837.384,2.7,2.7,0,0,0,.892.327,2.3,2.3,0,0,0,.981-.162,3.2,3.2,0,0,1,.516-.129,1.033,1.033,0,0,1,1,.377,4.96,4.96,0,0,1,.334.448,2.41,2.41,0,0,0,.356.423.875.875,0,0,0,.491.217c.37.033.74-.119,1.131-.071a.754.754,0,0,1,.5.281,1.358,1.358,0,0,1,.229.516,4.034,4.034,0,0,0,.294,1.005.8.8,0,0,0,.36.324,2.753,2.753,0,0,0,.475.145,1.505,1.505,0,0,1,.468.172.847.847,0,0,1,.312.38c.126.3.151.611.291.861a1.1,1.1,0,0,0,.644.491c.255.093.516.155.745.262a2.423,2.423,0,0,1,.983.926c.219.336.374.644.516.89l.306.568.077.15A.31.31,0,0,1,344.055,272.318Z" transform="translate(-304.647 -260.774)" fill="#455a64"/>
        <path id="Path_2457" data-name="Path 2457" d="M384.031,300.075l.048-.012a.31.31,0,0,1,.146.021.575.575,0,0,1,.3.456,1.39,1.39,0,0,1-.028.406,1.669,1.669,0,0,0-.036.47,1.046,1.046,0,0,0,.226.482c.117.155.26.3.382.489a.769.769,0,0,1,.115.671c-.069.234-.22.439-.284.676a1,1,0,0,0,.126.733c.124.239.291.466.413.732a1.2,1.2,0,0,1,.117.429,1.071,1.071,0,0,1-.069.453,5.2,5.2,0,0,1-.454.8,1.242,1.242,0,0,0-.222.873,4.122,4.122,0,0,0,.391.881,1.377,1.377,0,0,1,.136.487,1.091,1.091,0,0,1-.091.492,4.054,4.054,0,0,1-.516.8,2.167,2.167,0,0,0-.413.794,6.594,6.594,0,0,1-.219.861.971.971,0,0,1-.248.36,1.224,1.224,0,0,1-.367.21,3.68,3.68,0,0,0-.361.16,1.354,1.354,0,0,0-.3.234,2.773,2.773,0,0,0-.4.608c-.108.208-.208.413-.325.6a1.842,1.842,0,0,1-.885.757,2,2,0,0,1-.871.148,1.76,1.76,0,0,1-.547-.117,1.437,1.437,0,0,1-.172-.086,2,2,0,0,0,.725.172,1.961,1.961,0,0,0,.861-.158,1.8,1.8,0,0,0,.861-.745c.112-.182.21-.386.317-.6a2.863,2.863,0,0,1,.4-.625,1.423,1.423,0,0,1,.312-.248,3.214,3.214,0,0,1,.368-.172,1.2,1.2,0,0,0,.344-.2.908.908,0,0,0,.227-.334,6.927,6.927,0,0,0,.212-.847,2.237,2.237,0,0,1,.425-.823,4.132,4.132,0,0,0,.516-.785,1.032,1.032,0,0,0,.084-.456,1.333,1.333,0,0,0-.129-.458,3.986,3.986,0,0,1-.4-.9,1.033,1.033,0,0,1,.029-.492,1.962,1.962,0,0,1,.2-.434,5.309,5.309,0,0,0,.449-.79,1.011,1.011,0,0,0,.067-.42,1.18,1.18,0,0,0-.11-.4c-.117-.256-.282-.484-.408-.728a1.083,1.083,0,0,1-.129-.785c.072-.255.225-.456.291-.678a.707.707,0,0,0-.1-.621c-.114-.172-.257-.33-.374-.489a1.066,1.066,0,0,1-.229-.516,1.722,1.722,0,0,1,.041-.482,1.357,1.357,0,0,0,.036-.394.566.566,0,0,0-.277-.446A.344.344,0,0,0,384.031,300.075Z" transform="translate(-347.688 -291.132)" fill="#455a64"/>
        <path id="Path_2458" data-name="Path 2458" d="M238.027,276.949a1.108,1.108,0,0,1-.213,0,1.48,1.48,0,0,1-.584-.2,1.442,1.442,0,0,1-.625-.751,1.511,1.511,0,0,1,.126-1.284,3.746,3.746,0,0,1,.5-.59,1.812,1.812,0,0,0,.454-.676,1.181,1.181,0,0,0-.1-.85c-.124-.281-.3-.549-.423-.861a2.64,2.64,0,0,1,1.735-3.5l-.021.064a1.313,1.313,0,0,1-.275-.57,1.678,1.678,0,0,1,0-.642,1.894,1.894,0,0,1,.225-.609,2.163,2.163,0,0,1,.422-.506,4.166,4.166,0,0,1,1.721-.845,6.348,6.348,0,0,1,1.8-.213l-.04.041a1.913,1.913,0,0,1,.936-1.73,1.948,1.948,0,0,1,.931-.251,3.1,3.1,0,0,1,.9.172,1.787,1.787,0,0,0,.42.064,1.082,1.082,0,0,0,.4-.072,3.314,3.314,0,0,0,.689-.4,2.833,2.833,0,0,1,.656-.361,2.286,2.286,0,0,1,.673-.141,2.262,2.262,0,0,1,1.138.22,2.356,2.356,0,0,1,.689.516,2.3,2.3,0,0,1,.317.442,1.266,1.266,0,0,1,.079.172s-.029-.057-.091-.162a2.343,2.343,0,0,0-1.017-.933,2.3,2.3,0,0,0-1.775-.062,2.829,2.829,0,0,0-.64.358,3.36,3.36,0,0,1-.689.41,1.126,1.126,0,0,1-.423.077,1.877,1.877,0,0,1-.437-.064,3.1,3.1,0,0,0-.881-.162,1.893,1.893,0,0,0-.893.244,1.837,1.837,0,0,0-.914,1.664V265h-.043a6.23,6.23,0,0,0-1.776.212,4.094,4.094,0,0,0-1.68.828,2.11,2.11,0,0,0-.406.487,1.781,1.781,0,0,0-.215.568,1.577,1.577,0,0,0,0,.609,1.243,1.243,0,0,0,.258.535l.04.048-.06.017a2.57,2.57,0,0,0-1.69,3.4c.117.3.293.573.42.861a1.26,1.26,0,0,1,.1.9,1.856,1.856,0,0,1-.473.689,3.768,3.768,0,0,0-.492.58,1.472,1.472,0,0,0-.133,1.243,1.425,1.425,0,0,0,.6.74,1.522,1.522,0,0,0,.571.21C237.955,276.947,238.027,276.944,238.027,276.949Z" transform="translate(-229.209 -259.812)" fill="#263238"/>
        <path id="Path_2459" data-name="Path 2459" d="M335.8,255.212a.252.252,0,0,1-.012-.052q-.01-.057-.026-.15c-.022-.136-.055-.329-.1-.575s-.1-.554-.2-.9a5.229,5.229,0,0,0-.441-1.133,3.47,3.47,0,0,0-.943-1.114,2.559,2.559,0,0,0-.721-.374,7.66,7.66,0,0,0-.852-.172,2.42,2.42,0,0,1-.874-.313,3.8,3.8,0,0,1-.735-.63c-.227-.236-.446-.487-.689-.709a2.753,2.753,0,0,0-.85-.535,4.87,4.87,0,0,0-1.983-.275,12.415,12.415,0,0,0-1.856.22,9.567,9.567,0,0,0-2.974,1.071,6.814,6.814,0,0,0-1.665,1.334c-.083.095-.16.172-.22.253s-.107.141-.148.2-.071.089-.093.12a.19.19,0,0,1-.034.04s0-.016.028-.045l.086-.124.143-.2c.059-.077.134-.162.215-.26a6.677,6.677,0,0,1,1.659-1.362,9.49,9.49,0,0,1,2.988-1.095,12.562,12.562,0,0,1,1.871-.225,4.911,4.911,0,0,1,2.005.274,2.8,2.8,0,0,1,.873.551c.255.227.473.48.7.714a3.846,3.846,0,0,0,.718.62,2.41,2.41,0,0,0,.849.3,7.619,7.619,0,0,1,.861.184,2.6,2.6,0,0,1,.738.389,3.475,3.475,0,0,1,.954,1.139,5.2,5.2,0,0,1,.434,1.148,8.934,8.934,0,0,1,.184.907c.04.25.065.448.083.58a1,1,0,0,0,.017.151C335.8,255.2,335.8,255.212,335.8,255.212Z" transform="translate(-298.645 -248.186)" fill="#263238"/>
        <path id="Path_2460" data-name="Path 2460" d="M249.093,415.3l-.344-8.684s-.644-1.8-.861-1.8l-6.754-2.307s-2.308,2.542-5.031,2.257a9.4,9.4,0,0,1-4.935-2.513l-7.519,1.8h0a4,4,0,0,0-2.489,1.811c-1.059,1.515-6.639,9.4-6.639,9.4" transform="translate(-210.998 -375.731)" fill="#455a64"/>
        <path id="Path_2461" data-name="Path 2461" d="M400.417,416.85s2.754.878,3.814,2.472,4.348,8.09,4.348,8.09h-7.2l-2.453-8.235Z" transform="translate(-363.665 -387.818)" fill="#455a64"/>
        <path id="Path_2462" data-name="Path 2462" d="M402.918,444.934a1.973,1.973,0,0,1,0-.287,5.245,5.245,0,0,0-.093-.776,13.254,13.254,0,0,0-.783-2.461c-.379-.938-.78-1.763-1.069-2.36-.141-.289-.26-.527-.344-.706l-.091-.193a.285.285,0,0,1-.028-.071.247.247,0,0,1,.041.064l.107.186c.091.162.219.4.37.689.3.59.713,1.413,1.095,2.355a12.085,12.085,0,0,1,.763,2.482,4.453,4.453,0,0,1,.069.787,1.95,1.95,0,0,1-.017.213A.3.3,0,0,1,402.918,444.934Z" transform="translate(-364.973 -405.393)" fill="#263238"/>
        <path id="Path_2463" data-name="Path 2463" d="M207.212,378.2a13.138,13.138,0,0,1,.516-2.582s-1.782-2.754-1.828-3.651a9.282,9.282,0,0,1,.7-2.718L211.716,368a36.912,36.912,0,0,1,1.971,3.918c.327,1.024-.563,4.5-.563,4.5l-.861,1.781S209.647,380.156,207.212,378.2Z" transform="translate(-203.86 -347.376)" fill="#876760"/>
        <path id="Path_2464" data-name="Path 2464" d="M201.46,343.875a10.219,10.219,0,0,1-.539-1.078c-.324-.728-.721-1.442,0-1.85a.99.99,0,0,1,.771-.115s-.11-.613.275-.843a.871.871,0,0,1,.757-.064,1.376,1.376,0,0,1,.434-1.231,1.41,1.41,0,0,1,1.417-.04s-.441-3.787-.479-3.988c-.139-.737.148-1.387.919-1.2.282.067.441.344.771,1.584s.861,3.339.861,3.339.9,1.48,1.322,2.284a18.93,18.93,0,0,1,1.332,3.117,6.36,6.36,0,0,1-.592,2.911l-5.436.3S201.663,344.234,201.46,343.875Z" transform="translate(-199.405 -318.757)" fill="#876760"/>
        <path id="Path_2465" data-name="Path 2465" d="M203.71,377.38a4.114,4.114,0,0,1,.422.558l.429.62a2.423,2.423,0,0,1,.234.389.754.754,0,0,1,.064.491.5.5,0,0,1-.344.382.7.7,0,0,1-.487-.057,2.083,2.083,0,0,1-.363-.213c-.107-.072-.2-.141-.293-.208-.172-.131-.313-.243-.406-.322a.7.7,0,0,1-.134-.134c.012-.012.227.151.589.4a4.95,4.95,0,0,0,.651.391.616.616,0,0,0,.41.048.4.4,0,0,0,.274-.3.654.654,0,0,0-.057-.427,2.539,2.539,0,0,0-.219-.377l-.413-.633A4.41,4.41,0,0,1,203.71,377.38Z" transform="translate(-201.32 -355.142)" fill="#664d49"/>
        <path id="Path_2466" data-name="Path 2466" d="M233.716,372.514a2.264,2.264,0,0,1,.4-1.556c.031.014-.122.344-.229.771S233.744,372.514,233.716,372.514Z" transform="translate(-226.869 -349.825)" fill="#664d49"/>
        <path id="Path_2467" data-name="Path 2467" d="M220.336,381.526a3.665,3.665,0,0,0-1.818-.9,7.194,7.194,0,0,0-2.066-.076,1.723,1.723,0,0,0-1.436.654,1.1,1.1,0,0,0,.544,1.377,2.921,2.921,0,0,0,1.665.239,7.286,7.286,0,0,1,1.708-.065" transform="translate(-211.335 -357.732)" fill="#876760"/>
        <path id="Path_2468" data-name="Path 2468" d="M218.58,382.528s-.153-.014-.429-.01-.671.048-1.164.1a5.374,5.374,0,0,1-.816.033,2.337,2.337,0,0,1-.916-.219,1.352,1.352,0,0,1-.689-.75.963.963,0,0,1-.04-.537.914.914,0,0,1,.3-.478,2.015,2.015,0,0,1,1.045-.384,9.449,9.449,0,0,1,1.033-.06,5.5,5.5,0,0,1,1.721.25,3.511,3.511,0,0,1,1.033.53,2.2,2.2,0,0,1,.238.2.452.452,0,0,1,.072.081c0,.009-.114-.1-.336-.251a3.714,3.714,0,0,0-1.033-.492,5.6,5.6,0,0,0-1.7-.222,10.066,10.066,0,0,0-1.017.065,1.913,1.913,0,0,0-.983.36.8.8,0,0,0-.265.42.876.876,0,0,0,.033.48,1.268,1.268,0,0,0,.623.7,2.271,2.271,0,0,0,.873.217,5.278,5.278,0,0,0,.8-.021,9.9,9.9,0,0,1,1.172-.071,3.09,3.09,0,0,1,.32.028.437.437,0,0,1,.124.026Z" transform="translate(-210.988 -357.498)" fill="#664d49"/>
        <path id="Path_2469" data-name="Path 2469" d="M208.17,376.346a29.79,29.79,0,0,1,1.559,2.606,1.62,1.62,0,0,0,.546.673c.207.12.718-.1.947-.172l-1.57-3.393" transform="translate(-205.741 -354.049)" fill="#876760"/>
        <path id="Path_2470" data-name="Path 2470" d="M209.635,376.06a1.7,1.7,0,0,1,.139.253l.344.711c.291.6.689,1.449,1.134,2.41l.024.053-.059.019a5.535,5.535,0,0,1-.547.172,1.213,1.213,0,0,1-.239.034.484.484,0,0,1-.129-.014.33.33,0,0,1-.119-.055,1.191,1.191,0,0,1-.317-.32c-.16-.241-.274-.482-.4-.707-.246-.451-.472-.861-.668-1.189s-.361-.606-.475-.79a2.159,2.159,0,0,1-.172-.293,1.8,1.8,0,0,1,.21.27c.126.172.3.442.516.775s.439.733.689,1.181c.131.222.25.468.4.689a1.057,1.057,0,0,0,.287.293.5.5,0,0,0,.394.017c.186-.045.363-.114.539-.172l-.033.072c-.442-.959-.828-1.809-1.1-2.42l-.315-.725A1.415,1.415,0,0,1,209.635,376.06Z" transform="translate(-205.725 -354.049)" fill="#664d49"/>
        <path id="Path_2471" data-name="Path 2471" d="M214.32,367.056l1.513,3.6a2.459,2.459,0,0,0,.408.723.9.9,0,0,0,.763.315.861.861,0,0,0,.671-.831,2.608,2.608,0,0,0-.282-1.093,21.884,21.884,0,0,1-1.086-3.374" transform="translate(-210.833 -346.052)" fill="#876760"/>
        <path id="Path_2472" data-name="Path 2472" d="M216.315,366.4a.487.487,0,0,1,.038.11l.09.318c.079.277.193.677.353,1.165s.367,1.064.627,1.694a3.405,3.405,0,0,1,.317,1.033,1.064,1.064,0,0,1-.114.572.861.861,0,0,1-.456.423.8.8,0,0,1-.635-.048,1.186,1.186,0,0,1-.448-.4,6.371,6.371,0,0,1-.458-.979l-.689-1.677c-.189-.468-.344-.852-.456-1.133l-.119-.312a.461.461,0,0,1-.034-.11.474.474,0,0,1,.055.1l.139.3.489,1.121.714,1.666a6.3,6.3,0,0,0,.454.959,1.053,1.053,0,0,0,.4.361.689.689,0,0,0,.542.045.763.763,0,0,0,.4-.37.962.962,0,0,0,.1-.516,3.3,3.3,0,0,0-.3-1c-.256-.633-.456-1.215-.606-1.709s-.253-.9-.318-1.176c-.031-.141-.055-.25-.069-.324A.481.481,0,0,1,216.315,366.4Z" transform="translate(-210.841 -346.052)" fill="#664d49"/>
        <path id="Path_2473" data-name="Path 2473" d="M197.664,416.181s-3.468,9.7-3.6,10.176h6.816l2.5-10.827Z" transform="translate(-194.06 -386.725)" fill="#876760"/>
        <path id="Path_2474" data-name="Path 2474" d="M227.22,404.092a.69.69,0,0,1-.327-.041,1.831,1.831,0,0,1-.689-.377,1.722,1.722,0,0,1-.456-.62.6.6,0,0,1-.071-.3,2.765,2.765,0,0,0,.6.845A3.336,3.336,0,0,0,227.22,404.092Z" transform="translate(-220.235 -376.144)" fill="#664d49"/>
        <path id="Path_2475" data-name="Path 2475" d="M268.571,453c.022.012-.472.981-1.1,2.164s-1.158,2.133-1.181,2.121.472-.979,1.1-2.164S268.548,453,268.571,453Z" transform="translate(-253.853 -417.745)" fill="#263238"/>
      </g>
      <g id="freepik--light-bulb--inject-17" transform="translate(46.742 25.477)">
        <path id="Path_2476" data-name="Path 2476" d="M141.791,96.18a12.049,12.049,0,1,0-18.649,8.119c-.22,1.41-.468,3-.468,3l10.429,1.627s.325-1.675.584-3.176A12.049,12.049,0,0,0,141.791,96.18Z" transform="translate(-117.836 -82.264)" fill="#ff735d"/>
        <path id="Path_2477" data-name="Path 2477" d="M166.61,162.925v-.15c0-.1.01-.25.019-.441.017-.387.05-.959.1-1.694.105-1.468.291-3.594.673-6.2q.139-.979.322-2.043.093-.53.191-1.083a3.756,3.756,0,0,1,.315-1.1,1.27,1.27,0,0,1,.389-.451.781.781,0,0,1,.59-.146.725.725,0,0,1,.48.387,1.133,1.133,0,0,1,.127.615,1.4,1.4,0,0,1-.689,1.033,2.107,2.107,0,0,1-1.255.312,2.286,2.286,0,0,1-1.243-.46,2.41,2.41,0,0,1-.783-1.1,2.885,2.885,0,0,1-.151-1.377,2.1,2.1,0,0,1,.2-.689,1,1,0,0,1,.516-.516.649.649,0,0,1,.375-.017.815.815,0,0,1,.329.172,1.162,1.162,0,0,1,.363.639,2.5,2.5,0,0,1,.036.733,6.993,6.993,0,0,1-.1.73,4.956,4.956,0,0,1-.466,1.41,2.73,2.73,0,0,1-1.007,1.114,2.2,2.2,0,0,1-.711.277,1.689,1.689,0,0,1-.759-.028,1.59,1.59,0,0,1-.651-.384,2.065,2.065,0,0,1-.425-.614,4.538,4.538,0,0,1-.353-1.422c-.028-.241-.043-.48-.052-.72a4.393,4.393,0,0,1,.012-.721,1.191,1.191,0,0,1,.284-.663.778.778,0,0,1,.3-.208.516.516,0,0,1,.37,0,.632.632,0,0,1,.282.236,1.232,1.232,0,0,1,.151.324,2.364,2.364,0,0,1,.1.689,4.037,4.037,0,0,1-.742,2.546,2.582,2.582,0,0,1-1.022.794,1.928,1.928,0,0,1-1.251.112,1.676,1.676,0,0,1-.969-.737,1.893,1.893,0,0,1-.31-1.143,1.583,1.583,0,0,1,.139-.57.873.873,0,0,1,.392-.425.448.448,0,0,1,.54.129,1.057,1.057,0,0,1,.2.516,4.332,4.332,0,0,1-.041,1.06q-.053.516-.1,1.005c-.275,2.618-.539,4.734-.745,6.2-.1.73-.195,1.294-.258,1.677-.033.189-.059.334-.076.436s-.029.146-.029.146a.88.88,0,0,1,.019-.148c.019-.1.04-.246.069-.436.059-.384.143-.948.241-1.678.2-1.46.451-3.575.72-6.2q.048-.491.1-1.005a4.3,4.3,0,0,0,.038-1.043.978.978,0,0,0-.184-.485.379.379,0,0,0-.46-.11.811.811,0,0,0-.356.392,1.493,1.493,0,0,0-.131.542,1.829,1.829,0,0,0,.3,1.1,1.589,1.589,0,0,0,.926.7,1.859,1.859,0,0,0,1.2-.11,2.481,2.481,0,0,0,.99-.771,4,4,0,0,0,.721-2.492,2.275,2.275,0,0,0-.095-.666.759.759,0,0,0-.386-.506.516.516,0,0,0-.58.172,1.1,1.1,0,0,0-.262.618,4.009,4.009,0,0,0-.012.706,6.644,6.644,0,0,0,.05.714,4.428,4.428,0,0,0,.344,1.393,1.913,1.913,0,0,0,.406.59,1.5,1.5,0,0,0,.615.361,1.8,1.8,0,0,0,1.4-.239,2.659,2.659,0,0,0,.974-1.081,4.885,4.885,0,0,0,.46-1.377,3.9,3.9,0,0,0,.062-1.429,1.071,1.071,0,0,0-.334-.592.615.615,0,0,0-.62-.145.911.911,0,0,0-.465.466,2.03,2.03,0,0,0-.193.656,2.8,2.8,0,0,0,.146,1.339,2.315,2.315,0,0,0,.764,1.064,2.2,2.2,0,0,0,1.2.446,2.066,2.066,0,0,0,1.2-.3,1.334,1.334,0,0,0,.652-.979,1.071,1.071,0,0,0-.117-.571.659.659,0,0,0-.429-.344.7.7,0,0,0-.534.134,1.184,1.184,0,0,0-.368.425,3.682,3.682,0,0,0-.31,1.081c-.067.368-.131.728-.195,1.083-.122.707-.231,1.389-.327,2.04-.389,2.6-.584,4.727-.7,6.2-.057.735-.093,1.3-.117,1.692-.012.193-.021.344-.028.441A.9.9,0,0,1,166.61,162.925Z" transform="translate(-152.911 -136.507)" fill="#fff"/>
        <g id="freepik--2ggvdetif--inject-17" transform="translate(6.106 34.563)">
          <path id="Path_2478" data-name="Path 2478" d="M153.31,283.06a3.654,3.654,0,0,1,.652.788.787.787,0,0,0,.568.389l2.331.361a.8.8,0,0,0,.706-.244,1.483,1.483,0,0,1,.893-.5Z" transform="translate(-153.31 -283.06)" fill="#263238"/>
        </g>
        <path id="Path_2479" data-name="Path 2479" d="M144.31,243.1c0,.046-.033,3.77-.041,5.193a1.737,1.737,0,0,0,.759,1.468,1.589,1.589,0,0,0,.64.248l5.1.79s1.331.207,1.8-.8c.491-1.064,1.77-5.336,1.77-5.336Z" transform="translate(-139.718 -215.415)" fill="#e0e0e0"/>
        <path id="Path_2480" data-name="Path 2480" d="M.253,0H.281A.256.256,0,0,1,.537.258V9.242A.255.255,0,0,1,.282,9.5H.255A.255.255,0,0,1,0,9.242V.256A.256.256,0,0,1,.256,0Z" transform="translate(4.108 32.76) rotate(-81.38)" fill="#e0e0e0"/>
        <path id="Path_2481" data-name="Path 2481" d="M150.773,271.417a.3.3,0,0,0,.184-.053.26.26,0,0,0,.1-.2.244.244,0,0,0-.151-.246c-.482-.081-1.2-.172-2.078-.306l-6.863-1.033a.213.213,0,0,0-.189.069.222.222,0,0,0-.048.091.344.344,0,0,0-.009.108.215.215,0,0,0,.119.16,1.306,1.306,0,0,0,.231.045l.964.146,1.821.279,3.083.491,2.078.329.565.093.146.028.048.012h-.05l-.148-.019-.566-.077-2.081-.3-3.086-.458-1.823-.274-.964-.145-.122-.019a.463.463,0,0,1-.133-.033.3.3,0,0,1-.172-.227.381.381,0,0,1,.01-.141.3.3,0,0,1,.344-.225l6.859,1.052c.878.141,1.585.243,2.079.344a.272.272,0,0,1,.172.281.279.279,0,0,1-.115.213A.232.232,0,0,1,150.773,271.417Z" transform="translate(-137.531 -237.272)" fill="#263238"/>
        <path id="Path_2482" data-name="Path 2482" d="M.256,0H.284A.255.255,0,0,1,.539.255V9.619a.256.256,0,0,1-.256.256H.255A.255.255,0,0,1,0,9.62V.256A.256.256,0,0,1,.256,0Z" transform="translate(4.097 31.589) rotate(-81.38)" fill="#e0e0e0"/>
        <path id="Path_2483" data-name="Path 2483" d="M151.115,264.643a.289.289,0,0,0,.189-.059.265.265,0,0,0,.095-.213.241.241,0,0,0-.172-.239l-2.16-.315-7.13-1.067a.21.21,0,0,0-.195.074.207.207,0,0,0-.045.1.257.257,0,0,0,0,.114.213.213,0,0,0,.138.153c.069.017.172.028.246.041l1,.152,1.893.289,3.2.5,2.157.344.587.1.151.028a.19.19,0,0,1,.052.014.41.41,0,0,1-.053,0l-.153-.017-.589-.081-2.162-.315-3.217-.475-1.893-.286-1-.15c-.088-.016-.164-.021-.262-.045a.3.3,0,0,1-.194-.217.356.356,0,0,1,0-.148.284.284,0,0,1,.064-.136.3.3,0,0,1,.275-.1l7.125,1.086c.912.143,1.647.256,2.16.344a.27.27,0,0,1,.2.272.288.288,0,0,1-.11.227.229.229,0,0,1-.2.041Z" transform="translate(-137.505 -231.615)" fill="#263238"/>
        <path id="Path_2484" data-name="Path 2484" d="M.253,0H.281A.256.256,0,0,1,.537.256V9.863a.255.255,0,0,1-.255.255H.255A.255.255,0,0,1,0,9.863V.256A.255.255,0,0,1,.253,0Z" transform="translate(4.156 30.422) rotate(-81.38)" fill="#e0e0e0"/>
        <path id="Path_2485" data-name="Path 2485" d="M151.724,257.87a.282.282,0,0,0,.193-.06.272.272,0,0,0,.091-.22.241.241,0,0,0-.2-.234l-2.214-.32-7.3-1.095a.214.214,0,0,0-.2.079.217.217,0,0,0-.045.1.251.251,0,0,0,0,.114.21.21,0,0,0,.15.148c.077.015.172.028.256.041l1.024.155,1.938.3,3.271.506,2.208.344.6.1.155.028.053.012h-.053l-.158-.019-.6-.083-2.21-.32-3.271-.489-1.938-.291-1.024-.153c-.09-.016-.172-.024-.267-.043a.3.3,0,0,1-.21-.208.344.344,0,0,1,0-.151.306.306,0,0,1,.062-.141.3.3,0,0,1,.281-.112l7.295,1.119,2.21.344a.269.269,0,0,1,.215.265.293.293,0,0,1-.1.236A.231.231,0,0,1,151.724,257.87Z" transform="translate(-137.817 -225.972)" fill="#263238"/>
        <path id="Path_2486" data-name="Path 2486" d="M.256,0H.284A.255.255,0,0,1,.539.255v10a.255.255,0,0,1-.255.255H.256A.256.256,0,0,1,0,10.25V.256A.255.255,0,0,1,.255,0Z" transform="translate(4.142 29.25) rotate(-81.38)" fill="#e0e0e0"/>
        <path id="Path_2487" data-name="Path 2487" d="M151.947,251.124a.262.262,0,0,0,.284-.3.241.241,0,0,0-.225-.22l-2.3-.334-7.574-1.134a.212.212,0,0,0-.2.084.269.269,0,0,0-.033.225.222.222,0,0,0,.172.138l.27.04,1.064.162,2.009.308,3.4.525,2.293.362.623.1.16.029.055.012a.172.172,0,0,1-.055,0l-.172-.021-.625-.086-2.3-.334-3.4-.506-2.009-.3-1.064-.16-.272-.041a.3.3,0,0,1-.238-.193.312.312,0,0,1-.014-.158.327.327,0,0,1,.057-.148.3.3,0,0,1,.287-.119l7.574,1.158,2.293.361a.272.272,0,0,1,.246.253.3.3,0,0,1-.1.248.246.246,0,0,1-.155.059A.134.134,0,0,1,151.947,251.124Z" transform="translate(-137.67 -220.342)" fill="#263238"/>
        <path id="Path_2488" data-name="Path 2488" d="M139.068,216.51c-.016.095-.151,2.355-.22,3.517a1.392,1.392,0,0,0,.465,1.124l.468.417,9.853,1.529.565-.251a1.4,1.4,0,0,0,.787-.945l.828-3.412Z" transform="translate(-135.229 -193.402)" fill="#ff735d"/>
        <g id="Group_2365" data-name="Group 2365" transform="translate(4.695 32.832)" opacity="0.3">
          <path id="Path_2489" data-name="Path 2489" d="M145.11,273a13.2,13.2,0,0,0,2.9.689c.842.126,1.663.277,2.582.4.671.091,1.291.151,1.962.227a1.858,1.858,0,0,0,.8-.048Z" transform="translate(-145.11 -273)"/>
        </g>
        <g id="Group_2366" data-name="Group 2366" transform="translate(4.521 31.627)" opacity="0.3">
          <path id="Path_2490" data-name="Path 2490" d="M144.1,266a15.011,15.011,0,0,0,3.131.72c.907.138,1.794.3,2.78.432.723.1,1.393.172,2.117.25a2.1,2.1,0,0,0,.861-.038Z" transform="translate(-144.1 -266)"/>
        </g>
        <g id="Group_2367" data-name="Group 2367" transform="translate(4.698 30.484)" opacity="0.3">
          <path id="Path_2491" data-name="Path 2491" d="M145.13,259.36a15.014,15.014,0,0,0,3.131.72c.907.138,1.792.3,2.78.432.723.1,1.393.172,2.115.25a2.1,2.1,0,0,0,.861-.038Z" transform="translate(-145.13 -259.36)"/>
        </g>
        <g id="Group_2368" data-name="Group 2368" transform="translate(4.874 29.346)" opacity="0.3">
          <path id="Path_2492" data-name="Path 2492" d="M146.15,252.75a15.011,15.011,0,0,0,3.131.719c.907.138,1.794.3,2.78.432.725.1,1.393.172,2.117.25a2.1,2.1,0,0,0,.861-.038Z" transform="translate(-146.15 -252.75)"/>
        </g>
        <path id="Path_2493" data-name="Path 2493" d="M128.11,149.215a1.039,1.039,0,0,1-.133-.069c-.083-.048-.212-.114-.367-.213a10.517,10.517,0,0,1-1.267-.917,11.241,11.241,0,0,1-3.876-6.83,11.266,11.266,0,0,1-.129-2.319,10.543,10.543,0,0,1,.184-1.549c.031-.172.071-.32.093-.415a1.287,1.287,0,0,1,.038-.143.689.689,0,0,1-.022.146c-.014.1-.048.236-.076.418a11.843,11.843,0,0,0-.155,1.549,11.353,11.353,0,0,0,3.983,9.094,11.906,11.906,0,0,0,1.244.936c.153.1.277.172.358.227a.847.847,0,0,1,.124.084Z" transform="translate(-121.553 -127.379)" fill="#263238"/>
        <path id="Path_2494" data-name="Path 2494" d="M126.91,124.05a4.5,4.5,0,0,1-.48,1.15,2.237,2.237,0,0,1,.2-.592A2.383,2.383,0,0,1,126.91,124.05Z" transform="translate(-124.951 -116.857)" fill="#263238"/>
        <path id="Path_2495" data-name="Path 2495" d="M237.737,121.291a.587.587,0,0,1,.038-.122c.031-.088.074-.2.126-.344l.095-.248c.031-.091.057-.193.09-.3.062-.217.148-.46.2-.738.029-.139.062-.284.1-.435s.048-.312.076-.477c.059-.329.077-.689.108-1.059a11.626,11.626,0,0,0-.763-4.785c-.146-.344-.274-.678-.434-.973-.076-.148-.141-.3-.219-.429l-.227-.384c-.138-.25-.294-.453-.42-.64-.065-.093-.122-.172-.181-.258l-.172-.207c-.095-.119-.172-.215-.227-.287a.849.849,0,0,1-.074-.1.584.584,0,0,1,.088.091l.241.279c.052.06.108.129.172.2s.119.172.186.255a7.5,7.5,0,0,1,.432.637c.076.122.153.25.234.384s.146.281.225.429c.162.294.294.63.442.978a11.361,11.361,0,0,1,.768,4.82,10.674,10.674,0,0,1-.117,1.065c-.029.172-.046.327-.081.48l-.1.435a7.16,7.16,0,0,1-.213.74c-.034.107-.064.208-.1.3l-.1.246c-.059.141-.107.253-.143.344A1.13,1.13,0,0,1,237.737,121.291Z" transform="translate(-215.536 -104.812)" fill="#263238"/>
        <g id="Group_2369" data-name="Group 2369" transform="translate(2.359 1.814)" opacity="0.2">
          <path id="Path_2496" data-name="Path 2496" d="M142.1,94.427a2.144,2.144,0,0,0-1.251-1.281,3.787,3.787,0,0,0-2.859-.124,9.135,9.135,0,0,0-5.8,5.093,5.536,5.536,0,0,0-.525,3.549,1.954,1.954,0,0,0,1.009,1.2c1.282.6,2.553-.54,3.164-1.721.568-1.1.912-2.393,1.88-3.171a12,12,0,0,1,2.8-1.215C141.448,96.348,142.34,95.416,142.1,94.427Z" transform="translate(-131.542 -92.8)" fill="#fff"/>
        </g>
        <g id="Group_2370" data-name="Group 2370" transform="translate(14.333 2.552)" opacity="0.2">
          <path id="Path_2497" data-name="Path 2497" d="M204.526,98.257a1.917,1.917,0,0,0-2.066-1.126A1.964,1.964,0,0,0,201.2,98.3a1.8,1.8,0,0,0,.5,1.945,1.7,1.7,0,0,0,1.99.117A2.066,2.066,0,0,0,204.526,98.257Z" transform="translate(-201.101 -97.09)" fill="#fff"/>
        </g>
        <path id="Path_2498" data-name="Path 2498" d="M139.068,216.51c-.016.095-.151,2.355-.22,3.517a1.392,1.392,0,0,0,.465,1.124l.468.417,9.853,1.529.565-.251a1.4,1.4,0,0,0,.787-.945l.828-3.412Z" transform="translate(-135.229 -193.402)" opacity="0.3"/>
        <path id="Path_2499" data-name="Path 2499" d="M153.267,218.535c0,.024-2.864-.4-6.388-.947s-6.379-1.009-6.369-1.033,2.864.4,6.39.947S153.27,218.511,153.267,218.535Z" transform="translate(-136.607 -193.439)" fill="#263238"/>
        <path id="Path_2500" data-name="Path 2500" d="M150.922,241.571c0,.024-2.642-.367-5.892-.871s-5.883-.931-5.88-.955,2.641.365,5.892.869S150.926,241.547,150.922,241.571Z" transform="translate(-135.481 -212.637)" fill="#263238"/>
      </g>
    </g>
  </g>
</svg>
