<svg id="information_icon" data-name="information icon" xmlns="http://www.w3.org/2000/svg" width="25.612" height="29.26" viewBox="0 0 25.612 29.26">
  <path id="Path_4926" data-name="Path 4926" d="M57.529,12.806c0-3.31-.2-5.517-3.426-8.718S48.43-.027,44.631,0a12.807,12.807,0,0,0-3.424,25.121,1.925,1.925,0,0,1,1.144.886l1.626,2.82a.862.862,0,0,0,1.494,0l1.626-2.82a1.924,1.924,0,0,1,1.143-.886,12.811,12.811,0,0,0,9.289-12.316Z" transform="translate(-31.918 0)" fill="rgba(0,88,147,0.5)"/>
  <path id="Path_4927" data-name="Path 4927" d="M233.422,0q-.643,0-1.27.072a12.807,12.807,0,0,1,2.153,25.049,1.924,1.924,0,0,0-1.143.886l-1.01,1.752.616,1.068a.862.862,0,0,0,1.494,0l1.626-2.82a1.924,1.924,0,0,1,1.143-.886A12.807,12.807,0,0,0,233.422,0Z" transform="translate(-220.709 0)" fill="rgba(0,88,147,0.25)"/>
  <path id="Path_4928" data-name="Path 4928" d="M225.686,101.57h-.506a1.239,1.239,0,0,1-1.237-1.17l-.359-6.384a1.853,1.853,0,1,1,3.7,0l-.359,6.384A1.239,1.239,0,0,1,225.686,101.57Z" transform="translate(-212.627 -86.799)" fill="#fff"/>
  <path id="Path_4929" data-name="Path 4929" d="M247.877,92.06a1.855,1.855,0,0,0-.492.066,1.853,1.853,0,0,1,1.357,1.89l-.359,6.384a1.24,1.24,0,0,1-1,1.147,1.242,1.242,0,0,0,.239.023h.506a1.239,1.239,0,0,0,1.237-1.17l.359-6.384A1.853,1.853,0,0,0,247.877,92.06Z" transform="translate(-235.072 -86.799)" fill="rgba(0,88,147,0.25)"/>
  <path id="Path_4930" data-name="Path 4930" d="M234.2,295.565h-.8a.944.944,0,0,1-.944-.944v-.647a.944.944,0,0,1,.944-.944h.8a.944.944,0,0,1,.944.944v.647A.944.944,0,0,1,234.2,295.565Z" transform="translate(-220.996 -276.284)" fill="#fff"/>
  <path id="Path_4931" data-name="Path 4931" d="M248.278,293.03h-.8c-.031,0-.061,0-.091,0a.944.944,0,0,1,.853.939v.647a.944.944,0,0,1-.853.939c.03,0,.06,0,.091,0h.8a.944.944,0,0,0,.944-.944v-.647A.944.944,0,0,0,248.278,293.03Z" transform="translate(-235.071 -276.284)" fill="rgba(0,88,147,0.25)"/>
</svg>
