<svg xmlns="http://www.w3.org/2000/svg" width="74.41" height="74.41" viewBox="0 0 74.41 74.41">
  <g id="liability" transform="translate(0 0.001)">
    <path id="Path_5996" data-name="Path 5996" d="M7.466,11a7.466,7.466,0,1,0,7.466,7.466A7.466,7.466,0,0,0,7.466,11Zm0,12.444a4.977,4.977,0,1,1,4.977-4.977A4.977,4.977,0,0,1,7.466,23.444Z" transform="translate(0 2.63)" fill="#42e2c3"/>
    <path id="Path_5997" data-name="Path 5997" d="M10.53,51.542l-6.2,16.122a4.96,4.96,0,0,0,9.258,3.565l5.143-13.378,10.992-1.47,1.634,8.994a4.96,4.96,0,0,0,3.178,3.771l13.649,4.961a5.06,5.06,0,0,0,1.689.3,4.961,4.961,0,0,0,1.7-9.625L40.6,60.8,38.633,49.949a5.07,5.07,0,0,0-.826-1.963l-4.664-6.612,12.274,5.341a4.9,4.9,0,0,0,6.794-3.405A20.424,20.424,0,0,0,68.664,13.545l1.927-1.928a3.721,3.721,0,0,0,.581-4.479,3.676,3.676,0,0,0,1.172-.786A3.721,3.721,0,0,0,67.081,1.09a3.677,3.677,0,0,0-.786,1.172,3.719,3.719,0,0,0-4.478.582L59.888,4.771A20.449,20.449,0,0,0,31.2,29.712l-10.335-4.5a4.96,4.96,0,0,0-6.035,7.41L24.979,47.012,14.5,48.413a4.925,4.925,0,0,0-3.974,3.129Zm58.3-48.7a1.24,1.24,0,1,1,0,1.754,1.24,1.24,0,0,1,0-1.754ZM63.569,4.6a1.24,1.24,0,0,1,1.756,0l3.509,3.51a1.24,1.24,0,0,1,0,1.756l-1.5,1.5a19.645,19.645,0,0,0-5.264-5.266Zm-25.788,5.63a17.98,17.98,0,1,1,14.363,30.6,4.923,4.923,0,0,0-2.769-3.212L34.519,31.157a18.068,18.068,0,0,1,3.262-20.929ZM25.308,49.471a2.48,2.48,0,0,0,1.7-3.89L16.85,31.195a2.48,2.48,0,0,1,3.019-3.7l28.516,12.4A2.48,2.48,0,0,1,46.4,44.439l-16.33-7.11-4.5-1.959a1.241,1.241,0,0,0-.992,2.274l4.182,1.824,7.011,9.94a2.543,2.543,0,0,1,.418.992l1.968,10.845a2.491,2.491,0,0,0,1.593,1.888l10.969,3.983A2.494,2.494,0,0,1,52.209,70.3h0a2.55,2.55,0,0,1-3.185,1.48L35.386,66.822A2.47,2.47,0,0,1,33.8,64.938l-1.635-8.995a2.48,2.48,0,0,0-2.433-2.035,2.8,2.8,0,0,0-.336.022L18.4,55.4a2.48,2.48,0,0,0-1.984,1.569L11.274,70.342a2.528,2.528,0,0,1-3.211,1.421,2.487,2.487,0,0,1-1.417-3.208l6.2-16.122a2.48,2.48,0,0,1,1.984-1.558Z" transform="translate(0.978)" fill="#42e2c3"/>
    <path id="Path_5998" data-name="Path 5998" d="M44.235,28.388a6.222,6.222,0,0,0,.791-7.829l5.206-5.206a3.733,3.733,0,0,1-.717,4.238,1.244,1.244,0,1,0,1.76,1.76,6.234,6.234,0,0,0,.79-7.831l.09-.09A1.245,1.245,0,0,0,50.4,11.67l-.09.09a6.222,6.222,0,0,0-8.621,8.621l-5.206,5.208A3.685,3.685,0,0,1,37.2,21.35a1.244,1.244,0,1,0-1.76-1.76,6.222,6.222,0,0,0-.791,7.83l-.088.088a1.244,1.244,0,1,0,1.76,1.76l.088-.088A6.222,6.222,0,0,0,44.235,28.388Zm0-14.079a3.733,3.733,0,0,1,4.238-.717l-4.955,4.955a3.733,3.733,0,0,1,.717-4.238ZM43.2,22.39a3.69,3.69,0,0,1-.72,4.24,3.828,3.828,0,0,1-4.231.707Z" transform="translate(8.022 2.561)" fill="#42e2c3"/>
  </g>
</svg>
