<svg xmlns="http://www.w3.org/2000/svg" width="18" height="18" viewBox="0 0 18 18">
  <g id="_x31_0.Linkedin" transform="translate(-10 -10)">
    <path id="Path_4940" data-name="Path 4940" d="M50.494,48.2V41.291c0-3.4-.731-5.991-4.694-5.991a4.1,4.1,0,0,0-3.7,2.028H42.05V35.607H38.3V48.2h3.915v-6.25c0-1.651.307-3.231,2.335-3.231,2,0,2.028,1.863,2.028,3.326v6.132h3.915Z" transform="translate(-22.494 -20.202)" fill="#005893"/>
    <path id="Path_4941" data-name="Path 4941" d="M11.3,36.6h3.915V49.2H11.3Z" transform="translate(-0.993 -21.195)" fill="#005893"/>
    <path id="Path_4942" data-name="Path 4942" d="M12.264,10a2.276,2.276,0,1,0,2.264,2.264A2.265,2.265,0,0,0,12.264,10Z" fill="#005893"/>
  </g>
</svg>
