<svg xmlns="http://www.w3.org/2000/svg" width="48" height="48" viewBox="0 0 48 48">
  <g id="location" transform="translate(0 -0.001)">
    <path id="Path_4962" data-name="Path 4962" d="M47.954,47.048,40.923,28.526a.7.7,0,0,0-.312-.363l-7.489-4.219,2.187-3.467a13.36,13.36,0,1,0-22.615,0l2.186,3.467L7.39,28.163a.7.7,0,0,0-.312.363L.046,47.048a.7.7,0,0,0,1,.862l11.3-6.368,11.3,6.368a.7.7,0,0,0,.69,0l11.3-6.368,11.3,6.368a.7.7,0,0,0,1-.862ZM24.7,36.443a2.1,2.1,0,0,0,1.08-.864l6.021-9.547,3.049,14.344L24.7,46.094ZM13.883,19.727a11.953,11.953,0,1,1,20.236,0c-.094.149-9.358,14.841-9.52,15.094l0,.007a.7.7,0,0,1-1.19,0c-.094-.149-9.377-14.87-9.519-15.1l0-.005ZM8.3,29.263l6.555-3.693-1.142,5.372a.7.7,0,1,0,1.375.292l1.106-5.2,6.021,9.548a2.112,2.112,0,0,0,1.081.862v9.652l-10.15-5.718,1.358-6.39a.7.7,0,1,0-1.375-.292l-1.4,6.585L2.05,45.732ZM36.271,40.278,33.145,25.571,39.7,29.263l6.252,16.469Z" transform="translate(0 0)" fill="#42e2c3"/>
    <path id="Path_4963" data-name="Path 4963" d="M189.122,67.81a7.81,7.81,0,1,0-7.81,7.81A7.819,7.819,0,0,0,189.122,67.81Zm-14.2,0a6.39,6.39,0,1,1,6.39,6.39A6.4,6.4,0,0,1,174.921,67.81Z" transform="translate(-157.311 -54.319)" fill="#42e2c3"/>
    <path id="Path_4964" data-name="Path 4964" d="M213.441,94.97a4.97,4.97,0,1,0-4.97,4.97A4.976,4.976,0,0,0,213.441,94.97Zm-8.52,0a3.55,3.55,0,1,1,3.55,3.55A3.554,3.554,0,0,1,204.921,94.97Z" transform="translate(-184.471 -81.583)" fill="#42e2c3"/>
  </g>
</svg>
