<svg xmlns="http://www.w3.org/2000/svg" width="48" height="48" viewBox="0 0 48 48">
  <g id="Line" transform="translate(-2 -2)">
    <path id="Path_4965" data-name="Path 4965" d="M34,42a4,4,0,1,0,4-4A4,4,0,0,0,34,42Zm4-2a2,2,0,1,1-2,2A2,2,0,0,1,38,40Z" transform="translate(4 4)" fill="#42e2c3"/>
    <path id="Path_4966" data-name="Path 4966" d="M12,42a4,4,0,1,0,4-4A4,4,0,0,0,12,42Zm4-2a2,2,0,1,1-2,2A2,2,0,0,1,16,40Z" transform="translate(1.111 4)" fill="#42e2c3"/>
    <path id="Path_4967" data-name="Path 4967" d="M48.909,36h-4.56a2.778,2.778,0,0,0,.2-1V29a3.145,3.145,0,0,0-3.273-3H37.8a2.778,2.778,0,0,0,.2-1V19a3.145,3.145,0,0,0-3.273-3H26a3.145,3.145,0,0,0-3.273,3v6a2.778,2.778,0,0,0,.2,1H19.455a3.145,3.145,0,0,0-3.273,3v6a2.778,2.778,0,0,0,.2,1H11.731L9.8,14.75A3.175,3.175,0,0,0,6.527,12H3.091a1,1,0,1,0,0,2H6.538a1.058,1.058,0,0,1,1.091.92L9.636,37.08a1.058,1.058,0,0,0,1.091.92H48.909a1,1,0,1,0,0-2Zm-24-11V19A1.048,1.048,0,0,1,26,18h8.727a1.048,1.048,0,0,1,1.091,1v6a1.048,1.048,0,0,1-1.091,1H26A1.048,1.048,0,0,1,24.909,25ZM19.455,36a1.048,1.048,0,0,1-1.091-1V29a1.048,1.048,0,0,1,1.091-1h8.727a1.048,1.048,0,0,1,1.091,1v6a1.048,1.048,0,0,1-1.091,1Zm13.091,0a1.048,1.048,0,0,1-1.091-1V29a1.048,1.048,0,0,1,1.091-1h8.727a1.048,1.048,0,0,1,1.091,1v6a1.048,1.048,0,0,1-1.091,1Z" transform="translate(0 2.222)" fill="#42e2c3"/>
    <path id="Path_4968" data-name="Path 4968" d="M28,10a4.21,4.21,0,0,0-3.79,2.34l-.1.21a1,1,0,0,0,1.78.9l.11-.21a2.23,2.23,0,0,1,4,0l.11.21A1,1,0,0,0,31,14a.93.93,0,0,0,.45-.11,1,1,0,0,0,.44-1.34l-.1-.21A4.21,4.21,0,0,0,28,10Z" transform="translate(2.446 0.8)" fill="#42e2c3"/>
    <path id="Path_4969" data-name="Path 4969" d="M33.17,10.55a1,1,0,1,0,1.66-1.1A7.72,7.72,0,0,0,28.39,6h-.78a7.72,7.72,0,0,0-6.44,3.45,1,1,0,0,0,.28,1.38A.94.94,0,0,0,22,11a1,1,0,0,0,.83-.45A5.75,5.75,0,0,1,27.61,8h.78A5.75,5.75,0,0,1,33.17,10.55Z" transform="translate(2.538)" fill="#42e2c3"/>
    <path id="Path_4970" data-name="Path 4970" d="M36.29,7.71a1,1,0,1,0,1.42-1.42l-.47-.46a13.06,13.06,0,0,0-18.48,0l-.47.46a1,1,0,0,0,1.42,1.42l.46-.47a11.08,11.08,0,0,1,15.66,0Z" transform="translate(2.667)" fill="#42e2c3"/>
    <path id="Path_4971" data-name="Path 4971" d="M29,15a1,1,0,0,0-1-1h0a1,1,0,1,0,1,1Z" transform="translate(2.381 1.143)" fill="#42e2c3"/>
  </g>
</svg>
