<svg xmlns="http://www.w3.org/2000/svg" width="18" height="18" viewBox="0 0 18 18">
  <g id="Group_3128" data-name="Group 3128" transform="translate(-212 -885)">
    <g id="Group_3127" data-name="Group 3127" transform="translate(-5 -188)">
      <rect id="Rectangle_1137" data-name="Rectangle 1137" width="18" height="18" transform="translate(217 1073)" fill="#fff"/>
    </g>
    <g id="problem" transform="translate(212.002 885.413)">
      <path id="Path_4893" data-name="Path 4893" d="M6.234,6.92A6.37,6.37,0,0,1,10.02,1.062,5.949,5.949,0,0,0,3.229,2.307a6.278,6.278,0,0,0-1.8,4.427,2.611,2.611,0,0,1-.289,1.193L.117,9.918A1.058,1.058,0,0,0,.14,10.935,1,1,0,0,0,1,11.448h.436v1.594A1.708,1.708,0,0,0,3.114,14.77H4.207v.466a1.419,1.419,0,0,0,1.4,1.436h4.8a1.419,1.419,0,0,0,1.4-1.436V14.2q0-.479.044-.956A6.3,6.3,0,0,1,6.234,6.92ZM4.366,8.394a.514.514,0,1,1-1.027,0V7.259a.514.514,0,1,1,1.027,0Zm0,0" transform="translate(0)" fill="#005893"/>
      <path id="Path_4894" data-name="Path 4894" d="M218.85,33.566a5.541,5.541,0,1,0,5.534,5.541A5.543,5.543,0,0,0,218.85,33.566Zm.556,8.2a.556.556,0,0,1-1.112,0v-.454a.556.556,0,0,1,1.112,0Zm0-2.492v.556a.556.556,0,0,1-1.112,0V39.1a.922.922,0,0,1,.921-.921.55.55,0,0,0,0-1.1h-1.106a.556.556,0,0,1,0-1.112h1.106a1.662,1.662,0,0,1,.191,3.313Zm0,0" transform="translate(-206.386 -31.84)" fill="#005893"/>
    </g>
  </g>
</svg>
