<svg xmlns="http://www.w3.org/2000/svg" width="42.329" height="48" viewBox="0 0 42.329 48">
  <g id="video" transform="translate(0)">
    <path id="Path_5008" data-name="Path 5008" d="M41.39,19.376H9.339l30.785-8.9a.938.938,0,0,0,.641-1.161l-1.611-5.55A5.235,5.235,0,0,0,32.678.206L3.774,8.561A5.228,5.228,0,0,0,.207,15.024l1.574,5.422V42.783A5.229,5.229,0,0,0,7.009,48H18.3a.938.938,0,1,0,0-1.875H7.009A3.349,3.349,0,0,1,3.66,42.783V30.025H40.45V42.783A3.349,3.349,0,0,1,37.1,46.125H25.813a.938.938,0,1,0,0,1.875H37.1a5.229,5.229,0,0,0,5.228-5.217V20.314a.938.938,0,0,0-.939-.937ZM24.825,28.15l3.991-6.9h5.191l-3.991,6.9Zm-7.361,0,3.991-6.9h5.191l-3.991,6.9Zm-7.361,0,3.991-6.9h5.192l-3.991,6.9ZM13.6,16.013,6.912,9.607l5.008-1.448a.93.93,0,0,0,.123.145l6.684,6.406-5.008,1.448a.933.933,0,0,0-.123-.145Zm12.588-11.8,6.684,6.406L27.86,12.07a.914.914,0,0,0-.123-.145L21.052,5.519,26.06,4.071A.931.931,0,0,0,26.184,4.216ZM19.113,6.26,25.8,12.666l-5.008,1.448a.914.914,0,0,0-.123-.145L13.982,7.563,18.99,6.115A.991.991,0,0,0,19.113,6.26ZM33.2,2.007a3.328,3.328,0,0,1,.924-.131A3.37,3.37,0,0,1,37.35,4.287L38.7,8.936,34.93,10.026a.953.953,0,0,0-.124-.145L28.123,3.475ZM2.3,11.963a3.323,3.323,0,0,1,2-1.6l.552-.16a.954.954,0,0,0,.123.145l6.684,6.406-8.294,2.4L2.012,14.5a3.313,3.313,0,0,1,.288-2.54Zm1.36,9.288h8.264l-3.991,6.9H3.66Zm28.526,6.9,3.991-6.9H40.45v6.9Zm0,0" fill="#42e2c3" fill-rule="evenodd"/>
    <path id="Path_5009" data-name="Path 5009" d="M206.2,350.1a.939.939,0,0,0-.47-.814l-8.253-4.765a.939.939,0,0,0-1.409.814v9.53a.939.939,0,0,0,1.409.813l8.253-4.765a.939.939,0,0,0,.47-.814Zm-8.253,3.138v-6.276l5.435,3.138Zm0,0" transform="translate(-177.648 -312.137)" fill="#42e2c3" fill-rule="evenodd"/>
    <path id="Path_5010" data-name="Path 5010" d="M225.712,492a.939.939,0,1,0,.939.939A.941.941,0,0,0,225.712,492Zm0,0" transform="translate(-203.658 -445.879)" fill="#42e2c3" fill-rule="evenodd"/>
  </g>
</svg>
