<svg xmlns="http://www.w3.org/2000/svg" width="45.47" height="45.47" viewBox="0 0 45.47 45.47">
  <g id="Valuation_Date_and_Currency_POP_UP_icon" data-name="Valuation Date and Currency POP UP icon" transform="translate(-323 -451)">
    <g id="Icon" transform="translate(323 451)">
      <g id="Group_4425" data-name="Group 4425" transform="translate(25.065 25.065)">
        <path id="Path_5481" data-name="Path 5481" d="M217.2,351a10.2,10.2,0,1,0,10.2,10.2A10.207,10.207,0,0,0,217.2,351Zm0,1.57a8.633,8.633,0,1,1-8.633,8.633A8.637,8.637,0,0,1,217.2,352.57Z" transform="translate(-207 -351)" fill="#00fc3b" fill-rule="evenodd"/>
      </g>
      <g id="Group_4426" data-name="Group 4426" transform="translate(31.343 28.204)">
        <path id="Path_5482" data-name="Path 5482" d="M218.139,356.57a3.139,3.139,0,0,0,0,6.279v3.139a1.569,1.569,0,0,1-1.57-1.57.785.785,0,1,0-1.57,0,3.139,3.139,0,0,0,3.139,3.139v.785a.785.785,0,1,0,1.57,0v-.785a3.139,3.139,0,1,0,0-6.279v-3.139a1.569,1.569,0,0,1,1.57,1.57.785.785,0,0,0,1.57,0,3.139,3.139,0,0,0-3.139-3.139v-.785a.785.785,0,0,0-1.57,0Zm1.57,6.279v3.139a1.57,1.57,0,0,0,0-3.139Zm-1.57-4.709a1.57,1.57,0,1,0,0,3.139Z" transform="translate(-215 -355)" fill="#00fc3b" fill-rule="evenodd"/>
      </g>
      <g id="Group_4427" data-name="Group 4427" transform="translate(6.278 21.948)">
        <path id="Path_5483" data-name="Path 5483" d="M205.354,479a2.354,2.354,0,1,0,2.354,2.354A2.355,2.355,0,0,0,205.354,479Zm0,1.57a.785.785,0,1,1-.785.785A.785.785,0,0,1,205.354,480.57Z" transform="translate(-203 -479)" fill="#00fc3b" fill-rule="evenodd"/>
      </g>
      <g id="Group_4428" data-name="Group 4428" transform="translate(6.278 28.219)">
        <path id="Path_5484" data-name="Path 5484" d="M205.354,479a2.354,2.354,0,1,0,2.354,2.354A2.355,2.355,0,0,0,205.354,479Zm0,1.57a.785.785,0,1,1-.785.785A.785.785,0,0,1,205.354,480.57Z" transform="translate(-203 -479)" fill="#00fc3b" fill-rule="evenodd"/>
      </g>
      <g id="Group_4429" data-name="Group 4429" transform="translate(6.278 34.483)">
        <path id="Path_5485" data-name="Path 5485" d="M205.354,479a2.354,2.354,0,1,0,2.354,2.354A2.355,2.355,0,0,0,205.354,479Zm0,1.57a.785.785,0,1,1-.785.785A.785.785,0,0,1,205.354,480.57Z" transform="translate(-203 -479)" fill="#00fc3b" fill-rule="evenodd"/>
      </g>
      <g id="Group_4430" data-name="Group 4430" transform="translate(12.542 21.948)">
        <path id="Path_5486" data-name="Path 5486" d="M205.354,479a2.354,2.354,0,1,0,2.354,2.354A2.355,2.355,0,0,0,205.354,479Zm0,1.57a.785.785,0,1,1-.785.785A.785.785,0,0,1,205.354,480.57Z" transform="translate(-203 -479)" fill="#00fc3b" fill-rule="evenodd"/>
      </g>
      <g id="Group_4431" data-name="Group 4431" transform="translate(12.542 28.219)">
        <path id="Path_5487" data-name="Path 5487" d="M205.354,479a2.354,2.354,0,1,0,2.354,2.354A2.355,2.355,0,0,0,205.354,479Zm0,1.57a.785.785,0,1,1-.785.785A.785.785,0,0,1,205.354,480.57Z" transform="translate(-203 -479)" fill="#00fc3b" fill-rule="evenodd"/>
      </g>
      <g id="Group_4432" data-name="Group 4432" transform="translate(12.542 34.483)">
        <path id="Path_5488" data-name="Path 5488" d="M205.354,479a2.354,2.354,0,1,0,2.354,2.354A2.355,2.355,0,0,0,205.354,479Zm0,1.57a.785.785,0,1,1-.785.785A.785.785,0,0,1,205.354,480.57Z" transform="translate(-203 -479)" fill="#00fc3b" fill-rule="evenodd"/>
      </g>
      <g id="Group_4433" data-name="Group 4433" transform="translate(18.813 21.948)">
        <path id="Path_5489" data-name="Path 5489" d="M205.354,479a2.354,2.354,0,1,0,2.354,2.354A2.355,2.355,0,0,0,205.354,479Zm0,1.57a.785.785,0,1,1-.785.785A.785.785,0,0,1,205.354,480.57Z" transform="translate(-203 -479)" fill="#00fc3b" fill-rule="evenodd"/>
      </g>
      <g id="Group_4434" data-name="Group 4434" transform="translate(18.813 28.219)">
        <path id="Path_5490" data-name="Path 5490" d="M205.354,479a2.354,2.354,0,1,0,2.354,2.354A2.355,2.355,0,0,0,205.354,479Zm0,1.57a.785.785,0,1,1-.785.785A.785.785,0,0,1,205.354,480.57Z" transform="translate(-203 -479)" fill="#00fc3b" fill-rule="evenodd"/>
      </g>
      <g id="Group_4435" data-name="Group 4435" transform="translate(18.813 34.483)">
        <path id="Path_5491" data-name="Path 5491" d="M205.354,479a2.354,2.354,0,1,0,2.354,2.354A2.355,2.355,0,0,0,205.354,479Zm0,1.57a.785.785,0,1,1-.785.785A.785.785,0,0,1,205.354,480.57Z" transform="translate(-203 -479)" fill="#00fc3b" fill-rule="evenodd"/>
      </g>
      <g id="Group_4436" data-name="Group 4436" transform="translate(25.084 21.948)">
        <path id="Path_5492" data-name="Path 5492" d="M205.354,479a2.354,2.354,0,1,0,2.354,2.354A2.355,2.355,0,0,0,205.354,479Zm0,1.57a.785.785,0,1,1-.785.785A.785.785,0,0,1,205.354,480.57Z" transform="translate(-203 -479)" fill="#00fc3b" fill-rule="evenodd"/>
      </g>
      <path id="Path_5493" data-name="Path 5493" d="M352.791,458.84H364.55a2.352,2.352,0,0,1,2.352,2.352v5.488H336.327a.784.784,0,0,0,0,1.568H366.9v8.624a.784.784,0,0,0,1.568,0V461.192a3.92,3.92,0,0,0-3.92-3.92H362.2v-.784A5.487,5.487,0,0,0,356.71,451h-3.136a5.487,5.487,0,0,0-5.488,5.488v.784h-4.7v-.784A5.487,5.487,0,0,0,337.9,451h-3.136a5.487,5.487,0,0,0-5.488,5.488v.784H326.92a3.92,3.92,0,0,0-3.92,3.92V492.55a3.92,3.92,0,0,0,3.92,3.92h21.951a.784.784,0,1,0,0-1.568H326.92a2.352,2.352,0,0,1-2.352-2.352v-24.3h8.624a.784.784,0,0,0,0-1.568h-8.624v-5.488a2.352,2.352,0,0,1,2.352-2.352h2.352v.784a5.487,5.487,0,0,0,5.488,5.488h1.568a2.352,2.352,0,0,0,0-4.7h-1.568a.784.784,0,0,1-.784-.784v-.784h14.111v.784a5.487,5.487,0,0,0,5.488,5.488h1.568a2.352,2.352,0,0,0,0-4.7h-1.568a.784.784,0,0,1-.784-.784Zm-20.383-2.352v3.136a2.353,2.353,0,0,0,2.352,2.352h1.568a.784.784,0,1,1,0,1.568h-1.568a3.919,3.919,0,0,1-3.92-3.92v-3.136a3.919,3.919,0,0,1,3.92-3.92H337.9a3.919,3.919,0,0,1,3.92,3.92v.784h-1.568v-.784a2.353,2.353,0,0,0-2.352-2.352h-3.136a2.353,2.353,0,0,0-2.352,2.352Zm18.815,0v3.136a2.353,2.353,0,0,0,2.352,2.352h1.568a.784.784,0,1,1,0,1.568h-1.568a3.919,3.919,0,0,1-3.92-3.92v-3.136a3.919,3.919,0,0,1,3.92-3.92h3.136a3.919,3.919,0,0,1,3.92,3.92v.784h-1.568v-.784a2.353,2.353,0,0,0-2.352-2.352h-3.136a2.353,2.353,0,0,0-2.352,2.352Zm-12.543.784v-.784a.784.784,0,0,0-.784-.784h-3.136a.784.784,0,0,0-.784.784v.784Zm18.815,0v-.784a.784.784,0,0,0-.784-.784h-3.136a.784.784,0,0,0-.784.784v.784Z" transform="translate(-323 -451)" fill="#00fc3b" fill-rule="evenodd"/>
    </g>
  </g>
</svg>
