<?xml version="1.0" encoding="utf-8"?>
<!-- Generator: Adobe Illustrator 27.0.0, SVG Export Plug-In . SVG Version: 6.00 Build 0)  -->
<svg version="1.1" id="Layer_1" xmlns="http://www.w3.org/2000/svg" xmlns:xlink="http://www.w3.org/1999/xlink" x="0px" y="0px"
	 viewBox="0 0 600 600" style="enable-background:new 0 0 600 600;" xml:space="preserve">
<style type="text/css">
	.st0{fill:#FE7B66;}
	.st1{fill:#E2E2E2;}
	.st2{fill:#273A41;}
	.st3{fill:#44646D;}
	.st4{fill:#ECECEC;}
	.st5{fill:#FEC3A2;}
	.st6{fill:#FEFEFE;}
	.st7{fill:#31484F;}
	.st8{fill:#44636C;}
	.st9{fill:#FDC3A2;}
	.st10{fill:#787E84;}
	.st11{fill:#E2E1E1;}
	.st12{fill:#F77B67;}
	.st13{fill:#E2E2E1;}
	.st14{fill:#AEB4B4;}
	.st15{fill:#B7C1C4;}
	.st16{fill:#B7C0C3;}
	.st17{fill:#A2A9AA;}
	.st18{fill:#3A4D53;}
	.st19{fill:#E2E1E2;}
	.st20{fill:#44656D;}
	.st21{fill:#717777;}
	.st22{fill:#687071;}
	.st23{fill:#6E7475;}
	.st24{fill:#F87E6A;}
	.st25{fill:#939A9D;}
	.st26{fill:#5C6468;}
	.st27{fill:#929899;}
	.st28{fill:#A2A7A8;}
	.st29{fill:#6F7576;}
	.st30{fill:#707677;}
	.st31{fill:#818689;}
	.st32{fill:#767E83;}
	.st33{fill:#737778;}
	.st34{fill:#E9AAA4;}
	.st35{fill:#6E7476;}
	.st36{fill:#A0A3A3;}
	.st37{fill:#BCBEBE;}
	.st38{fill:#935145;}
	.st39{fill:#575D5E;}
	.st40{fill:#73787B;}
	.st41{fill:#EED2CE;}
	.st42{fill:#868A8A;}
	.st43{fill:#8D9191;}
	.st44{fill:#AFB2B1;}
	.st45{fill:#828687;}
	.st46{fill:#EFD5D4;}
	.st47{fill:#696F72;}
	.st48{fill:#4B5C62;}
	.st49{fill:#E9C4C5;}
	.st50{fill:#EED1CF;}
	.st51{fill:#E6CBC7;}
	.st52{fill:#E3BCC3;}
	.st53{fill:#634C4B;}
	.st54{fill:#E5C8C3;}
	.st55{fill:#E8C7C7;}
	.st56{fill:#ECC7C6;}
	.st57{fill:#EEC1BE;}
	.st58{fill:#4B5051;}
	.st59{fill:#DA786A;}
	.st60{fill:#C6C7C7;}
	.st61{fill:#43474A;}
	.st62{fill:#949897;}
	.st63{fill:#A4A5A5;}
	.st64{fill:#E8C7C6;}
	.st65{fill:#C8C8C8;}
	.st66{fill:#E9C6C6;}
	.st67{fill:#464B4E;}
	.st68{fill:#71564E;}
	.st69{fill:#7E524E;}
	.st70{fill:#6C5350;}
	.st71{fill:#8D8480;}
	.st72{fill:#796660;}
	.st73{fill:#84645D;}
	.st74{fill:#775048;}
	.st75{fill:#51393E;}
	.st76{fill:#976D69;}
	.st77{fill:#85655C;}
	.st78{fill:#8F969A;}
	.st79{fill:#6E757A;}
	.st80{fill:#1D2B30;}
	.st81{fill:#FDFDFD;}
	.st82{fill:#EBEBEB;}
	.st83{fill:#3B5159;}
	.st84{fill:#6F777B;}
	.st85{fill:#A4AAA8;}
	.st86{fill:#ADAEAE;}
	.st87{fill:#30484F;}
	.st88{fill:#E1E1E1;}
	.st89{fill:#FA7B67;}
	.st90{fill:#253E46;}
	.st91{fill:#2F4B54;}
	.st92{fill:#DFDFDF;}
	.st93{fill:#304B54;}
	.st94{fill:#727D7E;}
	.st95{fill:#FBA478;}
	.st96{fill:#826859;}
	.st97{fill:#524C47;}
	.st98{fill:#4D4742;}
	.st99{fill:#F9B58E;}
	.st100{fill:#726152;}
	.st101{fill:#4D4846;}
	.st102{fill:#6E5A51;}
	.st103{fill:#725D52;}
	.st104{fill:#2D4A53;}
	.st105{fill:#F97B66;}
	.st106{fill:#F8B691;}
	.st107{fill:#CCD2D6;}
	.st108{fill:#665351;}
	.st109{fill:#815E58;}
	.st110{fill:#F97C68;}
	.st111{fill:#DFD9D7;}
	.st112{fill:#E2DFDF;}
	.st113{fill:#F4F1F0;}
	.st114{fill:#7C7F82;}
	.st115{fill:#8D9395;}
	.st116{fill:#D2DBDF;}
</style>
<path class="st0" d="M379.9,352.4c1.4,0,2.9,0.1,4.3,0.1c0.1,1,0.2,2.1,0.2,3.1c0,43.1,0.1,86.2,0,129.3c0,8.7-0.1,17.5-0.2,26.2
	c-3.8-3.6-7.5-7.2-11.3-10.8c-0.6-0.7-1.2-1.4-1.9-2.1c-10.2-10.1-20.5-20.2-30.7-30.3c-3.1-3.1-6.3-6.1-9.2-9.3
	c-1.7-1.9-2.6-1.5-4.2,0.1c-18.5,18.7-37,37.4-55.6,56.1c-1.9,1.9-3.7,4-5.6,6c-1.2-2.5-3.7-4-5.3-6.2c-1.3-1.9-2.9-3.5-4.6-4.9
	c-3-2.4-6.4-3.4-10.2-2.1c-0.7,0.1-1.5,0.2-2.2,0.3c-4.1,1-7.6,3.3-11.3,5.2c-3.8,1.9-7.8,3.2-12.1,2.4c-5.8-1.1-10.4,0.4-13.9,5.2
	c-2.2,3-5.3,4.3-9,4.8c-2.9,0.4-5.9-0.2-8.7,0.9c-4.6,0.5-7.9,3.1-8.7,6.9c-0.4,1.8,0,2.7,2.1,2.5c2.6-0.2,5.3-0.2,7.9-0.2
	c4.4,0,8.7,0,13.1,0c6.6,0,13.3-0.1,19.9-0.1c1.2,0,2.4,0,3.6,0c0.8,0,1.5,0.2,2.3,0.1c7.4-0.7,14.8-0.4,22.2-0.3
	c-0.5,0.6-1,1.2-1.5,1.7c-11.2,11.2-22.4,22.5-33.5,33.7c-6.7,6.7-13.2,13.6-19.9,20.3c-0.2,0-0.4,0.1-0.6,0.1
	c-15.9,0-31.7-0.1-47.6-0.1c-13.4,0-26.8,0.1-40.2,0.1c-3.6-0.1-7.3-0.2-10.9-0.3c0.7-0.8,1.2-1.7,2-2.4
	c27.5-27.7,55.1-55.5,82.6-83.2c9.9-10,19.8-20,29.7-30c7.3-7.3,14.7-14.5,22-21.9c3.3-3.4,6.9-6.4,9.8-10.2
	c6.5-5.8,12.4-12.3,18.7-18.4c5.1-5,10.1-10.1,15.1-15.1c2.7-2.7,2.7-2.7,0.1-5.2c-16.7-16.5-33.4-33.1-50.1-49.6
	c-0.6-0.6-1.1-1.2-2.1-2.3c18.8,0,36.9,0,55,0c13.1,0,26.2,0,39.3,0c7.4,0,14.8,0,22.2,0C354,352.4,367,352.4,379.9,352.4z"/>
<path class="st1" d="M242.7,443.2c-2.9,3.8-6.5,6.8-9.8,10.2c-7.3,7.4-14.6,14.6-22,21.9c-1.9-3.9-5.7-6-8.3-9.2
	c-1.2-1.5-2.2-1.2-3.5,0c-3.3,3.3-6.7,6.5-10.1,9.7c-8.3,7.9-16.6,15.8-25,23.8c-8.4,8.1-16.9,16.1-25.3,24.2
	c-9.1,8.7-18.2,17.5-27.4,26.2c-7.1,6.7-14.1,13.6-21.1,20.4c-0.4,0.4-0.9,0.8-1.3,1.1c-6.8,6.4-13.8,12.7-20.3,19.5
	c-6.8,0.1-13.7,0.1-20.5,0.2c-10.3,0-20.6,0-30.9,0c-3.6,0.2-7.3-0.6-10.9,0.5c-0.8-0.3-1.6-0.5-3.4-1.1c2.1-1.8,3.9-3.3,5.6-4.9
	c6.4-6,12.9-12,19.3-18.2c7.9-7.6,15.7-15.5,23.7-23c9.4-8.8,18.7-17.9,28-26.8c9-8.6,18-17.2,27-25.8c9.8-9.4,19.6-18.8,29.4-28.2
	c10.3-10,20.7-19.8,31.2-29.7c1-0.9,1-1.7,0.1-2.6c-0.5-0.5-0.9-0.9-1.4-1.4c-12.2-12.2-24.4-24.3-36.5-36.5
	c-0.7-0.7-1.4-1.5-2.1-2.3c0.9-0.7,1.8-0.4,2.6-0.4c37.1,0,74.2,0,111.3-0.1c2.7,0,3.7,0.7,3.5,3.5c-0.8,11.8-1.3,23.6-2,35.5
	c-0.2,4.3,0.3,8.7-0.7,13C241.8,443,242.3,443.2,242.7,443.2z"/>
<path class="st1" d="M384.3,511.2c0.1-8.7,0.2-17.5,0.2-26.2c0-43.1,0-86.2,0-129.3c0-1-0.1-2.1-0.2-3.1c1.3,0.8,0.7,2,0.7,3.1
	c0,21.3,0,42.6,0,63.9c0,1,0,2.1,0,4c3.5-3.5,6.7-6.4,9.5-9.6c2-2.3,4.1-4.5,6.2-6.6c8.8-8.8,17.8-17.4,26.4-26.5
	c11.1-11.8,23-22.8,34-34.6c11.5-12.2,23.6-23.8,35.3-35.7c1.6-1.6,1.6-2.5,0-4c-11.8-10.7-23.5-21.5-35.2-32.3
	c-1.5-1.4-2.9-2.8-4.3-4.2c-0.4-0.4-1-0.8-0.8-1.4c0.3-0.8,1.1-0.6,1.7-0.5c7.4,0.3,14.8-0.7,22.2-0.6c8.3,0.1,16.5-0.5,24.8-0.7
	c10.9-0.3,21.8-0.7,32.7-1.1c10.8-0.4,21.6-1,32.4-1.1c2.4,0,3.1,0.7,3,3c-0.2,6.5,0.3,13-0.2,19.4c-0.7,9.8,0.1,19.6-0.6,29.3
	c-0.7,9.3,0,18.6-0.5,27.9c-0.6,9.7-0.4,19.4-0.5,29c0,0.6,0.3,1.5-0.5,1.8c-0.8,0.3-1.1-0.5-1.6-0.9c-8.9-8.3-17.7-16.7-26.7-24.8
	c-3-2.7-6.1-5.5-8.9-8.4c-1.4-1.5-2.3-1.3-3.6,0.1c-9.3,9.4-18.8,18.6-28,28.1c-17.1,17.8-34.9,35-52.1,52.7
	c-20.9,21.4-42,42.5-63.1,63.6c-1.3,1.3-1.7,2.5-1.7,4.3c0.1,6.3,0.1,12.6,0,18.8C385,509.3,385.5,510.5,384.3,511.2z"/>
<path class="st1" d="M370.7,591.1c4.3-4.9,9.7-8.7,14.4-13.3c4.2-4.1,8.8-7.8,13.2-11.7c8.4-7.4,16.6-14.9,25.1-22.2
	c5.4-4.6,5.5-4.5,0.6-9.4c-10.1-10.1-20.2-20.2-30.3-30.2c-1.3-1.3-2.9-2.5-4.3-3.8c-0.4-0.4-1-0.7-0.6-1.4c0.3-0.5,0.8-0.4,1.3-0.4
	c0.6,0,1.1,0,1.7,0c36.9,0,73.8,0,110.7,0c3.7,0,3.9,0.3,3.5,4.1c-0.6,7.3-1.1,14.7-1.7,22.1c-0.7,9.7-1.5,19.4-2.2,29.1
	c-0.5,6.4-0.8,12.8-1.2,19.3c-0.3,5.9-1.2,11.9-1.1,17.8c-0.4,0.1-0.8,0.1-1.2,0.2c-5.9-0.1-11.8-0.1-17.7-0.2
	c-6.1-6.9-13.2-12.8-19.6-19.3c-0.9-0.9-1.4-0.8-2.3,0c-3,2.6-6.2,5-9.1,7.7c-4.4,4-9.3,7.4-13.4,11.7c-0.2,0.1-0.4,0.1-0.6,0.2
	c-16.3,0-32.7,0-49,0C381.4,591.2,376.1,591.1,370.7,591.1z"/>
<path class="st2" d="M279.3,338.3c-1.8-0.2-1.5-1.7-1.6-2.8c-0.9-13.6-0.9-27.2-0.4-40.7c0.5-14.5,1.3-29,3.2-43.5
	c2.1-16.1,1-32.2,1-48.4c0.7,0,1.4-0.2,1.9,0.5c-1.7,0.4-1.2,1.7-1.1,2.7c0.1,1,1,1.3,1.9,1.3c1,0,1.9,0,2.9,0.1
	c10.2,0.8,20.3,2.4,30.5,1.1c4.6-0.6,8.8-3.6,9.5-8.1c1-6.2,1.7-12.5,2.4-18.8c0.4-3,0.7-6,1.1-9c0.8,0,1.6-0.1,2.4-0.1
	c2,6.8,5.3,13.1,7.9,19.6c1.3,3.1,2.1,6.5,4.7,8.8c3.5,9.8,6.5,19.9,9.4,29.9c0.3,0.9,0.6,1.8,0.9,2.7c1.5,6.1,3,12.2,4.4,18.3
	c2.2,27.7,1.5,55.6,2.1,83.3c0,2-0.5,3-2.6,2.8c-6.3,0-12.6,0-18.9,0c-0.2-0.1-0.4-0.1-0.6,0c-1.9-0.1-1.5-1.6-1.6-2.8
	c-0.8-20.7-1.9-41.4-2.4-62.1c-0.2-8.4-1.9-16.2-5.7-23.7c-0.6-3.4-2.1-6.6-3.4-9.7c-1.1-3.3-2.2-6.6-3.5-9.8
	c-1.1-2.7-1.5-5.6-3.4-7.9c0.8-4.5,1.5-9,2.3-13.5c-2.2,7.4-3.7,14.8-5.2,22.3c-1.3,6.3-2.6,12.5-3.9,18.8c-0.2,1.1-0.4,2.2-0.5,3.3
	c-5.2,18-8.9,36.3-10.4,55c-0.8,9.8-1.5,19.7-2.3,29.5c-2.9,0.6-5.8,0.6-8.7,0.6c-4,0-8,0.1-11.9,0.1
	C279.6,338.3,279.5,338.3,279.3,338.3z"/>
<path class="st1" d="M340.4,468c10.2,10.1,20.5,20.2,30.7,30.3c0.7,0.7,1.3,1.4,1.9,2.1c-0.7,0-1.2,0.1-1.8,0.7
	c-20.7,20.8-41.5,41.6-62.2,62.5c-9,9.1-17.9,18.4-26.8,27.5c-0.2,0.1-0.4,0.1-0.6,0.2c-9.5,0-19-0.1-28.4-0.1
	c-11.1,0-22.2,0.1-33.3,0.1l0-0.2c12.4-13.2,25.8-25.5,38.1-38.8c5.4-5.8,11.1-11.4,16.7-17.1c2.3,0,4.7,0,7-0.1c1,0,2.1,0.3,2.6-1
	c2.1,0,4.1-0.1,6.2-0.1c1.8,0,2.2-0.6,1.3-2.2c-0.4-3.2-2.3-5.3-5-5.7c-0.7-0.7-1.6-1.3-0.4-2.5c2-2,3.8-4.2,5.7-6.2
	c15.4-15.6,30.8-31.2,46.2-46.8C339.2,469.9,340.4,469.3,340.4,468z"/>
<path class="st3" d="M333,172.7c-0.8,0-1.6,0.1-2.4,0.1c-1-0.2-1.6,0.2-1.6,1.3c-0.1,2.3-0.3,4.5-0.6,6.8c-0.8,6.8-1.6,13.5-3.9,20
	c-0.8,2.1-2.1,3.4-4.3,3.6c-2.4,0.3-4.9,0.6-7.4,0.6c-9.9,0-19.7-1.2-29.5-1.7c-0.5-0.6-1.2-0.5-1.9-0.5c-1.4-0.1-2.8-0.2-4.2-0.4
	c-3.5-0.5-3.5-0.5-2.8-4.1c2.8-14.9,5.6-29.8,7.4-44.8c0.4-3.1,0.1-5.8-1.2-8.5c-1.4-2.8-2.8-5.6-4.2-8.4c-1-2.2-1.9-4.3-3.3-6.3
	c-3.1-6.5-6.6-12.8-9.3-19.5c-1.5-3.6-2.7-7.3-3.1-11.2c-0.7-7.8,2.1-13.9,8.7-18.2c3.7-2.4,7.4-4.8,7.8-9.8
	c0.1-0.9,0.5-1.6,1.7-1.3c5.6,3.9,11.2,7.9,17.1,11.5c-0.6,1.3,0.4,1.7,1.3,2.2c3.5,3.1,6.6,6.4,9.1,10.3c-1.7-0.6-2.5-2.9-4.6-2.8
	c-3.1-2.8-7-4.4-10.5-6.6c-3.8-2.3-7.8-4.4-11.7-6.5c1.3,2.1,3.4,2.8,5.4,3.9c5.6,3.2,10.8,6.9,16.9,9.2c0,0.3,0.6,1-0.3,0.9
	c-0.8-0.1-1.6-0.5-2.4-0.9c-7.3-2.9-14.4-6.3-22-8.3c-3.7-1-7.3-0.3-10.2,2.5c-2.8,1-3.3,3.6-4.2,5.9c1.4-2,2.8-3.9,4.2-5.9
	c3.8-1.5,7.5-3.3,11.7-1.5c9.6,3.9,19.2,7.9,28.8,11.8c0.4,0.2,0.9,0.5,1.3,0.5c2.2,0.4,3.1,1.5,2.8,3.9c-0.3,2.3,0.7,4.4,2.2,6.2
	c-0.1-1.1-0.6-2.1-0.8-3.2c-0.5-2.1-0.8-4.4,0.3-6.4c5.2-8.7,10.4-17.4,15.6-26.1c1-1.8,2.1-2,3.9-0.9c4.2,2.5,8.5,4.9,12.8,7.3
	c1.4,0.7,1.3,1.5,0.7,2.7c-1.2,2.4-2.9,4.7-3.4,7.4c-0.7,0.2-1,0.8-1.3,1.4c-2.6,4.9-5.1,9.9-8,14.7c-2.8,4.8-4.9,10-8.5,14.3
	c-0.9,1.1-2.8,1.5-2.8,3.3l0,0.2c-0.6,0.2-1.1,0.4-1.7,0.7c-2.9,0.1-5.6,1.2-8.6,0.6c-11-1.9-21.8-4.8-32.4-8.4
	c-3.2-1.1-6.6-2-9.8-2.9c9.1,5.5,18.4,10.7,28.2,14.8c8,3.3,16.5,4.7,24.9,6.9c0.4,1.1,0.8,2.1,1.1,3.2c2.4,8.7,4.2,17.4,5.5,26.3
	c0.1,1.6,0.3,3.2,0.3,4.8c0.1,4.5,0.1,4.5,4.5,4.5C333.9,172.5,333.5,172.6,333,172.7z M290.8,174.3c-1.1,1.2-1.8,2.4,0.8,2.3
	c3.9-0.1,7.7,0.7,11.6,0.6c4.3-0.1,8.7-0.6,13,0.4c1.2,0.3,1.9-0.4,2-1.7c0.2-2.1,0.4-4.1,0.6-6.2c0.6-3.4,0.6-3.4-3-3.4
	c-7.1,0-14.3,0-21.4,0c-0.9,0-1.9-0.4-2.8,0.5c2.8,0,5.4,0,8,0c5,0,10.1,0,15.1,0c1.2,0,2.7,0,3.2,1.2c0.9,2-2.4,6.2-4.6,6.2
	C305.8,174.3,298.3,174.3,290.8,174.3z M287.5,151.7c8.9,1.4,17.8,1.3,26.7,1.7C305.3,152.4,296.4,151.3,287.5,151.7z"/>
<path class="st4" d="M273.1,130.4c1.4,1.9,2.4,4.1,3.3,6.3c-0.6,0.8-0.9,1.6-2.2,1.7c-4.9,0.4-9.8,0.5-14.8,0.5
	c-14.1,0-28.2-0.5-42.2,0.1c-16.6,0.7-33.2,0.1-49.9,0.4c-1,0-2.5,0.6-3.1-0.7c-0.6-1.3,0-2.5,0.8-3.7c2.7-4.2,7.2-4.7,11.3-4.6
	c6.3,0.1,11.3-1.8,15.1-6.8c2.2-2.8,5.1-4.1,8.8-3.7c8.1,0.9,15.3-1.2,22.1-5.7c3.9-2.6,8.5-2.9,12.9-2.2c3.5,0.6,5.9,3.3,8,6
	c1.7,2.2,3.7,4.1,5.7,5.9c1.6,1.5,3.6,2.4,6,2.2c6.1-0.4,11.9,0.8,17,4.4C272.5,131.1,273,131.4,273.1,130.4z"/>
<path class="st4" d="M140.2,333.6c-24.5,1-49,0.3-73.6,0.7c-7,0.1-14,0.3-21.1,0.4c-2.7,0.1-3.2-0.7-2.1-3.2c2.2-5,6.7-5.6,11.4-5.9
	c4.1-0.3,8.3-0.3,12-2.8c1.2-0.8,2.2-1.8,3-3c2.7-4.3,6.8-5.9,11.5-5c5.9,1.1,11-0.4,16-3.3c3.4-1.9,7-3.5,10.7-4.5
	c5.3-1.5,10.8,0.9,14.7,6.3c4,5.6,9,8.8,16.3,8.4c6.1-0.4,11.5,2.1,15.1,7.4c0.4,0.6,0.7,1.4,0.9,2c0.7,1.8,0,2.4-1.8,2.4
	C149,333.6,144.6,333.6,140.2,333.6z"/>
<path class="st4" d="M463.7,196.6c-9.4,0-17.6,0-25.9,0c-1,0-2.4,0.6-2.8-0.6c-0.4-1.2,0.1-2.6,0.9-3.7c2-2.5,4.6-4,7.8-4.2
	c2.8-0.2,5.6-0.6,8.5-0.7c2.9-0.1,5.6-1.1,7.5-3.5c0.9-1,1.9-1.8,2.8-2.9c2.4-2.9,5.4-4.2,9.3-3.9c5.8,0.4,11.6,0.3,16.8-2.9
	c2.4-1.5,4.9-2.9,7.6-3.8c5.2-1.8,12-2.5,16.3,3.2c1.4,1.8,3.1,3.3,4.5,5.1c3.4,4.4,8.3,5.5,13.5,5.3c6.1-0.3,10.8,2.1,14.8,6.5
	c1.1,1.3,2.2,2.8,1.5,4.3c-0.6,1.3-2.4,1.2-3.8,1.2c-5.9,0-11.8,0.1-17.7,0C504.5,195.6,483.6,196.8,463.7,196.6z"/>
<path class="st5" d="M307.9,25.8c3.7,4.5,4.5,9.8,4.7,15.4c0.2,6.3,0.5,12.5,0.5,18.8c0,4.8-2.3,8.4-6.7,9.9c-2.8,1-3.4,2.6-3,5.1
	c-0.5,0.4-0.6,1-0.6,1.5c0.2,2.4-0.5,2.9-2.7,1.6c-1.9-1.2-4.2-1.7-6.2-2.7c-4.4-2.3-9.4-3.5-13.4-6.6c0-3.3-0.1-6.6-0.1-10
	c0-1.5-0.5-2.5-2-2.5c-2.5,0-4-1.1-4.6-3.4c-0.6-2.3-0.2-4.5,1.9-6.1c0.4-0.3,0.6-0.9,0.9-1.4c1.1,1.2,3.5,1.1,3.3,3.6
	c-0.1,1.1,0.5,2.1,1.7,2.3c1.2,0.2,1.9-0.7,2.4-1.7c0.4-0.9,0.9-1.9,1-2.9c0.8-4.8,1.1-9.6-0.8-14.3c-1.4-3.6,0.3-6.1,4.2-6.6
	c1.3-0.2,2.6,0.1,3.9,0.5c2.3,0.7,4.6,1.2,6.9,1.8c2.3,0.5,4.4,0.2,5.9-1.8C306,24.9,306.8,25,307.9,25.8z M291.3,67.8
	c1.9,4.2,5.8,5.2,9.7,6c0.9,0.2,1.7-0.3,1.8-1.4c0.1-0.9-0.4-1.3-1.3-1.4C297.8,70.6,294.5,69.4,291.3,67.8z M301,42.3
	c0,3.2,1.1,5.9,2.2,8.5c0.7,1.7,0.4,2.6-1.6,2.9c3.2,0.2,3.5,0,2.6-2.7C303.2,48,302,45.1,301,42.3z M296.5,41.9
	c-3.2-2.2-4.9-2.1-6.7,0C291.8,41.9,293.8,41.9,296.5,41.9z M310.5,36.6c-2.7-1.7-4.2-1.4-5.9,1.1C306.6,37.4,308.3,37,310.5,36.6z
	 M277.9,48.4c-2.8-0.3-2.9,1.7-2.9,2.8c0,1.5,0.8,2.9,3.1,3.2C275.8,52.4,275.1,50.5,277.9,48.4z M296,55.1c1,2.9,2.6,3.7,5.6,2.8
	C299.5,57.2,297.6,56.6,296,55.1z M309,45.3c-0.3-0.6-0.7-1.2-1.6-1c-0.9,0.2-1.3,0.7-1.1,1.6c0.1,0.8,0.7,1.1,1.4,1.1
	C308.4,46.8,309,46.3,309,45.3z M291.1,45.3c1.6-0.2,3.1,0.1,5.3,0.2C294.2,43.7,292.6,43.8,291.1,45.3z M309.3,41.7
	c-1.5-1.6-3.1-1.6-4.7,0.1C306.2,41.4,307.7,41.7,309.3,41.7z"/>
<path class="st3" d="M382.8,80c1.2,0.8,0.6,1.6,0.1,2.4c-4.9,9.3-9.8,18.7-14.8,27.9c-2.5,4.7-6.7,6.9-12,6.4
	c-8.1-0.8-16.2-2.2-24.2-3.6c-0.5-1.4-1.3-2.6-0.4-4.2c3.3-5.6,6.4-11.2,9.6-16.8c3.5,1.1,7.1,2.1,10.5,3.4c2.1,0.8,3.3,0.2,4.4-1.6
	c4.1-6.4,8.3-12.7,12.5-19c0.6-0.8,0.9-1.9,2.1-2.2C374.4,75.6,378.5,77.9,382.8,80z M353.8,96.5c-0.6,4,0.7,6.6,2.9,8.8
	C355.6,102.7,354.7,100.1,353.8,96.5z"/>
<path class="st0" d="M110.5,98.5c-9.1,0-15.8-6.8-15.7-15.9c0.1-8.8,6.9-15.6,15.8-15.6c8.9,0,15.8,7.1,15.8,16
	C126.3,91.8,119.4,98.5,110.5,98.5z"/>
<path class="st0" d="M433.6,54.4c-11.9-0.4-23.8-0.9-35.7-1.3c-2.4-0.1-4.7-0.2-7.1-0.3c-2.7,0.1-5.5,0.4-3.5-3.9
	c0.5-1.2-0.4-2.5-1.9-1.6c-2.5,1.5-5.4,2.4-7.2,4.9c-3.8-0.5-7.6-0.8-11.5-0.5c-2-0.6-4.5,1.1-6.2-1.2c0.2-0.2,0.3-0.4,0.5-0.6
	c-0.4-1.7,0-3.4,0-5.1c0-0.2-0.1-0.4-0.1-0.6c0,0,0.2,0,0.2,0c3.7-0.7,0.1,2.7,2,3.2c0.7-1.7,0.6-4,3.7-3.9c2.9,0.1,5.9-1,8.6-0.3
	c2.7,0.8,5.5-2.7,7.8,0.6c0,0,0.4-0.1,0.4-0.3c0.4-1.9,1.9-1,3-1.1c1.6-0.1,3.3,0.6,4.8,0.2c7.4-2.1,15,0.1,22.4-1.2
	c6.1-1,12.5,0.4,18.8-0.1C430.5,45.9,430.8,50.2,433.6,54.4z"/>
<path class="st6" d="M512.4,99.8c0.8,0.4,1.3,1.1,1.7,1.9c0.2,1.8-0.4,2.6-2.4,2.4c-1.5-0.1-3,0-4.5,0c-1.5,0.5-3,0.7-4.6,0.6
	c-0.3-0.7-0.9-0.5-1.5-0.5c-9.4,0-18.7,0-28.1,0.1c-7,0-14.1-0.1-21.1,0.1c-3.3,0.1-6.6-0.4-9.9,0.3c-0.3,0-0.6,0-0.9,0
	c0.3-3,1.9-4.5,5.4-5c2.6-0.3,5.3-0.1,7.8-1.1c2.1-0.4,3.3-2,4.6-3.6c1.5-1.8,3.4-3,5.7-2.6c5.3,1,9.8-1,14.3-3.4
	c6.6-3.4,9.3-2.8,14.2,2.5c3,5.1,7.9,5.6,13,5.2C508.3,97.6,510.4,98.5,512.4,99.8z"/>
<path class="st6" d="M548.9,423.4c0.7,1.1,0.6,2.8,2.6,2.8c2.2,0.1,2.4,2.1,2.3,3.5c-0.1,1.6-1.8,0.7-2.7,0.9c-0.5,0.1-1.1,0-1.7,0
	c-0.7,0-1.5,0-2.2,0c-0.5-1.1-1.4-1.2-2.4-1.2c-8.2,0-16.4-0.5-24.5,0.2c-3.7,0.3-7.4,0.9-11.2,0.9c-0.8,0-1.8,0.3-2.4-0.5
	c-0.9-1.4-2.3-1.2-3.6-1.2c-2.4,0-4.7,0-7.1,0c-1.6,0-2.9-0.4-3.1-2.2c-0.3-1.8,0.8-3.1,2.4-3.4c1.9-0.3,2.7-1,2.8-2.9
	c0.1-1.8,1.2-2.5,2.9-2.4c2.1,0.1,4.5-0.1,6.4,0.6c3.9,1.5,6.4-1.6,9.6-2.3c1.1-0.2,1.2-2,1.1-3.3c6.2-2.9,9.5-2.3,14,2.8
	c0.6,0.7,1.3,1.3,2,2c0.8,0.7,1.5,1.3,2.3,2c0.6,1.6,2.1,2,3.5,2.4c2.6,0.7,5.2,0.3,7.8,0.5C548.1,423,548.5,423.2,548.9,423.4z"/>
<path class="st5" d="M360.8,44.1c0,0.2,0.1,0.4,0.1,0.6c-1.7,0-3.4-0.1-5.1,0c-2.7,0.1-2.4,2.3-2.5,4c-0.1,2,1.6,1,2.5,1.1
	c1.7,0.2,3.4,0.1,5.1,0.1c-0.2,0.2-0.3,0.4-0.5,0.6c-1.6,0-3.2,0-4.8-0.1c-1.6-0.1-2.6,0.2-2.8,2.2c-0.2,2.5-1.1,4.9-2.9,6.6
	c-2.3,2.2-2.9,4.7-2.7,7.7c-0.9,0.4-0.2,3.1-1.8,2c-3.5-2.4-7.8-3.4-10.7-6.6c1.2-4.2,0.3-8.4,0-12.5c-0.2-1.6,0.6-3.2-0.6-4.7
	c0.9-1.2,1.6-2.6,2.6-3.7c1.5-1.6,2.7-3.1,5.6-2.5c2.1,0.4,4.5-0.2,6.9,0.6c2.8,0.9,6,0.9,7.8,3.9C358,44.8,359.6,43.9,360.8,44.1z"
	/>
<path class="st7" d="M341.1,92.1c-3.2,5.6-6.4,11.3-9.6,16.8c-0.9,1.6-0.1,2.9,0.4,4.2c-0.1,0.2-0.3,0.4-0.4,0.6c-0.2,0-0.4,0-0.7,0
	c-0.1-0.6,0.2-1.3-0.5-2c-1.1,1.7-2.2,3.3-3.2,5c-0.4,0.7-0.2,1.4,0,2.2c3.9,11.9,7.7,23.8,11.7,35.6c4.3,12.8,7.1,25.9,8.5,39.3
	c0.2,2.2,1.5,4.4,0.1,6.7c-0.5,0.2-1.3-0.1-1.6,0.6c-2.6-2.4-3.5-5.7-4.7-8.8c-2.7-6.5-5.9-12.8-7.9-19.6c0.5,0,0.9-0.1,1.2-0.6
	c1-0.2,1.7-0.7,2.4-1.4c2.6-2.8,1.8-6.1,1.3-9.2c-0.7-4.5-2.7-8.7-4.2-13c-3-8.7-6.1-17.3-9.1-26c-0.4-1.2-0.6-2.6-2.3-1.2
	c0-1.8,1.9-2.2,2.8-3.3c3.6-4.4,5.7-9.6,8.5-14.3c2.8-4.8,5.3-9.8,8-14.7c0.3-0.6,0.6-1.2,1.3-1.4c0,0.2,0,0.4,0,0.6
	C342.2,89.5,341.7,90.8,341.1,92.1z"/>
<path class="st8" d="M347.3,200.5c1.4-2.2,0.1-4.5-0.1-6.7c-1.3-13.4-4.1-26.5-8.5-39.3c-4-11.8-7.8-23.8-11.7-35.6
	c-0.2-0.8-0.5-1.5,0-2.2c1-1.7,2.1-3.3,3.2-5c0.7,0.6,0.4,1.3,0.5,2c0.8,2.5,1.5,5,2.3,7.6c0.2,0.8,0.2,0.8,1.3,1.4
	c4.6,17.8,10.6,35.2,14.4,53.2c1.6,7.6,1.2,15.3,1,23C349.7,200.9,348.7,200.8,347.3,200.5z"/>
<path class="st2" d="M307.9,25.8c-1-0.8-1.9-0.8-2.8,0.4c-1.5,2-3.6,2.3-5.9,1.8c-2.3-0.5-4.6-1.1-6.9-1.8c-1.3-0.4-2.6-0.6-3.9-0.5
	c-3.9,0.5-5.6,3-4.2,6.6c1.9,4.7,1.6,9.5,0.8,14.3c-0.2,1-0.6,2-1,2.9c-0.5,1-1.2,1.8-2.4,1.7c-1.2-0.2-1.8-1.2-1.7-2.3
	c0.2-2.5-2.3-2.4-3.3-3.6c-0.8-4.6-1.4-9.2,0-13.8c2.9-9.7,11.3-14.5,21.3-12.3C302,20.2,306.1,21.2,307.9,25.8z"/>
<path class="st3" d="M341,338.2c6.3,0,12.6,0,18.9,0c-0.8,3.5,2.1,4.3,4.1,5c5.1,1.7,9.8,4,14.1,7.1c-3.2,1.1-6.3,0-9.5-0.1
	c-8.5-0.2-17-0.7-25.5-1c-1.6-0.1-2.1-0.6-2.1-2.2C341.1,344.1,341,341.2,341,338.2z M349.5,340.8c-0.2-0.8-0.7-1.4-1.5-1.4
	c-1,0-1.6,0.6-1.6,1.6c0,0.9,0.6,1.4,1.5,1.4C348.8,342.4,349.3,341.7,349.5,340.8z"/>
<path class="st9" d="M378.1,52.1c1.9-2.4,4.8-3.4,7.2-4.9c1.5-0.9,2.4,0.5,1.9,1.6c-1.9,4.3,0.9,3.9,3.5,3.9c-1.1,2-0.5,4.1-0.5,6.1
	c0,3.6-1,6.7-4.2,8.8c-2,1.4-1.4,3.8-2.2,5.6c-3.1,0.6-4.9-1.9-7.3-3c-1.1-0.5-2.7-0.8-2.4-2.7c1.2-2.6-0.1-5.5,1.1-8
	c0,1.5,0,3.1,0,5.2c1.9-2.4,0.8-4.6,1.5-6.6C377.5,56.2,377.7,54.1,378.1,52.1z"/>
<path class="st4" d="M360.4,252.1c-1.5-6.1-3-12.2-4.4-18.3c1.6,0.7,2.9,1.9,3.8,3.3c2.5,3.7,5.7,5.5,10.3,5.3
	c3.9-0.2,7.3,1.2,9.2,5c0.9,1.8,0.4,2.4-1.5,2.4c-4.9-0.1-9.9,0.1-14.8-0.1C361.1,249.6,360.2,250.2,360.4,252.1z"/>
<path class="st10" d="M370.7,591.1c5.4,0.1,10.7,0.1,16.1,0.2c0.9,0.8,2,0.4,3,0.4c8.7,0,17.4,0,26.1,0.1c0,0.2-0.1,0.3-0.1,0.5
	c-25.2,0-50.4,0-75.6,0c-49.1,0-98.2,0-147.3,0c-0.7,0-1.3,0-2,0c0-0.1-0.1-0.3-0.1-0.4c1.5-0.4,3.1,0.4,4.5-0.6
	c0.2,0,0.4-0.1,0.6-0.1c8,0,16.1,0,24.1,0l0,0.2c0.6,0.6,1.4,0.4,2.2,0.4c19.8,0,39.7,0,59.5,0c19.2,0,38.4,0,57.6,0
	c9.3,0,18.6,0,27.8,0c0.8,0,1.7,0.2,2.4-0.5C369.9,591.2,370.3,591.1,370.7,591.1z"/>
<path class="st11" d="M280.6,68.7c4,3.1,9,4.3,13.4,6.6c2,1.1,4.3,1.6,6.2,2.7c2.2,1.3,2.9,0.8,2.7-1.6c0-0.6,0-1.1,0.6-1.5
	c1.2,1.2,1.8,3,3.4,3.9c-0.7,1.1,0.5,2.3,0,3.4c-1.5-0.3-2.2-2.1-3.8-2.1c-0.6,1.5-0.3,3.1-1.2,4.4c-1.8-1.1-3.8-2-5.9-2.7
	c-5.9-3.5-11.4-7.6-17.1-11.5C278.4,68.8,279.7,69,280.6,68.7z"/>
<path class="st12" d="M432.5,41.4c-6.3,0.5-12.7-0.9-18.8,0.1c-7.5,1.3-15.1-0.9-22.4,1.2c-1.5,0.4-3.2-0.2-4.8-0.2
	c-1,0-2.6-0.8-3,1.1c0,0.1-0.4,0.3-0.4,0.3c-2.3-3.3-5.1,0.1-7.8-0.6c-2.7-0.8-5.8,0.4-8.6,0.3c-3.1-0.1-2.9,2.2-3.7,3.9
	c-1.9-0.5,1.8-3.9-2-3.2c0-1.6,1.3-1.1,2.1-1.2c3.7-0.2,7.4-0.4,11.1-0.5c1.7-0.1,3.4,0.1,4.7-1.4c0.3-0.4,1.1-0.9,1.5-0.3
	c1.1,1.5,2,0.9,3.1,0.1c0.7-0.6,1.3-0.5,1.9,0.2c0.2,0.3,0.8,0.6,0.9,0.5c1.5-1.1,2.9-0.2,4.4-0.2c15.4-0.4,30.8-1.1,46.2-1.7
	c0,0.2,0,0.3,0.1,0.5c-0.5,0.9-1,1.8-1.4,2.8c-1.7,4-1,8.2,1.9,11.1c-1,1-2.3,0.2-3.4,0.7c0,0,0-0.1,0-0.1
	c-1.8-4.2-2.5-8.4-0.8-12.8C433.8,40.5,432.8,41.3,432.5,41.4z"/>
<path class="st13" d="M334.8,62.4c2.9,3.2,7.2,4.2,10.7,6.6c1.6,1.1,0.9-1.6,1.8-2c0.7,3.4,1.1,6.7-0.6,9.9
	c-5.5-3.1-11-6.2-16.5-9.3c1.6-0.1,2.1-1.3,2.7-2.5C333.4,64.1,333.6,62.9,334.8,62.4z"/>
<path class="st14" d="M415.8,592.2c0-0.1,0.1-0.3,0.1-0.5c6.6,0,13.3,0,19.9-0.1c20.9,0,41.9,0,62.8,0c19,0,37.9,0,56.9,0
	c0.8,0,1.7,0.3,2.4-0.4c11.8,0,23.5,0,35.7,0c-1.1,0.7-2,0.5-2.8,0.5c-52.8,0.9-105.7,0.5-158.5,0.6
	C426.8,592.3,421.3,592.2,415.8,592.2z"/>
<path class="st15" d="M279.3,338.3c0.2-0.1,0.3-0.1,0.5,0c0,2.8,0.1,5.7,0,8.5c-0.1,1.7,0.4,2.3,2.2,2.4c11.1,0.4,22.1,1,33.2,1.5
	c0.6,0,1.3,0.2,1.8-0.5c1,0.4,1.6,1.2,1.8,2.2c-13.1,0-26.2,0-39.3,0C279.4,347.8,279.4,343,279.3,338.3z"/>
<path class="st16" d="M341,338.2c0,2.9,0.1,5.9,0,8.8c-0.1,1.6,0.5,2.1,2.1,2.2c8.5,0.3,17,0.8,25.5,1c3.2,0.1,6.3,1.2,9.5,0.1
	c1.2,0.2,1.6,1.1,1.9,2.2c-13,0-26,0-39,0c-1-4.7-0.3-9.5-0.5-14.2C340.6,338.1,340.8,338.1,341,338.2z"/>
<path class="st17" d="M190.8,591.8c0,0.1,0,0.3,0.1,0.4c-1.3,0-2.7,0.1-4,0.1c-48.9,0-97.7,0.1-146.6-0.2c-7.7,0-15.4-0.1-23.1-0.4
	c0-0.2,0-0.4,0.1-0.6c10.3,0,20.6,0,30.9,0c0.7,0.7,1.6,0.5,2.4,0.5c15.2,0,30.4,0,45.5,0c3.8,0,7.6,0,11.4-0.1c8,0,16,0.1,24,0.1
	C151.3,591.8,171,591.8,190.8,591.8z"/>
<path class="st18" d="M330.2,67.6c5.5,3.1,11,6.2,16.5,9.3c1.1,0.7,1.8,1.4,0.8,2.9c-1.7,2.7-3.2,5.6-4.7,8.4c0-0.2,0-0.4,0-0.6
	c0.5-2.7,2.2-5,3.4-7.4c0.6-1.2,0.6-2-0.7-2.7c-4.3-2.3-8.6-4.8-12.8-7.3c-1.8-1.1-2.8-0.8-3.9,0.9c-5.2,8.7-10.4,17.4-15.6,26.1
	c-1.2,2-0.8,4.2-0.3,6.4c0.2,1.1,0.7,2.1,0.8,3.2c-1.5-1.8-2.5-3.8-2.2-6.2c0.4-2.4-0.6-3.5-2.8-3.9c-0.5-0.1-0.9-0.4-1.3-0.5
	c0-0.2,0.1-0.5,0.1-0.7c4.6,1.7,4.6,1.7,6.8-1.5c1.2-3.1,3.6-5.5,4.5-8.6c2.6-2.4,3.7-5.8,5.7-8.6C326.4,73.6,327.8,70.3,330.2,67.6
	z"/>
<path class="st19" d="M374.2,67.5c-0.2,1.8,1.3,2.2,2.4,2.7c2.4,1.1,4.2,3.6,7.3,3c1,2.5-0.4,4.5-1.1,6.7c-4.2-2.1-8.4-4.4-12.1-7.2
	C372.8,71.7,372.9,69.2,374.2,67.5z"/>
<path class="st20" d="M318.8,85.2c-0.9,3.2-3.4,5.6-4.5,8.6c0,0-0.2,0-0.2,0c-1-4.6-3.8-8.1-6.6-11.7c-0.1,0.1-0.1,0.2-0.2,0.2
	c-0.2,0-0.3,0-0.5-0.1c0.5-1.1-0.6-2.3,0-3.4C311.1,80.4,314.5,83.6,318.8,85.2z"/>
<path class="st21" d="M534,431.8c-9.1,0.1-18.2,0.1-27.3,0.3c-7.9,0.1-15.7,0.5-23.6,0.2c-2.3-0.8-4.6,0.1-6.9-0.5
	c0.6-0.1,1.3-0.3,1.9-0.4c2.3,0,4.5,0,6.8,0c16.4,0,32.7,0,49.1,0C534,431.5,534,431.6,534,431.8z"/>
<path class="st22" d="M92.6,241.6c-2.4,0-4.7,0-7.1,0.2c-1.8,0.1-2.2-0.7-1.8-2.3c0.7-3,2.7-4.7,5.5-5.6c1.9-0.6,3.9-0.9,5.9-0.8
	c4.8,0.1,8.9-1.3,11.8-5.5c2.3-3.2,5.7-3.9,9.5-3.3c0.1,0.9-0.4,0.8-0.7,0.8c-4-0.6-6.9,1.2-9.2,4.4c-2.1,2.9-5.1,4-8.6,4.3
	c-2.8,0.2-5.7,0.1-8.4,1.1c-2.7,0.9-4.7,2.4-4.7,5.6c0.8,1,1.9,0.5,2.9,0.6C89.2,241.4,91,240.7,92.6,241.6z"/>
<path class="st23" d="M493,91.5c-4.9-5.4-7.6-6-14.2-2.5c-4.5,2.4-9,4.3-14.3,3.4c-2.3-0.4-4.2,0.8-5.7,2.6
	c-1.2,1.5-2.5,3.2-4.6,3.6c-0.2-0.2-0.5-0.4-0.7-0.6c2-0.6,3.4-2,4.6-3.6c1.5-1.9,3.4-3.1,5.9-2.8c5.5,0.7,10.2-1,14.9-3.5
	c6.5-3.4,10.3-2.4,14.6,3C493.3,91.1,493.2,91.3,493,91.5z"/>
<path class="st24" d="M334.2,45.2c1.2,1.4,0.4,3.1,0.6,4.7c-2.4,0-4.9,0-7.3-0.1c0-1.5,0.1-3,0.1-4.5
	C329.7,45.3,331.9,45.3,334.2,45.2z"/>
<path class="st25" d="M558,591.3c-0.7,0.7-1.6,0.4-2.4,0.4c-19,0-37.9,0-56.9,0c0-0.2,0-0.3,0-0.5c0.4-0.1,0.8-0.1,1.2-0.2
	c18.1,0,36.3,0.1,54.4,0.1C555.5,591.2,556.7,591.2,558,591.3z"/>
<path class="st26" d="M339.3,591.7c-19.2,0-38.4,0-57.6,0c0-0.1,0-0.3,0-0.4c0.2-0.1,0.4-0.1,0.6-0.2c16.9,0,33.9,0.1,50.8,0.1
	c2.1,0,4.2,0,6.3,0.1C339.3,591.4,339.3,591.5,339.3,591.7z"/>
<path class="st27" d="M442,104.5c3.3-0.7,6.6-0.3,9.9-0.3c7-0.1,14.1,0,21.1-0.1c0.5,0.6,1.2,0.4,1.8,0.6
	c-6.5,0.9-12.9,0.4-19.4,0.5c-2,0-4-0.1-5.9-0.1C447,104.2,444.5,105.2,442,104.5z"/>
<path class="st6" d="M484.9,431.3c-2.3,0-4.5,0-6.8,0c-0.2-0.6-0.7-1.2-0.1-1.8c1-1.1,7.4-2.2,8.8-1.5c0.4,0.2,0.8,0.5,0.9,1
	c0.1,0.7-0.4,1-1,1.1C485.8,430.2,485.2,430.6,484.9,431.3z"/>
<path class="st28" d="M142.2,240.5c3.3-0.9,6.6-0.3,9.9-0.4c6.5-0.1,12.9,0,19.4,0.2c-9,0.3-18,1.2-27,0.7
	C143.9,240.3,143,240.8,142.2,240.5z"/>
<path class="st29" d="M150.4,223.4c-5.5-5.8-9.2-6.5-16.5-3.2c-3.4,1.5-6.4,3.7-10.1,4.6c-0.6,0.2-1.2,0.6-2.4-0.2
	c6.4-1.4,11.1-5.7,17.2-7c5.3-1.1,9.3,0.9,12.3,5.2C150.7,223.1,150.6,223.2,150.4,223.4z"/>
<path class="st30" d="M534.1,417.9c-0.7-0.7-1.4-1.3-2-2c-4.5-5-7.9-5.7-14-2.8c-3.5,1.2-6.5,3.8-10.3,4.3c0-0.2,0-0.4,0-0.6
	c3.9-1.8,7.8-3.9,11.8-5.4C525.9,409.1,532,411.9,534.1,417.9z"/>
<path class="st31" d="M92.6,241.6c-1.6-0.9-3.3-0.2-5-0.4c-1-0.1-2.1,0.4-2.9-0.6c6.3,0,12.6,0.1,18.9,0.1c2.6,1,5.4,0,8,0.5
	C105.3,241.8,98.9,241.7,92.6,241.6z"/>
<path class="st32" d="M339.3,591.7c0-0.2,0-0.3,0-0.5c10.1,0,20.2,0,30.3,0c-0.7,0.7-1.6,0.5-2.4,0.5
	C357.9,591.7,348.6,591.7,339.3,591.7z"/>
<path class="st33" d="M474.8,104.7c-0.6-0.2-1.3,0-1.8-0.6c9.4,0,18.7-0.1,28.1-0.1c0.5,0,1.2-0.2,1.5,0.5
	C493.3,104.7,484,104.7,474.8,104.7z"/>
<path class="st34" d="M437,40.1c0-0.2,0-0.3-0.1-0.5c2.7,0.4,2.9,2.9,3.3,4.7c0.5,2.2,0.5,4.7-0.2,7c-1.2,3.8-1.9,4.2-6,3.2
	c1.1-0.5,2.4,0.3,3.4-0.7c0-0.2,0-0.4,0.1-0.6c2.2-2.5,2.7-5.4,1.7-8.6c-0.1-1.5-0.7-2.8-1.7-3.9C437.4,40.6,437.2,40.3,437,40.1z"
	/>
<path class="st35" d="M453.5,97.9c0.2,0.2,0.5,0.4,0.7,0.6c-2.5,1-5.2,0.8-7.8,1.1c-3.5,0.4-5.1,2-5.4,5c-0.2,0.2-0.4,0.4-0.7,0.6
	c-0.8-2.8,1-5.5,4.5-6.2C447.8,98.4,450.7,98.2,453.5,97.9z"/>
<path class="st36" d="M161.1,229.8c5.2-0.3,10.1,0.6,14.1,4.4c-4.5-3.9-10.1-3-15.3-3.8C160.3,230.2,160.7,230,161.1,229.8z"/>
<path class="st37" d="M547.2,430.7c0.7,0,1.5,0,2.2,0c2.2,1.2,4.6,0.1,7.6,1c-4.8,0-8.8,0-12.8,0c-1.8-1-3.9-0.1-5.7-0.6
	C541.4,430.3,544.3,431,547.2,430.7z"/>
<path class="st38" d="M432.5,41.4c0.4,0,1.4-0.9,0.9,0.3c-1.7,4.4-1,8.6,0.8,12.8c-0.2,0-0.4,0-0.6-0.1
	C430.8,50.2,430.5,45.9,432.5,41.4z"/>
<path class="st35" d="M497.5,417.7c-1.9,1-3.4,2.4-4.7,4c-1.4,1.7-3.1,3-5.5,3c4.4-1.3,5.5-6.8,10.1-7.7
	C497.5,417.3,497.5,417.5,497.5,417.7z"/>
<path class="st39" d="M111.6,241.2c-2.6-0.6-5.4,0.4-8-0.5c7.2,0,14.4,0,21.6,0c0,0.2,0,0.3,0,0.5
	C120.6,241.1,116.1,241.2,111.6,241.2z"/>
<path class="st40" d="M125.2,241.1c0-0.2,0-0.3,0-0.5c5.7,0,11.4-0.1,17-0.1c0.7,0.3,1.6-0.1,2.3,0.5
	C138.1,241,131.6,241.1,125.2,241.1z"/>
<path class="st41" d="M145.2,84.8c-3.8-0.4-7.5-0.8-12.1-1.3C137.5,82.5,142,83,145.2,84.8z"/>
<path class="st42" d="M493,91.5c0.2-0.2,0.3-0.3,0.5-0.5c3.1,4.5,7.6,5.4,12.6,5.2c0,0.2,0,0.4,0,0.6C500.9,97.1,496,96.6,493,91.5z
	"/>
<path class="st43" d="M547.7,422.8c-2.6-0.2-5.2,0.2-7.8-0.5c-1.5-0.4-2.9-0.7-3.5-2.4c3.7,2.4,7.9,1.6,11.9,2.3
	C548.1,422.4,547.9,422.6,547.7,422.8z"/>
<path class="st44" d="M547.7,422.8c0.2-0.2,0.4-0.4,0.6-0.6c5.6,1.5,8.8,4.3,9,8.1c-1.6-3.8-4.5-6-8.4-6.9
	C548.5,423.2,548.1,423,547.7,422.8z"/>
<path class="st45" d="M161.1,229.8c-0.4,0.2-0.8,0.4-1.2,0.6c-4.6-0.4-7-3.8-9.5-7c0.2-0.2,0.3-0.3,0.5-0.5c1.6,1.6,3.1,3.3,4.8,4.9
	C157.1,229.2,159.1,229.7,161.1,229.8z"/>
<path class="st46" d="M85.3,83.9c-3,0.3-6,0.6-9,0.9c0-0.3-0.1-0.5-0.1-0.8c3-0.6,6.1-0.9,9.1-1C85.3,83.3,85.3,83.6,85.3,83.9z"/>
<path class="st47" d="M472.5,430.7c1-3.8,3.6-5.7,7.2-5.1c-3.1,1.3-6.7,1.8-6,6.1C472.9,431.8,472.9,431,472.5,430.7z"/>
<path class="st48" d="M334.3,122.7c-1-0.6-1-0.6-1.3-1.4c-0.8-2.5-1.5-5-2.3-7.6c0.2,0,0.4,0,0.7,0
	C333.2,116.5,333.6,119.6,334.3,122.7z"/>
<path class="st49" d="M96.1,63.3c-1.6-2.6-3.3-5.3-4.9-7.9C93.8,57.4,95.3,60.1,96.1,63.3z"/>
<path class="st50" d="M139.7,71.4c-2.7,0.6-5.4,1.3-8.1,1.9C134.1,71.9,136.6,70.7,139.7,71.4z"/>
<path class="st51" d="M121.2,101.8c1.8,2.8,2.9,5.8,2.5,9.2C122.8,107.9,122,104.8,121.2,101.8z"/>
<path class="st52" d="M110.5,61.6c0-4.3,0-8.6,0-12.9c0.1,0,0.2,0,0.3,0c0,4.3,0,8.7,0,13C110.7,61.7,110.6,61.7,110.5,61.6z"/>
<path class="st53" d="M327.5,45.3c0,1.5-0.1,3-0.1,4.5c-0.2,0.3-0.5,0.6-0.7,0.9c0.1-1.8,0.5-3.6-0.7-5.8c-0.6,2.3-0.5,4-0.4,5.7
	c-1.2-1.7-0.9-3.7-0.6-5.4C325.5,43.4,326.7,43.9,327.5,45.3z"/>
<path class="st54" d="M126.9,52.9c-0.9,3.1-2.7,5.6-4.5,8.2c-0.2-0.1-0.4-0.3-0.6-0.4C123.5,58.1,125.2,55.5,126.9,52.9z"/>
<path class="st55" d="M139.5,99.8c-2.6-1.6-5-3.5-6.9-5.9C135.3,95.4,137.6,97.4,139.5,99.8z"/>
<path class="st56" d="M79.1,68c2.8,0.8,5.7,1.7,8.5,2.5C84.5,70.6,81.6,69.9,79.1,68z"/>
<path class="st57" d="M108.5,105.8c0,3.8,0,7.6,0,11.4c-0.1,0-0.2,0-0.3,0c0-3.8,0-7.6,0-11.4C108.3,105.8,108.4,105.8,108.5,105.8z
	"/>
<path class="st58" d="M472.5,430.7c0.5,0.3,0.5,1.1,1.2,1c0.9,0,1.7,0,2.6,0c2.3,0.6,4.7-0.3,6.9,0.5c-3.1,0.1-6.2,0.1-9.3,0.2
	C472.5,432.5,472.2,431.9,472.5,430.7z"/>
<path class="st59" d="M325.7,50.7c-0.1-1.7-0.2-3.5,0.4-5.7c1.1,2.2,0.7,4,0.7,5.8C326.4,51.1,326,51.1,325.7,50.7z"/>
<path class="st60" d="M17.3,591.2c0,0.2,0,0.4-0.1,0.6c-3.6,0-7.2,0-10.8,0C10,590.5,13.7,591.4,17.3,591.2z"/>
<path class="st61" d="M497.5,417.7c0-0.2,0-0.4,0-0.6c3.4,0,6.8-0.1,10.2-0.1c0,0.2,0,0.4,0,0.6
	C504.4,418.1,500.9,417.3,497.5,417.7z"/>
<path class="st62" d="M538.5,431.2c1.9,0.5,3.9-0.4,5.7,0.6c-3.4,0-6.8,0-10.2,0c0-0.2,0-0.3,0-0.5
	C535.5,431.3,537,431.2,538.5,431.2z"/>
<path class="st63" d="M506.1,96.7c0-0.2,0-0.4,0-0.6c2.5,0.6,5,1,6.3,3.6C510.4,98.5,508.3,97.6,506.1,96.7z"/>
<path class="st64" d="M89,96.7c-1.6,1.3-3.2,2.6-4.7,3.9C85.1,98.4,86.9,97.4,89,96.7z"/>
<path class="st65" d="M507.1,104.1c1.5,0,3-0.1,4.5,0c1.9,0.2,2.6-0.6,2.4-2.4c1.2,1.8,1,3.1-1.5,2.9
	C510.7,104.5,508.8,105.3,507.1,104.1z"/>
<path class="st66" d="M98,103.4c-0.3,2-1.4,3.5-3,5.5C95.4,106.2,96.8,104.8,98,103.4z"/>
<path class="st67" d="M440.4,105.1c0.2-0.2,0.4-0.4,0.7-0.6c0.3,0,0.6,0,0.9,0c2.4,0.7,5-0.3,7.4,0.6
	C446.4,105.1,443.4,105.1,440.4,105.1z"/>
<path class="st6" d="M340.5,338.2c0.2,4.7-0.5,9.5,0.5,14.2c-7.4,0-14.8,0-22.2,0c-0.2-1.1-0.8-1.8-1.8-2.2
	c-5.1-3.6-10.8-5.9-16.5-8.2c-1.1-0.5-1.8-1.1-1.9-2.5c-0.2-1.7,1.5-1.1,1.9-1.9c0.8-9.8,1.5-19.7,2.3-29.5c1.5-18.7,5.2-37,10.4-55
	c1.4-0.6,1-3.1,3.3-2.9c4.8,0.3,9.6,0,14.3-0.5c3.8,7.4,5.5,15.3,5.7,23.7c0.5,20.7,1.6,41.4,2.4,62.1
	C338.9,336.7,338.6,338.1,340.5,338.2z"/>
<path class="st6" d="M68.7,591.1c6.5-6.8,13.5-13.1,20.3-19.5c0.4-0.4,0.9-0.8,1.3-1.1c7-6.8,14-13.7,21.1-20.4
	c9.2-8.6,18.2-17.5,27.4-26.2c8.4-8.1,16.9-16.1,25.3-24.2c8.3-7.9,16.6-15.8,25-23.8c3.4-3.2,6.8-6.4,10.1-9.7
	c1.3-1.3,2.3-1.5,3.5,0c2.6,3.2,6.4,5.4,8.3,9.2c-9.9,10-19.8,20-29.7,30c-27.5,27.7-55.1,55.5-82.6,83.2c-0.7,0.7-1.3,1.6-2,2.4
	c-0.2,0-0.4,0.1-0.5,0.2C86.9,591.1,77.8,591.1,68.7,591.1z"/>
<path class="st6" d="M340.4,468c-0.1,1.3-1.2,1.9-2,2.7c-15.4,15.6-30.8,31.2-46.2,46.8c-2,2-3.7,4.2-5.7,6.2
	c-1.2,1.2-0.3,1.8,0.4,2.5c2,1.6,3.8,3.4,5,5.7c0.9,1.5,0.5,2.2-1.3,2.2c-2.1,0-4.1,0-6.2,0.1c-7.4,0.1-14.8-0.2-22.2,0.5
	c-3.6,0-7.3,0.1-10.9,0.1c-8,0-16,0-24,0c-2.6,0-5.1-0.1-7.7-0.1c-6.8,0.2-13.6-0.2-20.4,0.5c-3.2,0-6.4,0.1-9.6,0.1
	c-2.2,0-4.4-0.1-6.5-0.1c-2.8,0-3.3-0.8-1.8-3.3c1.8-3.2,5-4.1,8.3-4.7c2.1-0.1,4.2-0.3,6.2-0.4c4.5-0.2,8.4-1.7,11.1-5.5
	c2.8-4,6.6-5.5,11.3-4.9c6.1,0.9,11.6-0.7,16.9-3.7c3.3-1.9,6.7-3.5,10.5-4.4c5-0.9,9,0.8,12.2,4.6c0.8,0.9,1.7,1.8,2.5,2.7
	c1.5,2.1,3.1,4.1,5.4,5.3c1.9-2,3.7-4.1,5.6-6c18.5-18.7,37.1-37.3,55.6-56.1c1.6-1.6,2.5-2,4.2-0.1
	C334.1,461.9,337.3,464.9,340.4,468z M277.2,522.7c2.6-1.2,5.1-3,8.3-2.3c0.3,0.1,0.6,0,0.8-0.2c2.8-2.8,5.6-5.5,8.2-8.5
	c1.3-1.5,1.7-4.2,3.3-5c2-1,3.4-2.2,4.9-3.7c1-1.1,0.8-2.6,1.8-3.4c3.6-2.6,5.8-6.7,9.8-8.9c1.4-0.8,2.7-1.9,3.8-3.3
	c3.3-4.3,6.5-8.7,11.2-11.7c3.9-2.5,4.5-4.4,3.6-8.9c-0.2-1.1-0.3-2.1-1.7-2.2c-1.6-0.1-4.2-0.1-4.3,1.2c-0.2,4.2-6.6,3.5-6.1,8
	c0,0.2-1.3,0.9-2,0.8c-2.8-0.2-2.5,1.9-2.8,3.6c-0.5,2.3-4,0.1-4.3,2.8c0,0.1,0,0.2,0,0.3c-2.2,3.2-5.1,5.7-7.9,8.1
	c-0.9,0.8-1.6,1.4-2.3,2.4c-2,2.6-4.6,4.8-6.9,7.1c-1.2,1.1-3,1.4-3.1,3.6c0,0.9-1.1,1.5-2.2,1.5c-0.9,0-1.8,0.1-2,1.2
	c-1.1,4.3-5.5,5.5-8,8.6c-2.1,2.6-5.1,4.5-4.7,8.4c-1.8,0-3.7,0-5.5,0C271.9,523,274.6,522.7,277.2,522.7z"/>
<path class="st6" d="M220,591.1c-8,0-16.1,0-24.1,0c6.6-6.8,13.2-13.6,19.9-20.3c11.1-11.3,22.3-22.5,33.5-33.7
	c0.5-0.5,1-1.1,1.5-1.7c0.2-0.1,0.4-0.1,0.6-0.2c3.6,0,7.2,0,10.8,0c4.2,0,8.4,0,12.6,0.1c-5.6,5.7-11.3,11.2-16.7,17.1
	C245.8,565.6,232.5,577.9,220,591.1z"/>
<path class="st68" d="M245.7,508.3c-3.8,0.8-7.2,2.4-10.5,4.4c-5.3,3.1-10.8,4.6-16.9,3.7c-4.8-0.7-8.5,0.9-11.3,4.9
	c-2.7,3.8-6.6,5.3-11.1,5.5c-2.1,0.1-4.2,0.2-6.2,0.4c-0.4-0.2-0.8-0.3-1.2-0.5c2.8-1.2,5.8-0.5,8.7-0.9c3.7-0.6,6.8-1.8,9-4.8
	c3.5-4.8,8.1-6.4,13.9-5.2c4.2,0.8,8.2-0.5,12.1-2.4c3.7-1.8,7.2-4.2,11.3-5.2c0.7-0.2,1.5-0.2,2.2-0.3
	C245.7,507.9,245.7,508.1,245.7,508.3z"/>
<path class="st69" d="M190.8,591.8c-19.8,0-39.5-0.1-59.3-0.1c-8,0-16-0.1-24-0.1c0-0.1,0-0.3,0-0.4c13.4,0,26.8-0.1,40.2-0.1
	c15.9,0,31.7,0,47.6,0.1C193.9,592.2,192.3,591.4,190.8,591.8z"/>
<path class="st70" d="M188.4,526.6c0.4,0.2,0.8,0.3,1.2,0.5c-3.3,0.6-6.5,1.5-8.3,4.7c-1.4,2.5-1,3.3,1.8,3.3c2.2,0,4.4,0.1,6.5,0.1
	c0,0.2,0,0.3,0,0.5c-2.6,0.1-5.3,0-7.9,0.2c-2.1,0.2-2.5-0.7-2.1-2.5C180.6,529.7,183.9,527.1,188.4,526.6z"/>
<path class="st71" d="M199.3,535.1c6.8-0.7,13.6-0.3,20.4-0.5c2.6-0.1,5.1,0,7.7,0.1c-0.4,0.3-0.7,0.6-1.1,0.8c-1.2,0-2.4,0-3.6,0
	c-6.6-0.7-13.3-0.2-19.9-0.2C201.6,535.3,200.5,535.2,199.3,535.1z"/>
<path class="st72" d="M226.3,535.6c0.4-0.3,0.7-0.6,1.1-0.8c8,0,16,0,24,0c0,0.2,0,0.3,0,0.5c-0.2,0.1-0.4,0.1-0.6,0.2
	c-7.4,0-14.8-0.4-22.2,0.3C227.9,535.7,227.1,535.6,226.3,535.6z"/>
<path class="st73" d="M245.7,508.3c0-0.2,0-0.4,0-0.6c3.8-1.3,7.2-0.3,10.2,2.1c1.8,1.4,3.3,3,4.6,4.9c0,0.3-0.1,0.6-0.1,0.8
	c-0.8-0.9-1.7-1.7-2.5-2.7C254.7,509.1,250.7,507.4,245.7,508.3z"/>
<path class="st74" d="M202.8,535.4c6.6,0,13.3-0.5,19.9,0.2c-6.6,0-13.3,0.1-19.9,0.1C202.8,535.6,202.8,535.5,202.8,535.4z"/>
<path class="st75" d="M202.8,535.4c0,0.1,0,0.2,0,0.3c-4.4,0-8.7,0-13.1,0c0-0.2,0-0.3,0-0.5c3.2,0,6.4-0.1,9.6-0.1
	C200.5,535.2,201.6,535.3,202.8,535.4z"/>
<path class="st76" d="M107.5,591.2c0,0.1,0,0.3,0,0.4c-3.8,0-7.6,0-11.4,0.1c0-0.2,0-0.3,0-0.5c0.2-0.1,0.3-0.2,0.5-0.2
	C100.2,591.1,103.9,591.2,107.5,591.2z"/>
<path class="st77" d="M260.4,515.5c0-0.3,0.1-0.6,0.1-0.8c1.6,2.2,4.1,3.7,5.3,6.2C263.5,519.6,261.9,517.6,260.4,515.5z"/>
<path class="st78" d="M96.1,591.2c0,0.2,0,0.3,0,0.5c-15.2,0-30.3,0-45.5,0c-0.8,0-1.7,0.3-2.4-0.5c6.8-0.1,13.7-0.1,20.5-0.2
	C77.8,591.1,86.9,591.1,96.1,591.2z"/>
<path class="st6" d="M436.4,591.1c4.1-4.3,9-7.7,13.4-11.7c2.9-2.7,6.1-5,9.1-7.7c0.9-0.8,1.4-0.8,2.3,0
	c6.5,6.5,13.5,12.4,19.6,19.3C466.1,591.1,451.3,591.1,436.4,591.1z"/>
<path class="st10" d="M436.4,591.1c14.8,0,29.7,0,44.5,0c5.9,0.1,11.8,0.1,17.7,0.2c0,0.2,0,0.3,0,0.5c-20.9,0-41.9,0-62.8,0
	c0-0.1,0-0.3,0-0.4C436,591.2,436.2,591.1,436.4,591.1z"/>
<path class="st79" d="M435.8,591.3c0,0.1,0,0.3,0,0.4c-6.6,0-13.3,0-19.9,0.1c-8.7,0-17.4,0-26.1-0.1c-1,0-2.1,0.3-3-0.4
	C403.1,591.3,419.5,591.3,435.8,591.3z"/>
<path class="st3" d="M300.5,337.6c-0.4,0.9-2,0.3-1.9,1.9c0.2,1.4,0.8,2,1.9,2.5c5.7,2.3,11.4,4.6,16.5,8.2
	c-0.5,0.7-1.2,0.5-1.8,0.5c-11.1-0.5-22.1-1.1-33.2-1.5c-1.8-0.1-2.3-0.7-2.2-2.4c0.1-2.8,0-5.7,0-8.5c4,0,8-0.1,11.9-0.1
	C294.7,338.2,297.6,338.2,300.5,337.6z M286.6,342.3c0.9,0,1.5-0.5,1.5-1.3c0.1-1-0.6-1.6-1.5-1.6c-1,0-1.5,0.6-1.5,1.6
	C285.2,341.9,285.8,342.3,286.6,342.3z"/>
<path class="st80" d="M283.4,203.4c9.8,0.5,19.6,1.7,29.5,1.7c2.5,0,4.9-0.3,7.4-0.6c2.2-0.3,3.5-1.5,4.3-3.6
	c2.4-6.5,3.1-13.2,3.9-20c0.3-2.3,0.4-4.5,0.6-6.8c0.1-1.2,0.6-1.5,1.6-1.3c-0.3,3-0.7,6-1.1,9c-0.8,6.3-1.4,12.6-2.4,18.8
	c-0.8,4.5-4.9,7.5-9.5,8.1c-10.3,1.3-20.4-0.3-30.5-1.1c-0.9-0.1-1.9-0.1-2.9-0.1c-0.9,0-1.8-0.2-1.9-1.3
	C282.2,205.1,281.7,203.8,283.4,203.4z"/>
<path class="st81" d="M320.5,222.2c1.9,2.3,2.3,5.3,3.4,7.9c1.3,3.2,2.3,6.5,3.5,9.8c0.1,1.4-0.6,2.5-1.7,3c-2,1-4.2,1.5-6.5,1.6
	c-1.9,0.1-2.9-0.5-2.7-2.5c0.2-1.4,0.4-2.8,0.7-4.2C318.4,232.7,318.7,227.3,320.5,222.2z"/>
<path class="st82" d="M316.4,242.1c-0.2,2,0.8,2.6,2.7,2.5c2.3-0.1,4.5-0.6,6.5-1.6c1.1-0.6,1.8-1.6,1.7-3c1.4,3.2,2.8,6.3,3.4,9.7
	c-4.8,0.5-9.5,0.8-14.3,0.5c-2.3-0.2-1.9,2.3-3.3,2.9c0.2-1.1,0.4-2.2,0.5-3.3c0.6-0.2,0.8-0.5,1-1.2
	C315.2,246.4,315.8,244.3,316.4,242.1z"/>
<path class="st83" d="M316.4,242.1c-0.6,2.2-1.3,4.3-1.8,6.5c-0.1,0.6-0.3,1-1,1.2c1.3-6.3,2.6-12.5,3.9-18.8
	c1.5-7.5,3-14.9,5.2-22.3c-0.8,4.5-1.5,9-2.3,13.5c-1.8,5.1-2.1,10.5-3.4,15.7C316.8,239.3,316.6,240.7,316.4,242.1z"/>
<path class="st84" d="M281.7,591.3c0,0.1,0,0.3,0,0.4c-19.8,0-39.7,0-59.5,0c-0.7,0-1.5,0.1-2.2-0.4c11.1,0,22.2-0.1,33.3-0.1
	C262.7,591.2,272.2,591.2,281.7,591.3z"/>
<path class="st85" d="M274.8,535.2c-4.2,0-8.4,0-12.6-0.1c0-0.2,0-0.4,0.1-0.5c7.4-0.7,14.8-0.4,22.2-0.5c-0.5,1.3-1.6,1-2.6,1
	C279.5,535.2,277.1,535.2,274.8,535.2z"/>
<path class="st86" d="M291.9,531.9c-1.3-2.3-3-4.1-5-5.7C289.6,526.6,291.5,528.7,291.9,531.9z"/>
<path class="st87" d="M322.8,133.2c-8.3-2.2-16.9-3.6-24.9-6.9c-9.8-4.1-19.1-9.2-28.2-14.8c3.3,1,6.6,1.9,9.8,2.9
	c10.6,3.5,21.4,6.4,32.4,8.4c3,0.5,5.7-0.6,8.6-0.6c-1,0.8-0.3,1.7-0.1,2.6C321.2,127.6,322,130.4,322.8,133.2z"/>
<path class="st88" d="M322.2,121.3c1.7-1.4,1.9,0,2.3,1.2c3,8.7,6.1,17.3,9.1,26c1.5,4.3,3.5,8.4,4.2,13c0.5,3.1,1.3,6.4-1.3,9.2
	c-0.7,0.7-1.4,1.2-2.4,1.4c-4.4,0-4.4,0-4.5-4.5c0-1.6-0.2-3.2-0.3-4.8c0.2-1.1,0.4-2.2,0.7-3.3c1.6-5,1.4-9.8-0.6-14.6
	c-0.2-0.4-0.3-0.9-0.4-1.4c-2.4-7.3-4.1-14.7-6.8-21.9L322.2,121.3z"/>
<path class="st89" d="M322.2,121.5c2.7,7.2,4.4,14.6,6.8,21.9c0.1,0.4,0.2,0.9,0.4,1.4c2,4.8,2.3,9.7,0.6,14.6
	c-0.3,1.1-0.5,2.2-0.7,3.3c-1.3-8.9-3.2-17.6-5.5-26.3c-0.3-1.1-0.7-2.1-1.1-3.2c-0.8-2.8-1.5-5.6-2.3-8.4c-0.2-0.9-0.9-1.8,0.1-2.6
	C321.1,122,321.7,121.8,322.2,121.5z"/>
<path class="st87" d="M318.8,169.8c-0.2,2.1-0.4,4.1-0.6,6.2c-0.1,1.3-0.8,2-2,1.7c-4.3-1-8.7-0.5-13-0.4c-3.9,0-7.7-0.8-11.6-0.6
	c-2.6,0.1-1.9-1-0.8-2.3c0.8,0.9,2,0.5,3,0.6c4.4,0.2,8.9-0.2,13.3,0.5c3,0.4,6.2,0.5,9-0.3C318,174.6,317.4,171.3,318.8,169.8z"/>
<path class="st90" d="M318.8,169.8c-1.4,1.6-0.7,4.8-2.7,5.3c-2.8,0.8-6.1,0.7-9,0.3c-4.5-0.7-8.9-0.3-13.3-0.5
	c-1-0.1-2.1,0.4-3-0.6c7.5,0,15,0,22.5,0c2.2,0,5.4-4.3,4.6-6.2c-0.5-1.2-2-1.2-3.2-1.2c-5,0-10.1,0-15.1,0c-2.6,0-5.2,0-8,0
	c0.9-0.9,1.9-0.5,2.8-0.5c7.1,0,14.3,0,21.4,0C319.3,166.3,319.3,166.3,318.8,169.8z"/>
<path class="st91" d="M307.5,95.4c0,0.2-0.1,0.5-0.1,0.7c-9.6-3.9-19.2-7.9-28.8-11.8c-4.2-1.7-7.9,0-11.7,1.5l0,0
	c2.9-2.8,6.5-3.5,10.2-2.5c7.6,2,14.7,5.4,22,8.3c0.8,0.3,1.6,0.8,2.4,0.9c0.9,0.1,0.3-0.6,0.3-0.9l0,0c2.1,0,2.9,2.2,4.6,2.8
	c0.4,0.3,0.9,0.5,1.3,0.8C307.5,95.1,307.5,95.4,307.5,95.4z"/>
<path class="st92" d="M307.5,95.1c-0.4-0.3-0.9-0.5-1.3-0.8c-2.5-3.9-5.6-7.2-9.1-10.3c1.7-0.8,2.6,1,4,1.1c0.6,0.1,1.1,1.2,1.8,0.1
	C307.1,87.3,307.5,91.2,307.5,95.1z"/>
<path class="st91" d="M301.6,91.5c-6-2.3-11.3-6-16.9-9.2c-1.9-1.1-4.1-1.8-5.4-3.9c3.9,2.2,7.9,4.2,11.7,6.5
	C294.7,87.1,298.5,88.7,301.6,91.5C301.6,91.5,301.6,91.5,301.6,91.5z"/>
<path class="st93" d="M287.5,151.7c8.9-0.4,17.8,0.8,26.7,1.7C305.3,153,296.4,153.1,287.5,151.7z"/>
<path class="st94" d="M301.1,85.2c-1.4-0.1-2.3-1.9-4-1.1c-0.9-0.4-1.9-0.8-1.3-2.2c2,0.7,4,1.5,5.9,2.7
	C301.5,84.8,301.3,85,301.1,85.2z"/>
<path class="st91" d="M266.8,85.8c-1.4,2-2.8,3.9-4.2,5.9C263.5,89.4,264,86.8,266.8,85.8C266.8,85.8,266.8,85.8,266.8,85.8z"/>
<path class="st95" d="M291.3,67.8c3.3,1.6,6.6,2.8,10.2,3.1c0.9,0.1,1.4,0.5,1.3,1.4c-0.1,1.1-0.9,1.6-1.8,1.4
	C297,73,293.2,72.1,291.3,67.8z"/>
<path class="st96" d="M301,42.3c1.1,2.9,2.2,5.8,3.2,8.7c0.9,2.7,0.6,3-2.6,2.7c1.9-0.3,2.3-1.2,1.6-2.9C302,48.1,301,45.4,301,42.3
	z"/>
<path class="st97" d="M296.5,41.9c-2.7,0-4.7,0-6.7,0C291.5,39.8,293.3,39.7,296.5,41.9z"/>
<path class="st98" d="M310.5,36.6c-2.2,0.4-4,0.8-5.9,1.1C306.3,35.2,307.8,34.8,310.5,36.6z"/>
<path class="st99" d="M277.9,48.4c-2.8,2.2-2.1,4,0.2,6c-2.3-0.2-3.1-1.6-3.1-3.2C275,50.1,275.1,48.1,277.9,48.4z"/>
<path class="st100" d="M296,55.1c1.7,1.6,3.5,2.1,5.6,2.8C298.5,58.7,297,58,296,55.1z"/>
<path class="st101" d="M309,45.3c0,1-0.5,1.5-1.4,1.6c-0.7,0.1-1.3-0.3-1.4-1.1c-0.1-0.9,0.3-1.5,1.1-1.6
	C308.3,44,308.7,44.7,309,45.3z"/>
<path class="st102" d="M291.1,45.3c1.6-1.5,3.2-1.6,5.3,0.2C294.2,45.4,292.6,45.1,291.1,45.3z"/>
<path class="st103" d="M309.3,41.7c-1.6,0-3.1-0.3-4.7,0.1C306.3,40,307.8,40.1,309.3,41.7z"/>
<path class="st6" d="M374.2,67.5c-1.3,1.7-1.3,4.2-3.5,5.2c-1.2,0.3-1.5,1.4-2.1,2.2c-4.2,6.3-8.4,12.6-12.5,19
	c-1.2,1.8-2.3,2.4-4.4,1.6c-3.4-1.3-7-2.3-10.5-3.4c0.6-1.3,1.1-2.6,1.7-3.9c1.6-2.8,3-5.7,4.7-8.4c0.9-1.5,0.3-2.2-0.8-2.9
	c1.8-3.2,1.3-6.6,0.6-9.9c-0.3-3,0.4-5.5,2.7-7.7c1.8-1.7,2.7-4.2,2.9-6.6c0.2-2,1.1-2.3,2.8-2.2c1.6,0.1,3.2,0,4.8,0.1
	c1.7,2.3,4.2,0.6,6.2,1.2c0.5,0.1,1.1,0.3,1.6,0.4c2.3,0.3,5.5-0.9,6.7,0.7c1.1,1.4,0.2,4.5,0.2,6.8C374.1,62.1,375.4,65,374.2,67.5
	z"/>
<path class="st104" d="M353.8,96.5c0.9,3.6,1.8,6.2,2.9,8.8C354.5,103,353.2,100.5,353.8,96.5z"/>
<path class="st105" d="M361,49.9c-1.7,0-3.4,0.1-5.1-0.1c-0.9-0.1-2.6,0.9-2.5-1.1c0.1-1.6-0.2-3.9,2.5-4c1.7-0.1,3.4,0,5.1,0
	C361,46.4,360.6,48.2,361,49.9z"/>
<path class="st106" d="M375.3,59.5c0-2.3,0.9-5.3-0.2-6.8c-1.2-1.6-4.4-0.4-6.7-0.7c-0.5-0.1-1.1-0.3-1.6-0.4
	c3.8-0.3,7.7-0.1,11.5,0.5c-0.4,2-0.7,4.1-1.4,6c-0.7,2,0.4,4.2-1.5,6.6C375.3,62.6,375.3,61,375.3,59.5z"/>
<path class="st107" d="M349.5,340.8c-0.2,0.9-0.7,1.6-1.7,1.5c-0.9,0-1.5-0.5-1.5-1.4c0-1,0.6-1.6,1.6-1.6
	C348.8,339.4,349.3,340,349.5,340.8z"/>
<path class="st108" d="M301.1,85.2c0.2-0.2,0.4-0.4,0.6-0.6c0.9-1.3,0.6-2.9,1.2-4.4c1.6,0.1,2.3,1.8,3.8,2.1c0.2,0,0.3,0,0.5,0.1
	c0,0.4-0.1,0.9-0.1,1.3c-1.2-0.7-2.3-1.4-3.6-2.2c-0.2,1.4-0.4,2.6-0.6,3.7C302.3,86.4,301.7,85.3,301.1,85.2z"/>
<path class="st109" d="M437.6,53.3c0,0.2,0,0.4-0.1,0.6c-2.9-2.9-3.6-7-1.9-11.1c0.4-0.9,0.9-1.8,1.4-2.8c0.2,0.2,0.4,0.5,0.6,0.7
	c-0.2,0.5-0.5,1-0.7,1.5C435,46.1,435.5,49.7,437.6,53.3z"/>
<path class="st110" d="M302.9,85.3c0.2-1.2,0.4-2.3,0.6-3.7c1.3,0.8,2.4,1.5,3.6,2.2c-0.3,1.1,0.1,2.1,0.7,2.9
	c1.9,2.5,3.7,5.1,6.2,7.2c0,0,0.2,0,0.2,0c-2.2,3.3-2.2,3.3-6.8,1.5c0,0,0.1-0.3,0.1-0.3C307.5,91.2,307.1,87.3,302.9,85.3z"/>
<path class="st111" d="M314,93.8c-2.4-2.1-4.2-4.7-6.2-7.2c-0.6-0.8-1-1.8-0.7-2.9c0-0.4,0.1-0.9,0.1-1.3c0.1-0.1,0.1-0.2,0.2-0.2
	C310.2,85.7,313,89.3,314,93.8z"/>
<path class="st112" d="M437.6,53.3c-2.1-3.5-2.5-7.2-0.7-10.9c0.2,1.2,0.4,2.4,0.6,3.6c0.1,0.7-0.4,2,0.9,2c1.2-0.1,0.7-1.3,0.8-2.1
	c0.1-0.4,0-0.8,0-1.1C440.3,47.8,439.8,50.7,437.6,53.3z"/>
<path class="st113" d="M439.3,44.7c0,0.4,0,0.8,0,1.1c-0.1,0.8,0.4,2-0.8,2.1c-1.3,0.1-0.8-1.2-0.9-2c-0.2-1.2-0.4-2.4-0.6-3.6
	c0.2-0.5,0.5-1,0.7-1.5C438.6,41.9,439.2,43.2,439.3,44.7z"/>
<path class="st6" d="M274.8,522c-0.4-3.9,2.6-5.8,4.7-8.4c2.5-3.1,6.9-4.3,8-8.6c0.3-1,1.1-1.2,2-1.2c1.1,0,2.1-0.6,2.2-1.5
	c0.1-2.2,1.9-2.5,3.1-3.6c2.4-2.3,4.9-4.4,6.9-7.1c0.7-0.9,1.5-1.6,2.3-2.4c2.8-2.5,5.7-5,7.9-8.1c0-0.1,0-0.2,0-0.3
	c0.2-2.7,3.8-0.5,4.3-2.8c0.4-1.6,0-3.8,2.8-3.6c0.7,0,2-0.6,2-0.8c-0.6-4.6,5.9-3.8,6.1-8c0.1-1.3,2.7-1.3,4.3-1.2
	c1.4,0.1,1.5,1.1,1.7,2.2c0.9,4.5,0.3,6.4-3.6,8.9c-4.7,3-7.9,7.5-11.2,11.7c-1.1,1.4-2.5,2.5-3.8,3.3c-4,2.2-6.3,6.3-9.8,8.9
	c-1,0.8-0.8,2.3-1.8,3.4c-1.5,1.6-2.9,2.7-4.9,3.7c-1.5,0.8-2,3.5-3.3,5c-2.6,3-5.4,5.7-8.2,8.5c-0.2,0.2-0.6,0.2-0.8,0.2
	c-3.2-0.6-5.6,1.1-8.3,2.3C276.6,521.6,275.6,522.2,274.8,522z"/>
<path class="st114" d="M262.3,534.6c0,0.2,0,0.4-0.1,0.5c-3.6,0-7.2,0-10.8,0c0-0.2,0-0.3,0-0.5C255,534.6,258.6,534.6,262.3,534.6z
	"/>
<path class="st115" d="M274.8,522c0.8,0.3,1.8-0.3,2.4,0.7c-2.7,0-5.3,0.4-7.9-0.7C271.1,522,273,522,274.8,522z"/>
<path class="st116" d="M286.6,342.3c-0.8-0.1-1.4-0.4-1.5-1.3c0-1,0.5-1.6,1.5-1.6c0.9,0,1.6,0.6,1.5,1.6
	C288.1,341.8,287.5,342.3,286.6,342.3z"/>
</svg>
