<svg xmlns="http://www.w3.org/2000/svg" width="86" height="86" viewBox="0 0 86 86">
  <g id="Profiling-pana" transform="translate(-15.56 -40.83)">
    <g id="freepik--background-complete--inject-2" transform="translate(19.291 40.83)">
      <path id="Path_3669" data-name="Path 3669" d="M42.965,369.33a6.457,6.457,0,0,0-2.764-.95,1.829,1.829,0,0,0-1.307.24.269.269,0,0,0-.134.238.29.29,0,0,0,.129.163,3.964,3.964,0,0,0,4.077.309" transform="translate(-38.038 -304.516)" fill="#e0e0e0"/>
      <path id="Path_3670" data-name="Path 3670" d="M47.912,354.762a13.369,13.369,0,0,1-1.785-1.57,4.518,4.518,0,0,1-1.119-2.069.835.835,0,0,1,.088-.693,6.989,6.989,0,0,1,2.816,4.332" transform="translate(-43.056 -290.048)" fill="#e0e0e0"/>
      <path id="Path_3671" data-name="Path 3671" d="M60.2,355.357a6.442,6.442,0,0,1,.033-2.342,3.167,3.167,0,0,1,1.25-1.935,2.758,2.758,0,0,1-.035,1.837,8.935,8.935,0,0,1-1.236,2.607" transform="translate(-55.292 -290.569)" fill="#e0e0e0"/>
      <path id="Path_3672" data-name="Path 3672" d="M53.194,386.38a4.091,4.091,0,0,0-2.217,1.121,4.208,4.208,0,0,0-1.267,2.177,2.994,2.994,0,0,0,2.046-1.294c.511-.656.864-1.376,1.426-1.99" transform="translate(-46.886 -318.803)" fill="#e0e0e0"/>
      <path id="Path_3673" data-name="Path 3673" d="M67.832,366.7a5.467,5.467,0,0,1,.632-5.169,6.583,6.583,0,0,1-.632,5.169" transform="translate(-61.223 -298.972)" fill="#e0e0e0"/>
      <path id="Path_3674" data-name="Path 3674" d="M62.866,399.859a3.954,3.954,0,0,0-3.778,2.177.292.292,0,0,0-.027.3.284.284,0,0,0,.251.073,3.287,3.287,0,0,0,1.95-1.006,17.7,17.7,0,0,1,1.62-1.536" transform="translate(-54.42 -329.689)" fill="#e0e0e0"/>
      <path id="Path_3675" data-name="Path 3675" d="M77.394,377.238a7.021,7.021,0,0,1-.071-3.931,1.915,1.915,0,0,1,.839-1.276.163.163,0,0,1,.129-.021.157.157,0,0,1,.081.094,2.353,2.353,0,0,1,.192,1.127,6.992,6.992,0,0,1-.177,1.142,6.027,6.027,0,0,1-.608,2.05,4.045,4.045,0,0,0-.242.449c-.073.154-.075.207-.14.328" transform="translate(-69 -307.402)" fill="#e0e0e0"/>
      <path id="Path_3676" data-name="Path 3676" d="M103.566,384.827a5.063,5.063,0,0,1,.887-4.167c.065-.084.15-.173.253-.163.159.015.192.227.192.384a7.543,7.543,0,0,1-1.344,3.943" transform="translate(-90.295 -314.25)" fill="#e0e0e0"/>
      <path id="Path_3677" data-name="Path 3677" d="M106.43,398.562a6.05,6.05,0,0,0,4.973-1.012,4.031,4.031,0,0,0-2.687-.33,3.814,3.814,0,0,0-2.28,1.344" transform="translate(-93.42 -327.484)" fill="#e0e0e0"/>
      <path id="Path_3678" data-name="Path 3678" d="M108.36,388.862a5.75,5.75,0,0,1,4.515-2.612,2.779,2.779,0,0,1-1.476,1.633,8.183,8.183,0,0,1-2.167.633,1.523,1.523,0,0,0-.871.346" transform="translate(-94.994 -318.698)" fill="#e0e0e0"/>
      <path id="Path_3679" data-name="Path 3679" d="M101.886,354.579a13.073,13.073,0,0,0,.576-2.645,4.413,4.413,0,0,0-.526-2.614,5.763,5.763,0,0,0-.079,5.35" transform="translate(-88.523 -289.141)" fill="#e0e0e0"/>
      <path id="Path_3680" data-name="Path 3680" d="M119.94,354.067a7.09,7.09,0,0,1,5.215-3.547,5.8,5.8,0,0,1-5.215,3.547" transform="translate(-104.472 -290.13)" fill="#e0e0e0"/>
      <path id="Path_3681" data-name="Path 3681" d="M116.6,369.618c1.522.232,2.822,1.205,4.244,1.795a1.92,1.92,0,0,0,.96.192.751.751,0,0,0,.47-1.328,2.063,2.063,0,0,0-.7-.424,7.751,7.751,0,0,0-4.847-.271" transform="translate(-101.748 -305.28)" fill="#e0e0e0"/>
      <path id="Path_3682" data-name="Path 3682" d="M112,376.125a1.8,1.8,0,0,1,.737.509,7.918,7.918,0,0,0,3.219,1.655c.123.031.284.042.346-.069s-.015-.213-.084-.3a4.415,4.415,0,0,0-1.943-1.321,4.974,4.974,0,0,0-2.275-.539" transform="translate(-97.969 -310.697)" fill="#e0e0e0"/>
      <path id="Path_3683" data-name="Path 3683" d="M106.82,342.116a6.089,6.089,0,0,0,4.672,1.589.313.313,0,0,0,.211-.077c.119-.127-.023-.324-.159-.432a5.382,5.382,0,0,0-4.724-1.081" transform="translate(-93.738 -283.252)" fill="#e0e0e0"/>
      <path id="Path_3684" data-name="Path 3684" d="M113,335.239a6.526,6.526,0,0,1,5.829-.96,4.63,4.63,0,0,1-2.777,1.221,8.807,8.807,0,0,1-3.052-.259" transform="translate(-98.802 -276.833)" fill="#e0e0e0"/>
      <path id="Path_3685" data-name="Path 3685" d="M107.2,307.757c-.134-1.37-.046-2.453-.142-3.829,0-.111-.031-.244-.134-.282-.144-.056-.263.121-.309.267a4.386,4.386,0,0,0,.576,3.814" transform="translate(-92.705 -252.381)" fill="#e0e0e0"/>
      <path id="Path_3686" data-name="Path 3686" d="M110,307.759a8.046,8.046,0,0,0,2.271-2.207,3.013,3.013,0,0,0,.724-2.1,2.177,2.177,0,0,0-1.637.814,4.587,4.587,0,0,0-.835,1.68c-.192.6-.309,1.223-.522,1.816" transform="translate(-96.322 -252.23)" fill="#e0e0e0"/>
      <path id="Path_3687" data-name="Path 3687" d="M121.509,308.215a18.277,18.277,0,0,0,5.588-3.3,2.846,2.846,0,0,0-2.1.163,6.616,6.616,0,0,0-3.518,3.117" transform="translate(-105.736 -253.311)" fill="#e0e0e0"/>
      <path id="Path_3688" data-name="Path 3688" d="M113.256,323.022a11.194,11.194,0,0,0,3.1.015,13.937,13.937,0,0,0,2.9-.96.336.336,0,0,0,.192-.15.227.227,0,0,0-.071-.248.59.59,0,0,0-.248-.115,5.321,5.321,0,0,0-3.129.192,14.522,14.522,0,0,0-2.749,1.275" transform="translate(-99.01 -266.715)" fill="#e0e0e0"/>
      <path id="Path_3689" data-name="Path 3689" d="M80.412,323.933a5.486,5.486,0,0,1-.05-4.543,3.467,3.467,0,0,1,.4,2.259c-.079.777-.315,1.574-.33,2.353" transform="translate(-71.278 -265.058)" fill="#e0e0e0"/>
      <path id="Path_3690" data-name="Path 3690" d="M48.118,335.668a6.334,6.334,0,0,0-4.708,2.006,4.393,4.393,0,0,0,2.578-.478,13.054,13.054,0,0,0,2.209-1.48" transform="translate(-41.796 -278.19)" fill="#e0e0e0"/>
      <path id="Path_3691" data-name="Path 3691" d="M39.432,332.026a6.574,6.574,0,0,0-2.513.079A3.008,3.008,0,0,0,35,333.728a4.542,4.542,0,0,0,2.355-.445,13.528,13.528,0,0,0,2.073-1.257" transform="translate(-35 -275.195)" fill="#e0e0e0"/>
      <path id="Path_3692" data-name="Path 3692" d="M51.459,326.966a7.9,7.9,0,0,0-2.467-1.234,2.69,2.69,0,0,0-2.572.624,4.785,4.785,0,0,0,2.459.478,8.826,8.826,0,0,1,2.687.273" transform="translate(-44.228 -270.127)" fill="#e0e0e0"/>
      <path id="Path_3693" data-name="Path 3693" d="M66.391,309.985a5.718,5.718,0,0,1-1.286-5.405,8.238,8.238,0,0,1,1.292,5.405" transform="translate(-59.155 -253.128)" fill="#e0e0e0"/>
      <path id="Path_3694" data-name="Path 3694" d="M91.64,295.615c.25-.576.424-1.186.649-1.777a5.1,5.1,0,0,1,.923-1.639,2.432,2.432,0,0,1,1.637-.848,6.586,6.586,0,0,1-3.177,4.275" transform="translate(-80.768 -242.491)" fill="#e0e0e0"/>
      <path id="Path_3695" data-name="Path 3695" d="M73.81,307.763A8.2,8.2,0,0,0,72.361,306a2.435,2.435,0,0,0-1.971-.516,4.6,4.6,0,0,0,3.42,2.28" transform="translate(-63.597 -253.847)" fill="#e0e0e0"/>
      <path id="Path_3696" data-name="Path 3696" d="M85.919,295.889a9.809,9.809,0,0,1-.653-2.111,3.29,3.29,0,0,1,.33-2.148,4.872,4.872,0,0,1,.359,4.275" transform="translate(-75.573 -242.716)" fill="#e0e0e0"/>
      <path id="Path_3697" data-name="Path 3697" d="M91.654,279.4a4.608,4.608,0,0,1,3-2.822,1.125,1.125,0,0,1,.526-.079.457.457,0,0,1,.384.324c.048.23-.142.438-.322.591A10.2,10.2,0,0,1,91.65,279.4" transform="translate(-80.776 -230.546)" fill="#e0e0e0"/>
      <path id="Path_3698" data-name="Path 3698" d="M91.629,266.59a10.078,10.078,0,0,1,.384-2.6,3.249,3.249,0,0,1,1.635-1.973,3.852,3.852,0,0,1-.726,2.528A11.6,11.6,0,0,0,91.6,266.88" transform="translate(-80.736 -218.876)" fill="#e0e0e0"/>
      <path id="Path_3699" data-name="Path 3699" d="M80.954,268.928a13.475,13.475,0,0,0-.96-3.113c-.415-.6-1.079-1.015-1.436-1.655a2.516,2.516,0,0,0,.083,1.877,5.436,5.436,0,0,0,1.1,1.572c.44.468.816.822,1.225,1.319" transform="translate(-70.082 -220.599)" fill="#e0e0e0"/>
      <path id="Path_3700" data-name="Path 3700" d="M91.459,316.673c-.027,0-.048-6.613-.05-14.766s.017-14.766.044-14.766.048,6.611.05,14.766S91.486,316.673,91.459,316.673Z" transform="translate(-80.582 -238.612)" fill="#e0e0e0"/>
      <path id="Path_3701" data-name="Path 3701" d="M97.409,337.86a1.5,1.5,0,0,1-.248.092l-.685.232c-.576.192-1.369.48-2.229.833a8.457,8.457,0,0,0-2.111,1.058,1.535,1.535,0,0,0-.424.562c-.067.155-.079.25-.086.248s0-.023,0-.069a1.1,1.1,0,0,1,.048-.192,1.52,1.52,0,0,1,.415-.6,3.782,3.782,0,0,1,.918-.576c.367-.171.768-.349,1.2-.526.864-.353,1.662-.63,2.246-.81.29-.09.528-.157.693-.192A1.361,1.361,0,0,1,97.409,337.86Z" transform="translate(-80.754 -279.944)" fill="#e0e0e0"/>
      <path id="Path_3702" data-name="Path 3702" d="M101.225,313.62a.656.656,0,0,1-.069.075l-.213.192-.791.72-2.637,2.349c-1.029.916-1.919,1.791-2.534,2.449-.309.33-.553.6-.718.793l-.192.219a.448.448,0,0,1-.071.073.851.851,0,0,1,.056-.086c.038-.054.1-.132.179-.23.157-.192.384-.478.7-.814a33.779,33.779,0,0,1,2.524-2.47c1.033-.914,1.973-1.728,2.655-2.326.336-.286.61-.522.812-.7l.225-.192A.529.529,0,0,1,101.225,313.62Z" transform="translate(-82.675 -260.388)" fill="#e0e0e0"/>
      <path id="Path_3703" data-name="Path 3703" d="M106.511,326.248c-.027-.012.192-.509.4-1.136s.319-1.152.346-1.152a3.882,3.882,0,0,1-.255,1.184,7.562,7.562,0,0,1-.321.795A1.184,1.184,0,0,1,106.511,326.248Z" transform="translate(-92.782 -268.762)" fill="#e0e0e0"/>
      <path id="Path_3704" data-name="Path 3704" d="M75.563,336.391a1.376,1.376,0,0,1-.157-.192L75,335.677c-.342-.44-.812-1.05-1.344-1.716s-1.015-1.263-1.367-1.7l-.415-.513a1.153,1.153,0,0,1-.144-.192,1,1,0,0,1,.171.171c.106.115.257.284.44.5.365.422.86,1.013,1.39,1.68s.994,1.284,1.321,1.728c.165.227.3.411.384.539A1.152,1.152,0,0,1,75.563,336.391Z" transform="translate(-64.68 -274.852)" fill="#e0e0e0"/>
      <path id="Path_3705" data-name="Path 3705" d="M82.341,339.822a2.322,2.322,0,0,1-.53-.992,2.865,2.865,0,0,1-.121-1h.042c-.019.077-.033.117-.04.115s0-.044,0-.123h.042a4.5,4.5,0,0,0,.171.975,7.638,7.638,0,0,0,.436,1.027Z" transform="translate(-72.725 -279.924)" fill="#e0e0e0"/>
      <path id="Path_3706" data-name="Path 3706" d="M64.532,335.826a1.6,1.6,0,0,0-.37-.217,2.5,2.5,0,0,0-1.029-.081,6.157,6.157,0,0,0-1.037.167,2.938,2.938,0,0,1-.426.1,1.5,1.5,0,0,1,.409-.167,4.68,4.68,0,0,1,1.046-.192,2.248,2.248,0,0,1,1.061.115A.647.647,0,0,1,64.532,335.826Z" transform="translate(-56.551 -278.008)" fill="#e0e0e0"/>
      <path id="Path_3707" data-name="Path 3707" d="M57.6,332.38c0,.015-.215-.086-.576-.207a5.827,5.827,0,0,0-1.415-.292,5.9,5.9,0,0,0-1.445.073c-.367.067-.587.134-.593.119a.553.553,0,0,1,.152-.063,3.263,3.263,0,0,1,.428-.121,5.012,5.012,0,0,1,1.465-.1,5.08,5.08,0,0,1,1.434.322,3.512,3.512,0,0,1,.405.192C57.553,332.343,57.6,332.374,57.6,332.38Z" transform="translate(-50.006 -275.069)" fill="#e0e0e0"/>
      <path id="Path_3708" data-name="Path 3708" d="M88.545,311.8a23.11,23.11,0,0,1-.735-2.9,19.858,19.858,0,0,1,.735,2.9Z" transform="translate(-77.673 -256.632)" fill="#e0e0e0"/>
      <path id="Path_3709" data-name="Path 3709" d="M87,317.439a6.457,6.457,0,0,0-.459-.86,3.752,3.752,0,0,0-.674-.7.623.623,0,0,1,.259.134,2.112,2.112,0,0,1,.493.507A1.919,1.919,0,0,1,87,317.439Z" transform="translate(-76.106 -262.265)" fill="#e0e0e0"/>
      <path id="Path_3710" data-name="Path 3710" d="M66.176,382.027s-.029-.159-.1-.44a6.412,6.412,0,0,0-.441-1.152,15.936,15.936,0,0,0-2.346-3.3c-.522-.6-1.031-1.163-1.461-1.7a11.932,11.932,0,0,1-1.046-1.509,7.114,7.114,0,0,1-.528-1.119c-.048-.136-.084-.246-.1-.319a.462.462,0,0,1-.027-.115s.056.152.165.42a8.264,8.264,0,0,0,.551,1.1,12.979,12.979,0,0,0,1.056,1.486c.434.536.942,1.1,1.466,1.695a14.943,14.943,0,0,1,2.332,3.336,5.7,5.7,0,0,1,.418,1.165,3.3,3.3,0,0,1,.058.332A.49.49,0,0,1,66.176,382.027Z" transform="translate(-55.298 -307.482)" fill="#e0e0e0"/>
      <path id="Path_3711" data-name="Path 3711" d="M96.891,392a2.162,2.162,0,0,1-.273.154,6.12,6.12,0,0,0-.71.47,8.124,8.124,0,0,0-.933.85c-.326.346-.664.747-1.008,1.177-.687.864-1.33,1.626-1.716,2.236-.192.3-.338.557-.43.735a2.321,2.321,0,0,1-.152.276.315.315,0,0,1,.025-.079c.021-.048.048-.123.092-.213a7.293,7.293,0,0,1,.407-.756,25.012,25.012,0,0,1,1.7-2.259c.346-.432.687-.833,1.019-1.179a7.574,7.574,0,0,1,.96-.843,5.015,5.015,0,0,1,.733-.449c.09-.044.165-.073.213-.094Z" transform="translate(-80.792 -323.344)" fill="#e0e0e0"/>
      <path id="Path_3712" data-name="Path 3712" d="M104.223,401.887a4.3,4.3,0,0,1-.576.084,7.582,7.582,0,0,0-1.37.271,4.088,4.088,0,0,0-1.228.643c-.284.219-.417.4-.43.384s.023-.052.084-.132a2.278,2.278,0,0,1,.3-.309,3.712,3.712,0,0,1,1.242-.683,6.257,6.257,0,0,1,1.4-.246A3.248,3.248,0,0,1,104.223,401.887Z" transform="translate(-88.021 -331.327)" fill="#e0e0e0"/>
      <path id="Path_3713" data-name="Path 3713" d="M101.48,399.777c-.031-.017.23-.417.432-.96s.234-1.013.269-1.008a.96.96,0,0,1,0,.311,3.378,3.378,0,0,1-.169.729,3.563,3.563,0,0,1-.336.672A.959.959,0,0,1,101.48,399.777Z" transform="translate(-88.717 -328.039)" fill="#e0e0e0"/>
      <path id="Path_3714" data-name="Path 3714" d="M98.6,365.2a.5.5,0,0,1-.092.048l-.273.125c-.119.05-.263.115-.426.192s-.353.171-.553.29l-.315.179c-.109.063-.217.138-.332.211-.234.14-.466.315-.716.491a12.31,12.31,0,0,0-2.751,2.847c-.169.255-.334.493-.466.731-.069.117-.14.228-.192.34s-.113.219-.169.322c-.111.2-.192.4-.271.56s-.14.313-.192.434l-.115.276a.452.452,0,0,1-.046.094.588.588,0,0,1,.029-.1c.025-.075.058-.167.1-.282a4.328,4.328,0,0,1,.173-.441c.073-.169.15-.365.259-.576l.163-.326c.06-.113.129-.227.192-.345.131-.24.3-.482.463-.741a11.9,11.9,0,0,1,2.772-2.868c.251-.177.489-.349.726-.488.115-.071.226-.146.336-.207l.321-.175c.2-.115.4-.192.562-.278a4.665,4.665,0,0,1,.436-.192l.278-.107A.418.418,0,0,1,98.6,365.2Z" transform="translate(-80.809 -301.899)" fill="#e0e0e0"/>
      <path id="Path_3715" data-name="Path 3715" d="M106.15,376.719a.674.674,0,0,1,.228-.338,1.428,1.428,0,0,1,.916-.351,2.462,2.462,0,0,1,.96.192,1.288,1.288,0,0,1,.363.177,2.2,2.2,0,0,1-.384-.113,2.941,2.941,0,0,0-.939-.157,1.5,1.5,0,0,0-.873.307A2.85,2.85,0,0,0,106.15,376.719Z" transform="translate(-92.493 -310.701)" fill="#e0e0e0"/>
      <path id="Path_3716" data-name="Path 3716" d="M102.94,375.659a3.559,3.559,0,0,0,.259-.846,3.455,3.455,0,0,0-.058-.883.6.6,0,0,1,.107.248,1.745,1.745,0,0,1-.148,1.267.591.591,0,0,1-.161.215Z" transform="translate(-89.899 -308.998)" fill="#e0e0e0"/>
      <path id="Path_3717" data-name="Path 3717" d="M67.88,427.61a21.881,21.881,0,0,0,2.075,7.7h5.092A22.094,22.094,0,0,0,77,427.61Z" transform="translate(-61.569 -352.119)" fill="#e0e0e0"/>
      <path id="Path_3718" data-name="Path 3718" d="M79.56,448.716c0,.027-1.676.048-3.745.048s-3.745-.021-3.745-.048,1.678-.046,3.745-.046S79.56,448.691,79.56,448.716Z" transform="translate(-64.955 -369.137)" fill="#fafafa"/>
      <path id="Path_3719" data-name="Path 3719" d="M80.941,453.478c0,.027-1.572.048-3.511.048s-3.511-.021-3.511-.048,1.572-.048,3.511-.048S80.941,453.453,80.941,453.478Z" transform="translate(-66.449 -372.983)" fill="#fafafa"/>
      <path id="Path_3720" data-name="Path 3720" d="M78.918,436.26a14.356,14.356,0,0,1,0,2.346A14.355,14.355,0,0,1,78.918,436.26Z" transform="translate(-70.449 -359.109)" fill="#fafafa"/>
      <path id="Path_3721" data-name="Path 3721" d="M93.138,436.26a15.382,15.382,0,0,1,0,2.428A15.382,15.382,0,0,1,93.138,436.26Z" transform="translate(-81.94 -359.109)" fill="#fafafa"/>
      <path id="Path_3722" data-name="Path 3722" d="M106.478,436.15a16.02,16.02,0,0,1,0,2.478,16.019,16.019,0,0,1,0-2.478Z" transform="translate(-92.719 -359.02)" fill="#fafafa"/>
      <path id="Path_3723" data-name="Path 3723" d="M77.565,436.05c0,.025-1.967.048-4.392.048s-4.394-.023-4.394-.048,1.962-.05,4.394-.05S77.565,436.023,77.565,436.05Z" transform="translate(-62.296 -358.899)" fill="#fafafa"/>
      <path id="Path_3724" data-name="Path 3724" d="M412.664,431.555a1.65,1.65,0,0,1-.455-2.025,1.81,1.81,0,0,1,.96-.676,3.882,3.882,0,0,0,1.048-.543c.576-.484.726-1.288,1.1-1.933a2.416,2.416,0,0,1,2.1-1.257,2.646,2.646,0,0,1,2.165,1.754,7.676,7.676,0,0,1,.384,2.91,2.016,2.016,0,0,1-.42,1.524,1.962,1.962,0,0,1-1.422.328l-5.342-.163" transform="translate(-343.651 -350.107)" fill="#f5f5f5"/>
      <path id="Path_3725" data-name="Path 3725" d="M409.452,382H395.38l2.536,15.112a1.687,1.687,0,0,0,1.2,1.344l.048.013c.042.012.083.025.127.033a1.742,1.742,0,0,0,.286.033v.015l.069-.012h6.271a1.8,1.8,0,0,0,1.768-1.511l1.223-10.413.054-.415h0l.484-4.123Zm-2.655,9.64h-1.443l.146-4.386h1.672Zm.514-4.386h1.382l-.514,4.386h-1.242Zm-4.125,9.248-.088-3.81h2.081l-.127,3.81Zm-2.248-3.81h2.019l.088,3.81h-1.812Zm.155,3.81H399.4l-.6-3.81H400.8Zm-.238-4.862-.34-4.386h2.317l.1,4.386Zm2.219,0-.1-4.386h2.386l-.146,4.386Zm-.127-5.438-.092-4.062h2.672l-.134,4.062Zm-.138,0h-2.376l-.315-4.062h2.6Zm-2.516,0h-2.513c-.09-.56-.175-1.092-.25-1.57-.263-1.641-.361-2.259-.417-2.5h2.864Zm.083,1.052.34,4.386h-2.077q-.107-.668-.213-1.344c-.163-1.035-.326-2.069-.478-3.04ZM398.5,391.64H397.14l-.737-4.386h1.4C398.021,388.609,398.257,390.117,398.5,391.64Zm.165,1.052c.207,1.319.411,2.62.6,3.81h-1.305l-.639-3.81Zm6.526,3.81.127-3.81h1.39l-.326,3.81Zm.344-10.3.134-4.062h1.941l-.347,4.062Zm-8.551-4.062c.056.294.313,1.893.656,4.062h-1.413l-.681-4.062ZM407.607,396.5h-1.088l.326-3.81h1.209Zm1.209-10.3H407.4l.347-4.062h1.545Z" transform="translate(-330.206 -315.264)" fill="#e0e0e0"/>
      <path id="Path_3726" data-name="Path 3726" d="M341.895,42.75V60.906H315.819l-.939-18.028Z" transform="translate(-265.158 -42.381)" fill="#e0e0e0"/>
      <rect id="Rectangle_884" data-name="Rectangle 884" width="17.989" height="26.076" transform="translate(49.72 18.486) rotate(-90)" fill="#f5f5f5"/>
      <path id="Path_3727" data-name="Path 3727" d="M340.554,61.015H314.23V42.78h26.324Zm-26.076-.248h25.828V43.026H314.478Z" transform="translate(-264.633 -42.406)" fill="#e0e0e0"/>
      <rect id="Rectangle_885" data-name="Rectangle 885" width="20.427" height="13.519" transform="translate(52.546 2.731)" fill="#fff"/>
      <path id="Path_3728" data-name="Path 3728" d="M349.732,54.753H348.22l-4.209.017-14.705.029.06-.06V68.258h0l-.065-.063,20.427.013-.052.05c.012-4.113.021-7.486.027-9.835,0-1.175.012-2.092.013-2.72v-.021c0,.626,0,1.536.013,2.708,0,2.357.015,5.741.027,9.868v.052h-.023l-20.427.013h-.065v-.065h0V54.68h.06l14.743.029,4.2.017,1.109.015h.284Z" transform="translate(-276.762 -52.022)" fill="#e0e0e0"/>
      <path id="Path_3729" data-name="Path 3729" d="M314.877,43.15a2.268,2.268,0,0,1,.447.292c.267.192.63.465,1.023.779s.737.61.979.833a2.111,2.111,0,0,1,.374.384c-.025.027-.651-.489-1.434-1.115A14.047,14.047,0,0,1,314.877,43.15Z" transform="translate(-263.827 -42.705)" fill="#e0e0e0"/>
      <path id="Path_3730" data-name="Path 3730" d="M438.831,43.415a12.536,12.536,0,0,1-1.371,1.167,12.486,12.486,0,0,1-1.453,1.067,12.558,12.558,0,0,1,1.372-1.169A12.318,12.318,0,0,1,438.831,43.415Z" transform="translate(-363.035 -42.918)" fill="#e0e0e0"/>
      <path id="Path_3731" data-name="Path 3731" d="M438.378,127.235l-2.908-2.355" transform="translate(-362.601 -108.494)" fill="#fff"/>
      <path id="Path_3732" data-name="Path 3732" d="M435.467,124.875A13.254,13.254,0,0,1,436.961,126a14.109,14.109,0,0,1,1.415,1.228,13.85,13.85,0,0,1-1.5-1.129A14.409,14.409,0,0,1,435.467,124.875Z" transform="translate(-362.599 -108.489)" fill="#e0e0e0"/>
      <path id="Path_3733" data-name="Path 3733" d="M314.877,127.843a11.906,11.906,0,0,1,1.357-1.152,13.074,13.074,0,0,1,1.438-1.056,12.14,12.14,0,0,1-1.357,1.152A13.074,13.074,0,0,1,314.877,127.843Z" transform="translate(-263.826 -109.102)" fill="#e0e0e0"/>
      <rect id="Rectangle_886" data-name="Rectangle 886" width="4.526" height="12.853" transform="translate(56.694 11.469) rotate(-90)" fill="#e0e0e0"/>
      <path id="Path_3734" data-name="Path 3734" d="M206.74,436.28v5.962h18.335V436.28Z" transform="translate(-175.806 -359.125)" fill="#f5f5f5"/>
      <path id="Path_3735" data-name="Path 3735" d="M202.73,427.59v1.668h19.747V427.59H202.73Z" transform="translate(-172.563 -352.103)" fill="#ebebeb"/>
      <path id="Path_3736" data-name="Path 3736" d="M252.546,435.22h9.231v-5.962h.643V427.59H252.16V429.1Z" transform="translate(-212.761 -352.103)" fill="#ebebeb"/>
      <rect id="Rectangle_887" data-name="Rectangle 887" width="3.718" height="0.898" transform="translate(33.742 78.117)" fill="#e0e0e0"/>
      <rect id="Rectangle_888" data-name="Rectangle 888" width="4.776" height="1.895" transform="translate(33.265 80.136)" fill="#fff"/>
      <path id="Path_3737" data-name="Path 3737" d="M221.44,396.57v5.962h18.335V396.57Z" transform="translate(-187.859 -327.037)" fill="#f5f5f5"/>
      <path id="Path_3738" data-name="Path 3738" d="M217.43,387.89v1.666h19.746V387.89H217.43Z" transform="translate(-184.619 -320.023)" fill="#ebebeb"/>
      <path id="Path_3739" data-name="Path 3739" d="M267.244,395.518h9.233v-5.962h.641V387.89H266.86V389.4Z" transform="translate(-224.794 -320.023)" fill="#ebebeb"/>
      <rect id="Rectangle_889" data-name="Rectangle 889" width="3.718" height="0.898" transform="translate(36.422 70.494)" fill="#e0e0e0"/>
      <rect id="Rectangle_890" data-name="Rectangle 890" width="4.776" height="1.895" transform="translate(35.941 72.514)" fill="#fff"/>
      <rect id="Rectangle_891" data-name="Rectangle 891" width="11.217" height="11.693" transform="translate(4.536 0.012)" fill="#e0e0e0"/>
      <rect id="Rectangle_892" data-name="Rectangle 892" width="11.217" height="11.693" transform="translate(3.776 0.012)" fill="#fafafa"/>
      <path id="Path_3740" data-name="Path 3740" d="M65.883,52.539H54.66V40.83H65.883Zm-11.217,0h11.21V40.845H54.666Z" transform="translate(-50.886 -40.83)" fill="#e0e0e0"/>
      <rect id="Rectangle_893" data-name="Rectangle 893" width="8.202" height="8.549" transform="translate(5.284 1.584)" fill="#fafafa"/>
      <path id="Path_3741" data-name="Path 3741" d="M56.227,93.91a1.355,1.355,0,0,1-.2.236c-.132.138-.317.324-.522.528s-.4.384-.536.514a1.282,1.282,0,0,1-.238.192,1.49,1.49,0,0,1,.2-.234c.131-.138.317-.324.522-.53s.4-.384.537-.512A1.367,1.367,0,0,1,56.227,93.91Z" transform="translate(-50.943 -83.721)" fill="#e0e0e0"/>
      <path id="Path_3742" data-name="Path 3742" d="M105.26,93.8a1.48,1.48,0,0,1,.234.2c.138.131.326.315.53.522s.384.4.513.536a1.4,1.4,0,0,1,.192.236,1.194,1.194,0,0,1-.234-.192c-.138-.131-.326-.315-.53-.522s-.384-.4-.514-.537a1.152,1.152,0,0,1-.19-.246Z" transform="translate(-91.774 -83.633)" fill="#e0e0e0"/>
      <path id="Path_3743" data-name="Path 3743" d="M105.14,43.018a1.355,1.355,0,0,1,.192-.236c.132-.138.317-.324.522-.528s.4-.384.536-.512a1.253,1.253,0,0,1,.238-.192,1.49,1.49,0,0,1-.192.234c-.131.138-.317.326-.522.53s-.4.384-.537.513A1.367,1.367,0,0,1,105.14,43.018Z" transform="translate(-91.677 -41.412)" fill="#e0e0e0"/>
      <path id="Path_3744" data-name="Path 3744" d="M56.228,43.007a1.48,1.48,0,0,1-.234-.2c-.138-.131-.326-.315-.53-.52s-.384-.4-.512-.537a1.311,1.311,0,0,1-.192-.236,1.286,1.286,0,0,1,.238.2c.138.131.326.315.53.522s.384.4.514.537A1.217,1.217,0,0,1,56.228,43.007Z" transform="translate(-50.967 -41.379)" fill="#e0e0e0"/>
      <path id="Path_3745" data-name="Path 3745" d="M70.636,57.322V54.957c0-1.5,0-3.632-.015-6.185l.031.031H62.473l.036-.036v8.549l-.031-.031L68.4,57.3h2.217a.129.129,0,0,1,.04,0H68.421l-5.95.015H62.44V48.7h8.248v.033c0,2.562-.013,4.7-.017,6.2v2.3A.3.3,0,0,1,70.636,57.322Z" transform="translate(-57.173 -47.189)" fill="#e0e0e0"/>
      <rect id="Rectangle_894" data-name="Rectangle 894" width="2.737" height="2.737" transform="translate(8.016 4.49)" fill="#ebebeb"/>
    </g>
    <g id="freepik--Floor--inject-2" transform="translate(15.56 124.024)">
      <path id="Path_3746" data-name="Path 3746" d="M101.56,467.79c0,.027-19.259.05-43,.05s-43-.029-43-.05,19.259-.05,43-.05S101.56,467.755,101.56,467.79Z" transform="translate(-15.56 -467.74)" fill="#263238"/>
    </g>
    <g id="freepik--profile-3--inject-2" transform="translate(42.017 77.512)">
      <path id="Path_3747" data-name="Path 3747" d="M164.23,228.35h23.158a1.39,1.39,0,0,1,1.39,1.39v21.166a1.628,1.628,0,0,1-1.628,1.628H164.309a1.449,1.449,0,0,1-1.449-1.449v-21.36a1.374,1.374,0,0,1,1.371-1.374Z" transform="translate(-162.808 -228.296)" fill="#fff"/>
      <rect id="Rectangle_895" data-name="Rectangle 895" width="13.114" height="13.114" transform="translate(0.042 3.979)" fill="#f5f5f5"/>
      <path id="Path_3748" data-name="Path 3748" d="M164.19,228.35h23.158a1.39,1.39,0,0,1,1.39,1.39v2.536H162.81v-2.551a1.374,1.374,0,0,1,1.38-1.374Z" transform="translate(-162.768 -228.296)" fill="#ff735d"/>
      <path id="Path_3749" data-name="Path 3749" d="M170.879,236.879a.489.489,0,1,1-.489-.489A.489.489,0,0,1,170.879,236.879Z" transform="translate(-168.497 -234.793)" fill="#fff"/>
      <path id="Path_3750" data-name="Path 3750" d="M178.6,236.879a.489.489,0,1,1-.489-.489A.489.489,0,0,1,178.6,236.879Z" transform="translate(-174.735 -234.793)" fill="#fff"/>
      <path id="Path_3751" data-name="Path 3751" d="M186.309,236.879a.489.489,0,1,1-.489-.489A.489.489,0,0,1,186.309,236.879Z" transform="translate(-180.965 -234.793)" fill="#fff"/>
      <path id="Path_3752" data-name="Path 3752" d="M248.856,270.33c0,.027-1.889.05-4.223.05s-4.223-.023-4.223-.05,1.889-.05,4.223-.05S248.856,270.3,248.856,270.33Z" transform="translate(-225.473 -262.178)" fill="#263238"/>
      <path id="Path_3753" data-name="Path 3753" d="M248.856,276.95c0,.029-1.889.05-4.223.05s-4.223-.021-4.223-.05,1.889-.05,4.223-.05S248.856,276.919,248.856,276.95Z" transform="translate(-225.473 -267.527)" fill="#263238"/>
      <path id="Path_3754" data-name="Path 3754" d="M248.856,283.58c0,.027-1.889.05-4.223.05s-4.223-.023-4.223-.05,1.889-.05,4.223-.05S248.856,283.553,248.856,283.58Z" transform="translate(-225.473 -272.885)" fill="#263238"/>
      <path id="Path_3755" data-name="Path 3755" d="M248.856,297.31c0,.027-1.889.05-4.223.05s-4.223-.023-4.223-.05,1.889-.05,4.223-.05S248.856,297.281,248.856,297.31Z" transform="translate(-225.473 -283.979)" fill="#263238"/>
      <path id="Path_3756" data-name="Path 3756" d="M245.217,303.93c0,.029-1.071.05-2.394.05s-2.394-.021-2.394-.05,1.071-.05,2.394-.05S245.217,303.9,245.217,303.93Z" transform="translate(-225.489 -289.328)" fill="#263238"/>
      <path id="Path_3757" data-name="Path 3757" d="M244.313,290.175a36.4,36.4,0,0,1-3.883,0,37.8,37.8,0,0,1,3.883,0Z" transform="translate(-225.489 -278.209)" fill="#ff735d"/>
      <path id="Path_3758" data-name="Path 3758" d="M244.313,262.172a37.8,37.8,0,0,1-3.883,0,37.8,37.8,0,0,1,3.883,0Z" transform="translate(-225.489 -255.58)" fill="#ff735d"/>
      <path id="Path_3759" data-name="Path 3759" d="M194.851,253.97a.6.6,0,0,1,.612-.311.81.81,0,0,1,1,0,.72.72,0,0,1,1.1.576.6.6,0,0,1,.539,1.008.576.576,0,0,1-.226,1.129l-2.9-1.728A.591.591,0,0,1,194.851,253.97Z" transform="translate(-188.612 -248.609)" fill="#e0e0e0"/>
      <path id="Path_3760" data-name="Path 3760" d="M192.162,259.53a2.453,2.453,0,0,0-2.478-2.221h-.129a2.212,2.212,0,0,0-1.91,2.687l.265,4.561.054.808,3.206.307-.094-1.47a1.578,1.578,0,0,0,1.311-1.536C192.385,262.025,192.276,260.714,192.162,259.53Z" transform="translate(-182.822 -251.696)" fill="#ffbe9d"/>
      <path id="Path_3761" data-name="Path 3761" d="M198.368,291.19a3.19,3.19,0,0,1-1.728-.48,1.619,1.619,0,0,0,1.728.8Z" transform="translate(-190.104 -278.686)" fill="#eb996e"/>
      <path id="Path_3762" data-name="Path 3762" d="M207.31,274.535a.192.192,0,0,1-.179.192.179.179,0,0,1-.192-.167.192.192,0,0,1,.178-.192.179.179,0,0,1,.192.167Z" transform="translate(-198.427 -265.481)" fill="#263238"/>
      <path id="Path_3763" data-name="Path 3763" d="M206.684,271.452c-.023.025-.167-.079-.37-.075s-.349.107-.37.083.012-.056.075-.1a.52.52,0,0,1,.3-.1.5.5,0,0,1,.3.09C206.672,271.4,206.7,271.44,206.684,271.452Z" transform="translate(-197.616 -262.969)" fill="#263238"/>
      <path id="Path_3764" data-name="Path 3764" d="M197.37,274.8a.192.192,0,0,1-.178.192.18.18,0,0,1-.192-.165.186.186,0,0,1,.37-.027Z" transform="translate(-190.395 -265.693)" fill="#263238"/>
      <path id="Path_3765" data-name="Path 3765" d="M196.312,271.8c-.023.025-.167-.079-.369-.075s-.349.108-.372.083.013-.056.077-.1a.507.507,0,0,1,.3-.1.482.482,0,0,1,.294.09C196.3,271.746,196.323,271.79,196.312,271.8Z" transform="translate(-189.235 -263.252)" fill="#263238"/>
      <path id="Path_3766" data-name="Path 3766" d="M202.907,273.316a1.373,1.373,0,0,1,.328-.063c.052,0,.1-.017.109-.052a.272.272,0,0,0-.036-.154c-.052-.125-.1-.255-.159-.384a7,7,0,0,1-.359-1.023,6.6,6.6,0,0,1,.441.992c.052.138.1.269.152.393a.29.29,0,0,1,.029.2.131.131,0,0,1-.083.077.413.413,0,0,1-.088.013,1.307,1.307,0,0,1-.334,0Z" transform="translate(-195.074 -263.277)" fill="#263238"/>
      <path id="Path_3767" data-name="Path 3767" d="M200.179,281.15c.033,0,.036.217.226.37s.424.125.426.155-.052.044-.15.048a.545.545,0,0,1-.355-.117.476.476,0,0,1-.177-.311C200.141,281.2,200.164,281.148,200.179,281.15Z" transform="translate(-192.939 -270.961)" fill="#263238"/>
      <path id="Path_3768" data-name="Path 3768" d="M195.767,267.852c-.019.056-.223.033-.459.065s-.428.1-.461.05.017-.075.094-.131a.8.8,0,0,1,.34-.125.768.768,0,0,1,.361.038C195.73,267.783,195.774,267.827,195.767,267.852Z" transform="translate(-188.647 -260.097)" fill="#e0e0e0"/>
      <path id="Path_3769" data-name="Path 3769" d="M206.45,268.355c-.036.046-.177,0-.344,0s-.309.036-.344-.012,0-.071.069-.115a.5.5,0,0,1,.553.01C206.444,268.284,206.465,268.332,206.45,268.355Z" transform="translate(-197.465 -260.456)" fill="#e0e0e0"/>
      <path id="Path_3770" data-name="Path 3770" d="M190.636,258.276s-.359-.822-.768-1.008c-.486-.227-.685.305-1.152.192s-.923-.338-1.388.023c-.507.4-.263.664-.286,1.25-.094,2.371-.516,3.048-.656,1.933-.015-.121-.355-.213-.415-.729a5.835,5.835,0,0,1,.031-1.96,1.879,1.879,0,0,1,.751-.994,3.131,3.131,0,0,1,2.133-.463C189.483,256.571,190.677,257.241,190.636,258.276Z" transform="translate(-181.431 -251.043)" fill="#e0e0e0"/>
      <path id="Path_3771" data-name="Path 3771" d="M185.221,276.566a.359.359,0,0,0-.384-.34c-.246.027-.516.171-.493.678a.677.677,0,0,0,.937.647C185.281,277.524,185.237,276.936,185.221,276.566Z" transform="translate(-180.167 -266.982)" fill="#ffbe9d"/>
      <path id="Path_3772" data-name="Path 3772" d="M186.321,278.46a.348.348,0,0,1-.04.025.167.167,0,0,1-.117,0,.384.384,0,0,1-.192-.34.482.482,0,0,1,.033-.227.192.192,0,0,1,.107-.109.081.081,0,0,1,.094.038c.013.025,0,.044.013.044s.017-.015.01-.052a.121.121,0,0,0-.038-.056.134.134,0,0,0-.088-.019.225.225,0,0,0-.157.148.52.52,0,0,0-.042.253.4.4,0,0,0,.248.384.167.167,0,0,0,.142-.031C186.321,278.481,186.325,278.46,186.321,278.46Z" transform="translate(-181.426 -268.226)" fill="#eb996e"/>
      <path id="Path_3773" data-name="Path 3773" d="M185.161,257.516a.874.874,0,0,0,.384.171.3.3,0,0,0,.322-.211.531.531,0,0,1,.033-.192c.033-.056.14-.042.215-.036a.576.576,0,0,0,.591-.42.242.242,0,0,0,.324.027,1.344,1.344,0,0,0,.242-.267.367.367,0,0,1,.307-.159.768.768,0,0,0,.192.04c.117-.012.173-.152.192-.269s.029-.255.127-.321a.486.486,0,0,1,.322-.013c.109.015.25-.013.276-.119a.211.211,0,0,0-.044-.163.576.576,0,0,0-.691-.211.791.791,0,0,0-1.455-.132.8.8,0,0,0-1.278.311.576.576,0,0,0-.643.856.547.547,0,0,0-.3.443.317.317,0,0,0,.363.319.322.322,0,0,0,.562.313" transform="translate(-180.116 -249.683)" fill="#e0e0e0"/>
      <path id="Path_3774" data-name="Path 3774" d="M185.844,267.1a.215.215,0,0,0,.058.173.288.288,0,0,0,.182.106.317.317,0,0,0,.255-.079H186.3a.9.9,0,0,0,.192.223.52.52,0,0,0,.165.1.346.346,0,0,0,.18.013.357.357,0,0,0,.259-.152.512.512,0,0,0,.069-.192c.01-.046.01-.071,0-.071s0,.023-.025.067a.6.6,0,0,1-.081.173.367.367,0,0,1-.541.019.93.93,0,0,1-.175-.207l-.015-.027-.023.021a.267.267,0,0,1-.384-.01A.434.434,0,0,1,185.844,267.1Z" transform="translate(-181.379 -259.608)" fill="#fff"/>
      <path id="Path_3775" data-name="Path 3775" d="M194.56,254.805a.145.145,0,0,1,.063.023.3.3,0,0,1,.142.117l.01.015.013-.015a1.094,1.094,0,0,1,.43-.359.877.877,0,0,1,.353-.084.741.741,0,0,1,.384.1.768.768,0,0,1,.23.213.6.6,0,0,1,.1.269v.029h.027a.5.5,0,0,1,.576.257.676.676,0,0,1,.06.265.173.173,0,0,0,.01-.073.485.485,0,0,0-.044-.205.491.491,0,0,0-.215-.238.537.537,0,0,0-.407-.052l.031.021a.631.631,0,0,0-.109-.294.787.787,0,0,0-.655-.338.918.918,0,0,0-.372.092,1.088,1.088,0,0,0-.434.384h.023a.315.315,0,0,0-.159-.115A.148.148,0,0,0,194.56,254.805Z" transform="translate(-188.423 -249.394)" fill="#fff"/>
      <path id="Path_3776" data-name="Path 3776" d="M198.658,280.622a.647.647,0,0,1,.094-.175c.073-.083.167-.1.165-.109s-.025-.013-.065,0a.257.257,0,0,0-.138.079.269.269,0,0,0-.067.144C198.642,280.6,198.652,280.622,198.658,280.622Z" transform="translate(-191.725 -270.297)" fill="#eb996e"/>
      <path id="Path_3777" data-name="Path 3777" d="M198.257,280.111a.709.709,0,0,0,.094-.048c.048-.023.09-.029.092-.042s-.054-.035-.115,0S198.246,280.105,198.257,280.111Z" transform="translate(-191.409 -270.034)" fill="#eb996e"/>
      <path id="Path_3778" data-name="Path 3778" d="M192.538,288.316s-.013,0-.025-.023a.079.079,0,0,1,0-.079c.013-.035.054-.065.081-.125a.115.115,0,0,0,0-.1.715.715,0,0,0-.06-.077c-.069-.088.132-.152.106-.267a.133.133,0,0,0-.05-.1c-.019-.015-.035-.017-.036-.013a.169.169,0,0,1,.05.111.141.141,0,0,1-.065.107.192.192,0,0,0-.06.075.109.109,0,0,0,.013.113c.021.029.046.05.058.071a.069.069,0,0,1,0,.061c-.017.044-.056.083-.071.129a.1.1,0,0,0,.023.107C192.52,288.326,192.538,288.32,192.538,288.316Z" transform="translate(-186.733 -276.118)" fill="#eb996e"/>
      <path id="Path_3779" data-name="Path 3779" d="M191.177,288.112a.081.081,0,0,1,.01-.033.384.384,0,0,1,.05-.077.3.3,0,0,0,.038-.058.123.123,0,0,0,.012-.088c-.015-.063-.069-.1-.094-.152s0-.084.035-.123a.331.331,0,0,0,.048-.067.175.175,0,0,0,.013-.073c-.01-.094-.073-.121-.073-.115a.238.238,0,0,1,.036.115.161.161,0,0,1-.059.107.222.222,0,0,0-.056.073.129.129,0,0,0,.01.109c.036.06.084.094.094.136a.158.158,0,0,1-.035.115.225.225,0,0,0-.038.092C191.165,288.1,191.173,288.112,191.177,288.112Z" transform="translate(-185.651 -275.952)" fill="#eb996e"/>
      <path id="Path_3780" data-name="Path 3780" d="M177.478,297.5c-.347-.23-2.906-1.411-2.906-1.411a6.326,6.326,0,0,1-3.278-.167,29.578,29.578,0,0,0-3.121,1.244,13.557,13.557,0,0,0-1.033,2.879L178.578,300A11.563,11.563,0,0,0,177.478,297.5Z" transform="translate(-166.267 -282.896)" fill="#ff735d"/>
      <path id="Path_3781" data-name="Path 3781" d="M179.329,310.619a3.3,3.3,0,0,1-.086-.793,3.133,3.133,0,0,1,.015-.8,3.248,3.248,0,0,1,.084.793A3.2,3.2,0,0,1,179.329,310.619Z" transform="translate(-176.032 -293.49)" fill="#263238"/>
      <path id="Path_3782" data-name="Path 3782" d="M216.67,309.946a3.981,3.981,0,0,1-.073-1.516A10.711,10.711,0,0,1,216.67,309.946Z" transform="translate(-206.197 -293.005)" fill="#263238"/>
      <path id="Path_3783" data-name="Path 3783" d="M162.59,317.12h25.97v5.517a1.628,1.628,0,0,1-1.628,1.628H164.041a1.449,1.449,0,0,1-1.449-1.449v-5.7Z" transform="translate(-162.59 -300.027)" fill="#ebebeb"/>
      <path id="Path_3784" data-name="Path 3784" d="M174.035,327.035a19.446,19.446,0,0,1-2.785,0,19.458,19.458,0,0,1,2.785,0Z" transform="translate(-169.588 -307.994)" fill="#263238"/>
      <path id="Path_3785" data-name="Path 3785" d="M179.83,332.36c0,.027-1.975.05-4.415.05s-4.415-.023-4.415-.05,1.973-.05,4.415-.05S179.83,332.331,179.83,332.36Z" transform="translate(-169.386 -312.301)" fill="#263238"/>
      <path id="Path_3786" data-name="Path 3786" d="M179.83,338.32c0,.029-1.975.05-4.415.05s-4.415-.021-4.415-.05,1.973-.05,4.415-.05S179.83,338.293,179.83,338.32Z" transform="translate(-169.386 -317.117)" fill="#263238"/>
      <path id="Path_3787" data-name="Path 3787" d="M177.277,344.29c0,.029-1.382.05-3.085.05s-3.083-.021-3.083-.05,1.38-.05,3.083-.05S177.277,344.263,177.277,344.29Z" transform="translate(-169.475 -321.941)" fill="#263238"/>
      <path id="Path_3788" data-name="Path 3788" d="M241.485,327.027a19.446,19.446,0,0,1-2.785,0,18.737,18.737,0,0,1,2.785,0Z" transform="translate(-224.091 -307.986)" fill="#263238"/>
      <path id="Path_3789" data-name="Path 3789" d="M247.31,332.36c0,.027-1.973.05-4.415.05s-4.415-.023-4.415-.05,1.973-.05,4.415-.05S247.31,332.331,247.31,332.36Z" transform="translate(-223.913 -312.301)" fill="#263238"/>
      <path id="Path_3790" data-name="Path 3790" d="M247.31,338.32c0,.029-1.973.05-4.415.05s-4.415-.021-4.415-.05,1.973-.05,4.415-.05S247.31,338.293,247.31,338.32Z" transform="translate(-223.913 -317.117)" fill="#263238"/>
      <path id="Path_3791" data-name="Path 3791" d="M244.717,344.29c0,.029-1.38.05-3.083.05s-3.085-.021-3.085-.05,1.38-.05,3.085-.05S244.717,344.263,244.717,344.29Z" transform="translate(-223.97 -321.941)" fill="#263238"/>
      <path id="Path_3792" data-name="Path 3792" d="M186.939,252.307a1.755,1.755,0,0,0,.251-.027,1.622,1.622,0,0,0,1.323-1.25,3.6,3.6,0,0,0,.036-.768v-.873c0-2.474-.01-6.052-.015-10.471v-9.213a2.1,2.1,0,0,0-.035-.493,1.3,1.3,0,0,0-.192-.451,1.344,1.344,0,0,0-.8-.559,1.932,1.932,0,0,0-.509-.04H164.228a1.889,1.889,0,0,0-.61.059,1.344,1.344,0,0,0-.929,1.407v21.291a1.4,1.4,0,0,0,.111.484,1.42,1.42,0,0,0,.664.7,1.4,1.4,0,0,0,.463.138c.159.015.328.01.493.012h8.213l10.469.015h2.847l-2.847.01-10.469.015H164.42a4.928,4.928,0,0,1-.5-.01,1.428,1.428,0,0,1-.491-.148,1.5,1.5,0,0,1-.7-.741,1.437,1.437,0,0,1-.119-.512c-.01-.177,0-.346,0-.52V229.64a1.48,1.48,0,0,1,.441-1.171,1.442,1.442,0,0,1,.557-.33,1.973,1.973,0,0,1,.641-.065H187a2.066,2.066,0,0,1,.53.042,1.432,1.432,0,0,1,.848.6,1.363,1.363,0,0,1,.205.48,2.216,2.216,0,0,1,.035.512v9.229c0,4.415-.013,8-.017,10.471v.873a3.565,3.565,0,0,1-.042.768,1.639,1.639,0,0,1-.664.981,1.616,1.616,0,0,1-.685.271,1.15,1.15,0,0,1-.192.015Z" transform="translate(-162.596 -228.07)" fill="#263238"/>
    </g>
    <g id="freepik--profile-2--inject-2" transform="translate(20.602 61.234)">
      <path id="Path_3793" data-name="Path 3793" d="M43.475,145.26H66.639a1.39,1.39,0,0,1,1.39,1.39v21.166a1.628,1.628,0,0,1-1.628,1.628H43.559a1.449,1.449,0,0,1-1.449-1.449V146.636a1.374,1.374,0,0,1,1.365-1.376Z" transform="translate(-42.056 -145.206)" fill="#fff"/>
      <rect id="Rectangle_896" data-name="Rectangle 896" width="13.114" height="13.114" transform="translate(0.045 3.979)" fill="#f5f5f5"/>
      <path id="Path_3794" data-name="Path 3794" d="M43.434,145.26H66.6a1.39,1.39,0,0,1,1.39,1.39v2.536H42.06v-2.549a1.374,1.374,0,0,1,1.374-1.376Z" transform="translate(-42.015 -145.206)" fill="#ff735d"/>
      <path id="Path_3795" data-name="Path 3795" d="M50.139,153.789a.489.489,0,1,1-.488-.489A.489.489,0,0,1,50.139,153.789Z" transform="translate(-47.752 -151.703)" fill="#fff"/>
      <path id="Path_3796" data-name="Path 3796" d="M57.879,153.789a.489.489,0,1,1-.489-.489A.489.489,0,0,1,57.879,153.789Z" transform="translate(-54.007 -151.703)" fill="#fff"/>
      <circle id="Ellipse_151" data-name="Ellipse 151" cx="0.489" cy="0.489" r="0.489" transform="translate(4.367 1.597)" fill="#fff"/>
      <path id="Path_3797" data-name="Path 3797" d="M128.106,187.24c0,.029-1.891.05-4.223.05s-4.223-.021-4.223-.05,1.889-.05,4.223-.05S128.106,187.213,128.106,187.24Z" transform="translate(-104.72 -179.088)" fill="#263238"/>
      <path id="Path_3798" data-name="Path 3798" d="M128.106,193.87c0,.027-1.891.05-4.223.05s-4.223-.023-4.223-.05,1.889-.05,4.223-.05S128.106,193.841,128.106,193.87Z" transform="translate(-104.72 -184.445)" fill="#263238"/>
      <path id="Path_3799" data-name="Path 3799" d="M128.106,200.49c0,.029-1.891.05-4.223.05s-4.223-.021-4.223-.05,1.889-.05,4.223-.05S128.106,200.463,128.106,200.49Z" transform="translate(-104.72 -189.795)" fill="#263238"/>
      <path id="Path_3800" data-name="Path 3800" d="M128.106,214.22c0,.029-1.891.05-4.223.05s-4.223-.021-4.223-.05,1.889-.05,4.223-.05S128.106,214.193,128.106,214.22Z" transform="translate(-104.72 -200.889)" fill="#263238"/>
      <path id="Path_3801" data-name="Path 3801" d="M124.467,220.85c0,.027-1.073.05-2.394.05s-2.394-.023-2.394-.05,1.071-.05,2.394-.05S124.467,220.821,124.467,220.85Z" transform="translate(-104.736 -206.247)" fill="#263238"/>
      <path id="Path_3802" data-name="Path 3802" d="M123.563,207.095a37.788,37.788,0,0,1-3.883,0,37.8,37.8,0,0,1,3.883,0Z" transform="translate(-104.736 -195.127)" fill="#ff735d"/>
      <path id="Path_3803" data-name="Path 3803" d="M123.563,179.085a37.8,37.8,0,0,1-3.883,0,37.788,37.788,0,0,1,3.883,0Z" transform="translate(-104.736 -172.493)" fill="#ff735d"/>
      <path id="Path_3804" data-name="Path 3804" d="M58.685,211.3l1.305-.107a2.234,2.234,0,0,0,1.7.875c.979-.073,1.084-.731,1.084-.731a5.719,5.719,0,0,1,2.687,1.344l.021.027,1.255,2.879H58.08Z" transform="translate(-54.96 -198.481)" fill="#455a64"/>
      <path id="Path_3805" data-name="Path 3805" d="M49.49,211.71a3.9,3.9,0,0,0-1.092.351c-.921.543-1.728,3.933-1.728,3.933h2.572a10.092,10.092,0,0,0,1.01-2,6.628,6.628,0,0,0-.088-1.286C50.165,212.72,49.49,211.731,49.49,211.71Z" transform="translate(-45.74 -198.901)" fill="#455a64"/>
      <path id="Path_3806" data-name="Path 3806" d="M92.822,227.742c-.021,0-.021-.211-.081-.457s-.148-.436-.131-.445a.994.994,0,0,1,.192.43A.923.923,0,0,1,92.822,227.742Z" transform="translate(-82.861 -211.127)" fill="#263238"/>
      <path id="Path_3807" data-name="Path 3807" d="M60.08,223.018a2.939,2.939,0,0,1,.063-.355c.042-.219.092-.52.123-.858s.035-.643.036-.866a2.368,2.368,0,0,1,0-.359,1.641,1.641,0,0,1,.036.359,6.606,6.606,0,0,1-.017.871,5.9,5.9,0,0,1-.142.862A1.641,1.641,0,0,1,60.08,223.018Z" transform="translate(-56.576 -206.069)" fill="#263238"/>
      <path id="Path_3808" data-name="Path 3808" d="M41.84,234H67.81v5.517a1.628,1.628,0,0,1-1.628,1.628H43.289A1.449,1.449,0,0,1,41.84,239.7Z" transform="translate(-41.838 -216.913)" fill="#ebebeb"/>
      <path id="Path_3809" data-name="Path 3809" d="M53.275,243.955a9.875,9.875,0,0,1-1.392.05,9.893,9.893,0,0,1-1.394-.05,9.9,9.9,0,0,1,1.394-.05,9.878,9.878,0,0,1,1.392.05Z" transform="translate(-48.827 -224.912)" fill="#263238"/>
      <path id="Path_3810" data-name="Path 3810" d="M59.11,249.27c0,.029-1.973.05-4.415.05s-4.415-.021-4.415-.05,1.973-.05,4.415-.05S59.11,249.243,59.11,249.27Z" transform="translate(-48.657 -229.211)" fill="#263238"/>
      <path id="Path_3811" data-name="Path 3811" d="M59.11,255.24c0,.027-1.973.05-4.415.05s-4.415-.023-4.415-.05,1.973-.05,4.415-.05S59.11,255.213,59.11,255.24Z" transform="translate(-48.657 -234.036)" fill="#263238"/>
      <path id="Path_3812" data-name="Path 3812" d="M56.517,261.21c0,.027-1.38.05-3.083.05s-3.085-.023-3.085-.05,1.382-.05,3.085-.05S56.517,261.181,56.517,261.21Z" transform="translate(-48.714 -238.86)" fill="#263238"/>
      <path id="Path_3813" data-name="Path 3813" d="M120.727,243.955a19.485,19.485,0,0,1-2.787,0,19.479,19.479,0,0,1,2.787,0Z" transform="translate(-103.33 -224.912)" fill="#263238"/>
      <path id="Path_3814" data-name="Path 3814" d="M126.56,249.27c0,.029-1.973.05-4.415.05s-4.415-.021-4.415-.05,1.973-.05,4.415-.05S126.56,249.243,126.56,249.27Z" transform="translate(-103.161 -229.211)" fill="#263238"/>
      <path id="Path_3815" data-name="Path 3815" d="M126.56,255.24c0,.027-1.973.05-4.415.05s-4.415-.023-4.415-.05,1.973-.05,4.415-.05S126.56,255.213,126.56,255.24Z" transform="translate(-103.161 -234.036)" fill="#263238"/>
      <path id="Path_3816" data-name="Path 3816" d="M123.967,261.21c0,.027-1.382.05-3.085.05s-3.083-.023-3.083-.05,1.38-.05,3.083-.05S123.967,261.181,123.967,261.21Z" transform="translate(-103.217 -238.86)" fill="#263238"/>
      <path id="Path_3817" data-name="Path 3817" d="M66.172,169.217a1.756,1.756,0,0,0,.251-.027,1.618,1.618,0,0,0,1.321-1.248,3.476,3.476,0,0,0,.038-.768q0-.412,0-.875c0-2.474,0-6.05-.015-10.471v-9.206a2.092,2.092,0,0,0-.035-.493,1.313,1.313,0,0,0-.192-.453,1.359,1.359,0,0,0-.8-.559,2,2,0,0,0-.507-.04H43.461a1.883,1.883,0,0,0-.61.061,1.33,1.33,0,0,0-.518.307,1.374,1.374,0,0,0-.411,1.1v21.291a1.39,1.39,0,0,0,.111.482,1.413,1.413,0,0,0,.664.7,1.344,1.344,0,0,0,.463.14c.159.015.328,0,.493,0h8.213l10.469.015,2.847.01h0l-2.847.01-10.469.015H43.651c-.167,0-.33,0-.5-.012a1.425,1.425,0,0,1-.491-.146,1.48,1.48,0,0,1-.825-1.255V146.552a1.443,1.443,0,0,1,1-1.5,1.973,1.973,0,0,1,.641-.065H66.234a2.046,2.046,0,0,1,.528.044,1.426,1.426,0,0,1,1.056,1.077,2.214,2.214,0,0,1,.035.512v9.212c0,4.415-.012,8-.015,10.471v.875a3.54,3.54,0,0,1-.042.768,1.643,1.643,0,0,1-.664.983,1.626,1.626,0,0,1-.685.271,1.431,1.431,0,0,1-.192.015Z" transform="translate(-41.827 -144.98)" fill="#263238"/>
      <path id="Path_3818" data-name="Path 3818" d="M62.072,173.5a3.215,3.215,0,0,1,2.484-1.234,3.677,3.677,0,0,1,1.2.217,1.787,1.787,0,0,1,1.013.67,2.994,2.994,0,0,1,.576,1.361,8.353,8.353,0,0,1,.073,1.536,2.8,2.8,0,0,1-.48,1.44l-1.3.225a8.2,8.2,0,0,1-2.148-.115,2.427,2.427,0,0,1-1.42-4.1Z" transform="translate(-57.683 -167.032)" fill="#263238"/>
      <path id="Path_3819" data-name="Path 3819" d="M88.06,198.273a.268.268,0,0,0,.079.069.67.67,0,0,0,.267.09.706.706,0,0,0,.415-.084.673.673,0,0,0-.065-1.205.626.626,0,0,0-.276-.056.192.192,0,0,0-.1.019.96.96,0,0,1,.355.086.666.666,0,0,1,.276.261.614.614,0,0,1,.048.457.622.622,0,0,1-.273.37.662.662,0,0,1-.372.09A.983.983,0,0,1,88.06,198.273Z" transform="translate(-79.186 -187.085)" fill="#e0e0e0"/>
      <path id="Path_3820" data-name="Path 3820" d="M58.093,194.847a.96.96,0,0,1,.441-.731.7.7,0,0,1,.822.071l.2.244a.835.835,0,0,1,.484.845.918.918,0,0,1-.63.752,1.019,1.019,0,0,1-.971-.234A1.136,1.136,0,0,1,58.093,194.847Z" transform="translate(-54.966 -184.603)" fill="#263238"/>
      <path id="Path_3821" data-name="Path 3821" d="M58.951,197.132a.428.428,0,0,1-.069-.257,1.194,1.194,0,0,1,.3-.576,1.751,1.751,0,0,1,.522-.417c.152-.083.257-.111.253-.123a.748.748,0,0,0-.273.083,1.6,1.6,0,0,0-.768.735.727.727,0,0,0-.084.305.363.363,0,0,0,.06.205C58.924,197.121,58.949,197.136,58.951,197.132Z" transform="translate(-55.566 -186.013)" fill="#455a64"/>
      <path id="Path_3822" data-name="Path 3822" d="M62.5,198.033a2.284,2.284,0,0,1,.432-1.633.689.689,0,0,0-.173.192,1.787,1.787,0,0,0-.259.576,1.755,1.755,0,0,0-.052.622A.643.643,0,0,0,62.5,198.033Z" transform="translate(-58.482 -186.53)" fill="#455a64"/>
      <path id="Path_3823" data-name="Path 3823" d="M71.06,182.464v-1.205a1.712,1.712,0,0,0,1.355-1.474,14.614,14.614,0,0,0,.165-2.71,1.978,1.978,0,0,0-1.728-1.952l-.455-.052-1.728.687a.484.484,0,0,0-.459.466l-.052,5.8,2.9,4.065.017-3.624Z" transform="translate(-63.105 -169.294)" fill="#b56760"/>
      <path id="Path_3824" data-name="Path 3824" d="M79.653,196.948a.288.288,0,0,1,.1-.178.3.3,0,0,1,.359-.021.4.4,0,0,1,.152.372h0a.363.363,0,0,1-.259.15h-.048a.324.324,0,0,1-.219-.086A.29.29,0,0,1,79.653,196.948Z" transform="translate(-72.392 -186.771)" fill="#8a4a43"/>
      <path id="Path_3825" data-name="Path 3825" d="M86.683,189.727a.177.177,0,0,1-.18.169.169.169,0,0,1-.173-.169.177.177,0,0,1,.18-.167.167.167,0,0,1,.173.167Z" transform="translate(-77.788 -181.003)" fill="#263238"/>
      <path id="Path_3826" data-name="Path 3826" d="M86.451,187.3c-.023.023-.15-.083-.34-.092s-.334.077-.353.052.015-.05.079-.092a.478.478,0,0,1,.284-.069.462.462,0,0,1,.269.1C86.445,187.244,86.462,187.287,86.451,187.3Z" transform="translate(-77.321 -179.01)" fill="#263238"/>
      <path id="Path_3827" data-name="Path 3827" d="M83.19,188.97a1.206,1.206,0,0,1,.311-.038c.048,0,.094,0,.106-.042a.244.244,0,0,0-.025-.146c-.038-.119-.081-.244-.123-.374a6.351,6.351,0,0,1-.269-.979,6.406,6.406,0,0,1,.347.96l.117.384a.276.276,0,0,1,.013.192.123.123,0,0,1-.083.067.325.325,0,0,1-.083,0A1.344,1.344,0,0,1,83.19,188.97Z" transform="translate(-75.251 -179.25)" fill="#263238"/>
      <path id="Path_3828" data-name="Path 3828" d="M75.6,204.821a3.513,3.513,0,0,1-1.812-.591,1.841,1.841,0,0,0,1.82.925Z" transform="translate(-67.655 -192.857)" fill="#8a4a43"/>
      <path id="Path_3829" data-name="Path 3829" d="M80.087,196.14c.031,0,.019.205.192.361s.384.144.384.173-.052.036-.144.035a.52.52,0,0,1-.324-.132.447.447,0,0,1-.144-.3C80.039,196.188,80.073,196.138,80.087,196.14Z" transform="translate(-72.712 -186.32)" fill="#263238"/>
      <path id="Path_3830" data-name="Path 3830" d="M86.21,183.68c-.035.044-.179,0-.349.012s-.313.04-.347,0,0-.065.067-.109a.522.522,0,0,1,.28-.083.512.512,0,0,1,.28.077C86.2,183.615,86.225,183.659,86.21,183.68Z" transform="translate(-77.116 -176.106)" fill="#263238"/>
      <path id="Path_3831" data-name="Path 3831" d="M77.11,189.709a.178.178,0,0,0,.167.18.169.169,0,0,0,.192-.155.175.175,0,0,0-.165-.18.171.171,0,0,0-.194.155Z" transform="translate(-70.337 -180.996)" fill="#263238"/>
      <path id="Path_3832" data-name="Path 3832" d="M75.857,187.048c.021.023.155-.073.346-.069s.328.1.349.079-.012-.052-.071-.1a.5.5,0,0,0-.278-.09.455.455,0,0,0-.276.084C75.867,187,75.846,187.038,75.857,187.048Z" transform="translate(-69.323 -178.829)" fill="#263238"/>
      <path id="Path_3833" data-name="Path 3833" d="M75.28,184.911c.036.044.192,0,.359,0s.326.035.361,0,0-.065-.073-.107a.528.528,0,0,0-.29-.075.541.541,0,0,0-.29.081C75.285,184.848,75.264,184.89,75.28,184.911Z" transform="translate(-68.855 -177.099)" fill="#263238"/>
      <path id="Path_3834" data-name="Path 3834" d="M65.4,191.412c0-.1-.1-.349-.192-.37a.6.6,0,0,0-.8.622.7.7,0,0,0,.9.768C65.31,192.4,65.379,191.763,65.4,191.412Z" transform="translate(-60.073 -182.181)" fill="#b56760"/>
      <path id="Path_3835" data-name="Path 3835" d="M66.1,193.4a.439.439,0,0,1-.046.021.154.154,0,0,1-.123,0,.4.4,0,0,1-.163-.372.509.509,0,0,1,.059-.228.192.192,0,0,1,.131-.119.086.086,0,0,1,.094.052.064.064,0,0,1,0,.046s.021-.013.015-.054a.1.1,0,0,0-.033-.06.132.132,0,0,0-.088-.031.23.23,0,0,0-.179.134.537.537,0,0,0-.073.257.426.426,0,0,0,.213.418.179.179,0,0,0,.15-.015C66.1,193.428,66.106,193.406,66.1,193.4Z" transform="translate(-61.114 -183.508)" fill="#8a4a43"/>
      <path id="Path_3836" data-name="Path 3836" d="M66.236,177.548l.238.248c1.027-.981,3.033-3.436,2.92-3.29a3,3,0,0,0-1.466-.159c-.768.131-2.211.511-2.188,1.409A4.7,4.7,0,0,0,66.236,177.548Z" transform="translate(-61.149 -168.686)" fill="#263238"/>
      <path id="Path_3837" data-name="Path 3837" d="M63.829,198.273a.274.274,0,0,1-.077.069.68.68,0,0,1-.269.09.712.712,0,0,1-.415-.084.675.675,0,0,1,.065-1.205.632.632,0,0,1,.278-.056.192.192,0,0,1,.1.019.96.96,0,0,0-.355.086.67.67,0,0,0-.278.261.636.636,0,0,0,.225.827.668.668,0,0,0,.384.09.96.96,0,0,0,.34-.1Z" transform="translate(-58.721 -187.085)" fill="#e0e0e0"/>
      <path id="Path_3838" data-name="Path 3838" d="M61.25,177.175a.167.167,0,0,1,.013-.054.96.96,0,0,1,.063-.148,1.367,1.367,0,0,1,.384-.44,2.545,2.545,0,0,1,.787-.384c.313-.1.666-.182,1.013-.33a4.55,4.55,0,0,0,.923-.516,4.7,4.7,0,0,0,.653-.576,5.291,5.291,0,0,0,.384-.445l.092-.129a.255.255,0,0,1,.036-.044.221.221,0,0,1-.027.048c-.021.031-.048.079-.088.134a3.957,3.957,0,0,1-.367.459,4.443,4.443,0,0,1-1.584,1.108,10.267,10.267,0,0,1-1.017.326,2.581,2.581,0,0,0-.779.365,1.365,1.365,0,0,0-.4.42C61.275,177.1,61.254,177.177,61.25,177.175Z" transform="translate(-57.522 -168.519)" fill="#455a64"/>
      <path id="Path_3839" data-name="Path 3839" d="M62.668,178.22a.507.507,0,0,1,.035-.205.96.96,0,0,1,.353-.44,2.129,2.129,0,0,1,.779-.305,4.525,4.525,0,0,0,.971-.307,4.1,4.1,0,0,0,1.457-1.115,4.272,4.272,0,0,0,.332-.453l.079-.131a.333.333,0,0,1,.031-.044.1.1,0,0,1-.023.05l-.071.134a3.921,3.921,0,0,1-.321.466,3.989,3.989,0,0,1-.591.593,4.046,4.046,0,0,1-.873.543,4.578,4.578,0,0,1-.979.307,2.125,2.125,0,0,0-.768.29.948.948,0,0,0-.347.418A.858.858,0,0,0,62.668,178.22Z" transform="translate(-58.668 -169.416)" fill="#455a64"/>
    </g>
    <g id="freepik--profile-1--inject-2" transform="translate(39.442 42.709)">
      <path id="Path_3840" data-name="Path 3840" d="M149.917,50.9h23.162a1.39,1.39,0,0,1,1.39,1.39V73.456a1.628,1.628,0,0,1-1.628,1.628H150a1.449,1.449,0,0,1-1.449-1.449V52.274a1.374,1.374,0,0,1,1.367-1.374Z" transform="translate(-148.498 -50.846)" fill="#fff"/>
      <rect id="Rectangle_897" data-name="Rectangle 897" width="13.114" height="13.114" transform="translate(0.043 3.979)" fill="#f5f5f5"/>
      <path id="Path_3841" data-name="Path 3841" d="M149.876,50.9h23.162a1.39,1.39,0,0,1,1.39,1.39v2.536H148.5V52.274a1.374,1.374,0,0,1,1.376-1.374Z" transform="translate(-148.457 -50.846)" fill="#ff735d"/>
      <path id="Path_3842" data-name="Path 3842" d="M156.589,59.429a.489.489,0,1,1-.489-.489A.489.489,0,0,1,156.589,59.429Z" transform="translate(-154.203 -57.343)" fill="#fff"/>
      <path id="Path_3843" data-name="Path 3843" d="M164.289,59.429a.489.489,0,1,1-.489-.489A.489.489,0,0,1,164.289,59.429Z" transform="translate(-160.425 -57.343)" fill="#fff"/>
      <path id="Path_3844" data-name="Path 3844" d="M172,59.429a.489.489,0,1,1-.489-.489A.489.489,0,0,1,172,59.429Z" transform="translate(-166.655 -57.343)" fill="#fff"/>
      <path id="Path_3845" data-name="Path 3845" d="M234.546,92.88c0,.027-1.891.05-4.223.05s-4.223-.023-4.223-.05,1.889-.05,4.223-.05S234.546,92.851,234.546,92.88Z" transform="translate(-211.162 -84.728)" fill="#263238"/>
      <path id="Path_3846" data-name="Path 3846" d="M234.546,99.5c0,.029-1.891.05-4.223.05s-4.223-.021-4.223-.05,1.889-.05,4.223-.05S234.546,99.473,234.546,99.5Z" transform="translate(-211.162 -90.077)" fill="#263238"/>
      <path id="Path_3847" data-name="Path 3847" d="M234.546,106.13c0,.027-1.891.05-4.223.05s-4.223-.023-4.223-.05,1.889-.05,4.223-.05S234.546,106.1,234.546,106.13Z" transform="translate(-211.162 -95.435)" fill="#263238"/>
      <path id="Path_3848" data-name="Path 3848" d="M234.546,119.86c0,.027-1.891.05-4.223.05s-4.223-.023-4.223-.05,1.889-.05,4.223-.05S234.546,119.831,234.546,119.86Z" transform="translate(-211.162 -106.529)" fill="#263238"/>
      <path id="Path_3849" data-name="Path 3849" d="M230.907,126.48c0,.029-1.071.05-2.394.05s-2.394-.021-2.394-.05,1.071-.05,2.394-.05S230.907,126.453,230.907,126.48Z" transform="translate(-211.178 -111.878)" fill="#263238"/>
      <path id="Path_3850" data-name="Path 3850" d="M230,112.765a37.791,37.791,0,0,1-3.883,0,37.793,37.793,0,0,1,3.883,0Z" transform="translate(-211.178 -100.791)" fill="#ff735d"/>
      <path id="Path_3851" data-name="Path 3851" d="M230,84.762a37.793,37.793,0,0,1-3.883,0,37.788,37.788,0,0,1,3.883,0Z" transform="translate(-211.178 -78.163)" fill="#ff735d"/>
      <path id="Path_3852" data-name="Path 3852" d="M172.571,81.164a1.727,1.727,0,0,0-.864-1.023,2.188,2.188,0,0,0-1.47-.134,4.641,4.641,0,0,0-1.369.612,2.24,2.24,0,0,0-.647.536,3.2,3.2,0,0,0-.622,1.6,5.672,5.672,0,0,0,.361,1.822.917.917,0,0,0,.409.347,3.505,3.505,0,0,0,.779.973l.265-.845Z" transform="translate(-163.891 -74.31)" fill="#263238"/>
      <path id="Path_3853" data-name="Path 3853" d="M188.722,83.183l-.822-.123a37.911,37.911,0,0,1,.96,4.607,5.884,5.884,0,0,0,.9-2.326C189.7,84.811,189.691,83.066,188.722,83.183Z" transform="translate(-180.295 -76.833)" fill="#263238"/>
      <path id="Path_3854" data-name="Path 3854" d="M172.226,85.684a1.4,1.4,0,0,1,1.013-1.317l1.87-.534c.81-.111,1.382.875,1.459,1.689a12.886,12.886,0,0,1,.063,2.543,1.7,1.7,0,0,1-1.213,1.574s.017.647.029,1.044l-.305,1.783-2.465-2.111L172.22,85.7C172.22,85.678,172.224,85.715,172.226,85.684Z" transform="translate(-167.624 -77.451)" fill="#ffbe9d"/>
      <path id="Path_3855" data-name="Path 3855" d="M191.175,97.623a.175.175,0,0,1-.163.192.167.167,0,0,1-.192-.154.175.175,0,0,1,.163-.18.167.167,0,0,1,.192.142Z" transform="translate(-182.654 -88.484)" fill="#263238"/>
      <path id="Path_3856" data-name="Path 3856" d="M190.962,94.752c-.021.025-.157-.069-.346-.063s-.322.1-.344.083.012-.052.069-.1a.48.48,0,0,1,.274-.094.466.466,0,0,1,.274.081C190.95,94.7,190.971,94.742,190.962,94.752Z" transform="translate(-182.207 -86.141)" fill="#263238"/>
      <path id="Path_3857" data-name="Path 3857" d="M182.415,97.822a.175.175,0,0,1-.163.18.167.167,0,0,1-.192-.152.175.175,0,0,1,.163-.18.165.165,0,0,1,.192.152Z" transform="translate(-175.575 -88.637)" fill="#263238"/>
      <path id="Path_3858" data-name="Path 3858" d="M181.672,95.022c-.021.023-.157-.071-.344-.063s-.324.1-.344.081.01-.052.069-.1a.48.48,0,0,1,.549-.015C181.661,94.97,181.682,95.011,181.672,95.022Z" transform="translate(-174.702 -86.36)" fill="#263238"/>
      <path id="Path_3859" data-name="Path 3859" d="M187.3,96.772a1.313,1.313,0,0,1,.3-.065c.048,0,.092-.017.1-.05a.246.246,0,0,0-.036-.14c-.048-.115-.1-.236-.154-.361a6.225,6.225,0,0,1-.347-.946,6.112,6.112,0,0,1,.424.916c.05.127.1.248.146.363a.267.267,0,0,1,.031.192.121.121,0,0,1-.077.073.351.351,0,0,1-.081.013A1.2,1.2,0,0,1,187.3,96.772Z" transform="translate(-179.705 -86.651)" fill="#263238"/>
      <path id="Path_3860" data-name="Path 3860" d="M179.4,111.86a1.724,1.724,0,0,0,1.827.754v-.321a3.428,3.428,0,0,1-1.827-.434Z" transform="translate(-173.426 -100.105)" fill="#eb996e"/>
      <path id="Path_3861" data-name="Path 3861" d="M180.552,91.672c-.017.052-.205.033-.424.067s-.4.1-.428.054.017-.071.086-.123a.725.725,0,0,1,.315-.121.745.745,0,0,1,.334.029C180.518,91.608,180.56,91.647,180.552,91.672Z" transform="translate(-173.661 -83.687)" fill="#263238"/>
      <path id="Path_3862" data-name="Path 3862" d="M190.755,91.725c-.031.044-.163,0-.319,0s-.286.038-.317,0,0-.065.061-.107a.466.466,0,0,1,.512,0C190.749,91.659,190.768,91.7,190.755,91.725Z" transform="translate(-182.078 -83.686)" fill="#263238"/>
      <path id="Path_3863" data-name="Path 3863" d="M174.862,82.121a.6.6,0,0,0-.53-.324,1.161,1.161,0,0,0-.622.192c-.8.491-1.182,1.635-1.969,2.144-.192.125-.453.023-.616.192a.576.576,0,0,0-.167.626,1.873,1.873,0,0,1-.29-.463.643.643,0,0,1,0-.532c.067-.121.192-.217.217-.351a1.95,1.95,0,0,0-.023-.365.768.768,0,0,1,.115-.351,3.53,3.53,0,0,1,1.261-1.407,2.324,2.324,0,0,1,1.186-.342,1.752,1.752,0,0,1,1.152.418c.192.161.384.33.292.559" transform="translate(-166.324 -75.281)" fill="#263238"/>
      <path id="Path_3864" data-name="Path 3864" d="M170.329,98.347a.475.475,0,0,0-.72.482.538.538,0,0,0,.749.547C170.36,99.347,170.329,98.347,170.329,98.347Z" transform="translate(-165.515 -89.133)" fill="#ffbe9d"/>
      <path id="Path_3865" data-name="Path 3865" d="M170.9,100.071s-.012,0-.035.019a.127.127,0,0,1-.094,0,.313.313,0,0,1-.152-.28.438.438,0,0,1,.031-.192.15.15,0,0,1,.1-.1.063.063,0,0,1,.075.035c.012.019,0,.035.01.035s.015-.012.01-.042a.085.085,0,0,0-.029-.044.09.09,0,0,0-.071-.017.177.177,0,0,0-.132.115.447.447,0,0,0-.04.205.332.332,0,0,0,.192.313.136.136,0,0,0,.117-.021C170.9,100.089,170.9,100.073,170.9,100.071Z" transform="translate(-166.289 -90.103)" fill="#eb996e"/>
      <path id="Path_3866" data-name="Path 3866" d="M171.79,85.965l.044-.025c.027-.019.069-.044.119-.083a2.37,2.37,0,0,0,.384-.372,6.687,6.687,0,0,0,.466-.641,5.951,5.951,0,0,1,.576-.768,2.367,2.367,0,0,1,.384-.321,1.941,1.941,0,0,1,.417-.2,2.111,2.111,0,0,1,.768-.117,2.013,2.013,0,0,1,.53.092c.061.017.106.036.138.048l.048.015a.192.192,0,0,0-.046-.023c-.031-.012-.075-.033-.136-.052a1.885,1.885,0,0,0-.526-.1,2.062,2.062,0,0,0-.785.111,1.958,1.958,0,0,0-.42.19,2.187,2.187,0,0,0-.384.324,5.532,5.532,0,0,0-.585.768c-.165.248-.315.47-.459.645a2.848,2.848,0,0,1-.384.384c-.048.038-.09.065-.115.086Z" transform="translate(-167.277 -77.12)" fill="#fff"/>
      <path id="Path_3867" data-name="Path 3867" d="M172.748,93.291a1.131,1.131,0,0,0,.088.587.384.384,0,0,0,.507.192.551.551,0,0,0,.192-.43c.056-.47.075-.942.134-1.411Z" transform="translate(-168.045 -84.243)" fill="#263238"/>
      <path id="Path_3868" data-name="Path 3868" d="M176.457,84.386s-.065,0-.192-.012a1.25,1.25,0,0,0-.482.1,1.559,1.559,0,0,0-.3.165,3.4,3.4,0,0,0-.307.248,3.782,3.782,0,0,0-.6.679c-.09.134-.169.271-.253.4a1.847,1.847,0,0,1-.286.34,3.152,3.152,0,0,1-.607.432c-.192.106-.34.179-.447.23l-.125.058-.044.017a.192.192,0,0,1,.042-.025l.119-.065c.106-.054.257-.132.44-.24a3.405,3.405,0,0,0,.6-.434,1.9,1.9,0,0,0,.276-.334c.084-.127.163-.263.253-.4a3.647,3.647,0,0,1,.61-.674,3.178,3.178,0,0,1,.313-.25,1.545,1.545,0,0,1,.307-.163,1.227,1.227,0,0,1,.5-.092.872.872,0,0,1,.136.015Z" transform="translate(-168.109 -77.89)" fill="#455a64"/>
      <path id="Path_3869" data-name="Path 3869" d="M169.116,91.521l-.063.046-.192.113-.061.038a.2.2,0,0,1-.079.029.069.069,0,0,1-.05-.012.058.058,0,0,1-.029-.046.167.167,0,0,1,.033-.094c.061-.107.132-.227.205-.351l.029.025a.752.752,0,0,1-.232.125.726.726,0,0,1-.261.038.211.211,0,0,1-.067,0,.088.088,0,0,1-.058-.048.081.081,0,0,1,.01-.073.265.265,0,0,1,.04-.048,1.659,1.659,0,0,0,.242-.322,2.675,2.675,0,0,0,.148-.342.3.3,0,0,1-.019.1,1.536,1.536,0,0,1-.1.246,1.488,1.488,0,0,1-.24.336c-.025.027-.052.058-.04.079a.1.1,0,0,0,.09.033.745.745,0,0,0,.248-.036.728.728,0,0,0,.219-.117l.086-.067-.056.094-.211.347a.148.148,0,0,0-.029.073c0,.021.019.033.044.031a.4.4,0,0,0,.131-.06l.192-.1A.316.316,0,0,1,169.116,91.521Z" transform="translate(-164.445 -82.926)" fill="#fff"/>
      <path id="Path_3870" data-name="Path 3870" d="M184.183,104.451a.246.246,0,0,1,.248-.192.261.261,0,0,1,.192.136.307.307,0,0,1,.017.244v.017a.276.276,0,0,1-.311.077.261.261,0,0,1-.146-.282Z" transform="translate(-177.288 -93.963)" fill="#eb996e"/>
      <path id="Path_3871" data-name="Path 3871" d="M185.061,104.13c0-.027-.192-.013-.338-.165s-.142-.355-.169-.355-.033.048-.029.134a.472.472,0,0,0,.131.3.415.415,0,0,0,.282.129C185.019,104.169,185.065,104.144,185.061,104.13Z" transform="translate(-177.567 -93.439)" fill="#263238"/>
      <path id="Path_3872" data-name="Path 3872" d="M183.022,102.635c-.01,0-.019-.023-.015-.065a.213.213,0,0,1,.086-.14.209.209,0,0,1,.159-.035c.042,0,.061.029.058.035a.461.461,0,0,0-.18.052C183.047,102.533,183.037,102.635,183.022,102.635Z" transform="translate(-176.34 -92.454)" fill="#eb996e"/>
      <path id="Path_3873" data-name="Path 3873" d="M178.58,97.8c0-.017.052-.036.121-.023s.113.052.106.067-.06,0-.117,0S178.582,97.819,178.58,97.8Z" transform="translate(-172.764 -88.725)" fill="#eb996e"/>
      <path id="Path_3874" data-name="Path 3874" d="M194.083,98.428c-.012-.013,0-.046.048-.052s.067.017.061.035-.029.023-.052.027A.063.063,0,0,1,194.083,98.428Z" transform="translate(-185.287 -89.209)" fill="#eb996e"/>
      <path id="Path_3875" data-name="Path 3875" d="M178.82,97.283c0-.017.05-.025.1,0s.079.065.067.079-.05,0-.094-.021S178.818,97.3,178.82,97.283Z" transform="translate(-172.957 -88.313)" fill="#eb996e"/>
      <path id="Path_3876" data-name="Path 3876" d="M165.125,116.929l1.305-.109a2.234,2.234,0,0,0,1.7.875c.979-.073,1.085-.731,1.085-.731a5.719,5.719,0,0,1,2.687,1.344l.021.029,1.255,2.879H164.52Z" transform="translate(-161.402 -104.113)" fill="#ff735d"/>
      <path id="Path_3877" data-name="Path 3877" d="M155.938,117.34a3.839,3.839,0,0,0-1.09.353c-.923.541-1.728,3.933-1.728,3.933h2.568a10.074,10.074,0,0,0,1.01-2,6.491,6.491,0,0,0-.088-1.286C156.61,118.348,155.938,117.361,155.938,117.34Z" transform="translate(-152.191 -104.533)" fill="#ff735d"/>
      <path id="Path_3878" data-name="Path 3878" d="M199.262,133.38c-.019,0-.021-.209-.081-.457s-.148-.436-.131-.443a.994.994,0,0,1,.192.43A.914.914,0,0,1,199.262,133.38Z" transform="translate(-189.303 -116.767)" fill="#263238"/>
      <path id="Path_3879" data-name="Path 3879" d="M166.52,128.648a2.9,2.9,0,0,1,.065-.355c.042-.217.09-.52.121-.856s.036-.645.036-.866a2.39,2.39,0,0,1,0-.361,1.663,1.663,0,0,1,.036.359,6.316,6.316,0,0,1-.017.873,5.87,5.87,0,0,1-.142.86A1.641,1.641,0,0,1,166.52,128.648Z" transform="translate(-163.018 -111.701)" fill="#263238"/>
      <path id="Path_3880" data-name="Path 3880" d="M148.28,139.67h25.97v5.517a1.628,1.628,0,0,1-1.628,1.628H149.731a1.449,1.449,0,0,1-1.449-1.449v-5.7Z" transform="translate(-148.28 -122.577)" fill="#ebebeb"/>
      <path id="Path_3881" data-name="Path 3881" d="M159.725,149.585a19.458,19.458,0,0,1-2.785,0,19.458,19.458,0,0,1,2.785,0Z" transform="translate(-155.277 -130.544)" fill="#263238"/>
      <path id="Path_3882" data-name="Path 3882" d="M165.56,154.91c0,.027-1.975.05-4.415.05s-4.415-.023-4.415-.05,1.973-.05,4.415-.05S165.56,154.887,165.56,154.91Z" transform="translate(-155.108 -134.851)" fill="#263238"/>
      <path id="Path_3883" data-name="Path 3883" d="M165.56,160.87c0,.029-1.975.05-4.415.05s-4.415-.021-4.415-.05,1.973-.05,4.415-.05S165.56,160.843,165.56,160.87Z" transform="translate(-155.108 -139.667)" fill="#263238"/>
      <path id="Path_3884" data-name="Path 3884" d="M162.965,166.84c0,.027-1.38.05-3.083.05s-3.083-.023-3.083-.05,1.38-.05,3.083-.05S162.965,166.813,162.965,166.84Z" transform="translate(-155.164 -144.492)" fill="#263238"/>
      <path id="Path_3885" data-name="Path 3885" d="M227.167,149.585a19.479,19.479,0,0,1-2.787,0,19.485,19.485,0,0,1,2.787,0Z" transform="translate(-209.772 -130.544)" fill="#263238"/>
      <path id="Path_3886" data-name="Path 3886" d="M233,154.91c0,.027-1.973.05-4.415.05s-4.415-.023-4.415-.05,1.973-.05,4.415-.05S233,154.887,233,154.91Z" transform="translate(-209.603 -134.851)" fill="#263238"/>
      <path id="Path_3887" data-name="Path 3887" d="M233,160.87c0,.029-1.973.05-4.415.05s-4.415-.021-4.415-.05,1.973-.05,4.415-.05S233,160.843,233,160.87Z" transform="translate(-209.603 -139.667)" fill="#263238"/>
      <path id="Path_3888" data-name="Path 3888" d="M230.407,166.84c0,.027-1.38.05-3.083.05s-3.085-.023-3.085-.05,1.38-.05,3.085-.05S230.407,166.813,230.407,166.84Z" transform="translate(-209.659 -144.492)" fill="#263238"/>
      <path id="Path_3889" data-name="Path 3889" d="M172.621,74.855a2.432,2.432,0,0,0,.251-.025,1.622,1.622,0,0,0,1.323-1.25,3.6,3.6,0,0,0,.036-.768v-.873c0-2.474-.01-6.052-.015-10.471V52.261a2.1,2.1,0,0,0-.035-.493,1.3,1.3,0,0,0-.192-.451,1.344,1.344,0,0,0-.812-.559,1.933,1.933,0,0,0-.509-.04H149.91a1.889,1.889,0,0,0-.61.06,1.394,1.394,0,0,0-.518.307,1.374,1.374,0,0,0-.411,1.1V73.479a1.39,1.39,0,0,0,.768,1.182,1.359,1.359,0,0,0,.463.14c.159.015.328,0,.493.012h8.213l10.469.015,2.847.01h0l-2.841.04-10.469.015H149.6a1.428,1.428,0,0,1-.491-.148A1.5,1.5,0,0,1,148.4,74a1.467,1.467,0,0,1-.117-.511c-.01-.177,0-.346,0-.52V52.19a1.48,1.48,0,0,1,.441-1.171,1.441,1.441,0,0,1,.557-.33,1.973,1.973,0,0,1,.641-.065h22.763a2.044,2.044,0,0,1,.528.042,1.43,1.43,0,0,1,.839.6,1.363,1.363,0,0,1,.205.48,2.215,2.215,0,0,1,.035.512v9.213c0,4.415-.012,8-.015,10.471v.873a3.564,3.564,0,0,1-.042.768,1.632,1.632,0,0,1-1.344,1.251,1.151,1.151,0,0,1-.192.015Z" transform="translate(-148.278 -50.62)" fill="#263238"/>
    </g>
    <g id="freepik--Character--inject-2" transform="translate(63.434 49.174)">
      <path id="Path_3890" data-name="Path 3890" d="M366.656,88.591a.883.883,0,0,1-.286-1.728.921.921,0,0,1,.879-1.509,1.1,1.1,0,0,1,1.7-.816,1.234,1.234,0,0,1,1.522.046.881.881,0,0,1,.7,1.536" transform="translate(-350.4 -84.298)" fill="#263238"/>
      <path id="Path_3891" data-name="Path 3891" d="M367.65,93.524a3.753,3.753,0,0,1,3.906-3.263h.192c2.086.227,3.06,2.125,2.776,4.2l-.649,6.95-.035.338-4.874.739.094-1.774a2.417,2.417,0,0,1-1.919-2.426C367.178,97.32,367.414,95.326,367.65,93.524Z" transform="translate(-351.529 -89.112)" fill="#9f7362"/>
      <path id="Path_3892" data-name="Path 3892" d="M377.013,142.041a4.885,4.885,0,0,0,2.674-.641A2.479,2.479,0,0,1,377,142.536Z" transform="translate(-359.497 -130.439)" fill="#65463c"/>
      <path id="Path_3893" data-name="Path 3893" d="M372.078,115.9a.286.286,0,0,0,.263.3.271.271,0,0,0,.307-.244.286.286,0,0,0-.261-.3.273.273,0,0,0-.309.244Z" transform="translate(-355.519 -109.637)" fill="#263238"/>
      <path id="Path_3894" data-name="Path 3894" d="M371.783,111.351c.035.04.259-.111.576-.094s.528.192.562.146-.015-.086-.109-.163a.812.812,0,0,0-.449-.163.768.768,0,0,0-.455.123C371.8,111.268,371.765,111.333,371.783,111.351Z" transform="translate(-355.278 -105.936)" fill="#263238"/>
      <path id="Path_3895" data-name="Path 3895" d="M386.738,116.684a.286.286,0,0,0,.263.3.275.275,0,0,0,.309-.244.286.286,0,0,0-.263-.3.274.274,0,0,0-.309.244Z" transform="translate(-367.365 -110.269)" fill="#263238"/>
      <path id="Path_3896" data-name="Path 3896" d="M387.593,112.44c.033.038.259-.111.576-.094s.528.18.562.144-.015-.084-.109-.161a.8.8,0,0,0-.449-.163.756.756,0,0,0-.455.123C387.612,112.356,387.575,112.423,387.593,112.44Z" transform="translate(-368.053 -106.816)" fill="#263238"/>
      <path id="Path_3897" data-name="Path 3897" d="M377.919,114.479a1.961,1.961,0,0,0-.5-.115c-.079-.013-.152-.033-.163-.086a.4.4,0,0,1,.065-.232l.263-.589a11.46,11.46,0,0,0,.6-1.536,11.615,11.615,0,0,0-.726,1.493l-.253.593a.459.459,0,0,0-.058.309.192.192,0,0,0,.125.121.546.546,0,0,0,.132.025A2.046,2.046,0,0,0,377.919,114.479Z" transform="translate(-359.616 -106.618)" fill="#263238"/>
      <path id="Path_3898" data-name="Path 3898" d="M387.249,108.693c.038.079.307,0,.633.013s.6.073.632,0c.015-.038-.038-.111-.154-.18a.96.96,0,0,0-.484-.127.938.938,0,0,0-.48.121C387.285,108.582,387.233,108.654,387.249,108.693Z" transform="translate(-367.776 -103.773)" fill="#263238"/>
      <path id="Path_3899" data-name="Path 3899" d="M372.016,104.624c.061.073.321.013.628.025s.564.075.628,0c.027-.035,0-.107-.121-.179a1.048,1.048,0,0,0-1.01-.025C372.03,104.518,371.989,104.589,372.016,104.624Z" transform="translate(-355.463 -100.483)" fill="#263238"/>
      <path id="Path_3900" data-name="Path 3900" d="M371.05,91.52s.593-1.232,1.215-1.5c.752-.319,1.029.5,1.739.344s1.428-.468,2.111.109c.754.632.367,1.029.37,1.919.017,3.628.628,4.684.9,2.989.029-.192.555-.309.67-1.094a8.866,8.866,0,0,0,.059-2.994,2.862,2.862,0,0,0-1.092-1.557,4.769,4.769,0,0,0-3.23-.822C372.866,88.963,371.04,89.94,371.05,91.52Z" transform="translate(-354.689 -88.022)" fill="#263238"/>
      <path id="Path_3901" data-name="Path 3901" d="M402.864,120.239a.549.549,0,0,1,.616-.5c.372.056.779.288.716,1.061a1.036,1.036,0,0,1-1.466.939C402.73,121.7,402.813,120.813,402.864,120.239Z" transform="translate(-380.288 -112.935)" fill="#9f7362"/>
      <path id="Path_3902" data-name="Path 3902" d="M404.5,123.149a.536.536,0,0,0,.061.042.242.242,0,0,0,.178.017.591.591,0,0,0,.317-.509.791.791,0,0,0-.038-.347.28.28,0,0,0-.165-.192.119.119,0,0,0-.146.054c-.023.036-.015.065-.023.067s-.027-.027-.012-.083a.148.148,0,0,1,.061-.081.177.177,0,0,1,.134-.025.34.34,0,0,1,.232.234.81.81,0,0,1,.052.384.622.622,0,0,1-.4.564.253.253,0,0,1-.215-.056C404.5,123.183,404.5,123.153,404.5,123.149Z" transform="translate(-381.719 -114.835)" fill="#65463c"/>
      <path id="Path_3903" data-name="Path 3903" d="M381.648,90.622a1.307,1.307,0,0,1-.6.24.449.449,0,0,1-.482-.34c-.012-.1.017-.207-.042-.284s-.211-.071-.326-.065a.877.877,0,0,1-.879-.674.369.369,0,0,1-.5.021,1.909,1.909,0,0,1-.353-.418.576.576,0,0,0-.472-.259,1.285,1.285,0,0,1-.3.05c-.179-.025-.257-.24-.274-.42a.659.659,0,0,0-.179-.5.718.718,0,0,0-.489-.038c-.169.015-.384-.033-.415-.192a.33.33,0,0,1,.073-.248.893.893,0,0,1,1.067-.284,1.209,1.209,0,0,1,2.248-.129,1.223,1.223,0,0,1,1.919.543.889.889,0,0,1,.937,1.344.839.839,0,0,1,.43.693.481.481,0,0,1-.576.466.491.491,0,0,1-.875.447" transform="translate(-358.962 -85.983)" fill="#263238"/>
      <path id="Path_3904" data-name="Path 3904" d="M381.7,92.77v.1a.877.877,0,0,0,.086.269,1.019,1.019,0,0,0,.288.342.939.939,0,0,0,.557.192l-.023-.033a.5.5,0,0,0,.01.384,1.436,1.436,0,0,0,.219.349.961.961,0,0,0,.146.165.482.482,0,0,0,.213.092.507.507,0,0,0,.451-.136l-.052-.017a1.035,1.035,0,0,0,.4.735.756.756,0,0,0,.443.171,1.378,1.378,0,0,0,.449-.077l-.035-.017a1.071,1.071,0,0,0,.3.44.576.576,0,0,0,.472.155.768.768,0,0,0,.612-.564l-.031.013a.708.708,0,0,0,.468.092.793.793,0,0,0,.338-.131.7.7,0,0,0,.161-.159.244.244,0,0,0,.038-.071.747.747,0,0,1-.541.328.678.678,0,0,1-.441-.1l-.025-.015v.029a.718.718,0,0,1-.576.522.52.52,0,0,1-.428-.146,1.052,1.052,0,0,1-.286-.417l-.01-.027h-.025a1.317,1.317,0,0,1-.441.067.7.7,0,0,1-.409-.159.969.969,0,0,1-.384-.693v-.065l-.046.048a.443.443,0,0,1-.4.121.42.42,0,0,1-.192-.081.884.884,0,0,1-.136-.154,1.4,1.4,0,0,1-.215-.336.461.461,0,0,1-.013-.346l.013-.031h-.035a.877.877,0,0,1-.532-.173.979.979,0,0,1-.288-.322A1.027,1.027,0,0,1,381.7,92.77Z" transform="translate(-363.295 -91.144)" fill="#455a64"/>
      <path id="Path_3905" data-name="Path 3905" d="M380.476,129.669a2.332,2.332,0,0,1-.656.142,2.3,2.3,0,0,1-.67.044,2.255,2.255,0,0,1,.656-.142A2.3,2.3,0,0,1,380.476,129.669Z" transform="translate(-361.234 -120.954)" fill="#263238"/>
      <path id="Path_3906" data-name="Path 3906" d="M425.828,404.9a2.225,2.225,0,0,0,0,.365c0,.232.025.576.048.989.048.835.131,1.987.227,3.263s.18,2.424.234,3.263c.027.4.048.735.065.989a2.456,2.456,0,0,0,.036.363,2.094,2.094,0,0,0,0-.365c0-.234-.012-.576-.029-.99-.033-.835-.1-1.989-.2-3.263s-.192-2.405-.259-3.263c-.035-.4-.061-.733-.084-.987a2.29,2.29,0,0,0-.036-.363Z" transform="translate(-398.947 -342.112)" fill="#455a64"/>
      <path id="Path_3907" data-name="Path 3907" d="M425.828,404.9a2.225,2.225,0,0,0,0,.365c0,.232.025.576.048.989.048.835.131,1.987.227,3.263s.18,2.424.234,3.263c.027.4.048.735.065.989a2.456,2.456,0,0,0,.036.363,2.094,2.094,0,0,0,0-.365c0-.234-.012-.576-.029-.99-.033-.835-.1-1.989-.2-3.263s-.192-2.405-.259-3.263c-.035-.4-.061-.733-.084-.987a2.29,2.29,0,0,0-.036-.363Z" transform="translate(-398.947 -342.112)" fill="#455a64"/>
      <path id="Path_3908" data-name="Path 3908" d="M361.387,436.26l.069,3.9s-3.939,1.378-4,2.1l7.563.138.142-6.079Z" transform="translate(-343.708 -367.452)" fill="#263238"/>
      <path id="Path_3909" data-name="Path 3909" d="M388.938,455.029a.309.309,0,0,1,.207.357.3.3,0,0,1-.351.207.326.326,0,0,1-.219-.384.309.309,0,0,1,.384-.177" transform="translate(-368.843 -382.609)" fill="#e0e0e0"/>
      <path id="Path_3910" data-name="Path 3910" d="M365.012,465.652l-.01-.612-7.248.1s-.34.14-.305.384Z" transform="translate(-343.697 -390.708)" fill="#455a64"/>
      <path id="Path_3911" data-name="Path 3911" d="M377.649,456.222c0,.038.192.058.365.18s.273.278.307.265-.017-.228-.238-.372S377.641,456.189,377.649,456.222Z" transform="translate(-360.021 -383.558)" fill="#fff"/>
      <path id="Path_3912" data-name="Path 3912" d="M373.478,457.933c-.01.035.15.1.273.259s.155.324.192.324.065-.209-.092-.4S373.48,457.895,373.478,457.933Z" transform="translate(-356.651 -384.953)" fill="#fff"/>
      <path id="Path_3913" data-name="Path 3913" d="M369.822,460.164c.035.01.088-.175,0-.384s-.263-.288-.278-.257.088.14.161.309S369.793,460.16,369.822,460.164Z" transform="translate(-353.47 -386.245)" fill="#fff"/>
      <path id="Path_3914" data-name="Path 3914" d="M378.076,451.133c.015.033.192-.015.393,0s.37.086.384.056-.134-.167-.384-.192S378.06,451.1,378.076,451.133Z" transform="translate(-360.365 -379.358)" fill="#fff"/>
      <path id="Path_3915" data-name="Path 3915" d="M424.537,435l.409,4.7-.747,3.81a.484.484,0,0,0,.413.576h0a.484.484,0,0,0,.417-.152c.674-.735,3.14-3.455,3.092-3.793-.058-.4-.1-4.991-.1-4.991Z" transform="translate(-397.629 -366.434)" fill="#263238"/>
      <path id="Path_3916" data-name="Path 3916" d="M426.39,464.383l3.488-4.263.013.192a.733.733,0,0,1-.142.482c-.276.37-1.063,1.376-2.929,3.43a.482.482,0,0,1-.43.152Z" transform="translate(-399.407 -386.733)" fill="#455a64"/>
      <g id="Group_2778" data-name="Group 2778" transform="translate(29.3 71.874)" opacity="0.6">
        <path id="Path_3917" data-name="Path 3917" d="M438.563,452.293a.292.292,0,0,0-.056.384.28.28,0,0,0,.384.06.309.309,0,0,0,.058-.409.292.292,0,0,0-.405-.017" transform="translate(-438.459 -452.237)" fill="#fff"/>
      </g>
      <path id="Path_3918" data-name="Path 3918" d="M427.165,469.174a1.046,1.046,0,0,0-.985-.407c0-.012.052-.052.161-.075a.768.768,0,0,1,.428.048.739.739,0,0,1,.334.269C427.165,469.1,427.176,469.17,427.165,469.174Z" transform="translate(-399.237 -393.65)" fill="#fff"/>
      <path id="Path_3919" data-name="Path 3919" d="M426.014,473.362a3.86,3.86,0,0,0-.43-.175,4.125,4.125,0,0,0-.465-.031.536.536,0,0,1,.488-.071C425.89,473.149,426.037,473.349,426.014,473.362Z" transform="translate(-398.38 -397.186)" fill="#fff"/>
      <path id="Path_3920" data-name="Path 3920" d="M428.593,464.772a4.707,4.707,0,0,0-.645-.317,4.836,4.836,0,0,0-.708-.117,1.063,1.063,0,0,1,.741.019A1.052,1.052,0,0,1,428.593,464.772Z" transform="translate(-400.094 -390.095)" fill="#fff"/>
      <path id="Path_3921" data-name="Path 3921" d="M429.082,458.677c-.012.029-.278-.063-.618-.054s-.6.107-.614.081A1.2,1.2,0,0,1,429.082,458.677Z" transform="translate(-400.586 -385.439)" fill="#fff"/>
      <path id="Path_3922" data-name="Path 3922" d="M428.535,451.358a2.244,2.244,0,0,0-.641-.073,2.375,2.375,0,0,0-.614.192.474.474,0,0,1,.144-.14,1.05,1.05,0,0,1,.942-.094C428.483,451.3,428.543,451.347,428.535,451.358Z" transform="translate(-400.126 -379.503)" fill="#fff"/>
      <path id="Path_3923" data-name="Path 3923" d="M427.159,446.376a.409.409,0,0,1-.017-.178,1.217,1.217,0,0,1,.111-.476.541.541,0,0,1,.219-.276.192.192,0,0,1,.221.029.324.324,0,0,1,.088.207.685.685,0,0,1-.557.67.793.793,0,0,1-.8-.365.271.271,0,0,1-.027-.227.192.192,0,0,1,.192-.113.685.685,0,0,1,.321.14,1.363,1.363,0,0,1,.344.345.476.476,0,0,1,.084.159,2.26,2.26,0,0,0-.468-.443.625.625,0,0,0-.282-.115.1.1,0,0,0-.106.059.192.192,0,0,0,.027.15.708.708,0,0,0,.7.307.593.593,0,0,0,.48-.56.215.215,0,0,0-.056-.148.106.106,0,0,0-.121-.019.5.5,0,0,0-.192.232A1.8,1.8,0,0,0,427.159,446.376Z" transform="translate(-399.398 -374.856)" fill="#fff"/>
      <path id="Path_3924" data-name="Path 3924" d="M357.04,262.264a16.715,16.715,0,0,0-.365,4.925c.081,1.046,3.612,30.009,3.612,30.009h4.77l-1.344-27.22.384.084s2.6,11.609,2.816,13.49c.192,1.689,2.388,13.964,2.388,13.964l4.361.05-1.384-16.235-1.62-15.578-.61-4.534Z" transform="translate(-343.036 -226.011)" fill="#455a64"/>
      <path id="Path_3925" data-name="Path 3925" d="M387.063,276.235a.883.883,0,0,1-.192.113,2.288,2.288,0,0,1-.591.205,1.2,1.2,0,0,1-.44,0,.883.883,0,0,1-.459-.221,1.089,1.089,0,0,1-.28-.488c-.056-.192-.088-.384-.127-.576-.152-.785-.255-1.5-.315-2.023-.031-.261-.05-.472-.061-.618a.873.873,0,0,1,0-.228,1.253,1.253,0,0,1,.044.225c.025.165.056.37.094.612.077.518.192,1.23.344,2.014a1.9,1.9,0,0,0,.37,1.013,1,1,0,0,0,.823.215,2.734,2.734,0,0,0,.585-.173A1.234,1.234,0,0,1,387.063,276.235Z" transform="translate(-365.631 -235.67)" fill="#263238"/>
      <path id="Path_3926" data-name="Path 3926" d="M388.522,273.028a.154.154,0,0,1,.1-.029.432.432,0,0,1,.269.084.482.482,0,0,1,.192.369.472.472,0,0,1-.8.3.478.478,0,0,1-.092-.411.426.426,0,0,1,.146-.24c.054-.04.09-.046.092-.042a.543.543,0,0,0-.167.3.417.417,0,0,0,.09.336.359.359,0,0,0,.4.073.355.355,0,0,0,.248-.315.418.418,0,0,0-.152-.311A.522.522,0,0,0,388.522,273.028Z" transform="translate(-368.524 -236.179)" fill="#263238"/>
      <path id="Path_3927" data-name="Path 3927" d="M413.8,276.81a.536.536,0,0,1-.161.025,3.236,3.236,0,0,1-.447,0,4.347,4.347,0,0,1-2.687-1.129,2.887,2.887,0,0,1-.307-.324c-.067-.081-.1-.129-.1-.132s.167.163.451.4a4.814,4.814,0,0,0,2.637,1.111C413.564,276.8,413.8,276.791,413.8,276.81Z" transform="translate(-386.241 -237.985)" fill="#263238"/>
      <path id="Path_3928" data-name="Path 3928" d="M357.986,273.6a1.921,1.921,0,0,1-.246.488,5.469,5.469,0,0,1-1.877,1.823,1.987,1.987,0,0,1-.493.234c0-.013.177-.111.455-.294a6.911,6.911,0,0,0,1.017-.81,6.734,6.734,0,0,0,.837-.994A3.063,3.063,0,0,1,357.986,273.6Z" transform="translate(-342.019 -236.648)" fill="#263238"/>
      <path id="Path_3929" data-name="Path 3929" d="M286.361,171.038l2.459,1.015,2.545,3.693-.812,1.207-.7-.7s-2.791-.653-2.971-1.048a.714.714,0,0,1,.067-.71,1.586,1.586,0,0,1,.017-.751.5.5,0,0,1,.372-.353.369.369,0,0,1-.15-.509.662.662,0,0,1,.43-.426,11.841,11.841,0,0,1-1.775-1.081.171.171,0,0,1,.027-.215A.43.43,0,0,1,286.361,171.038Z" transform="translate(-285.813 -154.067)" fill="#9f7362"/>
      <path id="Path_3930" data-name="Path 3930" d="M300.27,177.568l-.47-.706-.99-1.954-2.4-.768s-.418.163.109.889a1.511,1.511,0,0,0,1.33.626,4.458,4.458,0,0,0,.14,2.2c.393.7,1.551.82,1.551.82Z" transform="translate(-294.247 -156.595)" fill="#9f7362"/>
      <path id="Path_3931" data-name="Path 3931" d="M298.085,178.03a.706.706,0,0,1-.1-.155,2.252,2.252,0,0,1-.177-.474,2.5,2.5,0,0,1,.157-1.649l.035.071-.086-.019a3.054,3.054,0,0,1-.906-.305,1.19,1.19,0,0,1-.526-.576.833.833,0,0,1-.048-.526.372.372,0,0,1,.083-.177,1.1,1.1,0,0,0-.046.192.869.869,0,0,0,.077.489,1.152,1.152,0,0,0,.507.53,3.167,3.167,0,0,0,.881.288l.086.019.061.013-.027.056a2.549,2.549,0,0,0-.179,1.591A5.413,5.413,0,0,0,298.085,178.03Z" transform="translate(-294.379 -156.663)" fill="#65463c"/>
      <path id="Path_3932" data-name="Path 3932" d="M292.527,183.79l.246.1c.157.063.384.15.666.273a2.407,2.407,0,0,1,.441.24.48.48,0,0,1,.192.23.347.347,0,0,1-.065.315.548.548,0,0,1-.61.192l-.159-.036a1.049,1.049,0,0,1-.169-.046c-.107-.036-.215-.083-.322-.129l-.284-.123.036-.094a2.5,2.5,0,0,1,.539.334l.236.173a2.523,2.523,0,0,1,.234.167.34.34,0,0,1,.123.267.217.217,0,0,1-.06.142.3.3,0,0,1-.119.075,1.073,1.073,0,0,1-.461.035,2.165,2.165,0,0,1-.622-.192,1.088,1.088,0,0,1-.209-.111,1.344,1.344,0,0,1,.223.077,2.544,2.544,0,0,0,.614.161,1.06,1.06,0,0,0,.426-.042.163.163,0,0,0,.123-.146.263.263,0,0,0-.1-.192,2.321,2.321,0,0,0-.227-.155l-.238-.173a2.549,2.549,0,0,0-.518-.317l.036-.092.286.125c.106.044.211.088.315.125a1.182,1.182,0,0,0,.155.044c.056.01.109.025.163.036a.484.484,0,0,0,.29,0,.5.5,0,0,0,.225-.161.261.261,0,0,0,.054-.236.4.4,0,0,0-.155-.192,2.548,2.548,0,0,0-.424-.244c-.273-.129-.5-.225-.653-.3A.943.943,0,0,1,292.527,183.79Z" transform="translate(-290.942 -164.372)" fill="#65463c"/>
      <path id="Path_3933" data-name="Path 3933" d="M294.4,178.61a1.8,1.8,0,0,1,.507.192,3.774,3.774,0,0,1,.507.313c.09.065.182.138.274.219a.511.511,0,0,1,.217.34.257.257,0,0,1-.1.2.37.37,0,0,1-.192.079,1.3,1.3,0,0,1-.361-.023,4.78,4.78,0,0,1-.576-.152,1.678,1.678,0,0,1-.5-.223c0-.013.192.067.52.154a5.15,5.15,0,0,0,.576.129,1.19,1.19,0,0,0,.33.019.214.214,0,0,0,.207-.192.438.438,0,0,0-.192-.269q-.132-.119-.265-.219a4.958,4.958,0,0,0-.482-.3C294.589,178.706,294.4,178.625,294.4,178.61Z" transform="translate(-292.574 -160.206)" fill="#65463c"/>
      <path id="Path_3934" data-name="Path 3934" d="M313.783,165.259l2.229-7.123,3.6-1.966-2.144,12.3-.43.919c-1,1.868-2.948,1.44-4.636.5-.061-.033-.119-.067-.177-.1l-4.86-4.181,1.831-2.8Z" transform="translate(-303.232 -142.096)" fill="#e0e0e0"/>
      <path id="Path_3935" data-name="Path 3935" d="M341,205.825c-.031,0-.013-.516-.154-1.129s-.369-1.071-.34-1.086A3.39,3.39,0,0,1,341,205.825Z" transform="translate(-330.009 -180.323)" fill="#263238"/>
      <path id="Path_3936" data-name="Path 3936" d="M353.221,154.774a4.223,4.223,0,0,0-3.263,1.906c-.576,1.09-.743,5.745-.768,5.854l1.754.455,2.24,3.315,9.177-2.048.576,1.447.351-10.365S354.131,154.717,353.221,154.774Z" transform="translate(-337.025 -140.983)" fill="#e0e0e0"/>
      <path id="Path_3937" data-name="Path 3937" d="M369.864,160.069l.7-9.9-.163-4.7-4.29-1.893-.417-1.641-4.453,2.1-.921-1.029-.384,1.152-.975.317-2.288,3.881.033,6.48s-.225,7.916-.033,10.67a.85.85,0,0,0,.576.749,8.254,8.254,0,0,0,2.43.359c4.476.107,10.571-.177,10.571-.177l.063-.192a3.91,3.91,0,0,0,.15-1.691Z" transform="translate(-343.009 -130.876)" fill="#e0e0e0"/>
      <path id="Path_3938" data-name="Path 3938" d="M371.458,180.976a.192.192,0,0,1-.01-.054.837.837,0,0,0-.012-.159c0-.15-.019-.351-.035-.608-.023-.539-.058-1.3-.1-2.24-.071-1.891-.161-4.507-.131-7.4.017-1.445.065-2.825.2-4.073s.359-2.357.553-3.284.384-1.67.5-2.184c.061-.25.111-.445.148-.591l.042-.154a.174.174,0,0,1,.017-.05.192.192,0,0,1,0,.054,1.093,1.093,0,0,1-.031.155l-.127.6c-.111.516-.278,1.263-.465,2.19s-.384,2.037-.526,3.278a40.481,40.481,0,0,0-.192,4.062c-.029,2.889.046,5.5.1,7.4.025.937.046,1.7.061,2.24,0,.257.01.461.013.61v.157a.315.315,0,0,1-.011.056Z" transform="translate(-354.784 -145.287)" fill="#263238"/>
      <path id="Path_3939" data-name="Path 3939" d="M385.294,141.94a11.189,11.189,0,0,0-1.774.825c-1.276.681-2.67,1.276-2.67,1.276l.109,2.006,4.718-2.369" transform="translate(-362.608 -130.876)" fill="#e0e0e0"/>
      <path id="Path_3940" data-name="Path 3940" d="M374.287,147.53l.929,1.027-.5,2.152-.829-1.944" transform="translate(-356.984 -135.186)" fill="#e0e0e0"/>
      <g id="Group_2779" data-name="Group 2779" transform="translate(17.916 13.218)" opacity="0.3">
        <path id="Path_3941" data-name="Path 3941" d="M379.449,152.392c-.04.031-.3,2.482-.3,2.482l4.739-2.864-4.313,2.167Z" transform="translate(-379.15 -152.01)"/>
      </g>
      <path id="Path_3942" data-name="Path 3942" d="M368.482,166.5a69.755,69.755,0,0,0-1.584,10.346c-.192,2.417-.319,5.62-.319,5.62l1.079,1.334,1.651-1.461s-.071-6.806.015-9.083c.071-1.875-.225-6.659-.225-6.659Z" transform="translate(-351.077 -150.388)" fill="#ff735d"/>
      <path id="Path_3943" data-name="Path 3943" d="M377.106,157.185l-.422-.165-.4.689-.073,1.131.564.09.426-.7Z" transform="translate(-358.859 -142.827)" fill="#ff735d"/>
      <path id="Path_3944" data-name="Path 3944" d="M375.15,152.79s-.092.159-.242.409a11.217,11.217,0,0,0-.537,1.008l-.046.1-.029.063-.031-.063a8.018,8.018,0,0,1-.4-1c-.04-.131-.071-.236-.088-.311a.462.462,0,0,1-.021-.115,4.255,4.255,0,0,1,.152.413c.092.255.23.607.413.987h-.059l.046-.1a8.481,8.481,0,0,1,.557-1c.081-.125.15-.221.192-.286a.438.438,0,0,1,.09-.1Z" transform="translate(-356.879 -139.643)" fill="#263238"/>
      <path id="Path_3945" data-name="Path 3945" d="M385.687,150.49a.751.751,0,0,1-.065.04l-.192.1-.706.367c-.6.309-1.411.751-2.315,1.234-.551.294-1.073.564-1.526.793l-.042.021V153c0-.587-.012-1.085-.015-1.442v-.407a.724.724,0,0,1,0-.146.737.737,0,0,1,.012.144c0,.1.01.238.015.407.01.359.023.854.038,1.443l-.042-.027c.451-.23.971-.5,1.522-.8.9-.484,1.728-.919,2.324-1.219.3-.15.547-.269.716-.347l.192-.088A.363.363,0,0,1,385.687,150.49Z" transform="translate(-362.584 -137.785)" fill="#263238"/>
      <path id="Path_3946" data-name="Path 3946" d="M376.742,166.159c-.012.015-.117-.035-.24-.113s-.215-.152-.205-.167.117.035.24.111S376.752,166.143,376.742,166.159Z" transform="translate(-358.928 -149.96)" fill="#263238"/>
      <path id="Path_3947" data-name="Path 3947" d="M377.5,160.965a3.215,3.215,0,0,1-.286-.576,3.276,3.276,0,0,1-.228-.6,6.117,6.117,0,0,1,.514,1.171Z" transform="translate(-359.489 -145.059)" fill="#263238"/>
      <path id="Path_3948" data-name="Path 3948" d="M356.392,186.48c.027,0,.05,1.871.05,4.181s-.023,4.179-.05,4.179-.052-1.871-.052-4.179S356.363,186.48,356.392,186.48Z" transform="translate(-342.803 -166.506)" fill="#263238"/>
      <path id="Path_3949" data-name="Path 3949" d="M361.965,143.541a5.757,5.757,0,0,1-.063-1.365,4.6,4.6,0,0,0,.265-1.04c-.046-.155-.125-.324-.436-.171a1.213,1.213,0,0,0-.745.946,2.746,2.746,0,0,1-.123.7l-.3-.449.061-.466s.44-.109.453-.344a4.934,4.934,0,0,0-.441-.315s-.787.038-.864.334-.28.929-.28.929-.651.109-.727.637a1.777,1.777,0,0,0-.357.806,1.47,1.47,0,0,0-.192.653,7.836,7.836,0,0,0,.868,1.536l.236,1.764,2.426-.63-.157-1.772A3.993,3.993,0,0,0,361.965,143.541Z" transform="translate(-344.322 -130.039)" fill="#9f7362"/>
      <path id="Path_3950" data-name="Path 3950" d="M361.819,143.31a1.018,1.018,0,0,1,.023.121,1.861,1.861,0,0,1,0,.353,4.964,4.964,0,0,1-.365,1.29v-.013c.048.5.1,1.094.169,1.77v.033h-.031l-2.419.637-.048.013v-.05c-.075-.559-.155-1.152-.24-1.766l.01.021c-.221-.322-.44-.658-.645-1.017-.052-.09-.1-.192-.146-.278a.724.724,0,0,1-.088-.321,1.489,1.489,0,0,1,.192-.624v.027a.853.853,0,0,1,.081-.349,2.592,2.592,0,0,1,.286-.489l-.01.023a.726.726,0,0,1,.282-.465,1.231,1.231,0,0,1,.488-.213l-.038.035.288-.948a.384.384,0,0,1,.192-.192,1.18,1.18,0,0,1,.234-.084,2.675,2.675,0,0,1,.474-.073h.027l.244.165.121.084.058.046.017.013.012.013a.058.058,0,0,1,.012.036v.044a.415.415,0,0,1-.209.23,1.129,1.129,0,0,1-.271.109l.035-.038c-.023.159-.042.313-.063.466v-.031c.1.155.192.305.294.451h-.075a2.819,2.819,0,0,0,.107-.536,1.344,1.344,0,0,1,.125-.524,1.436,1.436,0,0,1,.747-.637.307.307,0,0,1,.244,0,.311.311,0,0,1,.138.192.259.259,0,0,1,.017.115.276.276,0,0,1-.013.106c-.013.069-.029.134-.046.192-.069.253-.146.478-.217.679h0a6.229,6.229,0,0,0,0,1.013c.01.115.021.2.029.261a.6.6,0,0,1,.01.088.367.367,0,0,1-.023-.086c-.012-.058-.027-.146-.04-.261a5.781,5.781,0,0,1-.023-1.019h0c.067-.2.14-.428.205-.679.015-.063.031-.127.042-.192a.885.885,0,0,0,.012-.1.173.173,0,0,0-.015-.09.244.244,0,0,0-.107-.152.236.236,0,0,0-.192,0,1.378,1.378,0,0,0-.7.607,1.3,1.3,0,0,0-.111.5,2.731,2.731,0,0,1-.109.559l-.027.079-.048-.073-.3-.449-.01-.013V141.9c.019-.154.038-.307.06-.466v-.029h.031a1.09,1.09,0,0,0,.246-.1.342.342,0,0,0,.167-.175V141.1h.044a.027.027,0,0,0-.017,0s-.027.017-.019.019h0l-.01-.01-.056-.042-.117-.083-.244-.163h.029a2.667,2.667,0,0,0-.455.071c-.142.04-.311.1-.359.217-.092.309-.192.624-.284.944v.029h-.031a1.119,1.119,0,0,0-.443.192.629.629,0,0,0-.246.4v.012h0a2.545,2.545,0,0,0-.273.47.739.739,0,0,0-.073.305v.027a1.449,1.449,0,0,0-.18.576.632.632,0,0,0,.081.274,2.75,2.75,0,0,0,.142.271c.192.355.42.691.637,1.013v.019c.081.616.159,1.207.234,1.766l-.058-.036,2.422-.624-.027.04c-.058-.676-.108-1.276-.15-1.772v-.015a5.051,5.051,0,0,0,.384-1.269,2.05,2.05,0,0,0-.019-.428Z" transform="translate(-344.176 -129.808)" fill="#65463c"/>
      <path id="Path_3951" data-name="Path 3951" d="M372.238,150.179a1.706,1.706,0,0,1-.334-.47,1.658,1.658,0,0,1-.244-.518,1.7,1.7,0,0,1,.332.47A1.714,1.714,0,0,1,372.238,150.179Z" transform="translate(-355.182 -136.734)" fill="#65463c"/>
      <g id="Group_2780" data-name="Group 2780" transform="translate(19.023 21.773)" opacity="0.3">
        <path id="Path_3952" data-name="Path 3952" d="M384.92,201.821a7.843,7.843,0,0,0,7.567-6.071Z" transform="translate(-384.92 -195.75)"/>
      </g>
      <path id="Path_3953" data-name="Path 3953" d="M360.5,162.058l1.791,4.864,5.1-5.864s2.234-2.514,3.286-1.031.518,4.288-.15,5.618c-.618,1.24-7.63,7.05-8.68,7.171s-2.334.109-3.035-1.217-2.229-8.6-2.229-8.6Z" transform="translate(-342.996 -144.827)" fill="#e0e0e0"/>
      <path id="Path_3954" data-name="Path 3954" d="M368.6,167s-.027.038-.088.109l-.269.315-1.033,1.182-3.749,4.28-.044.052-.023-.063c-.543-1.443-1.152-3.056-1.8-4.787l.056.029-3.6.868.038-.056c.123.737.257,1.514.4,2.3.236,1.288.48,2.543.747,3.749.138.6.273,1.192.441,1.76a5.926,5.926,0,0,0,.3.82,2.66,2.66,0,0,0,.5.679,2.3,2.3,0,0,0,1.468.622,3.646,3.646,0,0,0,.781-.031,2.251,2.251,0,0,0,.722-.219,15.627,15.627,0,0,0,2.324-1.551c1.357-1.05,2.4-1.967,3.121-2.6l.823-.737.213-.192c.05-.042.077-.061.077-.061s-.023.025-.069.069l-.207.192c-.182.175-.455.428-.812.751-.712.645-1.749,1.57-3.1,2.63-.338.265-.7.534-1.083.8a10.052,10.052,0,0,1-1.251.768,2.34,2.34,0,0,1-.743.228,3.716,3.716,0,0,1-.8.035,2.392,2.392,0,0,1-1.524-.643,2.687,2.687,0,0,1-.516-.7,6.381,6.381,0,0,1-.305-.835c-.171-.576-.305-1.165-.445-1.766-.269-1.207-.512-2.463-.749-3.753-.144-.789-.278-1.566-.4-2.3v-.046h.044l3.6-.864.04-.01.015.04,1.783,4.8-.067-.013,3.774-4.255c.451-.507.806-.9,1.05-1.175l.276-.307A.512.512,0,0,1,368.6,167Z" transform="translate(-344.136 -150.818)" fill="#263238"/>
      <path id="Path_3955" data-name="Path 3955" d="M418.208,160.294a4.621,4.621,0,0,0-1.088.192,4.5,4.5,0,0,0-.96.532,1.9,1.9,0,0,1,.929-.62A1.935,1.935,0,0,1,418.208,160.294Z" transform="translate(-391.14 -145.434)" fill="#263238"/>
    </g>
  </g>
</svg>
