<?xml version="1.0" encoding="utf-8"?>
<!-- Generator: Adobe Illustrator 27.0.0, SVG Export Plug-In . SVG Version: 6.00 Build 0)  -->
<svg version="1.1" id="Layer_1" xmlns="http://www.w3.org/2000/svg" xmlns:xlink="http://www.w3.org/1999/xlink" x="0px" y="0px"
	 viewBox="0 0 300 300" style="enable-background:new 0 0 300 300;" xml:space="preserve">
<style type="text/css">
	.st0{fill:#C3C5C5;}
	.st1{fill:#385A64;}
	.st2{fill:#FE735C;}
	.st3{fill:#EBEBEB;}
	.st4{fill:#FEBE9B;}
	.st5{fill:#1A2E35;}
	.st6{fill:#F4F4F4;}
	.st7{fill:#E0E0E0;}
	.st8{fill:#F9F9F9;}
	.st9{fill:#FD735B;}
	.st10{fill:#FE725C;}
	.st11{fill:#9CA1A3;}
	.st12{fill:#989DA0;}
	.st13{fill:#EBEBEC;}
	.st14{fill:#FD9A6C;}
	.st15{fill:#DFDFE0;}
	.st16{fill:#E5E5E5;}
	.st17{fill:#F6A67F;}
	.st18{fill:#F5AC88;}
	.st19{fill:#8C9294;}
	.st20{fill:#95979B;}
	.st21{fill:#FBBF9C;}
	.st22{fill:#8F7263;}
	.st23{fill:#ADB1B3;}
	.st24{fill:#A9ADAF;}
	.st25{fill:#7A8584;}
	.st26{fill:#677072;}
	.st27{fill:#6B7778;}
	.st28{fill:#868E8D;}
	.st29{fill:#87908F;}
	.st30{fill:#84888A;}
	.st31{fill:#868B8C;}
	.st32{fill:#7A7E7E;}
	.st33{fill:#787D80;}
	.st34{fill:#B5BBB9;}
	.st35{fill:#464B4F;}
	.st36{fill:#7B8184;}
	.st37{fill:#C3C6C5;}
	.st38{fill:#808888;}
	.st39{fill:#989D9F;}
	.st40{fill:#9DA0A0;}
	.st41{fill:#8D9193;}
	.st42{fill:#5A5F63;}
	.st43{fill:#858C8D;}
	.st44{fill:#515759;}
	.st45{fill:#F2C0A3;}
	.st46{fill:#9EA4A5;}
	.st47{fill:#848989;}
	.st48{fill:#A6A7A7;}
	.st49{fill:#B1B5B4;}
	.st50{fill:#707576;}
	.st51{fill:#858A8D;}
	.st52{fill:#CACBCB;}
	.st53{fill:#7F8587;}
	.st54{fill:#7E8082;}
	.st55{fill:#CC4F40;}
	.st56{fill:#FEFEFE;}
	.st57{fill:#233D44;}
	.st58{fill:#284650;}
	.st59{fill:#F8FAFA;}
	.st60{fill:#284147;}
	.st61{fill:#1C3A43;}
	.st62{fill:#223E46;}
	.st63{fill:#27464F;}
	.st64{fill:#CC4F3F;}
	.st65{fill:#92655D;}
	.st66{fill:#DFE0E1;}
	.st67{fill:#AAAFB1;}
	.st68{fill:#E1E1E1;}
	.st69{fill:#7F8888;}
	.st70{fill:#868E90;}
	.st71{fill:#9DA3A4;}
	.st72{fill:#989D9C;}
	.st73{fill:#909797;}
	.st74{fill:#7E7D7F;}
	.st75{fill:#838A8F;}
	.st76{fill:#566061;}
	.st77{fill:#898D8F;}
	.st78{fill:#BEC1C1;}
	.st79{fill:#293232;}
	.st80{fill:#233237;}
	.st81{fill:#223236;}
	.st82{fill:#213136;}
	.st83{fill:#233236;}
	.st84{fill:#2B3538;}
	.st85{fill:#263337;}
	.st86{fill:#F8A177;}
	.st87{fill:#373735;}
	.st88{fill:#707779;}
	.st89{fill:#868B8E;}
	.st90{fill:#DDDEDE;}
	.st91{fill:#9EA2A5;}
	.st92{fill:#AAAEAD;}
	.st93{fill:#767B7F;}
	.st94{fill:#878B8F;}
	.st95{fill:#686B6E;}
	.st96{fill:#63686B;}
	.st97{fill:#5D6266;}
	.st98{fill:#515A5F;}
	.st99{fill:#294049;}
	.st100{fill:#304951;}
	.st101{fill:#294249;}
	.st102{fill:#304B52;}
	.st103{fill:#DFE0E0;}
	.st104{fill:#8F9899;}
	.st105{fill:#51565A;}
	.st106{fill:#9CA0A4;}
	.st107{fill:#767A7E;}
	.st108{fill:#919194;}
	.st109{fill:#546060;}
	.st110{fill:#5D6466;}
	.st111{fill:#535E5F;}
	.st112{fill:#BBBFC1;}
	.st113{fill:#717678;}
	.st114{fill:#E4E4E4;}
	.st115{fill:#E2E2E2;}
	.st116{fill:#FAF6F4;}
	.st117{fill:#F9F6F4;}
	.st118{fill:#F9F5F3;}
	.st119{fill:#7B8483;}
	.st120{fill:#EEEEEE;}
	.st121{fill:#FAF4F1;}
	.st122{fill:#F9EAE6;}
	.st123{fill:#FAF7F2;}
	.st124{fill:#F47A69;}
	.st125{fill:#F9F1ED;}
	.st126{fill:#FAF1ED;}
	.st127{fill:#FBF4F0;}
	.st128{fill:#FBFBFB;}
	.st129{fill:#FCFCFC;}
	.st130{fill:#FAEEE9;}
	.st131{fill:#FAF4F0;}
	.st132{fill:#F9F0ED;}
	.st133{fill:#FAFAFA;}
	.st134{fill:#FE725B;}
	.st135{fill:#E6E6E6;}
	.st136{fill:#BEC2C2;}
	.st137{fill:#A6ABAF;}
	.st138{fill:#D6D6D6;}
	.st139{fill:#686A6D;}
	.st140{fill:#878E8F;}
	.st141{fill:#5B6265;}
	.st142{fill:#E0E0E1;}
	.st143{fill:#6B7374;}
	.st144{fill:#5B6367;}
	.st145{fill:#878E91;}
	.st146{fill:#FDBE9C;}
	.st147{fill:#FDBE9B;}
	.st148{fill:#F8A880;}
	.st149{fill:#F8A983;}
	.st150{fill:#5F6969;}
	.st151{fill:#616A6B;}
	.st152{fill:#616A6A;}
	.st153{fill:#495354;}
	.st154{fill:#5D6568;}
	.st155{fill:#525B60;}
	.st156{fill:#505A5E;}
	.st157{fill:#505D61;}
	.st158{fill:#626669;}
	.st159{fill:#5D6366;}
	.st160{fill:#5E6467;}
	.st161{fill:#F97661;}
	.st162{fill:#FA755F;}
	.st163{fill:#F87864;}
	.st164{fill:#F7735E;}
	.st165{fill:#E3E3E3;}
	.st166{fill:#F97560;}
	.st167{fill:#F87965;}
	.st168{fill:#FAF0EC;}
	.st169{fill:#FBF5F1;}
	.st170{fill:#FCFAF8;}
	.st171{fill:#F77763;}
	.st172{fill:#F38A7B;}
</style>
<g>
	<path class="st1" d="M157.8,143.6c3.4,0.5,6.7,1.6,10,2.4c5.4,1.2,9.6,4.3,13.4,8.1c1.2,1.2,2,2.7,2.9,4.1c0.4,1.7,0.8,3.5,1.1,5.2
		c0.2,1.1,0.7,1.9,1.9,2.1c1.7,5,3.4,9.9,5.1,14.9c-0.1,0.4,0.5,0.8,0.1,1.3c-0.6-0.2-1-0.7-1.7-0.5c-0.5-0.3-1-0.1-1.6-0.1
		c-6.2,0-12.4-0.1-18.6-0.1c-1.2-1.9-3-2.6-5.2-2.6c-7.1,0-14.2,0-21.3,0c-1.9,0-3.6-0.5-4.9-1.9c-2.1-2.4-4.7-3.3-7.9-3.1
		c-3.9,0.2-7.9,0-11.8,0c0-2.6,0-5.3,0-7.9c-0.2,0.1-0.2,0.2-0.2,0.2c0,2.6,0,5.1,0,7.7c-1,0-2,0-3,0.1c-1.9,0.1-2.7,0.8-2.8,2.7
		c0,0.3-0.1,0.6-0.1,0.9c-0.3,1.5-1,2.2-2.5,2.3c-1.1,0.1-2.3,0-3.4,0c-2.7,0-3.6,1.5-2.6,3.9c4,9.6,7.9,19.1,11.9,28.7
		c-0.6,0.4-1.2,0.8-1.8,1.2c0.1-1.2,0.3-2.3,0.2-3.5c0-0.6-0.2-1.1-0.9-1.1c0.8,0.5,0.5,1.3,0.7,2.1c0.2,1-0.7,1.9-0.1,2.8
		c-0.5,3.1-1,6.1-1.6,9.2c-0.2,0.9,0,1.2,0.9,1.5c2.9,0.9,5.8,1.9,8.8,2.9c0,0.1,0,0.2,0,0.2c-3.5,0-7.1,0-10.6,0
		c0.5-1.2,0-1.4-1.2-1.4c-1.8,0.1-3.7,0-5.6-0.2c-6.2-0.6-12-2.4-16.7-6.8c-0.9-1.1-1.7-2.1-2.6-3.2c-0.4-0.6-0.7-1.2-1.1-1.9
		c-1.3-3.1-2-6.3-1.8-9.6c0.2-3.3,1.3-6.3,2.5-9.2c5.3-12.5,10.8-25,16.2-37.4c3-6.9,8.1-11,14.9-13.5c4.3-1.5,8.8-2,13.2-2.9
		c1.5-0.3,3-0.9,4.5-0.7c2.7,1.8,5.6,3.2,8.7,4.1C148.1,145.5,153,145.5,157.8,143.6z M107.4,207.3c1-0.9,2.2-0.6,3.3-0.5
		c-1.2-0.5-2.3-1.1-3.3,0.2c-0.5,0.3-1,0.7-1.6,0.9c-3.9,1.8-5.8,5.1-7.1,8.9c-0.2,0.6-0.5,1.6,0.4,2c0.8,0.3,1.4-0.3,1.8-1
		c0.1-0.2,0.2-0.4,0.4-0.5C103.4,214,105.6,210.7,107.4,207.3z M88.3,198.5c6.6-0.1,13.1,0,18.1,5.5c-1.4-3.4-3.9-5.6-7.5-6.5
		C95.2,196.6,91.6,195.9,88.3,198.5z M171.1,178.5c0,0,0.1,0,0.1,0.1c0-4.5,0-8.9,0-13.4c0,0-0.1,0-0.1,0
		C171.1,169.6,171.1,174.1,171.1,178.5z"/>
	<path class="st2" d="M192.1,219.4c-0.7,1.7-1.2,3.3-1.6,5.1c-0.3,0.8-0.5,1.6-0.8,2.4c-13.2,0-26.5,0-39.7,0
		c2.7-2.2,3.2-4.2,1.6-6.6c-3.3-0.5-6.6-1-9.9-1.5c-1.9-0.3-3.9-0.3-5.7-1c-1.9-0.7-3.6-2-5.4-3.1c-0.1-1.8,0.7-3.2,2.1-4.3
		c1.3-1,2.8-1.8,3.8-3.1c0.8-1,1.6-2.1,1-3.5c0-2-0.4-2.2-2.1-1.5c-1.1,0.4-2.3,0.9-3.4,1.3c-0.4,0.1-0.8,0.4-0.8-0.3
		c1.8-5.4,3.6-10.8,5.5-16.1c1-2.9,2.1-3.7,5.2-3.7c16.6,0,33.3,0,49.9,0c0.6,0,1.1,0,1.7-0.1c1.9,0,3.8,0,5.7,0
		c2.9,0,4.1,1.6,3.3,4.4c-1,3.3-2.1,6.5-3.2,9.8C196.7,204.9,194.4,212.1,192.1,219.4z"/>
	<path class="st3" d="M189.6,226.8c0.3-0.8,0.5-1.6,0.8-2.4c0.4,0.5,0.9,0.3,1.4,0.3c2.8,0,5.7,0.2,8.5,0c6.4-0.4,12.9-0.1,19.3-0.2
		c1.3,0,1.6-0.9,2.1-1.7c2.2-3.7,4.3-7.4,6.4-11.1c0.2,0.6-0.3,1.5,0.5,2c0,0.2,0.1,0.4,0.1,0.6c0.2,1.2,1.1,1.5,2.1,1.7
		c0.3,0.3,0.7,0.2,1,0.2c5,0,10.1,0.1,15.1-0.1c2.1-0.1,4.3,0,6.5-0.5c-2.7,0-5.4,0-8.2,0c-0.2-0.6-0.7-0.7-1.3-0.8
		c-3.4-0.3-6.6,0.8-10,0.6c-0.1,0-0.2,0.1-0.3,0.2c-0.2,0-0.4,0-0.6,0.1c-1.3-0.1-2.8,0.4-3.7-1.1c0.6-0.3,0.6-0.7,0.3-1.3
		c-0.7-1.4-0.1-2.2,1.4-2.2c1.7,0,3.4,0,5.2,0c0.6,0,1.2-0.1,1.6-0.8c-3.1,0-6.1,0-9.1,0c0-0.2,0-0.5,0-0.7c2.5,0,4.9,0,7.4,0
		c0,0.1,0,0.1,0.1,0.2c-1.9,0-3.9,0-5.8,0c4.1,0.4,8.2,0.1,12.3,0.4c0.1,0,0.3-0.2,0.4-0.3c0.2,0,0.4,0,0.5,0
		c0.1,0.6,0.7,0.5,1.1,0.5c1.4,0.1,2.7-0.2,4,0.5c0.7,0.3,1.3,0,1.3-1c0.4,0,0.9-0.1,1.6-0.1c-3.1-0.5-5.9-0.3-8.7-0.4
		c0.4-0.5,0.5-1.1,0.5-1.7c0-1.1,0-2.2,0.1-3.3c0.1,0,0.3,0,0.4,0c0.2,0.4,0.6,0.6,0.9,0.7c1.4,0.1,2.9,0.1,4.3,0.1
		c0.4,0,0.7-0.4,0.9-0.7c0.6-0.1,1.2,0.1,2-0.4c-1-0.3-1.8-0.2-2.5-0.2l0,0c-0.1-0.5-0.4-0.5-0.8-0.5c-1.4,0-2.7,0-4,0.5
		c-0.4,0-0.8,0-1.2,0c-0.1-0.8-0.1-1.6-0.2-2.3c0.2,0,0.6,0.2,0.6,0c-0.1-1.1,0.6-1,1.3-1c0.6,0,1.2,0,1.8,0.2
		c0.9,0.2,1.8,0.4,2.6-0.3c0-0.1,0-0.3,0-0.4c-0.9,0-1.9,0-2.8,0c0.6-0.4,1.3-0.1,2-0.2c0.3-0.1,0.9,0.2,0.9-0.4
		c0-0.6-0.6-0.4-1-0.4c-3.5,0-7,0-10.5,0c-0.7,0-1.4,0-2.1-0.4c-0.9-0.5-1.4-0.2-1.6,1c0.4,0.3,0.9,0.2,1.4,0.2
		c1.1,0.1,2.1-0.1,3.2,0.2c-2.7,0-5.4-0.1-8.1,0.1c-1.1,0.1-1.3-0.1-1.3-1.1c0.2-6.1-0.3-12.2,0.3-18.3c0-0.5,0.1-1.2-0.8-0.7
		c-0.4-0.5-0.1-0.9,0.3-1.1c0.4-0.3,0.9-0.5,1.3-0.8c0.1,0.1,0.1,0.2,0.2,0.2c4.9-0.3,9.8,0,14.7-0.1c0.5,0,0.9,0,1.2,0.4l0,0
		c-0.5,3-0.3,5.9-0.2,8.9c0.3,0.5,0.5,1,0.8,1.5c-0.6,0.6,0.1,0.9,0.3,1.4c-1.7,0-3.4,0-5.2,0c-1.8,0-3.6,0.2-5.4-0.1
		c-0.5-0.1-1.1-0.3-1.2,0.3c-0.1,0.7,0.5,0.9,1.2,0.9c0.4,0,0.7,0,1.1,0c2,0,4.1-0.1,6.1,0c1.2,0.1,2.3,0.2,3.4-0.3
		c3.5-0.1,6.9,0.8,10.3,1.3c0,3.4,0.1,6.7,0.1,10.1c0,3.8,0,7.6,0,11.5c0.1,0,0.1,0,0.2,0c0-3.8,0-7.6,0-11.5c0-2.6,0.1-5.3,0.1-7.9
		c8.6,0,17.1,0,25.7,0c0-0.1,0-0.2,0-0.3c-8.6,0-17.1,0-25.7,0c0-0.4,0-0.7,0-1.1c8.3,0,16.5,0,24.8,0c0.4,0,0.7,0,1.1,0
		c1.5,0.1,2.2,1.4,1.3,2.6c-3.5,5.1-7.1,10.1-10.6,15.1c-2.1,3-3.7,6.3-5.6,9.4c-1.1,1.8-2.2,3.7-3.3,5.6c-0.2,0.4-0.5,0.7-0.5,1.2
		c-6.4,0-12.7,0-19.1,0.1c-8.1,0-16.1,0-24.2,0c-6.7,0-13.4,0-20.1,0C197.6,226.9,193.6,226.9,189.6,226.8L189.6,226.8z M242.9,186
		c-0.2-0.4-0.6-0.3-0.9-0.3c-2.1,0-4.1,0-6.2,0c-0.3,0-0.7-0.1-0.7,0.3c0,0.4,0.4,0.7,0.9,0.7c2.4,0,4.9,0.1,7.3-0.1
		c0.6,0,1,0.2,1.4,0.5c0.4-1.2,0.2-1.5-1-1.3C243.5,186,243.2,186,242.9,186z M237.4,196c0.5,0.1,0.7,0.1,0.9,0.1
		c3.4-0.4,6.8-0.4,10.1,0c0.7,0.1,1.4-0.2,2-0.4c0.6-0.3,0.9-0.9,0.6-1.5c-0.3-0.6-1-0.7-1.5-0.3c-0.8,0.5-1.6,0.5-2.4,0.5
		c-3.3,0-6.5,0-9.8,0c-0.5,0-1,0-1.5-0.3c-0.5-0.3-1-0.5-1.6-0.1c-0.3,0.2-0.3,0.5-0.2,0.8c0.2,0.7,0.5,1,1.2,1.2
		C236.1,196.1,236.9,196.1,237.4,196z M244.6,181.3c0,0.4,0,0.9,0,1.3c0,1.4-0.5,2.1-1.9,2.4c-0.2,0-0.4,0-0.5,0
		c-2.3-0.2-4.7,0.5-6.9-0.5c-0.4-0.2-1-0.1-1.2,0.5c-0.1,0.5,0.4,0.5,0.7,0.5c3.2,0,6.3,0,9.5,0c0.4,0,0.9-0.1,0.8-0.6
		C244.7,183.7,245,182.5,244.6,181.3z M238.5,210.6c1.1,0.9,1.1,0.9,2,0C239.8,210.4,239.2,210.4,238.5,210.6z"/>
	<path class="st4" d="M157.8,143.6c-4.8,2-9.7,1.9-14.6,0.5c-3.1-0.9-6-2.2-8.7-4.1c0.1-6.2,0.4-12.4,0.3-18.6c0-1-0.1-1.4-1.3-1.4
		c-2.1,0-3.9-0.7-4.7-2.8c-0.8-2.2-0.8-4.3,0.7-6.2c0.6-0.8,1.5-1.1,2.5-1.3c1.6,0,2.9,0.5,3.8,1.9c0.7,1.1,1.7,1,2.5-0.1
		c0.6-0.7,0.9-1.5,1.1-2.4c1.5-4.8,2.2-9.7,1.7-14.7c-0.1-0.6-0.3-1.2,0.4-1.8c2.3-1.9,4.9-2.8,7.8-3.2c2.5-0.3,4.6,0.6,6.2,2.5
		c0.6,0.7,1.2,1.5,1.8,2.2c2.2,2.6,4.9,4.2,8.1,5.1c1.1,0.3,2.7-0.2,3.2,0.9c0.5,1,0.1,2.4,0.1,3.7c0,1.7-0.3,3.4,0.2,5.1
		c-0.1,4.8-0.1,9.5-0.3,14.3c-0.1,2.2-0.2,4.4-1.2,6.4c-1.8,3.7-4.9,5.5-8.6,6.4c-0.5,0.1-1,0.1-1.2,0.6c-0.1-0.5-0.5-0.5-0.9-0.6
		c-2.3-0.1-4.5-0.9-6.6-1.7c-1.6-0.6-3-1.7-4.7-2.4c0.5,1.3,1.2,2.2,2,3c2.8,2.8,6.3,3.8,10.2,3.8
		C157.8,140.4,157.8,142,157.8,143.6z M156.7,117.9c0.9,0,1.6,0,2.2,0c1.1,0,1.5-0.5,1.3-1.6c-0.2-0.7-0.4-1.4-0.6-2.2
		c-0.8-2.8-1.6-5.7-2.8-8.5c-0.2,0.5-0.1,0.9,0,1.2c0.8,2.8,1.6,5.6,2.5,8.5c0.6,2,0.6,2-1.4,2.2
		C157.6,117.6,157.2,117.5,156.7,117.9z M149,100.3C149,100.3,149,100.4,149,100.3c0.6,0.1,1.1,0.1,1.7,0.1c0.2,0,0.6,0.1,0.7-0.3
		c0.1-0.3-0.2-0.5-0.4-0.6c-1.2-0.8-4-0.7-5.1,0.2c-0.2,0.2-0.5,0.3-0.4,0.6c0.1,0.3,0.4,0.3,0.7,0.2
		C147.1,100.5,148.1,100.4,149,100.3z M152,109.7c-0.2-0.7-0.6-1.3-1.3-1.3c-0.8,0-1.4,0.4-1.3,1.3c0,0.8,0.5,1.2,1.2,1.2
		C151.4,111,151.8,110.5,152,109.7z M161.1,103.1c1.8,0.1,3.4,0,5,0.2c0.2,0,0.4,0,0.5,0c0.2,0,0.5,0.1,0.5-0.2
		c0-0.1-0.2-0.3-0.3-0.4C165.6,101.7,162.5,101.7,161.1,103.1z M165.6,110.3c0-0.8-0.4-1.3-1.2-1.4c-0.8-0.1-1.4,0.4-1.5,1.2
		c-0.1,0.8,0.5,1.3,1.2,1.3C164.9,111.5,165.5,111.1,165.6,110.3z M146.1,106.3c2.1-0.9,4.1-0.9,6,0
		C150.7,104.1,147.5,104.1,146.1,106.3z M167.3,107c-0.7-1.4-1.9-1.7-3.2-1.7c-1.3,0-2.3,0.6-2.8,1.7
		C163.4,105.9,165.3,106.1,167.3,107z M132.8,117.5c-1.8-0.2-2.2-1.4-2.3-2.6c-0.1-1.2,0.2-2.5,2-2.7c-0.9-0.6-1.5-0.2-1.8,0.4
		c-0.9,1.3-0.8,2.6-0.2,4C130.9,117.4,131.6,117.9,132.8,117.5z M151.3,118.3c0.2,2.3,1.3,3.7,2.9,3.7
		C152.7,121.1,152,119.7,151.3,118.3z"/>
	<path class="st3" d="M189.6,153.7c-0.8-3.9-1.7-7.8-2.3-11.7c-0.4-2.6-1.2-5.2-1.4-7.8c-0.1-1.5-1-2.8-0.8-4.5
		c0.2-1.7,0.9-2.8,2.6-3.2c2.9-0.7,5.9-1.2,8.9-1.8c2.5-0.5,5-1,7.5-1.5c0.5-0.1,1-0.3,1.5,0.2c0.1,2.8,1.1,5.5,1.5,8.3
		c0.2,1.2,0.3,2.5,1.2,3.6c-0.3,1.1,0.9,1.3,1.3,2.1c0.2,0.4,0.9,0,1.3-0.1c0.2,0,0.4,0,0.6,0c1.7,0.1,3.4,0.2,5.1-0.1
		c1-0.2,2.1-0.4,3.1,0.2c-0.3,1.5-0.7,3-2.1,3.9c-0.5,0.3-1,0.8-1.3,1.4c-0.3,0.4-0.3,0.8,0,1.2c0.7,1,1.7,0.6,2.6,0.5
		c-1.3,1.8-1.4,2.3-0.5,3.6c0.1,0.6,1.1,0.7,0.9,1.4c-0.6,1.4,0.4,1.9,1.2,2.5c0.4,0.3,0.7,0.6,0.8,1.1c0.5,1.4,1.3,1.7,2.7,1.2
		c0.5-0.2,1-0.7,1.6-0.4c0.3,0.9-0.2,2.1,0.8,2.9c-0.1,1.4,0.4,2.7,0.6,4c0.4,2.7-0.4,4.2-3,5.1c-1.4-0.3-2.8-0.1-3.9,0.8l-0.1,0
		c0,0-0.1,0-0.1,0c-0.9,0-1.7,0-2.4,0.5c-0.7,0-1.4,0-2.1,0.1c-4.5,0.8-9,1.7-13.5,2.6c-0.8,0.2-1.7,0.3-1.9,1.3
		c-0.7-1.1-1.6-0.5-2.4-0.2c-1.2,0.3-2.2,0.3-3.3-0.5c-1.3-0.9-1.3-2.4-2-3.6c-0.4-0.8,0.2-1.7-0.4-2.4c0.2-0.1,0.4-0.2,0.6-0.2
		c4.8-1,9.7-1.9,14.5-2.9c1.4-0.3,2-0.9,1.8-2c-0.4-2.4-0.9-4.7-1.4-7.1c-0.3-1.2-1-1.7-2.2-1.4c-3.1,0.6-6.1,1.3-9.2,1.8
		C193.7,153.1,191.7,153.8,189.6,153.7z M208.6,137.9c0-0.1,0-0.2-0.1-0.3c-1.5,0.3-2.9,0.6-4.4,0.9c0,0.1,0,0.2,0.1,0.3
		C205.7,138.5,207.1,138.2,208.6,137.9z M211,143c0-0.1,0-0.2,0-0.4c-1,0.3-2.1,0.2-3.1,1C208.9,143.4,209.9,143.2,211,143z"/>
	<path class="st1" d="M199.7,171.2c0.2-1,1.1-1.2,1.9-1.3c4.5-0.9,9-1.7,13.5-2.6c0.7-0.1,1.4-0.1,2.1-0.1c0.6,0.4,1.4,0.5,2.1,0.6
		c1.1,0.3,2.1,0.7,3.2,0.8c1.1,0.2,1.2,0.5,0.9,1.6c-3.3,8.7-6.5,17.4-10,26c-1.7,4.1-3.5,8.1-5.2,12.1c-1.9,4.9-5.6,7.8-10.4,9.5
		c-1.9,0.7-3.8,1.2-5.7,1.5c2.3-7.3,4.7-14.5,7-21.8c1.1-3.3,2.1-6.5,3.2-9.8c0.9-2.7-0.4-4.4-3.3-4.4c-1.9,0-3.8,0-5.7,0
		c0.1-0.3,0.2-0.7,0.3-1C195.8,178.7,197.8,175,199.7,171.2z"/>
	<path class="st3" d="M268.7,144.2c0,1.9,0,3.8,0,5.7c0,1.8-1.1,3-2.9,3.1c-7.9,0-15.7,0-23.6,0c-1.5,0-2.5-1.2-2.7-3
		c-0.1-1,0.5-2.3-0.3-2.9c-0.6-0.5-1.9-0.2-2.8-0.2c-0.3,0-0.6,0-0.8-0.3c8.5,0.4,16.9,0.2,25.4,0c-2.4,0-4.7,0-7.3,0
		c0.7-1.2,0.4-2.4,0.4-3.6c-0.1-1.3,0.3-1.9,1.7-1.7c1.1,0.1,2.2,0,3.3,0c-1.4-0.3-2.7-0.3-4.1-0.3c-0.6,0-0.9-0.2-0.9-0.8
		c-0.2-2.1-0.5-2.4-2.7-2.4c-5.3,0-10.6,0-15.9,0.3c0.7-0.5,1.5-0.3,2.3-0.2c1.3,0.1,1.7-0.2,1.7-1.7c-0.1-5.7,0-11.4,0-17.1
		c0-2.8,1-3.8,3.8-3.8c4.3,0,8.7,0,13,0c0.8,0,1.4,0.2,2,0.8c1.7,1.8,3.4,3.5,5.2,5.3c-0.8,0-1.1-0.7-1.5-1.2
		c-1.5-1.4-2.9-2.9-4.3-4.3c-0.1,0.1-0.2,0.1-0.3,0.2c0.5,2.6,0.3,5.2,0.3,7.8c0,0.6-0.1,1.2,0.3,1.8c-0.7,0.9,0.5,1.3,0.6,2.2
		c-3.6,0-7.3,0-10.9,0c2.6,0.2,5.3,0.2,7.9,0.2c1.8,0,3.7-0.2,5.5,0.2c2,0.4,4,0.9,6.1,1c1.3,0.1,1.4,0.6,1.4,1.6c0,4,0,7.9,0,11.9
		C268.4,143.2,268.3,143.8,268.7,144.2z"/>
	<path class="st3" d="M54.6,120.9c0.6-0.4,1.2-0.8,1.8-1.2c0.4,0.5,0.9,0.3,1.4,0.3c4.7,0,9.4,0,14.1,0c0,0.7,0,1.4,0,2.1
		c0.5,1,0.2,2.1,0.3,3.2c-0.4,1.5-0.4,3,0,4.5c0.3,0.3,0.5,0.6,0.5,1c-0.1,0.6,0.5,0.8,0.8,1.3c-4.6,0-9.1,0-13.7,0
		c5.2,0.8,10.4,0.5,15.6,0.6c0.2,0.1,0.4,0.2,0.6,0.2c1.9,0.3,3.9,0.6,5.8,0.8c1,0.1,1.6,0.4,1.6,1.7c-0.1,4.1,0,8.2,0,12.3
		c0,0.5-0.2,1,0.2,1.4c0.2,1.6-0.3,3.2,0.3,4.8c0,2.9-1.3,4.2-4.2,4.2c-0.6,0-1.1,0-1.7,0c-0.1-0.2-0.4-0.2-0.6-0.2
		c-2.3,0-4.6,0-6.8,0c-2.5,0-4.9,0-7.4,0c-2.2,0-4.4,0-6.6,0c-1.7-0.8-2.3-2.1-2.1-3.9c0.1-0.7,0-1.5,0-2.2c4.1,0,8.1,0,12.2,0
		c0.9,0,1.7-0.2,2.3-1c2.1,0,4.2,0,6.3,0c0-0.1,0-0.2,0-0.3c-2.1,0-4.1,0-6.2,0c0-1.4,0-2.8,0-4.2c1.8,0,3.6,0,5.4,0
		c0-0.1,0-0.2,0-0.3c-1.8,0-3.6,0-5.4,0c-0.2-3.2-0.2-3.2-3.4-3.2c-3.7,0-7.5,0-11.2-0.1c0-3.4,0-6.9-0.1-10.3
		C54.5,128.6,54,124.8,54.6,120.9z M64.2,137.2c2.6,0,5.3,0,7.9,0c1.6,0,3.2,0,5.1,0c-2.3-0.7-16.1-0.6-17.5,0
		C61.2,137.2,62.7,137.2,64.2,137.2z M59.8,127.8c3.7,0.3,7.5,0.3,11.2,0C67.2,127.8,63.5,127.8,59.8,127.8z M70.9,141.7
		c0-0.1,0-0.1,0-0.2c-1.8,0-3.6,0-5.5,0c0,0.1,0,0.1,0,0.2C67.2,141.7,69.1,141.7,70.9,141.7z"/>
	<path class="st5" d="M169.2,109.1c-0.5-1.7-0.1-3.4-0.2-5.1c0-1.2,0.3-2.6-0.1-3.7c-0.5-1.1-2.1-0.6-3.2-0.9
		c-3.3-0.9-6-2.6-8.1-5.1c-0.6-0.7-1.2-1.5-1.8-2.2c-1.6-1.9-3.7-2.8-6.2-2.5c-2.9,0.3-5.6,1.2-7.8,3.2c-0.7,0.6-0.5,1.2-0.4,1.8
		c0.6,5-0.2,9.9-1.7,14.7c-0.3,0.8-0.6,1.7-1.1,2.4c-0.8,1-1.8,1.1-2.5,0.1c-1-1.4-2.2-1.9-3.8-1.9c-0.5-1.8-1.1-3.7-1.5-5.5
		c-0.2-1.1-0.5-1.6-1.7-1.1c-0.4,0-0.7,0-1.1,0c-0.7-0.7,0.3-1.1,0.2-1.8c-0.4-0.3-0.7,0.2-1,0.2c-0.8-0.1-1.5-0.5-1-1.4
		c1.9-3.3,2.1-7.1,3.5-10.5c2-4.8,6.9-6.5,11.3-3.9c0.4-0.8,0.6-1.7,1.1-2.5c1.7-2.8,4.3-4.4,7.6-4.8c6.6-0.7,12.5,0.8,17.2,5.9
		c1.6,1.7,3.2,3.3,4.6,5.1c0.3,0.4,0.7,0.7,1.1,0.9c2,1.1,4.1,1.7,6.4,1.8c0.5,0,1.1,0,1.6,0.1c0.9,0.1,1.7,0.4,1.9,1.4
		c0.2,1-0.5,1.5-1.3,1.9c-0.9,0.5-1.9,0.7-2.9,0.7c1.3,1.9,0.4,3.9-2.5,3.6c0.2,0.8,0.4,1.5-0.2,2.2c-0.6,0.6-1.3,0.8-2.2,0.4
		c-0.6-0.3-0.6,0.4-0.7,0.7C171.3,105.1,170.2,107.1,169.2,109.1z M172.4,97.6c-2.3,0.4-4.6,0.3-6.9-0.4
		C167.7,98.3,170,98.6,172.4,97.6z M172.6,93.3c-2.4,0.4-4.8,0.3-7.2-0.5C167.8,94,170.2,94,172.6,93.3z M146.6,82.5
		c1.5-0.7,3.1-0.8,4.7-0.6C149.6,81,148,81.4,146.6,82.5z M140.6,103c-2,0.5-2.3,0.3-3.8-2.6c0.1,1,0.3,1.9,1.2,2.6
		C138.8,103.7,139.6,103.9,140.6,103z M135.2,102.9c-1.2,0.1-2,0.2-2.8-0.1C133.2,103.6,134,103.9,135.2,102.9z M153.1,82.7
		c0,0,0.1-0.1,0.1-0.1c0.6,0.6,1.2,1.2,1.8,1.8c-0.1,0.1-0.1,0.1-0.2,0.2C154.2,83.9,153.6,83.3,153.1,82.7z"/>
	<path class="st3" d="M86.2,118.9c-0.3-0.4-0.6-0.7-0.5-1.2c0-1.3,0-2.6,0-3.9c4,0,8,0,12,0c0.8,0,1.6-0.1,2.1-0.9
		c1.8,0,3.5,0,5.3,0c1,0,2,0.2,3.4-0.2c-1-0.4-1.7-0.3-2.4-0.2c-2,0-4,0-6.1-0.1c0-1.3,0-2.6,0-4c2.5,0,5.1,0,7.6,0
		c-2.5-0.7-5.1-0.4-7.6-0.5c-0.1-2.9-0.2-3-3.2-3c-3.7,0-7.4,0-11.1-0.1c0-6.7,0-13.4,0-20c-0.1-1.2,0.7-1.9,1.6-2.4
		c4.8,0,9.6,0,14.4,0c0.5,0,1.1-0.1,1.5,0.3c0,2.7,0,5.4,0,8.2c0,0.8,0.1,1.5,0.5,2.1c-0.7,0.6,0.6,0.8,0.2,1.4c-2.8,0-5.7,0-8.6,0
		c-0.3,0-0.7-0.3-0.9,0.3c0.2,0.4,0.6,0.2,0.9,0.2c2.9,0,5.7,0,8.6,0c0.7,0.1,1.5,0,2.2,0.1c2.8,0.4,5.5,1.3,8.4,1.2
		c0,0.4,0,0.7,0,1.1c-0.4,0.2-0.3,0.6-0.3,0.9c0,4.2,0,8.4,0,12.5c0.1,2.2-0.3,4.4,0.2,6.6c-0.4,1.6-1.8,2.7-3.4,2.7
		c-1.2,0-2.4,0-3.6,0c-0.2-0.3-0.5-0.2-0.7-0.2c-2.6,0-5.2,0-7.7,0c-3.1,0-6.2-0.1-9.2,0C88.6,119.8,87.3,119.6,86.2,118.9z
		 M96.5,99.3c1.9,0,3.7,0,5.6,0c1.6,0,3.2,0,4.9,0c0-0.1,0-0.1,0-0.2c-1.6,0-3.2,0-4.9,0c-1.9,0-3.7,0-5.6,0c-1.7,0-3.4,0-5.1,0
		c0,0.1,0,0.1,0,0.2C93.1,99.3,94.8,99.3,96.5,99.3z M92.2,103.8c4.7,0,9.5,0,14.2,0C101.7,103.5,96.9,103.5,92.2,103.8z
		 M100.3,90.3c0,0,0-0.1,0-0.1c-2.7,0-5.3,0-8,0c0,0,0,0.1,0,0.1C94.9,90.3,97.6,90.3,100.3,90.3z"/>
	<path class="st3" d="M196.3,82.7c0.6-1.7,1.4-2.4,3.2-2.4c4.4,0,8.7,0,13.1,0c0.8,0,1.3,0.2,1.9,0.8c1.4,1.5,2.9,3,4.4,4.6
		c-0.6,0.3-0.7-0.4-1-0.6c-1.3-1.3-2.5-2.6-3.8-3.8c-0.3,2.4-0.3,4.7-0.3,6.9c0,0.8-0.2,1.6,0.3,2.3c-0.7,0.9,0.5,1.3,0.6,2.2
		c-3.9,0-7.8,0-11.6,0c2.9,0.2,5.7,0.2,8.6,0.2c2.3,0,4.6-0.1,7,0.5c2,0.5,4,0.8,6.1,0.9c0,6.7,0,13.3,0,20c0,2-1.1,3.1-3.1,3.1
		c-7.4,0-14.7,0-22.1,0c-1.7,0-2.6-0.7-3.1-2.4c0.5-0.8,0.3-1.6,0.2-2.4c0-1,0.3-1.3,1.3-1.3c3.6,0.1,7.2,0,10.7,0
		c1.5,0,2-0.4,2.1-1.9c0.1-0.7,0.1-1.5,0-2.2c-0.1-0.9,0.3-1.2,1.1-1.1c1.5,0.1,3,0,4.4,0c-1.5-0.3-3-0.3-4.5-0.3
		c-0.8,0-1.1-0.2-1.1-1c-0.1-1.5-0.6-1.9-2.1-1.9c-3.4,0-6.8,0-10.2,0c-1.7,0-1.7,0-1.7-1.7c0-5.6,0-11.2,0-16.8
		C196.5,83.6,196.7,83,196.3,82.7z"/>
	<path class="st3" d="M80.1,108.9c-16,0-32,0-48,0c-1.3,0-1.8-0.3-1.6-1.6c0.1-0.9,0.1-1.9,0-2.8c-0.1-1.1,0.4-1.3,1.3-1.2
		c2,0.1,4.1,0,6.1,0c1.1,0.1,1.4-0.4,1.4-1.4c0-8.5,0-17,0-25.4c0-0.5-0.2-1.1,0.2-1.5c0,9,0,18,0,27c0,1.1,0.3,1.4,1.4,1.4
		c2.6-0.1,5.2,0,7.8,0c0.4,0,1,0.2,1.2-0.5c1-0.7,2.1-0.9,3.2-0.3c0.1,0,0.2,0,0.3,0c-0.1,0.9,0.6,0.8,1.2,0.8c3.9,0,7.9,0,11.8,0
		c1.9-0.2,3.8,0.3,5.7-0.2c0.4-0.1,1.1,0.5,1.5,0c0.4-0.4,0.1-1.1,0.1-1.7c0-7.9,0-15.9,0-23.8c3.2,0,6.4,0,9.5,0
		c0,1.4,0.1,2.7,0,4.1c-0.1,1.6,0.5,2.5,1.9,3.1c0,0.2,0,0.4,0,0.5c-0.8,0-1-1-1.9-1.1c0,1.1,0.1,2.2,0,3.2c-0.1,0.6,0.7,1,0.6,1.1
		c-1.1,0.7-0.5,1.8-0.5,2.7c-0.1,3.4,0,6.9,0,10.3c0,1.8,0,1.8,1.8,1.8c0,0.4,0,0.9,0,1.3c-1.3,0.1-2.7-0.3-4,0.3
		c-0.6,0.5-1,1.1-1,1.9C80.1,107.5,80.1,108.2,80.1,108.9z"/>
	<path class="st6" d="M31,226.9c0-4.1,0-8.1,0-12.2c12.3,0,24.6,0,36.9,0c0.1,0.7,0.5,0.7,1.1,0.8c1.4,0.2,2.7-0.2,3.9-0.8l0,0
		c0,1.5,0,3.1,0,4.6c0,0.6-0.1,0.8-0.8,1c-2.6,0.5-5.3,0.6-8,0.5c-9.7-0.3-19.4,0.7-29.1-0.8c-0.7-0.1-1.5,0-1.5,1
		c-0.4,0-0.9,0-1.3,0c0,0.1,0,0.2,0,0.3c0.5,0,1,0,1.5,0c12.4,0,24.7,0,37.1,0c0.4,0,0.7,0,1.1,0c1-0.1,1.2,0.3,1.2,1.2
		c-0.1,0.9,0.1,1.9,0,2.8c-0.1,1.1,0.3,1.3,1.4,1.3c4.6-0.1,9.2,0,13.8,0c0,0.1,0,0.2,0,0.2c-1.6,0-3.2,0-4.8,0c-8,0-15.9,0-23.9,0
		c-7.1,0-14.1,0-21.2,0C36,226.9,33.5,226.9,31,226.9z"/>
	<path class="st7" d="M88.3,226.6c-4.6,0-9.2,0-13.8,0c-1,0-1.5-0.2-1.4-1.3c0.1-0.9,0-1.9,0-2.8c0.1-0.9-0.2-1.3-1.2-1.2
		c-0.3,0-0.7,0-1.1,0c-12.4,0-24.7,0-37.1,0c-0.5,0-1,0-1.5,0c0-0.1,0-0.2,0-0.3c0.4,0,0.9,0,1.3,0c12.7,0,25.4,0,38,0
		c0.3,0,0.6,0,0.9,0c0.3,0,0.5-0.2,0.5-0.5c-0.1-2,0.4-3.9-0.2-5.9c0,0,0,0,0,0c0.4-1.9,0.2-3.7,0.3-5.6c0.1-1.1-0.3-1.4-1.3-1.3
		c-1.1,0-2.1,0-3.2,0c0-0.1,0-0.2,0-0.3c1,0,1.9-0.1,2.9,0c1.4,0.2,1.7-0.4,1.6-1.7c-0.1-3.8,0-7.5,0-11.3c4.1,0,8.3,0,12.4,0
		c-1.2,3-2.3,6-2.5,9.2c-0.2,3.4,0.5,6.5,1.8,9.6c-1.3,0.1-0.9,1.2-0.7,1.7c0.3,0.8,1.1,0.5,1.8,0.2c0.9,1.1,1.7,2.1,2.6,3.2
		c-0.3,0.4-0.2,0.8-0.2,1.3C88.3,222,88.3,224.3,88.3,226.6z"/>
	<path class="st8" d="M66.3,103.3c-3.9,0-7.9,0-11.8,0c-0.6,0-1.2,0.1-1.2-0.8c0.1-0.7-0.3-0.8-0.9-0.8c-0.7,0-1.3,0-2,0
		c1.1-0.4,2.4,0,3.4-0.8c4,0,7.9,0,11.9,0c0-0.1,0-0.2,0-0.3c-4,0-7.9,0-11.9,0c-0.9-0.2-0.5-0.9-0.5-1.4c0-7.7,0-15.3,0-23
		c0,0,0.1,0.1,0.1,0.1c0.4,0.6-0.2,1.5,0.4,1.8c0.7,0.5,1.6,0.2,2.5,0.2c3.3,0,6.7,0,10,0C66.3,86.7,66.3,95,66.3,103.3z M65.5,98.7
		c0-0.1,0-0.2,0-0.3c-3.8,0-7.7,0-11.5,0c0,0.1,0,0.2,0,0.3C57.8,98.7,61.7,98.7,65.5,98.7z M65.7,82.8c0,0,0-0.1,0-0.1
		c-3.9,0-7.7,0-11.6,0c0,0,0,0.1,0,0.1C58,82.8,61.9,82.8,65.7,82.8z M65.5,84.7c0,0,0-0.1,0-0.1c-3.8,0-7.6,0-11.3,0
		c0,0,0,0.1,0,0.1C57.9,84.7,61.7,84.7,65.5,84.7z"/>
	<path class="st7" d="M49.8,102.8c-0.1,0.7-0.7,0.5-1.2,0.5c-2.6,0-5.2,0-7.8,0c-1.1,0-1.4-0.3-1.4-1.4c0-9,0-18,0-27
		c0.1-0.7,0.7-0.5,1.2-0.5c2.4,0,4.8,0,7.3,0c1.9,0,1.9,0,1.9,1.8C49.8,85.1,49.8,94,49.8,102.8z"/>
	<path class="st2" d="M189.6,153.7c2.1,0.1,4.1-0.6,6.1-1c3.1-0.5,6.1-1.2,9.2-1.8c1.2-0.3,2,0.2,2.2,1.4c0.5,2.4,1,4.7,1.4,7.1
		c0.2,1-0.5,1.7-1.8,2c-4.8,1-9.7,1.9-14.5,2.9c-0.2,0-0.4,0.2-0.6,0.2c-1.6,0.1-3.1,0.5-4.7,0.9c-1.2-0.2-1.6-1-1.9-2.1
		c-0.3-1.8-0.7-3.5-1.1-5.2c0-0.3-0.1-0.7-0.1-1c-0.2-1.3,0.2-1.9,1.6-2.3C186.9,154.4,188.4,154.5,189.6,153.7z M192.1,157
		c-0.6,0.4-1.9-0.3-2.1,0.9c-0.2,1.4,0.6,3.4,1.2,3.4c1.8-0.1,3.1-1,3.1-2.2C194.4,157.9,193.4,157,192.1,157z M196.8,160.1
		c1.3,0,2.3-0.9,2.3-2c0-1.1-0.9-2.1-2.1-2.1c-1.4,0-2.4,0.9-2.4,2.1C194.7,159.3,195.6,160.1,196.8,160.1z M201.9,155.9
		c0.4,0.2,0.8,0.3,0.9-0.2c0.1-0.6-0.5-0.6-0.8-0.6c-1-0.1-1.8,0.2-2.3,1.2c-0.5,0.9-0.3,1.7,0.4,2.4c0.7,0.7,1.6,0.8,2.6,0.3
		c0.3-0.2,0.9-0.4,0.7-0.8c-0.2-0.6-0.7-0.2-1,0c-0.6,0.3-1.1,0.3-1.6-0.2c-0.4-0.4-0.4-0.9-0.2-1.4
		C200.8,156.1,201.3,155.9,201.9,155.9z"/>
	<path class="st3" d="M114.6,97.3c0-0.4,0-0.7,0-1.1c-0.1-0.8,0.2-1.7-0.3-2.4c-0.9-0.8-1.8-1.7-2.6-2.5c0.1-0.5-0.4-0.7-0.6-1
		c-0.9-1-1.9-2-2.8-3c0-1.5,0-3,0-4.5c0,0,0,0,0,0c3.3,0,6.7,0.1,10,0c1.4,0,1.7,0.4,1.6,1.7c-0.1,5.9,0,11.8-0.1,17.7
		c0,1.1,0.3,1.4,1.4,1.3c0,1.9,0,3.7,0,5.6c-2.2,0-4.4,0-6.6,0C114.6,105,114.6,101.1,114.6,97.3z M117.7,85c0,0,0-0.1,0-0.1
		c-2.5,0-4.9,0-7.4,0c0,0,0,0.1,0,0.1C112.8,85,115.2,85,117.7,85z"/>
	<path class="st7" d="M66.3,103.3c0-8.3,0-16.6,0-24.9c0-2.4,0-2.4,2.5-2.4c1.1,0,2.3,0.1,3.4,0c1.3-0.1,1.8,0.4,1.6,1.6
		c0,7.9,0,15.9,0,23.8c0,0.6,0.2,1.2-0.1,1.7c-0.4,0.5-1.1-0.1-1.5,0C70.1,103.6,68.2,103.2,66.3,103.3z M72.4,84
		c-0.9,0.3-1.3-0.6-1.9-0.9c-1.6-0.6-3.3,0-3.4,1.3c-0.1,0.9,0.2,1.5,1,1.8c1.1,0.3,2.2,0.4,3.1-0.7c-0.5-0.1-0.7,0.3-1,0.4
		c-0.9,0.4-1.8,0.4-2.4-0.3c-0.4-0.4-0.7-1-0.2-1.6c0.6-0.7,1.4-0.9,2.4-0.6c3,1,3.7,5.4,2.2,7.8c-0.3,0.5-0.6,0.3-0.9,0
		c-0.5-0.6-1.2-1-2-1.2c-1-0.3-2.1,0.3-2.3,1.2c-0.2,1,0.4,1.6,1.2,1.9c0.7,0.3,1.5,0.2,2.2,0.1c1.5-0.3,1.9-0.1,2,1.5
		c0.1,0.6,0.1,1.2,0,1.9c-0.3,2.2-2.6,3.8-4.2,2.9c-0.5-0.3-0.8-0.6-0.8-1.3c0-0.6,0.4-0.9,0.9-1.2c0.8-0.5,1.5,0.2,2.5,0.2
		c-0.6-0.5-1.1-0.6-1.6-0.6c-1.1-0.1-2.2,0.7-2.3,1.6c-0.1,0.9,0.9,1.8,2,1.9c0.8,0.1,1.6-0.1,2.2-0.6c0.5-0.4,0.8-0.4,1.2,0.2
		c-0.3-0.8-0.1-1.4,0.2-2.1c0.3-0.8,0.4-1.6,0.2-2.6c-0.4-1.5-0.8-3,0.2-4.5c0.3-0.4,0.2-0.9,0.2-1.4C73.5,87.1,72.6,85.6,72.4,84
		c1.2-1.3,1.4-3.3,0.6-4.7c-0.2,0.6,0.3,1.1,0.2,1.7c-0.1,0.6-0.2,1.2-0.4,1.8C72.6,83.1,72.3,83.5,72.4,84z"/>
	<path class="st9" d="M68.8,150.8c-0.5,0.9-1.3,1-2.3,1c-4.1,0-8.1,0-12.2,0c-0.1,0-0.2,0-0.3,0c-1.1,0-2.1,0-3.2-0.1
		c-1.4,0-2-0.6-2-2c0-1.7,0-3.3,0-5c0-1.4,0.6-1.9,2-2c1,0,2,0,3,0c0.2,0,0.3,0,0.5,0c3.7,0,7.5,0,11.2,0.1c3.2,0,3.2,0,3.4,3.2
		c0,0.1,0,0.2,0,0.3c0,1.4,0,2.8,0,4.2C68.9,150.6,68.8,150.7,68.8,150.8z M57.2,147.5c0.2,0.7-0.5,1.8,1.1,1.7
		c1.4-0.1,2.3-0.7,2.3-1.8c0-1.1-0.8-1.6-2.2-1.7C56.9,145.6,57.3,146.6,57.2,147.5z M53.7,147.1c0,0.3,0,0.4,0,0.5
		c0.1,0.5-0.2,1.1,0.2,1.4c0.7,0.3,0.5-0.6,0.8-0.7c0.3-0.1,0.7-0.1,1-0.2c0.5-0.1,0.8-0.5,0.9-1c0.1-0.5-0.2-1-0.7-1.2
		c-0.7-0.3-1.4-0.3-2.1,0C53.3,146.1,53.8,146.8,53.7,147.1z M63.8,145.9c-0.7-0.3-1.3-0.1-2-0.2c-0.3,0-0.5,0.1-0.6,0.4
		c0,0.9,0,1.8,0,2.6c0,0.4,0.7,0.4,0.6,0.2c-0.1-1.3,1.1-0.9,1.7-1.3c-0.3-0.8-1.6,0-1.5-1c0.1-0.8,1.1,0,1.6-0.5
		C63.7,146.1,63.7,146.1,63.8,145.9z"/>
	<path class="st2" d="M80.1,108.9c0-0.7,0-1.4,0.1-2.1c0-0.8,0.4-1.4,1-1.9c1.3,0,2.7-0.1,4-0.1c0.2,0,0.3,0,0.5,0
		c3.7,0,7.4,0.1,11.1,0.1c3,0,3.1,0.1,3.2,3c0,0.2,0,0.3,0,0.5c0,1.3,0,2.6,0,4c-0.1,0.2-0.1,0.3-0.2,0.5c-0.5,0.8-1.2,0.9-2.1,0.9
		c-4,0-8,0-12,0c-0.2,0-0.4,0-0.5,0c-1,0-2,0-3,0c-1.3,0-1.9-0.7-1.9-1.9C80.1,110.8,80.1,109.9,80.1,108.9z M87,111
		c1.4,0.5,2.8,0.4,4.3,0c0.4,0,0.9,0.1,1.3,0.1c0.6,0,1-0.2,1.1-0.9c0-0.6-0.3-0.9-0.8-1c-0.4-0.1-0.8-0.1-1-0.5
		c0.4-0.7,1.2,0.2,1.6-0.6c-0.5-0.5-1.1-0.5-1.7-0.3c-0.4,0.1-0.8,0.4-0.8,0.9c0,0.5,0.3,0.8,0.7,1c0.4,0.2,1.1,0.1,1,0.6
		c-0.2,0.6-0.8,0.1-1.3,0.1c-0.1,0-0.3,0-0.4,0c-1.3,0.1-2-0.4-1.7-1.8c0.1-0.4,0-0.8-0.6-0.8c-0.1,0-0.1,0-0.2,0
		c-0.3,0-0.6,0-0.9,0c-0.7-0.1-0.9,0.7-1.4,0.9c-0.1-0.1-0.2-0.2-0.3-0.4c-0.2-0.3-0.5-0.8-0.9-0.4c-0.3,0.3,0.1,0.6,0.3,0.9
		c0.4,0.5,0.3,0.9,0,1.4c-0.2,0.3-0.8,0.6-0.3,0.9c0.4,0.3,0.7-0.2,0.9-0.6c0.1-0.1,0.2-0.3,0.5-0.2C86.6,110.4,86.8,110.7,87,111z"
		/>
	<path class="st7" d="M196.3,82.7c0.4,0.4,0.2,0.9,0.3,1.4c0,5.6,0,11.2,0,16.8c0,1.7,0,1.7,1.7,1.7c3.4,0,6.8,0,10.2,0
		c1.5,0,2,0.4,2.1,1.9c0,0.8,0.3,1.1,1.1,1c1.5,0,3,0,4.5,0.3c-1.5,0-3,0-4.4,0c-0.9,0-1.2,0.3-1.1,1.1c0.1,0.7,0.1,1.5,0,2.2
		c-0.1,1.5-0.6,1.9-2.1,1.9c-3.6,0-7.2,0-10.7,0c-1,0-1.3,0.3-1.3,1.3c0,0.8,0.3,1.7-0.2,2.4c0-0.9,0-1.9,0-2.8c0-0.7-0.2-1-0.9-0.9
		c-0.7,0-1.3,0-2,0c-1.5,0-2.1-0.5-2.1-2.1c-0.1-1.5,0-3.1,0-4.6c0-1.3,0.6-1.8,1.9-1.8c3.1-0.1,3.1-0.1,3.1-3.2
		C196.3,93.8,196.3,88.2,196.3,82.7z M199.5,106.8c0,1.6,0,1.6,1.2,1.6c1.3,0,2-0.6,2-1.6c0-1-0.8-1.5-2-1.7
		C199.2,105,199.5,106,199.5,106.8z M196,106.7c0,1.4,0,1.4,1.2,0.9c0.2-0.1,0.4,0,0.6-0.1c0.6-0.1,1-0.5,1-1.1c0-0.7-0.5-1-1-1.2
		C196.6,104.8,196,105.2,196,106.7z M205.5,107.1c-0.4-0.6-1.4,0-1.5-0.8c-0.1-1,1.2-0.2,1.4-1c-0.8,0.1-1.8-0.7-2.2,0.5
		c-0.2,0.6-0.1,1.4,0,2.1c0,0.1,0.1,0.3,0.2,0.4c0.2,0.1,0.4,0,0.4-0.1C203.9,107,204.9,107.5,205.5,107.1z"/>
	<path class="st10" d="M243.1,204.4c0,1.1-0.1,2.2-0.1,3.3c0,0.6-0.1,1.2-0.5,1.7c-0.1,0.1-0.2,0.2-0.3,0.2c-2.1,0-4.2,0.1-6.4,0.1
		c-2.5,0-4.9,0-7.4,0c-0.1,0-0.2,0-0.3,0c-1.1,0-2.1,0-3.2,0c-1.4,0-1.9-0.6-1.9-2c0-1.7,0-3.3,0-5c0-1.3,0.6-1.9,1.9-2
		c1.1-0.1,2.1,0,3.2-0.1c0,0,0.1,0,0.1,0l0.1,0c4.1,0,8.1,0,12.2,0c0.9,0,1.7,0.1,2.3,0.8c0.1,0.8,0.1,1.6,0.2,2.3
		C243.1,204,243.1,204.2,243.1,204.4z M225.4,205.2c0,1-0.4,2,1.1,1.8c1.5-0.1,2.3-0.7,2.3-1.8c0-1.1-0.9-1.7-2.4-1.7
		C224.8,203.5,225.5,204.7,225.4,205.2z M230.9,207.1c1.1,0,1.9-0.6,2-1.7c0-1-0.8-1.8-1.9-1.8c-1,0-1.8,0.5-1.9,1.6
		C229.1,206.3,229.8,207,230.9,207.1z M238.3,206.1c0.5,0.3,0.6,1.2,1.5,0.8c0-0.8-1.5-1.3-0.5-2.3c0.2-0.2,0.8-0.6,0.3-0.9
		c-0.4-0.3-0.7,0.2-0.9,0.6c-0.1,0.1-0.2,0.2-0.4,0.5c-0.2-0.3-0.3-0.5-0.4-0.7c-0.2-0.3-0.5-0.7-0.8-0.4c-0.4,0.3,0.1,0.6,0.3,0.9
		c0.5,0.5,0.4,1,0,1.5c-0.2,0.2-0.5,0.5-0.4,0.8C237.6,207.3,237.8,206.5,238.3,206.1z M235.2,207.1c0.1,0,0.3,0,0.6-0.1
		c0.2-0.1,0.5-0.2,0.5-0.5c-0.1-0.3-0.4-0.3-0.6-0.2c-0.6,0.2-1,0.2-1.4-0.4c-0.2-0.4-0.2-0.8,0-1.1c0.4-0.5,0.9-0.5,1.4-0.3
		c0.3,0.1,0.5,0.1,0.6-0.2c0.1-0.3-0.2-0.4-0.5-0.5c-0.8-0.3-1.5-0.2-2.1,0.4c-0.5,0.5-0.7,1.1-0.5,1.8
		C233.6,206.7,234.2,207.1,235.2,207.1z"/>
	<path class="st7" d="M235.5,138.1c5.3-0.3,10.6-0.3,15.9-0.3c2.2,0,2.5,0.2,2.7,2.4c0.1,0.7,0.3,0.8,0.9,0.8c1.4,0,2.7,0,4.1,0.3
		c-1.1,0-2.2,0.1-3.3,0c-1.4-0.1-1.8,0.4-1.7,1.7c0.1,1.2,0.3,2.4-0.4,3.6c2.5,0,4.9,0,7.3,0c-8.5,0.2-17,0.4-25.4,0
		c-0.8-0.5-1.1-1.2-1.1-2.1c0-1.4,0-2.9,0-4.3C234.5,139.3,234.7,138.5,235.5,138.1z M236.9,142.4c0,1.7,0,1.7,1.1,1.7
		c1.3,0,2.3-0.8,2.3-1.7c0-0.9-1-1.7-2.3-1.8C236.4,140.6,237,141.7,236.9,142.4z M242.4,144.2c0.9,0,1.8-1,1.8-1.8
		c0-0.8-1-1.7-1.9-1.7c-1.1,0-1.8,0.7-1.8,1.9C240.6,143.5,241.3,144.2,242.4,144.2z M251.1,144c-0.6-0.9-1.4-1.7-0.4-2.7
		c0.1-0.1,0.2-0.3,0-0.5c-0.2-0.2-0.5-0.1-0.6,0.1c-0.5,1-0.9,0.5-1.4,0c-0.1-0.2-0.4-0.2-0.6-0.1c-0.3,0.2-0.1,0.4,0.1,0.5
		c0.9,0.7,0.6,1.4,0,2.1c-0.1,0.2-0.3,0.4-0.1,0.6c0.2,0.2,0.5,0.1,0.6-0.1c0.6-1.1,1-0.6,1.6,0.1
		C250.4,144.2,250.7,144.2,251.1,144z M247.6,143.3c-0.9-0.2-2.2,0.6-2.2-0.9c0-1.5,1.4-0.7,2.2-0.9c-0.5-1-1.2-0.9-1.9-0.7
		c-0.8,0.2-1.2,0.9-1.2,1.7c0,0.8,0.5,1.4,1.3,1.6C246.6,144.2,247.3,144.3,247.6,143.3z"/>
	<path class="st6" d="M28.3,212.6c0.3-0.4,0.8-0.3,1.2-0.2c1.2,0.2,1.5-0.4,1.4-1.5c-0.1-5,0-10,0-14.9c0-1,0.2-1.4,1.3-1.4
		c2.3,0.1,4.6,0,6.9,0c0,0.6,0,1.2,0,1.8c-1.1,0-2.1,0-3.2,0c-1.3,0-1.9,0.5-1.9,1.8c0,1.7,0,3.4,0,5.2c0,1.3,0.5,1.8,1.9,1.8
		c1.1,0,2.1,0,3.2,0.1c0,0.8,0,1.5,0,2.3c-2.5,0-4.9,0-7.4,0c0,0.1,0,0.2,0,0.3c2.5,0,4.9,0,7.4,0c0.2,0.5-0.3,1.2,0.4,1.6
		c0.3,1,0.8,1.8,2,1.8c0,0.1,0,0.2,0,0.3c0.3,0.4,0.7,0.3,1.1,0.3c6.2,0,12.3,0,18.5,0c1.2,0,2.5,0,3.7,0c0,0.2,0,0.3,0,0.5
		c-11.7,0.2-23.3-0.3-35,0.3C29.4,212.6,28.9,212.6,28.3,212.6z"/>
	<path class="st6" d="M208.2,135.4c-0.9-1-1-2.3-1.2-3.6c-0.3-2.8-1.4-5.5-1.5-8.3c0.8,0.2,1.3,0.9,2,1.3c0.8,0.9,1.7,1.6,2.9,1.9
		c3.3,2.3,6.6,4.6,9.9,6.9c0.2,0.1,0.4,0.3,0.6,0.5c0,0.3-0.2,0.4-0.5,0.5c-2.9,0.6-5.8,1.1-8.8,1.7
		C210.4,136.4,209.3,136.2,208.2,135.4z"/>
	<path class="st3" d="M49.8,102.8c0-8.8,0-17.7,0-26.5c1.1,0,2.3,0,3.4,0c0,7.7,0,15.3,0,23c0,0.5-0.4,1.2,0.5,1.4
		c0,0.1,0,0.2,0,0.3c-1,0.8-2.3,0.4-3.4,0.8c0.7,0,1.3,0,2,0c0.6,0,1,0.1,0.9,0.8c-0.1,0-0.2,0-0.3,0
		C51.9,101.9,50.8,102.1,49.8,102.8z"/>
	<path class="st6" d="M28.3,212.6c0.5,0,1.1,0,1.6,0c0.4,0.4,0.9,0.3,1.4,0.3c13.3,0,26.6,0,39.9,0c0.2,0,0.5,0.2,0.7-0.1
		c-0.2-0.1-0.4-0.3-0.5-0.4c1.3,0.2,1.6-0.3,1.7-1.6c0-1.2-0.4-2.1-1.1-2.9c1-0.2,1.4,0.2,1.3,1.3c-0.1,1.9,0.1,3.7-0.3,5.6
		c-1.2,0.6-2.5,1-3.9,0.8c-0.6-0.1-1-0.1-1.1-0.8c1.3,0,2.5,0,4.1,0c-0.6-0.6-0.9-0.5-1.2-0.5c-13.1,0-26.3,0-39.4,0
		c-0.5,0-1,0-1.2,0.5c-0.2,0-0.4,0-0.5,0C27.9,214.7,27.7,214.3,28.3,212.6z"/>
	<path class="st6" d="M72.7,130.9c0-0.4-0.2-0.8-0.5-1c0-1.5,0-3,0-4.5c-0.1-1.1,0.2-2.2-0.3-3.2c0.6-0.4,0-1.2,0.6-2
		c1.3,1.4,2.5,2.7,3.7,4c1.1,1.1,2.2,2.2,3.3,3.3c0.1,0.5,0.6,0.8,0.9,1.1c0.8,1,1.9,1.7,2.6,2.9c-0.2,0-0.3,0-0.5,0
		c-1.9,0-3.8,0-5.8,0C75.2,132.1,73.9,131.5,72.7,130.9z"/>
	<path class="st6" d="M257.8,125.6c-0.3-0.6-0.3-1.2-0.3-1.8c0-2.6,0.1-5.2-0.3-7.8c0.1-0.1,0.2-0.1,0.3-0.2
		c1.4,1.4,2.9,2.9,4.3,4.3c0.5,0.4,0.7,1.2,1.5,1.2c2,1.6,3.5,3.8,5.3,5.6c-2.7,0-5.4,0-8.2,0C259.4,126.9,258.5,126.6,257.8,125.6z
		"/>
	<path class="st7" d="M85.1,84.8c-1.4-0.6-2-1.5-1.9-3.1c0.1-1.4,0-2.7,0-4.1c0-2.7,0-2.7,2.7-2.7c1.7,0,3.3,0,5,0
		c0,1.2,0,2.3,0,3.5c0.1,1.2-0.3,2.4,0.3,3.6c-1.3,0.2-2.7-0.3-4,0.3c-1,0.5-1.7,1.2-1.6,2.4C85.5,84.8,85.3,84.8,85.1,84.8z"/>
	<path class="st6" d="M247,188.7c-0.3-0.5-0.5-1-0.8-1.5c0.5-0.4,0.3-0.9,0.3-1.3c0-2.4,0-4.8,0-7.2c1.2,0.4,1.7,1.6,2.7,2.3
		c0.9,0.9,1.9,1.8,2.8,2.8c1.5,2.2,3.7,3.7,5.3,5.9c-0.9,0-1.6,0-2.3,0c-0.8,0.1-1.6,0.2-2.4,0.3c-1.4-0.6-2.8-0.2-4.2-0.3
		C247.7,189.4,247.3,189,247,188.7z"/>
	<path class="st6" d="M57.5,174.3c1,1,2,2,3,3c2.3,2.8,5,5.3,7.6,7.8c0,0,0,0.1,0,0.1s0,0,0,0c-0.8,0.6-1.6,0-2.4,0.3
		c-0.3-0.5-0.8-0.2-1.2-0.2c-1.8-0.1-3.6-0.1-5.4-0.2c-1.2-0.1-1.3-1.2-1.8-2c0-1.4,0-2.8-0.1-4.2c0-1.6,0-3.2,0-4.8
		C57.4,174.2,57.4,174.2,57.5,174.3z"/>
	<path class="st6" d="M214,90.3c-0.4-0.7-0.2-1.6-0.3-2.3c0-2.2,0-4.5,0.3-6.9c1.2,1.3,2.5,2.6,3.8,3.8c0.3,0.3,0.4,0.9,1,0.6
		c2.1,1.9,3.9,4.1,5.8,6.1c-2.6,0-5.3,0-7.9,0C215.6,91.7,214.7,91.4,214,90.3z"/>
	<path class="st6" d="M73.2,194.5c0,3.8-0.1,7.5,0,11.3c0,1.3-0.2,1.9-1.6,1.7c-0.9-0.1-1.9,0-2.9,0c0-0.5,0-1.1,0-1.6
		c0-3.8,0-7.6,0.1-11.3C70.2,194.5,71.7,194.5,73.2,194.5z"/>
	<path class="st3" d="M91.2,82.1c-0.5-1.2-0.2-2.4-0.3-3.6c-0.1-1.2,0-2.3,0-3.5c0.3,0.9,0.8,1.1,1.7,1.1c1.6-0.1,3.2,0,4.7,0
		c0.4,0,0.9-0.1,0.9,0.5c-0.1,1.3,0.8,1.1,1.6,1.1c2.3,0,4.7,0.1,7,0c1.1,0,1.4,0.4,1.3,1.4c-0.1,1.2,0,2.5,0,3.7c0,0,0,0,0,0
		c-0.6-1.2-0.2-2.4-0.2-3.6c0-0.8-0.2-1.2-1.1-1.2c-2.5,0.1-4.9,0.1-7.4,0c-0.9,0-1.1,0.4-1.1,1.2c0,1,0,2,0,3
		C96,82.1,93.6,82.1,91.2,82.1z"/>
	<path class="st7" d="M121.2,108.9c0-1.9,0-3.7,0-5.6c1.8,0,3.6,0,5.4,0c0.4,0,0.9,0.1,1.2-0.2c0.4,0,0.7,0,1.1,0
		c0.8,0.2,1.2,0.7,1.1,1.6c-0.1,1-0.1,2.1,0,3.2c0,0.8-0.3,1.1-1.1,1.1C126.3,108.9,123.8,108.9,121.2,108.9z"/>
	<path class="st11" d="M59.7,226.9c8,0,15.9,0,23.9,0c1.6,0,3.2,0,4.8,0c5.3,0,10.6,0.1,15.9,0.1c0.2,0.3,0.6,0.2,0.9,0.2
		c2.3,0,4.6,0,6.9,0c3.6,0,7.2,0,10.8,0c2.3,0,4.7,0,7,0.1c4.9,0,9.9-0.2,14.8,0.3c-2.3,0.6-4.6,0.5-7,0.4c-0.7,0-1.4-0.1-2.1-0.1
		c-21.5-0.6-42.9-0.2-64.4-0.4c-3.8,0-7.6-0.1-11.4-0.2C59.7,227.1,59.7,227,59.7,226.9z"/>
	<path class="st12" d="M201.6,226.9c6.7,0,13.4,0,20.1,0c8.1,0,16.1,0,24.2,0c0,0.1,0,0.2,0,0.2c-14.8,0.3-29.7,0.2-44.5,0.2
		c-18.1,0-36.2,0-54.2,0c-0.8,0-1.5,0-2.3,0c0.4-0.5,1.1,0,1.5-0.5c0.1,0,0.2,0,0.3,0c0.8,0.5,1.8,0.1,2.6,0.2c3.8,0,7.7,0,11.5,0
		c9.6,0,19.2,0,28.8,0c3.7,0,7.5,0,11.2,0C201.1,227.1,201.3,227.1,201.6,226.9z"/>
	<path class="st4" d="M216.2,142.9c0.3-0.6,0.8-1.1,1.3-1.4c1.5-0.9,1.8-2.4,2.1-3.9c0.7-0.6,1.4-1.2,2.1-1.8
		c2.6,0.8,3.3,2.1,2.1,3.9c-0.3-0.3-0.4,0-0.5,0.2c-0.7,1.4-1.8,2.5-3,3.4C218.6,144.7,216.8,144.5,216.2,142.9z"/>
	<path class="st13" d="M242.9,201.4c-0.6-0.6-1.4-0.8-2.3-0.8c-4.1,0-8.1,0-12.2,0c0-6.4,0-12.7,0.1-19.1c0-0.5-0.1-1.1,0.2-1.5
		c0-0.1,0-0.2,0-0.2c0.9-0.4,0.9,0.2,0.8,0.7c-0.6,6.1-0.1,12.2-0.3,18.3c0,1,0.3,1.2,1.3,1.1c2.7-0.2,5.4-0.1,8.1-0.1
		c2.6,0,5.2,0,7.8,0c0.9,0,1.9,0,2.8,0c0,0.1,0,0.3,0,0.4c-0.8,0.7-1.7,0.5-2.6,0.3c-0.6-0.1-1.2-0.2-1.8-0.2c-0.7,0-1.4-0.1-1.3,1
		C243.5,201.6,243.1,201.4,242.9,201.4z"/>
	<path class="st14" d="M157.8,138.8c-3.9,0.1-7.4-0.9-10.2-3.8c-0.8-0.8-1.5-1.7-2-3c1.7,0.8,3.1,1.8,4.7,2.4
		c2.1,0.8,4.3,1.6,6.6,1.7c0.4,0,0.8,0,0.9,0.6C157.8,137.5,157.8,138.2,157.8,138.8z"/>
	<path class="st7" d="M257.8,125.6c0.7,1,1.6,1.3,2.7,1.3c2.7,0,5.4,0,8.2,0c0,5.7,0,11.5,0,17.2c-0.4-0.4-0.2-0.9-0.2-1.4
		c0-4,0-7.9,0-11.9c0-1-0.1-1.5-1.4-1.6c-2-0.1-4.1-0.6-6.1-1c-1.8-0.4-3.7-0.2-5.5-0.2c-2.6,0-5.3,0-7.9-0.2c3.6,0,7.2,0,10.9,0
		C258.4,126.9,257.1,126.5,257.8,125.6z"/>
	<path class="st15" d="M221.8,135.7c-0.7,0.6-1.4,1.2-2.1,1.8c-1-0.6-2.1-0.4-3.1-0.2c-1.7,0.3-3.4,0.2-5.1,0.1c-0.2,0-0.4,0-0.6,0
		c-0.5,0-1.1,0.5-1.3,0.1c-0.3-0.8-1.6-1-1.3-2.1c1,0.9,2.2,1.1,3.4,0.8c2.9-0.5,5.8-1.1,8.8-1.7c0.3-0.1,0.5-0.1,0.5-0.5
		C221.6,134.4,221.7,135,221.8,135.7z"/>
	<path class="st16" d="M30.2,214.7c0.3-0.6,0.8-0.5,1.2-0.5c13.1,0,26.3,0,39.4,0c0.3,0,0.6-0.1,1.2,0.5c-1.6,0-2.9,0-4.1,0
		c-12.3,0-24.6,0-36.9,0C30.7,214.7,30.5,214.7,30.2,214.7z"/>
	<path class="st7" d="M214,90.3c0.6,1,1.5,1.4,2.7,1.3c2.6-0.1,5.3,0,7.9,0c0,0.8,0,1.6,0,2.4c-2.1,0-4.1-0.4-6.1-0.9
		c-2.3-0.6-4.6-0.4-7-0.5c-2.9,0-5.7,0-8.6-0.2c3.9,0,7.7,0,11.6,0C214.6,91.7,213.3,91.3,214,90.3z"/>
	<path class="st17" d="M225.5,154c-0.6-0.3-1.1,0.2-1.6,0.4c-1.4,0.5-2.2,0.2-2.7-1.2c-0.2-0.5-0.4-0.8-0.8-1.1
		c-0.8-0.6-1.8-1.2-1.2-2.5c0.3-0.6-0.7-0.8-0.9-1.4c0-0.1,0-0.2,0-0.3c1.4,1.1,1.4,1.1,2.7-0.2c1.1-1,1.9-2.4,3.4-3
		c-0.9,1-1.6,2.2-2.8,3c-0.8,0.5-1.4,1.3-2,1.9c-0.7,0.7-0.1,1.3,0.4,1.8c0.5,0.4,1,1.1,1.8,0.3c1.5-1.8,3.5-3,5.5-4.3
		c0.1,0,0.2,0,0.3,0c-0.4,0.7-1.1,1.2-1.8,1.5c-1.6,0.8-2.7,2-3.9,3.2c-0.5,0.5-0.5,1-0.1,1.5c0.4,0.5,0.7,0.7,1.4,0.5
		c2.1-0.7,3.9-2,5.6-3.4c1-0.8,0.7-1.8,0.2-2.8c-0.2-0.4-0.6-0.7-0.9-1.1c0-0.4-0.1-0.8,0.2-1.1c0,0.4,0.2,0.6,0.4,0.9
		c1.5,1.4,1.6,2.7,0.4,4.4c-0.8,0.6-1.7,1.1-2.4,1.8C226.3,153.2,225.6,153.2,225.5,154z"/>
	<path class="st18" d="M218.3,147.9c0,0.1,0,0.2,0,0.3c-0.9-1.3-0.8-1.8,0.5-3.6c-1,0-2,0.4-2.6-0.5c-0.3-0.4-0.3-0.8,0-1.2
		c0.6,1.7,2.4,1.8,4.2,0.4c1.2-1,2.3-2,3-3.4c0.1-0.2,0.2-0.4,0.5-0.2c-0.3,0.5-0.7,1,0.4,1.3c0.8,0.2,1.3,0.8,1.3,1.6
		c0,0.9,0.6,1.2,1.2,1.4c0.8,0.3,1.5,0.7,1.6,1.7c-0.3,0.3-0.2,0.7-0.2,1.1c-0.2,0.2-0.3,0.3-0.5,0.5c-0.1,0-0.2,0-0.3,0
		c0.5-0.6,0.8-1.3,0.4-2.1c-0.4-0.7-1.2-0.9-2-0.9c-0.4,0-0.7,0-1.1,0c0.2-0.3,0.3-0.6,0.4-0.9c0.2-0.9,0-1.6-0.8-2.1
		c-0.7-0.4-1.4-0.2-1.9,0.5c-0.5,0.6-1.2,1.1-1.7,1.6C219.5,144.7,217.6,145.6,218.3,147.9z"/>
	<path class="st19" d="M71.8,120.1c-4.7,0-9.4,0-14.1,0c-0.5,0-1,0.2-1.4-0.3c0.3-0.1,0.7-0.2,1-0.2c4.7,0,9.3,0,14,0
		c0.3,0,0.5,0,0.7,0.2C72,119.9,71.9,120,71.8,120.1z"/>
	<path class="st20" d="M54.4,142.8c-0.2,0-0.3,0-0.5,0c0-4.9,0-9.8,0-14.6c0-1.9-0.2-3.9,0.2-5.8c0,2.6,0,5.2,0.1,7.8
		c0,0.8-0.2,1.6,0.2,2.3C54.3,135.9,54.3,139.3,54.4,142.8z"/>
	<path class="st21" d="M225.5,154c0.1-0.8,0.9-0.8,1.3-1.1c0.8-0.6,1.6-1.2,2.4-1.8c-0.7,2.1-2.1,3.8-3,5.8
		C225.2,156.1,225.8,154.9,225.5,154z"/>
	<path class="st22" d="M146.4,226.9c-0.4,0.5-1.1,0-1.5,0.5c-0.1,0-0.2,0-0.3,0.1c-4.9-0.5-9.8-0.3-14.8-0.3c-2.3,0-4.7,0-7-0.1
		c-0.1-0.1-0.1-0.2-0.2-0.3c0-0.1,0-0.2,0-0.2c0.8,0.3,1.5,0.3,2.3,0.3C132,226.9,139.2,226.9,146.4,226.9z"/>
	<path class="st23" d="M59.7,226.9c0,0.1,0,0.2,0,0.2c-7.1,0-14.1,0-21.2,0c0-0.1,0-0.2,0-0.2C45.5,226.9,52.6,226.9,59.7,226.9z"/>
	<path class="st24" d="M245.9,227.2c0-0.1,0-0.2,0-0.2c6.4,0,12.7,0,19.1-0.1c0.7,0,1.4,0,2.1,0.1c0,0.1,0,0.1,0,0.2
		C260,227.2,253,227.2,245.9,227.2z"/>
	<path class="st25" d="M57.5,174.3c-0.1,0-0.2-0.1-0.3-0.1c-0.4-0.4-1-0.3-1.5-0.3c-4.1,0-8.3,0.1-12.4,0c-1.8-0.1-3.1,0.5-3.9,2.2
		c-0.1,0-0.1,0-0.2,0c0.5-1.8,1.4-2.5,3.2-2.5c4.6,0,9.2,0,13.8,0C56.8,173.5,57.5,173.4,57.5,174.3z"/>
	<path class="st26" d="M228.6,180c-0.3,0.5-0.2,1-0.2,1.5c0,6.4,0,12.7-0.1,19.1c0,0-0.1,0-0.1,0s-0.1,0-0.1,0c0-6.5,0-13,0-19.5
		C228.1,180.7,227.8,180.1,228.6,180z"/>
	<path class="st27" d="M246.4,178.2c-0.3-0.3-0.8-0.4-1.2-0.4c-4.9,0.1-9.8-0.2-14.7,0.1c-0.1,0-0.1-0.1-0.2-0.2
		c0.4-0.2,0.8-0.3,1.3-0.3c4.7,0,9.3,0,14,0c0.3,0,0.7-0.1,1,0.2C246.4,177.9,246.4,178.1,246.4,178.2z"/>
	<path class="st28" d="M68.2,185.1c-2.6-2.5-5.2-5-7.6-7.8c0.4-0.1,0.5,0.2,0.8,0.4c2.1,2.2,4.2,4.3,6.4,6.5
		C67.9,184.5,68.3,184.7,68.2,185.1z"/>
	<path class="st29" d="M254.9,189.5c0.7,0,1.4,0,2.3,0c-1.7-2.2-3.9-3.7-5.3-5.9c1.1,0.5,1.8,1.5,2.6,2.3c1.2,1.1,2.2,2.3,3.3,3.5
		c-0.1,0.1-0.2,0.2-0.3,0.3C256.7,189.6,255.7,190.1,254.9,189.5z"/>
	<path class="st30" d="M86.2,118.9c1.2,0.7,2.4,0.9,3.8,0.9c3.1,0,6.2,0,9.2,0c0,0.1,0,0.1,0,0.2c-3.6,0-7.2,0.1-10.8,0
		C87.5,120,86.6,119.9,86.2,118.9z"/>
	<path class="st31" d="M114.6,97.3c0,3.9,0,7.8,0.1,11.7c0,0.6-0.1,1.2-0.1,1.8c-0.1,0-0.1,0-0.2,0c0-4.2,0-8.4,0-12.5
		C114.3,97.9,114.1,97.5,114.6,97.3z"/>
	<path class="st32" d="M68.7,194.5c0,3.8,0,7.6-0.1,11.3c-0.3-0.2-0.2-0.4-0.2-0.7c0-4.2,0-8.3,0-12.5l0.1,0l0.1,0
		C68.7,193.3,68.7,193.9,68.7,194.5z"/>
	<path class="st33" d="M257.5,189.8c0.1-0.1,0.2-0.2,0.3-0.3c0,1.1,0,2.3,0.1,3.4c0,0.4,0,0.7,0,1.1c0,0.1,0,0.2,0,0.3
		c0,2.6-0.1,5.3-0.1,7.9c-0.1,0-0.1,0-0.2,0c0-3.4-0.1-6.7-0.1-10.1C257.5,191.4,257.5,190.6,257.5,189.8z"/>
	<path class="st34" d="M83.8,154c-0.6-1.6-0.1-3.2-0.3-4.8c0-2.7,0-5.3,0.1-8l0.1,0l0.1,0C83.8,145.5,83.8,149.7,83.8,154z"/>
	<path class="st35" d="M39.3,176c0.1,0,0.1,0,0.2,0c0,4.1,0,8.1,0,12.2c-0.1,0-0.1,0-0.2,0C39.3,184.1,39.3,180.1,39.3,176z"/>
	<path class="st36" d="M54.3,132.5c-0.4-0.7-0.2-1.5-0.2-2.3c-0.1-2.6-0.1-5.2-0.1-7.8c0-0.6,0.1-1.1,0.6-1.4
		C54,124.8,54.5,128.6,54.3,132.5z"/>
	<path class="st37" d="M267.1,227.1c0-0.1,0-0.2,0-0.2c3.5,0,6.9,0,10.4,0c0,0.1,0,0.1,0,0.2C274,227.1,270.6,227.1,267.1,227.1z"/>
	<path class="st38" d="M71.8,120.1c0.1-0.1,0.2-0.2,0.3-0.3c1.4,1.4,3,2.6,4,4.4c-1.2-1.3-2.4-2.6-3.7-4c-0.5,0.8,0,1.5-0.6,2
		C71.8,121.4,71.8,120.8,71.8,120.1z"/>
	<path class="st39" d="M83.7,141.2L83.7,141.2c-0.1,0-0.2,0-0.2,0c0-3.1,0-6.3-0.1-9.4c0-0.1,0-0.3,0-0.4c0.3,0.2,0.3,0.5,0.3,0.8
		C83.8,135.2,83.8,138.2,83.7,141.2z"/>
	<path class="st40" d="M99.2,120c0-0.1,0-0.1,0-0.2c2.6,0,5.2,0,7.7,0c0.3,0,0.5,0,0.7,0.2C104.8,120,102,120,99.2,120z"/>
	<path class="st41" d="M54,151.9c0.1,0,0.2,0,0.3,0c0,0.7,0.1,1.5,0,2.2c-0.2,1.8,0.4,3.1,2.1,3.9c0,0.1,0,0.1,0,0.2
		c-1.9-0.6-2.4-1.4-2.5-3.3C54,153.9,54,152.9,54,151.9z"/>
	<path class="st42" d="M39.3,188.2c0.1,0,0.1,0,0.2,0c0,2.7,0,5.5,0,8.2c-0.1,0-0.2,0-0.3,0c0-0.6,0-1.2,0-1.8
		C39.2,192.4,39.2,190.3,39.3,188.2z"/>
	<path class="st43" d="M83.5,131.4c0,0.1,0,0.3,0,0.4c-0.2-0.1-0.4-0.2-0.6-0.3c-0.7-1.1-1.8-1.9-2.6-2.9c-0.3-0.4-0.7-0.6-0.9-1.1
		C81.1,128.5,82.2,130,83.5,131.4z"/>
	<path class="st44" d="M68.6,192.7L68.6,192.7c-0.1,0-0.2,0-0.2,0c0-1.6-0.1-3.2-0.1-4.8c0-0.9,0.2-1.8-0.2-2.6c0,0,0,0,0,0
		c0.8-0.1,0.5,0.5,0.5,0.9C68.7,188.3,68.6,190.5,68.6,192.7z"/>
	<path class="st45" d="M219.3,167.8c-0.7-0.1-1.5-0.2-2.1-0.6c0.7-0.6,1.6-0.6,2.4-0.5C219.5,167.1,219.4,167.5,219.3,167.8z"/>
	<path class="st46" d="M85.1,113.7c0.2,0,0.4,0,0.5,0c0,1.3,0,2.6,0,3.9C84.7,116.4,85.4,115,85.1,113.7z"/>
	<path class="st47" d="M63.1,158c2.5,0,4.9,0,7.4,0c0,0.1,0,0.1,0,0.2c-2.5,0-4.9,0-7.4,0C63.1,158.1,63.1,158,63.1,158z"/>
	<path class="st48" d="M70.5,158.2c0-0.1,0-0.1,0-0.2c2.3,0,4.6,0,6.8,0c0.2,0,0.4,0,0.6,0.2C75.4,158.2,73,158.2,70.5,158.2z"/>
	<path class="st49" d="M114.3,110.7c0.1,0,0.1,0,0.2,0c0,2.2,0,4.4,0,6.6C114,115.1,114.4,112.9,114.3,110.7z"/>
	<path class="st50" d="M63.1,158c0,0.1,0,0.1,0,0.2c-2.2,0-4.4,0-6.6,0c0-0.1,0-0.1,0-0.2C58.7,158,60.9,158,63.1,158z"/>
	<path class="st51" d="M246.4,178.2c0-0.1,0-0.3,0.1-0.4c0.9,1,2.2,1.7,2.7,3.1c-1-0.7-1.5-1.8-2.7-2.3
		C246.4,178.5,246.4,178.4,246.4,178.2L246.4,178.2z"/>
	<path class="st52" d="M219.9,166.7c1.2-0.9,2.5-1.1,3.9-0.8C222.5,166.2,221.2,166.4,219.9,166.7z"/>
	<path class="st53" d="M210.5,126.7c-1.2-0.3-2.1-1-2.9-1.9C208.8,125.1,209.6,125.9,210.5,126.7z"/>
	<path class="st54" d="M228.1,209.7c0.1,0,0.2,0,0.3,0c0,0.2,0,0.5,0,0.7c0,1.1-0.2,2.2,0.1,3.3c-0.8-0.5-0.3-1.3-0.5-2
		C228.1,211.1,228.1,210.4,228.1,209.7z"/>
	<path class="st4" d="M146.4,226.9c-7.2,0-14.3,0-21.5,0c-0.8,0-1.6,0-2.3-0.3c-2.9-1-5.8-2-8.8-2.9c-0.8-0.3-1.1-0.5-0.9-1.5
		c0.6-3,1.1-6.1,1.6-9.2c0.1-0.1,0.1-0.1,0.1-0.2c0.6-0.4,1.2-0.8,1.8-1.2c0.9-0.7,2.1-1,2.7-2.1c1.4-0.3,2.3-1.4,3.4-2.1
		c1.3-0.6,2.7-1.2,4-1.9c1-0.4,2-0.8,3-1.1c0.7-0.2,1.2-0.6,1.5-1.3c0.1,0.7,0.5,0.5,0.8,0.3c1.1-0.4,2.3-0.9,3.4-1.3
		c1.7-0.7,2.1-0.4,2.1,1.5c-0.7,2.4-2.4,3.9-4.6,4.9c-0.8,0.4-1.6,0.7-2.4,1c-1,0.5-1.7,1.3-1.7,2.5c0,1.2,0.6,2.1,1.8,2.5
		c1.8,1.1,3.5,2.4,5.4,3.1c1.8,0.7,3.8,0.7,5.7,1c3.3,0.5,6.6,1,9.9,1.5c-0.7,1.7-1.9,3-2.8,4.5c-0.2,0.3-0.5,0.5-0.9,0.6
		c-1.1,0.1-2.3,0.2-3.4,0.3c-2.2,0.3-4.4,0.2-6.6,0c-1.8-0.2-3.6-0.7-5.5-0.8c5,1.6,10,1.7,15.1,0.7c-0.3,0.4-0.5,0.9-0.8,1.3
		C146.6,226.9,146.5,226.9,146.4,226.9z M133.7,222.5c5,1.7,10.1,1.5,15.3,0.5C143.9,223.8,138.8,223.6,133.7,222.5z"/>
	<path class="st55" d="M119.1,209.6c-0.6,1.1-1.8,1.4-2.7,2.1c-4-9.6-8-19.1-11.9-28.7c-1-2.5-0.1-3.9,2.6-3.9c1.1,0,2.3,0,3.4,0
		c1.5-0.1,2.3-0.8,2.5-2.3c0.1-0.3,0.1-0.6,0.1-0.9c0.2-1.9,0.9-2.6,2.8-2.7c1,0,2,0,3-0.1c0,0,0.1,0,0.1,0l0.1,0
		c3.9,0,7.9,0.2,11.8,0c3.2-0.1,5.8,0.8,7.9,3.1c1.3,1.4,2.9,1.9,4.9,1.9c7.1-0.1,14.2,0,21.3,0c2.1,0,4,0.7,5.2,2.6
		c-0.5,0-1.1,0.1-1.6,0.1c-14.8,0-29.6,0-44.4,0c-1.2,0-2.3,0-3.2,0.9c-1.8,0-3.5,0-5.3,0c-2.6,0-3.6,1.4-3,3.9
		C115,193.7,117.1,201.6,119.1,209.6z"/>
	<path class="st8" d="M131,203.3c-0.3,0.7-0.8,1.1-1.5,1.3c-1,0.3-2,0.7-3,1.1c-0.6-0.9,0-1.8,0.1-2.7c0.9-6.1,1.9-12.1,2.8-18.2
		c0.4-2.8,1.2-3.9,4.3-3.9c16,0.1,32,0,48,0c2.9,0,5.8,0,8.7,0c0.6-0.1,1.1,0.3,1.7,0.5c0.4-0.5-0.2-0.9-0.1-1.3
		c0.7,0.3,0.4,1.1,0.6,1.6c0.2,0.5,0.3,0.9,0.9,0.5c-0.1,0.3-0.2,0.7-0.3,1c-0.6,0-1.1,0.1-1.7,0.1c-16.6,0-33.3,0-49.9,0
		c-3,0-4.2,0.8-5.2,3.7C134.6,192.5,132.8,197.9,131,203.3z"/>
	<path class="st3" d="M190.5,181c-2.9,0-5.8,0-8.7,0c-16,0-32,0-48,0c-3.1,0-3.9,1.1-4.3,3.9c-0.9,6.1-1.9,12.1-2.8,18.2
		c-0.1,0.8-0.7,1.8-0.1,2.7c-1.3,0.6-2.7,1.2-4,1.9c-0.1-0.1-0.2-0.3-0.2-0.4c-0.4-5.1-0.6-10.2-1.1-15.2c-0.2-1.8-0.2-3.6-0.4-5.4
		c-0.2-1.6-0.5-3.2,0.4-4.8c0.9-0.9,2-0.9,3.2-0.9c14.8,0,29.6,0,44.4,0c0.5,0,1.1,0,1.6-0.1c6.2,0,12.4,0,18.6,0.1
		C189.5,180.8,190,180.7,190.5,181z"/>
	<path class="st56" d="M193.6,182.3c-0.6,0.4-0.8,0-0.9-0.5c-0.2-0.5,0.1-1.3-0.6-1.6c-1.7-5-3.4-9.9-5.1-14.9
		c1.5-0.4,3.1-0.8,4.7-0.9c0.5,0.7-0.1,1.6,0.4,2.4c0.6,1.2,0.7,2.7,2,3.6c1.1,0.8,2.1,0.8,3.3,0.5c0.8-0.2,1.7-0.9,2.4,0.2
		C197.8,175,195.8,178.7,193.6,182.3z"/>
	<path class="st57" d="M107.4,207.3c-1.8,3.5-4,6.7-6.1,10c-0.1,0.2-0.3,0.4-0.4,0.5c-0.4,0.7-1,1.3-1.8,1c-0.9-0.4-0.6-1.4-0.4-2
		c1.3-3.8,3.2-7.2,7.1-8.9c0.6-0.3,1.1-0.6,1.6-0.9C107.4,207.1,107.4,207.2,107.4,207.3z"/>
	<path class="st57" d="M88.3,198.5c3.3-2.6,7-1.9,10.6-1c3.6,0.9,6,3.2,7.5,6.5C101.4,198.5,94.9,198.4,88.3,198.5z"/>
	<path class="st58" d="M171.1,178.5c0-4.4,0-8.9,0-13.3c0,0,0.1,0,0.1,0c0,4.5,0,8.9,0,13.4C171.2,178.6,171.2,178.6,171.1,178.5z"
		/>
	<path class="st59" d="M85.9,215.2c-0.6,0.3-1.4,0.6-1.8-0.2c-0.2-0.5-0.7-1.6,0.7-1.7C85.2,214,85.6,214.6,85.9,215.2z"/>
	<path class="st60" d="M122.5,226.8c0.1,0.1,0.1,0.2,0.2,0.3c-3.6,0-7.2,0-10.8,0c0-0.1-0.1-0.2-0.1-0.2c0,0,0,0,0,0
		C115.5,226.9,119,226.9,122.5,226.8z"/>
	<path class="st61" d="M119.3,173.1l-0.1,0c0,0-0.1,0-0.1,0c0-2.6,0-5.1,0-7.7c0-0.1,0.1-0.2,0.2-0.2
		C119.3,167.8,119.3,170.4,119.3,173.1z"/>
	<path class="st62" d="M114.6,212.9c0,0.1,0,0.1-0.1,0.2c-0.6-0.9,0.2-1.9,0.1-2.8c-0.1-0.7,0.1-1.5-0.7-2.1
		c0.7,0.1,0.9,0.5,0.9,1.1C114.9,210.6,114.8,211.7,114.6,212.9z"/>
	<path class="st63" d="M107.4,207.3c0-0.1,0-0.2,0-0.3c1-1.3,2.1-0.7,3.3-0.2C109.6,206.7,108.4,206.3,107.4,207.3z"/>
	<path class="st64" d="M130.5,214.7c-1.2-0.4-1.8-1.3-1.8-2.5c0-1.2,0.7-2,1.7-2.5c0.8-0.4,1.6-0.7,2.4-1c2.2-1,3.9-2.5,4.6-4.9
		c0.6,1.5-0.2,2.5-1,3.5c-1,1.3-2.5,2.1-3.8,3.1C131.2,211.5,130.3,212.8,130.5,214.7z"/>
	<path class="st55" d="M146.7,226.9c0.3-0.4,0.5-0.9,0.8-1.3c0.1-0.1,0.2-0.2,0.3-0.2c0.4-0.1,0.7-0.3,0.9-0.6
		c0.9-1.5,2.2-2.8,2.8-4.5c1.6,2.4,1.1,4.4-1.6,6.6c-0.2,0.1-0.4,0.2-0.6,0.3C148.4,227.1,147.5,227.4,146.7,226.9z"/>
	<path class="st65" d="M149.3,227.1c0.2-0.1,0.4-0.2,0.6-0.3c13.2,0,26.5,0,39.7,0c0,0,0.1,0.1,0.1,0.1c0,0.1,0,0.1-0.1,0.2
		c-9.6,0-19.2,0-28.8,0C157,227.2,153.2,227.1,149.3,227.1z"/>
	<path class="st13" d="M237.4,196c-0.5,0.1-1.3,0.1-2.1-0.1c-0.7-0.2-1.1-0.5-1.2-1.2c-0.1-0.3-0.1-0.6,0.2-0.8
		c0.6-0.4,1.1-0.3,1.6,0.1c0.5,0.4,1,0.3,1.5,0.3c3.3,0,6.5,0,9.8,0c0.8,0,1.6,0.1,2.4-0.5c0.5-0.3,1.2-0.3,1.5,0.3
		c0.3,0.7,0,1.3-0.6,1.5c-0.6,0.3-1.3,0.5-2,0.4c-3.4-0.4-6.8-0.4-10.1,0C238.1,196.1,237.9,196.1,237.4,196z M235.2,194.9
		c0,0,0,0.1,0,0.1c4.7,0,9.5,0,14.2,0c0,0,0-0.1,0-0.1C244.7,194.9,239.9,194.9,235.2,194.9z"/>
	<path class="st66" d="M257.5,189.8c0,0.8,0,1.6,0,2.4c-3.4-0.5-6.8-1.5-10.3-1.3c-3.3,0-6.5,0-9.8,0c-0.5,0-1,0.2-1.3-0.3
		c1.5,0,3,0,4.5,0c1.3,0,2.6,0,4,0c1.4,0,2.9,0,4.3,0c0,0,0-0.1,0-0.1c-0.4,0-0.7-0.1-1.1-0.1c-0.2-0.1-0.3-0.1-0.5-0.2
		c-0.1-0.4-0.9-0.8-0.3-1.4c0.4,0.4,0.8,0.8,1.3,0.8c1.4,0.6,2.8,0.1,4.2,0.3c0.8-0.1,1.6-0.2,2.4-0.3
		C255.7,190.1,256.7,189.6,257.5,189.8z"/>
	<path class="st13" d="M228.5,213.7c-0.3-1.1-0.1-2.2-0.1-3.3c3,0,6,0,9.1,0c-0.4,0.7-1,0.8-1.6,0.8c-1.7,0-3.4,0-5.2,0
		c-1.5,0-2.1,0.8-1.4,2.2c0.3,0.6,0.4,1-0.3,1.3c-0.2-0.1-0.3-0.2-0.5-0.3C228.6,214.2,228.6,214,228.5,213.7z"/>
	<path class="st67" d="M232.8,215.8c0.2,0,0.4,0,0.6-0.1c3.9,0,7.8,0,11.7,0c2.7,0,5.4,0,8.2,0c-2.1,0.4-4.3,0.4-6.5,0.5
		c-5,0.2-10,0.1-15.1,0.1c-0.4,0-0.7,0-1-0.2C231.4,215.8,232.2,216.2,232.8,215.8z"/>
	<path class="st13" d="M234,199.4c0.2-1.2,0.7-1.5,1.6-1c0.7,0.4,1.4,0.4,2.1,0.4c3.5,0,7,0,10.5,0c0.4,0,0.9-0.2,1,0.4
		c0,0.6-0.6,0.3-0.9,0.4c-0.4-0.5-0.9-0.3-1.4-0.3C242.6,199.3,238.3,199.3,234,199.4z"/>
	<path class="st13" d="M244.6,181.3c0.4,1.2,0.1,2.4,0.5,3.6c0.2,0.5-0.3,0.6-0.8,0.6c-3.2,0-6.3,0-9.5,0c-0.3,0-0.8,0-0.7-0.5
		c0.1-0.7,0.7-0.7,1.2-0.5c2.3,0.9,4.6,0.3,6.9,0.5c0.2,0,0.4,0,0.5,0c1.4-0.3,1.9-1,1.9-2.4C244.6,182.2,244.6,181.7,244.6,181.3z"
		/>
	<path class="st13" d="M242.9,186c0.3,0,0.5-0.1,0.8-0.1c1.1-0.2,1.4,0.1,1,1.3c-0.4-0.3-0.8-0.6-1.4-0.5c-2.4,0.2-4.8,0.1-7.3,0.1
		c-0.4,0-0.8-0.3-0.9-0.7c0-0.5,0.4-0.3,0.7-0.3c0.3,0.5,0.7,0.2,1.1,0.2C238.9,186.1,240.9,186,242.9,186z"/>
	<path class="st13" d="M236.1,190.5c0.4,0.5,0.9,0.3,1.3,0.3c3.3,0,6.5,0,9.8,0c-1.1,0.5-2.2,0.4-3.4,0.3c-2-0.1-4.1,0-6.1,0
		c-0.4,0-0.7,0-1.1,0c-0.6,0-1.3-0.2-1.2-0.9c0.1-0.6,0.7-0.4,1.2-0.3c1.8,0.3,3.6,0.1,5.4,0.1c1.7,0,3.4,0,5.2,0
		c0.2,0.1,0.3,0.1,0.5,0.2c-1.1,0-2.1,0.1-3.2,0.1c-1.3,0-2.6,0-4,0C239.1,190.4,237.6,190,236.1,190.5z"/>
	<path class="st68" d="M257.9,194.3c0-0.1,0-0.2,0-0.3c8.6,0,17.1,0,25.7,0c0,0.1,0,0.2,0,0.3C275,194.3,266.4,194.3,257.9,194.3z"
		/>
	<path class="st13" d="M245.1,215.7c-3.9,0-7.8,0-11.7,0c0.1-0.1,0.2-0.2,0.3-0.2c3.4,0.2,6.6-0.9,10-0.6
		C244.4,215,244.9,215.1,245.1,215.7z"/>
	<path class="st69" d="M234,199.4c4.3,0,8.7,0,13,0c0.5,0,1-0.2,1.4,0.3c-0.6,0.1-1.3-0.1-2,0.2c-2.6,0-5.2,0-7.8,0
		c-1-0.4-2.1-0.1-3.2-0.2C234.9,199.5,234.4,199.7,234,199.4z"/>
	<path class="st13" d="M249.6,204.4c-0.2,0.3-0.5,0.7-0.9,0.7c-1.4,0-2.9,0-4.3-0.1c-0.4,0-0.7-0.3-0.9-0.7c1.7,0,3.4,0,5-0.1
		C248.9,204.3,249.2,204.4,249.6,204.4z"/>
	<path class="st13" d="M249.6,209.9c0,0.9-0.6,1.3-1.3,1c-1.3-0.6-2.7-0.4-4-0.5c-0.4,0-0.9,0.2-1.1-0.5c1,0,1.9-0.1,2.9-0.1
		C247.3,209.9,248.4,209.9,249.6,209.9z"/>
	<path class="st13" d="M242.7,210c-0.1,0.1-0.3,0.3-0.4,0.3c-4.1-0.3-8.2,0-12.3-0.4c1.9,0,3.9,0,5.8,0
		C238.1,209.9,240.4,209.9,242.7,210z"/>
	<path class="st70" d="M189.6,227.1c0-0.1,0-0.1,0.1-0.2c4,0,7.9,0,11.9,0c-0.2,0.2-0.5,0.2-0.7,0.2
		C197.1,227.1,193.3,227.1,189.6,227.1z"/>
	<path class="st71" d="M248.5,204.3c-1.7,0-3.4,0-5,0.1c-0.1,0-0.3,0-0.4,0c0-0.2,0-0.4,0-0.6c0.4,0,0.8,0,1.2,0c1.6,0,3.2,0,4.8,0
		c0,0,0,0,0,0C248.9,204,248.7,204.2,248.5,204.3z"/>
	<path class="st72" d="M257.6,202.2c0.1,0,0.1,0,0.2,0c0,3.8,0,7.6,0,11.5c-0.1,0-0.1,0-0.2,0C257.6,209.9,257.6,206,257.6,202.2z"
		/>
	<path class="st73" d="M249.6,209.9c-1.2,0-2.3,0-3.5-0.1c-1.3-0.5-2.7-0.1-4-0.3c0.1-0.1,0.2-0.2,0.3-0.2c2.8,0.1,5.6-0.1,8.7,0.4
		C250.5,209.9,250,209.9,249.6,209.9z"/>
	<path class="st74" d="M242.1,209.6c1.3,0.2,2.7-0.2,4,0.3c-1,0-1.9,0.1-2.9,0.1c-0.2,0-0.4,0-0.5,0c-2.3,0-4.6,0-6.9-0.1
		c0-0.1,0-0.1-0.1-0.2C237.9,209.7,240,209.7,242.1,209.6z"/>
	<path class="st75" d="M246.4,178.3c0,0.1,0,0.2,0,0.4c0,2.4,0,4.8,0,7.2c0,0.5,0.2,1-0.3,1.3C246.1,184.2,245.9,181.2,246.4,178.3z
		"/>
	<path class="st13" d="M249.1,203.8c-1.6,0-3.2,0-4.8,0c1.3-0.5,2.6-0.5,4-0.5C248.7,203.3,249,203.3,249.1,203.8z"/>
	<path class="st76" d="M242.9,186c-2,0-4,0-6,0c-0.4,0-0.8,0.2-1.1-0.2c2.1,0,4.1,0,6.2,0C242.3,185.8,242.7,185.6,242.9,186z"/>
	<path class="st77" d="M232.8,215.8c-0.7,0.5-1.4,0.1-2.1,0.3c-1-0.2-1.9-0.5-2.1-1.7c0.2,0.1,0.3,0.2,0.5,0.3
		C230,216.2,231.5,215.6,232.8,215.8z"/>
	<path class="st13" d="M238.5,210.6c0.8-0.1,1.4-0.2,2,0C239.6,211.4,239.5,211.4,238.5,210.6z"/>
	<path class="st78" d="M248.5,204.3c0.2-0.2,0.3-0.3,0.5-0.5c0.8,0,1.5-0.1,2.5,0.2c-0.8,0.5-1.4,0.3-2,0.4
		C249.2,204.4,248.9,204.3,248.5,204.3z"/>
	<path class="st79" d="M156.7,117.9c0.5-0.4,0.9-0.3,1.2-0.4c2-0.2,2-0.2,1.4-2.2c-0.8-2.8-1.6-5.6-2.5-8.5c-0.1-0.3-0.2-0.7,0-1.2
		c1.2,2.9,2,5.7,2.8,8.5c0.2,0.7,0.4,1.4,0.6,2.2c0.2,1-0.2,1.6-1.3,1.6C158.3,117.9,157.6,117.9,156.7,117.9z"/>
	<path class="st80" d="M149,100.3c-1,0.1-1.9,0.2-2.9,0.3c-0.3,0-0.6,0.1-0.7-0.2c-0.1-0.3,0.2-0.4,0.4-0.6c1.2-1,3.9-1.1,5.1-0.2
		c0.2,0.2,0.5,0.3,0.4,0.6c-0.1,0.3-0.4,0.3-0.7,0.3C150.2,100.4,149.6,100.4,149,100.3C149,100.4,149,100.3,149,100.3z"/>
	<path class="st81" d="M152,109.7c-0.2,0.8-0.6,1.3-1.4,1.3c-0.8,0-1.2-0.4-1.2-1.2c0-0.9,0.5-1.3,1.3-1.3
		C151.4,108.5,151.8,109,152,109.7z"/>
	<path class="st82" d="M161.1,103.1c1.5-1.3,4.5-1.4,5.7-0.4c0.1,0.1,0.3,0.3,0.3,0.4c0,0.3-0.3,0.2-0.5,0.2c-0.2,0-0.4,0-0.5,0
		C164.5,103.1,162.9,103.2,161.1,103.1z"/>
	<path class="st83" d="M165.6,110.3c-0.1,0.8-0.6,1.2-1.4,1.2c-0.7,0-1.3-0.6-1.2-1.3c0.1-0.8,0.6-1.3,1.5-1.2
		C165.2,109,165.6,109.4,165.6,110.3z"/>
	<path class="st84" d="M146.1,106.3c1.3-2.2,4.6-2.2,6,0C150.2,105.5,148.2,105.4,146.1,106.3z"/>
	<path class="st85" d="M167.3,107c-1.9-0.8-3.9-1.1-6,0c0.6-1.2,1.5-1.8,2.8-1.7C165.4,105.2,166.6,105.6,167.3,107z"/>
	<path class="st86" d="M132.8,117.5c-1.3,0.4-2-0.1-2.4-1c-0.6-1.3-0.7-2.7,0.2-4c0.4-0.5,0.9-1,1.8-0.4c-1.7,0.2-2.1,1.5-2,2.7
		C130.7,116,131,117.3,132.8,117.5z"/>
	<path class="st87" d="M151.3,118.3c0.7,1.4,1.4,2.8,2.9,3.7C152.6,122,151.5,120.6,151.3,118.3z"/>
	<path class="st88" d="M208.6,137.9c-1.5,0.3-2.9,0.6-4.4,0.9c0-0.1,0-0.2-0.1-0.3c1.5-0.3,2.9-0.6,4.4-0.9
		C208.6,137.7,208.6,137.8,208.6,137.9z"/>
	<path class="st89" d="M211,143c-1,0.2-2.1,0.4-3.1,0.6c0.9-0.8,2.1-0.6,3.1-1C211,142.7,211,142.9,211,143z"/>
	<path class="st90" d="M82.9,131.4c0.2,0.1,0.4,0.2,0.6,0.3c0,3.1,0,6.3,0.1,9.4c0,2.7,0,5.3-0.1,8c-0.4-0.4-0.2-0.9-0.2-1.4
		c0-4.1-0.1-8.2,0-12.3c0-1.3-0.6-1.6-1.6-1.7c-1.9-0.3-3.9-0.6-5.8-0.8c-0.2,0-0.4-0.2-0.6-0.2c0.5-0.5,1.3,0,2.2-0.6
		c-1.6,0-2.8,0-4,0c-0.2-0.5-0.8-0.7-0.8-1.3c1.3,0.6,2.5,1.2,4,0.6c1.9,0.6,3.8,0.4,5.8,0C82.6,131.5,82.7,131.4,82.9,131.4z"/>
	<path class="st91" d="M73.4,132.2c1.2,0,2.5,0,4,0c-0.9,0.6-1.6,0.1-2.2,0.6c-5.2-0.1-10.4,0.3-15.6-0.6
		C64.3,132.2,68.9,132.2,73.4,132.2z"/>
	<path class="st92" d="M64.2,137.2c-1.5,0-3,0-4.5,0c1.4-0.6,15.2-0.7,17.5,0c-1.9,0-3.5,0-5.1,0c-0.3-0.3-0.6-0.2-1-0.2
		C68.8,137.1,66.5,136.7,64.2,137.2z"/>
	<path class="st93" d="M59.8,127.8c3.7,0,7.5,0,11.2,0C67.2,128.1,63.4,128.1,59.8,127.8z"/>
	<path class="st94" d="M64.2,137.2c2.3-0.5,4.6-0.1,6.9-0.2c0.3,0,0.7-0.1,1,0.2C69.5,137.2,66.8,137.2,64.2,137.2z"/>
	<path class="st95" d="M68.8,150.8c0.1-0.1,0.1-0.2,0.2-0.3c2.1,0,4.1,0,6.2,0c0,0.1,0,0.2,0,0.3C73,150.8,70.9,150.8,68.8,150.8z"
		/>
	<path class="st96" d="M70.9,141.7c-1.8,0-3.6,0-5.5,0c0-0.1,0-0.1,0-0.2c1.8,0,3.6,0,5.5,0C70.9,141.6,70.9,141.7,70.9,141.7z"/>
	<path class="st97" d="M68.9,146.3c0-0.1,0-0.2,0-0.3c1.8,0,3.6,0,5.4,0c0,0.1,0,0.2,0,0.3C72.5,146.3,70.7,146.3,68.9,146.3z"/>
	<path class="st98" d="M72.1,125.4c0,1.5,0,3,0,4.5C71.7,128.4,71.7,126.9,72.1,125.4z"/>
	<path class="st99" d="M172.4,97.6c-2.4,1-4.7,0.7-6.9-0.4C167.7,97.9,170,98,172.4,97.6z"/>
	<path class="st100" d="M172.6,93.3c-2.5,0.7-4.9,0.7-7.2-0.5C167.8,93.6,170.2,93.8,172.6,93.3z"/>
	<path class="st101" d="M146.6,82.5c1.4-1.1,3-1.5,4.7-0.6C149.7,81.7,148.1,81.8,146.6,82.5z"/>
	<path class="st102" d="M140.6,103c-1,0.9-1.8,0.7-2.6,0.1c-0.8-0.7-1-1.7-1.2-2.6C138.4,103.3,138.6,103.5,140.6,103z"/>
	<path class="st101" d="M135.2,102.9c-1.2,0.9-2,0.7-2.8-0.1C133.2,103.2,134,103.1,135.2,102.9z"/>
	<path class="st100" d="M153.1,82.7c0.6,0.6,1.2,1.2,1.7,1.8c0.1-0.1,0.1-0.1,0.2-0.2c-0.6-0.6-1.2-1.2-1.8-1.8
		C153.1,82.6,153.1,82.7,153.1,82.7z"/>
	<path class="st6" d="M111.7,91.2c0.9,0.8,1.8,1.7,2.6,2.5c-0.8,0.4-1.6,0.3-2.4,0.3c-0.9-0.6-1.9-0.1-2.9-0.3
		c-1.1-0.5-2.3-0.1-3.5-0.2c-0.7-0.1-1.3,0-1.8-0.6c-0.4-0.6-0.6-1.3-0.5-2.1c0-2.7,0-5.4,0-8.2l0,0c0.7,0.2,0.9,1,1.5,1.3
		C106.8,86.6,109.2,88.9,111.7,91.2z"/>
	<path class="st103" d="M111.9,94c0.8,0,1.6,0.1,2.4-0.3c0.5,0.8,0.2,1.6,0.3,2.4c-2.9,0.1-5.6-0.8-8.4-1.2
		c-0.7-0.1-1.5-0.1-2.2-0.1c-0.3-0.5-0.7-0.2-1.1-0.2c-2.8,0-5.6,0-8.4,0c0.2-0.5,0.6-0.3,0.9-0.3c2.9,0,5.7,0,8.6,0
		c0.3-0.6-0.9-0.8-0.2-1.4c0.5,0.6,1.1,0.5,1.8,0.6c1.2,0.1,2.4-0.3,3.5,0.2c-1.3,0-2.5,0-3.8,0c0,0.1,0,0.2,0,0.3
		C107.4,94,109.6,94,111.9,94z"/>
	<path class="st104" d="M85.1,84.8c0.2,0,0.3,0,0.5,0c0,6.7,0,13.4,0,20c-0.2,0-0.3,0-0.5,0c0-0.1,0-0.1-0.1-0.2c0-0.4,0-0.9,0-1.3
		c0-6,0-12,0-18C85.1,85.1,85.1,84.9,85.1,84.8z"/>
	<path class="st105" d="M91.2,82.1c2.4,0,4.8,0,7.2,0c1.3,0,2.7,0,4,0.1c0.3,0,0.9-0.2,0.8,0.5l0,0c-0.5-0.4-1-0.3-1.5-0.3
		c-4.8,0-9.6,0-14.4,0C88.5,81.8,89.9,82.3,91.2,82.1z"/>
	<path class="st106" d="M100,108.3c0-0.2,0-0.3,0-0.5c2.5,0.1,5.1-0.2,7.6,0.5C105.1,108.3,102.5,108.3,100,108.3z"/>
	<path class="st107" d="M92.2,103.8c4.7-0.3,9.5-0.3,14.2,0C101.7,103.8,96.9,103.8,92.2,103.8z"/>
	<path class="st108" d="M99.7,112.8c0.1-0.2,0.1-0.3,0.2-0.5c2,0,4,0,6.1,0.1c-0.3,0.1-0.7,0.3-1,0.4
		C103.2,112.8,101.5,112.8,99.7,112.8z"/>
	<path class="st109" d="M94.4,94.6c2.8,0,5.6,0,8.4,0c0.4,0,0.8-0.2,1.1,0.2c-2.9,0-5.7,0-8.6,0C95,94.8,94.6,95,94.4,94.6z"/>
	<path class="st110" d="M100.3,90.3c-2.7,0-5.4,0-8,0c0,0,0-0.1,0-0.1c2.7,0,5.3,0,8,0C100.3,90.2,100.3,90.2,100.3,90.3z"/>
	<path class="st111" d="M102.1,99.3c-1.9,0-3.7,0-5.6,0c0-0.1,0-0.1,0-0.2c1.9,0,3.7,0,5.6,0C102.1,99.2,102.1,99.2,102.1,99.3z"/>
	<path class="st112" d="M105,112.8c0.3-0.1,0.7-0.3,1-0.4c0.7,0,1.4-0.2,2.4,0.2C107,113,106,112.9,105,112.8z"/>
	<path class="st113" d="M96.5,99.1c0,0.1,0,0.1,0,0.2c-1.7,0-3.4,0-5.1,0c0-0.1,0-0.1,0-0.2C93.1,99.1,94.8,99.1,96.5,99.1z"/>
	<path class="st113" d="M102.1,99.3c0-0.1,0-0.1,0-0.2c1.6,0,3.2,0,4.9,0c0,0.1,0,0.1,0,0.2C105.3,99.3,103.7,99.3,102.1,99.3z"/>
	<path class="st7" d="M85.1,85.3c0,6,0,12,0,18c-1.8,0-1.8,0-1.8-1.8c0-3.4-0.1-6.9,0-10.3c0-0.9-0.6-1.9,0.5-2.7
		c0.2-0.1-0.6-0.6-0.6-1.1c0.1-1,0-2.1,0-3.2C84.1,84.3,84.3,85.3,85.1,85.3z"/>
	<path class="st7" d="M85.1,104.6c0,0.1,0,0.1,0.1,0.2c-1.3,0-2.7,0.1-4,0.1C82.4,104.3,83.8,104.8,85.1,104.6z"/>
	<path class="st6" d="M72.9,214.7c0.6,1.9,0.1,3.9,0.2,5.9c0,0.3-0.2,0.5-0.5,0.5c-0.3,0-0.6,0-0.9,0c-12.7,0-25.4,0-38,0
		c0-1,0.8-1.1,1.5-1c9.7,1.5,19.4,0.5,29.1,0.8c2.7,0.1,5.3,0,8-0.5c0.7-0.1,0.8-0.4,0.8-1C72.9,217.8,72.9,216.2,72.9,214.7z"/>
	<path class="st3" d="M68.4,187.9c0,1.6,0.1,3.2,0.1,4.8c0,4.2,0,8.3,0,12.5c0,0.3-0.1,0.5,0.2,0.7c0,0.5,0,1.1,0,1.6
		c0,0.1,0,0.2,0,0.3c0.3,1.4-0.8,2.4-1.3,3.5c-0.7,0.2-1.4,0.3-2.1,0.5c-0.1-0.6-0.6-0.5-1-0.5c-1,0-2,0-3,0c-3.1,0-6.2,0-9.3,0
		c-3.4,0-6.9,0-10.3,0c-1.2,0-1.7-0.8-2-1.8c-0.2-1.4-0.1-2.8-0.1-4.1c4.1,0,8.2,0,12.3-0.1c1.7,0,2.2-0.5,2.2-2.2
		c0-1.1,0-2.1,0.1-3.2c1.8,0,3.6,0,5.4,0c0-0.1,0-0.2,0-0.3c-1.8,0-3.6,0-5.4,0c-0.2-3.1-0.3-3.1-3.3-3.1c-3.7,0-7.5,0-11.2,0
		c0-2.7,0-5.5,0-8.2c0-4.1,0-8.1,0-12.2c0.8-1.7,2.1-2.2,3.9-2.2c4.1,0.1,8.3,0,12.4,0c0.5,0,1.1,0,1.5,0.3c0,1.6,0,3.2,0,4.8
		c-0.5,1.5-0.1,3.1-0.2,4.7c0.5,1.9,1.7,2.8,3.8,3C63.3,186.9,65.8,187.5,68.4,187.9z M58.2,186.2c0,0,0-0.1,0-0.1
		c-3.2,0-6.5,0-9.7,0c0,0,0,0.1,0,0.1C51.7,186.2,54.9,186.2,58.2,186.2z M57.3,190.8c0,0,0-0.1,0.1-0.1c-2.8,0-5.6,0-8.4,0
		c0,0,0,0.1,0,0.1C51.8,190.8,54.5,190.8,57.3,190.8z M46.6,181.6c0,0,0,0.1,0.1,0.1c2.5,0,5,0,7.5,0c0,0,0-0.1,0-0.1
		C51.6,181.6,49.1,181.6,46.6,181.6z M59.7,195.3c0,0,0-0.1,0-0.1c-1.6,0-3.1,0-4.7,0c0,0,0,0.1,0,0.1
		C56.6,195.3,58.1,195.3,59.7,195.3z M46.8,195.1c0,0,0,0.1,0,0.1c1.6,0,3.1,0,4.7,0c-1.2-0.2-2.3-0.2-3.5-0.2
		C47.6,195.1,47.2,195.1,46.8,195.1z"/>
	<path class="st6" d="M67.3,211.2c0.6-1.1,1.6-2,1.3-3.5c1.1,0,2.1,0,3.2,0c0.7,0.9,1.2,1.7,1.1,2.9c0,1.3-0.4,1.8-1.7,1.6
		c-1.3,0-2.7,0-4,0C67.3,211.9,67.3,211.6,67.3,211.2z"/>
	<path class="st3" d="M65.5,98.7c-3.8,0-7.7,0-11.5,0c0-0.1,0-0.2,0-0.3c3.8,0,7.7,0,11.5,0C65.5,98.5,65.5,98.6,65.5,98.7z"/>
	<path class="st114" d="M65.7,82.8c-3.9,0-7.7,0-11.6,0c0,0,0-0.1,0-0.1c3.9,0,7.7,0,11.6,0C65.7,82.8,65.7,82.8,65.7,82.8z"/>
	<path class="st115" d="M53.8,100.9c0-0.1,0-0.2,0-0.3c4,0,7.9,0,11.9,0c0,0.1,0,0.2,0,0.3C61.7,100.9,57.8,100.9,53.8,100.9z"/>
	<path class="st115" d="M65.5,84.7c-3.8,0-7.6,0-11.3,0c0,0,0-0.1,0-0.1c3.8,0,7.6,0,11.3,0C65.5,84.6,65.5,84.7,65.5,84.7z"/>
	<path class="st116" d="M192.1,157c1.3,0,2.3,0.9,2.3,2c0,1.3-1.3,2.2-3.1,2.2c-0.6,0-1.4-2-1.2-3.4
		C190.2,156.7,191.5,157.4,192.1,157z M192,157.9c-0.4,0.1-1.1-0.1-0.8,0.7c0.2,0.6-0.2,1.6,0.8,1.7c0.7,0,1.4-0.4,1.3-1.3
		C193.3,158.2,192.8,157.8,192,157.9z"/>
	<path class="st117" d="M196.8,160.1c-1.2,0-2.1-0.9-2.1-2c0-1.2,1-2.1,2.4-2.1c1.2,0,2.1,1,2.1,2.1
		C199.1,159.3,198.1,160.1,196.8,160.1z M196.9,156.9c-0.8,0.1-1.2,0.4-1.2,1.3c0,0.7,0.4,1.2,1.1,1.2c0.8,0,1.3-0.4,1.3-1.2
		C198.1,157.3,197.7,156.9,196.9,156.9z"/>
	<path class="st118" d="M201.9,155.9c-0.6-0.1-1.1,0.1-1.4,0.7c-0.2,0.5-0.2,1,0.2,1.4c0.5,0.4,1,0.5,1.6,0.2c0.3-0.2,0.7-0.6,1,0
		c0.2,0.4-0.3,0.7-0.7,0.8c-0.9,0.4-1.8,0.4-2.6-0.3c-0.7-0.7-0.9-1.5-0.4-2.4c0.5-0.9,1.3-1.3,2.3-1.2c0.3,0,0.9,0,0.8,0.6
		C202.7,156.2,202.3,156.1,201.9,155.9z"/>
	<path class="st7" d="M103.2,82.6c0.1-0.7-0.4-0.5-0.8-0.5c-1.3,0-2.7,0-4-0.1c0-1,0-2,0-3c0-0.8,0.2-1.2,1.1-1.2
		c2.5,0.1,4.9,0.1,7.4,0c0.9,0,1.1,0.4,1.1,1.2c0,1.2-0.3,2.4,0.2,3.6c0,1.5,0,3,0,4.5c-1.3-1-2.1-2.5-3.6-3.2
		C104.1,83.6,103.9,82.9,103.2,82.6z"/>
	<path class="st119" d="M104.6,84c1.5,0.7,2.3,2.3,3.6,3.2c0.9,1,1.9,2,2.8,3c0.3,0.3,0.8,0.5,0.6,1C109.2,88.9,106.8,86.6,104.6,84
		z"/>
	<path class="st56" d="M117.7,85c-2.4,0-4.9,0-7.3,0c0,0,0-0.1,0-0.1c2.5,0,4.9,0,7.4,0C117.7,84.9,117.7,84.9,117.7,85z"/>
	<path class="st6" d="M72.4,84c0.2,1.6,1.1,3.2,0.8,4.9c-0.1,0.5,0.1,1-0.2,1.4c-1.1,1.5-0.6,3-0.2,4.5c0.2,0.9,0.1,1.8-0.2,2.6
		c-0.2,0.7-0.5,1.3-0.2,2.1c-0.4-0.6-0.8-0.5-1.2-0.2c-0.6,0.5-1.4,0.7-2.2,0.6c-1.2-0.1-2.1-1-2-1.9c0.1-0.9,1.2-1.7,2.3-1.6
		c0.5,0.1,1,0.2,1.6,0.6c-0.9,0-1.7-0.6-2.5-0.2c-0.5,0.3-0.9,0.5-0.9,1.2c0,0.6,0.3,1,0.8,1.3c1.6,0.9,3.9-0.6,4.2-2.9
		c0.1-0.6,0.1-1.2,0-1.9c-0.1-1.6-0.5-1.8-2-1.5c-0.7,0.2-1.5,0.2-2.2-0.1c-0.8-0.3-1.5-0.9-1.2-1.9c0.2-1,1.3-1.5,2.3-1.2
		c0.8,0.2,1.5,0.6,2,1.2c0.3,0.4,0.6,0.5,0.9,0c1.5-2.4,0.7-6.8-2.2-7.8c-1-0.3-1.8-0.1-2.4,0.6c-0.5,0.5-0.2,1.1,0.2,1.6
		c0.7,0.7,1.5,0.7,2.4,0.3c0.3-0.1,0.5-0.5,1-0.4c-0.9,1.1-2,1.1-3.1,0.7c-0.8-0.2-1.1-0.9-1-1.8c0.1-1.3,1.7-1.9,3.4-1.3
		C71.1,83.4,71.5,84.3,72.4,84L72.4,84z M68.9,90.3c-0.8,0-1.4,0.1-1.5,1c-0.1,0.9,0.8,1.6,2,1.6c0.8,0,1.6-0.2,1.9-0.9
		C71.5,91.5,69.8,90.4,68.9,90.3z"/>
	<path class="st120" d="M72.4,84c-0.1-0.5,0.2-0.8,0.3-1.3c0.2-0.6,0.3-1.2,0.4-1.8c0.1-0.6-0.4-1.1-0.2-1.7
		C73.8,80.7,73.5,82.6,72.4,84C72.4,84,72.4,84,72.4,84z"/>
	<path class="st121" d="M57.2,147.5c0-0.9-0.3-1.9,1.2-1.8c1.4,0.1,2.2,0.6,2.2,1.7c0,1.1-0.9,1.7-2.3,1.8
		C56.7,149.3,57.4,148.1,57.2,147.5z M58.1,147.3c0.1,0.4-0.3,1.1,0.6,1.1c0.7,0,1.1-0.4,1.1-1c0-0.7-0.5-1-1.1-1
		C58,146.3,58.1,146.8,58.1,147.3z"/>
	<path class="st122" d="M53.7,147.1c0-0.4-0.4-1,0.2-1.3c0.6-0.3,1.4-0.2,2.1,0c0.5,0.2,0.7,0.7,0.7,1.2c-0.1,0.5-0.4,0.9-0.9,1
		c-0.3,0.1-0.7,0.1-1,0.2c-0.3,0.2-0.2,1.1-0.8,0.7c-0.5-0.2-0.2-0.9-0.2-1.4C53.7,147.5,53.7,147.4,53.7,147.1z M55.1,146.4
		c-0.4,0-0.5,0.2-0.5,0.6c0,0.3,0.1,0.6,0.5,0.6c0.4,0,0.7-0.2,0.7-0.6C55.7,146.5,55.4,146.4,55.1,146.4z"/>
	<path class="st123" d="M63.8,145.9c-0.1,0.2-0.1,0.2-0.1,0.2c-0.4,0.5-1.5-0.2-1.6,0.5c-0.2,1,1.2,0.2,1.5,1
		c-0.6,0.3-1.8,0-1.7,1.3c0,0.2-0.6,0.3-0.6-0.2c-0.1-0.9,0-1.8,0-2.6c0-0.3,0.3-0.4,0.6-0.4C62.5,145.8,63.1,145.6,63.8,145.9z"/>
	<path class="st124" d="M87.7,107.6c0.3,0,0.6,0,0.9,0c-0.5,0.6-0.3,1.3-0.3,1.9c0,1.7,0.7,2,2.6,1c-2.3,0.5-1.8-1-1.8-2.1
		c0-0.3-0.1-0.6-0.3-0.8c0.6,0,0.6,0.4,0.6,0.8c-0.3,1.4,0.3,1.9,1.7,1.8c-0.1,0.3,0,0.5,0.2,0.8c-1.4,0.4-2.8,0.5-4.3,0
		c0.6,0.1,1.1,0,0.5-0.7c-0.6-0.7-0.6-1.3,0-1.9C87.7,108.1,87.8,107.9,87.7,107.6z"/>
	<path class="st125" d="M87.7,107.6c0.1,0.3,0,0.5-0.2,0.7c-0.6,0.6-0.7,1.2,0,1.9c0.6,0.7,0.1,0.8-0.5,0.7
		c-0.2-0.3-0.4-0.6-0.5-0.8c-0.3-0.1-0.4,0.1-0.5,0.2c-0.2,0.3-0.5,0.8-0.9,0.6c-0.6-0.4,0.1-0.7,0.3-0.9c0.3-0.5,0.4-0.9,0-1.4
		c-0.2-0.2-0.7-0.6-0.3-0.9c0.4-0.4,0.7,0.1,0.9,0.4c0.1,0.1,0.2,0.3,0.3,0.4C86.8,108.3,87,107.6,87.7,107.6z"/>
	<path class="st126" d="M91.2,111c-0.2-0.2-0.4-0.4-0.2-0.8c0.1,0,0.3,0,0.4,0c0.4,0.1,1.1,0.5,1.3-0.1c0.2-0.5-0.6-0.4-1-0.6
		c-0.4-0.2-0.8-0.4-0.7-1c0-0.5,0.4-0.8,0.8-0.9c0.6-0.2,1.2-0.1,1.7,0.3c-0.4,0.8-1.2-0.1-1.6,0.6c0.2,0.4,0.6,0.4,1,0.5
		c0.5,0.1,0.9,0.4,0.8,1c-0.1,0.7-0.5,0.9-1.1,0.9C92.1,111.1,91.7,111,91.2,111z"/>
	<path class="st127" d="M88.8,107.6c0.3,0.2,0.3,0.5,0.3,0.8c0,1.1-0.5,2.5,1.8,2.1c-1.9,1.1-2.7,0.7-2.6-1c0-0.6-0.2-1.3,0.3-1.9
		C88.7,107.6,88.7,107.6,88.8,107.6z"/>
	<path class="st128" d="M199.5,106.8c0-0.8-0.3-1.7,1.2-1.6c1.2,0.1,2,0.6,2,1.7c0,1-0.7,1.6-2,1.6
		C199.5,108.4,199.5,108.4,199.5,106.8z M200.2,106.7c0,0.6-0.1,1.1,0.6,1.1c0.6,0,1-0.4,1-1c0-0.5-0.3-0.8-0.8-0.8
		C200.3,105.9,200.2,106.3,200.2,106.7z"/>
	<path class="st128" d="M196,106.7c0-1.5,0.6-2,1.9-1.5c0.5,0.2,1.1,0.6,1,1.2c0,0.6-0.5,0.9-1,1.1c-0.2,0-0.5,0-0.6,0.1
		C196,108.1,196,108.1,196,106.7z M198,106.5c0-0.3-0.2-0.5-0.5-0.5c-0.3-0.1-0.6,0-0.7,0.4c0,0.3,0,0.6,0.3,0.6
		C197.5,107,197.9,106.9,198,106.5z"/>
	<path class="st129" d="M205.5,107.1c-0.6,0.4-1.6-0.1-1.6,1c0,0.1-0.3,0.2-0.4,0.1c-0.1-0.1-0.2-0.3-0.2-0.4c0-0.7-0.2-1.5,0-2.1
		c0.4-1.2,1.4-0.4,2.2-0.5c-0.3,0.8-1.6,0-1.4,1C204.1,107.1,205.1,106.5,205.5,107.1z"/>
	<path class="st130" d="M225.4,205.2c0.2-0.5-0.6-1.7,1-1.7c1.4,0.1,2.3,0.7,2.4,1.7c0,1.1-0.8,1.6-2.3,1.8
		C225,207.2,225.4,206.2,225.4,205.2z M226.2,205.4c0.1,0.4-0.2,1,0.6,1c0.7,0,1.1-0.4,1.1-1c0-0.7-0.4-0.9-1-1
		C226.1,204.3,226.2,204.9,226.2,205.4z"/>
	<path class="st131" d="M230.9,207.1c-1.1,0-1.8-0.8-1.8-1.8c0.1-1.1,0.8-1.6,1.9-1.6c1,0,1.9,0.8,1.9,1.8
		C232.8,206.4,232,207.1,230.9,207.1z M232.1,205.4c-0.1-0.6-0.3-1-1-1c-0.7,0-1.1,0.3-1.1,1c0,0.6,0.3,1,0.9,1.1
		C231.6,206.5,231.9,206,232.1,205.4z"/>
	<path class="st125" d="M238.3,206.1c-0.5,0.4-0.6,1.2-1.5,0.8c-0.1-0.4,0.2-0.6,0.4-0.8c0.4-0.5,0.5-1,0-1.5
		c-0.2-0.2-0.7-0.5-0.3-0.9c0.3-0.3,0.6,0.1,0.8,0.4c0.1,0.2,0.2,0.4,0.4,0.7c0.2-0.3,0.3-0.4,0.4-0.5c0.2-0.3,0.5-0.8,0.9-0.6
		c0.5,0.4-0.1,0.7-0.3,0.9c-1,1,0.5,1.5,0.5,2.3C238.9,207.3,238.8,206.4,238.3,206.1z"/>
	<path class="st132" d="M235.2,207.1c-1,0-1.6-0.3-1.9-1.1c-0.3-0.7-0.1-1.3,0.5-1.8c0.6-0.6,1.3-0.7,2.1-0.4
		c0.2,0.1,0.5,0.2,0.5,0.5c-0.1,0.3-0.3,0.3-0.6,0.2c-0.5-0.2-1-0.2-1.4,0.3c-0.2,0.4-0.2,0.8,0,1.1c0.3,0.5,0.8,0.6,1.4,0.4
		c0.3-0.1,0.6-0.2,0.6,0.2c0.1,0.3-0.2,0.5-0.5,0.5C235.6,207,235.3,207.1,235.2,207.1z"/>
	<path class="st128" d="M236.9,142.4c0.1-0.7-0.5-1.8,1.1-1.7c1.2,0.1,2.3,0.8,2.3,1.8c0,0.9-1.1,1.7-2.3,1.7
		C236.9,144.1,236.9,144.1,236.9,142.4z M237.7,142.6c-0.1,0.5,0.1,0.8,0.8,0.8c0.6,0,0.8-0.4,0.8-1c0-0.6-0.3-0.9-0.9-0.9
		C237.6,141.5,237.6,142,237.7,142.6z"/>
	<path class="st128" d="M242.4,144.2c-1.1,0-1.9-0.6-1.9-1.6c0-1.1,0.7-1.8,1.8-1.9c0.9,0,1.9,0.9,1.9,1.7
		C244.3,143.2,243.3,144.1,242.4,144.2z M242.3,141.5c-0.7,0-0.9,0.3-0.9,1c0,0.7,0.4,0.9,1,0.9c0.5,0,1-0.3,1-0.8
		C243.4,142,243,141.5,242.3,141.5z"/>
	<path class="st128" d="M251.1,144c-0.3,0.2-0.6,0.2-0.7,0.1c-0.5-0.7-1-1.2-1.6-0.1c-0.1,0.2-0.4,0.2-0.6,0.1
		c-0.2-0.2,0-0.4,0.1-0.6c0.6-0.7,0.9-1.4,0-2.1c-0.2-0.1-0.3-0.4-0.1-0.5c0.2-0.1,0.5-0.1,0.6,0.1c0.5,0.6,0.9,1,1.4,0
		c0.1-0.2,0.4-0.3,0.6-0.1c0.2,0.2,0.1,0.3,0,0.5C249.7,142.3,250.5,143.1,251.1,144z"/>
	<path class="st133" d="M247.6,143.3c-0.3,1-1.1,0.9-1.7,0.8c-0.8-0.2-1.3-0.7-1.3-1.6c0-0.8,0.4-1.5,1.2-1.7
		c0.7-0.2,1.5-0.3,1.9,0.7c-0.9,0.2-2.2-0.6-2.2,0.9C245.4,143.9,246.8,143.1,247.6,143.3z"/>
	<path class="st134" d="M39.5,196.4c3.7,0,7.5,0,11.2,0c3.1,0,3.1,0.1,3.3,3.1c0,0.1,0,0.2,0,0.3c0,1.1,0,2.1-0.1,3.2
		c0,1.7-0.5,2.2-2.2,2.2c-4.1,0-8.2,0-12.3,0.1c-0.1,0-0.2,0-0.3,0c-1.1,0-2.1,0-3.2-0.1c-1.4,0-1.8-0.5-1.9-1.8c0-1.7,0-3.4,0-5.2
		c0-1.3,0.6-1.8,1.9-1.8c1.1,0,2.1,0,3.2,0C39.3,196.4,39.4,196.4,39.5,196.4z M45.3,199.9c-0.8-0.7-1.8-0.8-2.6-0.5
		c-0.7,0.3-0.2,1.3-0.3,1.9c0,0,0,0.1,0,0.1c0,0.4-0.2,0.9,0.2,1.1c0.7,0.3,0.5-0.4,0.7-0.6c0.1-0.1,0.4-0.2,0.6-0.2
		C45.2,201.7,45.5,200.9,45.3,199.9c1.5-0.2,1.2,0.9,1.2,1.8c0,0.4-0.2,0.9,0.4,0.9c0.5,0,0.3-0.5,0.4-0.8c0-0.9-0.2-1.9,1.2-2.3
		C47.3,199.5,46.2,198.7,45.3,199.9z M39,200.9c0,0.2,0,0.4,0,0.5c0.1,0.4-0.2,1,0.3,1.2c0.6,0.2,0.4-0.5,0.7-0.7
		c0.2-0.3,0.6-0.1,0.9-0.2c0.7-0.1,1.1-0.5,1.1-1.2c0-0.7-0.5-1.1-1.2-1.2C39.2,199,39,199.2,39,200.9z"/>
	<path class="st135" d="M67.3,212.3c1.3,0,2.7,0,4,0c0.2,0.1,0.3,0.3,0.5,0.4c-0.2,0.3-0.5,0.1-0.7,0.1c-13.3,0-26.6,0-39.9,0
		c-0.5,0-1,0.2-1.4-0.3c11.7-0.6,23.3-0.1,35-0.3C65.8,212.3,66.5,212.3,67.3,212.3z"/>
	<path class="st136" d="M51.9,211.3c3.1,0,6.2,0,9.3,0c0,0.2,0,0.3,0,0.5c-6.2,0-12.3,0-18.5,0c-0.4,0-0.8,0.1-1.1-0.3
		c3.1,0,6.1,0,9.2,0C51.2,211.5,51.6,211.6,51.9,211.3z"/>
	<path class="st137" d="M51.9,211.3c-0.3,0.4-0.7,0.2-1.1,0.2c-3.1,0-6.1,0-9.2,0c0-0.1,0-0.2,0-0.3C45,211.2,48.5,211.3,51.9,211.3
		z"/>
	<path class="st138" d="M61.2,211.7c0-0.2,0-0.3,0-0.5c1,0,2,0,3,0c0.4,0,0.9-0.1,1,0.5c-0.1,0-0.2,0-0.3,0
		C63.7,211.8,62.5,211.8,61.2,211.7z"/>
	<path class="st114" d="M39.2,207.8c-2.5,0-4.9,0-7.4,0c0-0.1,0-0.2,0-0.3c2.5,0,4.9,0,7.4,0C39.2,207.6,39.2,207.7,39.2,207.8z"/>
	<path class="st6" d="M65,211.8c0.1,0,0.2,0,0.3,0c0.7-0.2,1.4-0.3,2.1-0.5c0,0.4,0,0.7,0,1.1c-0.8,0-1.6,0-2.4,0
		C65,212.1,65,212,65,211.8z"/>
	<path class="st139" d="M39.2,207.8c0-0.1,0-0.2,0-0.3c0-0.8,0-1.5,0-2.3c0.1,0,0.2,0,0.3,0c0,1.4-0.1,2.8,0.1,4.1
		C38.9,209,39.4,208.3,39.2,207.8z"/>
	<path class="st140" d="M82.4,131.5c-1.9,0.3-3.8,0.5-5.8,0C78.6,131.4,80.5,131.5,82.4,131.5z"/>
	<path class="st141" d="M252.5,189.8c-1.4-0.1-2.8,0.3-4.2-0.3C249.7,189.6,251.1,189.2,252.5,189.8z"/>
	<path class="st142" d="M68.4,187.9c-2.5-0.4-5-1-7.6-1.3c-2-0.2-3.2-1.1-3.8-3c0.3,0,0.2-0.3,0.3-0.5c0.4,0.8,0.6,1.9,1.8,2
		c0.2,0.6,0.7,0.4,1.1,0.4c1.8,0,3.7,0,5.5,0c0.8-0.2,1.7,0.3,2.4-0.3C68.6,186.1,68.4,187,68.4,187.9z"/>
	<path class="st143" d="M65.7,185.5c-1.8,0-3.7,0-5.5,0c-0.4,0-0.9,0.2-1.1-0.4c1.8,0,3.6,0.1,5.4,0.2
		C64.9,185.3,65.4,185,65.7,185.5z"/>
	<path class="st144" d="M57.3,183.1c-0.1,0.2,0,0.5-0.3,0.5c0.1-1.6-0.3-3.1,0.2-4.7C57.3,180.3,57.3,181.7,57.3,183.1z"/>
	<path class="st145" d="M111.9,226.9c0,0.1,0.1,0.2,0.1,0.2c-2.3,0-4.6,0-6.9,0c-0.3,0-0.6,0-0.9-0.2
		C106.8,226.9,109.3,226.9,111.9,226.9z"/>
	<path class="st146" d="M224.7,144.4c0.4,0,0.7,0,1.1,0c0.8,0,1.5,0.1,2,0.9c0.4,0.7,0.1,1.4-0.4,2.1c-2,1.2-4,2.5-5.5,4.3
		c-0.7,0.9-1.2,0.2-1.8-0.3c-0.6-0.5-1.1-1-0.4-1.8c0.6-0.7,1.2-1.4,2-1.9c1.2-0.8,1.9-1.9,2.8-3
		C224.5,144.6,224.6,144.5,224.7,144.4z"/>
	<path class="st147" d="M227.6,147.3c0.2-0.2,0.3-0.3,0.5-0.5c0.3,0.4,0.7,0.7,0.9,1.1c0.5,0.9,0.8,1.9-0.2,2.8
		c-1.7,1.4-3.5,2.7-5.6,3.4c-0.7,0.2-1.1,0-1.4-0.5c-0.3-0.5-0.4-1,0.1-1.5c1.2-1.2,2.3-2.4,3.9-3.2
		C226.5,148.5,227.2,148.1,227.6,147.3z"/>
	<path class="st4" d="M224.7,144.4c-0.1,0.1-0.2,0.2-0.3,0.3c-1.5,0.6-2.3,2-3.4,3c-1.4,1.3-1.3,1.3-2.7,0.2
		c-0.7-2.3,1.2-3.1,2.4-4.3c0.5-0.5,1.2-1,1.7-1.6c0.5-0.7,1.2-1,1.9-0.5c0.7,0.4,1,1.2,0.8,2.1C225,143.8,224.8,144.1,224.7,144.4z
		"/>
	<path class="st7" d="M121.2,181.8c-1,1.5-0.6,3.2-0.4,4.8c0.2,1.8,0.2,3.6,0.4,5.4c0.5,5.1,0.8,10.1,1.1,15.2
		c0,0.2,0.2,0.3,0.2,0.4c-1.1,0.7-2,1.8-3.4,2.1c-2.1-8-4.1-16-6.2-24c-0.7-2.6,0.4-3.9,3-3.9C117.7,181.7,119.4,181.7,121.2,181.8z
		"/>
	<path class="st148" d="M147.8,225.3c-0.1,0.1-0.2,0.2-0.3,0.2c-5.1,1-10.1,0.9-15.1-0.7c1.8,0.1,3.6,0.6,5.5,0.8
		c2.2,0.2,4.4,0.2,6.6,0C145.5,225.5,146.6,225.4,147.8,225.3z"/>
	<path class="st149" d="M133.7,222.5c5.1,1.1,10.2,1.4,15.3,0.5C143.8,224,138.7,224.1,133.7,222.5z"/>
	<path class="st150" d="M235.2,194.9c4.7,0,9.5,0,14.2,0c0,0,0,0.1,0,0.1c-4.7,0-9.5,0-14.2,0C235.2,195,235.2,194.9,235.2,194.9z"
		/>
	<path class="st151" d="M236.1,190.5c1.5-0.5,3-0.1,4.5-0.2c0,0.1,0,0.1,0,0.2C239.1,190.5,237.6,190.5,236.1,190.5z"/>
	<path class="st152" d="M244.5,190.3c1.1,0,2.1-0.1,3.2-0.1c0.4,0,0.7,0.1,1.1,0.1c0,0,0,0.1,0,0.1c-1.4,0-2.9,0-4.3,0
		C244.6,190.5,244.6,190.4,244.5,190.3z"/>
	<path class="st153" d="M244.5,190.3c0,0.1,0,0.1,0,0.2c-1.3,0-2.6,0-4,0c0-0.1,0-0.1,0-0.2C241.9,190.3,243.2,190.3,244.5,190.3z"
		/>
	<path class="st154" d="M111.9,94c-2.2,0-4.5,0-6.7,0c0-0.1,0-0.2,0-0.3c1.3,0,2.5,0,3.8,0C109.9,94,111,93.5,111.9,94z"/>
	<path class="st155" d="M58.2,186.2c-3.2,0-6.5,0-9.7,0c0,0,0-0.1,0-0.1c3.2,0,6.5,0,9.7,0C58.2,186.2,58.2,186.2,58.2,186.2z"/>
	<path class="st156" d="M57.3,190.8c-2.8,0-5.5,0-8.3,0c0,0,0-0.1,0-0.1c2.8,0,5.6,0,8.4,0C57.3,190.7,57.3,190.7,57.3,190.8z"/>
	<path class="st157" d="M46.6,181.6c2.5,0,5,0,7.6,0c0,0,0,0.1,0,0.1c-2.5,0-5,0-7.5,0C46.6,181.7,46.6,181.6,46.6,181.6z"/>
	<path class="st158" d="M54.1,199.9c0-0.1,0-0.2,0-0.3c1.8,0,3.6,0,5.4,0c0,0.1,0,0.2,0,0.3C57.6,199.9,55.9,199.9,54.1,199.9z"/>
	<path class="st159" d="M59.7,195.3c-1.5,0-3.1,0-4.6,0c0,0,0-0.1,0-0.1c1.6,0,3.1,0,4.7,0C59.7,195.2,59.7,195.2,59.7,195.3z"/>
	<path class="st160" d="M46.8,195.1c0.4,0,0.8-0.1,1.2-0.1c1.2,0,2.3,0,3.5,0.2c-1.6,0-3.1,0-4.7,0
		C46.8,195.2,46.8,195.2,46.8,195.1z"/>
	<path class="st161" d="M192,157.9c0.8,0,1.3,0.3,1.4,1.1c0,0.9-0.6,1.3-1.3,1.3c-1-0.1-0.6-1-0.8-1.7
		C190.9,157.8,191.6,158,192,157.9z"/>
	<path class="st162" d="M196.9,156.9c0.8,0.1,1.2,0.5,1.2,1.3c0,0.8-0.5,1.2-1.3,1.2c-0.7,0-1.1-0.5-1.1-1.2
		C195.7,157.3,196.2,156.9,196.9,156.9z"/>
	<path class="st7" d="M68.9,90.3c0.9,0,2.6,1.2,2.4,1.7c-0.3,0.7-1.1,0.9-1.9,0.9c-1.2,0-2.1-0.7-2-1.6
		C67.5,90.5,68.1,90.3,68.9,90.3z"/>
	<path class="st163" d="M58.1,147.3c0-0.5-0.1-1,0.6-0.9c0.6,0,1.1,0.3,1.1,1c0,0.7-0.4,1-1.1,1C57.8,148.4,58.2,147.7,58.1,147.3z"
		/>
	<path class="st164" d="M55.1,146.4c0.3,0.1,0.6,0.2,0.6,0.5c0,0.4-0.3,0.6-0.7,0.6c-0.4,0-0.5-0.2-0.5-0.6
		C54.6,146.6,54.7,146.4,55.1,146.4z"/>
	<path class="st7" d="M200.2,106.7c0-0.4,0.1-0.8,0.8-0.7c0.5,0,0.8,0.3,0.8,0.8c0,0.6-0.4,1-1,1
		C200.2,107.8,200.3,107.3,200.2,106.7z"/>
	<path class="st165" d="M198,106.5c-0.2,0.4-0.5,0.5-0.8,0.5c-0.3,0-0.4-0.3-0.3-0.6c0.1-0.4,0.4-0.4,0.7-0.4
		C197.8,106.1,198,106.2,198,106.5z"/>
	<path class="st166" d="M226.2,205.4c0-0.5-0.1-1.1,0.7-1c0.6,0.1,1,0.3,1,1c0,0.7-0.4,1-1.1,1C226,206.4,226.3,205.8,226.2,205.4z"
		/>
	<path class="st167" d="M232.1,205.4c-0.1,0.6-0.5,1.1-1.1,1c-0.6,0-0.9-0.5-0.9-1.1c0-0.7,0.4-1,1.1-1
		C231.7,204.4,232,204.8,232.1,205.4z"/>
	<path class="st7" d="M237.7,142.6c0-0.6,0-1.1,0.7-1.1c0.6,0,0.9,0.3,0.9,0.9c0,0.6-0.2,0.9-0.8,1
		C237.8,143.4,237.6,143.1,237.7,142.6z"/>
	<path class="st68" d="M242.3,141.5c0.7,0,1.1,0.5,1.1,1c0,0.5-0.5,0.8-1,0.8c-0.6,0-1-0.2-1-0.9
		C241.4,141.8,241.7,141.5,242.3,141.5z"/>
	<path class="st168" d="M45.3,199.8c0.2,1.1-0.1,1.8-1.4,1.9c-0.2,0-0.5,0-0.6,0.2c-0.2,0.2,0,1-0.7,0.6c-0.4-0.2-0.2-0.7-0.2-1.1
		c0,0,0-0.1,0-0.1c0.1-0.7-0.4-1.6,0.3-1.9C43.5,199,44.6,199.1,45.3,199.8L45.3,199.8z M43.8,201.1c0.2-0.1,0.7-0.1,0.7-0.6
		c0-0.4-0.3-0.5-0.6-0.5c-0.4-0.1-0.6,0.1-0.6,0.5C43.2,200.8,43.3,201.1,43.8,201.1z"/>
	<path class="st169" d="M39,200.9c0-1.7,0.2-1.8,1.8-1.6c0.7,0.1,1.2,0.4,1.2,1.2c0,0.7-0.4,1.1-1.1,1.2c-0.3,0-0.6-0.1-0.9,0.2
		c-0.2,0.2,0,1-0.7,0.7c-0.5-0.2-0.2-0.8-0.3-1.2C38.9,201.2,39,201.1,39,200.9z M41.1,200.5c-0.1-0.4-0.4-0.6-0.8-0.6
		c-0.5,0-0.6,0.3-0.5,0.7c0,0.4,0.2,0.6,0.6,0.5C40.7,201.1,41,200.9,41.1,200.5z"/>
	<path class="st170" d="M45.3,199.9c0.9-1.2,2-0.3,3.1-0.4c-1.4,0.4-1.1,1.4-1.2,2.3c0,0.3,0.1,0.8-0.4,0.8c-0.6,0-0.4-0.6-0.4-0.9
		C46.5,200.8,46.9,199.7,45.3,199.9C45.3,199.8,45.3,199.9,45.3,199.9z"/>
	<path class="st171" d="M43.8,201.1c-0.5,0-0.6-0.3-0.6-0.6c0-0.4,0.2-0.6,0.6-0.5c0.3,0,0.6,0.1,0.6,0.5
		C44.5,201,44.1,201,43.8,201.1z"/>
	<path class="st172" d="M41.1,200.5c0,0.4-0.3,0.6-0.7,0.7c-0.4,0-0.6-0.1-0.6-0.5c0-0.4,0-0.7,0.5-0.7
		C40.7,199.9,41,200,41.1,200.5z"/>
</g>
</svg>
