<svg id="Group_2706" data-name="Group 2706" xmlns="http://www.w3.org/2000/svg" width="105.5" height="96" viewBox="0 0 105.5 96">
  <g id="Group_1080" data-name="Group 1080" transform="translate(40.677 30.686)">
    <g id="Group_1077" data-name="Group 1077" transform="translate(0 0.209)">
      <g id="Group_1076" data-name="Group 1076">
        <path id="Path_401" data-name="Path 401" d="M585.11,1462.006a.309.309,0,0,1-.045.076l-.15.215-.6.825-2.3,3.107-8.259,11.019-.072.1-.1-.069-7.194-5.091.19-.03-5.416,7.313-5.886,7.93-.073.1-.106-.062-8.84-5.178.152-.029-7.627,9.523-2.141,2.644-.57.69a1.984,1.984,0,0,1-.205.229,1.906,1.906,0,0,1,.176-.251l.542-.711,2.091-2.684,7.548-9.586.064-.08.09.052,8.858,5.147-.179.036,5.878-7.936,5.423-7.308.081-.108.109.078,7.178,5.113-.17.026,8.34-10.958,2.358-3.065.629-.8.165-.2C585.087,1462.025,585.108,1462,585.11,1462.006Z" transform="translate(-535.867 -1462.005)" fill="#1a2e35"/>
      </g>
    </g>
    <g id="Group_1079" data-name="Group 1079" transform="translate(41.674)">
      <g id="Group_1078" data-name="Group 1078">
        <path id="Path_402" data-name="Path 402" d="M648.214,1469.761a2.772,2.772,0,0,1,.005-.637c.032-.468.072-1.045.12-1.727.113-1.457.289-3.468.5-5.688l0-.036.189.147c-2.092.749-3.99,1.411-5.367,1.877l-1.636.538a.318.318,0,1,1-.037-.1l1.606-.622c1.361-.514,3.247-1.207,5.339-1.956l.21-.075-.021.222,0,.036c-.212,2.219-.419,4.228-.583,5.68-.083.679-.152,1.253-.209,1.719A2.762,2.762,0,0,1,648.214,1469.761Z" transform="translate(-641.414 -1461.477)" fill="#1a2e35"/>
      </g>
    </g>
  </g>
  <g id="Group_1153" data-name="Group 1153" transform="translate(0 30.354)">
    <g id="Group_1129" data-name="Group 1129" transform="translate(0 0)">
      <g id="Group_1128" data-name="Group 1128">
        <g id="Group_1082" data-name="Group 1082" transform="translate(12.998)">
          <g id="Group_1081" data-name="Group 1081">
            <path id="Path_403" data-name="Path 403" d="M515.24,1504.2c-.241-1.639-5.053-7.058-5.053-7.058s-4.18-10.426-4.9-13.324a44.619,44.619,0,0,0-1.971-5.377c-1.68-2.9-2.516-2.955-5.4-4.606l-5.587-2.509-.684-1.549a6.406,6.406,0,0,0-2.884-3.093l-14.028-7.337-4.338,7.792s-8.321,4-8.809,4.635c-1.71,2.217-.54,37.837-.54,37.837l-1.991,15.068s10.7.066,14.545.121l32.86.148-2-9.978,27.266,5.868s4.572-9.075,4.932-9.258S515.24,1504.2,515.24,1504.2Z" transform="translate(-459.055 -1459.343)" fill="#ff735d"/>
          </g>
        </g>
        <g id="Group_1084" data-name="Group 1084" transform="translate(27.414 9.639)">
          <g id="Group_1083" data-name="Group 1083">
            <path id="Path_404" data-name="Path 404" d="M498.307,1486.3c-.239-.242,2.694,6.775,4.63,14.4,1.208,4.752,1.462,12.475,1.462,16.725l.73,11.989v10.483l16.294-1.1-2.436-17.618s-1.986-11.365-2.542-15.687c-.509-3.958-2.929-19.818-2.929-19.818S505.129,1493.212,498.307,1486.3Z" transform="translate(-498.293 -1485.672)" fill="#fff"/>
          </g>
        </g>
        <g id="Group_1087" data-name="Group 1087" transform="translate(62.664 44.687)">
          <g id="Group_1086" data-name="Group 1086">
            <g id="Group_1085" data-name="Group 1085">
              <path id="Path_405" data-name="Path 405" d="M589.874,1581.288a1.032,1.032,0,0,1,0-.41,6.058,6.058,0,0,1,.214-1.1,7.354,7.354,0,0,1,5.02-5.03,6.083,6.083,0,0,1,1.094-.217,1.023,1.023,0,0,1,.41,0c.007.051-.571.112-1.441.415a7.827,7.827,0,0,0-4.885,4.895C589.984,1580.717,589.924,1581.295,589.874,1581.288Z" transform="translate(-589.857 -1574.52)" fill="#1a2e35"/>
            </g>
          </g>
        </g>
        <g id="Group_1090" data-name="Group 1090" transform="translate(63.531 44.337)">
          <g id="Group_1089" data-name="Group 1089">
            <g id="Group_1088" data-name="Group 1088">
              <path id="Path_406" data-name="Path 406" d="M592.024,1574.182a6.522,6.522,0,0,1,5.059-.417c-.017.089-1.15-.131-2.548-.009S592.055,1574.265,592.024,1574.182Z" transform="translate(-592.023 -1573.435)" fill="#1a2e35"/>
            </g>
          </g>
        </g>
        <g id="Group_1092" data-name="Group 1092" transform="translate(0 11.255)">
          <g id="Group_1091" data-name="Group 1091">
            <path id="Path_407" data-name="Path 407" d="M442.192,1490.484a15.91,15.91,0,0,0-9.161,11.059c-1.528,6.217-8.059,31.622-6.716,35.423s27.463,7.529,27.463,7.529l3.095-13.059-13.264-3.629s.168-12.1.336-17.107S442.192,1490.484,442.192,1490.484Z" transform="translate(-426.134 -1490.484)" fill="#ff735d"/>
          </g>
        </g>
        <g id="Group_1094" data-name="Group 1094" transform="translate(26.748 54.042)">
          <g id="Group_1093" data-name="Group 1093">
            <path id="Path_408" data-name="Path 408" d="M498.832,1598.848l4.649,1.218-2.854,10.341-4.589-.015Z" transform="translate(-496.037 -1598.848)" fill="#fff"/>
          </g>
        </g>
        <g id="Group_1103" data-name="Group 1103" transform="translate(30.829 56.142)">
          <g id="Group_1096" data-name="Group 1096">
            <g id="Group_1095" data-name="Group 1095">
              <path id="Path_409" data-name="Path 409" d="M537.857,1610.8l-4.189-4.449-8.617-2.18s-7.9,2.366-8.085,2.359-6.873-1.826-6.873-1.826l-2.433,8.926,3.065.045,22.813-.129s.717-.667.292-1.124,2.3.771,2.619.786.942.261,1.367-.252A1.814,1.814,0,0,0,537.857,1610.8Z" transform="translate(-507.66 -1604.168)" fill="#db8a76"/>
            </g>
          </g>
          <g id="Group_1099" data-name="Group 1099" transform="translate(16.794 5.822)">
            <g id="Group_1098" data-name="Group 1098">
              <g id="Group_1097" data-name="Group 1097">
                <path id="Path_410" data-name="Path 410" d="M559.569,1621.342a7.453,7.453,0,0,1-1.369-.389c-.835-.265-1.991-.62-3.284-.951s-2.478-.576-3.337-.748a7.366,7.366,0,0,1-1.387-.324,5.9,5.9,0,0,1,1.423.108,30.61,30.61,0,0,1,3.377.664,29.554,29.554,0,0,1,3.28,1.044A5.777,5.777,0,0,1,559.569,1621.342Z" transform="translate(-550.193 -1618.913)" fill="#9a5d53"/>
              </g>
            </g>
          </g>
          <g id="Group_1102" data-name="Group 1102" transform="translate(16.994 3.247)">
            <g id="Group_1101" data-name="Group 1101">
              <g id="Group_1100" data-name="Group 1100">
                <path id="Path_411" data-name="Path 411" d="M563.9,1615.774a18.073,18.073,0,0,1-1.911-.617c-1.173-.4-2.813-.88-4.636-1.389a24.326,24.326,0,0,0-4.672-1.154,11.475,11.475,0,0,0-1.984.078,1.554,1.554,0,0,1,.516-.174,5.662,5.662,0,0,1,1.481-.123,20.254,20.254,0,0,1,4.744,1.075c1.824.509,3.465,1.03,4.625,1.481.581.222,1.044.421,1.36.566A1.8,1.8,0,0,1,563.9,1615.774Z" transform="translate(-550.7 -1612.391)" fill="#9a5d53"/>
              </g>
            </g>
          </g>
        </g>
        <g id="Group_1106" data-name="Group 1106" transform="translate(0.06 48.642)">
          <g id="Group_1105" data-name="Group 1105">
            <g id="Group_1104" data-name="Group 1104">
              <path id="Path_412" data-name="Path 412" d="M426.309,1592.924c.022,0-.013.217.064.615a2.9,2.9,0,0,0,.91,1.483,12.563,12.563,0,0,0,6.052,2.432h.009l.01,0c1.257.412,2.687.74,4.218,1.087s3.178.694,4.916,1.047c3.475.711,7.321,1.458,11.4,2.221l-.178.115.924-3.791,2.116-8.652.1.179L445.06,1586.3l-.007,0-.007,0a11.642,11.642,0,0,0-5.142-.9,11.364,11.364,0,0,0-3.881.911,13.066,13.066,0,0,0-2.23,1.235l-.54.394a.115.115,0,1,1-.022-.028c.116-.1.285-.246.521-.423a12.005,12.005,0,0,1,2.217-1.3,11.293,11.293,0,0,1,3.923-.98,11.763,11.763,0,0,1,5.246.87l-.013,0,11.8,3.31.139.039-.034.141c-.67,2.753-1.376,5.656-2.105,8.654L454,1602l-.035.142-.143-.027c-4.076-.768-7.92-1.526-11.395-2.253-1.738-.362-3.381-.723-4.915-1.077s-2.956-.7-4.235-1.13l.019,0a12.431,12.431,0,0,1-6.1-2.556,2.887,2.887,0,0,1-.89-1.554A1.813,1.813,0,0,1,426.309,1592.924Z" transform="translate(-426.287 -1585.172)" fill="#1a2e35"/>
            </g>
          </g>
        </g>
        <g id="Group_1109" data-name="Group 1109" transform="translate(8.29 46.505)">
          <g id="Group_1108" data-name="Group 1108">
            <g id="Group_1107" data-name="Group 1107">
              <path id="Path_413" data-name="Path 413" d="M457.03,1582.293c-.036.039-.479-.367-1.276-.9a12.18,12.18,0,0,0-7.064-2.057c-.959.022-1.55.127-1.56.075a4.841,4.841,0,0,1,1.549-.294,10.812,10.812,0,0,1,7.2,2.1A4.86,4.86,0,0,1,457.03,1582.293Z" transform="translate(-447.13 -1579.086)" fill="#1a2e35"/>
            </g>
          </g>
        </g>
        <g id="Group_1112" data-name="Group 1112" transform="translate(15.582 28.562)">
          <g id="Group_1111" data-name="Group 1111">
            <g id="Group_1110" data-name="Group 1110">
              <path id="Path_414" data-name="Path 414" d="M470.675,1533.321a3.906,3.906,0,0,1,.009.8c-.011.512-.056,1.252-.126,2.165-.146,1.825-.419,4.343-.9,7.1a49.453,49.453,0,0,1-1.647,6.967c-.146.435-.3.823-.424,1.164l-.38.856a3.9,3.9,0,0,1-.407.687,3.944,3.944,0,0,1,.3-.737l.328-.868c.112-.344.246-.734.377-1.17a61.525,61.525,0,0,0,1.551-6.953c.475-2.745.781-5.251.982-7.066.09-.862.164-1.584.223-2.152A3.942,3.942,0,0,1,470.675,1533.321Z" transform="translate(-466.804 -1533.321)" fill="#1a2e35"/>
            </g>
          </g>
        </g>
        <g id="Group_1115" data-name="Group 1115" transform="translate(23.432 7.915)">
          <g id="Group_1114" data-name="Group 1114">
            <g id="Group_1113" data-name="Group 1113">
              <path id="Path_415" data-name="Path 415" d="M495.107,1494.543c-.019.006-.059-.155-.2-.419a2.521,2.521,0,0,0-.852-.932,2.135,2.135,0,0,0-1.845-.27,2.378,2.378,0,0,0-1.556,1.762l-.079.4-.173-.373a39.5,39.5,0,0,1-1.733-4.379,23.019,23.019,0,0,1-1.282-7.738c0-.505.071-.959.1-1.357.069-.4.119-.737.181-1.012a4.889,4.889,0,0,1,.251-.838,19.79,19.79,0,0,0-.323,3.211,24.562,24.562,0,0,0,1.353,7.643,44.007,44.007,0,0,0,1.7,4.359l-.253.031a2.6,2.6,0,0,1,1.752-1.923,2.288,2.288,0,0,1,2,.349,2.441,2.441,0,0,1,.839,1.027,1.709,1.709,0,0,1,.107.335C495.109,1494.5,495.114,1494.542,495.107,1494.543Z" transform="translate(-487.377 -1479.39)" fill="#1a2e35"/>
            </g>
          </g>
        </g>
        <g id="Group_1118" data-name="Group 1118" transform="translate(44.368 8.502)">
          <g id="Group_1117" data-name="Group 1117">
            <g id="Group_1116" data-name="Group 1116">
              <path id="Path_416" data-name="Path 416" d="M542.24,1496.719a4.228,4.228,0,0,1-.124-.675,7.444,7.444,0,0,1-.114-1.9,4.051,4.051,0,0,1,1.294-2.512,2.38,2.38,0,0,1,1.56-.592,2.078,2.078,0,0,1,1.643.776l-.237.143-.509-1.355c-1-2.672-1.892-5.1-2.525-6.857l-.735-2.09a4.558,4.558,0,0,1-.234-.78,4.46,4.46,0,0,1,.336.74l.818,2.057c.68,1.742,1.6,4.155,2.6,6.827l.507,1.356.327.876-.564-.732a1.828,1.828,0,0,0-1.43-.681,2.149,2.149,0,0,0-1.406.516,3.9,3.9,0,0,0-1.264,2.335,8.507,8.507,0,0,0,.031,1.862A3.055,3.055,0,0,1,542.24,1496.719Z" transform="translate(-541.978 -1480.876)" fill="#1a2e35"/>
            </g>
          </g>
        </g>
        <g id="Group_1121" data-name="Group 1121" transform="translate(53.966 24.712)">
          <g id="Group_1120" data-name="Group 1120">
            <g id="Group_1119" data-name="Group 1119">
              <path id="Path_417" data-name="Path 417" d="M567.055,1524.566c.077-.011,1.29,7.932,2.709,17.739s2.509,17.768,2.432,17.778-1.289-7.931-2.709-17.74S566.979,1524.576,567.055,1524.566Z" transform="translate(-567.051 -1524.566)" fill="#1a2e35"/>
            </g>
          </g>
        </g>
        <g id="Group_1124" data-name="Group 1124" transform="translate(24.862 18.626)" opacity="0.3">
          <g id="Group_1123" data-name="Group 1123">
            <g id="Group_1122" data-name="Group 1122">
              <path id="Path_418" data-name="Path 418" d="M491.093,1507.345a17.8,17.8,0,0,0,1.413,6.405,4.54,4.54,0,0,1,2.242-1.794,3.566,3.566,0,0,1,3.2,1.323,5.809,5.809,0,0,0-1.023-2.447,2.868,2.868,0,0,0-2.249-1.176,1.991,1.991,0,0,0-1.893,1.543l-1.626-3.819" transform="translate(-491.093 -1507.345)"/>
            </g>
          </g>
        </g>
        <g id="Group_1127" data-name="Group 1127" transform="translate(13.928 13.935)">
          <g id="Group_1126" data-name="Group 1126">
            <g id="Group_1125" data-name="Group 1125">
              <path id="Path_419" data-name="Path 419" d="M468.031,1503.477c-.055,0-.036-.594-.208-1.521a9.259,9.259,0,0,0-1.38-3.374,9.952,9.952,0,0,0-1.3-1.541,8.733,8.733,0,0,0-1.3-1.012c-.8-.5-1.358-.7-1.339-.748.006-.019.15.017.407.1a2.914,2.914,0,0,1,.457.178,4.94,4.94,0,0,1,.582.291,7.765,7.765,0,0,1,1.378.991,9.154,9.154,0,0,1,1.357,1.577,8.421,8.421,0,0,1,1.34,3.5,5.892,5.892,0,0,1,.055,1.139A1.136,1.136,0,0,1,468.031,1503.477Z" transform="translate(-462.508 -1495.276)" fill="#1a2e35"/>
            </g>
          </g>
        </g>
      </g>
    </g>
    <g id="Group_1132" data-name="Group 1132" transform="translate(54.702 28.534)" opacity="0.3">
      <g id="Group_1131" data-name="Group 1131">
        <g id="Group_1130" data-name="Group 1130">
          <path id="Path_420" data-name="Path 420" d="M568.3,1533.508l3.641,25.649.182.41A55.036,55.036,0,0,0,568.3,1533.508Z" transform="translate(-568.297 -1533.508)"/>
        </g>
      </g>
    </g>
    <g id="Group_1152" data-name="Group 1152" transform="translate(32.604 42.321)">
      <g id="Group_1134" data-name="Group 1134">
        <g id="Group_1133" data-name="Group 1133">
          <path id="Path_421" data-name="Path 421" d="M556.508,1569.826l-11.84,20.707-29.172.634-.073,1.321,28.246-.21.9-.031,29.828.059,6.028-10.4,7.7-11.036a1.089,1.089,0,0,0-.9-1.712l-29.774.114A1.089,1.089,0,0,0,556.508,1569.826Z" transform="translate(-515.423 -1569.164)" fill="#e1e1e1"/>
        </g>
      </g>
      <g id="Group_1146" data-name="Group 1146" transform="translate(55.329 12.748)">
        <g id="Group_1136" data-name="Group 1136">
          <g id="Group_1135" data-name="Group 1135">
            <path id="Path_422" data-name="Path 422" d="M665.221,1601.45s1.533,1.4,1.291,2.6-.161,2.081-1.291,2.161a1.718,1.718,0,0,1-1.533,1.775,1.892,1.892,0,0,1-1.833,2.194s-.668,2-2.04,1.517a12.131,12.131,0,0,1-2.259-1.049l-.4-.726s-2.021-.76-1.523-1.9c.3-.693,1.347-.873,1.347-.873a1.961,1.961,0,0,1,.13-1.774c.484-.651,2.062-.113,2.062-.113a2.222,2.222,0,0,1,.5-1.543c.537-.637,3.049,1.094,3.049,1.094l1.37-1.636Z" transform="translate(-655.552 -1601.45)" fill="#db8a76"/>
          </g>
        </g>
        <g id="Group_1139" data-name="Group 1139" transform="translate(1.425 5.692)">
          <g id="Group_1138" data-name="Group 1138">
            <g id="Group_1137" data-name="Group 1137">
              <path id="Path_423" data-name="Path 423" d="M664.04,1618.9a28.043,28.043,0,0,1-4.878-3.031,27.987,27.987,0,0,1,4.878,3.031Z" transform="translate(-659.161 -1615.866)" fill="#9a5d53"/>
            </g>
          </g>
        </g>
        <g id="Group_1142" data-name="Group 1142" transform="translate(3.616 3.804)">
          <g id="Group_1141" data-name="Group 1141">
            <g id="Group_1140" data-name="Group 1140">
              <path id="Path_424" data-name="Path 424" d="M669.231,1613.815a23.7,23.7,0,0,1-4.519-2.724,23.66,23.66,0,0,1,4.519,2.724Z" transform="translate(-664.711 -1611.085)" fill="#9a5d53"/>
            </g>
          </g>
        </g>
        <g id="Group_1145" data-name="Group 1145" transform="translate(5.639 2.419)">
          <g id="Group_1144" data-name="Group 1144">
            <g id="Group_1143" data-name="Group 1143">
              <path id="Path_425" data-name="Path 425" d="M669.834,1607.585a7.948,7.948,0,0,1,2.071,1.1,18.956,18.956,0,0,1,1.948,1.292,6.28,6.28,0,0,1-2.1-1.042A11.543,11.543,0,0,1,669.834,1607.585Z" transform="translate(-669.833 -1607.576)" fill="#9a5d53"/>
            </g>
          </g>
        </g>
      </g>
      <g id="Group_1149" data-name="Group 1149" transform="translate(30.44 0.632)">
        <g id="Group_1148" data-name="Group 1148">
          <g id="Group_1147" data-name="Group 1147">
            <path id="Path_426" data-name="Path 426" d="M634.78,1570.918a.511.511,0,0,1-.142.015l-.419.015-1.611.028-5.923.047-19.543.043h-1.423a1.172,1.172,0,0,0-1.084.512l-1.326,2.391-2.515,4.538-4.273,7.676-2.9,5.163-.8,1.4-.215.359a.54.54,0,0,1-.082.118.517.517,0,0,1,.056-.132l.19-.374.754-1.424,2.821-5.209,4.217-7.708,2.5-4.547,1.333-2.411a1.472,1.472,0,0,1,1.33-.645h1.423l19.543.043,5.923.047,1.611.027.419.015A.538.538,0,0,1,634.78,1570.918Z" transform="translate(-592.519 -1570.766)" fill="#1a2e35"/>
          </g>
        </g>
      </g>
      <g id="Group_1151" data-name="Group 1151" transform="translate(51.308 10.682)">
        <g id="Group_1150" data-name="Group 1150">
          <path id="Path_427" data-name="Path 427" d="M645.773,1596.73a1.258,1.258,0,1,0,1.88-.222A1.346,1.346,0,0,0,645.773,1596.73Z" transform="translate(-645.369 -1596.218)" fill="#fff"/>
        </g>
      </g>
    </g>
  </g>
  <g id="Group_1229" data-name="Group 1229" transform="translate(22.331)">
    <g id="Group_1220" data-name="Group 1220" transform="translate(0)">
      <g id="Group_1216" data-name="Group 1216" transform="translate(0.6 1.463)">
        <g id="Group_1155" data-name="Group 1155" transform="translate(2.613 0.821)">
          <g id="Group_1154" data-name="Group 1154">
            <path id="Path_428" data-name="Path 428" d="M510.462,1425.636l-.163-4.694s6.238-1.367,5.929-7.67c-.15-3.044-.969-9.287-1.775-14.929a11.757,11.757,0,0,0-12.362-10.07l-.608.037c-6.529.786-9.508,6.77-8.542,13.275l1.529,24.822a8.006,8.006,0,0,0,8.229,7.511h0A8.006,8.006,0,0,0,510.462,1425.636Z" transform="translate(-492.762 -1388.251)" fill="#db8a76"/>
          </g>
        </g>
        <g id="Group_1159" data-name="Group 1159" transform="translate(11.799 31.593)">
          <g id="Group_1158" data-name="Group 1158">
            <g id="Group_1157" data-name="Group 1157">
              <g id="Group_1156" data-name="Group 1156">
                <path id="Path_429" data-name="Path 429" d="M524.378,1468.105a15.241,15.241,0,0,1-8.349-1.919s2.133,4.465,8.382,3.511Z" transform="translate(-516.029 -1466.186)" fill="#9a5d53"/>
              </g>
            </g>
          </g>
        </g>
        <g id="Group_1166" data-name="Group 1166" transform="translate(21.732 16.072)">
          <g id="Group_1165" data-name="Group 1165">
            <g id="Group_1164" data-name="Group 1164">
              <g id="Group_1163" data-name="Group 1163">
                <g id="Group_1162" data-name="Group 1162">
                  <g id="Group_1161" data-name="Group 1161">
                    <g id="Group_1160" data-name="Group 1160">
                      <path id="Path_430" data-name="Path 430" d="M542.977,1427.637a.9.9,0,0,1-.811.961.862.862,0,0,1-.977-.754.9.9,0,0,1,.81-.961A.863.863,0,0,1,542.977,1427.637Z" transform="translate(-541.185 -1426.876)" fill="#1a2e35"/>
                    </g>
                  </g>
                </g>
              </g>
            </g>
          </g>
        </g>
        <g id="Group_1173" data-name="Group 1173" transform="translate(16.15 25.88)">
          <g id="Group_1172" data-name="Group 1172">
            <g id="Group_1171" data-name="Group 1171">
              <g id="Group_1170" data-name="Group 1170">
                <g id="Group_1169" data-name="Group 1169">
                  <g id="Group_1168" data-name="Group 1168">
                    <g id="Group_1167" data-name="Group 1167">
                      <path id="Path_431" data-name="Path 431" d="M528.84,1452.477a.9.9,0,0,1-.811.961.862.862,0,0,1-.977-.754.9.9,0,0,1,.81-.961A.863.863,0,0,1,528.84,1452.477Z" transform="translate(-527.048 -1451.716)" fill="#1a2e35"/>
                    </g>
                  </g>
                </g>
              </g>
            </g>
          </g>
        </g>
        <g id="Group_1181" data-name="Group 1181" transform="translate(19.58 13.237)">
          <g id="Group_1180" data-name="Group 1180">
            <g id="Group_1179" data-name="Group 1179">
              <g id="Group_1178" data-name="Group 1178">
                <g id="Group_1177" data-name="Group 1177">
                  <g id="Group_1176" data-name="Group 1176">
                    <g id="Group_1175" data-name="Group 1175">
                      <g id="Group_1174" data-name="Group 1174">
                        <path id="Path_432" data-name="Path 432" d="M539.294,1420.538c-.1.124-.816-.338-1.784-.276s-1.647.59-1.759.478c-.055-.049.046-.268.341-.513a2.474,2.474,0,0,1,1.4-.527,2.374,2.374,0,0,1,1.429.366C539.232,1420.276,539.345,1420.482,539.294,1420.538Z" transform="translate(-535.736 -1419.696)" fill="#1a2e35"/>
                      </g>
                    </g>
                  </g>
                </g>
              </g>
            </g>
          </g>
        </g>
        <g id="Group_1188" data-name="Group 1188" transform="translate(12.287 16.457)">
          <g id="Group_1187" data-name="Group 1187">
            <g id="Group_1186" data-name="Group 1186">
              <g id="Group_1185" data-name="Group 1185">
                <g id="Group_1184" data-name="Group 1184">
                  <g id="Group_1183" data-name="Group 1183">
                    <g id="Group_1182" data-name="Group 1182">
                      <path id="Path_433" data-name="Path 433" d="M519.057,1428.613a.9.9,0,0,1-.811.96.862.862,0,0,1-.977-.754.9.9,0,0,1,.811-.961A.863.863,0,0,1,519.057,1428.613Z" transform="translate(-517.264 -1427.853)" fill="#1a2e35"/>
                    </g>
                  </g>
                </g>
              </g>
            </g>
          </g>
        </g>
        <g id="Group_1196" data-name="Group 1196" transform="translate(10.078 14.003)">
          <g id="Group_1195" data-name="Group 1195">
            <g id="Group_1194" data-name="Group 1194">
              <g id="Group_1193" data-name="Group 1193">
                <g id="Group_1192" data-name="Group 1192">
                  <g id="Group_1191" data-name="Group 1191">
                    <g id="Group_1190" data-name="Group 1190">
                      <g id="Group_1189" data-name="Group 1189">
                        <path id="Path_434" data-name="Path 434" d="M515.228,1422.479c-.1.124-.818-.338-1.785-.276s-1.647.59-1.759.478c-.055-.049.045-.268.342-.512a2.472,2.472,0,0,1,1.4-.528,2.38,2.38,0,0,1,1.429.366C515.165,1422.218,515.28,1422.423,515.228,1422.479Z" transform="translate(-511.67 -1421.637)" fill="#1a2e35"/>
                      </g>
                    </g>
                  </g>
                </g>
              </g>
            </g>
          </g>
        </g>
        <g id="Group_1203" data-name="Group 1203" transform="translate(16.643 13.769)">
          <g id="Group_1202" data-name="Group 1202">
            <g id="Group_1201" data-name="Group 1201">
              <g id="Group_1200" data-name="Group 1200">
                <g id="Group_1199" data-name="Group 1199">
                  <g id="Group_1198" data-name="Group 1198">
                    <g id="Group_1197" data-name="Group 1197">
                      <path id="Path_435" data-name="Path 435" d="M529.244,1429.081a6.367,6.367,0,0,1,1.555-.38c.246-.041.476-.1.507-.276a1.255,1.255,0,0,0-.21-.722l-.846-1.837a32.37,32.37,0,0,1-1.945-4.822,32.458,32.458,0,0,1,2.328,4.654q.428.968.817,1.85a1.432,1.432,0,0,1,.188.962.62.62,0,0,1-.384.387,1.666,1.666,0,0,1-.416.084A6.332,6.332,0,0,1,529.244,1429.081Z" transform="translate(-528.296 -1421.044)" fill="#1a2e35"/>
                    </g>
                  </g>
                </g>
              </g>
            </g>
          </g>
        </g>
        <g id="Group_1206" data-name="Group 1206" transform="translate(9.262 10.419)">
          <g id="Group_1205" data-name="Group 1205">
            <g id="Group_1204" data-name="Group 1204">
              <path id="Path_436" data-name="Path 436" d="M513.994,1413.177c-.079.269-1.053.2-2.18.411-1.132.184-2.027.573-2.192.347-.074-.109.07-.367.425-.644a3.857,3.857,0,0,1,3.33-.577C513.8,1412.856,514.027,1413.05,513.994,1413.177Z" transform="translate(-509.603 -1412.559)" fill="#1a2e35"/>
            </g>
          </g>
        </g>
        <g id="Group_1209" data-name="Group 1209" transform="translate(19.303 10.396)">
          <g id="Group_1208" data-name="Group 1208">
            <g id="Group_1207" data-name="Group 1207">
              <path id="Path_437" data-name="Path 437" d="M538.341,1413.406c-.157.23-.838.043-1.64.082-.8.01-1.472.239-1.642.018-.076-.107.018-.334.3-.56a2.377,2.377,0,0,1,2.644-.081C538.3,1413.073,538.41,1413.294,538.341,1413.406Z" transform="translate(-535.035 -1412.502)" fill="#1a2e35"/>
            </g>
          </g>
        </g>
        <g id="Group_1211" data-name="Group 1211" transform="translate(1.055)">
          <g id="Group_1210" data-name="Group 1210">
            <path id="Path_438" data-name="Path 438" d="M511.282,1394.235s-1.9-3.842-3.863-4.645c-2.371-.972-3.206,1.615-5.438,1.137s-4.5-1.412-6.633.422c-2.34,2.008-1.11,3.239-1.089,6.043.083,11.367-1.789,14.7-2.706,9.4-.1-.58-1.752-.946-2.144-3.4-.509-3.184-.872-7.065-.3-9.382a8.98,8.98,0,0,1,3.364-4.924c2.95-2.494,7.194-2.8,10.1-2.693S511.24,1389.281,511.282,1394.235Z" transform="translate(-488.818 -1386.172)" fill="#1a2e35"/>
          </g>
        </g>
        <g id="Group_1213" data-name="Group 1213" transform="translate(0 18.669)">
          <g id="Group_1212" data-name="Group 1212">
            <path id="Path_439" data-name="Path 439" d="M490.326,1435.008a1.712,1.712,0,0,0-1.947-1.534c-1.168.184-2.434.932-2.207,3.354.4,4.3,4.634,3.007,4.629,2.883C490.8,1439.626,490.51,1436.8,490.326,1435.008Z" transform="translate(-486.146 -1433.454)" fill="#db8a76"/>
          </g>
        </g>
        <g id="Group_1215" data-name="Group 1215" transform="translate(1.49 20.069)">
          <g id="Group_1214" data-name="Group 1214">
            <path id="Path_440" data-name="Path 440" d="M492,1440.328c-.02-.012-.07.06-.191.129a.749.749,0,0,1-.559.064,1.86,1.86,0,0,1-1.013-1.581,2.483,2.483,0,0,1,.109-1.091.868.868,0,0,1,.509-.628.383.383,0,0,1,.461.164c.069.115.05.2.073.208s.085-.081.034-.255a.482.482,0,0,0-.194-.254.569.569,0,0,0-.424-.071,1.058,1.058,0,0,0-.719.74,2.556,2.556,0,0,0-.147,1.222,1.951,1.951,0,0,0,1.266,1.753.807.807,0,0,0,.674-.177C492,1440.433,492.014,1440.334,492,1440.328Z" transform="translate(-489.919 -1437.001)" fill="#9a5d53"/>
          </g>
        </g>
      </g>
      <g id="Group_1217" data-name="Group 1217">
        <path id="Path_441" data-name="Path 441" d="M488.977,1395.805a4.1,4.1,0,0,0,1.875.73,1.407,1.407,0,0,0,1.5-1.084c.032-.3-.062-.646.121-.889.218-.291.657-.231,1.02-.215a2.754,2.754,0,0,0,2.731-2.146,1.156,1.156,0,0,0,1.556.05,6.193,6.193,0,0,0,1.1-1.326,1.775,1.775,0,0,1,1.432-.831,4.25,4.25,0,0,0,.949.149c.563-.085.8-.764.849-1.331s.077-1.226.537-1.56a2.259,2.259,0,0,1,1.537-.137c.525.045,1.19-.119,1.292-.636a1.024,1.024,0,0,0-.241-.769,2.793,2.793,0,0,0-3.356-.853,3.787,3.787,0,0,0-6.99-.3,3.843,3.843,0,0,0-6.045,1.776,2.786,2.786,0,0,0-2.886,4.237,2.646,2.646,0,0,0-1.323,2.192,1.515,1.515,0,0,0,1.808,1.439,1.543,1.543,0,0,0,2.758,1.372" transform="translate(-484.627 -1382.467)" fill="#1a2e35"/>
      </g>
      <g id="Group_1219" data-name="Group 1219" transform="translate(0.421 3.737)">
        <g id="Group_1218" data-name="Group 1218">
          <path id="Path_442" data-name="Path 442" d="M502.915,1391.932a.226.226,0,0,1,0,.079c0,.052,0,.13-.013.231a2.719,2.719,0,0,1-.261.849,3.086,3.086,0,0,1-.892,1.077,2.875,2.875,0,0,1-1.733.612l.067-.1a1.562,1.562,0,0,1-.013,1.194,4.457,4.457,0,0,1-.672,1.1,3.181,3.181,0,0,1-.451.523,1.507,1.507,0,0,1-.667.3,1.573,1.573,0,0,1-1.416-.412l.158-.056a3.237,3.237,0,0,1-1.232,2.319,2.36,2.36,0,0,1-1.385.55,4.267,4.267,0,0,1-1.412-.22l.112-.058a3.4,3.4,0,0,1-.937,1.391,1.809,1.809,0,0,1-1.475.5,2.376,2.376,0,0,1-1.94-1.744l.1.04a2.225,2.225,0,0,1-1.466.308,2.42,2.42,0,0,1-1.06-.4,2.087,2.087,0,0,1-.513-.5,1.011,1.011,0,0,1-.123-.216,2.582,2.582,0,0,0,.676.652,2.4,2.4,0,0,0,1.032.353,2.129,2.129,0,0,0,1.382-.315l.078-.051.023.09a2.241,2.241,0,0,0,1.834,1.613,1.644,1.644,0,0,0,1.338-.47,3.243,3.243,0,0,0,.88-1.32l.029-.082.083.024a4.11,4.11,0,0,0,1.351.209,2.175,2.175,0,0,0,1.279-.511,3.061,3.061,0,0,0,1.166-2.186l.015-.205.144.149a1.4,1.4,0,0,0,1.251.363,1.336,1.336,0,0,0,.591-.256,3.151,3.151,0,0,0,.426-.491,4.367,4.367,0,0,0,.658-1.058,1.417,1.417,0,0,0,.027-1.082l-.041-.1h.109a2.773,2.773,0,0,0,1.662-.559,3.075,3.075,0,0,0,.89-1.022A3.341,3.341,0,0,0,502.915,1391.932Z" transform="translate(-485.692 -1391.932)" fill="#375a64"/>
        </g>
      </g>
    </g>
    <g id="Group_1222" data-name="Group 1222" transform="translate(19.36 12.937)">
      <g id="Group_1221" data-name="Group 1221">
        <path id="Path_443" data-name="Path 443" d="M534.088,1421.352a7.8,7.8,0,0,1-.281-1.007,4.246,4.246,0,0,1,.447-2.746,4.192,4.192,0,0,1,3.358-2.194,4.19,4.19,0,0,1,2.372.515,4.163,4.163,0,0,1,2.065,4.487,4.2,4.2,0,0,1-1.153,2.137,4.222,4.222,0,0,1-6.227-.324,7.85,7.85,0,0,1-.582-.869,1.667,1.667,0,0,0,.111.249,1.945,1.945,0,0,0,.161.289,3,3,0,0,0,.259.372,4.291,4.291,0,0,0,4.393,1.508,4.332,4.332,0,0,0,1.994-1.115,4.332,4.332,0,0,0,1.205-2.214,4.314,4.314,0,0,0-2.147-4.665,4.332,4.332,0,0,0-2.465-.525,4.334,4.334,0,0,0-2.144.789,4.292,4.292,0,0,0-1.713,4.317,3.018,3.018,0,0,0,.114.438,1.949,1.949,0,0,0,.115.311A1.733,1.733,0,0,0,534.088,1421.352Z" transform="translate(-533.658 -1415.232)" fill="#1a2e35"/>
      </g>
    </g>
    <g id="Group_1224" data-name="Group 1224" transform="translate(8.256 13.589)">
      <g id="Group_1223" data-name="Group 1223">
        <path id="Path_444" data-name="Path 444" d="M505.966,1423a7.618,7.618,0,0,1-.281-1.007,4.244,4.244,0,0,1,.447-2.746,4.19,4.19,0,0,1,3.358-2.194,4.191,4.191,0,0,1,2.372.515,4.164,4.164,0,0,1,2.065,4.487,4.194,4.194,0,0,1-1.153,2.137,4.223,4.223,0,0,1-6.227-.324,7.711,7.711,0,0,1-.581-.869,1.572,1.572,0,0,0,.111.249,1.922,1.922,0,0,0,.161.29,2.968,2.968,0,0,0,.258.371,4.291,4.291,0,0,0,4.393,1.508,4.336,4.336,0,0,0,1.994-1.115,4.335,4.335,0,0,0,1.2-2.214,4.313,4.313,0,0,0-2.146-4.664,4.34,4.34,0,0,0-2.465-.526,4.336,4.336,0,0,0-2.144.789,4.29,4.29,0,0,0-1.713,4.317,2.924,2.924,0,0,0,.114.438,1.927,1.927,0,0,0,.115.31A1.577,1.577,0,0,0,505.966,1423Z" transform="translate(-505.536 -1416.883)" fill="#1a2e35"/>
      </g>
    </g>
    <g id="Group_1226" data-name="Group 1226" transform="translate(16.796 16.448)">
      <g id="Group_1225" data-name="Group 1225">
        <path id="Path_445" data-name="Path 445" d="M527.167,1424.676a2.924,2.924,0,0,1,2.634-.135c.011-.016-.109-.126-.346-.235a2.22,2.22,0,0,0-1.967.1C527.262,1424.539,527.154,1424.661,527.167,1424.676Z" transform="translate(-527.166 -1424.124)" fill="#1a2e35"/>
      </g>
    </g>
    <g id="Group_1228" data-name="Group 1228" transform="translate(4.387 18.515)">
      <g id="Group_1227" data-name="Group 1227">
        <path id="Path_446" data-name="Path 446" d="M495.738,1431.394a29.148,29.148,0,0,0,3.927-2.032,29.137,29.137,0,0,0-3.927,2.032Z" transform="translate(-495.738 -1429.359)" fill="#1a2e35"/>
      </g>
    </g>
  </g>
</svg>
