<svg xmlns="http://www.w3.org/2000/svg" width="106" height="96" viewBox="0 0 106 96">
  <g id="Group_2708" data-name="Group 2708" transform="translate(-504 -3016)">
    <g id="Group_2708-2" data-name="Group 2708" transform="translate(-31 2452.2)">
      <g id="Path_3664" data-name="Path 3664" transform="translate(535 563.8)" fill="#ebfffb" opacity="0">
        <path d="M 105.5 95.5 L 0.5 95.5 L 0.5 0.5 L 105.5 0.5 L 105.5 95.5 Z" stroke="none"/>
        <path d="M 1 1 L 1 95 L 105 95 L 105 1 L 1 1 M 0 0 L 106 0 L 106 96 L 0 96 L 0 0 Z" stroke="none" fill="#707070"/>
      </g>
      <g id="Group_1918" data-name="Group 1918" transform="translate(542.007 564.701)">
        <g id="Group_1870" data-name="Group 1870" transform="translate(0 0.222)">
          <path id="Path_580" data-name="Path 580" d="M1397.132,1552.844a13.982,13.982,0,0,1,6.584,8.5c1.711,6.131,6.952,22.1,6.952,22.1s2.995,3.523,3.315,6.132-.32,8.92-1.283,10.1a2.712,2.712,0,0,1-2.336.982l-12.6-1.2-4.964-33.236Z" transform="translate(-1328.587 -1508.395)" fill="#ff735d"/>
          <path id="Path_581" data-name="Path 581" d="M1320.632,1548.694s-8.769,2.827-10.955,5.287l7.181,34.333-.114,10.832h41.574c0-.535.373-35.967.373-35.967l2.5-13.9-14.777-2.674-2.914-2.353-16.442.855-2.5,2.567Z" transform="translate(-1292.644 -1504.826)" fill="#ff735d"/>
          <g id="Group_1673" data-name="Group 1673" transform="translate(23.884 72.971)" opacity="0.3">
            <path id="Path_582" data-name="Path 582" d="M1329.538,1602.3c-.132-.291-.32-.606-.633-.67-.515-.106-.859.5-1.034,1a45.134,45.134,0,0,1-5.613,10.96l-.11,5.271a27.1,27.1,0,0,0,6.536-7.184C1330.271,1608.831,1330.879,1605.266,1329.538,1602.3Z" transform="translate(-1322.148 -1601.616)"/>
          </g>
          <path id="Path_583" data-name="Path 583" d="M1297.584,1560.891a53.335,53.335,0,0,0-4.2,6.691c-1.233,2.643-11.451,24.841-12.068,27.131s-2.2,9.514,2.466,11.187h9.6l9.637-19.488.493-22.618Z" transform="translate(-1280.55 -1511.736)" fill="#ff735d"/>
          <g id="Group_1674" data-name="Group 1674" transform="translate(1.752 78.535)">
            <path id="Path_584" data-name="Path 584" d="M1295.24,1612.683c-.013.015-.214-.189-.656-.44a7.367,7.367,0,0,0-2.015-.73,9.633,9.633,0,0,0-1.469-.206,5.858,5.858,0,0,0-1.684.109,6.278,6.278,0,0,0-3.233,2.029,8.755,8.755,0,0,0-1.83,3.4,16.958,16.958,0,0,0-.578,3.141c-.089.908-.123,1.647-.155,2.158-.014.239-.027.433-.037.588a.858.858,0,0,1-.025.2.9.9,0,0,1-.012-.206c0-.155,0-.35,0-.589.01-.512.023-1.253.1-2.167a16.2,16.2,0,0,1,.544-3.177,8.783,8.783,0,0,1,1.855-3.477,6.382,6.382,0,0,1,3.333-2.073,5.906,5.906,0,0,1,1.732-.1,9.419,9.419,0,0,1,1.488.232,6.938,6.938,0,0,1,2.022.8,3.515,3.515,0,0,1,.477.353A.88.88,0,0,1,1295.24,1612.683Z" transform="translate(-1283.546 -1611.131)" fill="#1a2e35"/>
          </g>
          <g id="Group_1675" data-name="Group 1675" transform="translate(8.893 76.132)">
            <path id="Path_585" data-name="Path 585" d="M1295.757,1607.1a1.127,1.127,0,0,1,.323-.052,5.517,5.517,0,0,1,.891-.011,7.359,7.359,0,0,1,1.31.193,7.81,7.81,0,0,1,2.913,1.39,7.416,7.416,0,0,1,.975.9,5.567,5.567,0,0,1,.551.7,1.117,1.117,0,0,1,.163.283c-.028.02-.289-.364-.808-.893a8.316,8.316,0,0,0-.983-.85,8.333,8.333,0,0,0-2.853-1.361,8.4,8.4,0,0,0-1.278-.229C1296.222,1607.091,1295.759,1607.131,1295.757,1607.1Z" transform="translate(-1295.757 -1607.021)" fill="#1a2e35"/>
          </g>
          <g id="Group_1676" data-name="Group 1676" transform="translate(6.509 74.977)">
            <path id="Path_586" data-name="Path 586" d="M1302.745,1605.059a2.063,2.063,0,0,1-.444-.034c-.283-.036-.695-.078-1.2-.115a20.5,20.5,0,0,0-7.853.939c-.485.157-.875.294-1.141.4a2.04,2.04,0,0,1-.423.137,2.1,2.1,0,0,1,.4-.2c.259-.123.644-.28,1.127-.453a18.153,18.153,0,0,1,7.907-.946c.51.054.921.116,1.2.174A2.048,2.048,0,0,1,1302.745,1605.059Z" transform="translate(-1291.68 -1604.686)" fill="#1a2e35"/>
          </g>
          <g id="Group_1677" data-name="Group 1677" transform="translate(31.705 43.357)">
            <path id="Path_587" data-name="Path 587" d="M1348.425,1563.429a.649.649,0,0,1-.1-.115l-.262-.351-.965-1.337-3.344-4.719.149-.021c-.518,1.519-1.088,3.2-1.689,4.96l-.038.112-.1-.062-.2-.128a10.255,10.255,0,0,1-2.091-1.766,12.429,12.429,0,0,1-1.493-2.064,17.214,17.214,0,0,1-1.643-3.971,26.868,26.868,0,0,1-.622-2.829c-.055-.322-.1-.579-.135-.774-.016-.088-.034-.153-.045-.2a.246.246,0,0,1-.022-.066,3.239,3.239,0,0,1,.272,1.024c.138.668.33,1.637.677,2.805a17.636,17.636,0,0,0,1.665,3.922,12.447,12.447,0,0,0,1.479,2.029,10.178,10.178,0,0,0,2.055,1.731l.2.126-.135.049,1.7-4.954.054-.158.095.137,3.289,4.757.926,1.364.24.367A.619.619,0,0,1,1348.425,1563.429Z" transform="translate(-1335.831 -1550.1)" fill="#1a2e35"/>
          </g>
          <g id="Group_1678" data-name="Group 1678" transform="translate(54.895 72.563)" opacity="0.3">
            <path id="Path_588" data-name="Path 588" d="M1376.323,1600.919a20.154,20.154,0,0,0,11,19.708c.117-3.524-.052-7.674.066-11.2Z" transform="translate(-1376.23 -1600.919)"/>
          </g>
          <g id="Group_1684" data-name="Group 1684" transform="translate(53.391 59.517)">
            <path id="Path_589" data-name="Path 589" d="M1375.119,1587.017s-1.552.431-.388,3.61,1.552,2.988,2.328,5.963,1.682,5.689,3.04,7.371,6.4,5.109,6.4,5.109l4.527-4.268a21.665,21.665,0,0,1-.567-5.342c.179-2.161.632-7.464.567-8.369a15.241,15.241,0,0,0-1.035-3.1v-1.5l-2.328-7.162s-1.294-.582-1.746,1.488l-.776-2.2s-1.229-.2-1.552,2.325a25.371,25.371,0,0,0,.258,6.014l-.647,4.4-.97,2.975-.84.13s-1.266-.346-1.958-2.728S1376.865,1586.5,1375.119,1587.017Z" transform="translate(-1374.298 -1578.609)" fill="#ffc19d"/>
            <g id="Group_1679" data-name="Group 1679" transform="translate(10.171 10.64)">
              <path id="Path_590" data-name="Path 590" d="M1396.733,1605.82a.734.734,0,0,1-.021-.163l-.032-.474c-.023-.433-.056-1.033-.1-1.781-.069-1.544-.167-3.694-.28-6.2l.02.052a.906.906,0,0,0-.916-.239,1.334,1.334,0,0,0-.839.615,6.035,6.035,0,0,0-.541,2.266c-.246,1.813-.479,3.539-.692,5.112-.108.785-.221,1.533-.374,2.225a14.542,14.542,0,0,1-.561,1.887,15.834,15.834,0,0,0-.487,1.536,4.718,4.718,0,0,0-.146,1.2,3.76,3.76,0,0,0,.179,1.014,1.464,1.464,0,0,1-.109-.247,2.864,2.864,0,0,1-.142-.764,4.572,4.572,0,0,1,.118-1.224,14.773,14.773,0,0,1,.464-1.556,14.878,14.878,0,0,0,.534-1.876c.146-.687.253-1.431.356-2.216.208-1.574.437-3.3.678-5.113.057-.4.1-.8.171-1.2a3.159,3.159,0,0,1,.4-1.137,1.52,1.52,0,0,1,.952-.691,1.081,1.081,0,0,1,1.089.3l.019.023v.029c.086,2.509.16,4.66.213,6.2l.046,1.783c0,.194,0,.351,0,.475A.686.686,0,0,1,1396.733,1605.82Z" transform="translate(-1391.69 -1596.804)" fill="#ff9c6a"/>
            </g>
            <g id="Group_1680" data-name="Group 1680" transform="translate(11.805 5.331)">
              <path id="Path_591" data-name="Path 591" d="M1395.419,1593.9a1.854,1.854,0,0,1-.191-.405,10.257,10.257,0,0,1-.379-1.159,11.649,11.649,0,0,1-.325-1.782,5.16,5.16,0,0,1-.019-1.08,2.311,2.311,0,0,1,.39-1.109,1.585,1.585,0,0,1,.828-.621l.069-.021.035.063c.656,1.157,1.225,2.178,1.626,2.912l.464.868a1.476,1.476,0,0,1,.149.326,1.516,1.516,0,0,1-.2-.294l-.511-.841c-.428-.719-1.017-1.728-1.68-2.881l.1.042a1.416,1.416,0,0,0-.729.554,2.152,2.152,0,0,0-.361,1.021,5.22,5.22,0,0,0,.009,1.044,12.96,12.96,0,0,0,.282,1.767c.114.5.235.894.32,1.167A2.409,2.409,0,0,1,1395.419,1593.9Z" transform="translate(-1394.484 -1587.725)" fill="#ff9c6a"/>
            </g>
            <g id="Group_1681" data-name="Group 1681" transform="translate(11.467 1.625)">
              <path id="Path_592" data-name="Path 592" d="M1394.1,1591.852a1.749,1.749,0,0,1-.042-.412c-.012-.305-.027-.681-.046-1.126-.031-.951-.06-2.264-.081-3.715a31.889,31.889,0,0,1,.057-3.723,5.7,5.7,0,0,1,.243-1.107,1.4,1.4,0,0,1,.165-.381,10.579,10.579,0,0,0-.278,1.5c-.09.94-.014,2.254,0,3.706s.03,2.765.027,3.716c-.005.444-.009.821-.013,1.126A1.781,1.781,0,0,1,1394.1,1591.852Z" transform="translate(-1393.906 -1581.388)" fill="#ff9c6a"/>
            </g>
            <g id="Group_1682" data-name="Group 1682" transform="translate(7.828 16.691)">
              <path id="Path_593" data-name="Path 593" d="M1387.685,1614.474c-.026-.022.257-.356.607-.96a8.018,8.018,0,0,0,.526-1.1,7.878,7.878,0,0,0,.529-2.93,7.939,7.939,0,0,0-.108-1.219c-.116-.689-.265-1.1-.233-1.111a.951.951,0,0,1,.129.28,5.158,5.158,0,0,1,.233.807,6.951,6.951,0,0,1,.149,1.24,7.34,7.34,0,0,1-.541,3,6.942,6.942,0,0,1-.573,1.109,5.076,5.076,0,0,1-.5.675C1387.772,1614.4,1387.695,1614.482,1387.685,1614.474Z" transform="translate(-1387.683 -1607.15)" fill="#ff9c6a"/>
            </g>
            <path id="Path_594" data-name="Path 594" d="M1398.738,1615.869l3.929,1.364s3.751-1.94,6.338,0,4.834,7.053,4.122,9.123c0,0-1.785,2.2-3.143,2.527s-6.638-.955-8.835-1.418-5.984-2.924-5.984-2.924Z" transform="translate(-1382.962 -1594.079)" fill="#ffc19d"/>
            <g id="Group_1683" data-name="Group 1683" transform="translate(16.044 18.716)">
              <path id="Path_595" data-name="Path 595" d="M1401.948,1619.475a1.3,1.3,0,0,1-.042-.348q-.024-.4-.056-.949c-.042-.8-.1-1.91-.112-3.136a31.039,31.039,0,0,1,.091-3.142c.035-.4.078-.725.119-.946a1.279,1.279,0,0,1,.081-.341c.029,0-.032.5-.07,1.3s-.055,1.906-.036,3.13c.022,1.2.042,2.283.058,3.134,0,.4,0,.727,0,.952A1.262,1.262,0,0,1,1401.948,1619.475Z" transform="translate(-1401.733 -1610.613)" fill="#ff9c6a"/>
            </g>
          </g>
          <g id="Group_1685" data-name="Group 1685" transform="translate(71.906 79.718)">
            <path id="Path_596" data-name="Path 596" d="M1416.657,1615.951a12.313,12.313,0,0,0-1.306-1.178,7.187,7.187,0,0,0-7.964-.439,12.436,12.436,0,0,0-1.428,1.027,2.021,2.021,0,0,1,.324-.35,6.366,6.366,0,0,1,1.037-.789,7.061,7.061,0,0,1,8.109.447,6.4,6.4,0,0,1,.944.9A1.954,1.954,0,0,1,1416.657,1615.951Z" transform="translate(-1405.958 -1613.153)" fill="#1a2e35"/>
          </g>
          <g id="Group_1686" data-name="Group 1686" transform="translate(70.719 77.751)">
            <path id="Path_597" data-name="Path 597" d="M1415.309,1611.278a7.694,7.694,0,0,0-1.634-.9,7.234,7.234,0,0,0-4.423-.133,10.3,10.3,0,0,0-2.287.952,10.878,10.878,0,0,0-1.656,1.17c-.441.376-.778.7-1.01.933a2.879,2.879,0,0,1-.37.346,2.514,2.514,0,0,1,.318-.4,12.289,12.289,0,0,1,.976-.982,10.115,10.115,0,0,1,1.658-1.219,9.931,9.931,0,0,1,2.322-.982,7.092,7.092,0,0,1,4.521.189,5.192,5.192,0,0,1,1.209.682,3.314,3.314,0,0,1,.288.244C1415.282,1611.241,1415.313,1611.274,1415.309,1611.278Z" transform="translate(-1403.928 -1609.789)" fill="#1a2e35"/>
          </g>
          <g id="Group_1687" data-name="Group 1687" transform="translate(69.971 75.775)">
            <path id="Path_598" data-name="Path 598" d="M1414.811,1607.036c-.01.037-.7-.173-1.838-.327a14.8,14.8,0,0,0-2.014-.128,14.667,14.667,0,0,0-4.845.853,14.889,14.889,0,0,0-1.849.808c-1.02.535-1.594.967-1.615.936a2.578,2.578,0,0,1,.394-.315,5.543,5.543,0,0,1,.488-.333c.2-.121.413-.27.672-.4a13.333,13.333,0,0,1,1.853-.853,13.892,13.892,0,0,1,4.9-.863,13.36,13.36,0,0,1,2.033.169c.288.036.543.1.769.149a5.348,5.348,0,0,1,.572.147A2.7,2.7,0,0,1,1414.811,1607.036Z" transform="translate(-1402.649 -1606.411)" fill="#1a2e35"/>
          </g>
          <g id="Group_1688" data-name="Group 1688" transform="translate(42.983 41.659)">
            <path id="Path_599" data-name="Path 599" d="M1365.112,1548.072a3.275,3.275,0,0,1,.272,1.044,10.183,10.183,0,0,1-.149,3.047,18.071,18.071,0,0,1-.508,2.124,16.026,16.026,0,0,1-1.032,2.359c-.846,1.632-1.911,3.411-3.144,5.309l-.144.222v-.266c0-1.254,0-2.569-.006-3.937l.138.066-3.313,2.675.029-.042a34.873,34.873,0,0,0-1.474,7.964,92.6,92.6,0,0,0,.141,12.194c.174,3.752.288,7.13.406,9.967s.215,5.132.3,6.718c.047.785.083,1.4.108,1.825l.032.474c.006.107,0,.162,0,.162s-.01-.054-.023-.16l-.05-.473c-.039-.416-.09-1.031-.142-1.823-.108-1.585-.23-3.88-.359-6.716s-.278-6.216-.445-9.964a91.1,91.1,0,0,1-.155-12.217,34.836,34.836,0,0,1,1.488-8l.008-.026.021-.017,3.319-2.668.139-.111v.177c0,1.367,0,2.683-.006,3.937l-.145-.043c2.438-3.78,4.42-7.064,4.724-9.722a10.5,10.5,0,0,0,.192-3.025,5.069,5.069,0,0,0-.146-.786C1365.135,1548.163,1365.112,1548.072,1365.112,1548.072Z" transform="translate(-1355.445 -1548.072)" fill="#1a2e35"/>
          </g>
          <path id="Path_600" data-name="Path 600" d="M1360.314,1626.329l-.126,0a1,1,0,1,0,.126,0Z" transform="translate(-1313.988 -1538.904)" fill="#fff"/>
          <g id="Group_1689" data-name="Group 1689" transform="translate(45.227 59.775)">
            <path id="Path_601" data-name="Path 601" d="M1360.314,1602.946l-.126,0a1,1,0,1,0,.126,0Z" transform="translate(-1359.215 -1588.711)" fill="#fff"/>
            <path id="Path_602" data-name="Path 602" d="M1360.181,1580.609a1,1,0,0,0,.133-2l-.126,0a1,1,0,0,0-.007,2Z" transform="translate(-1359.215 -1578.608)" fill="#fff"/>
          </g>
          <g id="Group_1829" data-name="Group 1829" transform="translate(26.315)">
            <g id="Group_1823" data-name="Group 1823">
              <g id="Group_1690" data-name="Group 1690">
                <path id="Path_603" data-name="Path 603" d="M1331.383,1501.689a24.848,24.848,0,0,1-3.405-4.388,8.352,8.352,0,0,1-1.147-5.34c.175-1.071.63-2.091.7-3.174.1-1.49-.527-3.047,0-4.443.825-2.183,3.764-2.52,5.545-4.028,1.387-1.175,2.063-3.081,3.589-4.068a6.746,6.746,0,0,1,4.618-.622,17.423,17.423,0,0,0,4.729.408,31.3,31.3,0,0,0,3.277-.876,4.472,4.472,0,0,1,3.3.225,2.149,2.149,0,0,1,.887,2.891c1.824-.841,4.14.58,4.64,2.526a5.465,5.465,0,0,1-2.046,5.33,11.969,11.969,0,0,1-5.518,2.251c-5.587,1.053-11.648.459-16.463-2.565" transform="translate(-1326.747 -1474.951)" fill="#1a2e35"/>
              </g>
              <g id="Group_1822" data-name="Group 1822" transform="translate(0.347 3.147)">
                <g id="Group_1796" data-name="Group 1796" transform="translate(3.401 1.241)">
                  <g id="Group_1795" data-name="Group 1795">
                    <g id="Group_1794" data-name="Group 1794">
                      <g id="Group_1713" data-name="Group 1713">
                        <g id="Group_1712" data-name="Group 1712">
                          <g id="Group_1711" data-name="Group 1711">
                            <g id="Group_1700" data-name="Group 1700">
                              <g id="Group_1699" data-name="Group 1699">
                                <g id="Group_1698" data-name="Group 1698">
                                  <g id="Group_1697" data-name="Group 1697">
                                    <g id="Group_1696" data-name="Group 1696">
                                      <g id="Group_1695" data-name="Group 1695">
                                        <g id="Group_1694" data-name="Group 1694">
                                          <g id="Group_1693" data-name="Group 1693">
                                            <g id="Group_1692" data-name="Group 1692">
                                              <g id="Group_1691" data-name="Group 1691">
                                                <path id="Path_604" data-name="Path 604" d="M1353.686,1523.589c-.273-2.115-.5-3.88-.51-4.1,0,0,7.068-1.588,6.678-8.735-.188-3.454-1.155-10.536-2.1-16.933a13.331,13.331,0,0,0-14.081-11.338l-.689.046c-7.4.931-10.744,7.736-9.609,15.108l3.993,24.719s1.7,5.468,5.349,6.415l4.6,6.571.76-2.829,3.428-2.985a13.477,13.477,0,0,0,1.69-2.516A5.514,5.514,0,0,0,1353.686,1523.589Z" transform="translate(-1333.156 -1482.454)" fill="#ffc19d"/>
                                              </g>
                                            </g>
                                          </g>
                                        </g>
                                      </g>
                                    </g>
                                  </g>
                                </g>
                              </g>
                            </g>
                            <g id="Group_1710" data-name="Group 1710" transform="translate(10.539 34.909)">
                              <g id="Group_1709" data-name="Group 1709">
                                <g id="Group_1708" data-name="Group 1708">
                                  <g id="Group_1707" data-name="Group 1707">
                                    <g id="Group_1706" data-name="Group 1706">
                                      <g id="Group_1705" data-name="Group 1705">
                                        <g id="Group_1704" data-name="Group 1704">
                                          <g id="Group_1703" data-name="Group 1703">
                                            <g id="Group_1702" data-name="Group 1702">
                                              <g id="Group_1701" data-name="Group 1701">
                                                <path id="Path_605" data-name="Path 605" d="M1360.664,1544.171a16.642,16.642,0,0,1-9.487-2.023s2.544,4.993,9.627,3.873Z" transform="translate(-1351.177 -1542.148)" fill="#ff9c6a"/>
                                              </g>
                                            </g>
                                          </g>
                                        </g>
                                      </g>
                                    </g>
                                  </g>
                                </g>
                              </g>
                            </g>
                          </g>
                        </g>
                      </g>
                      <g id="Group_1793" data-name="Group 1793" transform="translate(7.542 10.811)">
                        <g id="Group_1792" data-name="Group 1792">
                          <g id="Group_1771" data-name="Group 1771" transform="translate(0.945 3.219)">
                            <g id="Group_1770" data-name="Group 1770">
                              <g id="Group_1769" data-name="Group 1769">
                                <g id="Group_1735" data-name="Group 1735" transform="translate(10.774)">
                                  <g id="Group_1723" data-name="Group 1723" transform="translate(1.006 2.621)">
                                    <g id="Group_1722" data-name="Group 1722">
                                      <g id="Group_1721" data-name="Group 1721">
                                        <g id="Group_1720" data-name="Group 1720">
                                          <g id="Group_1719" data-name="Group 1719">
                                            <g id="Group_1718" data-name="Group 1718">
                                              <g id="Group_1717" data-name="Group 1717">
                                                <g id="Group_1716" data-name="Group 1716">
                                                  <g id="Group_1715" data-name="Group 1715">
                                                    <g id="Group_1714" data-name="Group 1714">
                                                      <path id="Path_606" data-name="Path 606" d="M1369.843,1511.785a1.022,1.022,0,0,1-.915,1.095.977.977,0,0,1-1.112-.849,1.022,1.022,0,0,1,.913-1.1A.979.979,0,0,1,1369.843,1511.785Z" transform="translate(-1367.811 -1510.928)" fill="#1a2e35"/>
                                                    </g>
                                                  </g>
                                                </g>
                                              </g>
                                            </g>
                                          </g>
                                        </g>
                                      </g>
                                    </g>
                                  </g>
                                  <g id="Group_1734" data-name="Group 1734">
                                    <g id="Group_1733" data-name="Group 1733">
                                      <g id="Group_1732" data-name="Group 1732">
                                        <g id="Group_1731" data-name="Group 1731">
                                          <g id="Group_1730" data-name="Group 1730">
                                            <g id="Group_1729" data-name="Group 1729">
                                              <g id="Group_1728" data-name="Group 1728">
                                                <g id="Group_1727" data-name="Group 1727">
                                                  <g id="Group_1726" data-name="Group 1726">
                                                    <g id="Group_1725" data-name="Group 1725">
                                                      <g id="Group_1724" data-name="Group 1724">
                                                        <path id="Path_607" data-name="Path 607" d="M1370.126,1507.391c-.118.141-.928-.379-2.026-.3-1.1.06-1.864.679-1.992.552-.063-.055.05-.3.384-.583a2.8,2.8,0,0,1,1.584-.606,2.691,2.691,0,0,1,1.624.406C1370.054,1507.094,1370.185,1507.327,1370.126,1507.391Z" transform="translate(-1366.092 -1506.446)" fill="#1a2e35"/>
                                                      </g>
                                                    </g>
                                                  </g>
                                                </g>
                                              </g>
                                            </g>
                                          </g>
                                        </g>
                                      </g>
                                    </g>
                                  </g>
                                </g>
                                <g id="Group_1757" data-name="Group 1757" transform="translate(0 0.926)">
                                  <g id="Group_1745" data-name="Group 1745" transform="translate(1.413 2.436)">
                                    <g id="Group_1744" data-name="Group 1744">
                                      <g id="Group_1743" data-name="Group 1743">
                                        <g id="Group_1742" data-name="Group 1742">
                                          <g id="Group_1741" data-name="Group 1741">
                                            <g id="Group_1740" data-name="Group 1740">
                                              <g id="Group_1739" data-name="Group 1739">
                                                <g id="Group_1738" data-name="Group 1738">
                                                  <g id="Group_1737" data-name="Group 1737">
                                                    <g id="Group_1736" data-name="Group 1736">
                                                      <path id="Path_608" data-name="Path 608" d="M1352.116,1513.053a1.022,1.022,0,0,1-.915,1.094.977.977,0,0,1-1.112-.849,1.022,1.022,0,0,1,.913-1.095A.978.978,0,0,1,1352.116,1513.053Z" transform="translate(-1350.084 -1512.195)" fill="#1a2e35"/>
                                                    </g>
                                                  </g>
                                                </g>
                                              </g>
                                            </g>
                                          </g>
                                        </g>
                                      </g>
                                    </g>
                                  </g>
                                  <g id="Group_1756" data-name="Group 1756">
                                    <g id="Group_1755" data-name="Group 1755">
                                      <g id="Group_1754" data-name="Group 1754">
                                        <g id="Group_1753" data-name="Group 1753">
                                          <g id="Group_1752" data-name="Group 1752">
                                            <g id="Group_1751" data-name="Group 1751">
                                              <g id="Group_1750" data-name="Group 1750">
                                                <g id="Group_1749" data-name="Group 1749">
                                                  <g id="Group_1748" data-name="Group 1748">
                                                    <g id="Group_1747" data-name="Group 1747">
                                                      <g id="Group_1746" data-name="Group 1746">
                                                        <path id="Path_609" data-name="Path 609" d="M1351.7,1508.974c-.117.141-.93-.378-2.026-.3-1.1.06-1.865.679-1.993.552-.062-.055.049-.3.384-.582a2.8,2.8,0,0,1,1.584-.607,2.694,2.694,0,0,1,1.623.406C1351.631,1508.679,1351.762,1508.911,1351.7,1508.974Z" transform="translate(-1347.669 -1508.03)" fill="#1a2e35"/>
                                                      </g>
                                                    </g>
                                                  </g>
                                                </g>
                                              </g>
                                            </g>
                                          </g>
                                        </g>
                                      </g>
                                    </g>
                                  </g>
                                </g>
                                <g id="Group_1768" data-name="Group 1768" transform="translate(7.439 0.633)">
                                  <g id="Group_1767" data-name="Group 1767">
                                    <g id="Group_1766" data-name="Group 1766">
                                      <g id="Group_1765" data-name="Group 1765">
                                        <g id="Group_1764" data-name="Group 1764">
                                          <g id="Group_1763" data-name="Group 1763">
                                            <g id="Group_1762" data-name="Group 1762">
                                              <g id="Group_1761" data-name="Group 1761">
                                                <g id="Group_1760" data-name="Group 1760">
                                                  <g id="Group_1759" data-name="Group 1759">
                                                    <g id="Group_1758" data-name="Group 1758">
                                                      <path id="Path_610" data-name="Path 610" d="M1361.513,1516.638a7.217,7.217,0,0,1,1.761-.441c.278-.048.54-.121.574-.316a1.426,1.426,0,0,0-.243-.818l-.971-2.078a36.644,36.644,0,0,1-2.234-5.457,36.794,36.794,0,0,1,2.668,5.264q.49,1.1.938,2.094a1.627,1.627,0,0,1,.219,1.09.706.706,0,0,1-.433.44,1.91,1.91,0,0,1-.471.1A7.2,7.2,0,0,1,1361.513,1516.638Z" transform="translate(-1360.389 -1507.527)" fill="#1a2e35"/>
                                                    </g>
                                                  </g>
                                                </g>
                                              </g>
                                            </g>
                                          </g>
                                        </g>
                                      </g>
                                    </g>
                                  </g>
                                </g>
                              </g>
                            </g>
                          </g>
                          <g id="Group_1781" data-name="Group 1781" transform="translate(0 0.08)">
                            <g id="Group_1780" data-name="Group 1780">
                              <g id="Group_1779" data-name="Group 1779">
                                <g id="Group_1778" data-name="Group 1778">
                                  <g id="Group_1777" data-name="Group 1777">
                                    <g id="Group_1776" data-name="Group 1776">
                                      <g id="Group_1775" data-name="Group 1775">
                                        <g id="Group_1774" data-name="Group 1774">
                                          <g id="Group_1773" data-name="Group 1773">
                                            <g id="Group_1772" data-name="Group 1772">
                                              <path id="Path_611" data-name="Path 611" d="M1351.029,1501.768c-.088.306-1.193.237-2.471.479-1.282.216-2.295.662-2.484.406-.085-.123.077-.416.478-.733a4.372,4.372,0,0,1,3.774-.674C1350.812,1501.4,1351.066,1501.624,1351.029,1501.768Z" transform="translate(-1346.052 -1501.077)" fill="#1a2e35"/>
                                            </g>
                                          </g>
                                        </g>
                                      </g>
                                    </g>
                                  </g>
                                </g>
                              </g>
                            </g>
                          </g>
                          <g id="Group_1791" data-name="Group 1791" transform="translate(11.387)">
                            <g id="Group_1790" data-name="Group 1790">
                              <g id="Group_1789" data-name="Group 1789">
                                <g id="Group_1788" data-name="Group 1788">
                                  <g id="Group_1787" data-name="Group 1787">
                                    <g id="Group_1786" data-name="Group 1786">
                                      <g id="Group_1785" data-name="Group 1785">
                                        <g id="Group_1784" data-name="Group 1784">
                                          <g id="Group_1783" data-name="Group 1783">
                                            <g id="Group_1782" data-name="Group 1782">
                                              <path id="Path_612" data-name="Path 612" d="M1369.275,1501.956c-.177.262-.95.054-1.859.1-.912.017-1.667.28-1.862.031-.086-.121.018-.379.339-.637a2.7,2.7,0,0,1,3-.108C1369.229,1501.579,1369.352,1501.828,1369.275,1501.956Z" transform="translate(-1365.524 -1500.941)" fill="#1a2e35"/>
                                            </g>
                                          </g>
                                        </g>
                                      </g>
                                    </g>
                                  </g>
                                </g>
                              </g>
                            </g>
                          </g>
                        </g>
                      </g>
                    </g>
                  </g>
                </g>
                <g id="Group_1818" data-name="Group 1818" transform="translate(0 21.543)">
                  <g id="Group_1806" data-name="Group 1806">
                    <g id="Group_1805" data-name="Group 1805">
                      <g id="Group_1804" data-name="Group 1804">
                        <g id="Group_1803" data-name="Group 1803">
                          <g id="Group_1802" data-name="Group 1802">
                            <g id="Group_1801" data-name="Group 1801">
                              <g id="Group_1800" data-name="Group 1800">
                                <g id="Group_1799" data-name="Group 1799">
                                  <g id="Group_1798" data-name="Group 1798">
                                    <g id="Group_1797" data-name="Group 1797">
                                      <path id="Path_613" data-name="Path 613" d="M1331.894,1517.3c-.125-.045-5-1.123-4.521,3.749s5.762,3.284,5.757,3.143S1331.894,1517.3,1331.894,1517.3Z" transform="translate(-1327.34 -1517.169)" fill="#ffc19d"/>
                                    </g>
                                  </g>
                                </g>
                              </g>
                            </g>
                          </g>
                        </g>
                      </g>
                    </g>
                  </g>
                  <g id="Group_1817" data-name="Group 1817" transform="translate(1.262 1.657)">
                    <g id="Group_1816" data-name="Group 1816">
                      <g id="Group_1815" data-name="Group 1815">
                        <g id="Group_1814" data-name="Group 1814">
                          <g id="Group_1813" data-name="Group 1813">
                            <g id="Group_1812" data-name="Group 1812">
                              <g id="Group_1811" data-name="Group 1811">
                                <g id="Group_1810" data-name="Group 1810">
                                  <g id="Group_1809" data-name="Group 1809">
                                    <g id="Group_1808" data-name="Group 1808">
                                      <g id="Group_1807" data-name="Group 1807">
                                        <path id="Path_614" data-name="Path 614" d="M1331.867,1523.769c-.023-.013-.079.068-.216.148a.853.853,0,0,1-.633.075,2.111,2.111,0,0,1-1.159-1.788,2.825,2.825,0,0,1,.118-1.239.987.987,0,0,1,.573-.715.435.435,0,0,1,.524.183c.079.13.057.23.084.236s.1-.092.037-.289a.546.546,0,0,0-.222-.287.644.644,0,0,0-.481-.077,1.2,1.2,0,0,0-.812.843,2.883,2.883,0,0,0-.159,1.387,2.213,2.213,0,0,0,1.446,1.981.912.912,0,0,0,.763-.206C1331.87,1523.888,1331.884,1523.776,1331.867,1523.769Z" transform="translate(-1329.497 -1520.002)" fill="#ff9c6a"/>
                                      </g>
                                    </g>
                                  </g>
                                </g>
                              </g>
                            </g>
                          </g>
                        </g>
                      </g>
                    </g>
                  </g>
                </g>
                <g id="Group_1821" data-name="Group 1821" transform="translate(2.611)">
                  <g id="Group_1820" data-name="Group 1820">
                    <g id="Group_1819" data-name="Group 1819">
                      <path id="Path_615" data-name="Path 615" d="M1356.831,1486.284c-.335,1.939-4.268,3.716-7.528,3.621-3.006-.087-4.491-1.579-6.676-2.639-1.382-.671-1.382-.671-3.259-.366-1.517.247-2.3,2.036-3.156,3.316,1.622,3.537.967,7.65.279,11.48a1.944,1.944,0,0,1-.493,1.164,1.554,1.554,0,0,1-1.974-.3,6.041,6.041,0,0,1-1.538-3.095,20.135,20.135,0,0,1-.482-7.922,13.7,13.7,0,0,1,3.3-7.152,12.981,12.981,0,0,1,8.856-4.042,15.942,15.942,0,0,1,9.446,2.682,9.339,9.339,0,0,1,3.229,3.253" transform="translate(-1331.805 -1480.332)" fill="#1a2e35"/>
                    </g>
                  </g>
                </g>
              </g>
            </g>
            <path id="Path_616" data-name="Path 616" d="M1360.767,1526.421l-2.483-1.159a.838.838,0,0,0-.451-.114.723.723,0,0,0-.43.292,2.309,2.309,0,0,0-.275,2.537,1.941,1.941,0,0,0,2.331.857,2.648,2.648,0,0,0,1.376-2.337Z" transform="translate(-1339.252 -1495.791)" fill="#ff9c6a"/>
            <g id="Group_1824" data-name="Group 1824" transform="translate(17.315 29.037)">
              <path id="Path_617" data-name="Path 617" d="M1359.323,1528.786c.007.021-.115.093-.363.145a2.158,2.158,0,0,1-1.068-.079,2.228,2.228,0,0,1-1.234-1.025,2.291,2.291,0,0,1-.151-1.958,2.4,2.4,0,0,1,.576-.869,2.184,2.184,0,0,1,.4-.3.6.6,0,0,1,.575-.036,3.643,3.643,0,0,1,.386.22l.339.207.6.379a.711.711,0,1,1-.132.226l-.627-.339-.347-.192c-.119-.063-.248-.145-.351-.185a.261.261,0,0,0-.271.026,1.938,1.938,0,0,0-.326.259,2.1,2.1,0,0,0-.483.74,2,2,0,0,0,.1,1.663,2.05,2.05,0,0,0,1.026.943,2.428,2.428,0,0,0,.961.18C1359.181,1528.782,1359.316,1528.759,1359.323,1528.786Z" transform="translate(-1356.355 -1524.604)" fill="#1a2e35"/>
            </g>
            <g id="Group_1825" data-name="Group 1825" transform="translate(9.232 16.858)">
              <path id="Path_618" data-name="Path 618" d="M1352.8,1508.939a8.784,8.784,0,0,0-.194-1.234,5.073,5.073,0,0,0-1.855-2.758,5.009,5.009,0,0,0-4.743-.706,5.018,5.018,0,0,0-2.321,1.745,4.978,4.978,0,0,0,0,5.907,5.016,5.016,0,0,0,2.321,1.745,5.045,5.045,0,0,0,6.6-3.465,8.8,8.8,0,0,0,.194-1.233.291.291,0,0,1,.005.082l0,.243a2.283,2.283,0,0,1-.031.394,3.567,3.567,0,0,1-.1.531,4.789,4.789,0,0,1-.55,1.374,5.136,5.136,0,0,1-3.459,2.448,5.159,5.159,0,0,1-2.715-.214,5.174,5.174,0,0,1-2.409-1.8,5.144,5.144,0,0,1,0-6.121,5.163,5.163,0,0,1,2.408-1.8,5.174,5.174,0,0,1,2.714-.215,5.137,5.137,0,0,1,3.46,2.449,4.792,4.792,0,0,1,.55,1.373,3.572,3.572,0,0,1,.1.532,2.277,2.277,0,0,1,.031.394l0,.243A.3.3,0,0,1,1352.8,1508.939Z" transform="translate(-1342.534 -1503.777)" fill="#1a2e35"/>
            </g>
            <g id="Group_1826" data-name="Group 1826" transform="translate(21.643 16.51)">
              <path id="Path_619" data-name="Path 619" d="M1373.763,1508.215a8.8,8.8,0,0,0-.19-1.2,4.94,4.94,0,0,0-1.808-2.687,4.876,4.876,0,0,0-4.619-.688,4.885,4.885,0,0,0-2.26,1.7,4.85,4.85,0,0,0,0,5.753,4.884,4.884,0,0,0,2.26,1.7,4.915,4.915,0,0,0,6.427-3.374,8.8,8.8,0,0,0,.19-1.2,1.976,1.976,0,0,1,0,.317,2.291,2.291,0,0,1-.03.384,3.555,3.555,0,0,1-.092.518,4.993,4.993,0,0,1-3.908,3.726,5.041,5.041,0,0,1-2.647-.209,5.038,5.038,0,0,1-2.348-1.753,5.014,5.014,0,0,1,0-5.967,5.041,5.041,0,0,1,2.348-1.753,5.04,5.04,0,0,1,2.647-.209,4.991,4.991,0,0,1,3.908,3.726,3.561,3.561,0,0,1,.092.518,2.289,2.289,0,0,1,.03.384A1.976,1.976,0,0,1,1373.763,1508.215Z" transform="translate(-1363.756 -1503.183)" fill="#1a2e35"/>
            </g>
            <g id="Group_1827" data-name="Group 1827" transform="translate(19.255 19.859)">
              <path id="Path_620" data-name="Path 620" d="M1362.153,1509.469c-.02.02-.137-.078-.353-.18a2.043,2.043,0,0,0-.894-.2,2,2,0,0,0-.886.227c-.211.11-.324.214-.345.194s.066-.155.277-.306a1.753,1.753,0,0,1,1.911-.033C1362.081,1509.317,1362.17,1509.455,1362.153,1509.469Z" transform="translate(-1359.673 -1508.908)" fill="#1a2e35"/>
            </g>
            <g id="Group_1828" data-name="Group 1828" transform="translate(5.074 21.295)">
              <path id="Path_621" data-name="Path 621" d="M1339.981,1511.367a43.9,43.9,0,0,1-4.557,3.4,43.822,43.822,0,0,1,4.557-3.4Z" transform="translate(-1335.423 -1511.365)" fill="#1a2e35"/>
            </g>
          </g>
          <g id="Group_1830" data-name="Group 1830" transform="translate(31.782 43.793)" opacity="0.3">
            <path id="Path_622" data-name="Path 622" d="M1335.982,1550.854a14.313,14.313,0,0,0,5.2,12.815,1.173,1.173,0,0,0,1.041.327,1.142,1.142,0,0,0,.539-.556,9.4,9.4,0,0,0,1.151-6.187c-.612,1.61-1.136,3.191-1.754,4.875C1338.793,1560.085,1336.7,1555.741,1335.982,1550.854Z" transform="translate(-1335.903 -1550.854)"/>
          </g>
          <path id="Path_623" data-name="Path 623" d="M1358.394,1561.489l2.834-1.035.469,4.792s3.059-5.573,4.323-8.116.614-7.031.614-7.031.453,3.909-2.612,8.9l-2.313,3.759v-3.937Z" transform="translate(-1313.702 -1506.756)" opacity="0.3"/>
          <g id="Group_1831" data-name="Group 1831" transform="translate(2.562 78.005)" opacity="0.3">
            <path id="Path_624" data-name="Path 624" d="M1294.926,1610.812a7.582,7.582,0,0,0-4.106-.515,7.919,7.919,0,0,0-4.087,1.546,4.562,4.562,0,0,0-1.785,3.857l.142.02c.988-2.676,2.955-4.624,5.492-4.859a8.328,8.328,0,0,1,6.751,2.753A3.631,3.631,0,0,0,1294.926,1610.812Z" transform="translate(-1284.932 -1610.224)"/>
          </g>
          <g id="Group_1832" data-name="Group 1832" transform="translate(72.299 79.328)" opacity="0.3">
            <path id="Path_625" data-name="Path 625" d="M1417.119,1614.488a6.5,6.5,0,0,0-3.66-1.886,8.227,8.227,0,0,0-6.829,1.977l.54-.439a8.616,8.616,0,0,1,4.547-1.235,6.579,6.579,0,0,1,4.335,1.731,11.569,11.569,0,0,1,2.3,3.7A4.643,4.643,0,0,0,1417.119,1614.488Z" transform="translate(-1406.63 -1612.487)"/>
          </g>
          <g id="Group_1833" data-name="Group 1833" transform="translate(64.816 49.841)">
            <path id="Path_626" data-name="Path 626" d="M1393.327,1570.971a1.711,1.711,0,0,1,.127-.387l.4-1.031c.343-.869.814-2.071,1.311-3.407s.926-2.554,1.234-3.436l.369-1.043a1.745,1.745,0,0,1,.157-.376,1.711,1.711,0,0,1-.088.4c-.068.252-.175.616-.313,1.063-.277.894-.687,2.12-1.185,3.46s-.989,2.535-1.364,3.392c-.187.429-.344.774-.457,1.009A1.72,1.72,0,0,1,1393.327,1570.971Z" transform="translate(-1393.325 -1561.289)" fill="#1a2e35"/>
          </g>
          <g id="Group_1834" data-name="Group 1834" transform="translate(19.346 52.278)">
            <path id="Path_627" data-name="Path 627" d="M1315.743,1573.059c-.05.011-.435-1.678-.861-3.771s-.73-3.8-.68-3.808.436,1.678.861,3.771S1315.793,1573.05,1315.743,1573.059Z" transform="translate(-1314.197 -1565.481)" fill="#1a2e35"/>
          </g>
          <g id="Group_1841" data-name="Group 1841" transform="translate(3.916 57.413)">
            <g id="Group_1839" data-name="Group 1839">
              <path id="Path_628" data-name="Path 628" d="M1314.774,1598.122c.112.057-1.3-11.056-1.3-11.056s.891-8.433,1.392-8.823l.013-2.975s1.379-.836,1.749.513c0,0,1.223-1.062,1.437,1.466s.258,5.111.258,5.111l2.722,6.806.448.227a57.619,57.619,0,0,1,.925-6.117c.34-.785.573-2.693,1.864-2.406s1.4,1.354,1.166,3.093a25.47,25.47,0,0,0-.413,4.659,30.923,30.923,0,0,1,.461,5.561,11.09,11.09,0,0,1-2.362,5.493c-1.129,1.456-3.287,4.465-4.46,5.372C1318.265,1605.362,1314.774,1598.122,1314.774,1598.122Z" transform="translate(-1298.136 -1575.011)" fill="#ffc19d"/>
              <g id="Group_1835" data-name="Group 1835" transform="translate(16.79 3.375)">
                <path id="Path_629" data-name="Path 629" d="M1317.179,1591.475a2.361,2.361,0,0,1,.008-.475c.023-.341.053-.774.089-1.291.083-1.089.21-2.593.363-4.253.078-.828.153-1.617.222-2.339a4.186,4.186,0,0,0,.012-1,1.424,1.424,0,0,0-.339-.767,1.528,1.528,0,0,0-1.112-.488,2.82,2.82,0,0,0-.463.06c0-.006.035-.026.111-.059a1.206,1.206,0,0,1,.35-.073,1.564,1.564,0,0,1,1.209.471,1.545,1.545,0,0,1,.4.832,4.217,4.217,0,0,1,.006,1.042c-.064.723-.134,1.513-.207,2.341-.152,1.66-.3,3.161-.416,4.248l-.147,1.286A2.363,2.363,0,0,1,1317.179,1591.475Z" transform="translate(-1315.958 -1580.783)" fill="#ff9c6a"/>
              </g>
              <g id="Group_1836" data-name="Group 1836" transform="translate(17.91 9.522)">
                <path id="Path_630" data-name="Path 630" d="M1319.438,1591.294a3.846,3.846,0,0,0-.483.878,14.806,14.806,0,0,0-.452,2.4c-.147.95-.289,1.809-.4,2.429a.512.512,0,1,1-.129-.02c.08-.625.2-1.487.349-2.437a11.513,11.513,0,0,1,.514-2.418,2.3,2.3,0,0,1,.394-.648C1319.347,1591.341,1319.432,1591.287,1319.438,1591.294Z" transform="translate(-1317.873 -1591.293)" fill="#ff9c6a"/>
              </g>
              <g id="Group_1837" data-name="Group 1837" transform="translate(18.469 0.623)">
                <path id="Path_631" data-name="Path 631" d="M1318.834,1576.076a1.4,1.4,0,0,1,.094.35c.05.227.111.558.179.968.136.82.284,1.959.378,3.224s.114,2.415.1,3.246c-.006.415-.019.751-.035.984a1.367,1.367,0,0,1-.042.36,11.894,11.894,0,0,1-.053-1.343c-.02-.828-.061-1.973-.154-3.233s-.22-2.4-.323-3.22A11.859,11.859,0,0,1,1318.834,1576.076Z" transform="translate(-1318.828 -1576.076)" fill="#ff9c6a"/>
              </g>
              <g id="Group_1838" data-name="Group 1838" transform="translate(24.686 10.54)">
                <path id="Path_632" data-name="Path 632" d="M1331.1,1593.536a.988.988,0,0,1-.917.078c-.52-.155-.763-.556-.717-.576a2.4,2.4,0,0,0,1.634.5Z" transform="translate(-1329.461 -1593.035)" fill="#ff9c6a"/>
              </g>
              <path id="Path_633" data-name="Path 633" d="M1304.037,1612.167l-7.191,3.022h-4.284s-4.238,1.322-4.89,5.295-.745,6.017,1.118,6.508a23.894,23.894,0,0,0,9.733-.32c2.608-.865,9.439-6.378,9.439-6.378l.659-3.988Z" transform="translate(-1287.247 -1590.438)" fill="#ffc19d"/>
            </g>
            <g id="Group_1840" data-name="Group 1840" transform="translate(16.311 19.591)">
              <path id="Path_634" data-name="Path 634" d="M1317.3,1615.039c-.009.009-.081-.058-.2-.188a4.485,4.485,0,0,1-.467-.594,8.131,8.131,0,0,1-1-2.274,13.53,13.53,0,0,1-.443-2.444,4.546,4.546,0,0,1-.028-1.027,7.463,7.463,0,0,1,.158,1.012,18.2,18.2,0,0,0,.491,2.408,9.49,9.49,0,0,0,.937,2.255C1317.064,1614.725,1317.328,1615.016,1317.3,1615.039Z" transform="translate(-1315.14 -1608.512)" fill="#ff9c6a"/>
            </g>
          </g>
          <g id="Group_1842" data-name="Group 1842" transform="translate(21.883 74.941)">
            <path id="Path_635" data-name="Path 635" d="M1321.881,1614.836a7.4,7.4,0,0,0,.409-1.541,4.971,4.971,0,0,0-.965-3.609c-.437-.612-.928-1.145-1.342-1.661a7.692,7.692,0,0,1-.973-1.47,3.855,3.855,0,0,1-.36-1.134,1.291,1.291,0,0,1-.012-.436,4.915,4.915,0,0,0,.49,1.511,8.216,8.216,0,0,0,.987,1.421c.417.505.914,1.036,1.361,1.662a5.176,5.176,0,0,1,.9,1.967,5.021,5.021,0,0,1,.048,1.766,4.572,4.572,0,0,1-.33,1.143,2.51,2.51,0,0,1-.145.288C1321.909,1614.807,1321.887,1614.839,1321.881,1614.836Z" transform="translate(-1318.627 -1604.985)" fill="#ff9c6a"/>
          </g>
          <g id="Group_1869" data-name="Group 1869" transform="translate(4.241 41.556)">
            <g id="Group_1843" data-name="Group 1843" transform="translate(6.852 19.459)">
              <path id="Path_636" data-name="Path 636" d="M1302.862,1587.633a71.722,71.722,0,0,1-3.34-6.461,71.722,71.722,0,0,1,3.34,6.461Z" transform="translate(-1299.519 -1581.172)" fill="#fff"/>
            </g>
            <g id="Group_1844" data-name="Group 1844" transform="translate(21.425 7.733)">
              <path id="Path_637" data-name="Path 637" d="M1325.12,1566.361a44.575,44.575,0,0,1,2.335-5.242,44.742,44.742,0,0,1-2.335,5.242Z" transform="translate(-1325.117 -1561.12)" fill="#fff"/>
            </g>
            <g id="Group_1845" data-name="Group 1845" transform="translate(29.541 17.61)">
              <path id="Path_638" data-name="Path 638" d="M1342.381,1581.777a32.414,32.414,0,0,1-3.118-3.766,32.48,32.48,0,0,1,3.118,3.766Z" transform="translate(-1339.262 -1578.01)" fill="#fff"/>
            </g>
            <g id="Group_1846" data-name="Group 1846" transform="translate(30.033 29.338)">
              <path id="Path_639" data-name="Path 639" d="M1340.114,1601.66a26.7,26.7,0,0,1,2.606-3.594,26.839,26.839,0,0,1-2.606,3.594Z" transform="translate(-1340.112 -1598.065)" fill="#fff"/>
            </g>
            <g id="Group_1847" data-name="Group 1847" transform="translate(24.415 44.09)">
              <path id="Path_640" data-name="Path 640" d="M1332.523,1628.456a3.475,3.475,0,0,1-.416-.713c-.233-.453-.535-1.088-.839-1.8s-.551-1.374-.716-1.856a3.449,3.449,0,0,1-.224-.794,3.893,3.893,0,0,1,.346.748l.764,1.83.787,1.819A3.917,3.917,0,0,1,1332.523,1628.456Z" transform="translate(-1330.324 -1623.29)" fill="#fff"/>
            </g>
            <g id="Group_1848" data-name="Group 1848" transform="translate(32.201 41.48)">
              <path id="Path_641" data-name="Path 641" d="M1348.185,1619.664a25.714,25.714,0,0,1-4.273-.827,25.649,25.649,0,0,1,4.273.827Z" transform="translate(-1343.912 -1618.827)" fill="#fff"/>
            </g>
            <g id="Group_1849" data-name="Group 1849" transform="translate(44.02 22.488)">
              <path id="Path_642" data-name="Path 642" d="M1364.506,1590.927a52.688,52.688,0,0,1,4.243-4.576,52.9,52.9,0,0,1-4.243,4.576Z" transform="translate(-1364.505 -1586.35)" fill="#fff"/>
            </g>
            <g id="Group_1850" data-name="Group 1850" transform="translate(46.794 41.357)">
              <path id="Path_643" data-name="Path 643" d="M1374.338,1624.666c-.04.032-1.187-1.3-2.562-2.966s-2.46-3.05-2.42-3.083,1.186,1.3,2.563,2.965S1374.377,1624.633,1374.338,1624.666Z" transform="translate(-1369.354 -1618.617)" fill="#fff"/>
            </g>
            <g id="Group_1851" data-name="Group 1851" transform="translate(0 38.733)">
              <path id="Path_644" data-name="Path 644" d="M1291.946,1614.133c.026.051-1.022.582-2.164,1.459s-1.938,1.74-1.979,1.7a2.662,2.662,0,0,1,.483-.6,11.455,11.455,0,0,1,2.952-2.252A2.68,2.68,0,0,1,1291.946,1614.133Z" transform="translate(-1287.802 -1614.131)" fill="#fff"/>
            </g>
            <g id="Group_1852" data-name="Group 1852" transform="translate(5.244 30.895)">
              <path id="Path_645" data-name="Path 645" d="M1298.593,1600.728a14.7,14.7,0,0,1-1.82,2.738,14.66,14.66,0,0,1,1.82-2.738Z" transform="translate(-1296.769 -1600.727)" fill="#fff"/>
            </g>
            <g id="Group_1853" data-name="Group 1853" transform="translate(12.916 35.563)">
              <path id="Path_646" data-name="Path 646" d="M1310.626,1611.741a4.687,4.687,0,0,1-.689-3.032c.055,0,.074.7.267,1.534S1310.676,1611.717,1310.626,1611.741Z" transform="translate(-1309.887 -1608.709)" fill="#fff"/>
            </g>
            <g id="Group_1854" data-name="Group 1854" transform="translate(11.87 14.122)">
              <path id="Path_647" data-name="Path 647" d="M1310.86,1572.065a5.366,5.366,0,0,1-1.367.287,5.3,5.3,0,0,1-1.393.1,10.6,10.6,0,0,1,2.76-.392Z" transform="translate(-1308.1 -1572.045)" fill="#fff"/>
            </g>
            <g id="Group_1855" data-name="Group 1855" transform="translate(16.782 5.365)">
              <path id="Path_648" data-name="Path 648" d="M1319.516,1557.075a10.964,10.964,0,1,1-1.286.607A5.519,5.519,0,0,1,1319.516,1557.075Z" transform="translate(-1317.032 -1557.071)" fill="#fff"/>
            </g>
            <g id="Group_1856" data-name="Group 1856" transform="translate(30.332 5.673)">
              <path id="Path_649" data-name="Path 649" d="M1343.225,1561a24.885,24.885,0,0,1-2.59-3.4,24.76,24.76,0,0,1,2.59,3.4Z" transform="translate(-1340.633 -1557.598)" fill="#fff"/>
            </g>
            <g id="Group_1857" data-name="Group 1857" transform="translate(48.107 14.446)">
              <path id="Path_650" data-name="Path 650" d="M1373.736,1576.051a8.7,8.7,0,0,1-2.147-3.45c.051-.022.432.806,1.026,1.755S1373.777,1576.015,1373.736,1576.051Z" transform="translate(-1371.585 -1572.6)" fill="#fff"/>
            </g>
            <g id="Group_1858" data-name="Group 1858" transform="translate(55.237 20.118)">
              <path id="Path_651" data-name="Path 651" d="M1385.626,1582.3a21.162,21.162,0,0,1-1.631,3.594,21.2,21.2,0,0,1,1.631-3.594Z" transform="translate(-1383.991 -1582.299)" fill="#fff"/>
            </g>
            <g id="Group_1859" data-name="Group 1859" transform="translate(54.363 6.781)">
              <path id="Path_652" data-name="Path 652" d="M1385.954,1563.63a39.164,39.164,0,0,1-3.443-4.137,39.27,39.27,0,0,1,3.443,4.137Z" transform="translate(-1382.51 -1559.492)" fill="#fff"/>
            </g>
            <g id="Group_1860" data-name="Group 1860" transform="translate(47.495)">
              <path id="Path_653" data-name="Path 653" d="M1370.666,1551.343a16.08,16.08,0,0,1-.135-3.446,16.271,16.271,0,0,1,.135,3.446Z" transform="translate(-1370.484 -1547.897)" fill="#fff"/>
            </g>
            <g id="Group_1861" data-name="Group 1861" transform="translate(51.541 2.966)">
              <path id="Path_654" data-name="Path 654" d="M1382.02,1552.983a26.68,26.68,0,0,1-4.406.59,26.75,26.75,0,0,1,4.406-.59Z" transform="translate(-1377.614 -1552.969)" fill="#fff"/>
            </g>
            <g id="Group_1862" data-name="Group 1862" transform="translate(66.242 7.585)">
              <path id="Path_655" data-name="Path 655" d="M1406,1565.973a43.612,43.612,0,0,1-2.47-5.105,21.677,21.677,0,0,1,1.318,2.513A21.945,21.945,0,0,1,1406,1565.973Z" transform="translate(-1403.525 -1560.868)" fill="#fff"/>
            </g>
            <g id="Group_1863" data-name="Group 1863" transform="translate(66.479 17.078)">
              <path id="Path_656" data-name="Path 656" d="M1403.941,1581.1a22.545,22.545,0,0,1,.8-4,22.545,22.545,0,0,1-.8,4Z" transform="translate(-1403.93 -1577.101)" fill="#fff"/>
            </g>
            <g id="Group_1864" data-name="Group 1864" transform="translate(70.687 22.183)">
              <path id="Path_657" data-name="Path 657" d="M1413.06,1591.343a46.2,46.2,0,0,1-1.93-5.513,46.311,46.311,0,0,1,1.93,5.513Z" transform="translate(-1411.126 -1585.829)" fill="#fff"/>
            </g>
            <g id="Group_1865" data-name="Group 1865" transform="translate(68.458 29.771)">
              <path id="Path_658" data-name="Path 658" d="M1410.623,1600.6a6.237,6.237,0,0,1-3.308-1.792c.036-.043.69.5,1.6.989S1410.639,1600.546,1410.623,1600.6Z" transform="translate(-1407.314 -1598.805)" fill="#fff"/>
            </g>
            <g id="Group_1866" data-name="Group 1866" transform="translate(78.512 37.907)">
              <path id="Path_659" data-name="Path 659" d="M1425.616,1615.2a10.029,10.029,0,0,1-1.1-2.481,10.011,10.011,0,0,1,1.1,2.481Z" transform="translate(-1424.506 -1612.717)" fill="#fff"/>
            </g>
            <g id="Group_1867" data-name="Group 1867" transform="translate(33.664 49.528)">
              <path id="Path_660" data-name="Path 660" d="M1346.8,1635.752a13.743,13.743,0,0,1-.368-3.163,13.807,13.807,0,0,1,.368,3.163Z" transform="translate(-1346.408 -1632.589)" fill="#fff"/>
            </g>
            <g id="Group_1868" data-name="Group 1868" transform="translate(57.703 49.048)">
              <path id="Path_661" data-name="Path 661" d="M1388.276,1634.8a13.033,13.033,0,1,1,.413-1.5A6.61,6.61,0,0,1,1388.276,1634.8Z" transform="translate(-1388.264 -1631.769)" fill="#fff"/>
            </g>
          </g>
        </g>
        <g id="Group_1877" data-name="Group 1877" transform="translate(26.442 50.148)" opacity="0.27">
          <g id="Group_1873" data-name="Group 1873">
            <g id="Group_1872" data-name="Group 1872">
              <g id="Group_1871" data-name="Group 1871">
                <path id="Path_662" data-name="Path 662" d="M1344.456,1579.76l17.486,1.512a17.551,17.551,0,1,1-11.5-18.012Z" transform="translate(-1326.905 -1562.209)"/>
              </g>
            </g>
          </g>
          <g id="Group_1876" data-name="Group 1876" transform="translate(21.904 1.978)">
            <g id="Group_1875" data-name="Group 1875">
              <g id="Group_1874" data-name="Group 1874">
                <path id="Path_663" data-name="Path 663" d="M1369.576,1565.591l-5.216,12.574,13.414.7S1377.663,1571.085,1369.576,1565.591Z" transform="translate(-1364.36 -1565.591)"/>
              </g>
            </g>
          </g>
        </g>
        <g id="Group_1910" data-name="Group 1910" transform="translate(61.794)">
          <g id="Group_1890" data-name="Group 1890">
            <g id="Group_1889" data-name="Group 1889">
              <g id="Group_1888" data-name="Group 1888">
                <g id="Group_1887" data-name="Group 1887">
                  <g id="Group_1881" data-name="Group 1881" transform="translate(0 0.071)">
                    <g id="Group_1880" data-name="Group 1880">
                      <g id="Group_1879" data-name="Group 1879">
                        <g id="Group_1878" data-name="Group 1878">
                          <path id="Path_664" data-name="Path 664" d="M1388.667,1502.569l3.117-5.492a14.716,14.716,0,1,1,3.525,3.921l.005.006Z" transform="translate(-1388.667 -1474.693)" fill="#fafafa"/>
                        </g>
                      </g>
                    </g>
                  </g>
                  <g id="Group_1886" data-name="Group 1886">
                    <g id="Group_1885" data-name="Group 1885">
                      <g id="Group_1884" data-name="Group 1884">
                        <g id="Group_1883" data-name="Group 1883">
                          <g id="Group_1882" data-name="Group 1882">
                            <path id="Path_665" data-name="Path 665" d="M1388.667,1502.518l6.656-1.521.068-.016-.043-.056-.005-.006-.063.063a15.073,15.073,0,0,0,3.022,1.822,14.719,14.719,0,0,0,4.03,1.15,13.208,13.208,0,0,0,2.326.118c.4-.023.808-.033,1.219-.067l1.242-.187a14.833,14.833,0,0,0,9.183-5.9,14.651,14.651,0,0,0,2.484-5.677,14.973,14.973,0,0,0-.174-6.537,14.491,14.491,0,0,0-3.15-6.044l-.6-.66c-.2-.222-.433-.405-.646-.609s-.426-.411-.667-.581l-.705-.528a6.308,6.308,0,0,0-.73-.483l-.745-.453-.781-.379a6.741,6.741,0,0,0-.788-.35,14.991,14.991,0,0,0-6.588-1.012,14.5,14.5,0,0,0-6.046,1.787,14.908,14.908,0,0,0-6.975,8.584,15.855,15.855,0,0,0-.639,4.78,14.616,14.616,0,0,0,.719,4.126,14.892,14.892,0,0,0,1.474,3.162V1497l-3.078,5.514,3.155-5.471.013-.022-.014-.022a14.937,14.937,0,0,1-1.446-3.15,14.556,14.556,0,0,1-.7-4.1,15.8,15.8,0,0,1,.649-4.735,14.782,14.782,0,0,1,6.921-8.479,14.34,14.34,0,0,1,5.978-1.758,14.83,14.83,0,0,1,6.508,1,6.806,6.806,0,0,1,.778.347l.771.374.736.448a6.055,6.055,0,0,1,.721.478l.7.521c.238.168.437.384.658.574s.444.382.639.6l.593.652a14.332,14.332,0,0,1,3.112,5.969,14.821,14.821,0,0,1,.177,6.459,14.5,14.5,0,0,1-2.448,5.614,14.7,14.7,0,0,1-9.075,5.852l-1.229.19c-.407.036-.811.046-1.207.07a13.094,13.094,0,0,1-2.306-.109,14.653,14.653,0,0,1-4-1.124,15.077,15.077,0,0,1-3.012-1.793l-.274-.209.21.272,0,.006.026-.071Z" transform="translate(-1388.667 -1474.571)" fill="#1a2e35"/>
                          </g>
                        </g>
                      </g>
                    </g>
                  </g>
                </g>
              </g>
            </g>
          </g>
          <g id="Group_1909" data-name="Group 1909" transform="translate(7.93 12.713)">
            <g id="Group_1896" data-name="Group 1896" transform="translate(11.668 0)">
              <g id="Group_1895" data-name="Group 1895">
                <g id="Group_1894" data-name="Group 1894">
                  <g id="Group_1893" data-name="Group 1893">
                    <g id="Group_1892" data-name="Group 1892">
                      <g id="Group_1891" data-name="Group 1891">
                        <path id="Path_666" data-name="Path 666" d="M1422.179,1497.746a1.436,1.436,0,1,0,1.436-1.436A1.436,1.436,0,0,0,1422.179,1497.746Z" transform="translate(-1422.179 -1496.31)" fill="#1a2e35"/>
                      </g>
                    </g>
                  </g>
                </g>
              </g>
            </g>
            <g id="Group_1902" data-name="Group 1902" transform="translate(5.923 0)">
              <g id="Group_1901" data-name="Group 1901">
                <g id="Group_1900" data-name="Group 1900">
                  <g id="Group_1899" data-name="Group 1899">
                    <g id="Group_1898" data-name="Group 1898">
                      <g id="Group_1897" data-name="Group 1897">
                        <path id="Path_667" data-name="Path 667" d="M1412.355,1497.746a1.436,1.436,0,1,0,1.436-1.436A1.436,1.436,0,0,0,1412.355,1497.746Z" transform="translate(-1412.355 -1496.31)" fill="#1a2e35"/>
                      </g>
                    </g>
                  </g>
                </g>
              </g>
            </g>
            <g id="Group_1908" data-name="Group 1908">
              <g id="Group_1907" data-name="Group 1907">
                <g id="Group_1906" data-name="Group 1906">
                  <g id="Group_1905" data-name="Group 1905">
                    <g id="Group_1904" data-name="Group 1904">
                      <g id="Group_1903" data-name="Group 1903">
                        <path id="Path_668" data-name="Path 668" d="M1402.419,1497.027a1.436,1.436,0,1,0,1.961-.525A1.436,1.436,0,0,0,1402.419,1497.027Z" transform="translate(-1402.226 -1496.31)" fill="#1a2e35"/>
                      </g>
                    </g>
                  </g>
                </g>
              </g>
            </g>
          </g>
        </g>
        <g id="Group_1917" data-name="Group 1917" transform="translate(25.315 45.114)">
          <g id="Group_1913" data-name="Group 1913">
            <g id="Group_1912" data-name="Group 1912">
              <g id="Group_1911" data-name="Group 1911">
                <path id="Path_669" data-name="Path 669" d="M1343.647,1572.275l18.6,1.609a18.673,18.673,0,1,1-12.238-19.164Z" transform="translate(-1324.974 -1553.601)" fill="#ececec"/>
              </g>
            </g>
          </g>
          <g id="Group_1916" data-name="Group 1916" transform="translate(23.304 2.104)">
            <g id="Group_1915" data-name="Group 1915">
              <g id="Group_1914" data-name="Group 1914">
                <path id="Path_670" data-name="Path 670" d="M1370.374,1557.2l-5.55,13.379,14.272.746S1378.979,1563.044,1370.374,1557.2Z" transform="translate(-1364.824 -1557.2)" fill="#42e2c3"/>
              </g>
            </g>
          </g>
        </g>
      </g>
    </g>
  </g>
</svg>
