<svg xmlns="http://www.w3.org/2000/svg" width="45.47" height="45.47" viewBox="0 0 45.47 45.47">
  <g id="Sample_Financial_Report_Icon" data-name="Sample Financial Report Icon" transform="translate(-1.062 -0.987)">
    <path id="Path_5105" data-name="Path 5105" d="M40.26,7.658A23.212,23.212,0,0,0,11,4.951h.37A2.015,2.015,0,0,1,13,5.494c.9.909.53,1.976.4,3.092A18.781,18.781,0,0,1,37.249,10.7a18.216,18.216,0,0,1,2,23.57l-1.34-1.324c-.2,1.719-.66,5.927-.77,6.915l7-.761-1.72-1.7A22.515,22.515,0,0,0,40.26,7.658Z" transform="translate(-0.498 0)" fill="#00fc3b"/>
    <path id="Path_5106" data-name="Path 5106" d="M37.17,41.837a2.011,2.011,0,0,1-1.5-.653,1.961,1.961,0,0,1-.5-1.54l.14-1.245a18.777,18.777,0,0,1-24.575-1.683,18.224,18.224,0,0,1-1.355-24.3l1.45,1.433c.3-2.608-.05.494.78-6.916l-7,.771,1.66,1.63A22.523,22.523,0,0,0,7.549,39.55a23.2,23.2,0,0,0,30.531,2.2,6.364,6.364,0,0,1-.91.089Z" transform="translate(0 0)" fill="#00fc3b"/>
    <path id="Path_5107" data-name="Path 5107" d="M28,18h4l-4-4Z" transform="translate(-0.32 -0.149)" fill="#00fc3b"/>
    <path id="Path_5108" data-name="Path 5108" d="M26,13H17a2,2,0,0,0-2,2V33a2,2,0,0,0,2,2H31a2,2,0,0,0,2-2c0-14.55.08-13-.18-13H27a1,1,0,0,1-1-1ZM25,31H19a1,1,0,0,1,0-2h6a1,1,0,0,1,0,2Zm0-4H19a1,1,0,0,1,0-2h6a1,1,0,0,1,0,2Zm0-4H19a1,1,0,0,1,0-2h6a1,1,0,0,1,0,2Z" transform="translate(-0.248 -0.24)" fill="#00fc3b"/>
  </g>
</svg>
