<svg xmlns="http://www.w3.org/2000/svg" width="54.855" height="74.41" viewBox="0 0 54.855 74.41">
  <g id="shareholder" transform="translate(-7.996 -0.002)">
    <path id="Path_5999" data-name="Path 5999" d="M10.493,26.179h23.9a3.684,3.684,0,0,1,2.647,1.106L53.732,43.978a2.5,2.5,0,0,0,1.774.737,1.812,1.812,0,0,0,.184-.006,2.443,2.443,0,0,0,1.786-.977,27.408,27.408,0,0,0,5.25-18.9h0a27.583,27.583,0,0,0-54.7-1.477A2.45,2.45,0,0,0,8.6,25.306,2.508,2.508,0,0,0,10.493,26.179ZM37.449,2.572a25.1,25.1,0,0,1,22.8,22.484h0A24.885,24.885,0,0,1,55.5,42.216L38.806,25.528a6.157,6.157,0,0,0-4.416-1.843l-23.9.032A25.189,25.189,0,0,1,37.449,2.572Z" transform="translate(0.001 0)" fill="#42e2c3"/>
    <path id="Path_6000" data-name="Path 6000" d="M16.727,41.815v5.531a11.18,11.18,0,0,0,3.326,7.906c1.877,1.9,3.17,3.231,4.033,4.134a4.986,4.986,0,0,1,1.368,3.443v2.556a3.74,3.74,0,0,0,3.74,3.74H44.153a3.74,3.74,0,0,0,3.74-3.74V60.4a18.3,18.3,0,0,1,1.22-6.076,18.159,18.159,0,0,0,1.273-6.551V44.741c.438-.284.873-.587,1.3-.9A2.516,2.516,0,0,0,52.7,42a2.476,2.476,0,0,0-.719-1.941l-15.6-15.6A4.949,4.949,0,0,0,32.856,23H10.494a2.509,2.509,0,0,0-1.9.873,2.441,2.441,0,0,0-.571,1.952,27.535,27.535,0,0,0,8.705,15.99Zm31.166,5.956a15.656,15.656,0,0,1-1.1,5.651A20.926,20.926,0,0,0,45.4,60.4v4.986a1.247,1.247,0,0,1-1.247,1.247H29.193a1.247,1.247,0,0,1-1.247-1.247V62.83a7.48,7.48,0,0,0-2.053-5.162c-.873-.915-2.177-2.251-4.069-4.169a8.714,8.714,0,0,1-2.6-6.152V33.6a1.9,1.9,0,0,1,1.755-1.87,1.768,1.768,0,0,1,1.305.5A2.16,2.16,0,0,1,22.96,33.8V44.6a2.493,2.493,0,0,0,1.483,2.29,27.8,27.8,0,0,0,23.449-.706ZM32.856,25.493a2.476,2.476,0,0,1,1.761.729L50.2,41.833c-.558.413-1.128.8-1.7,1.148L48.466,43a25.189,25.189,0,0,1-23.013,1.6V33.8a4.664,4.664,0,0,0-1.464-3.382,4.224,4.224,0,0,0-2.913-1.181c-.082,0-.167,0-.249.007a4.363,4.363,0,0,0-4.1,4.356v4.676a24.57,24.57,0,0,1-6.233-12.779Z" transform="translate(0 5.287)" fill="#42e2c3"/>
    <path id="Path_6001" data-name="Path 6001" d="M35.369,5.247A1.247,1.247,0,0,0,34.122,4,22.821,22.821,0,0,0,13.416,17.192a1.247,1.247,0,1,0,2.264,1.042A20.32,20.32,0,0,1,34.122,6.493a1.247,1.247,0,0,0,1.247-1.247Z" transform="translate(1.305 0.986)" fill="#42e2c3"/>
  </g>
</svg>
