<svg xmlns="http://www.w3.org/2000/svg" width="48" height="47.147" viewBox="0 0 48 47.147">
  <g id="shopping-cart_1_" data-name="shopping-cart (1)" transform="translate(0 -6.028)">
    <g id="Group_3282" data-name="Group 3282" transform="translate(0 6.028)">
      <g id="Group_3281" data-name="Group 3281" transform="translate(0 0)">
        <path id="Path_5088" data-name="Path 5088" d="M101.71,350.322a5.057,5.057,0,1,0,5.057,5.057A5.057,5.057,0,0,0,101.71,350.322Zm0,7.867a2.81,2.81,0,1,1,2.81-2.81A2.81,2.81,0,0,1,101.71,358.189Z" transform="translate(-86.377 -313.29)" fill="#42e2c3"/>
        <path id="Path_5089" data-name="Path 5089" d="M300.241,350.322a5.057,5.057,0,1,0,5.057,5.057A5.057,5.057,0,0,0,300.241,350.322Zm0,7.867a2.81,2.81,0,1,1,2.81-2.81A2.81,2.81,0,0,1,300.241,358.189Z" transform="translate(-263.878 -313.29)" fill="#42e2c3"/>
        <path id="Path_5090" data-name="Path 5090" d="M47.773,13.558a1.388,1.388,0,0,0-.891-.45L10.635,12.6l-1-3.091A5.127,5.127,0,0,0,4.844,6.028H1.114a1.124,1.124,0,0,0,0,2.248H4.844a2.9,2.9,0,0,1,2.673,1.967l7.071,21.522-.557,1.292a5.437,5.437,0,0,0,.5,4.889,5.168,5.168,0,0,0,4.176,2.36H40.368a1.124,1.124,0,0,0,0-2.248H18.708A2.835,2.835,0,0,1,16.37,36.71a3.115,3.115,0,0,1-.278-2.7L16.537,33l23.441-2.473a6.144,6.144,0,0,0,5.29-4.72L47.94,14.513A.962.962,0,0,0,47.773,13.558ZM43.1,25.3a3.8,3.8,0,0,1-3.4,2.978L16.537,30.7,11.359,14.851l34.131.506Z" transform="translate(0 -6.028)" fill="#42e2c3"/>
      </g>
    </g>
  </g>
</svg>
