<svg xmlns="http://www.w3.org/2000/svg" width="80" height="80" viewBox="0 0 80 80">
  <g id="Group_2677" data-name="Group 2677" transform="translate(-710 -5747)">
    <g id="Group_2445" data-name="Group 2445" transform="translate(598.442 5747)">
      <ellipse id="Ellipse_69" data-name="Ellipse 69" cx="10.21" cy="9.181" rx="10.21" ry="9.181" transform="translate(147.983 10.79)" fill="#42e2c3"/>
      <path id="Path_1249" data-name="Path 1249" d="M594.99,157.463l3.152-3.053,3.184,3.053h-2.164V159.8h-2.009v-2.319Z" transform="translate(-439.287 -137.171)" fill="#fff"/>
      <path id="Path_1250" data-name="Path 1250" d="M736.352,442.774a3.32,3.32,0,0,0-2.825-2.6,3.4,3.4,0,0,0-3.468,1.728,2.605,2.605,0,0,0,.292,5.2h5.843a2.219,2.219,0,0,0,2.247-2.171A2.179,2.179,0,0,0,736.352,442.774Zm-2.585,1.284v1.65h-1.433v-1.654H730.8l2.247-2.176,2.246,2.176Z" transform="translate(-564.36 -398.016)" fill="#e1e1e1"/>
      <path id="Path_1251" data-name="Path 1251" d="M888.352,689.774a3.32,3.32,0,0,0-2.824-2.6,3.4,3.4,0,0,0-3.468,1.728,2.605,2.605,0,0,0,.292,5.2h5.843a2.22,2.22,0,0,0,2.248-2.171A2.18,2.18,0,0,0,888.352,689.774Zm-2.585,1.284v1.65h-1.433v-1.654H882.8l2.248-2.177,2.246,2.177Z" transform="translate(-698.884 -617.364)" fill="#e1e1e1"/>
      <path id="Path_1252" data-name="Path 1252" d="M291.1,499.918a5.134,5.134,0,0,0-4.37-4.018,5.25,5.25,0,0,0-5.357,2.673,4.026,4.026,0,0,0,.452,8.037h9.032a3.43,3.43,0,0,0,3.473-3.365A3.37,3.37,0,0,0,291.1,499.918Zm-3.994,1.983v2.556h-2.223V501.9h-2.362L286,498.538l3.47,3.363Z" transform="translate(-166.109 -447.454)" fill="#e1e1e1"/>
      <path id="Path_1253" data-name="Path 1253" d="M724.036,584.505v-2.662l1.267,1.227.317-.318L723.81,581,722,582.752l.317.307,1.267-1.216v2.662Z" transform="translate(-559.432 -523.198)" fill="#e1e1e1"/>
      <path id="Path_1255" data-name="Path 1255" d="M727.027,362.647v-1.995l.95.92.237-.238-1.357-1.314-1.357,1.314.238.23.95-.912v1.995Z" transform="translate(-562.539 -326.885)" fill="#e1e1e1"/>
      <path id="Path_1256" data-name="Path 1256" d="M508.027,230.647v-1.995l.95.92.238-.238-1.357-1.314-1.357,1.314.237.23.95-.912v1.995Z" transform="translate(-368.676 -209.611)" fill="#e1e1e1"/>
      <path id="Path_1257" data-name="Path 1257" d="M426.027,410.646v-1.995l.95.92.238-.238-1.357-1.314-1.357,1.314.238.23.95-.912v1.995Z" transform="translate(-296.088 -369.529)" fill="#e1e1e1"/>
      <path id="Path_1259" data-name="Path 1259" d="M408.027,655.647v-1.995l.95.92.238-.238-1.357-1.314-1.357,1.314.237.23.95-.913v1.995Z" transform="translate(-280.154 -586.984)" fill="#e1e1e1"/>
      <ellipse id="Ellipse_78" data-name="Ellipse 78" cx="0.365" rx="0.365" transform="translate(175.404 79.999)" fill="#fff"/>
      <ellipse id="Ellipse_79" data-name="Ellipse 79" cx="0.729" rx="0.729" transform="translate(111.561 67.288)" fill="#fff"/>
      <ellipse id="Ellipse_80" data-name="Ellipse 80" cx="0.729" rx="0.729" transform="translate(119.699 36.865)" fill="#fff"/>
      <path id="Path_1260" data-name="Path 1260" d="M357.233,213.7h-1.753V212h-.226v1.7H353.5v.219h1.753v1.7h.226v-1.7h1.753Z" transform="translate(-225.544 -188.342)" fill="#e1e1e1"/>
      <path id="Path_1265" data-name="Path 1265" d="M445.292,664.631l.008-.617-.382,0-.008.617-.659,1.845,1.656.019Z" transform="translate(-305.886 -589.868)" fill="#3f3d56"/>
      <path id="Path_1266" data-name="Path 1266" d="M459.769,664.817l.008-.632-.393-.005-.008.633L458.7,666.7l1.7.019Z" transform="translate(-318.678 -590.019)" fill="#3f3d56"/>
      <path id="Path_1267" data-name="Path 1267" d="M474.582,664.981l.008-.616-.382,0-.008.617-.659,1.845,1.657.019Z" transform="translate(-331.815 -590.179)" fill="#3f3d56"/>
      <path id="Path_1268" data-name="Path 1268" d="M578.789,666.237l.008-.633-.393,0-.008.633-.677,1.891,1.7.02Z" transform="translate(-424.039 -591.284)" fill="#3f3d56"/>
      <path id="Path_1269" data-name="Path 1269" d="M593.809,666.417l.008-.633-.392,0-.008.633-.676,1.89,1.7.02Z" transform="translate(-437.336 -591.444)" fill="#3f3d56"/>
      <path id="Path_1270" data-name="Path 1270" d="M608.829,666.6l.008-.633-.392,0-.008.633-.676,1.89,1.7.02Z" transform="translate(-450.632 -591.604)" fill="#3f3d56"/>
      <path id="Path_1271" data-name="Path 1271" d="M510.609,665.427l.008-.633-.392,0-.008.633-.676,1.891,1.7.02Z" transform="translate(-363.684 -590.563)" fill="#3f3d56"/>
      <path id="Path_1272" data-name="Path 1272" d="M525.629,665.607l.008-.633-.391,0-.008.633-.677,1.891,1.7.02Z" transform="translate(-376.98 -590.723)" fill="#3f3d56"/>
      <path id="Path_1273" data-name="Path 1273" d="M540.649,665.787l.008-.633-.391,0-.008.633-.677,1.891,1.7.02Z" transform="translate(-390.276 -590.883)" fill="#3f3d56"/>
      <path id="Path_1274" data-name="Path 1274" d="M506.467,280.33c-.024-2.18-2.675-6.044-4.106-6.06s-4.047,3.786-4.124,5.965h-.068l-.54,43.792,8.3.1.54-43.791Z" transform="translate(-360.792 -249.719)" fill="#ff8572"/>
      <path id="Path_1275" data-name="Path 1275" d="M640.516,281.93c-.024-2.18-2.675-6.044-4.106-6.06s-4.047,3.787-4.123,5.965h-.068l-.539,43.792,8.3.1.54-43.791Z" transform="translate(-479.436 -251.144)" fill="#ff8572"/>
      <path id="Path_1276" data-name="Path 1276" d="M572.589,72.054c-.012-3.257-2.642-9.018-4.072-9.035s-4.072,5.682-4.159,8.932h-.067L563.5,137.4l8.3.1.792-65.454Z" transform="translate(-419.09 -63.02)" fill="#ff735d"/>
      <path id="Path_1277" data-name="Path 1277" d="M509.13,370.6l3.154-3.054,3.183,3.054H513.3v2.334h-2.01v-2.32Z" transform="translate(-363.289 -326.515)" fill="#6c63ff"/>
      <g id="Group_2188" data-name="Group 2188" transform="translate(136.95 0.111)" opacity="0.1">
        <path id="Path_1278" data-name="Path 1278" d="M641.87,283.523c.859-1.94,2.535-3.963,3.578-3.951,1.357.015,3.8,3.482,4.08,5.7l.029-2.378h0c-.024-2.18-2.675-6.044-4.106-6.06-1.029-.012-2.674,1.958-3.543,3.875Z" transform="translate(-625.557 -253.012)"/>
        <path id="Path_1279" data-name="Path 1279" d="M498.188,96.5h.068c.076-2.221,2.693-6.1,4.123-6.081.934.011,2.388,1.694,3.292,3.479l.219-18.128h.067c.088-3.256,2.729-8.955,4.159-8.932,1.351.016,3.773,5.16,4.047,8.475l.026-2.233h0c-.012-3.257-2.642-9.018-4.072-9.035s-4.072,5.682-4.159,8.938h-.067l-.219,18.128c-.9-1.786-2.357-3.468-3.292-3.479-1.43-.017-4.047,3.86-4.123,6.081h-.068l-.54,44.64h.034Z" transform="translate(-497.65 -64.04)"/>
      </g>
      <rect id="Rectangle_638" data-name="Rectangle 638" width="1.568" height="3.291" rx="0.784" transform="translate(148.653 2.771) rotate(0.68)" fill="#ececf3"/>
    </g>
  </g>
</svg>
