<svg xmlns="http://www.w3.org/2000/svg" width="48" height="43.856" viewBox="0 0 48 43.856">
  <g id="store" transform="translate(0 0)">
    <path id="Path_5000" data-name="Path 5000" d="M67.944,282.946a.713.713,0,0,0-.7.724v11.544H52.8v-13.7a1.665,1.665,0,0,0-1.635-1.69h-8.1a1.665,1.665,0,0,0-1.635,1.69v13.7H26.987V283.67a.7.7,0,1,0-1.4,0v11.881a1.094,1.094,0,0,0,1.075,1.11H67.571a1.094,1.094,0,0,0,1.075-1.11V283.67a.713.713,0,0,0-.7-.724Zm-25.11,12.268v-13.7a.238.238,0,0,1,.234-.242h8.1a.238.238,0,0,1,.234.242v13.7Zm0,0" transform="translate(-23.115 -252.806)" fill="#42e2c3"/>
    <path id="Path_5001" data-name="Path 5001" d="M345,306.84a1.543,1.543,0,0,0,1.542-1.542v-7.9A1.543,1.543,0,0,0,345,295.856h-8.961A1.543,1.543,0,0,0,334.5,297.4v7.9a1.543,1.543,0,0,0,1.542,1.542Zm-9.054-1.542v-7.9a.093.093,0,0,1,.094-.093H345a.093.093,0,0,1,.094.093v7.9a.093.093,0,0,1-.094.094h-8.961A.093.093,0,0,1,335.948,305.3Zm0,0" transform="translate(-303.636 -267.293)" fill="#42e2c3"/>
    <path id="Path_5002" data-name="Path 5002" d="M63.248,306.84A1.543,1.543,0,0,0,64.79,305.3v-7.9a1.543,1.543,0,0,0-1.542-1.541H54.287a1.543,1.543,0,0,0-1.542,1.541v7.9a1.543,1.543,0,0,0,1.542,1.542ZM54.194,305.3v-7.9a.093.093,0,0,1,.094-.093h8.961a.093.093,0,0,1,.094.093v7.9a.093.093,0,0,1-.094.094H54.287A.093.093,0,0,1,54.194,305.3Zm0,0" transform="translate(-47.653 -267.293)" fill="#42e2c3"/>
    <path id="Path_5003" data-name="Path 5003" d="M45.934,10.674a1.385,1.385,0,0,1,1.363-1.4.714.714,0,0,0,.7-.724V6.776a.714.714,0,0,0-.7-.724H35.69a.724.724,0,0,0,0,1.448h10.9v.417A2.822,2.822,0,0,0,44.619,9.95H33.557V3.523A3.477,3.477,0,0,0,30.136,0H17.865a3.477,3.477,0,0,0-3.421,3.523V6.052H.7a.714.714,0,0,0-.7.724V8.548a.714.714,0,0,0,.7.724,1.385,1.385,0,0,1,1.363,1.4.729.729,0,0,0,.336.618v4.946H1.137a1.1,1.1,0,0,0-1.078,1.11v3.943A1.1,1.1,0,0,0,1.137,22.4H2.4v5.572a.7.7,0,1,0,1.406,0V22.4H44.251v5.573a.7.7,0,1,0,1.406,0V22.4h1.265A1.1,1.1,0,0,0,48,21.291V17.348a1.1,1.1,0,0,0-1.078-1.11H45.657V11.251a.731.731,0,0,0,.278-.577ZM15.85,3.523a2.048,2.048,0,0,1,2.015-2.075H30.136a2.048,2.048,0,0,1,2.015,2.075v7.9A2.048,2.048,0,0,1,30.136,13.5H17.865a2.048,2.048,0,0,1-2.015-2.075v-7.9Zm30.744,17.43H1.465V17.686H46.594ZM3.809,16.238V11.4h8.526a.724.724,0,0,0,0-1.448H3.383A2.822,2.822,0,0,0,1.407,7.917V7.5H14.444v3.923a3.477,3.477,0,0,0,3.421,3.523H30.136a3.477,3.477,0,0,0,3.421-3.523V11.4H44.25v4.839Zm0,0" transform="translate(0 0)" fill="#42e2c3"/>
    <path id="Path_5004" data-name="Path 5004" d="M214.8,359.543h-.579a.724.724,0,1,0,0,1.448h.579a.724.724,0,0,0,0-1.448Zm0,0" transform="translate(-193.509 -324.832)" fill="#42e2c3"/>
    <path id="Path_5005" data-name="Path 5005" d="M195.5,31.382h.887l.91,4.352a1.839,1.839,0,0,0,1.792,1.456h4.3a1.84,1.84,0,0,0,1.712-1.184l1.42-3.759a1.164,1.164,0,0,0-1.089-1.576h-6.081a.724.724,0,1,0,0,1.448h5.67l-1.275,3.374a.384.384,0,0,1-.358.247h-4.3a.384.384,0,0,1-.374-.3l-.914-4.369a1.433,1.433,0,0,0-1.4-1.135h-.9a.724.724,0,0,0,0,1.448Zm0,0" transform="translate(-176.691 -27.044)" fill="#42e2c3"/>
    <path id="Path_5006" data-name="Path 5006" d="M232.167,111.383h-.193a.724.724,0,1,0,0,1.448h.193a.724.724,0,0,0,0-1.448Zm0,0" transform="translate(-209.592 -100.63)" fill="#42e2c3"/>
    <path id="Path_5007" data-name="Path 5007" d="M264.667,111.383h-.193a.724.724,0,0,0,0,1.448h.193a.724.724,0,0,0,0-1.448Zm0,0" transform="translate(-239.048 -100.63)" fill="#42e2c3"/>
  </g>
</svg>
