<svg xmlns="http://www.w3.org/2000/svg" width="48" height="41.817" viewBox="0 0 48 41.817">
  <g id="Group_3206" data-name="Group 3206" transform="translate(0 0)">
    <path id="Path_4961" data-name="Path 4961" d="M41.185,32.671H33.047v-3.5a2.885,2.885,0,0,0-2.78-2.985q-.121,0-.242,0H17.975a2.882,2.882,0,0,0-3.02,2.739q-.006.122,0,.244v3.48H6.815C3.674,32.651,0,34.451,0,39.512V61.14C0,66.2,3.674,68,6.815,68h34.37C44.326,68,48,66.2,48,61.14V39.532C48,34.471,44.336,32.671,41.185,32.671Zm-24.257-3.5a.93.93,0,0,1,1.057-1.064h12.04a.927.927,0,0,1,1.057,1.064v3.48H16.928Zm29.1,31.969c0,4.4-3.378,4.872-4.84,4.872H6.815c-1.452,0-4.84-.477-4.84-4.872V39.532c0-4.4,3.378-4.872,4.84-4.872h34.37c1.452,0,4.84.477,4.84,4.872V61.14Z" transform="translate(0 -26.184)" fill="#42e2c3"/>
  </g>
</svg>
