<svg xmlns="http://www.w3.org/2000/svg" width="45.47" height="45.47" viewBox="0 0 45.47 45.47">
  <g id="System_Generated_Projections_POP_UP_Icon" data-name="System Generated Projections POP UP Icon" transform="translate(0)">
    <path id="Path_5099" data-name="Path 5099" d="M123.925,108.909l-1.784-1.03a10.316,10.316,0,0,0,0-4.36l1.784-1.03a1.336,1.336,0,0,0,.489-1.825l-2.673-4.629a1.337,1.337,0,0,0-1.826-.489l-1.768,1.02a12.027,12.027,0,0,0-3.793-2.166V92.336A1.337,1.337,0,0,0,113.018,91h-5.347a1.337,1.337,0,0,0-1.337,1.336V94.4a12.027,12.027,0,0,0-3.793,2.166l-1.768-1.02a1.337,1.337,0,0,0-1.826.489l-2.673,4.629a1.336,1.336,0,0,0,.489,1.825l1.784,1.03a10.315,10.315,0,0,0,0,4.36l-1.784,1.03a1.336,1.336,0,0,0-.489,1.825l2.673,4.629a1.337,1.337,0,0,0,1.826.489l1.768-1.02A12.027,12.027,0,0,0,106.334,117v2.064a1.336,1.336,0,0,0,1.337,1.336h5.347a1.336,1.336,0,0,0,1.337-1.336V117a12.027,12.027,0,0,0,3.793-2.166l1.768,1.02a1.337,1.337,0,0,0,1.826-.489l2.673-4.629a1.336,1.336,0,0,0-.489-1.825Zm-13.581.8a4.009,4.009,0,1,1,4.01-4.009A4.014,4.014,0,0,1,110.344,109.708Z" transform="translate(-87.609 -82.964)" fill="#00fc3b"/>
    <path id="Path_5100" data-name="Path 5100" d="M270.076,101.678a1.347,1.347,0,0,0-.132-1.014l-2.649-4.629a1.318,1.318,0,0,0-1.809-.489l-1.752,1.02a11.891,11.891,0,0,0-3.759-2.166V92.336A1.33,1.33,0,0,0,258.65,91H256v10.69a4.009,4.009,0,0,1,0,8.018V120.4h2.649a1.33,1.33,0,0,0,1.325-1.336V117a11.892,11.892,0,0,0,3.759-2.166l1.752,1.02a1.318,1.318,0,0,0,1.809-.489l2.649-4.629a1.343,1.343,0,0,0-.485-1.825l-1.768-1.03a10.41,10.41,0,0,0,0-4.36l1.768-1.03A1.335,1.335,0,0,0,270.076,101.678Z" transform="translate(-233.208 -82.964)" fill="#00fc3b"/>
    <path id="Path_5101" data-name="Path 5101" d="M40.979,9.075l-1.885-5.62a1.332,1.332,0,0,0-2.529.838l.16.478A23.876,23.876,0,0,0,32.883,2.4,23.068,23.068,0,0,0,22.749,0,22.654,22.654,0,0,0,6.689,6.647,22.04,22.04,0,0,0,1.743,31.052a1.332,1.332,0,0,0,2.47-1,19.691,19.691,0,0,1-1.547-7.449A20.043,20.043,0,0,1,22.749,2.649,20.776,20.776,0,0,1,34.326,6.323a1.324,1.324,0,0,0-.688,2.554l5.655,1.873a1.339,1.339,0,0,0,1.364-.32,1.318,1.318,0,0,0,.322-1.355Z" fill="#00fc3b"/>
    <path id="Path_5102" data-name="Path 5102" d="M267.5,6.323a1.324,1.324,0,0,0-.684,2.554l5.62,1.873a1.325,1.325,0,0,0,1.676-1.676l-1.873-5.62a1.325,1.325,0,0,0-2.513.838l.159.478A23.7,23.7,0,0,0,266.071,2.4,22.808,22.808,0,0,0,256,0V2.649A20.557,20.557,0,0,1,267.5,6.323Z" transform="translate(-233.136 0)" fill="#00fc3b"/>
    <path id="Path_5103" data-name="Path 5103" d="M89.385,151.822a1.336,1.336,0,0,0-1.736-.729,1.322,1.322,0,0,0-.734,1.726,19.691,19.691,0,0,1,1.547,7.449,20.043,20.043,0,0,1-20.083,19.957A20.777,20.777,0,0,1,56.8,176.551,1.324,1.324,0,0,0,57.489,174l-5.655-1.873a1.339,1.339,0,0,0-1.364.32,1.319,1.319,0,0,0-.322,1.356l1.885,5.62a1.332,1.332,0,0,0,2.529-.838l-.16-.478a23.884,23.884,0,0,0,3.842,2.371,23.072,23.072,0,0,0,10.134,2.4,22.653,22.653,0,0,0,16.06-6.647,22.04,22.04,0,0,0,4.946-24.406Z" transform="translate(-45.657 -137.404)" fill="#00fc3b"/>
    <path id="Path_5104" data-name="Path 5104" d="M271.96,176.228a22.147,22.147,0,0,0,4.915-24.406,1.325,1.325,0,0,0-2.455,1A19.763,19.763,0,0,1,256,180.225v2.649A22.44,22.44,0,0,0,271.96,176.228Z" transform="translate(-233.136 -137.404)" fill="#00fc3b"/>
  </g>
</svg>
