<svg id="Update-pana" xmlns="http://www.w3.org/2000/svg" width="80" height="78.947" viewBox="0 0 80 78.947">
  <g id="Group_2343" data-name="Group 2343" transform="translate(0 0)">
    <g id="freepik--background-complete--inject-2" transform="translate(0 3.656)">
      <path id="Path_1547" data-name="Path 1547" d="M398.35,239.915a2,2,0,1,1-2-2A2,2,0,0,1,398.35,239.915Z" transform="translate(-324.125 -199.702)" fill="#ebebeb"/>
      <circle id="Ellipse_107" data-name="Ellipse 107" cx="2.136" cy="2.136" r="2.136" transform="translate(63.245 40.213) rotate(-45)" fill="#ebebeb"/>
      <circle id="Ellipse_108" data-name="Ellipse 108" cx="2.266" cy="2.266" r="2.266" transform="translate(59.87 34.169)" fill="#ebebeb"/>
      <circle id="Ellipse_109" data-name="Ellipse 109" cx="2.368" cy="2.368" r="2.368" transform="matrix(0.177, -0.984, 0.984, 0.177, 58.48, 32.542)" fill="#ebebeb"/>
      <circle id="Ellipse_110" data-name="Ellipse 110" cx="2.447" cy="2.447" r="2.447" transform="translate(61.602 23.096)" fill="#ebebeb"/>
      <circle id="Ellipse_111" data-name="Ellipse 111" cx="2.667" cy="2.667" r="2.667" transform="translate(65.745 22.107) rotate(-22.68)" fill="#ebebeb"/>
      <circle id="Ellipse_112" data-name="Ellipse 112" cx="1.937" cy="1.937" r="1.937" transform="matrix(0.229, -0.973, 0.973, 0.229, 74.315, 37.83)" fill="#ebebeb"/>
      <circle id="Ellipse_113" data-name="Ellipse 113" cx="1.797" cy="1.797" r="1.797" transform="translate(75.359 29.518) rotate(-20.96)" fill="#ebebeb"/>
      <circle id="Ellipse_114" data-name="Ellipse 114" cx="1.642" cy="1.642" r="1.642" transform="translate(72.814 26.837) rotate(-80.8)" fill="#ebebeb"/>
      <path id="Path_1548" data-name="Path 1548" d="M83.889,116.447a8.1,8.1,0,0,1,1.24,1.739h1.979l.737,3.186-1.784.86a8.071,8.071,0,0,1-.353,2.107l1.406,1.4-1.739,2.778-1.869-.652a7.915,7.915,0,0,1-1.739,1.238v1.981l-3.186.735-.85-1.784a7.928,7.928,0,0,1-2.107-.353l-1.393,1.406-2.778-1.737.652-1.869a8.1,8.1,0,0,1-1.24-1.739H68.887l-.737-3.186,1.784-.86a8.088,8.088,0,0,1,.353-2.107l-1.4-1.4,1.737-2.778,1.869.652a8.039,8.039,0,0,1,1.739-1.238v-1.981l3.186-.735.85,1.784a8,8,0,0,1,2.107.353l1.393-1.406,2.78,1.737Zm-3.908,2.614a3.513,3.513,0,1,0,1.563,2.191A3.515,3.515,0,0,0,79.981,119.061Z" transform="translate(-65.064 -100.618)" fill="#e0e0e0" fill-rule="evenodd"/>
      <path id="Path_1549" data-name="Path 1549" d="M118.986,60.4a4.53,4.53,0,0,1,.686.964h1.1l.408,1.767-.99.471a4.424,4.424,0,0,1-.2,1.168l.777.771-.962,1.538-1.034-.361a4.46,4.46,0,0,1-.964.686v1.1l-1.767.406-.476-.988a4.409,4.409,0,0,1-1.166-.2l-.773.779-1.538-.962.361-1.034a4.46,4.46,0,0,1-.686-.964h-1.1l-.408-1.767.994-.467a4.425,4.425,0,0,1,.2-1.166l-.777-.771.96-1.54,1.036.363a4.394,4.394,0,0,1,.962-.686v-1.1L115.393,58l.478.99a4.494,4.494,0,0,1,1.166.193l.773-.777,1.538.962-.361,1.034Zm-2.164,1.448a1.945,1.945,0,1,0,.618,2.68A1.945,1.945,0,0,0,116.822,61.848Z" transform="translate(-98.231 -58)" fill="#e0e0e0" fill-rule="evenodd"/>
      <path id="Path_1550" data-name="Path 1550" d="M61,71.947a3.553,3.553,0,0,1,.556.779h.888l.331,1.434-.8.387a3.538,3.538,0,0,1-.164.941l.637.624-.779,1.247-.837-.293a3.611,3.611,0,0,1-.782.556v.888l-1.425.331-.384-.8a3.641,3.641,0,0,1-.947-.159l-.624.637-1.247-.779.293-.85a3.554,3.554,0,0,1-.556-.779h-.888l-.331-1.434.8-.387a3.64,3.64,0,0,1,.159-.945l-.637-.624.779-1.234.839.293a3.553,3.553,0,0,1,.779-.556v-.892L58.09,70l.387.8a3.626,3.626,0,0,1,.945.159l.624-.637,1.247.779-.293.85ZM59.247,73.12a1.574,1.574,0,1,0,.7.982A1.576,1.576,0,0,0,59.247,73.12Z" transform="translate(-53.872 -67.451)" fill="none"/>
      <path id="Path_1551" data-name="Path 1551" d="M69.807,83.726a.628.628,0,0,1,.089.049,1.275,1.275,0,0,1,.225.183,1.6,1.6,0,0,1,.355,1.7,1.616,1.616,0,0,1-.505.684,1.633,1.633,0,0,1-.879.344,1.61,1.61,0,0,1-1.629-1.019,1.487,1.487,0,0,1-.11-.474,1.553,1.553,0,0,1,.034-.467,1.627,1.627,0,0,1,.4-.756,1.6,1.6,0,0,1,.62-.41,1.574,1.574,0,0,1,1.062,0,1.207,1.207,0,0,1,.263.121c.055.036.085.055.083.059a2.546,2.546,0,0,0-.359-.144,1.567,1.567,0,0,0-1.022.04,1.544,1.544,0,0,0-.943,1.106,1.543,1.543,0,0,0,.686,1.616,1.555,1.555,0,0,0,.924.227,1.438,1.438,0,0,0,.446-.1,1.383,1.383,0,0,0,.382-.212,1.531,1.531,0,0,0,.59-1.344,1.567,1.567,0,0,0-.41-.937C69.924,83.8,69.8,83.734,69.807,83.726Z" transform="translate(-64.432 -78.057)" fill="#e0e0e0"/>
      <path id="Path_1552" data-name="Path 1552" d="M60.747,71.774a.149.149,0,0,1,.015-.053c.015-.034.03-.093.053-.161l.212-.637v.019l-1.251-.771h.032l-.622.637-.013.013h-.017a3.542,3.542,0,0,0-.939-.153H58.2v-.017l-.389-.8.04.019-1.431.333.03-.038v.913H56.43a3.585,3.585,0,0,0-.769.552l-.019.017h-.025l-.839-.291.053-.019-.779,1.249V72.53l.637.637.021.019v.028a3.61,3.61,0,0,0-.155.932v.03l-.028.013-.826.367.028-.055c.1.452.212.939.331,1.431l-.049-.038h.917l.015.028a3.521,3.521,0,0,0,.548.769h0c0,.023,0-.049.011.051h0v.04l-.019.053-.036.1-.074.212-.147.425-.019-.059,1.245.779h-.062l.637-.637.021-.021h.028a3.528,3.528,0,0,0,.932.157h.03l.013.025c.13.27.259.537.384.8l-.053-.025,1.434-.329-.036.045V77.4l.023-.013a3.551,3.551,0,0,0,.773-.548l.019-.017h.023l.85.293-.049.019c.274-.44.535-.85.782-1.245v.047l-.637-.637-.017-.017v-.019a3.521,3.521,0,0,0,.159-.937V74.3h.017l.8-.384-.017.034c-.125-.554-.231-1.028-.323-1.434l.021.017h-.913a3.765,3.765,0,0,0-.4-.586c-.049-.057-.085-.1-.113-.138a.52.52,0,0,1-.038-.045.472.472,0,0,1,.045.04c.028.028.068.072.119.132a3.577,3.577,0,0,1,.408.6h.892v.017c.093.406.212.877.336,1.431v.023h-.021l-.8.391.017-.03a3.657,3.657,0,0,1-.155.956v-.036l.637.622.021.023-.015.025-.777,1.247-.017.03-.032-.013-.85-.291H60.6a3.61,3.61,0,0,1-.788.563l.023-.038v.924H59.8l-1.425.327h-.036l-.017-.036c-.127-.261-.255-.529-.387-.8l.042.028a3.634,3.634,0,0,1-.958-.161h.049l-.624.637-.03.028-.032-.021-1.247-.779-.034-.021.013-.038.147-.425.072-.212.038-.106.017-.053v-.038h0c.021.1,0,.028.011.049h0a3.523,3.523,0,0,1-.563-.79l.042.025h-.928V75.96c-.113-.493-.225-.979-.329-1.434v-.038l.034-.017.807-.4-.025.042a3.7,3.7,0,0,1,.159-.958l.013.047-.637-.637-.028-.025.019-.032.8-1.225.019-.03h.034l.837.3H55.61a3.67,3.67,0,0,1,.79-.561l-.021.036v-.92h.03l1.434-.327h.028l.013.025c.134.282.263.552.384.8l-.03-.017a3.638,3.638,0,0,1,.954.164h-.03l.637-.637.015-.015h.017l1.24.786h.011l-.225.62c-.025.066-.045.119-.059.159A1.075,1.075,0,0,1,60.747,71.774Z" transform="translate(-53.62 -67.278)" fill="#e0e0e0"/>
    </g>
    <g id="freepik--Screen--inject-2" transform="translate(19.405 0)">
      <path id="Path_1553" data-name="Path 1553" d="M187.835,41.12l-6.244-.025a1.427,1.427,0,0,0-1.521,1.318v.942a1.427,1.427,0,0,1-1.523,1.313l-12.171-.046a1.423,1.423,0,0,1-1.51-1.325v-.942a1.423,1.423,0,0,0-1.51-1.325h-2.2L155.695,41c-2.71-.009-4.916,1.809-4.931,4.063l-.333,65.558c-.012,2.255,2.174,4.092,4.885,4.106l32.141.122c2.711.01,4.919-1.81,4.933-4.065l.333-65.558C192.736,42.969,190.548,41.131,187.835,41.12Z" transform="translate(-150.381 -40.954)" fill="#fff"/>
      <path id="Path_1554" data-name="Path 1554" d="M187.655,40.942h.168a4.208,4.208,0,0,1,.5.034,5.251,5.251,0,0,1,1.839.53,4.633,4.633,0,0,1,1.115.758,4.07,4.07,0,0,1,.932,1.237,3.626,3.626,0,0,1,.359,1.659v1.926c-.023,5.448-.057,13.329-.1,23.065s-.1,21.333-.161,34.21q-.013,2.416-.023,4.886v1.237a3.734,3.734,0,0,1-.193,1.237,3.862,3.862,0,0,1-.637,1.147,4.847,4.847,0,0,1-1.024.938,5.578,5.578,0,0,1-2.835.9c-.259.014-.514.011-.771.009H184.5l-6.257-.025-12.842-.048-6.569-.025-3.317-.014a5.953,5.953,0,0,1-3.186-.744,4.291,4.291,0,0,1-1.931-2.237,3.72,3.72,0,0,1-.2-1.382v-1.378q.013-2.751.028-5.465.028-5.428.055-10.689c.036-7.006.072-13.765.106-20.2s.068-12.557.1-18.282q.023-4.294.045-8.286V44.95c0-.164.019-.33.03-.495a2.015,2.015,0,0,1,.1-.486,4.405,4.405,0,0,1,2.865-2.847,6.011,6.011,0,0,1,2.181-.336L160,40.8l2.054.018h1.009a1.8,1.8,0,0,1,.962.228,1.4,1.4,0,0,1,.595.654,1.846,1.846,0,0,1,.093.806v.4a2.373,2.373,0,0,0,.015.391,1.208,1.208,0,0,0,.365.689,1.5,1.5,0,0,0,.754.392,1.943,1.943,0,0,0,.444.039h2.226l6.48.03,2.856.012c.225,0,.454.011.669,0a1.641,1.641,0,0,0,.605-.177,1.329,1.329,0,0,0,.694-.823,1.876,1.876,0,0,0,.04-.5v-.488a2.237,2.237,0,0,1,.028-.477,1.241,1.241,0,0,1,.187-.436,1.505,1.505,0,0,1,.784-.573,2.971,2.971,0,0,1,.975-.083l3.186.018,1.96.011h-5.146a2.856,2.856,0,0,0-.96.083,1.447,1.447,0,0,0-.765.56,1.2,1.2,0,0,0-.183.426,2.311,2.311,0,0,0-.025.472v.488a1.953,1.953,0,0,1-.04.505,1.366,1.366,0,0,1-.714.848,1.7,1.7,0,0,1-.622.177c-.227.016-.448,0-.675,0l-2.842,0-6.48-.021H166.3a2.03,2.03,0,0,1-.461-.039,1.585,1.585,0,0,1-.788-.408,1.269,1.269,0,0,1-.382-.719,2.771,2.771,0,0,1-.015-.4v-.4a1.791,1.791,0,0,0-.091-.786,1.355,1.355,0,0,0-.569-.626,1.714,1.714,0,0,0-.922-.216H160l-4.281-.016a5.382,5.382,0,0,0-3.944,1.44,3.883,3.883,0,0,0-1.019,1.7c-.051.156-.066.318-.1.477a2.33,2.33,0,0,0-.028.488v.991q-.017,3.986-.038,8.286c-.028,5.725-.057,11.839-.087,18.284s-.066,13.2-.1,20.2q-.025,5.253-.053,10.687-.013,2.714-.028,5.467v1.378a3.677,3.677,0,0,0,.193,1.354,4.2,4.2,0,0,0,1.871,2.179,5.844,5.844,0,0,0,3.126.726l3.317.014,6.567.025,12.842.049,6.259.025h2.315c.257,0,.514,0,.765-.009a5.448,5.448,0,0,0,2.774-.884,4.712,4.712,0,0,0,1-.919,3.736,3.736,0,0,0,.618-1.122,3.63,3.63,0,0,0,.191-1.219v-1.237q.013-2.474.025-4.886c.07-12.876.134-24.472.185-34.21s.1-17.617.136-23.065c0-.68,0-1.324.013-1.926a3.591,3.591,0,0,0-.353-1.65,4.078,4.078,0,0,0-.917-1.217,5.3,5.3,0,0,0-2.931-1.3,4.924,4.924,0,0,0-.5-.039Z" transform="translate(-150.2 -40.784)" fill="#263238"/>
      <path id="Path_1555" data-name="Path 1555" d="M254.952,145.16l-.482-.571,1.436-.771-6.671-2.258,2.258,6.465.822-1.077s4.315,7.595,0,12.212a10.727,10.727,0,0,1-9.345,3.591l.975,3.186a13.837,13.837,0,0,0,12.218-6.622C260.429,152.128,254.952,145.16,254.952,145.16Z" transform="translate(-223.268 -125.112)" fill="#ff725e"/>
      <path id="Path_1556" data-name="Path 1556" d="M194.722,156.458l.482.571-1.438.771,6.671,2.258-2.258-6.465-.82,1.077s-4.318-7.595,0-12.212a10.727,10.727,0,0,1,9.344-3.591l-.975-3.186a13.824,13.824,0,0,0-12.212,6.618C189.259,149.481,194.722,156.458,194.722,156.458Z" transform="translate(-183.039 -120.184)" fill="#ff725e"/>
      <path id="Path_1557" data-name="Path 1557" d="M254.952,145.16l-.482-.571,1.436-.771-6.671-2.258,2.258,6.465.822-1.077s4.315,7.595,0,12.212a10.727,10.727,0,0,1-9.345,3.591l.975,3.186a13.837,13.837,0,0,0,12.218-6.622C260.429,152.128,254.952,145.16,254.952,145.16Z" transform="translate(-223.268 -125.112)" fill="#ff725e"/>
      <path id="Path_1558" data-name="Path 1558" d="M194.722,156.458l.482.571-1.438.771,6.671,2.258-2.258-6.465-.82,1.077s-4.318-7.595,0-12.212a10.727,10.727,0,0,1,9.344-3.591l-.975-3.186a13.824,13.824,0,0,0-12.212,6.618C189.259,149.481,194.722,156.458,194.722,156.458Z" transform="translate(-183.039 -120.184)" fill="#ff725e"/>
      <g id="Group_2228" data-name="Group 2228" transform="translate(19.702 16.448)" opacity="0.8">
        <path id="Path_1559" data-name="Path 1559" d="M254.952,145.16l-.482-.571,1.436-.771-6.671-2.258,2.258,6.465.822-1.077s4.315,7.595,0,12.212a10.727,10.727,0,0,1-9.345,3.591l.975,3.186a13.837,13.837,0,0,0,12.218-6.622C260.429,152.128,254.952,145.16,254.952,145.16Z" transform="translate(-242.97 -141.56)" fill="#fff"/>
      </g>
      <g id="Group_2229" data-name="Group 2229" transform="translate(8.855 15.487)" opacity="0.8">
        <path id="Path_1560" data-name="Path 1560" d="M194.722,156.458l.482.571-1.438.771,6.671,2.258-2.258-6.465-.82,1.077s-4.318-7.595,0-12.212a10.727,10.727,0,0,1,9.344-3.591l-.975-3.186a13.824,13.824,0,0,0-12.212,6.618C189.259,149.481,194.722,156.458,194.722,156.458Z" transform="translate(-191.894 -135.671)" fill="#fff"/>
      </g>
      <path id="Path_1561" data-name="Path 1561" d="M232.451,167.873a5.184,5.184,0,0,1,.8,1.128h1.274l.476,2.066-1.153.559a5.208,5.208,0,0,1-.229,1.363l.911.9-1.126,1.8-1.211-.425a5.114,5.114,0,0,1-1.126.8v1.274l-2.06.48-.556-1.155a5.205,5.205,0,0,1-1.355-.227l-.9.909-1.8-1.123.425-1.211a5.154,5.154,0,0,1-.8-1.126h-1.274l-.476-2.066,1.153-.556a5.191,5.191,0,0,1,.229-1.363l-.909-.9,1.123-1.8,1.211.425a5.183,5.183,0,0,1,1.126-.8v-1.274l2.066-.478.556,1.155a5.121,5.121,0,0,1,1.363.229l.9-.911,1.8,1.126-.425,1.208Zm-2.529,1.7a7.151,7.151,0,1,0,0-.006Z" transform="translate(-206.964 -143.851)" fill="#ff725e" fill-rule="evenodd"/>
      <g id="Group_2230" data-name="Group 2230" transform="translate(19.477 25.137)" opacity="0.6">
        <path id="Path_1562" data-name="Path 1562" d="M245.39,184.955a2.275,2.275,0,1,0,.722,3.135A2.275,2.275,0,0,0,245.39,184.955Z" transform="translate(-241.909 -184.609)" fill="#fff" fill-rule="evenodd"/>
      </g>
      <path id="Path_1563" data-name="Path 1563" d="M219.69,289.741V288.38h.251v1.351c0,.565.265.822.726.822s.731-.257.731-.822V288.38h.244v1.361a.978.978,0,1,1-1.952,0Z" transform="translate(-204.932 -244.874)" fill="#263238"/>
      <path id="Path_1564" data-name="Path 1564" d="M234.3,289.2c0,.506-.365.811-.971.811h-.637v.75h-.253V288.38h.89C233.935,288.38,234.3,288.686,234.3,289.2Zm-.251,0c0-.38-.251-.6-.726-.6h-.637v1.189h.637c.476,0,.722-.212.722-.59Z" transform="translate(-214.974 -244.872)" fill="#263238"/>
      <path id="Path_1565" data-name="Path 1565" d="M243.76,288.38h.966a1.191,1.191,0,1,1,0,2.376h-.966Zm.954,2.16a.974.974,0,1,0,0-1.943h-.7v1.943Z" transform="translate(-223.89 -244.872)" fill="#263238"/>
      <path id="Path_1566" data-name="Path 1566" d="M256.871,290.129h-1.323l-.287.637H255l1.087-2.377h.248l1.085,2.377h-.263Zm-.091-.212-.569-1.274-.571,1.274Z" transform="translate(-232.743 -244.88)" fill="#263238"/>
      <path id="Path_1567" data-name="Path 1567" d="M266.767,288.612h-.837V288.4h1.926v.212h-.835v2.16h-.251Z" transform="translate(-241.352 -244.888)" fill="#263238"/>
      <path id="Path_1568" data-name="Path 1568" d="M278.55,290.54v.212h-1.68V288.38H278.5v.212h-1.378v.85h1.23v.212h-1.23v.883Z" transform="translate(-249.969 -244.871)" fill="#263238"/>
      <path id="Path_1569" data-name="Path 1569" d="M321.113,77.575c0,.021-.86.047-1.922.055s-1.911,0-1.911-.023.849-.049,1.911-.057S321.113,77.551,321.113,77.575Z" transform="translate(-281.796 -69.739)" fill="#263238"/>
      <path id="Path_1570" data-name="Path 1570" d="M321.114,82.212c0,.023-.86.049-1.922.057s-1.922,0-1.922-.025.86-.047,1.922-.055S321.114,82.191,321.114,82.212Z" transform="translate(-281.789 -73.393)" fill="#263238"/>
      <path id="Path_1571" data-name="Path 1571" d="M321.146,86.842c0,.023-.86.049-1.922.057s-1.924,0-1.924-.025.86-.047,1.924-.055S321.146,86.821,321.146,86.842Z" transform="translate(-281.812 -77.04)" fill="#263238"/>
      <path id="Path_1572" data-name="Path 1572" d="M170.611,80.279h.291l.822-.019-.023.023v-.939a.316.316,0,0,1,.276-.253h.393a.321.321,0,0,1,.268.316c0,.278,0,.569.011.869l-.038-.036h1.036l-.04.038V78.661a.329.329,0,0,0-.144-.244l-.452-.446-.437-.425-.212-.212c-.072-.07-.13-.142-.212-.159a.285.285,0,0,0-.238.045c-.064.053-.13.13-.193.191l-.393.344c-.234.242-.478.465-.654.675a.745.745,0,0,0-.053.387v1.463a1,1,0,0,1,0-.123v-.372c0-.149,0-.367-.015-.593v-.584a.425.425,0,0,1,.055-.212c.193-.236.425-.442.656-.692l.37-.378c.066-.066.121-.13.2-.2a.35.35,0,0,1,.3-.059.558.558,0,0,1,.251.178l.212.212.437.425.454.446a.849.849,0,0,1,.115.125.338.338,0,0,1,.055.174V80.29h-1.119v-.9a.251.251,0,0,0-.212-.253H172a.251.251,0,0,0-.223.2v.962H170.7A.425.425,0,0,1,170.611,80.279Z" transform="translate(-166.268 -69.353)" fill="#263238"/>
      <path id="Path_1573" data-name="Path 1573" d="M236.941,88.075c0,.03-3.237.055-7.221.055s-7.221-.025-7.221-.055,3.237-.055,7.221-.055S236.941,88.045,236.941,88.075Z" transform="translate(-207.145 -77.988)" fill="#263238"/>
      <path id="Path_1574" data-name="Path 1574" d="M219.435,378.3H204.261a3.511,3.511,0,0,1-3.511-3.508h0a3.511,3.511,0,0,1,3.511-3.511h15.174a3.511,3.511,0,0,1,3.511,3.511h0A3.511,3.511,0,0,1,219.435,378.3Z" transform="translate(-190.014 -316.017)" fill="#ff725e"/>
      <path id="Path_1575" data-name="Path 1575" d="M239.37,384.729l.127-.28a.939.939,0,0,0,.531.168c.212,0,.312-.072.312-.172,0-.3-.939-.1-.939-.694,0-.274.212-.5.68-.5a1.075,1.075,0,0,1,.561.142l-.115.283a.92.92,0,0,0-.448-.125c-.212,0-.306.083-.306.185,0,.3.937.091.937.684,0,.27-.223.5-.684.5a1.151,1.151,0,0,1-.656-.187Z" transform="translate(-220.433 -325.443)" fill="#fff"/>
      <path id="Path_1576" data-name="Path 1576" d="M247.041,385.318a.516.516,0,0,1-.293.079.408.408,0,0,1-.457-.437v-.51H246.1v-.278h.191v-.3h.359v.3h.31v.278h-.31v.5a.144.144,0,0,0,.155.164.239.239,0,0,0,.144-.045Z" transform="translate(-225.733 -325.933)" fill="#fff"/>
      <path id="Path_1577" data-name="Path 1577" d="M252.279,385.623v.714h-.338v-.153a.406.406,0,0,1-.378.172c-.291,0-.463-.161-.463-.376s.155-.372.533-.372h.3c0-.153-.091-.244-.285-.244a.589.589,0,0,0-.357.117l-.13-.253a.959.959,0,0,1,.535-.149C252.058,385.073,252.279,385.247,252.279,385.623Zm-.361.316v-.127h-.246c-.168,0-.212.062-.212.144s.076.151.2.151a.263.263,0,0,0,.268-.168Z" transform="translate(-229.671 -326.885)" fill="#fff"/>
      <path id="Path_1578" data-name="Path 1578" d="M258.939,385.045v.331h-.079a.306.306,0,0,0-.331.346v.586h-.359v-1.238h.344v.164A.5.5,0,0,1,258.939,385.045Z" transform="translate(-235.24 -326.858)" fill="#fff"/>
      <path id="Path_1579" data-name="Path 1579" d="M263.257,385.295a.516.516,0,0,1-.293.079.41.41,0,0,1-.463-.444v-.51h-.191v-.278h.191v-.3h.361v.3h.308v.278h-.308v.5a.144.144,0,0,0,.153.164.249.249,0,0,0,.146-.045Z" transform="translate(-238.501 -325.909)" fill="#fff"/>
      <path id="Path_1580" data-name="Path 1580" d="M212.824,325.725c0,.03-6.524.055-14.571.055s-14.573-.026-14.573-.055,6.524-.055,14.573-.055S212.824,325.693,212.824,325.725Z" transform="translate(-176.57 -275.342)" fill="#263238"/>
      <path id="Path_1581" data-name="Path 1581" d="M228.552,334.135c0,.03-3.925.055-8.765.055s-8.767-.026-8.767-.055,3.925-.055,8.767-.055S228.552,334.1,228.552,334.135Z" transform="translate(-198.103 -282.267)" fill="#263238"/>
    </g>
    <g id="freepik--Character--inject-2" transform="translate(9.323 0.73)">
      <path id="Path_1582" data-name="Path 1582" d="M98.911,458.24l-1.291,4.772,4.194.382.881-4.543Z" transform="translate(-97.599 -385.238)" fill="#ff725e"/>
      <path id="Path_1583" data-name="Path 1583" d="M102.526,478.862a3.15,3.15,0,0,1-.614-.021c-.378-.03-.9-.087-1.472-.161l-1.465-.2a3.24,3.24,0,0,1-.605-.1,3.071,3.071,0,0,1,.614.023c.378.03.9.089,1.472.161l1.465.2A3.532,3.532,0,0,1,102.526,478.862Z" transform="translate(-98.189 -401.095)" fill="#263238"/>
      <g id="Group_2231" data-name="Group 2231" transform="translate(0.021 77.279)" opacity="0.6">
        <path id="Path_1584" data-name="Path 1584" d="M97.62,478.875l4.194.382.068-.35-4.141-.527-.117.446" transform="translate(-97.62 -478.38)" fill="#fff"/>
      </g>
      <path id="Path_1585" data-name="Path 1585" d="M107.43,466.234a18.243,18.243,0,0,1,.4-1.828,17.4,17.4,0,0,1,.495-1.805,18.244,18.244,0,0,1-.4,1.829A18.048,18.048,0,0,1,107.43,466.234Z" transform="translate(-105.325 -388.672)" fill="#263238"/>
      <path id="Path_1586" data-name="Path 1586" d="M103.7,471.963a1.994,1.994,0,0,0,0-.886,1.745,1.745,0,0,0-.459-.83,1.716,1.716,0,0,0-1.043-.48,1.782,1.782,0,0,0-1.123.255,1.94,1.94,0,0,0-.652.694,2.451,2.451,0,0,0-.265.849V471.5a1.28,1.28,0,0,1,0-.183,1.887,1.887,0,0,1,.2-.637,1.95,1.95,0,0,1,.677-.743,1.849,1.849,0,0,1,1.181-.276,1.727,1.727,0,0,1,1.561,1.393,1.665,1.665,0,0,1,0,.669,1.233,1.233,0,0,1-.051.174C103.713,471.943,103.7,471.965,103.7,471.963Z" transform="translate(-99.595 -394.227)" fill="#263238"/>
      <path id="Path_1587" data-name="Path 1587" d="M169.365,451.745l-.28,4.248s4.218,1.4,4.247,2.19l-8.242.059.166-6.622Z" transform="translate(-150.74 -380.024)" fill="#ff725e"/>
      <g id="Group_2232" data-name="Group 2232" transform="translate(15.569 75.521)" opacity="0.6">
        <path id="Path_1588" data-name="Path 1588" d="M171.079,470.108a.336.336,0,0,0-.244.376.323.323,0,0,0,.372.246.352.352,0,0,0,.255-.4.336.336,0,0,0-.414-.212" transform="translate(-170.831 -470.103)" fill="#fff"/>
      </g>
      <g id="Group_2233" data-name="Group 2233" transform="translate(14.346 77.54)" opacity="0.6">
        <path id="Path_1589" data-name="Path 1589" d="M165.07,480.279l.017-.669,7.96.212a.571.571,0,0,1,.308.448Z" transform="translate(-165.07 -479.61)" fill="#fff"/>
      </g>
      <path id="Path_1590" data-name="Path 1590" d="M181.7,471.845c0,.04-.212.053-.408.176s-.312.289-.348.272.03-.246.278-.393S181.71,471.807,181.7,471.845Z" transform="translate(-163.221 -395.921)" fill="#263238"/>
      <path id="Path_1591" data-name="Path 1591" d="M186.468,473.746c0,.038-.168.1-.31.268s-.187.346-.225.342-.059-.232.121-.425S186.468,473.708,186.468,473.746Z" transform="translate(-167.136 -397.44)" fill="#263238"/>
      <path id="Path_1592" data-name="Path 1592" d="M190.555,476.2c-.038,0-.087-.2.023-.412s.3-.3.316-.266-.1.149-.191.327S190.6,476.2,190.555,476.2Z" transform="translate(-170.762 -398.845)" fill="#263238"/>
      <path id="Path_1593" data-name="Path 1593" d="M181.174,466.834c-.017.036-.2-.023-.425-.015s-.406.074-.425.038.155-.172.425-.178S181.2,466.8,181.174,466.834Z" transform="translate(-162.738 -391.885)" fill="#263238"/>
      <path id="Path_1594" data-name="Path 1594" d="M179.942,460.812a.774.774,0,0,1-.412-.015,1.837,1.837,0,0,1-.425-.144,2.41,2.41,0,0,1-.234-.134.533.533,0,0,1-.121-.1.174.174,0,0,1-.013-.212.212.212,0,0,1,.181-.087.538.538,0,0,1,.153.025,1.511,1.511,0,0,1,.255.1,1.465,1.465,0,0,1,.372.261c.187.183.246.336.234.342s-.108-.115-.3-.268a1.673,1.673,0,0,0-.361-.212,1.317,1.317,0,0,0-.234-.079c-.087-.025-.161-.03-.185,0s0,.021,0,.047a.438.438,0,0,0,.091.074,1.9,1.9,0,0,0,.212.13,2.227,2.227,0,0,0,.4.166A2.731,2.731,0,0,1,179.942,460.812Z" transform="translate(-161.466 -386.718)" fill="#263238"/>
      <path id="Path_1595" data-name="Path 1595" d="M183.9,458.83a.677.677,0,0,1-.1-.4,1.329,1.329,0,0,1,.183-.7.342.342,0,0,1,.27-.2.189.189,0,0,1,.17.119.593.593,0,0,1,.038.153,1,1,0,0,1,0,.278.965.965,0,0,1-.189.425c-.168.212-.338.253-.34.238a1.715,1.715,0,0,0,.259-.3.969.969,0,0,0,.142-.384.9.9,0,0,0,0-.238c-.011-.087-.043-.159-.074-.151a.308.308,0,0,0-.149.13,1.249,1.249,0,0,0-.108.212,1.487,1.487,0,0,0-.093.41C183.884,458.67,183.922,458.823,183.9,458.83Z" transform="translate(-165.477 -384.679)" fill="#263238"/>
      <path id="Path_1596" data-name="Path 1596" d="M116.145,278.483l-12.558-.093L97.52,318.249l5.212.66,6.679-32.774,2,32.891.006.1,5.636-.1Z" transform="translate(-97.52 -243.584)" fill="#263238"/>
      <path id="Path_1597" data-name="Path 1597" d="M158.141,293.551a2.27,2.27,0,0,1,.259-.017l.756-.028,2.714-.076h.051v2.68l-.019.017-.471.425-1.393,1.274-.038.034-.036-.032-1.858-1.656-.015-.013v-.021c0-.79.017-1.442.023-1.911,0-.212,0-.384.011-.514a1.038,1.038,0,0,1,.011-.174,1.857,1.857,0,0,1,0,.191c0,.132,0,.308.013.525,0,.461.013,1.1.023,1.882l-.015-.032,1.871,1.64h-.074l1.391-1.274.474-.425-.019.042v-2.6l.053.051-2.684.025h-.973A.329.329,0,0,1,158.141,293.551Z" transform="translate(-145.226 -255.43)" fill="#455a64"/>
      <path id="Path_1598" data-name="Path 1598" d="M129.193,293.1a1.744,1.744,0,0,1,.232,0l.675.055,2.442.212h.051v.051c-.091.771-.2,1.648-.308,2.585v.023l-.017.015-.542.425-1.336,1.062-.045.034-.034-.043-1.459-1.848-.013-.015v-.019c.106-.782.193-1.425.255-1.89.032-.212.055-.38.074-.512a.778.778,0,0,1,.032-.17,1.679,1.679,0,0,1-.015.191q-.019.2-.051.522l-.212,1.871v-.034c.425.533.93,1.155,1.476,1.833h-.079l1.334-1.062.542-.425-.021.036c.117-.934.227-1.812.323-2.583l.045.055-2.406-.268-.684-.083A2.092,2.092,0,0,1,129.193,293.1Z" transform="translate(-122.188 -255.146)" fill="#455a64"/>
      <path id="Path_1599" data-name="Path 1599" d="M152.361,314.574a3.6,3.6,0,0,1-.569-.276c-.346-.18-.824-.425-1.357-.694s-1.017-.5-1.37-.665a3.894,3.894,0,0,1-.565-.289,3.12,3.12,0,0,1,.6.212c.363.149.849.37,1.391.637s1.007.529,1.342.728A3.368,3.368,0,0,1,152.361,314.574Z" transform="translate(-137.673 -270.568)" fill="#455a64"/>
      <path id="Path_1600" data-name="Path 1600" d="M157.949,318.409a1.256,1.256,0,0,1-.425-.161,3.649,3.649,0,0,1-1.557-1.533,1.259,1.259,0,0,1-.168-.425,6.426,6.426,0,0,0,.909,1.232A6.6,6.6,0,0,0,157.949,318.409Z" transform="translate(-143.423 -273.435)" fill="#455a64"/>
      <path id="Path_1601" data-name="Path 1601" d="M166.093,380.5a.7.7,0,0,1-.057.212,2.818,2.818,0,0,1-.261.529,3.186,3.186,0,0,1-3.385,1.427,2.854,2.854,0,0,1-.561-.181.722.722,0,0,1-.189-.1,7.876,7.876,0,0,0,.765.212,3.262,3.262,0,0,0,3.3-1.391C165.981,380.788,166.072,380.491,166.093,380.5Z" transform="translate(-148.022 -324.008)" fill="#455a64"/>
      <path id="Path_1602" data-name="Path 1602" d="M165.732,378.891a1.5,1.5,0,0,1-.48.212,4.65,4.65,0,0,1-1.249.212,6.586,6.586,0,0,1-1.262-.074,2.1,2.1,0,0,1-.512-.117c0-.04.794.113,1.769.076a5.866,5.866,0,0,0,1.232-.17A4.811,4.811,0,0,1,165.732,378.891Z" transform="translate(-148.487 -322.739)" fill="#455a64"/>
      <path id="Path_1603" data-name="Path 1603" d="M121.15,380a2.054,2.054,0,0,1-.437.4,5.056,5.056,0,0,1-1.251.68,5.123,5.123,0,0,1-1.391.306,2.035,2.035,0,0,1-.59-.015c0-.019.225-.021.582-.066a6.028,6.028,0,0,0,2.6-.971A5.565,5.565,0,0,1,121.15,380Z" transform="translate(-113.241 -323.615)" fill="#455a64"/>
      <path id="Path_1604" data-name="Path 1604" d="M121.135,379.1a2.775,2.775,0,0,1-1.151.1,2.842,2.842,0,0,1-1.123-.276c0-.034.505.113,1.132.161S121.13,379.068,121.135,379.1Z" transform="translate(-114.328 -322.761)" fill="#455a64"/>
      <path id="Path_1605" data-name="Path 1605" d="M137.9,316.16a2.6,2.6,0,0,1-.565.255,7.877,7.877,0,0,1-1.448.376,7.771,7.771,0,0,1-1.487.1,2.6,2.6,0,0,1-.616-.066,4.6,4.6,0,0,1,.616-.015,10.2,10.2,0,0,0,2.918-.467A4.682,4.682,0,0,1,137.9,316.16Z" transform="translate(-126.079 -273.333)" fill="#455a64"/>
      <path id="Path_1606" data-name="Path 1606" d="M151.343,310.1c.032,0,.059.1.062.212s-.023.212-.055.212-.057-.1-.059-.212S151.311,310.1,151.343,310.1Z" transform="translate(-139.87 -268.56)" fill="#455a64"/>
      <path id="Path_1607" data-name="Path 1607" d="M151.329,305.94c.032,0,.057.1.055.212s-.025.212-.057.212-.057-.1-.057-.212S151.3,305.94,151.329,305.94Z" transform="translate(-139.855 -265.283)" fill="#455a64"/>
      <path id="Path_1608" data-name="Path 1608" d="M151.4,301.79c.032,0,.055.1.053.212s-.032.212-.064.212-.055-.1-.051-.212S151.37,301.788,151.4,301.79Z" transform="translate(-139.908 -262.014)" fill="#455a64"/>
      <path id="Path_1609" data-name="Path 1609" d="M151.546,297.63c.032,0,.053.1.047.223s-.034.212-.066.212-.053-.1-.049-.212S151.514,297.628,151.546,297.63Z" transform="translate(-140.018 -258.738)" fill="#455a64"/>
      <path id="Path_1610" data-name="Path 1610" d="M151.775,293.48c.032,0,.051.1.042.225s-.04.212-.072.212-.051-.1-.042-.225S151.743,293.478,151.775,293.48Z" transform="translate(-140.194 -255.469)" fill="#455a64"/>
      <path id="Path_1611" data-name="Path 1611" d="M152.083,289.339c.032,0,.049.1.04.223s-.045.212-.076.212-.049-.1-.038-.225S152.053,289.335,152.083,289.339Z" transform="translate(-140.434 -252.208)" fill="#455a64"/>
      <path id="Path_1612" data-name="Path 1612" d="M152.433,285.94c.032,0,.051.07.042.147s-.038.138-.07.136-.051-.07-.042-.147S152.4,285.938,152.433,285.94Z" transform="translate(-140.714 -249.53)" fill="#455a64"/>
      <path id="Path_1613" data-name="Path 1613" d="M118.845,465.056c.032,0,.038.108.013.229s-.068.212-.1.212-.036-.108-.013-.227S118.815,465.043,118.845,465.056Z" transform="translate(-114.226 -390.606)" fill="#455a64"/>
      <path id="Path_1614" data-name="Path 1614" d="M119.665,461c.03,0,.036.108.013.227s-.068.212-.1.212-.036-.108-.013-.229S119.633,461,119.665,461Z" transform="translate(-114.872 -387.412)" fill="#455a64"/>
      <path id="Path_1615" data-name="Path 1615" d="M120.48,456.909c.032,0,.038.108.013.227s-.068.212-.1.212-.038-.108-.015-.227S120.45,456.9,120.48,456.909Z" transform="translate(-115.515 -384.19)" fill="#455a64"/>
      <path id="Path_1616" data-name="Path 1616" d="M121.295,452.829c.032,0,.036.108.013.229s-.068.212-.1.212-.036-.108-.013-.227S121.263,452.825,121.295,452.829Z" transform="translate(-116.155 -380.977)" fill="#455a64"/>
      <path id="Path_1617" data-name="Path 1617" d="M122.112,448.759c.032,0,.038.108.015.227s-.07.212-.1.212-.038-.108-.013-.229S122.082,448.753,122.112,448.759Z" transform="translate(-116.8 -377.771)" fill="#455a64"/>
      <path id="Path_1618" data-name="Path 1618" d="M122.925,444.679c.032,0,.036.108.013.227s-.068.212-.1.212-.036-.108-.013-.227S122.893,444.673,122.925,444.679Z" transform="translate(-117.439 -374.557)" fill="#455a64"/>
      <path id="Path_1619" data-name="Path 1619" d="M123.744,440.609c.03,0,.036.106.013.227s-.07.212-.1.212-.038-.108-.013-.227S123.708,440.6,123.744,440.609Z" transform="translate(-118.084 -371.351)" fill="#455a64"/>
      <path id="Path_1620" data-name="Path 1620" d="M124.575,436.529c.032,0,.036.108.013.227s-.068.212-.1.212-.036-.108-.013-.229S124.539,436.523,124.575,436.529Z" transform="translate(-118.739 -368.138)" fill="#455a64"/>
      <path id="Path_1621" data-name="Path 1621" d="M125.371,432.449c.03,0,.036.108.013.227s-.068.212-.1.212-.038-.108-.013-.227S125.34,432.443,125.371,432.449Z" transform="translate(-119.366 -364.924)" fill="#455a64"/>
      <path id="Path_1622" data-name="Path 1622" d="M126.185,428.379c.032,0,.038.106.013.227s-.068.212-.1.212-.036-.108-.013-.227S126.155,428.373,126.185,428.379Z" transform="translate(-120.007 -361.719)" fill="#455a64"/>
      <path id="Path_1623" data-name="Path 1623" d="M127,424.3c.03,0,.036.108.013.227s-.068.212-.1.212-.036-.108-.013-.229S126.973,424.293,127,424.3Z" transform="translate(-120.653 -358.505)" fill="#455a64"/>
      <path id="Path_1624" data-name="Path 1624" d="M127.82,420.219c.032,0,.038.108.013.227s-.068.212-.1.212-.038-.108-.015-.227S127.79,420.213,127.82,420.219Z" transform="translate(-121.296 -355.292)" fill="#455a64"/>
      <path id="Path_1625" data-name="Path 1625" d="M128.635,416.149c.03,0,.036.108.013.227s-.068.212-.1.212-.036-.108-.013-.227S128.6,416.143,128.635,416.149Z" transform="translate(-121.937 -352.086)" fill="#455a64"/>
      <path id="Path_1626" data-name="Path 1626" d="M129.45,412.065c.032,0,.038.108.015.227s-.07.212-.1.212-.038-.108-.015-.227S129.42,412.05,129.45,412.065Z" transform="translate(-122.58 -348.869)" fill="#455a64"/>
      <path id="Path_1627" data-name="Path 1627" d="M130.265,408c.032,0,.036.108.013.229s-.068.212-.1.212-.036-.108-.013-.227S130.233,408,130.265,408Z" transform="translate(-123.22 -345.668)" fill="#455a64"/>
      <path id="Path_1628" data-name="Path 1628" d="M131.082,403.919c.032,0,.038.108.015.227s-.07.212-.1.212-.038-.106-.013-.227S131.052,403.913,131.082,403.919Z" transform="translate(-123.865 -342.453)" fill="#455a64"/>
      <path id="Path_1629" data-name="Path 1629" d="M131.895,399.839c.032,0,.036.108.013.227s-.068.212-.1.212-.036-.108-.013-.227S131.863,399.833,131.895,399.839Z" transform="translate(-124.504 -339.24)" fill="#455a64"/>
      <path id="Path_1630" data-name="Path 1630" d="M132.714,395.759c.03,0,.036.108.013.229s-.07.212-.1.212-.038-.108-.013-.227S132.684,395.753,132.714,395.759Z" transform="translate(-125.149 -336.026)" fill="#455a64"/>
      <path id="Path_1631" data-name="Path 1631" d="M133.575,391.689c.032,0,.038.108.013.227s-.068.212-.1.212-.036-.108-.013-.229S133.532,391.683,133.575,391.689Z" transform="translate(-125.827 -332.821)" fill="#455a64"/>
      <path id="Path_1632" data-name="Path 1632" d="M134.342,387.609c.03,0,.036.108.013.227s-.068.212-.1.212-.038-.108-.013-.227S134.31,387.6,134.342,387.609Z" transform="translate(-126.431 -329.607)" fill="#455a64"/>
      <path id="Path_1633" data-name="Path 1633" d="M135.155,383.529c.032,0,.038.108.013.229s-.068.212-.1.212-.036-.108-.013-.227S135.125,383.523,135.155,383.529Z" transform="translate(-127.072 -326.394)" fill="#455a64"/>
      <path id="Path_1634" data-name="Path 1634" d="M135.975,379.459c.03,0,.036.108.013.227s-.068.212-.1.212-.036-.108-.013-.229S135.943,379.453,135.975,379.459Z" transform="translate(-127.718 -323.188)" fill="#455a64"/>
      <path id="Path_1635" data-name="Path 1635" d="M136.79,375.379c.032,0,.038.108.013.227s-.068.212-.1.212-.038-.108-.015-.227S136.76,375.373,136.79,375.379Z" transform="translate(-128.361 -319.975)" fill="#455a64"/>
      <path id="Path_1636" data-name="Path 1636" d="M137.575,371.3c.032,0,.036.108.013.229s-.068.212-.1.212-.036-.108-.013-.227S137.549,371.293,137.575,371.3Z" transform="translate(-128.978 -316.761)" fill="#455a64"/>
      <path id="Path_1637" data-name="Path 1637" d="M138.42,367.229c.032,0,.038.108.015.227s-.07.212-.1.212-.038-.108-.015-.229S138.39,367.223,138.42,367.229Z" transform="translate(-129.645 -313.555)" fill="#455a64"/>
      <path id="Path_1638" data-name="Path 1638" d="M139.235,363.149c.032,0,.036.108.013.227s-.068.212-.1.212-.036-.108-.013-.227S139.2,363.143,139.235,363.149Z" transform="translate(-130.285 -310.342)" fill="#455a64"/>
      <path id="Path_1639" data-name="Path 1639" d="M140.054,359.069c.03,0,.036.108.013.229s-.07.212-.1.212-.038-.108-.013-.227S140.022,359.065,140.054,359.069Z" transform="translate(-130.93 -307.129)" fill="#455a64"/>
      <path id="Path_1640" data-name="Path 1640" d="M140.865,355c.032,0,.036.108.013.227s-.068.212-.1.212-.036-.108-.013-.229S140.833,355,140.865,355Z" transform="translate(-131.569 -303.924)" fill="#455a64"/>
      <path id="Path_1641" data-name="Path 1641" d="M141.684,350.919c.03,0,.036.108.013.227s-.07.212-.1.212-.038-.108-.013-.227S141.66,350.913,141.684,350.919Z" transform="translate(-132.214 -300.709)" fill="#455a64"/>
      <path id="Path_1642" data-name="Path 1642" d="M142.495,346.849c.032,0,.038.106.013.227s-.068.212-.1.212-.036-.108-.013-.227S142.465,346.843,142.495,346.849Z" transform="translate(-132.853 -297.504)" fill="#455a64"/>
      <path id="Path_1643" data-name="Path 1643" d="M143.315,342.769c.03,0,.036.108.013.227s-.068.212-.1.212-.036-.108-.013-.229S143.283,342.763,143.315,342.769Z" transform="translate(-133.499 -294.29)" fill="#455a64"/>
      <path id="Path_1644" data-name="Path 1644" d="M144.125,338.689c.032,0,.038.108.013.227s-.068.212-.1.212-.036-.108-.013-.227S144.1,338.683,144.125,338.689Z" transform="translate(-134.137 -291.077)" fill="#455a64"/>
      <path id="Path_1645" data-name="Path 1645" d="M144.945,334.619c.03,0,.036.108.013.227s-.068.212-.1.212-.036-.108-.013-.227S144.913,334.613,144.945,334.619Z" transform="translate(-134.783 -287.871)" fill="#455a64"/>
      <path id="Path_1646" data-name="Path 1646" d="M145.76,330.539c.032,0,.038.108.015.227s-.07.212-.1.212-.038-.108-.015-.227S145.722,330.533,145.76,330.539Z" transform="translate(-135.426 -284.658)" fill="#455a64"/>
      <path id="Path_1647" data-name="Path 1647" d="M146.575,326.459c.032,0,.036.108.013.227s-.068.212-.1.212-.036-.108-.013-.227S146.543,326.453,146.575,326.459Z" transform="translate(-136.066 -281.444)" fill="#455a64"/>
      <path id="Path_1648" data-name="Path 1648" d="M147.392,322.389c.032,0,.038.108.015.227s-.07.212-.1.212-.038-.106-.013-.227S147.362,322.383,147.392,322.389Z" transform="translate(-136.711 -278.238)" fill="#455a64"/>
      <path id="Path_1649" data-name="Path 1649" d="M148.2,318.309c.032,0,.036.108.013.227s-.068.212-.1.212-.036-.108-.013-.227S148.173,318.3,148.2,318.309Z" transform="translate(-137.35 -275.025)" fill="#455a64"/>
      <path id="Path_1650" data-name="Path 1650" d="M230.14,176.066s1.47-2.2,1.51-2.221h0s1.325-2.234,1.767-2.234.282.452-.174,1.253a3.186,3.186,0,0,0-.44,1.14l1.089.656s.728-.28.758.4a4.612,4.612,0,0,1-.125.922c-.045.242-.153.5-.382.408a.282.282,0,0,1-.193-.272c-.015-.4.059-.55,0-.55s-.784,2.1-.784,2.1Z" transform="translate(-201.975 -159.481)" fill="#ffbe9d"/>
      <path id="Path_1651" data-name="Path 1651" d="M244.11,183.411a2.083,2.083,0,0,1,.35-.212.715.715,0,0,1,.4-.062.321.321,0,0,1,.263.452,1.083,1.083,0,0,1-.181.3" transform="translate(-212.978 -168.556)" fill="#ffbe9d"/>
      <path id="Path_1652" data-name="Path 1652" d="M241.77,181.393a2.1,2.1,0,0,1,.331-.2.68.68,0,0,1,.376-.057.329.329,0,0,1,.212.11.335.335,0,0,1,.04.314,2.881,2.881,0,0,1-.34.438" transform="translate(-211.135 -166.981)" fill="#ffbe9d"/>
      <path id="Path_1653" data-name="Path 1653" d="M224.684,186.74l-2.124,4.541,2.336,2.393,1.219-3.385s.654.13.922-.3a11.359,11.359,0,0,0,.688-1.882Z" transform="translate(-196.005 -171.398)" fill="#ffbe9d"/>
      <path id="Path_1654" data-name="Path 1654" d="M239.7,182.333a1.153,1.153,0,0,1,.251-.637,1.126,1.126,0,0,1,.365-.323c.108-.057.183-.079.189-.066a2.628,2.628,0,0,0-.461.457C239.838,182.05,239.736,182.347,239.7,182.333Z" transform="translate(-209.505 -167.116)" fill="#eb996e"/>
      <path id="Path_1655" data-name="Path 1655" d="M246.482,185.65c0,.015-.083-.025-.212-.047a.711.711,0,0,0-.463.072,1.13,1.13,0,0,0-.342.348c-.074.106-.125.172-.14.164s.011-.085.072-.212a.936.936,0,0,1,.359-.4.688.688,0,0,1,.539-.049C246.431,185.572,246.491,185.64,246.482,185.65Z" transform="translate(-213.931 -170.415)" fill="#eb996e"/>
      <path id="Path_1656" data-name="Path 1656" d="M243.786,183.169a3.047,3.047,0,0,0-.5.293c-.238.212-.355.457-.387.442a.807.807,0,0,1,.31-.527.9.9,0,0,1,.391-.212C243.713,183.148,243.783,183.156,243.786,183.169Z" transform="translate(-212.025 -168.575)" fill="#eb996e"/>
      <path id="Path_1657" data-name="Path 1657" d="M248.333,187.838c.03-.011.085.166-.028.34s-.293.212-.3.172.115-.093.2-.232S248.3,187.843,248.333,187.838Z" transform="translate(-216.05 -172.263)" fill="#eb996e"/>
      <path id="Path_1658" data-name="Path 1658" d="M230.143,185.517s-.074-1.355.253-1.663,1.274.013,1.274.013" transform="translate(-201.971 -169.02)" fill="#ffbe9d"/>
      <path id="Path_1659" data-name="Path 1659" d="M234.054,181.37a3.666,3.666,0,0,1-.486.771,3.723,3.723,0,0,1-.578.705,7.163,7.163,0,0,1,1.062-1.476Z" transform="translate(-204.22 -167.169)" fill="#eb996e"/>
      <path id="Path_1660" data-name="Path 1660" d="M149.312,128.156l-.032,10.574,4.536.212.132-2.572a1.726,1.726,0,0,0,2.026-1.177c.268-.956.2-8.344.2-8.344Z" transform="translate(-138.287 -124.227)" fill="#ffbe9d"/>
      <path id="Path_1661" data-name="Path 1661" d="M151.14,122.122c-.714.212-.869,1.374-.869,1.374l-1.121,2.474c-.571-.446-1.338-.425-1.487.584-.106.724.8.871.8.871a13.09,13.09,0,0,1-1.646,2.466,2.43,2.43,0,0,1-2.187,1.026h-.988s-.484-1.572-1.38-5.5c-1-4.36,4.16-3.8,5.116-4.912C148.936,118.692,153.394,121.478,151.14,122.122Z" transform="translate(-132.657 -118.754)" fill="#263238"/>
      <path id="Path_1662" data-name="Path 1662" d="M140.5,121.573c-.837-.561-.911-2.124-.425-3.073a3.022,3.022,0,0,1,2.574-1.6,1.221,1.221,0,0,0,.425-.047,1.162,1.162,0,0,0,.45-.425c.748-.971,1.487-1.924,2.873-1.924a1.584,1.584,0,0,1,.875.212,1.366,1.366,0,0,1,.527.7,2.9,2.9,0,0,1,.813-.293,1.007,1.007,0,0,1,.818.2.616.616,0,0,1,.127.784.988.988,0,0,1,.988.822c.074.465-.59.792-.661.828a.92.92,0,0,1-.505,1.223,1.018,1.018,0,0,1-.85-.066" transform="translate(-130.797 -114.501)" fill="#263238"/>
      <path id="Path_1663" data-name="Path 1663" d="M157.49,152.59a1.57,1.57,0,0,1-.025.8,1.6,1.6,0,0,1-.321.737c-.032-.015.115-.34.212-.762S157.456,152.59,157.49,152.59Z" transform="translate(-144.477 -144.501)" fill="#455a64"/>
      <path id="Path_1664" data-name="Path 1664" d="M160.33,150.15a1.877,1.877,0,0,1-.042.773,2,2,0,0,1-.238.737,4.013,4.013,0,0,1,.125-.758A4.286,4.286,0,0,1,160.33,150.15Z" transform="translate(-146.77 -142.579)" fill="#455a64"/>
      <path id="Path_1665" data-name="Path 1665" d="M164.479,141.93c0,.015-.117.108-.28.3a2.861,2.861,0,0,0-.488.85,6.913,6.913,0,0,0-.272.949,1.569,1.569,0,0,1-.113.4,1.462,1.462,0,0,1,.032-.425,4.649,4.649,0,0,1,.244-.977,2.474,2.474,0,0,1,.537-.85A.85.85,0,0,1,164.479,141.93Z" transform="translate(-149.348 -136.105)" fill="#455a64"/>
      <path id="Path_1666" data-name="Path 1666" d="M170.019,136.33a.637.637,0,0,1,.089.287,1.911,1.911,0,0,1-.346,1.378.888.888,0,0,1-.212.212,2.708,2.708,0,0,0,.469-1.877Z" transform="translate(-154.253 -131.694)" fill="#455a64"/>
      <path id="Path_1667" data-name="Path 1667" d="M144.169,147.542c-.017.028-.155-.021-.312-.108s-.27-.178-.253-.212.153.019.31.106S144.184,147.515,144.169,147.542Z" transform="translate(-133.815 -140.264)" fill="#455a64"/>
      <path id="Path_1668" data-name="Path 1668" d="M154.811,143.449a.637.637,0,0,1-.13.461c-.14.234-.329.353-.348.329s.121-.174.248-.389S154.777,143.443,154.811,143.449Z" transform="translate(-142.266 -137.301)" fill="#455a64"/>
      <path id="Path_1669" data-name="Path 1669" d="M157.437,141.75a.911.911,0,0,1-.2.55c-.183.276-.41.425-.425.4a4.926,4.926,0,0,1,.333-.463A4.577,4.577,0,0,1,157.437,141.75Z" transform="translate(-144.218 -135.963)" fill="#455a64"/>
      <path id="Path_1670" data-name="Path 1670" d="M153.108,119.283a2.568,2.568,0,0,0-.251-.159,1.7,1.7,0,0,0-.76-.2,2.032,2.032,0,0,0-1.115.3,2.761,2.761,0,0,0-.949,1.062,4.851,4.851,0,0,0-.387.992l-.017.066-.062-.032a2.261,2.261,0,0,0-1.011-.259,2.393,2.393,0,0,0-.824.125,3.5,3.5,0,0,0-.673.336.706.706,0,0,1,.151-.134,2.124,2.124,0,0,1,.5-.268,2.359,2.359,0,0,1,.849-.153,2.324,2.324,0,0,1,1.062.255l-.081.036a4.772,4.772,0,0,1,.391-1.019,2.825,2.825,0,0,1,1-1.094,2.073,2.073,0,0,1,1.172-.291,1.637,1.637,0,0,1,.779.24,1.139,1.139,0,0,1,.174.138C153.094,119.259,153.111,119.278,153.108,119.283Z" transform="translate(-136.539 -117.924)" fill="#455a64"/>
      <path id="Path_1671" data-name="Path 1671" d="M166.623,123.056a.278.278,0,0,1,.261.117.463.463,0,0,1,.1.331.516.516,0,0,1-.263.376.75.75,0,0,1-.552.076,1.571,1.571,0,0,1-.569-.276,5.572,5.572,0,0,0-.556-.38,2.256,2.256,0,0,0-.669-.236,2.837,2.837,0,0,0-1.368.093,3.742,3.742,0,0,0-1.011.514,9.84,9.84,0,0,0-.809.684,1.153,1.153,0,0,1,.18-.225,4.423,4.423,0,0,1,.58-.525,3.6,3.6,0,0,1,1.026-.548,2.85,2.85,0,0,1,1.423-.106,2.365,2.365,0,0,1,.7.248,5.228,5.228,0,0,1,.563.4,1.538,1.538,0,0,0,.529.268.663.663,0,0,0,.491-.053.45.45,0,0,0,.24-.314.41.41,0,0,0-.076-.3.4.4,0,0,0-.225-.144Z" transform="translate(-147.668 -121.121)" fill="#455a64"/>
      <path id="Path_1672" data-name="Path 1672" d="M106.359,188l-4.052,6.8c-.454.794-.873,1.64-1.274,2.517a2.816,2.816,0,0,0,.425,2.636l-.115-.166a2.37,2.37,0,0,0,1.841.879h.106a2.366,2.366,0,0,0,2.168-1.423l1.3-1.975Z" transform="translate(-100.164 -172.391)" fill="#ff725e"/>
      <path id="Path_1673" data-name="Path 1673" d="M136.191,178.724a7.432,7.432,0,0,0-3.334-.716,37.944,37.944,0,0,0-4.759-.074s-4.188.31-4.479,3.186l.571,13.486-.96,5.713,13.429.406-.1-6.745c.166-3.506-.187-8.474-.187-8.474.212-1.886,1.238-2.733,1.385-3.961A3.016,3.016,0,0,0,136.191,178.724Z" transform="translate(-117.77 -164.414)" fill="#ff725e"/>
      <path id="Path_1674" data-name="Path 1674" d="M142.835,257.547a1.078,1.078,0,0,1-.2.187,4.352,4.352,0,0,1-.612.425,4.885,4.885,0,0,1-4.717.083,4.4,4.4,0,0,1-.627-.4,1.16,1.16,0,0,1-.212-.181c.013-.019.31.234.867.505a5.056,5.056,0,0,0,4.64-.083C142.529,257.791,142.82,257.53,142.835,257.547Z" transform="translate(-128.198 -227.167)" fill="#263238"/>
      <path id="Path_1675" data-name="Path 1675" d="M124.986,193.86a.609.609,0,0,1,.015.132c0,.1.015.223.023.378.015.342.038.811.064,1.385.051,1.185.117,2.8.191,4.577s.155,3.4.212,4.575c.03.573.053,1.043.07,1.385,0,.155.013.278.017.378a.576.576,0,0,1,0,.132.594.594,0,0,1-.021-.13c-.011-.1-.023-.223-.038-.376-.032-.327-.066-.8-.106-1.385-.081-1.17-.166-2.786-.242-4.575s-.127-3.4-.157-4.577c0-.576-.021-1.045-.028-1.389v-.376A.6.6,0,0,1,124.986,193.86Z" transform="translate(-119.15 -177.006)" fill="#263238"/>
      <path id="Path_1676" data-name="Path 1676" d="M104.984,197.229a.38.38,0,0,1-.047.1l-.151.291c-.136.251-.338.61-.6,1.047-.51.881-1.274,2.062-2.049,3.4-.389.671-.716,1.334-1,1.939a3.574,3.574,0,0,0-.391,1.7,2.748,2.748,0,0,0,.312,1.138c.132.248.242.363.231.372a.549.549,0,0,1-.081-.081,2.062,2.062,0,0,1-.191-.27,2.64,2.64,0,0,1-.353-1.155,3.581,3.581,0,0,1,.374-1.75c.282-.614.607-1.274,1-1.954.777-1.346,1.552-2.517,2.079-3.4.259-.425.471-.769.627-1.028.07-.11.125-.212.172-.278S104.984,197.227,104.984,197.229Z" transform="translate(-99.997 -179.659)" fill="#263238"/>
      <path id="Path_1677" data-name="Path 1677" d="M190.137,187.337,187.03,185.3l-1.962,3.4s-2.718-3.778-3.952-5.991a5.082,5.082,0,0,0-3.317-2.735.314.314,0,0,0-.376.344l1.062,7.348a62.96,62.96,0,0,0,3.632,5.269c2.092,2.731,5.173.983,6.019-.928C188.816,190.49,189.861,188.186,190.137,187.337Z" transform="translate(-160.451 -166.065)" fill="#ff725e"/>
      <path id="Path_1678" data-name="Path 1678" d="M214.438,223.887a2.083,2.083,0,0,1-.059-.484,9.241,9.241,0,0,0-.151-1.157,3.824,3.824,0,0,0-.4-1.085c-.144-.257-.27-.4-.255-.41a1.155,1.155,0,0,1,.325.367,3.272,3.272,0,0,1,.44,1.1,6.124,6.124,0,0,1,.119,1.177A1.958,1.958,0,0,1,214.438,223.887Z" transform="translate(-188.927 -198.185)" fill="#263238"/>
      <path id="Path_1679" data-name="Path 1679" d="M215.143,221.833c-.019,0-.034-.157-.11-.4a2.186,2.186,0,0,0-.5-.833,1.3,1.3,0,0,0-.826-.452,1.217,1.217,0,0,0-.393.068.506.506,0,0,1,.4-.149,1.274,1.274,0,0,1,.907.452,1.967,1.967,0,0,1,.493.89A.9.9,0,0,1,215.143,221.833Z" transform="translate(-188.724 -197.65)" fill="#263238"/>
      <path id="Path_1680" data-name="Path 1680" d="M174.208,184.268a.478.478,0,0,1-.076.085l-.1.1c-.034.045-.074.091-.119.144a3.042,3.042,0,0,0-.537,1.045,4.063,4.063,0,0,0-.117,1.733,3.84,3.84,0,0,0,.265.994,11,11,0,0,0,.5,1c.76,1.336,1.544,2.491,2.109,3.326.28.4.512.735.684.979a4.374,4.374,0,0,1,.246.363.815.815,0,0,1-.079-.083c-.049-.057-.119-.14-.212-.253-.176-.212-.425-.55-.714-.96a39.381,39.381,0,0,1-2.124-3.317,10.413,10.413,0,0,1-.508-1.009,3.943,3.943,0,0,1-.278-1.015,4.075,4.075,0,0,1,.147-1.773,2.908,2.908,0,0,1,.58-1.049l.13-.138.1-.091C174.174,184.287,174.2,184.264,174.208,184.268Z" transform="translate(-157.063 -169.451)" fill="#263238"/>
      <path id="Path_1681" data-name="Path 1681" d="M141.348,276.19a.345.345,0,0,1-.093.04l-.28.1c-.121.042-.27.089-.446.136s-.376.11-.6.157a15.069,15.069,0,0,1-1.586.291,15.578,15.578,0,0,1-3.944.013,15.849,15.849,0,0,1-1.586-.283c-.225-.047-.425-.106-.6-.155s-.325-.091-.448-.134l-.278-.1c-.064-.021-.1-.036-.1-.04a.564.564,0,0,1,.1.019l.285.074c.123.034.274.074.452.115s.376.1.6.136c.446.1.983.185,1.582.257a18.077,18.077,0,0,0,1.96.108,18.472,18.472,0,0,0,1.958-.119c.6-.074,1.134-.166,1.58-.266.225-.042.425-.1.6-.14s.327-.083.45-.117l.285-.076A.312.312,0,0,1,141.348,276.19Z" transform="translate(-124.196 -241.851)" fill="#263238"/>
      <g id="Group_2234" data-name="Group 2234" transform="translate(5.585 18.071)" opacity="0.3">
        <path id="Path_1682" data-name="Path 1682" d="M123.82,207.941l.605-.941-.316-7.41Z" transform="translate(-123.82 -199.59)"/>
      </g>
      <g id="Group_2235" data-name="Group 2235" transform="translate(16.058 17.57)" opacity="0.3">
        <path id="Path_1683" data-name="Path 1683" d="M173.13,197.23a10.811,10.811,0,0,0,.637,3.77,33.834,33.834,0,0,0,2.1,3.243c0-.138-.083-1.911-.083-1.911S173.143,198.74,173.13,197.23Z" transform="translate(-173.13 -197.23)"/>
      </g>
      <path id="Path_1684" data-name="Path 1684" d="M107.522,228.989a.452.452,0,0,1-.193.057,1.167,1.167,0,0,1-.548-.072,1.811,1.811,0,0,1-.677-.455,3.921,3.921,0,0,1-.567-.818,8.151,8.151,0,0,0-.5-.85,2.37,2.37,0,0,0-.554-.556,1.752,1.752,0,0,0-.671-.265.53.53,0,0,1,.212,0,1.352,1.352,0,0,1,.514.2,2.374,2.374,0,0,1,.593.561,7.4,7.4,0,0,1,.514.85,4.17,4.17,0,0,0,.544.8,1.858,1.858,0,0,0,.637.452A1.376,1.376,0,0,0,107.522,228.989Z" transform="translate(-102.474 -202.336)" fill="#fff"/>
      <path id="Path_1685" data-name="Path 1685" d="M116.748,211.614c-.019,0-.066-.161-.2-.4a2.5,2.5,0,0,0-1.635-1.236c-.265-.059-.437-.059-.437-.079a1.062,1.062,0,0,1,.45,0,2.3,2.3,0,0,1,1.7,1.274A1.062,1.062,0,0,1,116.748,211.614Z" transform="translate(-110.878 -189.621)" fill="#fff"/>
      <path id="Path_1686" data-name="Path 1686" d="M136.412,198.912s-.147-.028-.41-.049a3.522,3.522,0,0,0-1.109.1,6.7,6.7,0,0,0-1.542.616c-.556.291-1.145.66-1.812.966a5.521,5.521,0,0,1-1.994.508,5.619,5.619,0,0,1-1.676-.155,4.951,4.951,0,0,1-1.062-.391,2.989,2.989,0,0,1-.27-.149.335.335,0,0,1-.089-.062s.136.064.378.17a5.578,5.578,0,0,0,1.062.355,5.75,5.75,0,0,0,1.65.13,5.6,5.6,0,0,0,1.956-.505c.656-.3,1.247-.667,1.809-.956a6.282,6.282,0,0,1,1.569-.6,3.265,3.265,0,0,1,1.132-.068,2.177,2.177,0,0,1,.3.057A.361.361,0,0,1,136.412,198.912Z" transform="translate(-120.306 -180.896)" fill="#fff"/>
      <path id="Path_1687" data-name="Path 1687" d="M139.794,228.756a.509.509,0,0,1-.121.04,3.177,3.177,0,0,1-.361.089,5.763,5.763,0,0,1-1.357.108,10.373,10.373,0,0,1-2-.28c-.743-.17-1.542-.414-2.381-.66a16.276,16.276,0,0,0-2.4-.533,7.413,7.413,0,0,0-2-.015,4.828,4.828,0,0,0-1.3.357c-.291.127-.446.212-.45.212a.5.5,0,0,1,.106-.072c.076-.038.178-.113.327-.176a4.645,4.645,0,0,1,1.3-.4,7.329,7.329,0,0,1,2.02,0,15.5,15.5,0,0,1,2.417.529c.85.246,1.637.493,2.374.667a10.53,10.53,0,0,0,1.979.3,6.335,6.335,0,0,0,1.349-.072C139.62,228.79,139.792,228.745,139.794,228.756Z" transform="translate(-121.078 -203.392)" fill="#fff"/>
      <path id="Path_1688" data-name="Path 1688" d="M140.089,251.515a5.805,5.805,0,0,0-1.767-.476,8.728,8.728,0,0,0-1.988.068c-.745.1-1.557.272-2.413.425s-1.676.3-2.432.367a9.358,9.358,0,0,1-2.009-.013,5.79,5.79,0,0,1-1.319-.316c-.151-.051-.261-.113-.338-.144a.538.538,0,0,1-.115-.059c0-.011.166.062.467.164a6.412,6.412,0,0,0,1.312.278,9.633,9.633,0,0,0,1.992,0c.748-.07,1.565-.212,2.421-.374s1.667-.329,2.419-.425a8.331,8.331,0,0,1,2.009-.047,4.884,4.884,0,0,1,1.315.331,3.005,3.005,0,0,1,.333.159.591.591,0,0,1,.11.062Z" transform="translate(-121.298 -221.95)" fill="#fff"/>
      <path id="Path_1689" data-name="Path 1689" d="M132.494,268.924a1.106,1.106,0,0,1-.212-.134c-.132-.093-.323-.225-.563-.382a17.255,17.255,0,0,0-1.941-1.111,17.443,17.443,0,0,0-2.075-.849c-.272-.091-.493-.159-.637-.212a.98.98,0,0,1-.236-.085,1.2,1.2,0,0,1,.246.042c.159.034.384.093.66.174a13.871,13.871,0,0,1,4.035,1.964c.236.166.425.308.544.412A1.061,1.061,0,0,1,132.494,268.924Z" transform="translate(-120.605 -233.943)" fill="#fff"/>
      <path id="Path_1690" data-name="Path 1690" d="M172.261,278.5a1.384,1.384,0,0,1-.446.223,3.262,3.262,0,0,1-2.37-.072,1.448,1.448,0,0,1-.425-.251,4.884,4.884,0,0,1,.461.178,3.91,3.91,0,0,0,1.153.212,3.8,3.8,0,0,0,1.164-.151C172.08,278.564,172.252,278.483,172.261,278.5Z" transform="translate(-153.835 -243.592)" fill="#fff"/>
      <path id="Path_1691" data-name="Path 1691" d="M194.353,212.85a.473.473,0,0,1-.025.189,1.275,1.275,0,0,1-.248.457,2.139,2.139,0,0,1-.6.484,6.883,6.883,0,0,1-.85.382,3.643,3.643,0,0,0-.807.425,1.654,1.654,0,0,0-.48.552,1.249,1.249,0,0,0-.136.658.361.361,0,0,1-.042-.185,1.062,1.062,0,0,1,.108-.51,1.656,1.656,0,0,1,.486-.6,3.447,3.447,0,0,1,.828-.444,8.441,8.441,0,0,0,.849-.37,2.266,2.266,0,0,0,.586-.446A1.669,1.669,0,0,0,194.353,212.85Z" transform="translate(-171.278 -191.963)" fill="#fff"/>
      <path id="Path_1692" data-name="Path 1692" d="M181.184,191.63a.649.649,0,0,1-.036.193,1.421,1.421,0,0,1-.066.212,2.6,2.6,0,0,1-.108.285,4.248,4.248,0,0,1-.382.7,4.845,4.845,0,0,1-.637.739,4.721,4.721,0,0,1-.777.586,4.2,4.2,0,0,1-.718.34,2.776,2.776,0,0,1-.291.091,1.529,1.529,0,0,1-.212.051.737.737,0,0,1-.2.025c0-.021.27-.074.682-.242a4.73,4.73,0,0,0,2.064-1.648,4.5,4.5,0,0,0,.4-.669C181.094,191.893,181.162,191.623,181.184,191.63Z" transform="translate(-160.719 -175.249)" fill="#fff"/>
      <path id="Path_1693" data-name="Path 1693" d="M143.377,178.51a2.141,2.141,0,0,1-.308.138c-.2.085-.5.191-.869.308s-.82.231-1.325.336a13.592,13.592,0,0,1-3.334.244,13.263,13.263,0,0,1-1.361-.138c-.384-.062-.692-.123-.9-.178a1.841,1.841,0,0,1-.325-.091,2.074,2.074,0,0,1,.336.051c.212.04.522.091.9.14s.849.093,1.355.115a15.864,15.864,0,0,0,1.663-.028,16.066,16.066,0,0,0,1.648-.212c.5-.1.951-.212,1.323-.312s.671-.2.875-.272A2.063,2.063,0,0,1,143.377,178.51Z" transform="translate(-127.001 -164.916)" fill="#fff"/>
      <path id="Path_1694" data-name="Path 1694" d="M208.194,222a.723.723,0,0,1,.076.212,3.108,3.108,0,0,1,.091.614,8.88,8.88,0,0,1-.212,2.032,5.427,5.427,0,0,1-.289,1.092,2.432,2.432,0,0,1-.493.784,1.63,1.63,0,0,1-.505.367.582.582,0,0,1-.212.068,2.181,2.181,0,0,0,.665-.489,2.479,2.479,0,0,0,.457-.769,5.879,5.879,0,0,0,.274-1.075,10.45,10.45,0,0,0,.24-2.007A7.317,7.317,0,0,0,208.194,222Z" transform="translate(-183.473 -199.17)" fill="#fff"/>
      <path id="Path_1695" data-name="Path 1695" d="M221.31,215.709c-.019,0-.119-.212-.34-.539a4.418,4.418,0,0,0-1.075-1.079,4.363,4.363,0,0,0-1.383-.637c-.38-.1-.637-.115-.624-.134a.467.467,0,0,1,.174,0,2.761,2.761,0,0,1,.467.064,3.716,3.716,0,0,1,.673.212,3.961,3.961,0,0,1,1.4.981,3.885,3.885,0,0,1,.425.559,2.667,2.667,0,0,1,.212.425.536.536,0,0,1,.066.149Z" transform="translate(-192.325 -192.327)" fill="#fff"/>
      <g id="Group_2236" data-name="Group 2236" transform="translate(7.169 33.663)" opacity="0.3">
        <path id="Path_1696" data-name="Path 1696" d="M140.607,273.857a.393.393,0,0,0,.149-.578.741.741,0,0,0-.612-.212c-1.1.021-2.056.756-3.135.954a5.317,5.317,0,0,1-2.466-.261,23.32,23.32,0,0,0-2.4-.714,1.155,1.155,0,0,0-.518-.013.452.452,0,0,0-.346.353c-.021.172.019.3.278.389a20.556,20.556,0,0,0,4.672.726A20.844,20.844,0,0,0,140.607,273.857Z" transform="translate(-131.277 -273.01)"/>
      </g>
    </g>
  </g>
</svg>
