<svg xmlns="http://www.w3.org/2000/svg" width="18" height="18" viewBox="0 0 18 18">
  <g id="Group_3131" data-name="Group 3131" transform="translate(-103 -1027)">
    <g id="Group_3129" data-name="Group 3129" transform="translate(-114 -46)">
      <rect id="Rectangle_1137" data-name="Rectangle 1137" width="18" height="18" transform="translate(217 1073)" fill="#fff"/>
    </g>
    <g id="man-user" transform="translate(63.259 1027)">
      <path id="Path_4920" data-name="Path 4920" d="M108.092,8.987c1.964,0,3.557-2.012,3.557-4.493S111.125,0,108.092,0s-3.557,2.012-3.557,4.494S106.127,8.987,108.092,8.987Z" transform="translate(-59.351)" fill="#005893"/>
      <path id="Path_4921" data-name="Path 4921" d="M41.9,300.45c0-.151,0-.043,0,0Z" transform="translate(0 -284.977)" fill="#005893"/>
      <path id="Path_4922" data-name="Path 4922" d="M308.085,301.624c0-.042,0-.287,0,0Z" transform="translate(-252.5 -286.033)" fill="#005893"/>
      <path id="Path_4923" data-name="Path 4923" d="M55.589,184.075c-.067-4.323-.62-5.555-4.852-6.335a2.928,2.928,0,0,1-3.969,0c-4.186.771-4.773,1.985-4.85,6.194-.006.344-.009.362-.01.322,0,.075,0,.213,0,.454,0,0,1.008,2.074,6.844,2.074S55.6,184.71,55.6,184.71c0-.155,0-.263,0-.336A2.841,2.841,0,0,1,55.589,184.075Z" transform="translate(-0.012 -168.784)" fill="#005893"/>
    </g>
  </g>
</svg>
