<svg id="logo" xmlns="http://www.w3.org/2000/svg" width="186.915" height="27" viewBox="0 0 186.915 27">
  <path id="Path_770" data-name="Path 770" d="M382.16,398.33l-5.513,8.832-15.646-27h10.646Z" transform="translate(-361 -380.162)" fill="#ffffff" />
  <path id="Path_771" data-name="Path 771" d="M388.735,380.162h13.941l-7.167,11.507L394.1,384.7Z" transform="translate(-370.169 -380.162)" fill="#ffffff" />
  <path id="Path_772" data-name="Path 772" d="M424.686,407.5h-.208l-5.951-13.091h3.185l2.974,6.9,3-6.9h2.949Z" transform="translate(-380.119 -384.919)" fill="#ffffff" />
  <path id="Path_773" data-name="Path 773" d="M447.02,393.829h-.192l-6.427,13h3.026l3.367-6.933,3.366,6.933h3.148Z" transform="translate(-387.389 -384.723)" fill="#ffffff" />
  <path id="Path_774" data-name="Path 774" d="M468.019,407.026V394.414h3.009v9.907h4.914v2.705Z" transform="translate(-396.563 -384.917)" fill="#ffffff" />
  <path id="Path_775" data-name="Path 775" d="M491.307,394.414v6.933a4.2,4.2,0,0,0,.613,2.5,2.157,2.157,0,0,0,1.857.831,2.224,2.224,0,0,0,1.83-.775,3.488,3.488,0,0,0,.631-2.252v-7.237h2.688v7.237a6.061,6.061,0,0,1-1.4,4.258,5.76,5.76,0,0,1-7.8.012,6.041,6.041,0,0,1-1.4-4.254v-7.254h2.975Z" transform="translate(-403.316 -384.918)" fill="#ffffff" />
  <path id="Path_776" data-name="Path 776" d="M515.209,407.026V394.414h7.767v2.6H518.13v2.278h4.15v2.583h-4.15v2.5h4.914v2.653Z" transform="translate(-412.244 -384.917)" fill="#ffffff" />
  <path id="Path_777" data-name="Path 777" d="M537.265,406.824V393.8h.285l7.856,7.358v-6.95h2.774V407.3h-.26l-7.881-7.359v6.88Z" transform="translate(-419.578 -384.717)" fill="#ffffff" />
  <path id="Path_778" data-name="Path 778" d="M568.472,393.829h-.191l-6.426,13h3.025l3.366-6.933,3.366,6.933h3.148Z" transform="translate(-427.754 -384.723)" fill="#ffffff" />
  <rect id="Rectangle_362" data-name="Rectangle 362" width="3.01" height="12.612" transform="translate(152.515 9.497)" fill="#ffffff" />
  <path id="Path_779" data-name="Path 779" d="M608.746,396.711h-.5v3.5h.635a2.817,2.817,0,0,0,1.74-.461,1.568,1.568,0,0,0,.6-1.322,1.477,1.477,0,0,0-.584-1.309,3.4,3.4,0,0,0-1.895-.4m-3.419,10.315V394.414h3.243a11.053,11.053,0,0,1,2.415.2,4.255,4.255,0,0,1,1.518.683,3.532,3.532,0,0,1,1.091,1.248,3.359,3.359,0,0,1,.387,1.57,3.647,3.647,0,0,1-.6,2.088,3.974,3.974,0,0,1-1.743,1.4l3.844,5.42h-3.436l-3.366-4.949h-.427v4.949h-2.922Z" transform="translate(-442.231 -384.917)" fill="#ffffff" />
  <path id="Path_780" data-name="Path 780" d="M629.2,407.026V394.414h7.767v2.6h-4.846v2.278h4.15v2.583h-4.15v2.5h4.916v2.653Z" transform="translate(-450.124 -384.917)" fill="#ffffff" />
</svg>
