<?xml version="1.0" encoding="UTF-8"?>
<svg id="Layer_1" data-name="Layer 1" xmlns="http://www.w3.org/2000/svg" xmlns:xlink="http://www.w3.org/1999/xlink" viewBox="0 0 609.12 390.77">
  <defs>
    <style>
      .cls-1 {
        filter: url(#drop-shadow-6);
      }

      .cls-1, .cls-2, .cls-3, .cls-4, .cls-5, .cls-6 {
        fill: #fff;
        stroke-miterlimit: 10;
        stroke-width: 6px;
      }

      .cls-1, .cls-2, .cls-4, .cls-6 {
        stroke: #1c6a9e;
      }

      .cls-7 {
        fill: #f3745f;
      }

      .cls-8 {
        fill: #66c5b4;
      }

      .cls-2 {
        filter: url(#drop-shadow-1);
      }

      .cls-3 {
        filter: url(#drop-shadow-4);
      }

      .cls-3, .cls-5 {
        stroke: #5cc3b0;
      }

      .cls-4 {
        filter: url(#drop-shadow-3);
      }

      .cls-9 {
        fill: #f3735f;
      }

      .cls-10 {
        fill: #005994;
      }

      .cls-5 {
        filter: url(#drop-shadow-5);
      }

      .cls-6 {
        filter: url(#drop-shadow-2);
      }
    </style>
    <filter id="drop-shadow-1" filterUnits="userSpaceOnUse">
      <feOffset dx="0" dy="0"/>
      <feGaussianBlur result="blur" stdDeviation="10"/>
      <feFlood flood-color="#231f20" flood-opacity=".25"/>
      <feComposite in2="blur" operator="in"/>
      <feComposite in="SourceGraphic"/>
    </filter>
    <filter id="drop-shadow-2" filterUnits="userSpaceOnUse">
      <feOffset dx="0" dy="0"/>
      <feGaussianBlur result="blur-2" stdDeviation="10"/>
      <feFlood flood-color="#231f20" flood-opacity=".25"/>
      <feComposite in2="blur-2" operator="in"/>
      <feComposite in="SourceGraphic"/>
    </filter>
    <filter id="drop-shadow-3" filterUnits="userSpaceOnUse">
      <feOffset dx="0" dy="0"/>
      <feGaussianBlur result="blur-3" stdDeviation="10"/>
      <feFlood flood-color="#231f20" flood-opacity=".25"/>
      <feComposite in2="blur-3" operator="in"/>
      <feComposite in="SourceGraphic"/>
    </filter>
    <filter id="drop-shadow-4" filterUnits="userSpaceOnUse">
      <feOffset dx="0" dy="0"/>
      <feGaussianBlur result="blur-4" stdDeviation="10"/>
      <feFlood flood-color="#231f20" flood-opacity=".25"/>
      <feComposite in2="blur-4" operator="in"/>
      <feComposite in="SourceGraphic"/>
    </filter>
    <filter id="drop-shadow-5" filterUnits="userSpaceOnUse">
      <feOffset dx="0" dy="0"/>
      <feGaussianBlur result="blur-5" stdDeviation="10"/>
      <feFlood flood-color="#231f20" flood-opacity=".25"/>
      <feComposite in2="blur-5" operator="in"/>
      <feComposite in="SourceGraphic"/>
    </filter>
    <filter id="drop-shadow-6" filterUnits="userSpaceOnUse">
      <feOffset dx="0" dy="0"/>
      <feGaussianBlur result="blur-6" stdDeviation="10"/>
      <feFlood flood-color="#231f20" flood-opacity=".25"/>
      <feComposite in2="blur-6" operator="in"/>
      <feComposite in="SourceGraphic"/>
    </filter>
  </defs>
  <rect class="cls-7" x="453.32" y="196.97" width="27.84" height="104.82" transform="translate(973.96 95.34) rotate(135)"/>
  <rect class="cls-7" x="130.88" y="196.97" width="27.84" height="104.82" transform="translate(218.75 -29.34) rotate(45)"/>
  <rect class="cls-7" x="348.59" y="92.25" width="27.84" height="104.82" transform="translate(721.14 -9.38) rotate(135)"/>
  <rect class="cls-2" x="263.24" y="46.5" width="84.44" height="84.44" rx="9.94" ry="9.94" transform="translate(152.2 -190.01) rotate(45)"/>
  <rect class="cls-6" x="372.72" y="151.65" width="84.44" height="84.44" rx="9.94" ry="9.94" transform="translate(258.62 -236.63) rotate(45)"/>
  <rect class="cls-4" x="478.07" y="259.76" width="84.44" height="84.44" rx="9.94" ry="9.94" transform="translate(365.92 -279.46) rotate(45)"/>
  <rect class="cls-3" x="155.47" y="151.65" width="84.44" height="84.44" rx="9.94" ry="9.94" transform="translate(194.99 -83) rotate(45)"/>
  <rect class="cls-5" x="46.51" y="259.76" width="84.44" height="84.44" rx="9.94" ry="9.94" transform="translate(239.52 25.71) rotate(45)"/>
  <rect class="cls-1" x="263.24" y="259.76" width="84.44" height="84.44" rx="9.94" ry="9.94" transform="translate(303 -127.55) rotate(45)"/>
  <g>
    <path id="Path_5482" data-name="Path 5482" class="cls-8" d="M330,107.53h-1.77v-25.41c-.03-2.09-1.75-3.75-3.83-3.73h-4.72c-2.09-.03-3.8,1.64-3.83,3.73v25.41h-3.34v-19.81c-.03-1.74-1.46-3.14-3.2-3.12h-5.97c-1.74-.02-3.18,1.37-3.2,3.12v19.81h-3.34v-13.57c-.03-1.82-1.52-3.27-3.34-3.24h-5.7c-1.82-.02-3.31,1.43-3.34,3.25v13.57h-1.77c-.79-.02-1.45,.6-1.48,1.39-.02,.79,.6,1.45,1.39,1.48,.03,0,.06,0,.08,0h47.36c.79,.02,1.45-.6,1.48-1.39,.02-.79-.6-1.45-1.39-1.48-.03,0-.06,0-.08,0h0Zm-42.64,0v-13.57c0-.21,.18-.38,.39-.38h5.7c.21,0,.39,.17,.39,.38v13.57h-6.48Zm15.72,0v-19.81c0-.14,.11-.25,.25-.25h5.97c.14,0,.25,.11,.25,.25v19.81h-6.47Zm15.72,0v-25.41c0-.48,.4-.86,.88-.86h4.72c.48,0,.87,.38,.88,.86v25.41h-6.48Z"/>
    <path id="Path_5483" data-name="Path 5483" class="cls-9" d="M282.64,78.43h2.83c.69,1.79,2.42,2.97,4.34,2.96,2.51,.03,4.58-1.98,4.61-4.49,0-.07,0-.15,0-.22l8.36-3.2c1.67,1.94,4.59,2.17,6.54,.5,1.05-.9,1.65-2.23,1.62-3.62l7.58-2.89c1.7,1.94,4.65,2.14,6.59,.44,.59-.51,1.04-1.17,1.31-1.9h3.58c.79,.02,1.45-.6,1.48-1.39,.02-.79-.6-1.45-1.39-1.48-.03,0-.06,0-.08,0h-3.58c-.66-1.84-2.42-3.07-4.38-3.06-2.51-.03-4.58,1.98-4.61,4.49,0,.07,0,.15,0,.22l-7.58,2.9c-1.67-1.94-4.6-2.15-6.54-.47-1.04,.9-1.62,2.21-1.6,3.58l-8.36,3.2c-1.7-1.94-4.65-2.14-6.59-.45-.62,.54-1.08,1.23-1.35,2h-2.77c-.79-.02-1.45,.6-1.48,1.39-.02,.79,.6,1.45,1.39,1.48,.03,0,.06,0,.08,0Zm39.4-15.48c.91-.01,1.66,.71,1.67,1.62-.04,.92-.81,1.64-1.74,1.61-.87-.03-1.57-.73-1.61-1.61,.01-.91,.76-1.63,1.67-1.62Zm-15.72,6.02c.9,.03,1.6,.77,1.58,1.67-.03,.9-.77,1.6-1.67,1.58-.88-.03-1.58-.74-1.58-1.62,.01-.91,.76-1.64,1.67-1.62Zm-16.51,6.31c.9,.03,1.6,.77,1.58,1.67s-.77,1.6-1.67,1.58c-.88-.02-1.58-.74-1.58-1.62,.01-.91,.76-1.63,1.67-1.62Z"/>
  </g>
  <g id="Premumi_Version_icon_3" data-name="Premumi Version icon 3">
    <path id="Path_5501" data-name="Path 5501" class="cls-10" d="M180.47,191.24c-1.11,0-2,.9-2,2h0v20.02c0,1.11,.9,2,2,2s2-.9,2-2v-20.02c0-1.11-.9-2-2-2h0Z"/>
    <path id="Path_5502" data-name="Path 5502" class="cls-10" d="M196.39,199.25c-1.11,0-2,.9-2,2h0v12.01c0,1.11,.9,2,2,2s2-.9,2-2v-12.01c0-1.11-.9-2-2-2h0Z"/>
    <path id="Path_5503" data-name="Path 5503" class="cls-10" d="M212.31,185.24c-1.11,0-2,.9-2,2h0v26.02c0,1.11,.9,2,2,2s2-.9,2-2v-26.02c0-1.11-.9-2-2-2,0,0,0,0,0,0Z"/>
    <path id="Path_5504" data-name="Path 5504" class="cls-10" d="M184.48,183.43h-2v-10.01c0-1.11-.9-2-2-2s-2,.9-2,2v10.01h-2c-1.11,0-2,.9-2,2s.9,2,2,2h8.01c1.11,0,2-.9,2-2s-.9-2-2-2Z"/>
    <path id="Path_5505" data-name="Path 5505" class="cls-9" d="M200.39,191.44h-2v-18.02c0-1.11-.9-2-2-2s-2,.9-2,2v18.02h-2c-1.11,0-2,.9-2,2s.9,2,2,2h8.01c1.11,0,2-.9,2-2s-.9-2-2-2Z"/>
    <path id="Path_5506" data-name="Path 5506" class="cls-10" d="M216.31,177.43h-2v-4c0-1.11-.9-2-2-2s-2,.9-2,2v4h-2c-1.11,0-2,.9-2,2s.9,2,2,2h8.01c1.11,0,2-.9,2-2s-.9-2-2-2Z"/>
  </g>
  <g id="Premium_Version_icon_2" data-name="Premium Version icon 2">
    <path id="Path_5486" data-name="Path 5486" class="cls-8" d="M442.09,194.89c-1.49-1.61-4.01-1.71-5.62-.22-.02,.02-.05,.04-.07,.07l-8.68,8.26c-.1-2.43-2.08-4.37-4.51-4.43h-7.59c-3.35-2.34-7.71-2.62-11.33-.73-.65-.87-1.66-1.38-2.74-1.39h-6.18c-1.99,.06-3.57,1.71-3.52,3.71v13.76c-.05,1.99,1.52,3.65,3.52,3.7h6.18c1.38-.02,2.63-.85,3.18-2.12h20.45c2.69-.02,5.23-1.19,7-3.22l10.02-11.37c1.52-1.74,1.47-4.35-.11-6.03Zm-40.04,19.03c0,.28-.22,.52-.5,.53,0,0,0,0,0,0h-6.18c-.28,0-.51-.24-.5-.53,0,0,0,0,0,0v-13.76c0-.28,.22-.52,.5-.53,0,0,0,0,0,0h6.18c.28,0,.51,.24,.5,.53,0,0,0,0,0,0v13.76Zm37.93-15.15l-10.02,11.37c-1.21,1.38-2.95,2.18-4.79,2.2h-20.11v-11.31c2.77-1.72,6.3-1.62,8.96,.26l.3,.21c.24,.17,.54,.27,.84,.27h8.04c.88,.04,1.56,.77,1.52,1.65-.03,.83-.7,1.49-1.52,1.52h-9.04c-.88,.04-1.56,.77-1.52,1.65,.03,.83,.7,1.49,1.52,1.52h9.8c1.89,0,3.7-.74,5.06-2.05l9.4-8.95c.42-.42,1.11-.41,1.52,.02,0,0,.02,.02,.02,.02,.42,.46,.43,1.15,.03,1.62Z"/>
    <path id="Path_5487" data-name="Path 5487" class="cls-9" d="M408.03,195.34h23.11c2.63,0,4.76-2.13,4.76-4.76,0-.81-.2-1.6-.59-2.3l-11.55-20.94c-1.27-2.3-4.16-3.14-6.47-1.87-.79,.43-1.44,1.08-1.87,1.87l-11.55,20.94c-1.27,2.3-.44,5.2,1.86,6.47,.71,.39,1.5,.59,2.3,.59Zm-1.39-5.53l11.55-20.94c.42-.77,1.39-1.05,2.16-.62,.26,.14,.48,.36,.62,.62l11.55,20.94c.42,.77,.14,1.73-.62,2.16-.23,.13-.5,.2-.77,.2h-23.11c-.88,0-1.59-.71-1.59-1.59,0-.27,.07-.53,.2-.77Z"/>
    <path id="Path_5488" data-name="Path 5488" class="cls-9" d="M419.58,184.44c.88,0,1.59-.71,1.59-1.59h0v-6.88c0-.88-.72-1.59-1.59-1.58-.87,0-1.58,.71-1.58,1.58v6.88c0,.88,.71,1.59,1.59,1.59Z"/>
    <path id="Path_5489" data-name="Path 5489" class="cls-9" d="M419.58,185.99c-.88,0-1.59,.71-1.59,1.59,0,.88,.71,1.59,1.59,1.59s1.59-.71,1.59-1.59-.71-1.59-1.59-1.59h0Z"/>
  </g>
  <g id="Premium_Version_icon_6" data-name="Premium Version icon 6">
    <path id="Path_5484" data-name="Path 5484" class="cls-8" d="M546.02,295.21c-.17-.53-.63-.92-1.18-1l-15.37-2.22-6.91-15.86c-.33-.74-1.19-1.08-1.93-.75-.34,.15-.61,.42-.75,.75l-6.91,15.86-15.37,2.23c-.8,.11-1.35,.85-1.24,1.65,.05,.32,.2,.62,.43,.84l11.16,10.84-2.64,15.78c-.13,.8,.41,1.55,1.2,1.68,.33,.05,.66,0,.95-.17l13.77-7.66,13.76,7.66c.7,.39,1.6,.14,1.99-.56,.16-.29,.22-.63,.17-.95l-2.64-15.78,11.16-10.84c.4-.39,.54-.96,.37-1.49h0Zm-25.52,19.02l-6.59,3.67v-.27c0-4.04,3.28-7.32,7.32-7.32s7.32,3.28,7.32,7.32v.27l-6.59-3.67c-.44-.25-.98-.25-1.43,0h-.02Zm11.4-8.25c-.34,.33-.5,.81-.42,1.28l2.26,13.54-2.45-1.36c.11-.6,.16-1.21,.16-1.81-.02-3.07-1.4-5.97-3.77-7.92-1.82-1.5-4.11-2.32-6.47-2.29-5.63-.02-10.22,4.53-10.24,10.16,0,.62,.05,1.24,.16,1.86l-2.45,1.36,2.26-13.54c.08-.47-.08-.95-.42-1.28l-9.59-9.31,13.25-1.92c.5-.07,.93-.4,1.13-.86l5.9-13.52,5.89,13.52c.2,.46,.63,.79,1.13,.86l13.25,1.92-9.59,9.31Z"/>
    <path id="Path_5485" data-name="Path 5485" class="cls-9" d="M526.96,301.6c0-3.18-2.57-5.75-5.75-5.75s-5.75,2.57-5.75,5.75,2.57,5.75,5.75,5.75h0c3.17,0,5.75-2.58,5.75-5.75Zm-5.75,2.88c-1.59,0-2.88-1.29-2.88-2.88,0-1.59,1.29-2.88,2.88-2.88,1.59,0,2.88,1.29,2.88,2.88,0,1.59-1.29,2.87-2.88,2.88h0Z"/>
  </g>
  <g id="Premium_Version_icon_4" data-name="Premium Version icon 4">
    <path id="Path_5473" data-name="Path 5473" class="cls-10" d="M71.29,312.93v14.86h2.92v-14.86c.99-.11,1.97-.33,2.92-.67v9.5h32.27v-34.14l-9.6-9.6h-22.67v9.5c-6.83-2.42-14.33,1.16-16.75,7.99-2.42,6.83,1.16,14.33,7.99,16.75,.94,.33,1.92,.56,2.92,.67Zm29.35-29.93l3.77,3.77h-3.77v-3.77Zm-20.61-2.06h17.69v8.75h8.75v29.16h-26.44v-8.05c6.02-4.02,7.65-12.16,3.62-18.19-.96-1.43-2.19-2.67-3.62-3.62v-8.05Zm-7.29,8.75c5.63,0,10.2,4.57,10.2,10.2s-4.57,10.2-10.2,10.2-10.2-4.57-10.2-10.2c0-5.63,4.57-10.19,10.2-10.2Z"/>
    <path id="Path_5474" data-name="Path 5474" class="cls-9" d="M66.71,299.68h2.92v5.83h-2.92v-5.83Z"/>
    <path id="Path_5475" data-name="Path 5475" class="cls-9" d="M71.29,293.85h2.92v11.66h-2.92v-11.66Z"/>
    <path id="Path_5476" data-name="Path 5476" class="cls-9" d="M75.88,296.76h2.92v8.75h-2.92v-8.75Z"/>
    <path id="Path_5477" data-name="Path 5477" class="cls-10" d="M90.44,295.52h11.66v2.92h-11.66v-2.92Z"/>
    <path id="Path_5478" data-name="Path 5478" class="cls-10" d="M88.98,301.35h13.12v2.92h-13.12v-2.92Z"/>
    <path id="Path_5479" data-name="Path 5479" class="cls-10" d="M87.53,307.18h14.58v2.92h-14.58v-2.92Z"/>
  </g>
  <g id="Premium_Version_icon_5" data-name="Premium Version icon 5">
    <path id="Path_5490" data-name="Path 5490" class="cls-8" d="M328.2,315.9h-35.52c-.92-.06-1.71,.63-1.78,1.54v3.07c.05,.61-.28,1.19-.83,1.46-.59,.31-1.29,.31-1.88,0-.55-.27-.88-.85-.83-1.46v-36.91c.07-.91,.85-1.6,1.77-1.55h30.21c.91-.05,1.7,.64,1.77,1.55v27.69c.24,.98,1.23,1.58,2.21,1.34,.66-.16,1.18-.68,1.34-1.34v-27.69c0-2.54-2.38-4.61-5.31-4.62h-30.21c-2.94,0-5.33,2.07-5.33,4.62v36.91c0,2.55,2.39,4.62,5.33,4.62s5.33-2.07,5.33-4.62v-1.54h31.98v1.54c-.07,.92-.87,1.6-1.78,1.54h-26.65c-.65-.07-1.29,.21-1.69,.72-.36,.48-.36,1.14,0,1.63,.4,.52,1.04,.79,1.69,.72h26.65c2.94,0,5.33-2.07,5.33-4.62v-3.07c-.07-.91-.86-1.59-1.77-1.54Z"/>
    <path id="Path_5491" data-name="Path 5491" class="cls-9" d="M312.36,291h-9.17c-1.01,.11-1.93-.62-2.04-1.63-.11-1.01,.62-1.93,1.63-2.04,.14-.02,.28-.02,.41,0h9.17c1.01-.11,1.93,.62,2.04,1.63,.11,1.01-.62,1.93-1.63,2.04-.14,.02-.28,.02-.41,0Z"/>
    <path id="Path_5492" data-name="Path 5492" class="cls-9" d="M312.36,300.96h-9.17c-1.01-.11-1.74-1.03-1.63-2.04,.1-.86,.77-1.53,1.63-1.63h9.17c1.01,.11,1.74,1.03,1.63,2.04-.1,.86-.77,1.53-1.63,1.63Z"/>
    <path id="Path_5493" data-name="Path 5493" class="cls-9" d="M312.36,310.75h-9.17c-1.01,.11-1.93-.62-2.04-1.63-.11-1.01,.62-1.93,1.63-2.04,.14-.02,.28-.02,.41,0h9.17c1.01-.11,1.93,.62,2.04,1.63,.11,1.01-.62,1.93-1.63,2.04-.14,.02-.28,.02-.41,0Z"/>
    <path id="Path_5494" data-name="Path 5494" class="cls-9" d="M296.27,291c1.03,0,1.86-.84,1.86-1.87,0-1.03-.84-1.86-1.87-1.86-1.03,0-1.86,.84-1.86,1.87,0,1.02,.83,1.85,1.86,1.86h.02Z"/>
    <path id="Path_5495" data-name="Path 5495" class="cls-9" d="M296.27,300.96c1.03,0,1.86-.84,1.86-1.87,0-1.03-.84-1.86-1.87-1.86-1.03,0-1.86,.84-1.86,1.87,0,1.02,.83,1.85,1.86,1.86h.02Z"/>
    <path id="Path_5496" data-name="Path 5496" class="cls-9" d="M296.27,310.75c1.03,0,1.86-.84,1.86-1.87,0-1.03-.84-1.86-1.87-1.86-1.03,0-1.86,.84-1.86,1.87,0,1.02,.83,1.85,1.86,1.86h.02Z"/>
  </g>
</svg>