<svg xmlns="http://www.w3.org/2000/svg" width="20.283" height="23.18" viewBox="0 0 20.283 23.18">
  <path id="Valuation_Calendar" data-name="Valuation Calendar" d="M.543,8.693h19.2a.545.545,0,0,1,.543.543V21.007A2.174,2.174,0,0,1,18.11,23.18H2.173A2.174,2.174,0,0,1,0,21.007V9.236A.545.545,0,0,1,.543,8.693ZM20.283,6.7V5.071A2.174,2.174,0,0,0,18.11,2.9H15.937V.543A.545.545,0,0,0,15.393,0H13.582a.545.545,0,0,0-.543.543V2.9h-5.8V.543A.545.545,0,0,0,6.7,0H4.89a.545.545,0,0,0-.543.543V2.9H2.173A2.174,2.174,0,0,0,0,5.071V6.7a.545.545,0,0,0,.543.543h19.2A.545.545,0,0,0,20.283,6.7Z" fill="#005893"/>
</svg>
