<svg xmlns="http://www.w3.org/2000/svg" width="86" height="79.747" viewBox="0 0 86 79.747">
  <g id="Group_2473" data-name="Group 2473" transform="translate(-14168 -4042.127)">
    <g id="Group_2473-2" data-name="Group 2473" transform="translate(-41 23.127)">
      <g id="freepik--background-complete--inject-2" transform="translate(14217.194 4019)">
        <path id="Path_3426" data-name="Path 3426" d="M418.1,131.956a.9.9,0,0,1,.28.088,1.2,1.2,0,0,1,.484,1.721,1.139,1.139,0,0,1-.228.265,1.12,1.12,0,0,1-.308.187,1.228,1.228,0,0,1-.747.075,1.213,1.213,0,0,1-.65-.391,1.1,1.1,0,0,1-.187-.308,1.086,1.086,0,0,1-.092-.336,1.207,1.207,0,0,1,.092-.633,1.186,1.186,0,0,1,1.08-.716.878.878,0,0,1,.292.039c0,.009-.1-.021-.29-.013a1.179,1.179,0,0,0-.716.282,1.145,1.145,0,0,0-.316.43,1.176,1.176,0,0,0-.08.6,1.1,1.1,0,0,0,.09.318,1.076,1.076,0,0,0,.187.291,1.138,1.138,0,0,0,.615.374,1.155,1.155,0,0,0,.712-.069,1.04,1.04,0,0,0,.292-.187,1.02,1.02,0,0,0,.217-.25,1.151,1.151,0,0,0,.187-.579,1.172,1.172,0,0,0-.628-1.084C418.2,131.982,418.1,131.966,418.1,131.956Z" transform="translate(-350.701 -111.606)" fill="#e0e0e0"/>
        <path id="Path_3427" data-name="Path 3427" d="M409.484,121.414a.33.33,0,0,1,0-.041v-.626l.009.011-1.078-.235.019-.009-.284.6v.011h-.013a2.693,2.693,0,0,0-.7.125h-.022l-.491-.473h.037l-.934.594v-.034l.224.628v.015l-.011.013a2.741,2.741,0,0,0-.409.583v.015h-.684l.028-.024c-.075.338-.157.7-.239,1.078l-.017-.036.6.284h.017v.019a2.721,2.721,0,0,0,.121.7v.019l-.015.015-.471.473v-.041l.59.934-.039-.015.628-.224h.019l.017.013a2.641,2.641,0,0,0,.579.409h0c.009.013-.017-.03.019.03h0v.665l-.026-.034,1.076.243-.037.019c.1-.2.187-.4.286-.6l.009-.017h.021a2.66,2.66,0,0,0,.7-.121h.019l.015.015.473.471h-.041l.934-.589-.013.036-.224-.628v-.017l.013-.015a2.692,2.692,0,0,0,.411-.581v-.015h.684l-.026.022c.086-.374.166-.736.243-1.078l.015.03-.6-.288H410.9v-.015a2.655,2.655,0,0,0-.12-.7V123c.172-.172.325-.327.473-.473v.026l-.587-.934h.019l-.63.219h0a2.933,2.933,0,0,0-.428-.329l-.116-.069-.037-.024.041.019.118.064a2.7,2.7,0,0,1,.437.325h-.011l.626-.228h.011v.011l.594.934.009.015-.011.011-.448.452V123a2.676,2.676,0,0,1,.125.716l-.013-.021.6.284.019.009v.021c-.075.34-.155.7-.239,1.076v.022h-.693l.026-.015a2.8,2.8,0,0,1-.419.6v-.032c.073.206.15.415.224.628l.009.024-.022.013-.934.592-.022.013-.019-.019-.469-.465h.034a2.713,2.713,0,0,1-.718.125l.028-.019c-.093.2-.187.4-.286.6l-.011.024h-.026l-1.076-.23h-.026v-.693h0c.036.06.009.017.019.03h0a2.709,2.709,0,0,1-.594-.419h.034l-.628.222-.026.009-.013-.022-.59-.934-.015-.022.019-.019.471-.473v.034a2.774,2.774,0,0,1-.125-.718l.019.028-.6-.3-.022-.011v-.024l.243-1.076v-.024h.69l-.026.015a2.776,2.776,0,0,1,.42-.592v.028l-.222-.63v-.019l.019-.013.934-.589h.017l.013.013.473.473h-.022a2.7,2.7,0,0,1,.714-.121l-.017.011c.1-.217.2-.42.288-.6V120.5h.013l1.074.249h.009v.622A.418.418,0,0,1,409.484,121.414Z" transform="translate(-341.139 -102.331)" fill="#e0e0e0"/>
        <path id="Path_3428" data-name="Path 3428" d="M379.69,364.3V363.5c0-.518,0-1.278-.009-2.253,0-1.949-.009-4.761-.015-8.21l.03.03-19.457.009h0l.041-.039V364.3l-.037-.037,14,.017,4.019.011h.015l-4.012.011-14.014.017h-.036V353h19.53v.032c0,3.459-.011,6.275-.015,8.222v2.825A.6.6,0,0,1,379.69,364.3Z" transform="translate(-304.815 -291.387)" fill="#e0e0e0"/>
        <path id="Path_3429" data-name="Path 3429" d="M379.933,360.319c0,.022-4.352.039-9.716.039s-9.716-.017-9.716-.039,4.35-.039,9.716-.039S379.933,360.3,379.933,360.319Z" transform="translate(-305.051 -297.307)" fill="#e0e0e0"/>
        <rect id="Rectangle_821" data-name="Rectangle 821" width="6.011" height="6.011" transform="translate(57.102 64.87)" fill="#f5f5f5"/>
        <path id="Path_3430" data-name="Path 3430" d="M419.034,375.624a.328.328,0,0,1-.088,0h-.254l-.934.011-3.076.013-3.076-.013-.934-.011h-.254a.328.328,0,0,1-.088,0,.4.4,0,0,1,.088,0h.254l.934-.013,3.076-.011,3.076.011.934.013h.254A.4.4,0,0,1,419.034,375.624Z" transform="translate(-345.57 -309.764)" fill="#e0e0e0"/>
        <path id="Path_3431" data-name="Path 3431" d="M419.242,382.774a.408.408,0,0,1-.09,0h-.26l-.953.013-3.143.011-3.145-.011-.953-.013h-.26a.408.408,0,0,1-.09,0,.334.334,0,0,1,.09-.009h.26l.953-.011,3.145-.013,3.143.013.953.011h.26A.334.334,0,0,1,419.242,382.774Z" transform="translate(-345.586 -315.57)" fill="#e0e0e0"/>
        <path id="Path_3432" data-name="Path 3432" d="M419.242,389.994a.332.332,0,0,1-.09,0h-.26l-.953.011-3.143.013-3.145-.013-.953-.011h-.26a.332.332,0,0,1-.09,0,.408.408,0,0,1,.09,0h.26l.953-.013,3.145-.011,3.149.006.953.013h.26A.408.408,0,0,1,419.242,389.994Z" transform="translate(-345.586 -321.449)" fill="#e0e0e0"/>
        <path id="Path_3433" data-name="Path 3433" d="M419.242,397.144a.408.408,0,0,1-.09,0h-.26l-.953.013-3.143.011-3.145-.011-.953-.013h-.26a.408.408,0,0,1-.09,0,.332.332,0,0,1,.09-.009h.26l.953-.011,3.145-.013,3.143.013.953.011h.26A.332.332,0,0,1,419.242,397.144Z" transform="translate(-345.586 -327.255)" fill="#e0e0e0"/>
        <circle id="Ellipse_149" data-name="Ellipse 149" cx="8.087" cy="8.087" r="8.087" transform="translate(7.181 11.437) rotate(-45)" fill="#f5f5f5"/>
        <path id="Path_3434" data-name="Path 3434" d="M166.6,65.105a1.743,1.743,0,0,1-.286.019l-.787.015c-.667,0-1.6.017-2.644.017h-.052v-.574c0-1.172,0-2.231.015-2.99,0-.374.013-.676.017-.91a1.907,1.907,0,0,1,.021-.333,2.177,2.177,0,0,1,.021.333c0,.234,0,.54.017.91,0,.768.015,1.827.015,2.99v.525l-.05-.052c1.048,0,1.977,0,2.644.017l.787.017A1.51,1.51,0,0,1,166.6,65.105Z" transform="translate(-144.31 -53.42)" fill="#e0e0e0"/>
        <path id="Path_3435" data-name="Path 3435" d="M162.976,48.3a4.435,4.435,0,0,1,0,1.358,4.435,4.435,0,0,1,0-1.358Z" transform="translate(-144.381 -43.622)" fill="#e0e0e0"/>
        <path id="Path_3436" data-name="Path 3436" d="M178.877,54.13a2.186,2.186,0,0,1-.437.512,2.162,2.162,0,0,1-.51.435,2.2,2.2,0,0,1,.437-.51,2.258,2.258,0,0,1,.51-.437Z" transform="translate(-156.588 -48.362)" fill="#e0e0e0"/>
        <path id="Path_3437" data-name="Path 3437" d="M189.487,66.73a2.792,2.792,0,0,1-.561.374,2.846,2.846,0,0,1-.587.323,1.8,1.8,0,0,1,.533-.413A1.749,1.749,0,0,1,189.487,66.73Z" transform="translate(-165.053 -58.608)" fill="#e0e0e0"/>
        <path id="Path_3438" data-name="Path 3438" d="M193.109,85.164a8.369,8.369,0,0,1-1.869,0,8.367,8.367,0,0,1,1.869,0Z" transform="translate(-167.412 -73.55)" fill="#e0e0e0"/>
        <path id="Path_3439" data-name="Path 3439" d="M124.879,84.505a7.334,7.334,0,0,1-1.749,0,7.335,7.335,0,0,1,1.749,0Z" transform="translate(-112.025 -73.014)" fill="#e0e0e0"/>
        <path id="Path_3440" data-name="Path 3440" d="M131.318,98.68a4,4,0,0,1-.661.6,3.952,3.952,0,0,1-.727.518,3.817,3.817,0,0,1,.661-.6A3.689,3.689,0,0,1,131.318,98.68Z" transform="translate(-117.555 -84.588)" fill="#e0e0e0"/>
        <path id="Path_3441" data-name="Path 3441" d="M145.317,109.44a6.041,6.041,0,0,1-.45.779,6.2,6.2,0,0,1-.476.764,4.56,4.56,0,0,1,.927-1.543Z" transform="translate(-129.315 -93.337)" fill="#e0e0e0"/>
        <path id="Path_3442" data-name="Path 3442" d="M162.974,115.189a8.367,8.367,0,0,1,0-1.869,8.367,8.367,0,0,1,0,1.869Z" transform="translate(-144.379 -96.492)" fill="#e0e0e0"/>
        <path id="Path_3443" data-name="Path 3443" d="M178.566,111.457a2.684,2.684,0,0,1-.764-.523,2.76,2.76,0,0,1-.622-.684,8.4,8.4,0,0,1,.691.605A8.565,8.565,0,0,1,178.566,111.457Z" transform="translate(-155.979 -93.996)" fill="#e0e0e0"/>
        <path id="Path_3444" data-name="Path 3444" d="M189.613,100.893a6.16,6.16,0,0,1-1.153-1.153,6.474,6.474,0,0,1,1.153,1.153Z" transform="translate(-165.151 -85.45)" fill="#e0e0e0"/>
        <path id="Path_3445" data-name="Path 3445" d="M132.509,67.039A4.843,4.843,0,0,1,131.5,66.03a4.842,4.842,0,0,1,1.009,1.009Z" transform="translate(-118.831 -58.039)" fill="#e0e0e0"/>
        <path id="Path_3446" data-name="Path 3446" d="M144.987,54.1a2.336,2.336,0,0,1-.533-.447A2.361,2.361,0,0,1,144,53.12a4.679,4.679,0,0,1,.987.985Z" transform="translate(-128.997 -47.541)" fill="#e0e0e0"/>
        <g id="Group_2481" data-name="Group 2481" transform="translate(53.539 5.517)" opacity="0.8">
          <path id="Path_3447" data-name="Path 3447" d="M359.335,54.565a5.466,5.466,0,0,1,1.17.82l1.243-.443,1.168,1.844-.934.934a5.32,5.32,0,0,1,.243,1.4l1.192.561-.482,2.138h-1.308a5.348,5.348,0,0,1-.818,1.164l.443,1.243L359.406,65.4l-.934-.934a5.323,5.323,0,0,1-1.4.245l-.561,1.19-2.13-.476V64.1a5.291,5.291,0,0,1-1.164-.82l-1.243.443-1.185-1.839.934-.934a5.35,5.35,0,0,1-.25-1.394L350.28,59l.478-2.13h1.319a5.29,5.29,0,0,1,.82-1.164l-.443-1.243,1.844-1.168.934.934a5.351,5.351,0,0,1,1.4-.245l.561-1.19,2.13.478v1.308Zm-1.878,2.508a2.339,2.339,0,1,0,1.468,1.033,2.341,2.341,0,0,0-1.468-1.033Z" transform="translate(-350.28 -52.79)" fill="#ebebeb" fill-rule="evenodd"/>
        </g>
        <path id="Path_3448" data-name="Path 3448" d="M63.7,148.731H77.527s-1.222-2.224-4.78-1.9c-3.4.31-3.571-1.093-5.3-1.267S64.276,146.717,63.7,148.731Z" transform="translate(-63.7 -122.699)" fill="#f5f5f5"/>
        <path id="Path_3449" data-name="Path 3449" d="M223.8,285.86h11.187s-.988-1.8-3.868-1.538c-2.751.25-2.891-.886-4.3-1.026S224.265,284.229,223.8,285.86Z" transform="translate(-193.889 -234.698)" fill="#f5f5f5"/>
      </g>
      <g id="freepik--Floor--inject-2" transform="translate(14209 4097.722)">
        <path id="Path_3450" data-name="Path 3450" d="M105.85,444.609c0,.026-19.244.049-43,.049s-43-.015-43-.049,19.244-.049,43-.049S105.85,444.582,105.85,444.609Z" transform="translate(-19.85 -444.56)" fill="#263238"/>
      </g>
      <g id="freepik--Screens--inject-2" transform="translate(14213.513 4041.699)">
        <rect id="Rectangle_822" data-name="Rectangle 822" width="27.146" height="18.177" transform="translate(49.677 0.073)" fill="#fff"/>
        <path id="Path_3451" data-name="Path 3451" d="M336.918,162.988V161.7c0-.841,0-2.076-.011-3.655,0-3.16-.011-7.7-.021-13.231l.039.037-27.144.011h0l.049-.049v18.175l-.045-.045,19.558.022,5.587.011h.019l-5.578.011-19.586.022h-.045V144.74h.05l27.144.011h.039v.039c0,5.544-.015,10.09-.021,13.254,0,1.577,0,2.8-.009,3.647v.953A1.88,1.88,0,0,1,336.918,162.988Z" transform="translate(-260.095 -144.74)" fill="#ff735d"/>
        <path id="Path_3452" data-name="Path 3452" d="M309.91,153.6c0-.028,6.073-.049,13.562-.049s13.562.021,13.562.049-6.071.049-13.562.049S309.91,153.634,309.91,153.6Z" transform="translate(-260.233 -151.904)" fill="#ff735d"/>
        <g id="Group_2482" data-name="Group 2482" transform="translate(50.314 0.658)" opacity="0.3">
          <path id="Path_3453" data-name="Path 3453" d="M313.737,148.479a.217.217,0,1,1-.063-.154A.219.219,0,0,1,313.737,148.479Z" transform="translate(-313.3 -148.26)" fill="#ff735d"/>
        </g>
        <g id="Group_2483" data-name="Group 2483" transform="translate(51.059 0.658)" opacity="0.3">
          <path id="Path_3454" data-name="Path 3454" d="M317.727,148.479a.217.217,0,1,1-.063-.154A.219.219,0,0,1,317.727,148.479Z" transform="translate(-317.29 -148.26)" fill="#ff735d"/>
        </g>
        <g id="Group_2484" data-name="Group 2484" transform="translate(51.793 0.658)" opacity="0.3">
          <path id="Path_3455" data-name="Path 3455" d="M321.657,148.479a.217.217,0,1,1-.063-.154A.219.219,0,0,1,321.657,148.479Z" transform="translate(-321.22 -148.26)" fill="#ff735d"/>
        </g>
        <rect id="Rectangle_823" data-name="Rectangle 823" width="7.241" height="7.241" transform="translate(52.013 3.589)" fill="#ff735d"/>
        <path id="Path_3456" data-name="Path 3456" d="M380.366,174.689c0,.028-2.825.049-6.308.049s-6.308-.021-6.308-.049,2.825-.049,6.308-.049S380.366,174.662,380.366,174.689Z" transform="translate(-307.265 -169.053)" fill="#ff735d"/>
        <path id="Path_3457" data-name="Path 3457" d="M380.366,181.9c0,.026-2.825.049-6.308.049s-6.308-.022-6.308-.049,2.825-.049,6.308-.049S380.366,181.878,380.366,181.9Z" transform="translate(-307.265 -174.916)" fill="#ff735d"/>
        <path id="Path_3458" data-name="Path 3458" d="M380.366,189.1c0,.026-2.825.049-6.308.049s-6.308-.022-6.308-.049,2.825-.049,6.308-.049S380.366,189.071,380.366,189.1Z" transform="translate(-307.265 -180.77)" fill="#ff735d"/>
        <path id="Path_3459" data-name="Path 3459" d="M375.207,196.3a1.605,1.605,0,0,1-.293.019l-.8.015c-.675.009-1.607.015-2.635.015s-1.962,0-2.637-.015l-.8-.015a1.605,1.605,0,0,1-.293-.019,1.6,1.6,0,0,1,.293-.019l.8-.015c.675-.009,1.607-.015,2.637-.015s1.96,0,2.635.015l.8.015A1.6,1.6,0,0,1,375.207,196.3Z" transform="translate(-307.265 -186.625)" fill="#ff735d"/>
        <g id="Group_2485" data-name="Group 2485" transform="translate(52.466 13.272)" opacity="0.3">
          <rect id="Rectangle_824" data-name="Rectangle 824" width="3.403" height="3.403" fill="#ff735d"/>
        </g>
        <rect id="Rectangle_825" data-name="Rectangle 825" width="3.403" height="3.403" transform="translate(58.637 13.272)" fill="#ff735d"/>
        <rect id="Rectangle_826" data-name="Rectangle 826" width="3.403" height="3.403" transform="translate(64.807 13.272)" fill="#ff735d"/>
        <rect id="Rectangle_827" data-name="Rectangle 827" width="3.403" height="3.403" transform="translate(70.978 13.272)" fill="#ff735d"/>
        <g id="Group_2486" data-name="Group 2486" transform="translate(52.013 3.589)" opacity="0.3">
          <rect id="Rectangle_828" data-name="Rectangle 828" width="7.241" height="7.241" fill="#fff"/>
        </g>
        <g id="Group_2487" data-name="Group 2487" transform="translate(58.637 13.272)" opacity="0.3">
          <rect id="Rectangle_829" data-name="Rectangle 829" width="3.403" height="3.403" fill="#fff"/>
        </g>
        <g id="Group_2488" data-name="Group 2488" transform="translate(64.807 13.272)" opacity="0.3">
          <rect id="Rectangle_830" data-name="Rectangle 830" width="3.403" height="3.403" fill="#fff"/>
        </g>
        <g id="Group_2489" data-name="Group 2489" transform="translate(70.978 13.272)" opacity="0.3">
          <rect id="Rectangle_831" data-name="Rectangle 831" width="3.403" height="3.403" fill="#fff"/>
        </g>
        <rect id="Rectangle_832" data-name="Rectangle 832" width="24.183" height="9.823" transform="translate(0.039 6.62)" fill="#fff"/>
        <path id="Path_3460" data-name="Path 3460" d="M68.222,189.855v-2.64c0-1.695,0-4.148-.015-7.183l.026.026-24.181.011h0l.039-.037v9.823l-.037-.037,17.338.017,5.03.011h.017l-5.021.009-17.364.017H44V180h.039l24.181.013h.028v.026c0,3.042-.011,5.5-.015,7.2v2.453A.8.8,0,0,1,68.222,189.855Z" transform="translate(-44 -173.411)" fill="#ff735d"/>
        <path id="Path_3461" data-name="Path 3461" d="M44.34,187.089c0-.021,5.406-.039,12.071-.039s12.075.019,12.075.039-5.406.037-12.075.037S44.34,187.11,44.34,187.089Z" transform="translate(-44.276 -179.144)" fill="#ff735d"/>
        <g id="Group_2490" data-name="Group 2490" transform="translate(0.725 7.177)" opacity="0.3">
          <path id="Path_3462" data-name="Path 3462" d="M48.231,183.326a.176.176,0,1,1-.176-.176A.176.176,0,0,1,48.231,183.326Z" transform="translate(-47.88 -183.15)" fill="#ff735d"/>
        </g>
        <g id="Group_2491" data-name="Group 2491" transform="translate(1.33 7.177)" opacity="0.3">
          <path id="Path_3463" data-name="Path 3463" d="M51.471,183.326a.176.176,0,1,1-.176-.176A.176.176,0,0,1,51.471,183.326Z" transform="translate(-51.12 -183.15)" fill="#ff735d"/>
        </g>
        <g id="Group_2492" data-name="Group 2492" transform="translate(1.919 7.177)" opacity="0.3">
          <path id="Path_3464" data-name="Path 3464" d="M54.621,183.326a.176.176,0,1,1-.176-.176A.176.176,0,0,1,54.621,183.326Z" transform="translate(-54.27 -183.15)" fill="#ff735d"/>
        </g>
        <rect id="Rectangle_833" data-name="Rectangle 833" width="5.841" height="5.841" transform="translate(2.095 9.541)" fill="#ff735d"/>
        <path id="Path_3465" data-name="Path 3465" d="M106.247,204.017c0,.021-3.006.039-6.714.039s-6.714-.019-6.714-.039,3.007-.037,6.714-.037S106.247,204,106.247,204.017Z" transform="translate(-83.698 -192.911)" fill="#ff735d"/>
        <path id="Path_3466" data-name="Path 3466" d="M106.247,210.379c0,.021-3.006.037-6.714.037s-6.714-.017-6.714-.037,3.007-.039,6.714-.039S106.247,210.359,106.247,210.379Z" transform="translate(-83.698 -198.082)" fill="#ff735d"/>
        <path id="Path_3467" data-name="Path 3467" d="M101.431,216.814a.649.649,0,0,1-.088,0h-.252l-.925.011-3.057.011-3.055-.011-.934-.011h-.252a.691.691,0,0,1-.088,0,.3.3,0,0,1,.088,0h.252l.934-.013,3.055-.011,3.057.011.925.013h.252A.294.294,0,0,1,101.431,216.814Z" transform="translate(-83.665 -203.327)" fill="#ff735d"/>
        <g id="Group_2493" data-name="Group 2493" transform="translate(2.095 9.541)" opacity="0.3">
          <rect id="Rectangle_834" data-name="Rectangle 834" width="5.841" height="5.841" fill="#f5f5f5"/>
        </g>
      </g>
      <g id="freepik--Rocket--inject-2" transform="translate(14241.498 4029.326)">
        <path id="Path_3468" data-name="Path 3468" d="M234.136,113.506a1.276,1.276,0,0,0-1.368.164,6.546,6.546,0,0,1-1.205.817c-.852.331-1.971-.062-2.633.561-.42.4-.463,1.058-.785,1.542-.542.815-1.842,1.121-1.953,2.093a1.264,1.264,0,0,0,.934,1.269,2,2,0,0,0,1.626-.325,7.682,7.682,0,0,1,1.624-1.147c.632-.213,1.444-.035,1.955-.486s.433-1.282.8-1.857a3.737,3.737,0,0,1,.775-.759,1.512,1.512,0,0,0,.583-.891c.047-.361-.1-.975-.349-.988" transform="translate(-220.134 -106.858)" fill="#f5f5f5"/>
        <path id="Path_3469" data-name="Path 3469" d="M212.352,326.554c.024-.013.1.062.17.168s.11.207.088.222-.1-.06-.17-.168S212.329,326.569,212.352,326.554Z" transform="translate(-208.88 -280.207)" fill="#263238"/>
        <path id="Path_3470" data-name="Path 3470" d="M208.1,317.54a1.2,1.2,0,0,1,.222.415,1.185,1.185,0,0,1,.133.45A2.291,2.291,0,0,1,208.1,317.54Z" transform="translate(-205.428 -272.879)" fill="#263238"/>
        <path id="Path_3471" data-name="Path 3471" d="M205.742,307.82a2.274,2.274,0,0,1,.17.919,1.155,1.155,0,0,1-.133-.45A1.181,1.181,0,0,1,205.742,307.82Z" transform="translate(-203.504 -264.976)" fill="#263238"/>
        <path id="Path_3472" data-name="Path 3472" d="M205.151,297.83a2.315,2.315,0,0,1-.013.934,1.11,1.11,0,0,1-.043-.467A1.122,1.122,0,0,1,205.151,297.83Z" transform="translate(-202.977 -256.852)" fill="#263238"/>
        <path id="Path_3473" data-name="Path 3473" d="M206.123,288a1.166,1.166,0,0,1-.05.467,1.2,1.2,0,0,1-.146.447,1.168,1.168,0,0,1,.05-.467A1.211,1.211,0,0,1,206.123,288Z" transform="translate(-203.657 -248.859)" fill="#263238"/>
        <path id="Path_3474" data-name="Path 3474" d="M209.014,278.647a2.2,2.2,0,0,1-.374.852,1.179,1.179,0,0,1,.148-.447C208.894,278.815,208.989,278.634,209.014,278.647Z" transform="translate(-205.867 -241.253)" fill="#263238"/>
        <path id="Path_3475" data-name="Path 3475" d="M213.718,270.3a1.185,1.185,0,0,1-.239.405,1.348,1.348,0,0,1-.316.348c-.026-.017.082-.2.237-.406S213.69,270.288,213.718,270.3Z" transform="translate(-209.541 -234.469)" fill="#263238"/>
        <path id="Path_3476" data-name="Path 3476" d="M220.055,262.9c.021.019-.108.187-.286.374s-.338.321-.359.3.108-.187.288-.374S220.037,262.881,220.055,262.9Z" transform="translate(-214.623 -228.448)" fill="#263238"/>
        <path id="Path_3477" data-name="Path 3477" d="M227.048,255.782c.021.019-.112.187-.293.374s-.344.318-.363.3.112-.187.293-.374S227.029,255.764,227.048,255.782Z" transform="translate(-220.301 -222.66)" fill="#263238"/>
        <path id="Path_3478" data-name="Path 3478" d="M233.9,248.246a1.173,1.173,0,0,1-.26.392c-.164.2-.314.349-.334.331a1.248,1.248,0,0,1,.26-.392C233.732,248.386,233.882,248.231,233.9,248.246Z" transform="translate(-225.927 -216.532)" fill="#263238"/>
        <path id="Path_3479" data-name="Path 3479" d="M239.728,239.67a1.017,1.017,0,0,1-.157.445,1.035,1.035,0,0,1-.271.387,1.334,1.334,0,0,1,.187-.432A1.387,1.387,0,0,1,239.728,239.67Z" transform="translate(-230.798 -209.56)" fill="#263238"/>
        <path id="Path_3480" data-name="Path 3480" d="M243.322,230a.951.951,0,0,1-.009.471.986.986,0,0,1-.144.45,1.422,1.422,0,0,1,.049-.465A1.457,1.457,0,0,1,243.322,230Z" transform="translate(-233.941 -201.697)" fill="#263238"/>
        <path id="Path_3481" data-name="Path 3481" d="M243.259,220.07a.959.959,0,0,1,.138.45.985.985,0,0,1,0,.473,1.416,1.416,0,0,1-.1-.458A1.445,1.445,0,0,1,243.259,220.07Z" transform="translate(-234.013 -193.622)" fill="#263238"/>
        <path id="Path_3482" data-name="Path 3482" d="M239.35,210.916c.022-.015.159.148.282.374a.981.981,0,0,1,.161.445,1.474,1.474,0,0,1-.247-.4A1.525,1.525,0,0,1,239.35,210.916Z" transform="translate(-230.838 -186.178)" fill="#263238"/>
        <path id="Path_3483" data-name="Path 3483" d="M232.375,203.82a.988.988,0,0,1,.4.245c.2.168.331.336.312.355s-.187-.116-.374-.28S232.358,203.842,232.375,203.82Z" transform="translate(-225.166 -180.409)" fill="#263238"/>
        <path id="Path_3484" data-name="Path 3484" d="M223.29,199.752a.973.973,0,0,1,.463.086.96.96,0,0,1,.42.217,1.5,1.5,0,0,1-.452-.125A1.381,1.381,0,0,1,223.29,199.752Z" transform="translate(-217.779 -177.099)" fill="#263238"/>
        <path id="Path_3485" data-name="Path 3485" d="M213.35,198.842a.934.934,0,0,1,.462-.1.959.959,0,0,1,.471.049,1.561,1.561,0,0,1-.465.049A1.494,1.494,0,0,1,213.35,198.842Z" transform="translate(-209.697 -176.274)" fill="#263238"/>
        <path id="Path_3486" data-name="Path 3486" d="M204.125,201.081c-.017-.022.144-.163.374-.286a.9.9,0,0,1,.447-.155,1.638,1.638,0,0,1-.4.239A1.56,1.56,0,0,1,204.125,201.081Z" transform="translate(-202.194 -177.823)" fill="#263238"/>
        <path id="Path_3487" data-name="Path 3487" d="M197.26,206.961a.951.951,0,0,1,.23-.413c.159-.207.323-.344.342-.325a1.5,1.5,0,0,1-.265.385C197.411,206.806,197.282,206.974,197.26,206.961Z" transform="translate(-196.613 -182.361)" fill="#263238"/>
        <path id="Path_3488" data-name="Path 3488" d="M193.822,215.568a.919.919,0,0,1,.035-.471.934.934,0,0,1,.187-.437,1.549,1.549,0,0,1-.088.46,1.529,1.529,0,0,1-.135.448Z" transform="translate(-193.805 -189.223)" fill="#263238"/>
        <path id="Path_3489" data-name="Path 3489" d="M194.038,225.418a.934.934,0,0,1-.187-.437.91.91,0,0,1-.037-.471,1.691,1.691,0,0,1,.133.448A1.623,1.623,0,0,1,194.038,225.418Z" transform="translate(-193.798 -197.232)" fill="#263238"/>
        <path id="Path_3490" data-name="Path 3490" d="M197.776,234.626c-.021.019-.176-.127-.327-.34a.985.985,0,0,1-.219-.419c.024-.013.148.155.3.362A1.439,1.439,0,0,1,197.776,234.626Z" transform="translate(-196.589 -204.84)" fill="#263238"/>
        <path id="Path_3491" data-name="Path 3491" d="M204.34,242.119a1.048,1.048,0,0,1-.4-.247c-.2-.163-.344-.321-.325-.342a1.377,1.377,0,0,1,.385.267C204.2,241.958,204.356,242.1,204.34,242.119Z" transform="translate(-201.778 -211.072)" fill="#263238"/>
        <path id="Path_3492" data-name="Path 3492" d="M212.553,247.8a2.243,2.243,0,0,1-.833-.424,1.212,1.212,0,0,1,.439.168A1.171,1.171,0,0,1,212.553,247.8Z" transform="translate(-208.371 -215.829)" fill="#263238"/>
        <path id="Path_3493" data-name="Path 3493" d="M221.756,251.664a1.024,1.024,0,0,1-.469-.056,1,1,0,0,1-.437-.178,1.425,1.425,0,0,1,.462.084A1.33,1.33,0,0,1,221.756,251.664Z" transform="translate(-215.795 -219.122)" fill="#263238"/>
        <path id="Path_3494" data-name="Path 3494" d="M231.594,253.049a1.7,1.7,0,0,1-.934.019,1.374,1.374,0,0,1,.465-.041A1.422,1.422,0,0,1,231.594,253.049Z" transform="translate(-223.772 -220.413)" fill="#263238"/>
        <path id="Path_3495" data-name="Path 3495" d="M241.458,250.62a1.671,1.671,0,0,1-.878.316,1.4,1.4,0,0,1,.43-.187A1.372,1.372,0,0,1,241.458,250.62Z" transform="translate(-231.839 -218.464)" fill="#263238"/>
        <path id="Path_3496" data-name="Path 3496" d="M250.4,245.15c.019.021-.123.187-.331.336a1.011,1.011,0,0,1-.409.234c-.015-.024.148-.153.351-.31A1.475,1.475,0,0,1,250.4,245.15Z" transform="translate(-239.218 -214.016)" fill="#263238"/>
        <path id="Path_3497" data-name="Path 3497" d="M257.681,237.586a1.013,1.013,0,0,1-.23.411c-.155.209-.31.353-.331.336a1.443,1.443,0,0,1,.254-.394C257.527,237.732,257.656,237.571,257.681,237.586Z" transform="translate(-245.286 -207.864)" fill="#263238"/>
        <path id="Path_3498" data-name="Path 3498" d="M262.939,228.59a.99.99,0,0,1-.114.458c-.1.243-.211.422-.235.409a1.39,1.39,0,0,1,.144-.445A1.437,1.437,0,0,1,262.939,228.59Z" transform="translate(-249.736 -200.55)" fill="#263238"/>
        <path id="Path_3499" data-name="Path 3499" d="M265.845,218.8a1.782,1.782,0,0,1-.127.925A3.061,3.061,0,0,1,265.845,218.8Z" transform="translate(-252.279 -192.589)" fill="#263238"/>
        <path id="Path_3500" data-name="Path 3500" d="M266.06,208.8a1.121,1.121,0,0,1,.086.462,1.2,1.2,0,0,1-.013.471,2.316,2.316,0,0,1-.073-.934Z" transform="translate(-252.543 -184.458)" fill="#263238"/>
        <path id="Path_3501" data-name="Path 3501" d="M263.995,199.05a1.142,1.142,0,0,1,.17.439,1.16,1.16,0,0,1,.075.463,1.175,1.175,0,0,1-.17-.439A1.154,1.154,0,0,1,263.995,199.05Z" transform="translate(-250.877 -176.53)" fill="#263238"/>
        <path id="Path_3502" data-name="Path 3502" d="M260.14,189.807c.024-.013.136.166.248.4a1.15,1.15,0,0,1,.146.448A2.746,2.746,0,0,1,260.14,189.807Z" transform="translate(-247.744 -169.013)" fill="#263238"/>
        <path id="Path_3503" data-name="Path 3503" d="M255.22,181.1c.024-.015.148.155.278.374a1.151,1.151,0,0,1,.187.428,1.2,1.2,0,0,1-.278-.374A1.214,1.214,0,0,1,255.22,181.1Z" transform="translate(-243.743 -161.93)" fill="#263238"/>
        <path id="Path_3504" data-name="Path 3504" d="M250.26,172.407c.024-.013.144.161.269.385a.237.237,0,1,1-.082.047A1.149,1.149,0,0,1,250.26,172.407Z" transform="translate(-239.71 -154.865)" fill="#263238"/>
        <path id="Path_3505" data-name="Path 3505" d="M246.35,163.21a2.252,2.252,0,0,1,.327.876,1.121,1.121,0,0,1-.209-.422A1.163,1.163,0,0,1,246.35,163.21Z" transform="translate(-236.53 -147.387)" fill="#263238"/>
        <path id="Path_3506" data-name="Path 3506" d="M244.5,153.38a1.308,1.308,0,0,1,.082.462,1.362,1.362,0,0,1,.017.467.992.992,0,0,1-.112-.458A1.022,1.022,0,0,1,244.5,153.38Z" transform="translate(-234.998 -139.393)" fill="#263238"/>
        <path id="Path_3507" data-name="Path 3507" d="M244.768,143.43a1.413,1.413,0,0,1-.034.467,1.322,1.322,0,0,1-.1.458,1.042,1.042,0,0,1,0-.473A1.012,1.012,0,0,1,244.768,143.43Z" transform="translate(-235.111 -131.303)" fill="#263238"/>
        <path id="Path_3508" data-name="Path 3508" d="M247.171,134a1.364,1.364,0,0,1-.149.445,1.4,1.4,0,0,1-.211.419A1.751,1.751,0,0,1,247.171,134Z" transform="translate(-236.904 -123.635)" fill="#263238"/>
        <path id="Path_3509" data-name="Path 3509" d="M251.822,125.7c.021.019-.1.187-.26.391s-.29.374-.312.349a.99.99,0,0,1,.235-.409C251.644,125.829,251.8,125.687,251.822,125.7Z" transform="translate(-240.515 -116.888)" fill="#263238"/>
        <path id="Path_3510" data-name="Path 3510" d="M258.593,119.13c.015.022-.148.155-.349.312a1.392,1.392,0,0,1-.391.26c-.019-.021.125-.187.331-.336A1.017,1.017,0,0,1,258.593,119.13Z" transform="translate(-245.883 -111.543)" fill="#263238"/>
        <path id="Path_3511" data-name="Path 3511" d="M266.985,114.61a1.4,1.4,0,0,1-.417.215,1.349,1.349,0,0,1-.441.155c-.013-.024.164-.14.4-.243A.981.981,0,0,1,266.985,114.61Z" transform="translate(-252.612 -107.868)" fill="#263238"/>
        <path id="Path_3512" data-name="Path 3512" d="M276,112.684c0,.026-.1.067-.22.09s-.234.022-.239,0,.093-.067.22-.092S276,112.657,276,112.684Z" transform="translate(-260.265 -106.285)" fill="#263238"/>
        <path id="Path_3513" data-name="Path 3513" d="M298.38,79.425a6.118,6.118,0,0,1,5.232-.561,5.544,5.544,0,0,1-2.186,4.514" transform="translate(-278.838 -78.528)" fill="#ff735d"/>
        <path id="Path_3514" data-name="Path 3514" d="M261.35,86.122c.093.14,2.476,3.969,2.476,3.969l7.151-4.406a2.5,2.5,0,0,0,.7-3.621h0a2.5,2.5,0,0,0-3.406-.587Z" transform="translate(-248.728 -80.579)" fill="#ff735d"/>
        <path id="Path_3515" data-name="Path 3515" d="M273.9,120.534l-.161,2.694s4.634-2.242,3.477-4.739Z" transform="translate(-258.802 -111.023)" fill="#263238"/>
        <path id="Path_3516" data-name="Path 3516" d="M254.149,94.281a5.973,5.973,0,0,0-5.729.647l2.416,1.577Z" transform="translate(-238.214 -90.962)" fill="#263238"/>
        <path id="Path_3517" data-name="Path 3517" d="M259.541,107.985l-4.471,2.8s.153.482.273.441,3.462-2.018,4.552-2.663a.336.336,0,0,0,.088-.5h0A.338.338,0,0,0,259.541,107.985Z" transform="translate(-243.621 -102.44)" fill="#263238"/>
        <circle id="Ellipse_150" data-name="Ellipse 150" cx="1.431" cy="1.431" r="1.431" transform="translate(18.313 4.489) rotate(-76.76)" fill="#fafafa"/>
        <path id="Path_3518" data-name="Path 3518" d="M295.936,90.439a2.608,2.608,0,0,0-.064-.344,1.416,1.416,0,0,0-.523-.766,1.387,1.387,0,0,0-.589-.256,1.405,1.405,0,0,0-.729.064,1.383,1.383,0,0,0-.65,2.121,1.389,1.389,0,0,0,.643.486,1.407,1.407,0,0,0,.729.064,1.387,1.387,0,0,0,.589-.256,1.424,1.424,0,0,0,.523-.766c.058-.217.052-.346.064-.346a.3.3,0,0,1,0,.093,1.152,1.152,0,0,1-.032.262,1.444,1.444,0,0,1-1.134,1.091,1.472,1.472,0,1,1,.617-2.61,1.426,1.426,0,0,1,.531.818,1.152,1.152,0,0,1,.032.262A.283.283,0,0,1,295.936,90.439Z" transform="translate(-274.472 -87.015)" fill="#263238"/>
        <path id="Path_3519" data-name="Path 3519" d="M306.672,84.444c-.019,0-.039-.278-.149-.714a5.6,5.6,0,0,0-.249-.747,5.468,5.468,0,0,0-1.039-1.609,5.527,5.527,0,0,0-.577-.534c-.353-.278-.6-.413-.589-.43a.828.828,0,0,1,.178.084,2.167,2.167,0,0,1,.2.118c.075.05.163.1.252.174a4.633,4.633,0,0,1,.6.527,5,5,0,0,1,1.058,1.637,4.842,4.842,0,0,1,.234.764c.028.11.039.213.054.3a2.059,2.059,0,0,1,.024.23A.688.688,0,0,1,306.672,84.444Z" transform="translate(-283.464 -80.058)" fill="#263238"/>
        <path id="Path_3520" data-name="Path 3520" d="M304.449,85.163c-.019,0-.041-.282-.153-.725a5.787,5.787,0,0,0-.252-.759,5.975,5.975,0,0,0-.454-.867,6.058,6.058,0,0,0-.6-.774,5.588,5.588,0,0,0-.587-.547c-.357-.286-.605-.424-.6-.441a.84.84,0,0,1,.187.088,1.914,1.914,0,0,1,.2.121,2.031,2.031,0,0,1,.256.187,5.127,5.127,0,0,1,.605.529,5.57,5.57,0,0,1,.615.783,5.694,5.694,0,0,1,.454.886,5,5,0,0,1,.237.777c.028.112.039.217.054.306a1.813,1.813,0,0,1,.026.234A.9.9,0,0,1,304.449,85.163Z" transform="translate(-281.626 -80.579)" fill="#263238"/>
      </g>
      <g id="freepik--Plant--inject-2" transform="translate(14212.222 4067.842)">
        <path id="Path_3521" data-name="Path 3521" d="M76,365.674a1.927,1.927,0,0,1,.729-1.728A4.808,4.808,0,0,0,78,362.471c.4-.983-.123-2.263.561-3.081.4-.482,1.106-.639,1.457-1.155a2.627,2.627,0,0,0,.321-.921A9.378,9.378,0,0,1,82.7,352.96a8.119,8.119,0,0,1-.934,4.2,5.3,5.3,0,0,0-.7,1.6c-.153.934.374,1.9.131,2.823-.271,1.05-1.456,1.749-1.519,2.831-.052.917.747,1.725.676,2.64a2.455,2.455,0,0,1-.413,1.084,3.681,3.681,0,0,1-3.348,1.938l-1.932.056Z" transform="translate(-67.641 -340.196)" fill="#ff735d"/>
        <g id="Group_2494" data-name="Group 2494" transform="translate(7.019 12.764)" opacity="0.3">
          <path id="Path_3522" data-name="Path 3522" d="M76,365.674a1.927,1.927,0,0,1,.729-1.728A4.808,4.808,0,0,0,78,362.471c.4-.983-.123-2.263.561-3.081.4-.482,1.106-.639,1.457-1.155a2.627,2.627,0,0,0,.321-.921A9.378,9.378,0,0,1,82.7,352.96a8.119,8.119,0,0,1-.934,4.2,5.3,5.3,0,0,0-.7,1.6c-.153.934.374,1.9.131,2.823-.271,1.05-1.456,1.749-1.519,2.831-.052.917.747,1.725.676,2.64a2.455,2.455,0,0,1-.413,1.084,3.681,3.681,0,0,1-3.348,1.938l-1.932.056Z" transform="translate(-74.66 -352.96)"/>
        </g>
        <path id="Path_3523" data-name="Path 3523" d="M43.722,340.914a1.507,1.507,0,0,1-.533-.015,3.252,3.252,0,0,1-.626-.161,2.7,2.7,0,0,1-.774-.43,1.067,1.067,0,0,1-.316-.426,2.007,2.007,0,0,1-.088-.577,6.064,6.064,0,0,0-.041-.626,1.711,1.711,0,0,0-.234-.622,4.7,4.7,0,0,1-.719-1.327,4.581,4.581,0,0,1,.062-1.691,3.55,3.55,0,0,0-.036-1.816c-.222-.605-.624-1.153-.832-1.835a9.248,9.248,0,0,1-.146-2.158,2.84,2.84,0,0,0-.245-1.074c-.155-.342-.374-.665-.536-1.026a7.534,7.534,0,0,1-.484-2.364c-.043-.407-.088-.82-.131-1.235a6.03,6.03,0,0,0-.209-1.237,10.755,10.755,0,0,0-.454-1.2,3.923,3.923,0,0,1-.22-.626,6.235,6.235,0,0,1-.06-.665,7.812,7.812,0,0,1,.06-1.336c.054-.445.138-.888.187-1.334v-.077l.009-.088.078.039a2.962,2.962,0,0,1,1.035.884,4.743,4.743,0,0,1,.633,1.181,14.618,14.618,0,0,1,.587,2.532,7.007,7.007,0,0,0,.779,2.341c.211.346.465.661.688,1a2.76,2.76,0,0,1,.473,1.1c.108.818-.346,1.534-.256,2.257a2.521,2.521,0,0,0,.359,1c.174.31.374.6.572.886a5.548,5.548,0,0,1,.514.893,2.8,2.8,0,0,1,.237.972c.043.652-.052,1.269,0,1.854a4.247,4.247,0,0,0,.467,1.59c.23.477.488.908.7,1.325a6.54,6.54,0,0,1,.29.618,2.949,2.949,0,0,1,.166.611,3.832,3.832,0,0,1,0,1.1,2.775,2.775,0,0,1-.561,1.4,1.273,1.273,0,0,1-.157.168.737.737,0,0,1-.127.106l-.11.077a2.456,2.456,0,0,0,.374-.374,2.8,2.8,0,0,0,.533-1.392,3.823,3.823,0,0,0-.019-1.088,2.934,2.934,0,0,0-.168-.6c-.08-.2-.187-.4-.29-.609-.219-.413-.478-.843-.714-1.323a4.331,4.331,0,0,1-.484-1.618c-.049-.6.045-1.215,0-1.852a2.719,2.719,0,0,0-.228-.934,5.55,5.55,0,0,0-.508-.876c-.187-.288-.4-.575-.579-.891a2.646,2.646,0,0,1-.362-1.046c-.088-.772.362-1.495.25-2.252a2.616,2.616,0,0,0-.46-1.05c-.219-.331-.475-.647-.691-1a6.987,6.987,0,0,1-.8-2.381A14.092,14.092,0,0,0,39,319.119a4.608,4.608,0,0,0-.617-1.149,2.849,2.849,0,0,0-.99-.846l.09-.05-.009.078c-.052.452-.135.9-.187,1.334a7.6,7.6,0,0,0-.06,1.317c.011.215.024.441.056.645a4.149,4.149,0,0,0,.213.6,10.891,10.891,0,0,1,.46,1.211,6.14,6.14,0,0,1,.207,1.254c.045.415.088.828.131,1.235a7.447,7.447,0,0,0,.469,2.328c.163.351.374.675.534,1.03a2.99,2.99,0,0,1,.254,1.121,9.233,9.233,0,0,0,.135,2.136c.2.661.615,1.207.824,1.833a3.849,3.849,0,0,1,.03,1.859,4.46,4.46,0,0,0-.071,1.661,4.957,4.957,0,0,0,.7,1.308,1.773,1.773,0,0,1,.237.647,5.791,5.791,0,0,1,.037.633,1.908,1.908,0,0,0,.078.561,1.035,1.035,0,0,0,.3.409,2.659,2.659,0,0,0,.747.43,3.284,3.284,0,0,0,.617.172,2.65,2.65,0,0,0,.392.041A1.4,1.4,0,0,1,43.722,340.914Z" transform="translate(-37.095 -310.931)" fill="#263238"/>
        <path id="Path_3524" data-name="Path 3524" d="M40.59,323.15a.242.242,0,0,1,.019.058c.009.047.024.1.041.174.037.153.08.383.151.671s.249.611.4,1.011.308.856.45,1.371.273,1.089.405,1.7a7.156,7.156,0,0,0,.607,1.9c.157.314.333.633.473.981a4.6,4.6,0,0,1,.273,1.11,22.546,22.546,0,0,0,.4,2.339c.374,1.585.747,3.094,1.067,4.47s.639,2.6.9,3.646.45,1.869.592,2.459l.155.671c.015.071.028.129.037.176a.29.29,0,0,1,0,.06.222.222,0,0,1-.021-.058l-.05-.172c-.043-.161-.1-.383-.187-.665l-.632-2.45c-.262-1.039-.574-2.272-.919-3.638s-.7-2.885-1.078-4.471a22.306,22.306,0,0,1-.385-2.356,4.379,4.379,0,0,0-.262-1.084c-.135-.338-.308-.656-.465-.974a7.248,7.248,0,0,1-.6-1.912c-.129-.615-.25-1.187-.389-1.7s-.284-.975-.432-1.371a9.477,9.477,0,0,1-.374-1.024c-.067-.3-.1-.521-.129-.676-.013-.071-.022-.131-.03-.178A.241.241,0,0,1,40.59,323.15Z" transform="translate(-39.937 -315.956)" fill="#263238"/>
        <path id="Path_3525" data-name="Path 3525" d="M65.011,314.637c-1.258-.757-1.607-3.035-1.073-4.4s1.463-2.616,1.613-4.073c.116-1.121-.245-2.276.022-3.363.363-1.48,1.814-2.616,1.807-4.141,0-.854-.486-1.661-.443-2.515.054-1.046.861-1.869,1.364-2.792a14.568,14.568,0,0,0,1.1-4.656c.269-1.581.882-3.274,2.289-4.044a15.235,15.235,0,0,1,.428,4.088c-.045.652-.811,1.9-.923,3.332-.065.856-.114,1.713-.17,2.571a8.151,8.151,0,0,1-.419,2.461c-.232.6-.6,1.136-.777,1.753-.327,1.16.088,2.42-.187,3.6-.224,1-.919,1.85-1.067,2.859-.206,1.42.7,2.9.226,4.253a19.2,19.2,0,0,0-.953,1.9c-.125.538,0,1.108-.108,1.648-.187.871-1.85,1.538-2.737,1.48" transform="translate(-58.726 -284.65)" fill="#ff735d"/>
        <path id="Path_3526" data-name="Path 3526" d="M77.071,291.73a.394.394,0,0,1,0,.077,1.984,1.984,0,0,1-.03.22c-.03.187-.064.478-.131.846s-.267.787-.422,1.287-.327,1.078-.473,1.727-.271,1.362-.4,2.132a8.771,8.771,0,0,1-.661,2.41c-.187.4-.374.805-.531,1.233a5.605,5.605,0,0,0-.275,1.362,27.323,27.323,0,0,1-.387,2.937c-.4,1.988-.775,3.883-1.121,5.606l-.964,4.567c-.278,1.293-.5,2.341-.661,3.076-.08.357-.142.637-.187.835l-.05.217a.413.413,0,0,1-.022.073.443.443,0,0,1,0-.075c.011-.056.024-.129.039-.22.039-.2.093-.48.164-.839.148-.736.361-1.788.622-3.085s.585-2.853.934-4.572l1.121-5.606a28.027,28.027,0,0,0,.387-2.926,5.654,5.654,0,0,1,.284-1.39c.155-.437.359-.843.538-1.241A8.89,8.89,0,0,0,75.507,298c.14-.768.265-1.495.42-2.134s.321-1.226.491-1.727.363-.917.439-1.278.118-.648.155-.839c.017-.092.032-.163.041-.219A.47.47,0,0,1,77.071,291.73Z" transform="translate(-64.463 -290.407)" fill="#263238"/>
      </g>
      <g id="freepik--Chart--inject-2" transform="translate(14280.484 4065.03)">
        <rect id="Rectangle_835" data-name="Rectangle 835" width="1.302" height="4.208" transform="translate(0 3.393)" fill="#ff735d"/>
        <rect id="Rectangle_836" data-name="Rectangle 836" width="1.302" height="5.938" transform="translate(2.397 1.661)" fill="#ff735d"/>
        <rect id="Rectangle_837" data-name="Rectangle 837" width="1.302" height="6.747" transform="translate(4.948 0.852)" fill="#ff735d"/>
        <rect id="Rectangle_838" data-name="Rectangle 838" width="1.302" height="7.601" transform="translate(7.5 0)" fill="#ff735d"/>
      </g>
      <g id="freepik--Gears--inject-2" transform="translate(14228.271 4063.236)">
        <path id="Path_3527" data-name="Path 3527" d="M161.153,316.827a.9.9,0,0,1,.28.088,1.2,1.2,0,0,1,.484,1.721,1.22,1.22,0,0,1-.536.462,1.205,1.205,0,0,1-1.4-.316,1.148,1.148,0,0,1-.187-.308,1.086,1.086,0,0,1-.092-.336,1.207,1.207,0,0,1,.092-.633,1.187,1.187,0,0,1,1.08-.716.867.867,0,0,1,.291.039,1.374,1.374,0,0,0-.29-.013,1.168,1.168,0,0,0-.716.282,1.145,1.145,0,0,0-.316.43,1.175,1.175,0,0,0-.08.6,1.093,1.093,0,0,0,.09.318,1.076,1.076,0,0,0,.187.292,1.147,1.147,0,0,0,1.327.3,1.041,1.041,0,0,0,.291-.187,1.07,1.07,0,0,0,.219-.25,1.168,1.168,0,0,0-.445-1.663A1.263,1.263,0,0,0,161.153,316.827Z" transform="translate(-152.834 -306.176)" fill="#263238"/>
        <path id="Path_3528" data-name="Path 3528" d="M152.5,306.173a.329.329,0,0,1,0-.041v-.626l.009.011-1.078-.235.019-.009-.284.6v.011h-.013a2.692,2.692,0,0,0-.7.125h-.013l-.009-.009-.475-.469h.006l-.934.594.011-.032.224.628v.015l-.011.013a2.742,2.742,0,0,0-.409.583v.015h-.667l.028-.024c-.075.338-.157.7-.239,1.076l-.017-.035.6.286.017.009v.019a2.8,2.8,0,0,0,.121.7v.019l-.015.015-.471.473v-.041l.59.934-.039-.015.628-.224h.021l.015.013a2.639,2.639,0,0,0,.579.409h0c.009.013-.017-.03.019.03h0v.665l-.026-.034,1.076.243-.037.019c.1-.2.187-.4.286-.6l.009-.017h.021a2.649,2.649,0,0,0,.7-.121h.021l.013.013.473.473H152.5l.934-.589-.013.036c-.077-.213-.149-.422-.224-.628v-.017l.013-.015a2.692,2.692,0,0,0,.411-.581v-.015h.684l-.026.022c.086-.374.166-.736.243-1.078l.015.03-.6-.288h-.013v-.015a2.655,2.655,0,0,0-.12-.7v-.022l.473-.473v.026l-.587-.934h.019l-.63.219h0a2.935,2.935,0,0,0-.428-.329l-.116-.069-.037-.024.041.019.118.064a2.785,2.785,0,0,1,.437.323h-.011l.626-.228h.011v.011l.594.934v.013l-.011.013-.469.473v-.022a2.676,2.676,0,0,1,.125.716l-.013-.021.6.284.019.009v.021c-.075.34-.155.7-.239,1.076v.022h-.689l.026-.015a2.74,2.74,0,0,1-.419.594v-.03c.073.206.149.415.224.628l.009.024-.022.013-.934.59-.022.015-.019-.019-.473-.471h.034a2.711,2.711,0,0,1-.718.125l.028-.019c-.093.2-.187.4-.286.6l-.011.024h-.026l-1.076-.241h-.026V311h0c.036.06,0,.017.019.03h0a2.709,2.709,0,0,1-.594-.419h.034l-.628.222-.026.009-.013-.022-.59-.934-.015-.022.019-.019.471-.473v.034a2.773,2.773,0,0,1-.125-.718l.019.026-.6-.277-.022-.011V308.4l.243-1.076V307.3h.714l-.024.015a2.707,2.707,0,0,1,.419-.592v.028l-.222-.63V306.1l.019-.011.934-.589.017-.009.015.013.471.473h-.022a2.7,2.7,0,0,1,.714-.121l-.017.011.29-.6v-.013h.013l1.074.249h.009v.622A.4.4,0,0,1,152.5,306.173Z" transform="translate(-143.231 -296.795)" fill="#263238"/>
        <path id="Path_3529" data-name="Path 3529" d="M139.708,261a3.02,3.02,0,0,1,.65.458l.7-.247.652,1.03-.519.523a3.043,3.043,0,0,1,.136.785l.665.316-.267,1.185h-.736a3.027,3.027,0,0,1-.46.65l.249.7-1.031.652-.523-.5a3.044,3.044,0,0,1-.783.136l-.316.665-1.19-.267v-.736a2.99,2.99,0,0,1-.65-.46l-.7.249-.654-1.031.521-.521a3.072,3.072,0,0,1-.136-.785l-.665-.316.265-1.19h.734a2.975,2.975,0,0,1,.458-.65l-.245-.7,1.03-.654.523.521a3.044,3.044,0,0,1,.785-.136l.316-.665,1.19.267V261Zm-1.05,1.4a1.308,1.308,0,1,0,.819.577A1.308,1.308,0,0,0,138.658,262.4Z" transform="translate(-132.473 -260)" fill="#ff735d" fill-rule="evenodd"/>
        <g id="Group_2495" data-name="Group 2495" transform="translate(2.177 0)" opacity="0.8">
          <path id="Path_3530" data-name="Path 3530" d="M139.708,261a3.02,3.02,0,0,1,.65.458l.7-.247.652,1.03-.519.523a3.043,3.043,0,0,1,.136.785l.665.316-.267,1.185h-.736a3.027,3.027,0,0,1-.46.65l.249.7-1.031.652-.523-.5a3.044,3.044,0,0,1-.783.136l-.316.665-1.19-.267v-.736a2.99,2.99,0,0,1-.65-.46l-.7.249-.654-1.031.521-.521a3.072,3.072,0,0,1-.136-.785l-.665-.316.265-1.19h.734a2.975,2.975,0,0,1,.458-.65l-.245-.7,1.03-.654.523.521a3.044,3.044,0,0,1,.785-.136l.316-.665,1.19.267V261Zm-1.05,1.4a1.308,1.308,0,1,0,.819.577A1.308,1.308,0,0,0,138.658,262.4Z" transform="translate(-134.65 -260)" fill="#fff" fill-rule="evenodd"/>
        </g>
        <path id="Path_3531" data-name="Path 3531" d="M125.93,300.317a1.738,1.738,0,0,1,.374.265l.405-.144.374.6-.3.3a1.767,1.767,0,0,1,.08.456l.387.187-.136.691h-.43a1.767,1.767,0,0,1-.265.374l.144.4-.6.374-.3-.3a1.794,1.794,0,0,1-.458.078l-.187.389-.693-.157v-.428a1.713,1.713,0,0,1-.374-.267l-.405.144-.374-.6.3-.3a1.766,1.766,0,0,1-.078-.456l-.389-.187.155-.693h.405a1.8,1.8,0,0,1,.267-.374l-.144-.4.6-.374.3.3a1.691,1.691,0,0,1,.456-.08l.187-.387.693.155v.43Zm-.611.815a.762.762,0,1,0,.576.91.762.762,0,0,0-.576-.91Z" transform="translate(-123 -292.306)" fill="#ff735d" fill-rule="evenodd"/>
        <g id="Group_2496" data-name="Group 2496" transform="translate(0 7.424)" opacity="0.4">
          <path id="Path_3532" data-name="Path 3532" d="M125.93,300.317a1.738,1.738,0,0,1,.374.265l.405-.144.374.6-.3.3a1.767,1.767,0,0,1,.08.456l.387.187-.136.691h-.43a1.767,1.767,0,0,1-.265.374l.144.4-.6.374-.3-.3a1.794,1.794,0,0,1-.458.078l-.187.389-.693-.157v-.428a1.713,1.713,0,0,1-.374-.267l-.405.144-.374-.6.3-.3a1.766,1.766,0,0,1-.078-.456l-.389-.187.155-.693h.405a1.8,1.8,0,0,1,.267-.374l-.144-.4.6-.374.3.3a1.691,1.691,0,0,1,.456-.08l.187-.387.693.155v.43Zm-.611.815a.762.762,0,1,0,.576.91.762.762,0,0,0-.576-.91Z" transform="translate(-123 -299.73)" fill="#fff" fill-rule="evenodd"/>
        </g>
      </g>
      <g id="freepik--Character--inject-2" transform="translate(14237.276 4052.294)">
        <path id="Path_3533" data-name="Path 3533" d="M355.578,228.433a1.827,1.827,0,0,0,1.321-1.822c-.022-.374-.159-.721-.144-1.088a3.634,3.634,0,0,1,.686-1.542,1.532,1.532,0,0,0,.142-1.605c-.213-.3-.592-.435-.852-.7a2.75,2.75,0,0,1-.512-.945,1.647,1.647,0,0,0-.626-.858.657.657,0,0,0-.923.237" transform="translate(-320.39 -216.357)" fill="#263238"/>
        <path id="Path_3534" data-name="Path 3534" d="M293.012,204.3a1.391,1.391,0,0,0,.391-1.77,2.171,2.171,0,0,0-1.6-1.054,3.053,3.053,0,0,0-2.629.871c-.361.374-.654.858-1.144,1.028a6.676,6.676,0,0,1-1.358.075,2.055,2.055,0,0,0-1.437,1.035,4.417,4.417,0,0,0-.51,1.747,2.646,2.646,0,0,1-.5,1.573c-.385.405-.974.48-1.441.762a1.973,1.973,0,0,0-.587,2.694c.187.269.452.518.473.845a2.277,2.277,0,0,1-.263.852,1.33,1.33,0,0,0,1.14,1.652c.389.022.8-.129,1.153.045s.475.59.7.908a1.669,1.669,0,0,0,2.031.523c.286-.14.561-.374.873-.349s.561.291.878.351a1.125,1.125,0,0,0,1.039-.561,5.716,5.716,0,0,1,.723-1.013,4.162,4.162,0,0,1,1.495-.628,4.214,4.214,0,0,0,2.375-5.9" transform="translate(-261.217 -201.444)" fill="#263238"/>
        <path id="Path_3535" data-name="Path 3535" d="M315.411,215.357a.9.9,0,0,1,.8.91h0l-.534,12.084c-.022,1.428-2.108,2.229-3.636,2.194h0c-1.543-.035-1.592-.792-1.613-2.151-.032-2.268-.028-3.12-.03-3.107a3.143,3.143,0,0,1-2.347-2.872,27.216,27.216,0,0,1-.021-5.036c.1-1.527,1.121-3.4,2.637-3.233Z" transform="translate(-282.377 -211.764)" fill="#ffbe9d"/>
        <path id="Path_3536" data-name="Path 3536" d="M311.44,239.019a.329.329,0,0,0,.314.331.312.312,0,0,0,.336-.293.325.325,0,0,0-.312-.331.314.314,0,0,0-.338.293Z" transform="translate(-285.237 -231.759)" fill="#263238"/>
        <path id="Path_3537" data-name="Path 3537" d="M310.816,235.782c.041.043.288-.14.639-.138s.607.178.646.135-.022-.1-.135-.178a.9.9,0,0,0-.518-.161.854.854,0,0,0-.508.163C310.833,235.685,310.8,235.763,310.816,235.782Z" transform="translate(-284.726 -229.088)" fill="#263238"/>
        <path id="Path_3538" data-name="Path 3538" d="M330.17,239.019a.329.329,0,0,0,.314.331.312.312,0,0,0,.336-.293.325.325,0,0,0-.314-.331.312.312,0,0,0-.336.293Z" transform="translate(-300.467 -231.759)" fill="#263238"/>
        <path id="Path_3539" data-name="Path 3539" d="M329.287,236.172c.041.043.288-.14.639-.138s.607.187.647.135-.022-.1-.135-.178a.9.9,0,0,0-.518-.161.867.867,0,0,0-.508.163C329.3,236.077,329.266,236.153,329.287,236.172Z" transform="translate(-299.745 -229.405)" fill="#263238"/>
        <path id="Path_3540" data-name="Path 3540" d="M318.619,238.854a2.316,2.316,0,0,0-.561-.1c-.09-.009-.176-.028-.187-.088a.45.45,0,0,1,.062-.265c.084-.217.174-.445.265-.682a11.4,11.4,0,0,0,.6-1.784,11.909,11.909,0,0,0-.747,1.73c-.088.241-.174.469-.254.688a.512.512,0,0,0-.049.351.222.222,0,0,0,.148.131.619.619,0,0,0,.153.022A2.313,2.313,0,0,0,318.619,238.854Z" transform="translate(-290.357 -229.485)" fill="#263238"/>
        <path id="Path_3541" data-name="Path 3541" d="M321.11,269.9a6.48,6.48,0,0,0,3.41-.9,3.288,3.288,0,0,1-3.41,1.549Z" transform="translate(-293.1 -256.377)" fill="#eb996e"/>
        <path id="Path_3542" data-name="Path 3542" d="M323.056,255.079a.635.635,0,0,1,.561-.234.57.57,0,0,1,.4.215.374.374,0,0,1,.028.419.43.43,0,0,1-.462.116,1.367,1.367,0,0,1-.448-.269.437.437,0,0,1-.1-.1.118.118,0,0,1,0-.131" transform="translate(-294.649 -244.864)" fill="#ff735d"/>
        <path id="Path_3543" data-name="Path 3543" d="M323.121,252.89c-.058,0-.06.374-.387.648s-.732.226-.734.28c0,.022.09.073.262.078a.934.934,0,0,0,.613-.213.822.822,0,0,0,.3-.542C323.187,252.983,323.144,252.888,323.121,252.89Z" transform="translate(-293.824 -243.277)" fill="#263238"/>
        <path id="Path_3544" data-name="Path 3544" d="M328.462,233.234c.034.1.385.05.8.1s.747.164.8.078c.026-.041-.032-.131-.166-.224a1.407,1.407,0,0,0-1.216-.136C328.524,233.113,328.447,233.189,328.462,233.234Z" transform="translate(-299.077 -227.082)" fill="#263238"/>
        <path id="Path_3545" data-name="Path 3545" d="M311.5,230.275c.062.08.3,0,.594,0s.538.054.594-.028c.026-.041-.013-.121-.121-.2a.854.854,0,0,0-.957.028C311.511,230.154,311.477,230.236,311.5,230.275Z" transform="translate(-285.282 -224.598)" fill="#263238"/>
        <path id="Path_3546" data-name="Path 3546" d="M336.729,214.294a2.472,2.472,0,0,1,2.016-.374,1.708,1.708,0,0,1,1.265,1.495c.015.448-.187.934.021,1.332s.656.542.988.822a1.517,1.517,0,0,1,.351,1.835c-.278.51-.861.884-.91,1.459-.047.542.409,1,.521,1.532a1.714,1.714,0,0,1-.669,1.585,5.192,5.192,0,0,1-1.631.811,2.535,2.535,0,0,1-1.4.22,1.429,1.429,0,0,1-1.046-1.192,1.945,1.945,0,0,1,.529-1.536c.327-.361.787-.665.865-1.142.121-.747-.76-1.347-.706-2.095a2.169,2.169,0,0,1,.527-1.022,1.2,1.2,0,0,0,.284-1.076c-.187-.471-.8-.594-1.172-.934a1.142,1.142,0,0,1-.312-1.157,1.177,1.177,0,0,1,.923-.787" transform="translate(-305.376 -211.529)" fill="#263238"/>
        <path id="Path_3547" data-name="Path 3547" d="M306.546,209.92a1.74,1.74,0,0,1-2.055,1.719c-.389-.071-.815-.267-1.151-.06s-.374.747-.682,1.022c-.448.391-1.16.024-1.73.187-.439.131-.714.549-1.007.9a1.213,1.213,0,0,1-1.17.561,5.163,5.163,0,0,1,.176-1.173,1.736,1.736,0,0,1,.665-.955,6.409,6.409,0,0,0,.561-.329c.374-.293.45-.807.675-1.218a1.91,1.91,0,0,1,1.454-.964,10.187,10.187,0,0,0,1.495-.024c.361-.09.676-.323,1.041-.394a2.3,2.3,0,0,1,1.889.884" transform="translate(-274.918 -207.729)" fill="#263238"/>
        <path id="Path_3548" data-name="Path 3548" d="M346.485,221.683a.535.535,0,0,0,.058-.293.747.747,0,0,0-.514-.589,3.812,3.812,0,0,0-.561-.151,1.627,1.627,0,0,1-.633-.262.886.886,0,0,1-.329-.68,6.757,6.757,0,0,1,.039-.8,1.81,1.81,0,0,0-.021-.392.837.837,0,0,0-.149-.334,1.282,1.282,0,0,0-.613-.351,2.656,2.656,0,0,1-.624-.269,2.081,2.081,0,0,1-.46-.374,2.137,2.137,0,0,1-.448-.725,1.306,1.306,0,0,1-.065-.222c-.011-.052-.015-.078-.011-.08s.034.107.11.29a2.263,2.263,0,0,0,1.527,1.3,1.347,1.347,0,0,1,.658.374.935.935,0,0,1,.172.374,1.926,1.926,0,0,1,.022.415,7.32,7.32,0,0,0-.041.79.8.8,0,0,0,.29.617,1.575,1.575,0,0,0,.6.252,3.682,3.682,0,0,1,.561.166.908.908,0,0,1,.4.3.689.689,0,0,1,.129.349.458.458,0,0,1-.047.232C346.51,221.665,346.487,221.685,346.485,221.683Z" transform="translate(-310.211 -213.41)" fill="#455a64"/>
        <path id="Path_3549" data-name="Path 3549" d="M284.363,213.6l-.043-.021a.3.3,0,0,1-.1-.1.514.514,0,0,1,.052-.5.66.66,0,0,1,.273-.262,3.5,3.5,0,0,1,.409-.172,1.276,1.276,0,0,0,.428-.243.934.934,0,0,0,.245-.482c.041-.187.054-.4.09-.617a1.343,1.343,0,0,1,.252-.643,12.319,12.319,0,0,1,1.144-.962,1.786,1.786,0,0,0,.4-.675,4.7,4.7,0,0,0,.187-.815,3.594,3.594,0,0,1,.534-1.7,1.233,1.233,0,0,1,.768-.5,2.7,2.7,0,0,1,.886.021,3.13,3.13,0,0,0,.828.049,1.076,1.076,0,0,0,.676-.349c.348-.374.546-.878.974-1.136a1.626,1.626,0,0,1,1.286-.178,1.428,1.428,0,0,1,.845.658,1.6,1.6,0,0,1,.22.785,1.393,1.393,0,0,1-.08.508.829.829,0,0,1-.077.164s.022-.058.058-.17a1.494,1.494,0,0,0,.062-.5,1.588,1.588,0,0,0-.228-.759,1.373,1.373,0,0,0-.818-.618,1.555,1.555,0,0,0-1.224.187,1.791,1.791,0,0,0-.491.506,5.839,5.839,0,0,1-.46.622,1.287,1.287,0,0,1-.325.256,1.233,1.233,0,0,1-.406.125,3.262,3.262,0,0,1-.852-.047,2.617,2.617,0,0,0-.854-.022,1.149,1.149,0,0,0-.708.46,2.359,2.359,0,0,0-.364.8,7.9,7.9,0,0,0-.155.856,4.692,4.692,0,0,1-.187.83,1.845,1.845,0,0,1-.422.706,12,12,0,0,0-1.144.951,1.287,1.287,0,0,0-.243.6c-.035.213-.05.422-.1.62a.966.966,0,0,1-.269.512,1.308,1.308,0,0,1-.45.249,3.557,3.557,0,0,0-.407.163.641.641,0,0,0-.262.239.506.506,0,0,0-.067.475A.439.439,0,0,0,284.363,213.6Z" transform="translate(-263.072 -203.739)" fill="#455a64"/>
        <path id="Path_3550" data-name="Path 3550" d="M247.016,306.652l4.513-.413s2.777-7.315,6.2-9.089l2.218,3.874-4.748,8.919H245.93Z" transform="translate(-231.968 -279.267)" fill="#ff735d"/>
        <path id="Path_3551" data-name="Path 3551" d="M247.016,306.652l4.513-.413s2.777-7.315,6.2-9.089l2.218,3.874-4.748,8.919H245.93Z" transform="translate(-231.968 -279.267)" opacity="0.3"/>
        <path id="Path_3552" data-name="Path 3552" d="M261.28,352.853a6.754,6.754,0,0,1,.845-1.413A7.115,7.115,0,0,1,261.28,352.853Z" transform="translate(-244.45 -323.413)" fill="#fafafa"/>
        <path id="Path_3553" data-name="Path 3553" d="M273.918,352.976a6.953,6.953,0,0,1-1.028-1.276,3.248,3.248,0,0,1,.551.607A3.552,3.552,0,0,1,273.918,352.976Z" transform="translate(-253.891 -323.624)" fill="#fafafa"/>
        <path id="Path_3554" data-name="Path 3554" d="M281.148,344.4a3.636,3.636,0,0,1,0-1.185,3.633,3.633,0,0,1,0,1.185Z" transform="translate(-260.566 -316.728)" fill="#fafafa"/>
        <path id="Path_3555" data-name="Path 3555" d="M269.349,361.249a1.2,1.2,0,0,1-.432-.222c-.224-.148-.392-.284-.374-.306a1.264,1.264,0,0,1,.432.224C269.188,361.09,269.364,361.226,269.349,361.249Z" transform="translate(-250.355 -330.958)" fill="#fafafa"/>
        <path id="Path_3556" data-name="Path 3556" d="M283.632,327.57a4,4,0,0,1-.312.815,3.945,3.945,0,0,1-.4.775,3.8,3.8,0,0,1,.31-.815A4.007,4.007,0,0,1,283.632,327.57Z" transform="translate(-262.046 -304.003)" fill="#fafafa"/>
        <path id="Path_3557" data-name="Path 3557" d="M293.117,311.71c.015.021-.146.17-.361.334a1.28,1.28,0,0,1-.42.256c-.015-.022.146-.172.361-.334A1.243,1.243,0,0,1,293.117,311.71Z" transform="translate(-269.702 -291.106)" fill="#fafafa"/>
        <path id="Path_3558" data-name="Path 3558" d="M332.64,310.986l2.328-9.4a3.2,3.2,0,0,1,3.67-2.379h0a3.2,3.2,0,0,1,2.594,3.638l-1.424,9.188a4.6,4.6,0,0,1-3.816,3.724l-1.85.288Z" transform="translate(-302.476 -280.898)" fill="#ff735d"/>
        <path id="Path_3559" data-name="Path 3559" d="M351.742,293.711a2.119,2.119,0,0,0-.831-.417,2.21,2.21,0,0,0-1,0,2.711,2.711,0,0,0-1.089.561,5.289,5.289,0,0,0-1.308,1.835c-.125.263-.22.48-.288.63a1.415,1.415,0,0,1-.114.23,1.33,1.33,0,0,1,.079-.243c.058-.155.142-.374.26-.647a7.461,7.461,0,0,1,.478-.917,4.1,4.1,0,0,1,.828-.962,2.728,2.728,0,0,1,1.13-.581,2.218,2.218,0,0,1,1.039.013,1.785,1.785,0,0,1,.632.3,1.156,1.156,0,0,1,.14.129A.542.542,0,0,1,351.742,293.711Z" transform="translate(-314.242 -276.009)" fill="#263238"/>
        <path id="Path_3560" data-name="Path 3560" d="M288.01,307.5a.5.5,0,0,1-.065.088l-.2.239c-.174.207-.419.51-.7.9a9.629,9.629,0,0,0-1.59,3.375,21.4,21.4,0,0,0-.394,3.737c-.024.482-.047.873-.067,1.142-.011.127-.021.23-.028.31a.733.733,0,0,1-.015.108.373.373,0,0,1,0-.108c0-.082,0-.187.009-.312,0-.282.021-.669.036-1.142a19.186,19.186,0,0,1,.374-3.756A9.283,9.283,0,0,1,287,308.69c.29-.389.544-.688.725-.888.09-.1.164-.176.213-.226A.587.587,0,0,1,288.01,307.5Z" transform="translate(-263.696 -287.683)" fill="#263238"/>
        <path id="Path_3561" data-name="Path 3561" d="M302.251,281.9a3.18,3.18,0,0,0-2.145-2.607,25.529,25.529,0,0,0-3.031-.854c-.116-.727-.321-2.031-.374-2.306-.064-.387-6.121.579-6.2.725-.05.1-.187,1.605-.278,2.616l-1.45.506-1.885,2.407-.985,1.4a7.519,7.519,0,0,0-1.22,2.687,14.624,14.624,0,0,0-.271,3.255l-.293,6.166,12.684,3.584.972-6.252,3.27-4.451C301.324,286.977,302.564,283.968,302.251,281.9Z" transform="translate(-263.022 -262.105)" fill="#ff735d"/>
        <path id="Path_3562" data-name="Path 3562" d="M321.885,282.749a1.91,1.91,0,0,1-.084-.428c-.039-.265-.088-.633-.135-1.041-.022-.2-.043-.394-.064-.576a4.674,4.674,0,0,1-.034-.475.561.561,0,0,1,.092-.316c.049-.064.09-.08.093-.077s-.028.034-.062.1a.611.611,0,0,0-.054.3c0,.131.034.288.054.465s.045.374.071.574c.047.407.084.777.107,1.044A1.9,1.9,0,0,1,321.885,282.749Z" transform="translate(-293.474 -265.189)" fill="#263238"/>
        <path id="Path_3563" data-name="Path 3563" d="M330.45,281.256a1.482,1.482,0,0,1-.135-.392,6.194,6.194,0,0,1-.187-1.984,1.526,1.526,0,0,1,.06-.409c.03,0-.024.63.049,1.4S330.479,281.249,330.45,281.256Z" transform="translate(-300.422 -264.077)" fill="#263238"/>
        <path id="Path_3564" data-name="Path 3564" d="M345.943,279.169a6.491,6.491,0,0,0-.036-1.394,6.194,6.194,0,0,0-.437-1.325,1.217,1.217,0,0,1,.222.353,3.55,3.55,0,0,1,.34,1.96A1.346,1.346,0,0,1,345.943,279.169Z" transform="translate(-312.909 -262.435)" fill="#263238"/>
        <path id="Path_3565" data-name="Path 3565" d="M302,314.012a5.793,5.793,0,0,1,1.112-1.482Q302.592,313.3,302,314.012Z" transform="translate(-277.561 -291.773)" fill="#fafafa"/>
        <path id="Path_3566" data-name="Path 3566" d="M313.164,302.7a5.978,5.978,0,0,1-.934-1.218,3.2,3.2,0,0,1,.5.579A3.076,3.076,0,0,1,313.164,302.7Z" transform="translate(-285.88 -282.788)" fill="#fafafa"/>
        <path id="Path_3567" data-name="Path 3567" d="M327.9,300.22a5.363,5.363,0,0,1-.6.6,5.644,5.644,0,0,1-.618.581,2.871,2.871,0,0,1,.551-.65A2.8,2.8,0,0,1,327.9,300.22Z" transform="translate(-297.638 -281.763)" fill="#fafafa"/>
        <path id="Path_3568" data-name="Path 3568" d="M324.937,287.285a1.745,1.745,0,0,1-.465-.355,1.83,1.83,0,0,1-.4-.43,1.857,1.857,0,0,1,.467.357A1.8,1.8,0,0,1,324.937,287.285Z" transform="translate(-295.507 -270.607)" fill="#fafafa"/>
        <path id="Path_3569" data-name="Path 3569" d="M337.138,283.24a2.209,2.209,0,0,1-.63.187,2.282,2.282,0,0,1-.648.09,2.251,2.251,0,0,1,.628-.187A2.293,2.293,0,0,1,337.138,283.24Z" transform="translate(-305.094 -267.956)" fill="#fafafa"/>
        <path id="Path_3570" data-name="Path 3570" d="M345.068,299.7a2.195,2.195,0,0,1-.082-.652,2.27,2.27,0,0,1,.015-.656,2.2,2.2,0,0,1,.082.652A2.27,2.27,0,0,1,345.068,299.7Z" transform="translate(-312.501 -280.275)" fill="#fafafa"/>
        <path id="Path_3571" data-name="Path 3571" d="M337.944,309.308a3.5,3.5,0,0,1-.329-.747,3.606,3.606,0,0,1-.235-.79,7.137,7.137,0,0,1,.561,1.545Z" transform="translate(-306.33 -287.902)" fill="#fafafa"/>
        <path id="Path_3572" data-name="Path 3572" d="M323.808,316.508a3.876,3.876,0,0,1-.359-.79,3.8,3.8,0,0,1-.269-.828,4.049,4.049,0,0,1,.359.792,3.962,3.962,0,0,1,.269.826Z" transform="translate(-294.784 -293.692)" fill="#fafafa"/>
        <path id="Path_3573" data-name="Path 3573" d="M312.085,325.165a6.637,6.637,0,0,1-.325-1.585,3.412,3.412,0,0,1,.209.783A3.448,3.448,0,0,1,312.085,325.165Z" transform="translate(-285.497 -300.758)" fill="#fafafa"/>
        <path id="Path_3574" data-name="Path 3574" d="M294.975,326.188a6.638,6.638,0,0,1-.7-1.428A6.64,6.64,0,0,1,294.975,326.188Z" transform="translate(-271.284 -301.718)" fill="#fafafa"/>
        <path id="Path_3575" data-name="Path 3575" d="M290.872,342.34a4.159,4.159,0,0,1-.759.428,3.894,3.894,0,0,1-.8.342,3.961,3.961,0,0,1,.76-.43A3.91,3.91,0,0,1,290.872,342.34Z" transform="translate(-267.242 -316.013)" fill="#fafafa"/>
        <path id="Path_3576" data-name="Path 3576" d="M296.231,351.961a2.106,2.106,0,0,1-.263-.682,2.083,2.083,0,0,1-.11-.719,3.832,3.832,0,0,1,.2.7A3.89,3.89,0,0,1,296.231,351.961Z" transform="translate(-272.566 -322.697)" fill="#fafafa"/>
        <path id="Path_3577" data-name="Path 3577" d="M289.633,364.514a3.378,3.378,0,0,1-.609-.493,3.075,3.075,0,0,1-.544-.561,3.376,3.376,0,0,1,.609.493A3.076,3.076,0,0,1,289.633,364.514Z" transform="translate(-266.568 -333.187)" fill="#fafafa"/>
        <path id="Path_3578" data-name="Path 3578" d="M307.142,361.56c0,.028-.422.151-.923.374s-.882.45-.9.426a2.96,2.96,0,0,1,.859-.516A2.914,2.914,0,0,1,307.142,361.56Z" transform="translate(-280.261 -331.642)" fill="#fafafa"/>
        <path id="Path_3579" data-name="Path 3579" d="M307.092,350.382a2.562,2.562,0,0,1-.275-.641,2.492,2.492,0,0,1-.187-.671,2.527,2.527,0,0,1,.273.639A2.46,2.46,0,0,1,307.092,350.382Z" transform="translate(-281.326 -321.485)" fill="#fafafa"/>
        <path id="Path_3580" data-name="Path 3580" d="M316.4,342.57a5.455,5.455,0,0,1-.51.9,5.625,5.625,0,0,1-.594.859,11.216,11.216,0,0,1,1.1-1.753Z" transform="translate(-288.376 -316.2)" fill="#fafafa"/>
        <path id="Path_3581" data-name="Path 3581" d="M329.538,336.045a3.764,3.764,0,0,1-.622-.848,3.85,3.85,0,0,1-.456-.947c.026-.011.243.4.54.9S329.561,336.03,329.538,336.045Z" transform="translate(-299.077 -309.434)" fill="#fafafa"/>
        <path id="Path_3582" data-name="Path 3582" d="M335.771,330.99a1.849,1.849,0,0,1-.712.127,1.869,1.869,0,0,1-.719-.056,4.792,4.792,0,0,1,.716-.041A4.993,4.993,0,0,1,335.771,330.99Z" transform="translate(-303.858 -306.782)" fill="#fafafa"/>
        <path id="Path_3583" data-name="Path 3583" d="M352.4,316.39a10.862,10.862,0,0,1-1.869.893A11.238,11.238,0,0,1,352.4,316.39Z" transform="translate(-317.023 -294.912)" fill="#fafafa"/>
        <path id="Path_3584" data-name="Path 3584" d="M361.76,300.585a7.237,7.237,0,0,1,.747-1.495,3.551,3.551,0,0,1-.329.768A3.69,3.69,0,0,1,361.76,300.585Z" transform="translate(-326.155 -280.844)" fill="#fafafa"/>
        <path id="Path_3585" data-name="Path 3585" d="M371.194,306.95a6.247,6.247,0,0,1-.284-.85,6.18,6.18,0,0,1-.25-.86A5.012,5.012,0,0,1,371.194,306.95Z" transform="translate(-333.392 -285.845)" fill="#fafafa"/>
        <path id="Path_3586" data-name="Path 3586" d="M368.044,324.07a2.913,2.913,0,0,1-.82.3,2.819,2.819,0,0,1-.863.133,35.539,35.539,0,0,1,1.684-.432Z" transform="translate(-329.895 -301.157)" fill="#fafafa"/>
        <path id="Path_3587" data-name="Path 3587" d="M355.185,326.945c-.028,0,.052-.46.075-1.026s-.015-1.026.013-1.03a3.076,3.076,0,0,1,.084,1.033,3.032,3.032,0,0,1-.172,1.022Z" transform="translate(-320.803 -301.824)" fill="#fafafa"/>
        <path id="Path_3588" data-name="Path 3588" d="M345.9,341.683a4.6,4.6,0,0,1-1.215-1.465c.024-.015.271.331.607.734A8.969,8.969,0,0,1,345.9,341.683Z" transform="translate(-312.274 -314.287)" fill="#fafafa"/>
        <path id="Path_3589" data-name="Path 3589" d="M364.456,345.466a3.784,3.784,0,0,1-.779.374,3.945,3.945,0,0,1-.817.288,7.858,7.858,0,0,1,1.6-.667Z" transform="translate(-327.049 -318.55)" fill="#fafafa"/>
        <path id="Path_3590" data-name="Path 3590" d="M363.995,359.445a11.109,11.109,0,0,1,.021-2.055A10.692,10.692,0,0,1,363.995,359.445Z" transform="translate(-327.941 -328.251)" fill="#fafafa"/>
        <path id="Path_3591" data-name="Path 3591" d="M348.65,358.069a5.98,5.98,0,0,1,.518-2.068c.026.009-.116.463-.258,1.033S348.678,358.074,348.65,358.069Z" transform="translate(-315.494 -327.12)" fill="#fafafa"/>
        <path id="Path_3592" data-name="Path 3592" d="M340.383,373.036c0,.028-.463.073-1.031.168a10.269,10.269,0,0,1-1.031.172,3.809,3.809,0,0,1,1.015-.269A3.719,3.719,0,0,1,340.383,373.036Z" transform="translate(-307.095 -340.965)" fill="#fafafa"/>
        <path id="Path_3593" data-name="Path 3593" d="M332.2,363.92a3.859,3.859,0,0,1,.561-.645,3.677,3.677,0,0,1,.624-.576,3.864,3.864,0,0,1-.561.645A3.766,3.766,0,0,1,332.2,363.92Z" transform="translate(-302.118 -332.569)" fill="#fafafa"/>
        <path id="Path_3594" data-name="Path 3594" d="M318.854,373.649a6.312,6.312,0,0,1-.252-.731,6.615,6.615,0,0,1-.262-.729A2.99,2.99,0,0,1,318.854,373.649Z" transform="translate(-290.848 -340.285)" fill="#fafafa"/>
        <path id="Path_3595" data-name="Path 3595" d="M331.007,382.675a10.336,10.336,0,0,1-1.837-.815,5.268,5.268,0,0,1,.934.362A5.459,5.459,0,0,1,331.007,382.675Z" transform="translate(-299.654 -348.148)" fill="#fafafa"/>
        <path id="Path_3596" data-name="Path 3596" d="M307.76,378.6a2.52,2.52,0,0,1,.176-.684,2.6,2.6,0,0,1,.267-.652,2.54,2.54,0,0,1-.176.684,2.727,2.727,0,0,1-.267.652Z" transform="translate(-282.245 -344.408)" fill="#fafafa"/>
        <path id="Path_3597" data-name="Path 3597" d="M317.927,387c0,.028-.536-.058-1.2-.092s-1.2,0-1.2-.037a4.255,4.255,0,0,1,1.205-.06A4.2,4.2,0,0,1,317.927,387Z" transform="translate(-288.563 -352.159)" fill="#fafafa"/>
        <path id="Path_3598" data-name="Path 3598" d="M332.628,325.413a.263.263,0,0,1,0-.075.691.691,0,0,1,.032-.211.463.463,0,0,1,.2-.278.652.652,0,0,1,.456-.075l-.037.022c.2-.718.531-1.764.858-2.937.306-1.1.514-2.11.658-2.844.071-.353.127-.646.172-.869a2.314,2.314,0,0,1,.073-.316,1.85,1.85,0,0,1-.036.323c-.03.207-.078.506-.142.874a28.741,28.741,0,0,1-.632,2.857c-.327,1.175-.665,2.218-.889,2.93l-.009.028H333.3a.6.6,0,0,0-.417.056.448.448,0,0,0-.2.245A2.189,2.189,0,0,0,332.628,325.413Z" transform="translate(-302.464 -296.083)" fill="#263238"/>
        <path id="Path_3599" data-name="Path 3599" d="M339.52,358.212c-.015,0-.131-.247-.374-.624a6.449,6.449,0,0,0-2.541-2.31c-.4-.2-.661-.291-.656-.308a.915.915,0,0,1,.187.05,4.185,4.185,0,0,1,.5.2,5.834,5.834,0,0,1,2.571,2.336,4.232,4.232,0,0,1,.241.475A.624.624,0,0,1,339.52,358.212Z" transform="translate(-305.167 -326.283)" fill="#263238"/>
        <g id="Group_2497" data-name="Group 2497" transform="translate(30.842 28.551)" opacity="0.2">
          <path id="Path_3600" data-name="Path 3600" d="M336.322,354.24a6.513,6.513,0,0,1,1.969.357A2.531,2.531,0,0,1,339.83,356a.458.458,0,0,1-.035.484.344.344,0,0,1-.353.058.921.921,0,0,1-.31-.213c-.411-.374-.839-.718-1.263-1.084a3.593,3.593,0,0,0-1.6-.835" transform="translate(-336.27 -354.24)"/>
        </g>
        <path id="Path_3601" data-name="Path 3601" d="M307.426,342.183a.849.849,0,0,1-.187.112,3.268,3.268,0,0,1-.574.217,3.833,3.833,0,0,1-3.763-.977,3.42,3.42,0,0,1-.4-.469.838.838,0,0,1-.116-.187c.015-.011.187.262.561.613a3.963,3.963,0,0,0,3.7.96C307.134,342.321,307.416,342.164,307.426,342.183Z" transform="translate(-277.878 -314.824)" fill="#263238"/>
        <g id="Group_2498" data-name="Group 2498" transform="translate(24.603 26.193)" opacity="0.2">
          <path id="Path_3602" data-name="Path 3602" d="M302.88,341.62a4.7,4.7,0,0,0,1.282,1.833,2.055,2.055,0,0,0,1.179.493,2.635,2.635,0,0,0,1.637-.818,4.608,4.608,0,0,1-4.1-1.508" transform="translate(-302.88 -341.62)"/>
        </g>
        <path id="Path_3603" data-name="Path 3603" d="M338.659,280.268c-.03,0,0-.643-.071-1.426s-.23-1.405-.2-1.413a1.5,1.5,0,0,1,.129.4,6.863,6.863,0,0,1,.168,1,7,7,0,0,1,.026,1.016A1.608,1.608,0,0,1,338.659,280.268Z" transform="translate(-307.145 -263.232)" fill="#263238"/>
        <path id="Path_3604" data-name="Path 3604" d="M180.558,426.44a12.414,12.414,0,0,1-3.844.166c-1.7-.254-5.507.009-5.5,2.242,0,2.5,5.077,1.882,7.056,1.486s3.952-.747,3.952-.747Z" transform="translate(-171.21 -384.398)" fill="#ff735d"/>
        <path id="Path_3605" data-name="Path 3605" d="M195.124,435.91a4.324,4.324,0,0,1-.245-.869,4.26,4.26,0,0,1-.149-.891,4.323,4.323,0,0,1,.237.869A4.26,4.26,0,0,1,195.124,435.91Z" transform="translate(-190.335 -390.668)" fill="#263238"/>
        <path id="Path_3606" data-name="Path 3606" d="M199.477,435.928a8.4,8.4,0,0,1-.247-1.8,4.231,4.231,0,0,1,.172.891A4.369,4.369,0,0,1,199.477,435.928Z" transform="translate(-193.994 -390.652)" fill="#263238"/>
        <path id="Path_3607" data-name="Path 3607" d="M203.279,435.52a3.311,3.311,0,0,1-.142-.779,3.175,3.175,0,0,1-.047-.79,6.54,6.54,0,0,1,.187,1.57Z" transform="translate(-197.127 -390.505)" fill="#263238"/>
        <path id="Path_3608" data-name="Path 3608" d="M208.257,434.975a1.826,1.826,0,0,1-.26-.669,1.8,1.8,0,0,1-.075-.716,5.313,5.313,0,0,1,.168.691A5.025,5.025,0,0,1,208.257,434.975Z" transform="translate(-201.056 -390.212)" fill="#263238"/>
        <path id="Path_3609" data-name="Path 3609" d="M211,429.255a.851.851,0,0,1,.265-.019,2.279,2.279,0,0,1,.712.14.843.843,0,0,1,.22.118.335.335,0,0,1,.136.249.374.374,0,0,1-.46.334.949.949,0,0,1-.529-.374,1.654,1.654,0,0,1-.077-1.919.269.269,0,0,1,.149-.092.211.211,0,0,1,.17.054.456.456,0,0,1,.127.273,1.362,1.362,0,0,1-.026.506,1.394,1.394,0,0,1-.344.641,1,1,0,0,1-.148.133.21.21,0,0,1-.06.036s.071-.064.187-.187a1.46,1.46,0,0,0,.3-.632,1.319,1.319,0,0,0,.013-.48.385.385,0,0,0-.1-.22.131.131,0,0,0-.2.034,1.583,1.583,0,0,0,.084,1.8.861.861,0,0,0,.471.348.291.291,0,0,0,.363-.243.258.258,0,0,0-.1-.187.732.732,0,0,0-.2-.112,2.477,2.477,0,0,0-.689-.164C211.081,429.258,211,429.262,211,429.255Z" transform="translate(-203.56 -385.415)" fill="#263238"/>
        <path id="Path_3610" data-name="Path 3610" d="M183.368,429.419l-.05.017-.153.037-.589.135c-.512.112-1.256.271-2.179.448s-2.026.374-3.262.547a8.751,8.751,0,0,1-1.96.1,4.3,4.3,0,0,1-1.026-.2,2.9,2.9,0,0,1-.493-.22,1.494,1.494,0,0,1-.432-.348h0a1.036,1.036,0,0,1-.176-.211,1.308,1.308,0,0,1-.1-1.093,1.749,1.749,0,0,1,.65-.852,3.364,3.364,0,0,1,.925-.458c.163-.047.32-.1.48-.138s.32-.075.478-.1a20.065,20.065,0,0,1,3.393-.1c.482.009.917,0,1.3-.026a9.022,9.022,0,0,0,.972-.123l.351-.075.252-.071.155-.043a.2.2,0,0,1,.054-.011.328.328,0,0,1-.05.021l-.153.052-.25.08-.349.084a8.7,8.7,0,0,1-.977.14c-.383.028-.82.047-1.308.041a20.616,20.616,0,0,0-3.376.118c-.157.022-.312.065-.471.1s-.312.092-.473.136a3.258,3.258,0,0,0-.9.447,1.657,1.657,0,0,0-.615.805,1.22,1.22,0,0,0,.093,1.011.95.95,0,0,0,.159.187h0a1.473,1.473,0,0,0,.4.32,2.772,2.772,0,0,0,.475.213,4.174,4.174,0,0,0,1,.187,8.848,8.848,0,0,0,1.941-.092c1.233-.163,2.338-.359,3.261-.527s1.669-.318,2.184-.419l.592-.116.153-.028A.172.172,0,0,1,183.368,429.419Z" transform="translate(-172.56 -384.561)" fill="#263238"/>
        <path id="Path_3611" data-name="Path 3611" d="M187.261,432.7a3.289,3.289,0,0,1-.05-.519c-.022-.32-.06-.762-.125-1.246s-.144-.921-.207-1.237a3.113,3.113,0,0,1-.088-.514,2.429,2.429,0,0,1,.155.5,11.354,11.354,0,0,1,.237,1.239,11.653,11.653,0,0,1,.1,1.256,2.543,2.543,0,0,1-.019.523Z" transform="translate(-183.879 -386.626)" fill="#263238"/>
        <path id="Path_3612" data-name="Path 3612" d="M217.89,426.548l1.287,3.223,1-.185-1.912-3.147Z" transform="translate(-209.168 -384.398)" opacity="0.4"/>
        <path id="Path_3613" data-name="Path 3613" d="M196.935,356.408c-.207.067-13.506-3.659-18.884-5.17a5.1,5.1,0,0,0-4.159.63l-.065.041a5.1,5.1,0,0,0-2.2,5.447h0a5.113,5.113,0,0,0,2.306,3.2c3.55,2.173,11.052,6.744,11.282,6.654.3-.116,9.673-.359,9.673-.359l-11.277-8.111,5.365,3.468,7.958-5.793Z" transform="translate(-171.441 -323.093)" fill="#263238"/>
        <path id="Path_3614" data-name="Path 3614" d="M245.934,351.713l2.827-1.463,2.773,1.738,10.378.34,1.495,5.045-15.023-3.483s-2.734.243-2.939-.374S245.934,351.713,245.934,351.713Z" transform="translate(-231.543 -322.445)" fill="#ffbe9d"/>
        <path id="Path_3615" data-name="Path 3615" d="M287.658,385.011l-1.4,4.593.174,1.4h0a7.181,7.181,0,0,0,9.47.637h0a7.035,7.035,0,0,0,2.75-5.606l-.021-4.795Z" transform="translate(-264.762 -347.644)" fill="#263238"/>
        <path id="Path_3616" data-name="Path 3616" d="M217.926,378.25c-.015.021-1.637-1.162-3.621-2.642s-3.582-2.7-3.565-2.719,1.637,1.16,3.623,2.64S217.943,378.227,217.926,378.25Z" transform="translate(-203.353 -340.853)" fill="#455a64"/>
        <path id="Path_3617" data-name="Path 3617" d="M250.175,355.15a11.188,11.188,0,0,1-1.383.5,11.58,11.58,0,0,1-1.413.4,11.055,11.055,0,0,1,1.383-.5A11.474,11.474,0,0,1,250.175,355.15Z" transform="translate(-233.147 -326.429)" fill="#eb996e"/>
        <path id="Path_3618" data-name="Path 3618" d="M249.338,359.75a2.742,2.742,0,0,1-.482.092c-.3.049-.706.121-1.155.224s-.848.217-1.138.3a3.042,3.042,0,0,1-.473.129,2.122,2.122,0,0,1,.45-.187,10.464,10.464,0,0,1,1.138-.333,10.358,10.358,0,0,1,1.168-.2A2.329,2.329,0,0,1,249.338,359.75Z" transform="translate(-232.098 -330.168)" fill="#eb996e"/>
        <path id="Path_3619" data-name="Path 3619" d="M248.564,364a12.743,12.743,0,0,1-1.556.359,13.165,13.165,0,0,1-1.577.263,26.4,26.4,0,0,1,3.134-.622Z" transform="translate(-231.562 -333.626)" fill="#eb996e"/>
        <path id="Path_3620" data-name="Path 3620" d="M185.18,320.991l2.607,8.58a.25.25,0,0,0,.219.176l7.1.533a.248.248,0,0,1,.232.249v.443a.249.249,0,0,1-.254.249l-19.433-.374a.249.249,0,0,1-.228-.161l-3.416-8.949a.249.249,0,0,1,.22-.338l12.689-.592A.25.25,0,0,1,185.18,320.991Z" transform="translate(-171.844 -298.502)" fill="#455a64"/>
        <path id="Path_3621" data-name="Path 3621" d="M211.6,341.4a.617.617,0,0,0-.385.437.591.591,0,0,0,.252.534.639.639,0,0,0,.71.026.59.59,0,0,0,.187-.716.643.643,0,0,0-.77-.282" transform="translate(-203.735 -315.217)" fill="#e0e0e0"/>
        <path id="Path_3622" data-name="Path 3622" d="M221.175,371.094l-2.055-3.378,15.1-11.834a6.065,6.065,0,0,1,3.3-1.351h0a6.067,6.067,0,0,1,6.6,6.54l-.241,2.887-10.012,3.227Z" transform="translate(-210.168 -325.906)" fill="#263238"/>
        <path id="Path_3623" data-name="Path 3623" d="M249.449,400.36a.415.415,0,0,1-.039.037l-.123.1-.48.385-.349.275c-.127.1-.278.187-.434.3l-.5.344c-.09.06-.187.125-.275.187l-.3.187c-.409.245-.852.525-1.355.779-.249.131-.5.273-.77.406l-.835.394a40.812,40.812,0,0,1-3.817,1.521c-2.758.951-5.307,1.635-7.132,2.188-.458.135-.871.262-1.233.374s-.673.207-.934.293l-.583.187-.153.047a.272.272,0,0,1-.054.013l.05-.022.149-.056.579-.207c.25-.092.561-.187.923-.31s.772-.25,1.228-.389c1.822-.572,4.369-1.265,7.121-2.214,1.379-.469,2.663-.992,3.812-1.51l.833-.391c.269-.131.523-.271.772-.4.5-.25.945-.527,1.357-.766l.3-.178c.1-.06.187-.123.277-.187l.521-.338c.155-.107.306-.2.435-.3l.353-.269.491-.374.131-.093Z" transform="translate(-219.08 -363.192)" fill="#455a64"/>
        <path id="Path_3624" data-name="Path 3624" d="M317.29,408.81a.588.588,0,0,1-.151.08c-.1.045-.249.107-.433.174a10.936,10.936,0,0,1-1.48.43,11.134,11.134,0,0,1-1.527.217c-.2.013-.357.019-.467.019a.675.675,0,0,1-.172-.009,5.838,5.838,0,0,1,.633-.078,15.109,15.109,0,0,0,1.512-.243c.577-.125,1.1-.278,1.478-.4A5.868,5.868,0,0,1,317.29,408.81Z" transform="translate(-286.555 -370.063)" fill="#455a64"/>
        <path id="Path_3625" data-name="Path 3625" d="M233.632,364.909c.017.022-3.214,2.562-7.216,5.671s-7.261,5.617-7.276,5.594,3.214-2.56,7.216-5.671S233.617,364.889,233.632,364.909Z" transform="translate(-210.184 -334.365)" fill="#455a64"/>
        <path id="Path_3626" data-name="Path 3626" d="M249.35,424.846a2.8,2.8,0,0,0-2.229.077,2.458,2.458,0,0,1-1.409.269,2.331,2.331,0,0,1-.85-.607,5.333,5.333,0,0,0-3.9-1.4,1.6,1.6,0,0,0-1.073.484c-.712.772-.176,1.773.462,2.429a7.02,7.02,0,0,0,4.243,2.055,9.816,9.816,0,0,0,4.485-.62,1.542,1.542,0,0,0,.818-2.121A1.362,1.362,0,0,0,249.35,424.846Z" transform="translate(-226.78 -381.745)" fill="#ff735d"/>
        <g id="Group_2499" data-name="Group 2499" transform="translate(12.807 42.049)" opacity="0.4">
          <path id="Path_3627" data-name="Path 3627" d="M249.513,428.146a2.8,2.8,0,0,0-2.231.077,2.457,2.457,0,0,1-1.409.269,2.33,2.33,0,0,1-.85-.607,5.333,5.333,0,0,0-3.9-1.4,1.6,1.6,0,0,0-1.073.484,1.256,1.256,0,0,0-.3.542,2.823,2.823,0,0,0,.761,1.263,7.02,7.02,0,0,0,4.243,2.055,9.815,9.815,0,0,0,4.485-.62,1.639,1.639,0,0,0,.955-1.138,1.383,1.383,0,0,0-.686-.917Z" transform="translate(-239.75 -426.477)"/>
        </g>
        <path id="Path_3628" data-name="Path 3628" d="M250.058,428.93a1.233,1.233,0,0,0-.178-.43,1.413,1.413,0,0,0-.387-.374,1.562,1.562,0,0,0-.667-.254,5.454,5.454,0,0,0-1.852.349,3.032,3.032,0,0,1-1.121.187,1.494,1.494,0,0,1-.579-.2,3.565,3.565,0,0,1-.5-.374,5.192,5.192,0,0,0-1.981-1.177,5.067,5.067,0,0,0-.985-.228,3.079,3.079,0,0,0-.878,0,1.95,1.95,0,0,0-.676.235,1.78,1.78,0,0,0-.42.338c-.187.234-.256.392-.267.385a1.528,1.528,0,0,1,.239-.409,1.682,1.682,0,0,1,.415-.374,1.92,1.92,0,0,1,.7-.258,3.051,3.051,0,0,1,.9,0,5.2,5.2,0,0,1,1,.222,5.944,5.944,0,0,1,1.039.46,4.257,4.257,0,0,1,.506.329c.163.127.314.265.471.4a3.55,3.55,0,0,0,.484.374,1.415,1.415,0,0,0,.54.187,2.853,2.853,0,0,0,1.089-.17,5.249,5.249,0,0,1,1.885-.333,1.557,1.557,0,0,1,1.076.682,1.011,1.011,0,0,1,.135.327.51.51,0,0,1,.011.107Z" transform="translate(-226.797 -384.295)" fill="#263238"/>
        <path id="Path_3629" data-name="Path 3629" d="M250.058,428.93a1.233,1.233,0,0,0-.178-.43,1.413,1.413,0,0,0-.387-.374,1.562,1.562,0,0,0-.667-.254,5.454,5.454,0,0,0-1.852.349,3.032,3.032,0,0,1-1.121.187,1.494,1.494,0,0,1-.579-.2,3.565,3.565,0,0,1-.5-.374,5.192,5.192,0,0,0-1.981-1.177,5.067,5.067,0,0,0-.985-.228,3.079,3.079,0,0,0-.878,0,1.95,1.95,0,0,0-.676.235,1.78,1.78,0,0,0-.42.338c-.187.234-.256.392-.267.385a1.528,1.528,0,0,1,.239-.409,1.682,1.682,0,0,1,.415-.374,1.92,1.92,0,0,1,.7-.258,3.051,3.051,0,0,1,.9,0,5.2,5.2,0,0,1,1,.222,5.944,5.944,0,0,1,1.039.46,4.257,4.257,0,0,1,.506.329c.163.127.314.265.471.4a3.55,3.55,0,0,0,.484.374,1.415,1.415,0,0,0,.54.187,2.853,2.853,0,0,0,1.089-.17,5.249,5.249,0,0,1,1.885-.333,1.557,1.557,0,0,1,1.076.682,1.011,1.011,0,0,1,.135.327.51.51,0,0,1,.011.107Z" transform="translate(-226.797 -384.295)" fill="#263238"/>
        <path id="Path_3630" data-name="Path 3630" d="M247.63,433.712a1.917,1.917,0,0,1,.374-.256,10.189,10.189,0,0,1,.959-.512,10.59,10.59,0,0,1,1.007-.413,1.971,1.971,0,0,1,.434-.121,2.426,2.426,0,0,1-.409.187c-.256.107-.607.256-.99.435s-.721.355-.966.484A2.256,2.256,0,0,1,247.63,433.712Z" transform="translate(-233.351 -389.253)" fill="#263238"/>
        <path id="Path_3631" data-name="Path 3631" d="M249,437.218a13.146,13.146,0,0,1,1.414-.738,13.285,13.285,0,0,1,1.457-.65,13.146,13.146,0,0,1-1.414.738A12.949,12.949,0,0,1,249,437.218Z" transform="translate(-234.465 -392.034)" fill="#263238"/>
        <path id="Path_3632" data-name="Path 3632" d="M250.185,435.626c-.015.022-.787-.437-1.723-1.028s-1.682-1.089-1.682-1.112.785.437,1.723,1.03S250.2,435.6,250.185,435.626Z" transform="translate(-232.659 -390.128)" fill="#263238"/>
        <path id="Path_3633" data-name="Path 3633" d="M256.273,433.244a2.465,2.465,0,0,1-.374-.252c-.226-.164-.54-.391-.891-.633s-.671-.458-.9-.613a2.288,2.288,0,0,1-.374-.265,2.12,2.12,0,0,1,.405.207c.243.14.574.348.934.59s.661.48.878.66a1.8,1.8,0,0,1,.325.306Z" transform="translate(-238.311 -388.497)" fill="#263238"/>
      </g>
    </g>
  </g>
</svg>
